<?xml version="1.0" encoding="UTF-8"?>
<svg width="18px" height="18px" viewBox="0 0 18 18" version="1.1" xmlns="http://www.w3.org/2000/svg" xmlns:xlink="http://www.w3.org/1999/xlink">
    <!-- Generator: sketchtool 46.2 (44496) - http://www.bohemiancoding.com/sketch -->
    <title>alert--small</title>
    <desc>Created with sketchtool.</desc>
    <defs></defs>
    <g id="Android" stroke="none" stroke-width="1" fill="none" fill-rule="evenodd">
        <g id="alert--small" fill="#000000">
            <path d="M9.5,12.5 C9.5,12.776 9.276,13 9,13 C8.724,13 8.5,12.776 8.5,12.5 C8.5,12.224 8.724,12 9,12 C9.276,12 9.5,12.224 9.5,12.5 M9.5,5.5 L9.5,10.5 C9.5,10.776 9.276,11 9,11 C8.724,11 8.5,10.776 8.5,10.5 L8.5,5.5 C8.5,5.224 8.724,5 9,5 C9.276,5 9.5,5.224 9.5,5.5 M9,16 C5.141,16 2,12.86 2,9 C2,5.14 5.141,2 9,2 C12.859,2 16,5.14 16,9 C16,12.86 12.859,16 9,16 M9,1 C4.582,1 1,4.582 1,9 C1,13.418 4.582,17 9,17 C13.418,17 17,13.418 17,9 C17,4.582 13.418,1 9,1" id="Page-1"></path>
        </g>
    </g>
</svg>