<?xml version="1.0" encoding="UTF-8"?>
<svg width="18px" height="18px" viewBox="0 0 18 18" version="1.1" xmlns="http://www.w3.org/2000/svg" xmlns:xlink="http://www.w3.org/1999/xlink">
    <!-- Generator: (null) (null) ((null)) - http://www.bohemiancoding.com/sketch -->
    <title>announce--small</title>
    <desc>Created with (null).</desc>
    <defs></defs>
    <g id="Android" stroke="none" stroke-width="1" fill="none" fill-rule="evenodd">
        <g id="announce--small" fill="#000000" fill-rule="nonzero">
            <path d="M9.32138209,1 C11.2736981,1 12.8570106,2.58331221 12.8570106,4.53562848 L12.8570106,9.17836821 C12.8570106,11.1306833 11.2736975,12.7139967 9.32138209,12.7139967 C7.36906665,12.7139967 5.78575361,11.1306833 5.78575361,9.17836821 L5.78575361,4.53562848 C5.78575361,2.58331221 7.36906605,1 9.32138209,1 Z M9.32138209,1.99998193 C8.09274971,1.99998193 7.06494646,2.85948294 6.83332372,4.03563981 L7.71225972,4.0356518 C7.89256927,4.03310177 8.06028417,4.12783515 8.15118311,4.28357666 C8.24208205,4.43931817 8.24208205,4.63193879 8.15118311,4.7876803 C8.06028417,4.94342181 7.89256927,5.03815518 7.71427988,5.03561944 L6.78573554,5.03561944 L6.78573554,6.35700929 L7.71225972,6.35702167 C7.89256927,6.35447164 8.06028417,6.44920501 8.15118311,6.60494653 C8.24208205,6.76068804 8.24208205,6.95330865 8.15118311,7.10905016 C8.06028417,7.26479168 7.89256927,7.35952505 7.71427988,7.35698931 L6.78573554,7.35698931 L6.78573554,8.67837915 L7.71225972,8.67839153 C7.89256927,8.67584151 8.06028417,8.77057488 8.15118311,8.92631639 C8.24208205,9.0820579 8.24208205,9.27467852 8.15118311,9.43042003 C8.06028417,9.58616154 7.89256927,9.68089492 7.71427988,9.67835917 L6.83297225,9.67835917 C7.0622506,10.8556779 8.08963615,11.7140148 9.32138209,11.7140148 C10.5531369,11.7140148 11.5805284,10.8556655 11.8097969,9.67833374 L10.9352019,9.67820114 C10.7566062,9.68660862 10.5870948,9.59908509 10.4905359,9.44860752 C10.393977,9.29812995 10.3850443,9.10756581 10.4671035,8.94871552 C10.5491626,8.78986523 10.7097434,8.68686863 10.8883072,8.67853425 C10.9117437,8.67780153 10.9117437,8.67780153 10.9284843,8.67837725 L11.8570286,8.67837725 L11.8570286,7.3569681 L10.9352019,7.35683128 C10.7566062,7.36523875 10.5870948,7.27771522 10.4905359,7.12723765 C10.393977,6.97676008 10.3850443,6.78619595 10.4671035,6.62734566 C10.5491626,6.46849537 10.7097434,6.36549877 10.8883072,6.35716438 C10.9117437,6.35643167 10.9117437,6.35643167 10.9284843,6.35700738 L11.8570286,6.35700738 L11.8570286,5.03559824 L10.9352019,5.03546141 C10.7566062,5.04386889 10.5870948,4.95634536 10.4905359,4.80586779 C10.393977,4.65539022 10.3850443,4.46482608 10.4671035,4.30597579 C10.5491626,4.1471255 10.7097434,4.0441289 10.8883072,4.03579452 C10.9117437,4.0350618 10.9117437,4.0350618 10.9284843,4.03563752 L11.80944,4.03563752 C11.5778164,2.85948183 10.5500137,1.99998193 9.32138209,1.99998193 Z M4.83776762,5.76622633 C4.94399816,5.86347965 5.00313503,6.00181592 5.00006641,6.14273069 L5.00006641,9.17836821 C5.00006641,11.5788002 6.92095045,13.4996839 9.32138209,13.4996839 C11.7218137,13.4996839 13.6426978,11.5788002 13.6426978,9.17836821 L13.6427121,6.14475085 C13.640162,5.9644413 13.7348954,5.7967264 13.8906369,5.70582746 C14.0463784,5.61492852 14.238999,5.61492852 14.3947406,5.70582746 C14.5504821,5.7967264 14.6452154,5.9644413 14.6426797,6.14273069 L14.6426797,9.17836821 C14.6426797,11.9388751 12.5405206,14.2250818 9.82137305,14.4774812 L9.82137305,15.9996214 L12.3549995,15.999635 C12.535309,15.9970849 12.7030239,16.0918183 12.7939228,16.2475598 C12.8848218,16.4033013 12.8848218,16.5959219 12.7939228,16.7516634 C12.7030239,16.907405 12.535309,17.0021383 12.3570196,16.9996026 L6.2924622,16.9994446 C6.11386648,17.007852 5.94435508,16.9203285 5.84779619,16.7698509 C5.75123731,16.6193734 5.74230462,16.4288092 5.82436376,16.2699589 C5.9064229,16.1111087 6.06700366,16.0081121 6.24556752,15.9997777 C6.26900393,15.999045 6.26900393,15.999045 6.28574457,15.9996207 L8.82139113,15.9996207 L8.82139113,14.4774812 C6.10224357,14.2250818 4.00008448,11.9388751 4.00008448,9.17836821 L4.00011753,6.14580316 C3.99454435,5.88673274 4.18781381,5.66633128 4.44539045,5.63801641 C4.58854296,5.62225244 4.73154173,5.66897728 4.83776762,5.76622633 Z" id="Shape"></path>
        </g>
    </g>
</svg>