<?xml version="1.0" encoding="UTF-8"?>
<svg width="16px" height="16px" viewBox="0 0 16 16" version="1.1" xmlns="http://www.w3.org/2000/svg" xmlns:xlink="http://www.w3.org/1999/xlink">
    <!-- Generator: sketchtool 46.2 (44496) - http://www.bohemiancoding.com/sketch -->
    <title>archive--small</title>
    <desc>Created with sketchtool.</desc>
    <defs></defs>
    <g id="Android" stroke="none" stroke-width="1" fill="none" fill-rule="evenodd">
        <g id="archive--small" fill="#000000">
            <path d="M0.8,3.3 L15.2,3.3 L15.2,1.7 L0.8,1.7 L0.8,3.3 Z M14.4,4.1 L1.6,4.1 L1.6,12.5 C1.6,13.6032 2.4976,14.5 3.6,14.5 L12.4,14.5 C13.5032,14.5 14.4,13.6032 14.4,12.5 L14.4,4.1 Z M16,1.7 L16,3.3 C16,3.74 15.64,4.1 15.2,4.1 L15.2,4.1 L15.2,12.5 C15.2,14.044 13.9432,15.3 12.4,15.3 L3.6,15.3 C2.056,15.3 0.8,14.044 0.8,12.5 L0.8,4.1 L0.8,4.1 C0.36,4.1 0,3.74 0,3.3 L0,1.7 C0,1.26 0.36,0.9 0.8,0.9 L3.5984,0.9 L3.6,0.9 L12.4,0.9 L12.4024,0.9 L15.2,0.9 C15.64,0.9 16,1.26 16,1.7 L16,1.7 Z M3.2,6.1 C3.2,5.8792 3.3792,5.7 3.6,5.7 L12.4,5.7 C12.6208,5.7 12.8,5.8792 12.8,6.1 C12.8,6.3216 12.6208,6.5 12.4,6.5 L3.6,6.5 C3.3792,6.5 3.2,6.3216 3.2,6.1 L3.2,6.1 Z" id="Page-1"></path>
        </g>
    </g>
</svg>