<?xml version="1.0" encoding="UTF-8"?>
<svg width="18px" height="18px" viewBox="0 0 18 18" version="1.1" xmlns="http://www.w3.org/2000/svg" xmlns:xlink="http://www.w3.org/1999/xlink">
    <!-- Generator: sketchtool 46.2 (44496) - http://www.bohemiancoding.com/sketch -->
    <title>archive--small</title>
    <desc>Created with sketchtool.</desc>
    <defs></defs>
    <g id="Android" stroke="none" stroke-width="1" fill="none" fill-rule="evenodd">
        <g id="archive--small" fill="#000000">
            <path d="M0.9,3.6 L17.1,3.6 L17.1,1.8 L0.9,1.8 L0.9,3.6 Z M16.2,4.5 L1.8,4.5 L1.8,13.95 C1.8,15.1911 2.8098,16.2 4.05,16.2 L13.95,16.2 C15.1911,16.2 16.2,15.1911 16.2,13.95 L16.2,4.5 Z M18,1.8 L18,3.6 C18,4.095 17.595,4.5 17.1,4.5 L17.1,4.5 L17.1,13.95 C17.1,15.687 15.6861,17.1 13.95,17.1 L4.05,17.1 C2.313,17.1 0.9,15.687 0.9,13.95 L0.9,4.5 L0.9,4.5 C0.405,4.5 0,4.095 0,3.6 L0,1.8 C0,1.305 0.405,0.9 0.9,0.9 L4.0482,0.9 L4.05,0.9 L13.95,0.9 L13.9527,0.9 L17.1,0.9 C17.595,0.9 18,1.305 18,1.8 L18,1.8 Z M3.6,6.75 C3.6,6.5016 3.8016,6.3 4.05,6.3 L13.95,6.3 C14.1984,6.3 14.4,6.5016 14.4,6.75 C14.4,6.9993 14.1984,7.2 13.95,7.2 L4.05,7.2 C3.8016,7.2 3.6,6.9993 3.6,6.75 L3.6,6.75 Z" id="Page-1"></path>
        </g>
    </g>
</svg>