<?xml version="1.0" encoding="UTF-8" standalone="no"?>
<svg width="24px" height="24px" viewBox="0 0 24 24" version="1.1" xmlns="http://www.w3.org/2000/svg" xmlns:xlink="http://www.w3.org/1999/xlink">
    <!-- Generator: sketchtool 43.2 (39069) - http://www.bohemiancoding.com/sketch -->
    <title>archive</title>
    <desc>Created with sketchtool.</desc>
    <defs></defs>
    <g id="Android" stroke="none" stroke-width="1" fill="none" fill-rule="evenodd">
        <g id="archive" fill="#000000">
            <path d="M1.71428571,5.14285714 L22.2857143,5.14285714 L22.2857143,3.42857143 L1.71428571,3.42857143 L1.71428571,5.14285714 Z M20.5714286,6.85714286 L3.42857143,6.85714286 L3.42857143,18.8571429 C3.42857143,19.8025714 4.19742857,20.5714286 5.14285714,20.5714286 L18.8571429,20.5714286 C19.8025714,20.5714286 20.5714286,19.8025714 20.5714286,18.8571429 L20.5714286,6.85714286 Z M24,3.42857143 L24,5.14285714 C24,6.08571429 23.2285714,6.85714286 22.2857143,6.85714286 L22.2857143,18.8571429 C22.2857143,20.748 20.748,22.2857143 18.8571429,22.2857143 L5.14285714,22.2857143 C3.252,22.2857143 1.71428571,20.748 1.71428571,18.8571429 L1.71428571,6.85714286 C0.771428571,6.85714286 0,6.08571429 0,5.14285714 L0,3.42857143 C0,2.48571429 0.771428571,1.71428571 1.71428571,1.71428571 L22.2857143,1.71428571 C23.2285714,1.71428571 24,2.48571429 24,3.42857143 L24,3.42857143 Z M5.14285714,9.42857143 C5.14285714,8.95542857 5.52685714,8.57142857 6,8.57142857 L18,8.57142857 C18.474,8.57142857 18.8571429,8.95542857 18.8571429,9.42857143 C18.8571429,9.90171429 18.474,10.2857143 18,10.2857143 L6,10.2857143 C5.52685714,10.2857143 5.14285714,9.90171429 5.14285714,9.42857143 L5.14285714,9.42857143 Z" id="Page-1"></path>
        </g>
    </g>
</svg>