<?xml version="1.0" encoding="UTF-8"?>
<svg width="18px" height="18px" viewBox="0 0 18 18" version="1.1" xmlns="http://www.w3.org/2000/svg" xmlns:xlink="http://www.w3.org/1999/xlink">
    <!-- Generator: sketchtool 46.2 (44496) - http://www.bohemiancoding.com/sketch -->
    <title>arrow-left--small</title>
    <desc>Created with sketchtool.</desc>
    <defs></defs>
    <g id="Android" stroke="none" stroke-width="1" fill="none" fill-rule="evenodd">
        <g id="arrow-left--small" fill="#000000">
            <path d="M16.650225,8.5491 L2.385225,8.5491 L7.978725,2.556 C8.148825,2.3751 8.138925,2.0898 7.957125,1.9206 C7.777125,1.7514 7.491825,1.7613 7.321725,1.9422 L1.032525,8.6805 C1.031625,8.6805 1.031625,8.6814 1.031625,8.6814 L1.021725,8.6922 C1.004625,8.7111 0.996525,8.7336 0.983025,8.7543 C0.965925,8.7795 0.946125,8.802 0.934425,8.8308 C0.890325,8.9388 0.890325,9.0594 0.934425,9.1674 C0.946125,9.1962 0.965925,9.2187 0.983025,9.2439 C0.996525,9.2646 1.004625,9.2871 1.021725,9.306 L1.031625,9.3168 C1.031625,9.3168 1.031625,9.3177 1.032525,9.3177 L7.321725,16.056 C7.409925,16.1505 7.529625,16.1991 7.650225,16.1991 C7.760025,16.1991 7.870725,16.1586 7.957125,16.0776 C8.138925,15.9084 8.148825,15.6231 7.978725,15.4422 L2.385225,9.4491 L16.650225,9.4491 C16.898625,9.4491 17.100225,9.2475 17.100225,8.9991 C17.100225,8.7507 16.898625,8.5491 16.650225,8.5491" id="Fill-1"></path>
        </g>
    </g>
</svg>