<?xml version="1.0" encoding="UTF-8"?>
<svg width="20px" height="20px" viewBox="0 0 20 20" version="1.1" xmlns="http://www.w3.org/2000/svg" xmlns:xlink="http://www.w3.org/1999/xlink">
    <!-- Generator: sketchtool 46.2 (44496) - http://www.bohemiancoding.com/sketch -->
    <title>audio--small</title>
    <desc>Created with sketchtool.</desc>
    <defs></defs>
    <g id="Android" stroke="none" stroke-width="1" fill="none" fill-rule="evenodd">
        <g id="audio--small" fill="#000000">
            <path d="M11.415,5.72109703 C12.852,7.85409703 12.865,10.622097 11.449,12.775097 C11.353,12.921097 11.193,13.000097 11.031,13.000097 C10.936,13.000097 10.841,12.974097 10.756,12.918097 C10.526,12.766097 10.462,12.456097 10.614,12.226097 C11.808,10.411097 11.796,8.07709703 10.586,6.28009703 C10.432,6.05109703 10.492,5.74009703 10.721,5.58509703 C10.949,5.43209703 11.261,5.49209703 11.415,5.72109703 L11.415,5.72109703 Z M15,9.29009703 C15,10.915097 14.521,12.429097 14.099,13.764097 L13.978,14.150097 C13.911,14.364097 13.713,14.500097 13.5,14.500097 C13.451,14.500097 13.401,14.493097 13.352,14.478097 C13.088,14.395097 12.941,14.115097 13.023,13.851097 L13.146,13.462097 C13.546,12.196097 14,10.761097 14,9.29009703 C14,7.80409703 13.546,6.31609703 13.144,5.00209703 L13.036,4.64509703 C12.956,4.38109703 13.105,4.10209703 13.37,4.02209703 C13.632,3.94009703 13.913,4.09209703 13.993,4.35609703 L14.101,4.71009703 C14.501,6.02209703 15,7.65509703 15,9.29009703 L15,9.29009703 Z M15.367,15.840097 C15.269,15.947097 15.135,16.000097 15,16.000097 C14.879,16.000097 14.757,15.956097 14.661,15.867097 C14.458,15.680097 14.446,15.364097 14.634,15.160097 C17.769,11.775097 17.769,7.22609703 14.634,3.84009703 C14.446,3.63709703 14.458,3.32109703 14.661,3.13309703 C14.862,2.94609703 15.179,2.95709703 15.367,3.16009703 C18.879,6.95209703 18.879,12.048097 15.367,15.840097 L15.367,15.840097 Z M8.5,12.950097 L5.416,10.446097 C5.327,10.372097 5.215,10.333097 5.101,10.333097 L3,10.333097 L3,8.16709703 L5.101,8.16709703 C5.215,8.16709703 5.327,8.12809703 5.416,8.05509703 L8.5,5.55009703 L8.5,12.950097 Z M9.215,4.04909703 C9.042,3.96509703 8.836,3.99109703 8.685,4.11309703 L4.923,7.16709703 L2.5,7.16709703 C2.224,7.16709703 2,7.39109703 2,7.66709703 L2,10.833097 C2,11.110097 2.224,11.333097 2.5,11.333097 L4.923,11.333097 L8.685,14.388097 C8.776,14.462097 8.888,14.500097 9,14.500097 C9.074,14.500097 9.147,14.485097 9.215,14.451097 C9.39,14.368097 9.5,14.193097 9.5,14.000097 L9.5,4.50009703 C9.5,4.30809703 9.39,4.13209703 9.215,4.04909703 L9.215,4.04909703 Z" id="Fill-1"></path>
        </g>
    </g>
</svg>