<?xml version="1.0" encoding="UTF-8" standalone="no"?>
<svg width="18px" height="18px" viewBox="0 0 18 18" version="1.1" xmlns="http://www.w3.org/2000/svg" xmlns:xlink="http://www.w3.org/1999/xlink">
    <!-- Generator: sketchtool 43.2 (39069) - http://www.bohemiancoding.com/sketch -->
    <title>block--small</title>
    <desc>Created with sketchtool.</desc>
    <defs></defs>
    <g id="Android" stroke="none" stroke-width="1" fill="none" fill-rule="evenodd">
        <g id="block--small" fill="#000000">
            <path d="M9,16.2 C7.1766,16.2 5.5143,15.5124 4.2444,14.3919 L14.3919,4.2444 C15.5133,5.5143 16.2,7.1766 16.2,9 C16.2,12.9699 12.9699,16.2 9,16.2 M9,1.8 C10.8234,1.8 12.4857,2.4876 13.7556,3.6081 L3.6081,13.7556 C2.4867,12.4857 1.8,10.8234 1.8,9 C1.8,5.0301 5.0301,1.8 9,1.8 M9,0.9 C4.5333,0.9 0.9,4.5333 0.9,9 C0.9,13.4667 4.5333,17.1 9,17.1 C13.4667,17.1 17.1,13.4667 17.1,9 C17.1,4.5333 13.4667,0.9 9,0.9" id="Page-1"></path>
        </g>
    </g>
</svg>