<?xml version="1.0" encoding="UTF-8"?>
<svg width="28px" height="28px" viewBox="0 0 28 28" version="1.1" xmlns="http://www.w3.org/2000/svg" xmlns:xlink="http://www.w3.org/1999/xlink">
    <!-- Generator: sketchtool 43.2 (39069) - http://www.bohemiancoding.com/sketch -->
    <title>block</title>
    <desc>Created with sketchtool.</desc>
    <defs></defs>
    <g id="Android" stroke="none" stroke-width="1" fill="none" fill-rule="evenodd">
        <g id="block" fill="#000000">
            <path d="M14,24 C11.603,24 9.4,23.15 7.676,21.738 L21.738,7.676 C23.15,9.4 24,11.603 24,14 C24,19.514 19.514,24 14,24 M14,4 C16.397,4 18.6,4.85 20.324,6.262 L6.262,20.324 C4.85,18.6 4,16.397 4,14 C4,8.486 8.486,4 14,4 M14,2 C7.383,2 2,7.383 2,14 C2,20.617 7.383,26 14,26 C20.617,26 26,20.617 26,14 C26,7.383 20.617,2 14,2" id="Page-1"></path>
        </g>
    </g>
</svg>