<?xml version="1.0" encoding="UTF-8"?>
<svg width="16px" height="16px" viewBox="0 0 16 16" version="1.1" xmlns="http://www.w3.org/2000/svg" xmlns:xlink="http://www.w3.org/1999/xlink">
    <!-- Generator: sketchtool 52.3 (67297) - http://www.bohemiancoding.com/sketch -->
    <title>calendar-cross--small</title>
    <desc>Created with sketchtool.</desc>
    <g id="Android" stroke="none" stroke-width="1" fill="none" fill-rule="evenodd">
        <g id="calendar-cross--small" fill="#000000">
            <path d="M14.4111109,4.73333327 L1.78888888,4.73333327 L1.78888888,4.01228883 C1.78888888,2.67038885 2.88228886,1.57777776 4.22576662,1.57777776 L4.94444439,1.57777776 L4.94444439,1.9722222 C4.94444439,2.18995553 5.1211555,2.36666663 5.33888883,2.36666663 C5.55662216,2.36666663 5.73333327,2.18995553 5.73333327,1.9722222 L5.73333327,1.57777776 L10.4666665,1.57777776 L10.4666665,1.9722222 C10.4666665,2.18995553 10.6433776,2.36666663 10.861111,2.36666663 C11.0788443,2.36666663 11.2555554,2.18995553 11.2555554,1.9722222 L11.2555554,1.57777776 L11.9742332,1.57777776 C13.3177109,1.57777776 14.4111109,2.67038885 14.4111109,4.01228883 L14.4111109,4.73333327 Z M14.4111109,11.7654887 C14.4111109,12.0944554 14.3472109,12.4131665 14.2201998,12.7129443 C13.8391665,13.616222 12.9571887,14.1999998 11.9742332,14.1999998 L4.22576662,14.1999998 C3.24359997,14.1999998 2.3616222,13.616222 1.97979999,12.7129443 C1.85357777,12.4123776 1.78888888,12.0944554 1.78888888,11.7654887 L1.78888888,5.52222215 L14.4111109,5.52222215 L14.4111109,11.7654887 Z M11.9742332,0.788888878 L11.2555554,0.788888878 L11.2555554,0.394444439 C11.2555554,0.177499998 11.0788443,0 10.861111,0 C10.6433776,0 10.4666665,0.177499998 10.4666665,0.394444439 L10.4666665,0.788888878 L5.73333327,0.788888878 L5.73333327,0.394444439 C5.73333327,0.177499998 5.55662216,0 5.33888883,0 C5.1211555,0 4.94444439,0.177499998 4.94444439,0.394444439 L4.94444439,0.788888878 L4.22576662,0.788888878 C2.44761109,0.788888878 1,2.2341333 1,4.01228883 L1,11.7654887 C1,12.2017443 1.0852,12.6222221 1.25244444,13.019822 C1.7589111,14.2165665 2.92567775,14.9888887 4.22576662,14.9888887 L11.9742332,14.9888887 C13.2751109,14.9888887 14.4418776,14.2165665 14.9475554,13.019822 C15.1155887,12.6222221 15.1999998,12.2017443 15.1999998,11.7654887 L15.1999998,4.01228883 C15.1999998,2.2341333 13.7531776,0.788888878 11.9742332,0.788888878 Z M10.5127085,12.1414541 C10.3394696,12.314693 10.060166,12.3138091 9.887811,12.1414541 L8.01223477,10.2667617 L6.13754241,12.1414541 C5.96430351,12.3138091 5.68499998,12.3138091 5.51264496,12.1414541 C5.33940606,11.969099 5.33940606,11.6889116 5.51264496,11.5165566 L7.38733732,9.64186424 L5.51264496,7.76717188 C5.33940606,7.59393298 5.33940606,7.31462945 5.51264496,7.14227443 C5.68499998,6.96903553 5.96430351,6.96903553 6.13754241,7.14227443 L8.01223477,9.01696679 L9.88692713,7.14227443 C10.060166,6.96903553 10.3394696,6.96903553 10.5127085,7.14227443 C10.6850635,7.31462945 10.6850635,7.59393298 10.5127085,7.76717188 L8.63713222,9.64186424 L10.5127085,11.5165566 C10.6850635,11.6889116 10.6850635,11.969099 10.5127085,12.1414541" id="Page-1"></path>
        </g>
    </g>
</svg>