<?xml version="1.0" encoding="UTF-8"?>
<svg width="24px" height="24px" viewBox="0 0 24 24" version="1.1" xmlns="http://www.w3.org/2000/svg" xmlns:xlink="http://www.w3.org/1999/xlink">
    <!-- Generator: sketchtool 52.3 (67297) - http://www.bohemiancoding.com/sketch -->
    <title>calendar</title>
    <desc>Created with sketchtool.</desc>
    <g id="Android" stroke="none" stroke-width="1" fill="none" fill-rule="evenodd">
        <g id="calendar" fill="#000000">
            <path d="M4.30392248,8.09287142 L19.6969161,8.09287142 L19.6969161,7.22684555 C19.6969161,5.61719435 18.4474984,4.30599932 16.9113016,4.30599932 L15.817013,4.30599932 L15.817013,5.12926884 C15.817013,5.68258643 15.3667195,6.13194739 14.8124476,6.13194739 C14.2590143,6.13194739 13.8087208,5.68258643 13.8087208,5.12926884 L13.8087208,4.30599932 L10.1921178,4.30599932 L10.1921178,5.12926884 C10.1921178,5.68258643 9.74182428,6.13194739 9.18755241,6.13194739 C8.63411907,6.13194739 8.18298705,5.68258643 8.18298705,5.12926884 L8.18298705,4.30599932 L7.08953694,4.30599932 C5.55334017,4.30599932 4.30392248,5.61719435 4.30392248,7.22684555 L4.30392248,8.09287142 Z M4.30392248,9.43927758 L4.30392248,17.4925637 C4.30392248,17.8865929 4.37771359,18.2697234 4.52361875,18.6285415 C4.96217274,19.7108643 5.9692537,20.4108949 7.08953694,20.4108949 L16.9113016,20.4108949 C18.0315848,20.4108949 19.0378273,19.7108643 19.4772198,18.6285415 C19.6231249,18.2697234 19.6969161,17.8865929 19.6969161,17.4925637 L19.6969161,9.43927758 L4.30392248,9.43927758 Z M16.9113016,21.7598161 L7.08953694,21.7598161 C5.44097643,21.7598161 3.96180006,20.7361785 3.32032051,19.1508398 C3.10817106,18.6251881 3,18.0676787 3,17.4925637 L3,7.22684555 C3,4.87273068 4.83471536,2.95959317 7.08953694,2.95959317 L8.18298705,2.95959317 L8.18298705,2.71814549 C8.18298705,2.16482789 8.63411907,1.71462857 9.18755241,1.71462857 C9.74182428,1.71462857 10.1921178,2.16482789 10.1921178,2.71814549 L10.1921178,2.95959317 L13.8087208,2.95959317 L13.8087208,2.71814549 C13.8087208,2.16482789 14.2590143,1.71462857 14.8124476,1.71462857 C15.3667195,1.71462857 15.817013,2.16482789 15.817013,2.71814549 L15.817013,2.95959317 L16.9113016,2.95959317 C19.1661232,2.95959317 21,4.87273068 21,7.22684555 L21,17.4925637 C21,18.0676787 20.8926675,18.6251881 20.6796795,19.1508398 C20.0390385,20.7361785 18.5598621,21.7598161 16.9113016,21.7598161 Z" id="Fill-1"></path>
        </g>
    </g>
</svg>