<?xml version="1.0" encoding="UTF-8"?>
<svg width="24px" height="24px" viewBox="0 0 24 24" version="1.1" xmlns="http://www.w3.org/2000/svg" xmlns:xlink="http://www.w3.org/1999/xlink">
    <!-- Generator: (null) (null) ((null)) - http://www.bohemiancoding.com/sketch -->
    <title>calendar-cross</title>
    <desc>Created with (null).</desc>
    <defs></defs>
    <g id="Android" stroke="none" stroke-width="1" fill="none" fill-rule="evenodd">
        <g id="calendar-cross" fill="#000000">
            <path d="M3.90285708,8.22977914 L19.6374285,8.22977914 L19.6374285,7.34453573 C19.6374285,5.69916561 18.3602856,4.35887454 16.7899999,4.35887454 L15.6714285,4.35887454 L15.6714285,5.2004128 C15.6714285,5.76600878 15.2111428,6.22534127 14.6445714,6.22534127 C14.0788571,6.22534127 13.6185714,5.76600878 13.6185714,5.2004128 L13.6185714,4.35887454 L9.92171422,4.35887454 L9.92171422,5.2004128 C9.92171422,5.76600878 9.4614285,6.22534127 8.89485708,6.22534127 C8.32914279,6.22534127 7.86799993,5.76600878 7.86799993,5.2004128 L7.86799993,4.35887454 L6.75028565,4.35887454 C5.17999993,4.35887454 3.90285708,5.69916561 3.90285708,7.34453573 L3.90285708,8.22977914 Z M3.90285708,9.60606269 L3.90285708,17.8380551 C3.90285708,18.240828 3.97828565,18.6324603 4.1274285,18.9992407 C4.57571422,20.1055808 5.60514279,20.8211454 6.75028565,20.8211454 L16.7899999,20.8211454 C17.9351428,20.8211454 18.9637142,20.1055808 19.4128571,18.9992407 C19.5619999,18.6324603 19.6374285,18.240828 19.6374285,17.8380551 L19.6374285,9.60606269 L3.90285708,9.60606269 Z M16.7899999,22.1999998 L6.75028565,22.1999998 C5.06514279,22.1999998 3.55314279,21.1536472 2.8974285,19.5331291 C2.68057136,18.9958129 2.56999993,18.4259321 2.56999993,17.8380551 L2.56999993,7.34453573 C2.56999993,4.93818193 4.4454285,2.98259099 6.75028565,2.98259099 L7.86799993,2.98259099 L7.86799993,2.73578547 C7.86799993,2.17018949 8.32914279,1.71000004 8.89485708,1.71000004 C9.4614285,1.71000004 9.92171422,2.17018949 9.92171422,2.73578547 L9.92171422,2.98259099 L13.6185714,2.98259099 L13.6185714,2.73578547 C13.6185714,2.17018949 14.0788571,1.71000004 14.6445714,1.71000004 C15.2111428,1.71000004 15.6714285,2.17018949 15.6714285,2.73578547 L15.6714285,2.98259099 L16.7899999,2.98259099 C19.0948571,2.98259099 20.9694285,4.93818193 20.9694285,7.34453573 L20.9694285,17.8380551 C20.9694285,18.4259321 20.8597142,18.9958129 20.6419999,19.5331291 C19.9871428,21.1536472 18.4751428,22.1999998 16.7899999,22.1999998 Z M14.8601375,17.9994211 C14.5799628,18.2795958 14.1270972,18.2795958 13.8469225,17.9994211 L11.819776,15.9729911 L9.79334597,17.9994211 C9.51317125,18.2803123 9.05958915,18.2795958 8.78013098,17.9994211 C8.49995625,17.7192463 8.49995625,17.2670973 8.78013098,16.9862061 L10.806561,14.9597761 L8.78013098,12.9333461 C8.50067281,12.6531714 8.49995625,12.1995893 8.78013098,11.9201311 C9.05958915,11.6399564 9.51388781,11.6399564 9.79334597,11.9201311 L11.819776,13.9465611 L13.846206,11.9201311 C14.1263807,11.6399564 14.5799628,11.6399564 14.8601375,11.9201311 C15.1403122,12.1995893 15.1395957,12.6531714 14.8601375,12.9333461 L12.832991,14.9597761 L14.8601375,16.9862061 C15.1403122,17.2663808 15.1395957,17.7199629 14.8601375,17.9994211" id="Fill-1"></path>
        </g>
    </g>
</svg>