<?xml version="1.0" encoding="UTF-8" standalone="no"?>
<svg width="18px" height="18px" viewBox="0 0 18 18" version="1.1" xmlns="http://www.w3.org/2000/svg" xmlns:xlink="http://www.w3.org/1999/xlink">
    <!-- Generator: sketchtool 43.2 (39069) - http://www.bohemiancoding.com/sketch -->
    <title>calendar-check--small</title>
    <desc>Created with sketchtool.</desc>
    <defs></defs>
    <g id="Android" stroke="none" stroke-width="1" fill="none" fill-rule="evenodd">
        <g id="calendar-check--small" fill="#000000">
            <path d="M16.3000007,5.40000025 L1.90000004,5.40000025 L1.90000004,4.57740022 C1.90000004,3.04650014 3.1474001,1.80000008 4.68010017,1.80000008 L5.50000021,1.80000008 L5.50000021,2.25000011 C5.50000021,2.49840012 5.70160022,2.70000013 5.95000023,2.70000013 C6.19840024,2.70000013 6.40000025,2.49840012 6.40000025,2.25000011 L6.40000025,1.80000008 L11.8000005,1.80000008 L11.8000005,2.25000011 C11.8000005,2.49840012 12.0016005,2.70000013 12.2500005,2.70000013 C12.4984005,2.70000013 12.7000006,2.49840012 12.7000006,2.25000011 L12.7000006,1.80000008 L13.5199006,1.80000008 C15.0526007,1.80000008 16.3000007,3.04650014 16.3000007,4.57740022 L16.3000007,5.40000025 Z M16.3000007,13.4226006 C16.3000007,13.7979006 16.2271007,14.1615007 16.0822007,14.5035007 C15.6475007,15.5340007 14.6413006,16.2000008 13.5199006,16.2000008 L4.68010017,16.2000008 C3.55960012,16.2000008 2.55340007,15.5340007 2.11780005,14.5035007 C1.97380005,14.1606007 1.90000004,13.7979006 1.90000004,13.4226006 L1.90000004,6.3000003 L16.3000007,6.3000003 L16.3000007,13.4226006 Z M13.5199006,0.900000042 L12.7000006,0.900000042 L12.7000006,0.450000021 C12.7000006,0.20250001 12.4984005,0 12.2500005,0 C12.0016005,0 11.8000005,0.20250001 11.8000005,0.450000021 L11.8000005,0.900000042 L6.40000025,0.900000042 L6.40000025,0.450000021 C6.40000025,0.20250001 6.19840024,0 5.95000023,0 C5.70160022,0 5.50000021,0.20250001 5.50000021,0.450000021 L5.50000021,0.900000042 L4.68010017,0.900000042 C2.65150008,0.900000042 1,2.54880012 1,4.57740022 L1,13.4226006 C1,13.9203007 1.0972,14.4000007 1.28800001,14.8536007 C1.86580004,16.2189008 3.1969001,17.1000008 4.68010017,17.1000008 L13.5199006,17.1000008 C15.0040007,17.1000008 16.3351007,16.2189008 16.9120007,14.8536007 C17.1037008,14.4000007 17.2000008,13.9203007 17.2000008,13.4226006 L17.2000008,4.57740022 C17.2000008,2.54880012 15.5494007,0.900000042 13.5199006,0.900000042 L13.5199006,0.900000042 Z M13.240625,8.86904443 L7.945875,14.1637945 C7.82517936,14.2853711 7.66043423,14.3382305 7.50273701,14.3214917 C7.34680178,14.3382305 7.18381862,14.2862521 7.06400398,14.1664374 L4.55846835,11.6609018 C4.34791173,11.4503452 4.34614975,11.1102831 4.55934934,10.8979645 C4.77166793,10.6865268 5.11261107,10.6865268 5.32404868,10.8962025 L7.50273701,13.0775338 L12.4759257,8.10434508 C12.6882443,7.89290748 13.0291874,7.89026451 13.242387,8.1025831 C13.4538246,8.31402071 13.4529436,8.65672583 13.240625,8.86904443" id="Page-1"></path>
        </g>
    </g>
</svg>