<?xml version="1.0" encoding="UTF-8"?>
<svg width="16px" height="16px" viewBox="0 0 16 16" version="1.1" xmlns="http://www.w3.org/2000/svg" xmlns:xlink="http://www.w3.org/1999/xlink">
    <!-- Generator: sketchtool 46.2 (44496) - http://www.bohemiancoding.com/sketch -->
    <title>calendar-plus--small</title>
    <desc>Created with sketchtool.</desc>
    <defs></defs>
    <g id="Android" stroke="none" stroke-width="1" fill="none" fill-rule="evenodd">
        <g id="calendar-plus--small" fill="#000000">
            <path d="M14.4111109,4.01228883 C14.4111109,2.67038885 13.3177109,1.57777776 11.9742332,1.57777776 L11.2555554,1.57777776 L11.2555554,1.9722222 C11.2555554,2.18995553 11.0788443,2.36666663 10.861111,2.36666663 C10.6433776,2.36666663 10.4666665,2.18995553 10.4666665,1.9722222 L10.4666665,1.57777776 L5.73333327,1.57777776 L5.73333327,1.9722222 C5.73333327,2.18995553 5.55662216,2.36666663 5.33888883,2.36666663 C5.1211555,2.36666663 4.94444439,2.18995553 4.94444439,1.9722222 L4.94444439,1.57777776 L4.22576662,1.57777776 C2.88228886,1.57777776 1.78888888,2.67038885 1.78888888,4.01228883 L1.78888888,4.73333327 L14.4111109,4.73333327 L14.4111109,4.01228883 Z M14.4111109,5.52222215 L1.78888888,5.52222215 L1.78888888,11.7654887 C1.78888888,12.0944554 1.85357777,12.4123776 1.97979999,12.7129443 C2.3616222,13.616222 3.24359997,14.1999998 4.22576662,14.1999998 L11.9742332,14.1999998 C12.9571887,14.1999998 13.8391665,13.616222 14.2201998,12.7129443 C14.3472109,12.4131665 14.4111109,12.0944554 14.4111109,11.7654887 L14.4111109,5.52222215 Z M15.1999998,4.01228883 L15.1999998,11.7654887 C15.1999998,12.2017443 15.1155887,12.6222221 14.9475554,13.019822 C14.4418776,14.2173554 13.2751109,14.9888887 11.9742332,14.9888887 L4.22576662,14.9888887 C2.92567775,14.9888887 1.7589111,14.2173554 1.25244444,13.019822 C1.0852,12.6222221 1,12.2017443 1,11.7654887 L1,4.01228883 C1,2.2341333 2.44761109,0.788888878 4.22576662,0.788888878 L4.94444439,0.788888878 L4.94444439,0.394444439 C4.94444439,0.177499998 5.1211555,0 5.33888883,0 C5.55662216,0 5.73333327,0.177499998 5.73333327,0.394444439 L5.73333327,0.788888878 L10.4666665,0.788888878 L10.4666665,0.394444439 C10.4666665,0.177499998 10.6433776,0 10.861111,0 C11.0788443,0 11.2555554,0.177499998 11.2555554,0.394444439 L11.2555554,0.788888878 L11.9742332,0.788888878 C13.7531776,0.788888878 15.1999998,2.2341333 15.1999998,4.01228883 L15.1999998,4.01228883 Z M4.94444439,9.90055542 C4.94444439,9.6820332 5.1211555,9.50611098 5.33888883,9.50611098 L7.70555547,9.50611098 L7.70555547,7.13944435 C7.70555547,6.92171102 7.88226657,6.74499991 8.0999999,6.74499991 C8.31773324,6.74499991 8.49444434,6.92171102 8.49444434,7.13944435 L8.49444434,9.50611098 L10.861111,9.50611098 C11.0788443,9.50611098 11.2555554,9.6820332 11.2555554,9.90055542 C11.2555554,10.1182888 11.0788443,10.2949999 10.861111,10.2949999 L8.49444434,10.2949999 L8.49444434,12.6616665 C8.49444434,12.8793998 8.31773324,13.0561109 8.0999999,13.0561109 C7.88226657,13.0561109 7.70555547,12.8793998 7.70555547,12.6616665 L7.70555547,10.2949999 L5.33888883,10.2949999 C5.1211555,10.2949999 4.94444439,10.1182888 4.94444439,9.90055542 L4.94444439,9.90055542 Z" id="Fill-1"></path>
        </g>
    </g>
</svg>