<?xml version="1.0" encoding="UTF-8"?>
<svg width="16px" height="16px" viewBox="0 0 16 16" version="1.1" xmlns="http://www.w3.org/2000/svg" xmlns:xlink="http://www.w3.org/1999/xlink">
    <!-- Generator: (null) (null) ((null)) - http://www.bohemiancoding.com/sketch -->
    <title>calendar-check--small</title>
    <desc>Created with (null).</desc>
    <defs></defs>
    <g id="Android" stroke="none" stroke-width="1" fill="none" fill-rule="evenodd">
        <g id="calendar-check--small" fill="#000000">
            <path d="M14.4111109,4.73333327 L1.78888888,4.73333327 L1.78888888,4.01228883 C1.78888888,2.67038885 2.88228886,1.57777776 4.22576662,1.57777776 L4.94444439,1.57777776 L4.94444439,1.9722222 C4.94444439,2.18995553 5.1211555,2.36666663 5.33888883,2.36666663 C5.55662216,2.36666663 5.73333327,2.18995553 5.73333327,1.9722222 L5.73333327,1.57777776 L10.4666665,1.57777776 L10.4666665,1.9722222 C10.4666665,2.18995553 10.6433776,2.36666663 10.861111,2.36666663 C11.0788443,2.36666663 11.2555554,2.18995553 11.2555554,1.9722222 L11.2555554,1.57777776 L11.9742332,1.57777776 C13.3177109,1.57777776 14.4111109,2.67038885 14.4111109,4.01228883 L14.4111109,4.73333327 Z M14.4111109,11.7654887 C14.4111109,12.0944554 14.3472109,12.4131665 14.2201998,12.7129443 C13.8391665,13.616222 12.9571887,14.1999998 11.9742332,14.1999998 L4.22576662,14.1999998 C3.24359997,14.1999998 2.3616222,13.616222 1.97979999,12.7129443 C1.85357777,12.4123776 1.78888888,12.0944554 1.78888888,11.7654887 L1.78888888,5.52222215 L14.4111109,5.52222215 L14.4111109,11.7654887 Z M11.9742332,0.788888878 L11.2555554,0.788888878 L11.2555554,0.394444439 C11.2555554,0.177499998 11.0788443,0 10.861111,0 C10.6433776,0 10.4666665,0.177499998 10.4666665,0.394444439 L10.4666665,0.788888878 L5.73333327,0.788888878 L5.73333327,0.394444439 C5.73333327,0.177499998 5.55662216,0 5.33888883,0 C5.1211555,0 4.94444439,0.177499998 4.94444439,0.394444439 L4.94444439,0.788888878 L4.22576662,0.788888878 C2.44761109,0.788888878 1,2.2341333 1,4.01228883 L1,11.7654887 C1,12.2017443 1.0852,12.6222221 1.25244444,13.019822 C1.7589111,14.2165665 2.92567775,14.9888887 4.22576662,14.9888887 L11.9742332,14.9888887 C13.2751109,14.9888887 14.4418776,14.2165665 14.9475554,13.019822 C15.1155887,12.6222221 15.1999998,12.2017443 15.1999998,11.7654887 L15.1999998,4.01228883 C15.1999998,2.2341333 13.7531776,0.788888878 11.9742332,0.788888878 Z M11.7294361,7.7741002 L7.0883592,12.4151771 C6.98256426,12.5217443 6.83815804,12.5680778 6.69992963,12.5534055 C6.56324567,12.5680778 6.4203839,12.5225165 6.31536119,12.4174938 L4.11915108,10.2212837 C3.93458912,10.0367217 3.93304467,9.73864258 4.1199233,9.55253617 C4.30602972,9.36720198 4.60488109,9.36720198 4.79021528,9.55099171 L6.69992963,11.4630227 L11.0591441,7.10380822 C11.2452506,6.91847404 11.5441019,6.91615736 11.7309806,7.10226377 C11.9163148,7.28759796 11.9155425,7.58799379 11.7294361,7.7741002" id="Page-1"></path>
        </g>
    </g>
</svg>