<?xml version="1.0" encoding="UTF-8"?>
<svg width="18px" height="18px" viewBox="0 0 18 18" version="1.1" xmlns="http://www.w3.org/2000/svg" xmlns:xlink="http://www.w3.org/1999/xlink">
    <!-- Generator: sketchtool 46.2 (44496) - http://www.bohemiancoding.com/sketch -->
    <title>calendar--small</title>
    <desc>Created with sketchtool.</desc>
    <defs></defs>
    <g id="Android" stroke="none" stroke-width="1" fill="none" fill-rule="evenodd">
        <g id="calendar--small" fill="#000000">
            <path d="M16.2000007,5.40000025 L1.80000004,5.40000025 L1.80000004,4.57740022 C1.80000004,3.04650014 3.0474001,1.80000008 4.58010017,1.80000008 L5.40000021,1.80000008 L5.40000021,2.25000011 C5.40000021,2.49840012 5.60160022,2.70000013 5.85000023,2.70000013 C6.09840024,2.70000013 6.30000025,2.49840012 6.30000025,2.25000011 L6.30000025,1.80000008 L11.7000005,1.80000008 L11.7000005,2.25000011 C11.7000005,2.49840012 11.9016005,2.70000013 12.1500005,2.70000013 C12.3984005,2.70000013 12.6000006,2.49840012 12.6000006,2.25000011 L12.6000006,1.80000008 L13.4199006,1.80000008 C14.9526007,1.80000008 16.2000007,3.04650014 16.2000007,4.57740022 L16.2000007,5.40000025 Z M16.2000007,13.4226006 C16.2000007,13.7979006 16.1271007,14.1615007 15.9822007,14.5035007 C15.5475007,15.5340007 14.5413006,16.2000008 13.4199006,16.2000008 L4.58010017,16.2000008 C3.45960012,16.2000008 2.45340007,15.5340007 2.01780005,14.5035007 C1.87380005,14.1606007 1.80000004,13.7979006 1.80000004,13.4226006 L1.80000004,6.3000003 L16.2000007,6.3000003 L16.2000007,13.4226006 Z M13.4199006,0.900000042 L12.6000006,0.900000042 L12.6000006,0.450000021 C12.6000006,0.20250001 12.3984005,0 12.1500005,0 C11.9016005,0 11.7000005,0.20250001 11.7000005,0.450000021 L11.7000005,0.900000042 L6.30000025,0.900000042 L6.30000025,0.450000021 C6.30000025,0.20250001 6.09840024,0 5.85000023,0 C5.60160022,0 5.40000021,0.20250001 5.40000021,0.450000021 L5.40000021,0.900000042 L4.58010017,0.900000042 C2.55150008,0.900000042 0.9,2.54880012 0.9,4.57740022 L0.9,13.4226006 C0.9,13.9203007 0.997200005,14.4000007 1.18800001,14.8536007 C1.76580004,16.2189008 3.0969001,17.1000008 4.58010017,17.1000008 L13.4199006,17.1000008 C14.9040007,17.1000008 16.2351007,16.2189008 16.8120007,14.8536007 C17.0037008,14.4000007 17.1000008,13.9203007 17.1000008,13.4226006 L17.1000008,4.57740022 C17.1000008,2.54880012 15.4494007,0.900000042 13.4199006,0.900000042 L13.4199006,0.900000042 Z" id="Page-1"></path>
        </g>
    </g>
</svg>