<?xml version="1.0" encoding="UTF-8"?>
<svg width="24px" height="24px" viewBox="0 0 24 24" version="1.1" xmlns="http://www.w3.org/2000/svg" xmlns:xlink="http://www.w3.org/1999/xlink">
    <!-- Generator: sketchtool 46.2 (44496) - http://www.bohemiancoding.com/sketch -->
    <title>calendar-plus</title>
    <desc>Created with sketchtool.</desc>
    <defs></defs>
    <g id="Android" stroke="none" stroke-width="1" fill="none" fill-rule="evenodd">
        <g id="calendar-plus" fill="#000000">
            <path d="M19.6962857,7.65714286 C19.6962857,6.00542857 18.4474286,4.65971429 16.9105714,4.65971429 L15.8168571,4.65971429 L15.8168571,5.50485714 C15.8168571,6.07228571 15.366,6.53342857 14.8122857,6.53342857 C14.2585714,6.53342857 13.8085714,6.07228571 13.8085714,5.50485714 L13.8085714,4.65971429 L10.1914286,4.65971429 L10.1914286,5.50485714 C10.1914286,6.07228571 9.74142857,6.53342857 9.18685714,6.53342857 C8.634,6.53342857 8.18228571,6.07228571 8.18228571,5.50485714 L8.18228571,4.65971429 L7.08942857,4.65971429 C5.55342857,4.65971429 4.30371429,6.00542857 4.30371429,7.65714286 L4.30371429,8.546 L19.6962857,8.546 L19.6962857,7.65714286 Z M19.6962857,9.92771429 L4.30371429,9.92771429 L4.30371429,18.1922857 C4.30371429,18.5968571 4.37742857,18.9902857 4.52314286,19.358 C4.962,20.4688571 5.96828571,21.1871429 7.08942857,21.1871429 L16.9105714,21.1871429 C18.0317143,21.1871429 19.0371429,20.4688571 19.4768571,19.358 C19.6225714,18.9902857 19.6962857,18.5968571 19.6962857,18.1922857 L19.6962857,9.92771429 Z M21,7.65714286 L21,18.1922857 C21,18.782 20.8928571,19.3545714 20.6785714,19.8937143 C20.0382857,21.5214286 18.5597143,22.5714286 16.9105714,22.5714286 L7.08942857,22.5714286 C5.44028571,22.5714286 3.96171429,21.5214286 3.31971429,19.8937143 C3.10714286,19.3545714 3,18.782 3,18.1922857 L3,7.65714286 C3,5.24171429 4.83428571,3.278 7.08942857,3.278 L8.18228571,3.278 L8.18228571,3.03028571 C8.18228571,2.462 8.634,2 9.18685714,2 C9.74142857,2 10.1914286,2.462 10.1914286,3.03028571 L10.1914286,3.278 L13.8085714,3.278 L13.8085714,3.03028571 C13.8085714,2.462 14.2585714,2 14.8122857,2 C15.366,2 15.8168571,2.462 15.8168571,3.03028571 L15.8168571,3.278 L16.9105714,3.278 C19.1657143,3.278 21,5.24171429 21,7.65714286 L21,7.65714286 Z M8.35714286,15.5 C8.35714286,15.1451429 8.64428571,14.8571429 9,14.8571429 L11.5714286,14.8571429 L11.5714286,12.2857143 C11.5714286,11.9308571 11.8585714,11.6428571 12.2142857,11.6428571 C12.5691429,11.6428571 12.8571429,11.9308571 12.8571429,12.2857143 L12.8571429,14.8571429 L15.4285714,14.8571429 C15.7834286,14.8571429 16.0714286,15.1451429 16.0714286,15.5 C16.0714286,15.8548571 15.7834286,16.1428571 15.4285714,16.1428571 L12.8571429,16.1428571 L12.8571429,18.7142857 C12.8571429,19.0691429 12.5691429,19.3571429 12.2142857,19.3571429 C11.8585714,19.3571429 11.5714286,19.0691429 11.5714286,18.7142857 L11.5714286,16.1428571 L9,16.1428571 C8.64428571,16.1428571 8.35714286,15.8548571 8.35714286,15.5 L8.35714286,15.5 Z" id="Fill-1"></path>
        </g>
    </g>
</svg>