<?xml version="1.0" encoding="UTF-8"?>
<svg width="24px" height="24px" viewBox="0 0 24 24" version="1.1" xmlns="http://www.w3.org/2000/svg" xmlns:xlink="http://www.w3.org/1999/xlink">
    <!-- Generator: sketchtool 46.2 (44496) - http://www.bohemiancoding.com/sketch -->
    <title>calendar</title>
    <desc>Created with sketchtool.</desc>
    <defs></defs>
    <g id="Android" stroke="none" stroke-width="1" fill="none" fill-rule="evenodd">
        <g id="calendar" fill="#000000">
            <path d="M3.90445714,8.23440767 L19.6390286,8.23440767 L19.6390286,7.34916427 C19.6390286,5.70379415 18.3618857,4.36350307 16.7916,4.36350307 L15.6730286,4.36350307 L15.6730286,5.20504133 C15.6730286,5.77063731 15.2127429,6.2299698 14.6461714,6.2299698 C14.0804571,6.2299698 13.6201714,5.77063731 13.6201714,5.20504133 L13.6201714,4.36350307 L9.92331429,4.36350307 L9.92331429,5.20504133 C9.92331429,5.77063731 9.46302857,6.2299698 8.89645714,6.2299698 C8.33074286,6.2299698 7.8696,5.77063731 7.8696,5.20504133 L7.8696,4.36350307 L6.75188571,4.36350307 C5.1816,4.36350307 3.90445714,5.70379415 3.90445714,7.34916427 L3.90445714,8.23440767 Z M3.90445714,9.61069122 L3.90445714,17.8426836 C3.90445714,18.2454565 3.97988571,18.6370889 4.12902857,19.0038693 C4.57731429,20.1102093 5.60674286,20.8257739 6.75188571,20.8257739 L16.7916,20.8257739 C17.9367429,20.8257739 18.9653143,20.1102093 19.4144571,19.0038693 C19.5636,18.6370889 19.6390286,18.2454565 19.6390286,17.8426836 L19.6390286,9.61069122 L3.90445714,9.61069122 Z M16.7916,22.2046283 L6.75188571,22.2046283 C5.06674286,22.2046283 3.55474286,21.1582758 2.89902857,19.5377576 C2.68217143,19.0004414 2.5716,18.4305606 2.5716,17.8426836 L2.5716,7.34916427 C2.5716,4.94281047 4.44702857,2.98721952 6.75188571,2.98721952 L7.8696,2.98721952 L7.8696,2.74041401 C7.8696,2.17481803 8.33074286,1.71462857 8.89645714,1.71462857 C9.46302857,1.71462857 9.92331429,2.17481803 9.92331429,2.74041401 L9.92331429,2.98721952 L13.6201714,2.98721952 L13.6201714,2.74041401 C13.6201714,2.17481803 14.0804571,1.71462857 14.6461714,1.71462857 C15.2127429,1.71462857 15.6730286,2.17481803 15.6730286,2.74041401 L15.6730286,2.98721952 L16.7916,2.98721952 C19.0964571,2.98721952 20.9710286,4.94281047 20.9710286,7.34916427 L20.9710286,17.8426836 C20.9710286,18.4305606 20.8613143,19.0004414 20.6436,19.5377576 C19.9887429,21.1582758 18.4767429,22.2046283 16.7916,22.2046283 L16.7916,22.2046283 Z" id="Fill-1"></path>
        </g>
    </g>
</svg>