<?xml version="1.0" encoding="UTF-8"?>
<svg width="28px" height="28px" viewBox="0 0 28 28" version="1.1" xmlns="http://www.w3.org/2000/svg" xmlns:xlink="http://www.w3.org/1999/xlink">
    <!-- Generator: sketchtool 43.2 (39069) - http://www.bohemiancoding.com/sketch -->
    <title>camera</title>
    <desc>Created with sketchtool.</desc>
    <defs></defs>
    <g id="Android" stroke="none" stroke-width="1" fill="none" fill-rule="evenodd">
        <g id="camera" fill="#000000">
            <path d="M26,22 C26,23.104 25.104,24 24,24 L4,24 C2.896,24 2,23.104 2,22 L2,10 C2,8.896 2.896,8 4,8 L24,8 C25.104,8 26,8.896 26,10 L26,22 Z M11,4 L17,4 C17.666,4 18,4 19,6 L9,6 C10,4 10.334,4 11,4 L11,4 Z M24,6 L22,6 L20,3 C19.629,2.443 19,2 18,2 L10,2 C9,2 8.371,2.443 8,3 L6,6 L4,6 C1.791,6 0,7.791 0,10 L0,22 C0,24.209 1.791,26 4,26 L24,26 C26.209,26 28,24.209 28,22 L28,10 C28,7.791 26.209,6 24,6 L24,6 Z M14,20 C11.794,20 10,18.206 10,16.001 C10,13.795 11.794,12 14,12 C16.206,12 18,13.795 18,16.001 C18,18.206 16.206,20 14,20 L14,20 Z M14,10 C10.688,10 8,12.685 8,16.001 C8,19.317 10.688,22 14,22 C17.312,22 20,19.317 20,16.001 C20,12.685 17.312,10 14,10 L14,10 Z" id="Page-1"></path>
        </g>
    </g>
</svg>