<?xml version="1.0" encoding="UTF-8"?>
<svg width="18px" height="18px" viewBox="0 0 18 18" version="1.1" xmlns="http://www.w3.org/2000/svg" xmlns:xlink="http://www.w3.org/1999/xlink">
    <!-- Generator: sketchtool 46.2 (44496) - http://www.bohemiancoding.com/sketch -->
    <title>camera--small</title>
    <desc>Created with sketchtool.</desc>
    <defs></defs>
    <g id="Android" stroke="none" stroke-width="1" fill="none" fill-rule="evenodd">
        <g id="camera--small" fill="#000000">
            <path d="M9,13.4444444 C7.263,13.4444444 5.85,12.0488889 5.85,10.3333333 C5.85,8.61777778 7.263,7.22222222 9,7.22222222 C10.737,7.22222222 12.15,8.61777778 12.15,10.3333333 C12.15,12.0488889 10.737,13.4444444 9,13.4444444 L9,13.4444444 Z M9,6.33333333 C6.7635,6.33333333 4.95,8.12444444 4.95,10.3333333 C4.95,12.5422222 6.7635,14.3333333 9,14.3333333 C11.2365,14.3333333 13.05,12.5422222 13.05,10.3333333 C13.05,8.12444444 11.2365,6.33333333 9,6.33333333 L9,6.33333333 Z M17.1,15.2222222 C17.1,15.7128889 16.6959,16.1111111 16.2,16.1111111 L1.8,16.1111111 C1.3041,16.1111111 0.9,15.7128889 0.9,15.2222222 L0.9,5.44444444 C0.9,4.95377778 1.3041,4.55555556 1.8,4.55555556 L16.2,4.55555556 C16.6959,4.55555556 17.1,4.95377778 17.1,5.44444444 L17.1,15.2222222 Z M5.8023,2.19288889 C5.8716,2.056 6.1461,1.88888889 6.3,1.88888889 L11.7,1.88888889 C11.8539,1.88888889 12.1284,2.056 12.1977,2.19288889 L12.9438,3.66666667 L5.0562,3.66666667 L5.8023,2.19288889 Z M16.2,3.66666667 L13.95,3.66666667 L13.0023,1.79555556 C12.7809,1.35733333 12.195,1 11.7,1 L6.3,1 C5.805,1 5.2191,1.35733333 4.9977,1.79555556 L4.05,3.66666667 L1.8,3.66666667 C0.81,3.66666667 0,4.46666667 0,5.44444444 L0,15.2222222 C0,16.2 0.81,17 1.8,17 L16.2,17 C17.19,17 18,16.2 18,15.2222222 L18,5.44444444 C18,4.46666667 17.19,3.66666667 16.2,3.66666667 L16.2,3.66666667 Z" id="Page-1"></path>
        </g>
    </g>
</svg>