<?xml version="1.0" encoding="UTF-8" standalone="no"?>
<svg width="18px" height="18px" viewBox="0 0 18 18" version="1.1" xmlns="http://www.w3.org/2000/svg" xmlns:xlink="http://www.w3.org/1999/xlink">
    <!-- Generator: sketchtool 43.2 (39069) - http://www.bohemiancoding.com/sketch -->
    <title>check-circle--small</title>
    <desc>Created with sketchtool.</desc>
    <defs></defs>
    <g id="Android" stroke="none" stroke-width="1" fill="none" fill-rule="evenodd">
        <g id="check-circle--small" fill="#000000">
            <path d="M13.3191111,6.87733333 L7.97688889,12.2195556 C7.85511111,12.3422222 7.68888889,12.3955556 7.52977778,12.3786667 C7.37244444,12.3955556 7.208,12.3431111 7.08711111,12.2222222 L4.55911111,9.69422222 C4.34666667,9.48177778 4.34488889,9.13866667 4.56,8.92444444 C4.77422222,8.71111111 5.11822222,8.71111111 5.33155556,8.92266667 L7.52977778,11.1235556 L12.5475556,6.10577778 C12.7617778,5.89244444 13.1057778,5.88977778 13.3208889,6.104 C13.5342222,6.31733333 13.5333333,6.66311111 13.3191111,6.87733333 M9,1 C4.58133333,1 1,4.58133333 1,9 C1,13.4177778 4.58133333,17 9,17 C13.4177778,17 17,13.4177778 17,9 C17,4.58133333 13.4177778,1 9,1" id="Fill-1"></path>
        </g>
    </g>
</svg>