<?xml version="1.0" encoding="UTF-8" standalone="no"?>
<svg width="24px" height="24px" viewBox="0 0 24 24" version="1.1" xmlns="http://www.w3.org/2000/svg" xmlns:xlink="http://www.w3.org/1999/xlink">
    <!-- Generator: sketchtool 43.2 (39069) - http://www.bohemiancoding.com/sketch -->
    <title>check-circle</title>
    <desc>Created with sketchtool.</desc>
    <defs></defs>
    <g id="Android" stroke="none" stroke-width="1" fill="none" fill-rule="evenodd">
        <g id="check-circle" fill="#000000">
            <path d="M17.3991667,9.34666667 L10.7208333,16.025 C10.5683333,16.1775 10.3616667,16.2441667 10.1625,16.2233333 C9.965,16.2441667 9.76,16.1791667 9.60916667,16.0283333 L6.44833333,12.8683333 C6.18333333,12.6025 6.18166667,12.1733333 6.45,11.905 C6.7175,11.6383333 7.14833333,11.6383333 7.41416667,11.9033333 L10.1625,14.6541667 L16.435,8.3825 C16.7025,8.115 17.1325,8.1125 17.4008333,8.38 C17.6675,8.64666667 17.6666667,9.07916667 17.3991667,9.34666667 M12,2 C6.47666667,2 2,6.47666667 2,12 C2,17.5225 6.47666667,22 12,22 C17.5225,22 22,17.5225 22,12 C22,6.47666667 17.5225,2 12,2" id="Fill-1"></path>
        </g>
    </g>
</svg>