<?xml version="1.0" encoding="UTF-8" standalone="no"?>
<svg width="18px" height="18px" viewBox="0 0 18 18" version="1.1" xmlns="http://www.w3.org/2000/svg" xmlns:xlink="http://www.w3.org/1999/xlink">
    <!-- Generator: sketchtool 43.2 (39069) - http://www.bohemiancoding.com/sketch -->
    <title>chevron-left--small</title>
    <desc>Created with sketchtool.</desc>
    <defs></defs>
    <g id="Android" stroke="none" stroke-width="1" fill="none" fill-rule="evenodd">
        <g id="chevron-left--small" fill="#000000">
            <path d="M5.11275634,16.8648758 C4.95915549,16.6879697 4.96315551,16.4070535 5.12155639,16.2363702 L12.0255946,8.79475783 L5.12155639,1.76312239 C4.96315551,1.59243913 4.95915549,1.31063396 5.11195634,1.13461684 C5.2671572,0.95859973 5.51995859,0.955043829 5.67755947,1.12483811 L12.8783993,8.47561569 C12.9559998,8.56006835 13,8.67563514 13,8.79475783 C13,8.91565847 12.9559998,9.03033629 12.8783993,9.11478894 L5.67835947,16.8746545 C5.60075904,16.9582182 5.49995848,17 5.39995793,17 C5.29515735,17 5.19115677,16.9546623 5.11275634,16.8648758 Z" id="Fill-1" transform="translate(9.000000, 9.000000) scale(-1, 1) translate(-9.000000, -9.000000) "></path>
        </g>
    </g>
</svg>