<?xml version="1.0" encoding="UTF-8" standalone="no"?>
<svg width="17px" height="17px" viewBox="0 0 17 17" version="1.1" xmlns="http://www.w3.org/2000/svg" xmlns:xlink="http://www.w3.org/1999/xlink">
    <!-- Generator: sketchtool 43.2 (39069) - http://www.bohemiancoding.com/sketch -->
    <title>clock-arrow--small</title>
    <desc>Created with sketchtool.</desc>
    <defs></defs>
    <g id="Android" stroke="none" stroke-width="1" fill="none" fill-rule="evenodd">
        <g id="clock-arrow--small" fill="#000000">
            <path d="M16.24712,8.5957 L14.48584,6.83528 C14.31212,6.66156 14.01112,6.6607 13.83654,6.83442 L12.0744,8.5957 C11.89552,8.77544 11.89552,9.06698 12.0744,9.24586 C12.24898,9.41872 12.60416,9.41958 12.77702,9.24672 L13.7213,8.28266 L13.70238,8.6 C13.69034,12.04 11.0209,14.5512 7.74,14.5512 C4.45222,14.5512 1.77762,11.8809 1.77762,8.59398 C1.77762,5.30792 4.45222,2.63504 7.74,2.63504 C9.28972,2.63504 10.75688,3.22758 11.87144,4.30086 C11.95744,4.38342 12.07096,4.429 12.18964,4.429 C12.31606,4.429 12.43302,4.37998 12.52074,4.28796 C12.60588,4.20024 12.6506,4.085 12.64888,3.96202 C12.6463,3.8399 12.59642,3.72552 12.50784,3.64038 C11.22042,2.40198 9.52794,1.72 7.74,1.72 C3.94654,1.72 0.86,4.80568 0.86,8.59914 C0.86,12.39346 3.94654,15.48 7.74,15.48 C11.53432,15.48 14.62086,12.39346 14.62086,8.59914 C14.62086,8.59484 14.61828,8.5914 14.61828,8.58796 L14.60108,8.24912 L15.59782,9.24586 C15.77068,9.42044 16.07426,9.41958 16.24712,9.24672 C16.33398,9.159 16.38214,9.04376 16.38214,8.92164 C16.38214,8.7978 16.33398,8.68256 16.24712,8.5957 M10.76978,10.02588 C10.70958,10.20562 10.54188,10.32 10.36214,10.32 C10.31656,10.32 10.27098,10.31312 10.22626,10.29764 L7.64626,9.43764 C7.47082,9.37916 7.35214,9.2149 7.35214,9.03 L7.35214,5.59 C7.35214,5.35264 7.54478,5.16 7.78214,5.16 C8.0195,5.16 8.21214,5.35264 8.21214,5.59 L8.21214,8.72126 L10.49802,9.4815 C10.72334,9.55718 10.84546,9.80056 10.76978,10.02588" id="Fill-1"></path>
        </g>
    </g>
</svg>