<?xml version="1.0" encoding="UTF-8"?>
<svg width="24px" height="24px" viewBox="0 0 24 24" version="1.1" xmlns="http://www.w3.org/2000/svg" xmlns:xlink="http://www.w3.org/1999/xlink">
    <!-- Generator: (null) (null) ((null)) - http://www.bohemiancoding.com/sketch -->
    <title>clock</title>
    <desc>Created with (null).</desc>
    <defs></defs>
    <g id="Android" stroke="none" stroke-width="1" fill="none" fill-rule="evenodd">
        <g id="clock" fill="#000000">
            <path d="M16.0791667,14.0391667 C15.9325,14.3316667 15.6391667,14.5 15.3325,14.5 C15.2075,14.5 15.0808333,14.4716667 14.9608333,14.4116667 L11.6275,12.745 C11.345,12.6033333 11.1666667,12.3158333 11.1666667,12 L11.1666667,7 C11.1666667,6.53916667 11.54,6.16666667 12,6.16666667 C12.4608333,6.16666667 12.8333333,6.53916667 12.8333333,7 L12.8333333,11.485 L15.7066667,12.9208333 C16.1183333,13.1266667 16.285,13.6275 16.0791667,14.0391667 M12,20.3333333 C7.405,20.3333333 3.66666667,16.595 3.66666667,12 C3.66666667,7.405 7.405,3.66666667 12,3.66666667 C16.5958333,3.66666667 20.3333333,7.405 20.3333333,12 C20.3333333,16.595 16.5958333,20.3333333 12,20.3333333 M12,2 C6.4775,2 2,6.47666667 2,12 C2,17.5225 6.4775,22 12,22 C17.5233333,22 22,17.5225 22,12 C22,6.47666667 17.5233333,2 12,2" id="Fill-1"></path>
        </g>
    </g>
</svg>