<?xml version="1.0" encoding="UTF-8" standalone="no"?>
<svg width="24px" height="24px" viewBox="0 0 24 24" version="1.1" xmlns="http://www.w3.org/2000/svg" xmlns:xlink="http://www.w3.org/1999/xlink">
    <!-- Generator: sketchtool 43.2 (39069) - http://www.bohemiancoding.com/sketch -->
    <title>clock-arrow</title>
    <desc>Created with sketchtool.</desc>
    <defs></defs>
    <g id="Android" stroke="none" stroke-width="1" fill="none" fill-rule="evenodd">
        <g id="clock-arrow" fill="#000000">
            <path d="M15.38927,14.359678 C15.23791,14.662398 14.93605,14.835258 14.61871,14.835258 C14.48971,14.835258 14.35899,14.806878 14.23515,14.744098 L10.79515,13.024098 C10.50361,12.877898 10.31957,12.581198 10.31957,12.255258 L10.31957,7.095258 C10.31957,6.619678 10.70485,6.235258 11.17957,6.235258 C11.65515,6.235258 12.03957,6.619678 12.03957,7.095258 L12.03957,11.724638 L15.00485,13.205558 C15.42969,13.417978 15.60169,13.934838 15.38927,14.359678 M22.86611,11.452018 L20.38759,8.975218 C20.23193,8.818698 20.01005,8.728398 19.77957,8.728398 C19.54995,8.728398 19.32893,8.818698 19.17241,8.974358 L16.69389,11.451158 C16.35935,11.789138 16.36021,12.335238 16.69389,12.670638 C16.85127,12.827158 17.08691,12.915738 17.34147,12.915738 C17.59431,12.915738 17.82909,12.828018 17.98475,12.673218 L18.91871,11.719478 C18.84217,16.318758 15.35143,19.763058 10.74957,19.763058 C6.24575,19.763058 2.58043,16.101178 2.58043,11.600798 C2.58043,7.099558 6.24575,3.437678 10.74957,3.437678 C12.87119,3.437678 14.88187,4.247798 16.41009,5.718398 C16.57177,5.874058 16.78333,5.959198 17.00693,5.959198 C17.24601,5.959198 17.46617,5.866318 17.62785,5.696898 C17.78523,5.530058 17.87037,5.313338 17.86865,5.086298 C17.86349,4.855818 17.77061,4.642538 17.60549,4.482578 C15.75563,2.700658 13.32183,1.720258 10.74957,1.720258 C5.29631,1.720258 0.85957,6.156138 0.85957,11.608538 C0.85957,17.062658 5.29631,21.500258 10.74957,21.500258 C16.18649,21.500258 20.61205,17.091898 20.64043,11.660998 L21.64835,12.670638 C21.80315,12.827158 22.02589,12.916598 22.25723,12.916598 C22.48685,12.916598 22.70873,12.828018 22.86439,12.672358 C23.02865,12.506378 23.11723,12.290518 23.11723,12.062618 C23.11723,11.832998 23.02779,11.616278 22.86611,11.452018" id="Fill-1"></path>
        </g>
    </g>
</svg>