<?xml version="1.0" encoding="UTF-8"?>
<svg width="16px" height="16px" viewBox="0 0 16 16" version="1.1" xmlns="http://www.w3.org/2000/svg" xmlns:xlink="http://www.w3.org/1999/xlink">
    <!-- Generator: sketchtool 52.3 (67297) - http://www.bohemiancoding.com/sketch -->
    <title>clock--small</title>
    <desc>Created with sketchtool.</desc>
    <g id="Android" stroke="none" stroke-width="1" fill="none" fill-rule="evenodd">
        <g id="clock--small" fill="#000000">
            <path d="M14.2222222,8 C14.2222222,4.56922222 11.4307778,1.77777778 8,1.77777778 C4.56922222,1.77777778 1.77777778,4.56922222 1.77777778,8 C1.77777778,11.4307778 4.56922222,14.2222222 8,14.2222222 C11.4307778,14.2222222 14.2222222,11.4307778 14.2222222,8 M15,8 C15,11.8663333 11.8663333,15 8,15 C4.13366667,15 1,11.8663333 1,8 C1,4.13366667 4.13366667,1 8,1 C11.8663333,1 15,4.13366667 15,8 M10.7027778,9.28955556 C10.6475556,9.45211111 10.4958889,9.55555556 10.3333333,9.55555556 C10.2921111,9.55555556 10.2516667,9.54933333 10.2104444,9.53611111 L7.87711111,8.75833333 C7.71844444,8.70466667 7.61111111,8.55611111 7.61111111,8.38888889 L7.61111111,5.27777778 C7.61111111,5.06311111 7.78533333,4.88888889 8,4.88888889 C8.21466667,4.88888889 8.38888889,5.06311111 8.38888889,5.27777778 L8.38888889,8.10888889 L10.4562222,8.79722222 C10.66,8.86566667 10.7704444,9.08577778 10.7027778,9.28955556" id="Page-1"></path>
        </g>
    </g>
</svg>