<?xml version="1.0" encoding="UTF-8"?>
<svg width="16px" height="16px" viewBox="0 0 16 16" version="1.1" xmlns="http://www.w3.org/2000/svg" xmlns:xlink="http://www.w3.org/1999/xlink">
    <!-- Generator: sketchtool 46.2 (44496) - http://www.bohemiancoding.com/sketch -->
    <title>clock-arrow--small</title>
    <desc>Created with sketchtool.</desc>
    <defs></defs>
    <g id="Android" stroke="none" stroke-width="1" fill="none" fill-rule="evenodd">
        <g id="clock-arrow--small" fill="#000000">
            <path d="M15.2536976,8.15179144 L13.6061293,6.50502758 C13.443625,6.34252328 13.1620581,6.3417188 12.9987493,6.5042231 L11.3503765,8.15179144 C11.1830454,8.31992707 11.1830454,8.59264468 11.3503765,8.75997584 C11.5136853,8.92167567 11.8459342,8.92248014 12.007634,8.76078032 L12.8909495,7.85896191 L12.873251,8.15581382 C12.8619883,11.3737207 10.3648925,13.7227928 7.29581382,13.7227928 C4.22029929,13.7227928 1.71837667,11.2248925 1.71837667,8.15018248 C1.71837667,5.07627691 4.22029929,2.57596324 7.29581382,2.57596324 C8.74548088,2.57596324 10.1179182,3.1302477 11.16052,4.13423466 C11.2409677,4.21146443 11.3471586,4.25410169 11.4581764,4.25410169 C11.5764345,4.25410169 11.6858433,4.20824652 11.7679,4.12216751 C11.8475431,4.04011088 11.8893759,3.932311 11.887767,3.81727083 C11.8853536,3.70303513 11.8386939,3.59603973 11.7558328,3.51639653 C10.5515311,2.35795005 8.96832094,1.72 7.29581382,1.72 C3.74726698,1.72 0.86,4.6064625 0.86,8.15500934 C0.86,11.7043607 3.74726698,14.5916276 7.29581382,14.5916276 C10.8451651,14.5916276 13.7324321,11.7043607 13.7324321,8.15500934 C13.7324321,8.15098696 13.7300187,8.14776905 13.7300187,8.14455115 L13.7139292,7.82758732 L14.6463177,8.75997584 C14.8080175,8.92328462 15.0919978,8.92248014 15.2536976,8.76078032 C15.3349498,8.67872369 15.3800005,8.57092381 15.3800005,8.45668812 C15.3800005,8.34084347 15.3349498,8.23304359 15.2536976,8.15179144 M10.1299853,9.48963624 C10.073672,9.65777187 9.916799,9.76476728 9.74866336,9.76476728 C9.7060261,9.76476728 9.66338883,9.75833146 9.62155604,9.74385088 L7.20812586,8.93937415 C7.04401261,8.88466974 6.93299482,8.73101468 6.93299482,8.55805219 L6.93299482,5.34014527 C6.93299482,5.1181097 7.1131976,4.93790691 7.33523318,4.93790691 C7.55726876,4.93790691 7.73747154,5.1181097 7.73747154,5.34014527 L7.73747154,8.26924504 L9.87577069,8.98040247 C10.0865436,9.05119642 10.2007793,9.27886333 10.1299853,9.48963624" id="Fill-1"></path>
        </g>
    </g>
</svg>