<?xml version="1.0" encoding="UTF-8"?>
<svg width="18px" height="18px" viewBox="0 0 18 18" version="1.1" xmlns="http://www.w3.org/2000/svg" xmlns:xlink="http://www.w3.org/1999/xlink">
    <!-- Generator: sketchtool 46.2 (44496) - http://www.bohemiancoding.com/sketch -->
    <title>clock--small</title>
    <desc>Created with sketchtool.</desc>
    <defs></defs>
    <g id="Android" stroke="none" stroke-width="1" fill="none" fill-rule="evenodd">
        <g id="clock--small" fill="#000000">
            <path d="M16.1111111,9 C16.1111111,5.07911111 12.9208889,1.88888889 9,1.88888889 C5.07911111,1.88888889 1.88888889,5.07911111 1.88888889,9 C1.88888889,12.9208889 5.07911111,16.1111111 9,16.1111111 C12.9208889,16.1111111 16.1111111,12.9208889 16.1111111,9 M17,9 C17,13.4186667 13.4186667,17 9,17 C4.58133333,17 1,13.4186667 1,9 C1,4.58133333 4.58133333,1 9,1 C13.4186667,1 17,4.58133333 17,9 M12.0888889,10.4737778 C12.0257778,10.6595556 11.8524444,10.7777778 11.6666667,10.7777778 C11.6195556,10.7777778 11.5733333,10.7706667 11.5262222,10.7555556 L8.85955556,9.86666667 C8.67822222,9.80533333 8.55555556,9.63555556 8.55555556,9.44444444 L8.55555556,5.88888889 C8.55555556,5.64355556 8.75466667,5.44444444 9,5.44444444 C9.24533333,5.44444444 9.44444444,5.64355556 9.44444444,5.88888889 L9.44444444,9.12444444 L11.8071111,9.91111111 C12.04,9.98933333 12.1662222,10.2408889 12.0888889,10.4737778" id="Page-1"></path>
        </g>
    </g>
</svg>