<?xml version="1.0" encoding="UTF-8"?>
<svg width="28px" height="28px" viewBox="0 0 28 28" version="1.1" xmlns="http://www.w3.org/2000/svg" xmlns:xlink="http://www.w3.org/1999/xlink">
    <!-- Generator: sketchtool 43.2 (39069) - http://www.bohemiancoding.com/sketch -->
    <title>clock</title>
    <desc>Created with sketchtool.</desc>
    <defs></defs>
    <g id="Android" stroke="none" stroke-width="1" fill="none" fill-rule="evenodd">
        <g id="clock" fill="#000000">
            <path d="M18.8945,16.4473 C18.7185,16.7983 18.3665,17.0003 17.9985,17.0003 C17.8485,17.0003 17.6965,16.9663 17.5525,16.8943 L13.5525,14.8943 C13.2135,14.7243 12.9995,14.3793 12.9995,14.0003 L12.9995,8.0003 C12.9995,7.4473 13.4475,7.0003 13.9995,7.0003 C14.5525,7.0003 14.9995,7.4473 14.9995,8.0003 L14.9995,13.3823 L18.4475,15.1053 C18.9415,15.3523 19.1415,15.9533 18.8945,16.4473 M13.9995,24.0003 C8.4855,24.0003 3.9995,19.5143 3.9995,14.0003 C3.9995,8.4863 8.4855,4.0003 13.9995,4.0003 C19.5145,4.0003 23.9995,8.4863 23.9995,14.0003 C23.9995,19.5143 19.5145,24.0003 13.9995,24.0003 M13.9995,2.0003 C7.3725,2.0003 1.9995,7.3723 1.9995,14.0003 C1.9995,20.6273 7.3725,26.0003 13.9995,26.0003 C20.6275,26.0003 25.9995,20.6273 25.9995,14.0003 C25.9995,7.3723 20.6275,2.0003 13.9995,2.0003" id="Fill-1"></path>
        </g>
    </g>
</svg>