<?xml version="1.0" encoding="UTF-8"?>
<svg width="18px" height="18px" viewBox="0 0 18 18" version="1.1" xmlns="http://www.w3.org/2000/svg" xmlns:xlink="http://www.w3.org/1999/xlink">
    <!-- Generator: sketchtool 46.2 (44496) - http://www.bohemiancoding.com/sketch -->
    <title>cog--small</title>
    <desc>Created with sketchtool.</desc>
    <defs></defs>
    <g id="Android" stroke="none" stroke-width="1" fill="none" fill-rule="evenodd">
        <g id="cog--small" fill="#000000">
            <path d="M9,10.7777778 C8.01955556,10.7777778 7.22222222,9.98044444 7.22222222,9 C7.22222222,8.01955556 8.01955556,7.22222222 9,7.22222222 C9.98044444,7.22222222 10.7777778,8.01955556 10.7777778,9 C10.7777778,9.98044444 9.98044444,10.7777778 9,10.7777778 L9,10.7777778 Z M9,6.33333333 C7.52977778,6.33333333 6.33333333,7.52977778 6.33333333,9 C6.33333333,10.4702222 7.52977778,11.6666667 9,11.6666667 C10.4702222,11.6666667 11.6666667,10.4702222 11.6666667,9 C11.6666667,7.52977778 10.4702222,6.33333333 9,6.33333333 L9,6.33333333 Z M13.8844444,10.2631111 C13.7662222,10.7208889 13.5848889,11.1582222 13.3475556,11.5617778 C13.2435556,11.736 13.2728889,11.9582222 13.416,12.1013333 L14.0284444,12.7146667 C14.3902222,13.0764444 14.3902222,13.6666667 14.0284444,14.0284444 C13.6657778,14.3911111 13.0773333,14.3911111 12.7146667,14.0284444 L12.1013333,13.416 C11.9573333,13.272 11.736,13.2426667 11.5617778,13.3475556 C11.1564444,13.5857778 10.72,13.7662222 10.2631111,13.8844444 C10.0666667,13.936 9.92977778,14.1128889 9.92977778,14.3146667 L9.92977778,15.1813333 C9.92977778,15.6942222 9.51288889,16.1111111 9,16.1111111 C8.48711111,16.1111111 8.07022222,15.6942222 8.07022222,15.1813333 L8.07022222,14.3146667 C8.07022222,14.1128889 7.93333333,13.936 7.73688889,13.8844444 C7.27911111,13.7662222 6.84177778,13.5848889 6.43822222,13.3475556 C6.368,13.3057778 6.28977778,13.2853333 6.21244444,13.2853333 C6.09777778,13.2853333 5.984,13.3297778 5.89866667,13.416 L5.28533333,14.0284444 C4.92266667,14.3911111 4.33422222,14.3911111 3.97155556,14.0284444 C3.60977778,13.6666667 3.60977778,13.0764444 3.97155556,12.7146667 L4.584,12.1013333 C4.72711111,11.9582222 4.75644444,11.736 4.65244444,11.5617778 C4.41422222,11.1564444 4.23377778,10.72 4.11555556,10.2631111 C4.064,10.0666667 3.88711111,9.92977778 3.68533333,9.92977778 L2.81866667,9.92977778 C2.30577778,9.92977778 1.88888889,9.51288889 1.88888889,9 C1.88888889,8.48711111 2.30577778,8.07022222 2.81866667,8.07022222 L3.68533333,8.07022222 C3.88711111,8.07022222 4.064,7.93333333 4.11555556,7.73688889 C4.23377778,7.28 4.41422222,6.84355556 4.65244444,6.43822222 C4.75644444,6.264 4.72711111,6.04177778 4.584,5.89866667 L3.97155556,5.28533333 C3.60977778,4.92355556 3.60977778,4.33333333 3.97155556,3.97155556 C4.33422222,3.60888889 4.92266667,3.60888889 5.28533333,3.97155556 L5.89866667,4.584 C6.04177778,4.728 6.26311111,4.75644444 6.43822222,4.65244444 C6.84355556,4.41422222 7.28,4.23377778 7.73688889,4.11555556 C7.93333333,4.064 8.07022222,3.88711111 8.07022222,3.68533333 L8.07022222,2.81866667 C8.07022222,2.30577778 8.48711111,1.88888889 9,1.88888889 C9.51288889,1.88888889 9.92977778,2.30577778 9.92977778,2.81866667 L9.92977778,3.68533333 C9.92977778,3.88711111 10.0666667,4.064 10.2631111,4.11555556 C10.72,4.23377778 11.1564444,4.41422222 11.5617778,4.65244444 C11.7368889,4.75733333 11.9582222,4.72888889 12.1013333,4.584 L12.7146667,3.97155556 C13.0773333,3.60888889 13.6657778,3.60888889 14.0284444,3.97155556 C14.3902222,4.33333333 14.3902222,4.92355556 14.0284444,5.28533333 L13.416,5.89866667 C13.2728889,6.04177778 13.2435556,6.264 13.3475556,6.43822222 C13.5857778,6.84355556 13.7662222,7.28 13.8844444,7.73688889 C13.936,7.93333333 14.1128889,8.07022222 14.3146667,8.07022222 L15.1813333,8.07022222 C15.6942222,8.07022222 16.1111111,8.48711111 16.1111111,9 C16.1111111,9.51288889 15.6942222,9.92977778 15.1813333,9.92977778 L14.3146667,9.92977778 C14.1128889,9.92977778 13.936,10.0666667 13.8844444,10.2631111 L13.8844444,10.2631111 Z M15.1813333,10.8186667 C16.184,10.8186667 17,10.0026667 17,9 C17,7.99733333 16.184,7.18133333 15.1813333,7.18133333 L14.648,7.18133333 C14.5502222,6.87466667 14.4266667,6.57688889 14.28,6.29066667 L14.6568889,5.91377778 C15.3662222,5.20444444 15.3662222,4.05244444 14.6568889,3.34311111 C13.9484444,2.63466667 12.7946667,2.63466667 12.0862222,3.34311111 L11.7093333,3.72 C11.4231111,3.57333333 11.1253333,3.44977778 10.8186667,3.352 L10.8186667,2.81866667 C10.8186667,1.816 10.0026667,1 9,1 C7.99733333,1 7.18133333,1.816 7.18133333,2.81866667 L7.18133333,3.352 C6.87466667,3.44977778 6.57688889,3.57333333 6.29066667,3.72 L5.91377778,3.34311111 C5.20533333,2.63466667 4.05155556,2.63466667 3.34311111,3.34311111 C2.63377778,4.05244444 2.63377778,5.20444444 3.34311111,5.91377778 L3.72,6.29066667 C3.57333333,6.57688889 3.44977778,6.87466667 3.352,7.18133333 L2.81866667,7.18133333 C1.816,7.18133333 1,7.99733333 1,9 C1,10.0026667 1.816,10.8186667 2.81866667,10.8186667 L3.352,10.8186667 C3.44977778,11.1253333 3.57333333,11.4231111 3.72,11.7093333 L3.34311111,12.0862222 C2.63377778,12.7955556 2.63377778,13.9475556 3.34311111,14.6568889 C4.05155556,15.3653333 5.20533333,15.3653333 5.91377778,14.6568889 L6.29066667,14.28 C6.576,14.4266667 6.87377778,14.5502222 7.18133333,14.648 L7.18133333,15.1813333 C7.18133333,16.184 7.99733333,17 9,17 C10.0026667,17 10.8186667,16.184 10.8186667,15.1813333 L10.8186667,14.648 C11.1253333,14.5502222 11.4231111,14.4266667 11.7093333,14.28 L12.0862222,14.6568889 C12.7946667,15.3653333 13.9484444,15.3653333 14.6568889,14.6568889 C15.3662222,13.9475556 15.3662222,12.7955556 14.6568889,12.0862222 L14.28,11.7093333 C14.4266667,11.424 14.5502222,11.1262222 14.648,10.8186667 L15.1813333,10.8186667 Z" id="Page-1"></path>
        </g>
    </g>
</svg>