<?xml version="1.0" encoding="UTF-8" standalone="no"?>
<svg width="24px" height="24px" viewBox="0 0 24 24" version="1.1" xmlns="http://www.w3.org/2000/svg" xmlns:xlink="http://www.w3.org/1999/xlink">
    <!-- Generator: sketchtool 43.2 (39069) - http://www.bohemiancoding.com/sketch -->
    <title>cog</title>
    <desc>Created with sketchtool.</desc>
    <defs></defs>
    <g id="Android" stroke="none" stroke-width="1" fill="none" fill-rule="evenodd">
        <g id="cog" fill="#000000">
            <path d="M12,13.6666667 C11.0808333,13.6666667 10.3333333,12.9191667 10.3333333,12 C10.3333333,11.0808333 11.0808333,10.3333333 12,10.3333333 C12.9191667,10.3333333 13.6666667,11.0808333 13.6666667,12 C13.6666667,12.9191667 12.9191667,13.6666667 12,13.6666667 L12,13.6666667 Z M12,8.66666667 C10.1616667,8.66666667 8.66666667,10.1616667 8.66666667,12 C8.66666667,13.8383333 10.1616667,15.3333333 12,15.3333333 C13.8383333,15.3333333 15.3333333,13.8383333 15.3333333,12 C15.3333333,10.1616667 13.8383333,8.66666667 12,8.66666667 L12,8.66666667 Z M18.4483333,12.8333333 C18.0683333,12.8333333 17.7375,13.0908333 17.6425,13.4583333 C17.505,13.9866667 17.2958333,14.4908333 17.02,14.9575 C16.8275,15.2841667 16.88,15.7016667 17.1491667,15.9708333 L17.8916667,16.7141667 C18.2166667,17.0391667 18.2166667,17.5683333 17.8925,17.8916667 C17.5691667,18.2175 17.0383333,18.2166667 16.7141667,17.8925 L15.9708333,17.1491667 C15.7025,16.8808333 15.2858333,16.8291667 14.9583333,17.02 C14.49,17.2958333 13.9858333,17.505 13.4583333,17.6425 C13.0908333,17.7375 12.8333333,18.0683333 12.8333333,18.4483333 L12.8333333,19.5 C12.8333333,19.96 12.46,20.3333333 12,20.3333333 C11.54,20.3333333 11.1666667,19.96 11.1666667,19.5 L11.1666667,18.4483333 C11.1666667,18.0683333 10.9091667,17.7375 10.5416667,17.6425 C10.0133333,17.505 9.50916667,17.2958333 9.0425,17.02 C8.91083333,16.9433333 8.76416667,16.905 8.61833333,16.905 C8.40333333,16.905 8.19,16.9883333 8.02916667,17.1491667 L7.28583333,17.8916667 C6.96166667,18.2175 6.43166667,18.2166667 6.10833333,17.8925 C5.78333333,17.5683333 5.78333333,17.0391667 6.1075,16.7141667 L6.85083333,15.9708333 C7.12,15.7016667 7.1725,15.285 6.98,14.9583333 C6.70416667,14.49 6.495,13.9858333 6.3575,13.4583333 C6.2625,13.0908333 5.93166667,12.8333333 5.55166667,12.8333333 L4.5,12.8333333 C4.04,12.8333333 3.66666667,12.46 3.66666667,12 C3.66666667,11.54 4.04,11.1666667 4.5,11.1666667 L5.55166667,11.1666667 C5.93166667,11.1666667 6.2625,10.9091667 6.3575,10.5416667 C6.495,10.0141667 6.70416667,9.51 6.98,9.04166667 C7.1725,8.715 7.12,8.29833333 6.85083333,8.02916667 L6.10833333,7.28583333 C5.78333333,6.96083333 5.78333333,6.43166667 6.1075,6.10833333 C6.43083333,5.7825 6.96166667,5.78333333 7.28583333,6.1075 L8.02916667,6.85083333 C8.29916667,7.12 8.71583333,7.17166667 9.04166667,6.98 C9.51,6.70416667 10.0141667,6.495 10.5416667,6.3575 C10.9091667,6.2625 11.1666667,5.93166667 11.1666667,5.55166667 L11.1666667,4.5 C11.1666667,4.04 11.54,3.66666667 12,3.66666667 C12.46,3.66666667 12.8333333,4.04 12.8333333,4.5 L12.8333333,5.55166667 C12.8333333,5.93166667 13.0908333,6.2625 13.4583333,6.3575 C13.9858333,6.495 14.49,6.70416667 14.9583333,6.98 C15.2858333,7.17166667 15.7025,7.12 15.9708333,6.85083333 L16.7141667,6.10833333 C17.0383333,5.7825 17.5683333,5.78333333 17.8916667,6.1075 C18.2166667,6.43166667 18.2166667,6.96083333 17.8925,7.28583333 L17.1491667,8.02916667 C16.88,8.29833333 16.8275,8.715 17.02,9.04166667 C17.2958333,9.51 17.505,10.0141667 17.6425,10.5416667 C17.7375,10.9091667 18.0683333,11.1666667 18.4483333,11.1666667 L19.5,11.1666667 C19.96,11.1666667 20.3333333,11.54 20.3333333,12 C20.3333333,12.46 19.96,12.8333333 19.5,12.8333333 L18.4483333,12.8333333 Z M19.5,14.5 C20.8783333,14.5 22,13.3783333 22,12 C22,10.6216667 20.8783333,9.5 19.5,9.5 L19.065,9.5 C18.9766667,9.25166667 18.8758333,9.00916667 18.7625,8.7725 L19.0716667,8.46416667 C20.0441667,7.48916667 20.0441667,5.90416667 19.0708333,4.92833333 C18.0966667,3.95583333 16.5116667,3.955 15.5358333,4.92916667 L15.2275,5.2375 C14.9908333,5.12416667 14.7483333,5.02333333 14.5,4.935 L14.5,4.5 C14.5,3.12166667 13.3783333,2 12,2 C10.6216667,2 9.5,3.12166667 9.5,4.5 L9.5,4.935 C9.25166667,5.02333333 9.00916667,5.12416667 8.7725,5.2375 L8.46416667,4.92833333 C7.48916667,3.9575 5.905,3.955 4.92833333,4.92916667 C3.95583333,5.90416667 3.95583333,7.48916667 4.92916667,8.46416667 L5.2375,8.7725 C5.12416667,9.00916667 5.02333333,9.25166667 4.935,9.5 L4.5,9.5 C3.12166667,9.5 2,10.6216667 2,12 C2,13.3783333 3.12166667,14.5 4.5,14.5 L4.935,14.5 C5.02333333,14.7483333 5.12416667,14.9908333 5.2375,15.2275 L4.92833333,15.5358333 C3.95583333,16.5108333 3.95583333,18.0958333 4.92916667,19.0716667 C5.90416667,20.045 7.48916667,20.0441667 8.46416667,19.0708333 L8.7725,18.7633333 C9.00916667,18.8766667 9.25166667,18.9766667 9.5,19.065 L9.5,19.5 C9.5,20.8783333 10.6216667,22 12,22 C13.3783333,22 14.5,20.8783333 14.5,19.5 L14.5,19.065 C14.7483333,18.9766667 14.9908333,18.8758333 15.2275,18.7625 L15.5358333,19.0716667 C16.51,20.0433333 18.0941667,20.0441667 19.0716667,19.0708333 C20.0441667,18.0958333 20.0441667,16.5108333 19.0708333,15.5358333 L18.7633333,15.2275 C18.8766667,14.9908333 18.9766667,14.7483333 19.065,14.5 L19.5,14.5 Z" id="Page-1"></path>
        </g>
    </g>
</svg>