<?xml version="1.0" encoding="UTF-8"?>
<svg width="16px" height="16px" viewBox="0 0 16 16" version="1.1" xmlns="http://www.w3.org/2000/svg" xmlns:xlink="http://www.w3.org/1999/xlink">
    <!-- Generator: sketchtool 52.3 (67297) - http://www.bohemiancoding.com/sketch -->
    <title>copy--small</title>
    <desc>Created with sketchtool.</desc>
    <g id="Android" stroke="none" stroke-width="1" fill="none" fill-rule="evenodd">
        <g id="copy--small" fill="#000000">
            <path d="M8.63456667,12.6666667 L9.44423333,12.6666667 C9.09501111,14.0028889 7.88556667,15 6.44434444,15 L4.11101111,15 C2.3999,15 0.9999,13.6 0.9999,11.8888889 L0.9999,9.55555556 C0.9999,8.11355556 1.99778889,6.90488889 3.33323333,6.55566667 L3.33323333,7.36611111 C2.42945556,7.68811111 1.77767778,8.54288889 1.77767778,9.55555556 L1.77767778,11.8888889 C1.77767778,13.1753333 2.82456667,14.2222222 4.11101111,14.2222222 L6.44434444,14.2222222 C7.45701111,14.2222222 8.31178889,13.5696667 8.63456667,12.6666667 L8.63456667,12.6666667 Z M14.2221222,7.77133333 C14.2221222,9.05777778 13.1752333,10.3333333 11.8887889,10.3333333 L8.22856667,10.3333333 C6.94212222,10.3333333 5.66656667,9.05777778 5.66656667,7.77133333 L5.66656667,4.11111111 C5.66656667,2.82466667 6.94212222,1.77777778 8.22856667,1.77777778 L11.8887889,1.77777778 C13.1752333,1.77777778 14.2221222,2.82466667 14.2221222,4.11111111 L14.2221222,7.77133333 Z M11.8887889,1 L8.22856667,1 C6.51745556,1 4.88878889,2.4 4.88878889,4.11111111 L4.88878889,7.77133333 C4.88878889,9.48244444 6.51745556,11.1111111 8.22856667,11.1111111 L11.8887889,11.1111111 C13.5999,11.1111111 14.9999,9.48244444 14.9999,7.77133333 L14.9999,4.11111111 C14.9999,2.4 13.5999,1 11.8887889,1 L11.8887889,1 Z" id="Fill-1"></path>
        </g>
    </g>
</svg>