<?xml version="1.0" encoding="UTF-8"?>
<svg width="28px" height="28px" viewBox="0 0 28 28" version="1.1" xmlns="http://www.w3.org/2000/svg" xmlns:xlink="http://www.w3.org/1999/xlink">
    <!-- Generator: sketchtool 43.2 (39069) - http://www.bohemiancoding.com/sketch -->
    <title>copy</title>
    <desc>Created with sketchtool.</desc>
    <defs></defs>
    <g id="Android" stroke="none" stroke-width="1" fill="none" fill-rule="evenodd">
        <g id="copy" fill="#000000">
            <path d="M24,6 C24,4.897 23.103,4 22,4 L13.059,4 C11.956,4 11,4.897 11,6 L11,14.941 C11,16.044 11.956,17 13.059,17 L22,17 C23.103,17 24,16.044 24,14.941 L24,6 Z M26,6 L26,14.941 C26,17.142 24.2,19 22,19 L13.059,19 C10.858,19 9,17.142 9,14.941 L9,6 C9,3.8 10.858,2 13.059,2 L22,2 C24.2,2 26,3.8 26,6 L26,6 Z M15,21 L17,21 L17,22.471 C17,24.411 15.36,26 13.419,26 L5.529,26 C3.588,26 2,24.411 2,22.471 L2,14.582 C2,12.64 3.588,11 5.529,11 L7,11 L7,13 L5.529,13 C4.556,13 4,13.608 4,14.582 L4,22.471 C4,23.443 4.556,24 5.529,24 L13.419,24 C14.392,24 15,23.443 15,22.471 L15,21 Z" id="Page-1"></path>
        </g>
    </g>
</svg>