<?xml version="1.0" encoding="UTF-8"?>
<svg width="20px" height="20px" viewBox="0 0 20 20" version="1.1" xmlns="http://www.w3.org/2000/svg" xmlns:xlink="http://www.w3.org/1999/xlink">
    <!-- Generator: sketchtool 43.2 (39069) - http://www.bohemiancoding.com/sketch -->
    <title>copy--small</title>
    <desc>Created with sketchtool.</desc>
    <defs></defs>
    <g id="Android" stroke="none" stroke-width="1" fill="none" fill-rule="evenodd">
        <g id="copy--small" fill="#000000">
            <path d="M10.8159,16 L11.8569,16 C11.4079,17.718 9.8529,19 7.9999,19 L4.9999,19 C2.7999,19 0.9999,17.2 0.9999,15 L0.9999,12 C0.9999,10.146 2.2829,8.592 3.9999,8.143 L3.9999,9.185 C2.8379,9.599 1.9999,10.698 1.9999,12 L1.9999,15 C1.9999,16.654 3.3459,18 4.9999,18 L7.9999,18 C9.3019,18 10.4009,17.161 10.8159,16 L10.8159,16 Z M17.9999,9.706 C17.9999,11.36 16.6539,13 14.9999,13 L10.2939,13 C8.6399,13 6.9999,11.36 6.9999,9.706 L6.9999,5 C6.9999,3.346 8.6399,2 10.2939,2 L14.9999,2 C16.6539,2 17.9999,3.346 17.9999,5 L17.9999,9.706 Z M14.9999,1 L10.2939,1 C8.0939,1 5.9999,2.8 5.9999,5 L5.9999,9.706 C5.9999,11.906 8.0939,14 10.2939,14 L14.9999,14 C17.1999,14 18.9999,11.906 18.9999,9.706 L18.9999,5 C18.9999,2.8 17.1999,1 14.9999,1 L14.9999,1 Z" id="Fill-1"></path>
        </g>
    </g>
</svg>