<?xml version="1.0" encoding="UTF-8"?>
<svg width="28px" height="28px" viewBox="0 0 28 28" version="1.1" xmlns="http://www.w3.org/2000/svg" xmlns:xlink="http://www.w3.org/1999/xlink">
    <!-- Generator: sketchtool 43.2 (39069) - http://www.bohemiancoding.com/sketch -->
    <title>creditcard</title>
    <desc>Created with sketchtool.</desc>
    <defs></defs>
    <g id="Android" stroke="none" stroke-width="1" fill="none" fill-rule="evenodd">
        <g id="creditcard" fill="#000000">
            <path d="M4,18 C4,17.447 4.448,17 5,17 L7,17 C7.552,17 8,17.447 8,18 C8,18.553 7.552,19 7,19 L5,19 C4.448,19 4,18.553 4,18 L4,18 Z M26,10 L2,10 L2,8 C2,6.897 2.897,6 4,6 L24,6 C25.103,6 26,6.897 26,8 L26,10 Z M26,20 C26,21.103 25.103,22 24,22 L4,22 C2.897,22 2,21.103 2,20 L2,14 L26,14 L26,20 Z M24,4 L4,4 C1.791,4 0,5.791 0,8 L0,10 L0,14 L0,20 C0,22.209 1.791,24 4,24 L24,24 C26.209,24 28,22.209 28,20 L28,14 L28,10 L28,8 C28,5.791 26.209,4 24,4 L24,4 Z" id="Page-1"></path>
        </g>
    </g>
</svg>