<?xml version="1.0" encoding="UTF-8"?>
<svg width="24px" height="24px" viewBox="0 0 24 24" version="1.1" xmlns="http://www.w3.org/2000/svg" xmlns:xlink="http://www.w3.org/1999/xlink">
    <!-- Generator: sketchtool 52.3 (67297) - http://www.bohemiancoding.com/sketch -->
    <title>creditcard</title>
    <desc>Created with sketchtool.</desc>
    <g id="Android" stroke="none" stroke-width="1" fill="none" fill-rule="evenodd">
        <g id="creditcard" fill="#000000">
            <path d="M3.42857143,15.9 C3.42857143,15.42995 3.81257143,15.05 4.28571429,15.05 L6,15.05 C6.47314286,15.05 6.85714286,15.42995 6.85714286,15.9 C6.85714286,16.37005 6.47314286,16.75 6,16.75 L4.28571429,16.75 C3.81257143,16.75 3.42857143,16.37005 3.42857143,15.9 L3.42857143,15.9 Z M22.2857143,9.1 L1.71428571,9.1 L1.71428571,7.4 C1.71428571,6.46245 2.48314286,5.7 3.42857143,5.7 L20.5714286,5.7 C21.5168571,5.7 22.2857143,6.46245 22.2857143,7.4 L22.2857143,9.1 Z M22.2857143,17.6 C22.2857143,18.53755 21.5168571,19.3 20.5714286,19.3 L3.42857143,19.3 C2.48314286,19.3 1.71428571,18.53755 1.71428571,17.6 L1.71428571,12.5 L22.2857143,12.5 L22.2857143,17.6 Z M20.5714286,4 L3.42857143,4 C1.53514286,4 0,5.52235 0,7.4 L0,9.1 L0,12.5 L0,17.6 C0,19.47765 1.53514286,21 3.42857143,21 L20.5714286,21 C22.4648571,21 24,19.47765 24,17.6 L24,12.5 L24,9.1 L24,7.4 C24,5.52235 22.4648571,4 20.5714286,4 L20.5714286,4 Z" id="Page-1"></path>
        </g>
    </g>
</svg>