<?xml version="1.0" encoding="UTF-8"?>
<svg width="20px" height="20px" viewBox="0 0 20 20" version="1.1" xmlns="http://www.w3.org/2000/svg" xmlns:xlink="http://www.w3.org/1999/xlink">
    <!-- Generator: sketchtool 43.2 (39069) - http://www.bohemiancoding.com/sketch -->
    <title>creditcard--small</title>
    <desc>Created with sketchtool.</desc>
    <defs></defs>
    <g id="Android" stroke="none" stroke-width="1" fill="none" fill-rule="evenodd">
        <g id="creditcard--small" fill="#000000">
            <path d="M4,13.5 C4,13.224 4.224,13 4.5,13 L7.5,13 C7.776,13 8,13.224 8,13.5 C8,13.776 7.776,14 7.5,14 L4.5,14 C4.224,14 4,13.776 4,13.5 L4,13.5 Z M1,6 C1,4.346 2.346,3 4,3 L16,3 C17.654,3 19,4.346 19,6 L1,6 Z M1,9 L19,9 L19,7 L1,7 L1,9 Z M19,14 C19,15.654 17.654,17 16,17 L4,17 C2.346,17 1,15.654 1,14 L1,10 L19,10 L19,14 Z M16,2 L4,2 C1.791,2 0,3.791 0,6 L0,10 L0,14 C0,16.209 1.791,18 4,18 L16,18 C18.209,18 20,16.209 20,14 L20,10 L20,6 C20,3.791 18.209,2 16,2 L16,2 Z" id="Page-1"></path>
        </g>
    </g>
</svg>