<?xml version="1.0" encoding="UTF-8"?>
<svg width="28px" height="28px" viewBox="0 0 28 28" version="1.1" xmlns="http://www.w3.org/2000/svg" xmlns:xlink="http://www.w3.org/1999/xlink">
    <!-- Generator: sketchtool 43.2 (39069) - http://www.bohemiancoding.com/sketch -->
    <title>cross</title>
    <desc>Created with sketchtool.</desc>
    <defs></defs>
    <g id="Android" stroke="none" stroke-width="1" fill="none" fill-rule="evenodd">
        <g id="cross" fill="#000000">
            <path d="M15.41425,14.00025 L21.70725,7.70725 C22.09825,7.31625 22.09825,6.68425 21.70725,6.29325 C21.31625,5.90225 20.68425,5.90225 20.29325,6.29325 L14.00025,12.58625 L7.70725,6.29325 C7.31625,5.90225 6.68425,5.90225 6.29325,6.29325 C5.90225,6.68425 5.90225,7.31625 6.29325,7.70725 L12.58625,14.00025 L6.29325,20.29325 C5.90225,20.68425 5.90225,21.31625 6.29325,21.70725 C6.48825,21.90225 6.74425,22.00025 7.00025,22.00025 C7.25625,22.00025 7.51225,21.90225 7.70725,21.70725 L14.00025,15.41425 L20.29325,21.70725 C20.48825,21.90225 20.74425,22.00025 21.00025,22.00025 C21.25625,22.00025 21.51225,21.90225 21.70725,21.70725 C22.09825,21.31625 22.09825,20.68425 21.70725,20.29325 L15.41425,14.00025 Z" id="Fill-1"></path>
        </g>
    </g>
</svg>