<?xml version="1.0" encoding="UTF-8"?>
<svg width="16px" height="16px" viewBox="0 0 16 16" version="1.1" xmlns="http://www.w3.org/2000/svg" xmlns:xlink="http://www.w3.org/1999/xlink">
    <!-- Generator: (null) (null) ((null)) - http://www.bohemiancoding.com/sketch -->
    <title>cross-circled--small</title>
    <desc>Created with (null).</desc>
    <defs></defs>
    <g id="Android" stroke="none" stroke-width="1" fill="none" fill-rule="evenodd">
        <g id="cross-circled--small" fill="#000000">
            <path d="M12.949975,3.050225 C10.216475,0.316725 5.783725,0.316725 3.050225,3.050225 C0.316725,5.783725 0.316725,10.216475 3.050225,12.949975 C5.783725,15.683475 10.216475,15.683475 12.949975,12.949975 C15.683475,10.216475 15.683475,5.783725 12.949975,3.050225 M3.66885,12.33135 C1.280975,9.9426 1.280975,6.0576 3.66885,3.66885 C6.0576,1.280975 9.9426,1.280975 12.33135,3.66885 C14.71835,6.056725 14.71835,9.9426 12.33135,12.33135 C9.9426,14.71835 6.056725,14.71835 3.66885,12.33135 M10.4746,10.4746 C10.303975,10.645225 10.0266,10.645225 9.855975,10.4746 L8.0001,8.618725 L6.144225,10.4746 C5.972725,10.645225 5.69535,10.645225 5.524725,10.4746 C5.3541,10.303975 5.3541,10.0266 5.524725,9.855975 L7.381475,8.0001 L5.524725,6.144225 C5.3541,5.972725 5.3541,5.69535 5.524725,5.524725 C5.69535,5.3541 5.972725,5.3541 6.144225,5.524725 L8.0001,7.381475 L9.855975,5.524725 C10.0266,5.3541 10.303975,5.3541 10.4746,5.524725 C10.645225,5.69535 10.645225,5.972725 10.4746,6.144225 L8.618725,8.0001 L10.4746,9.855975 C10.645225,10.0266 10.645225,10.303975 10.4746,10.4746" id="Fill-1"></path>
        </g>
    </g>
</svg>