<?xml version="1.0" encoding="UTF-8"?>
<svg width="24px" height="24px" viewBox="0 0 24 24" version="1.1" xmlns="http://www.w3.org/2000/svg" xmlns:xlink="http://www.w3.org/1999/xlink">
    <!-- Generator: (null) (null) ((null)) - http://www.bohemiancoding.com/sketch -->
    <title>cross</title>
    <desc>Created with (null).</desc>
    <defs></defs>
    <g id="Android" stroke="none" stroke-width="1" fill="none" fill-rule="evenodd">
        <g id="cross" fill="#000000">
            <path d="M13.2372113,12 L18.7434143,6.49379707 C19.0855286,6.15168276 19.0855286,5.59870004 18.7434143,5.25658573 C18.4013,4.91447142 17.8483172,4.91447142 17.5062029,5.25658573 L12,10.7627887 L6.49379707,5.25658573 C6.15168276,4.91447142 5.59870004,4.91447142 5.25658573,5.25658573 C4.91447142,5.59870004 4.91447142,6.15168276 5.25658573,6.49379707 L10.7627887,12 L5.25658573,17.5062029 C4.91447142,17.8483172 4.91447142,18.4013 5.25658573,18.7434143 C5.4272054,18.9140339 5.6511984,18.9997813 5.8751914,18.9997813 C6.0991844,18.9997813 6.3231774,18.9140339 6.49379707,18.7434143 L12,13.2372113 L17.5062029,18.7434143 C17.6768226,18.9140339 17.9008156,18.9997813 18.1248086,18.9997813 C18.3488016,18.9997813 18.5727946,18.9140339 18.7434143,18.7434143 C19.0855286,18.4013 19.0855286,17.8483172 18.7434143,17.5062029 L13.2372113,12 Z" id="Fill-1"></path>
        </g>
    </g>
</svg>