<?xml version="1.0" encoding="UTF-8"?>
<svg width="24px" height="24px" viewBox="0 0 24 24" version="1.1" xmlns="http://www.w3.org/2000/svg" xmlns:xlink="http://www.w3.org/1999/xlink">
    <!-- Generator: sketchtool 52.3 (67297) - http://www.bohemiancoding.com/sketch -->
    <title>cross-circle</title>
    <desc>Created with sketchtool.</desc>
    <g id="Android" stroke="none" stroke-width="1" fill="none" fill-rule="evenodd">
        <g id="cross-circle" fill="#000000">
            <path d="M15.5355177,15.5352052 C15.2096894,15.8610334 14.683031,15.8610334 14.3572028,15.5352052 L11.9997396,13.1785753 L9.64310975,15.5352052 C9.31728151,15.8618667 8.78978975,15.8610334 8.46479483,15.5352052 C8.13896658,15.2093769 8.13896658,14.6835518 8.46479483,14.3568903 L10.8214247,12.0002604 L8.46479483,9.64363057 C8.1397999,9.31780232 8.13896658,8.79031057 8.46479483,8.46531564 C8.78978975,8.1394874 9.31811483,8.1394874 9.64310975,8.46531564 L11.9997396,10.8219455 L14.3563694,8.46531564 C14.6821977,8.1394874 15.2096894,8.1394874 15.5355177,8.46531564 C15.8613459,8.79031057 15.8605126,9.31780232 15.5355177,9.64363057 L13.1780545,12.0002604 L15.5355177,14.3568903 C15.8613459,14.6827185 15.8605126,15.2102103 15.5355177,15.5352052 M19.0712958,4.92870424 C15.1663568,1.02376525 8.83395572,1.02376525 4.92901674,4.92870424 C1.02324444,8.83447654 1.02407776,15.1660443 4.92901674,19.0709833 C8.83395572,22.9767556 15.1655235,22.9767556 19.0712958,19.0709833 C22.9762347,15.1660443 22.9762347,8.83447654 19.0712958,4.92870424" id="Fill-1"></path>
        </g>
    </g>
</svg>