<?xml version="1.0" encoding="UTF-8" standalone="no"?>
<svg width="18px" height="18px" viewBox="0 0 18 18" version="1.1" xmlns="http://www.w3.org/2000/svg" xmlns:xlink="http://www.w3.org/1999/xlink">
    <!-- Generator: sketchtool 43.2 (39069) - http://www.bohemiancoding.com/sketch -->
    <title>cross-circle--small</title>
    <desc>Created with sketchtool.</desc>
    <defs></defs>
    <g id="Android" stroke="none" stroke-width="1" fill="none" fill-rule="evenodd">
        <g id="cross-circle--small" fill="#000000">
            <path d="M11.4753397,11.4743553 C11.3038383,11.6458566 11.0273362,11.6449816 10.8567098,11.4743553 L8.99994532,9.61846576 L7.14405582,11.4743553 C6.97255448,11.6449816 6.69605232,11.6449816 6.52542599,11.4743553 C6.35392465,11.3037289 6.35392465,11.0263518 6.52542599,10.8557254 L8.38131549,8.99983593 L6.52542599,7.14394643 C6.35392465,6.97244509 6.35392465,6.69594293 6.52542599,6.5253166 C6.69605232,6.35381526 6.97255448,6.35381526 7.14405582,6.5253166 L8.99994532,8.3812061 L10.8558348,6.5253166 C11.0273362,6.35381526 11.3038383,6.35381526 11.4753397,6.5253166 C11.645966,6.69594293 11.645966,6.97244509 11.4753397,7.14394643 L9.61857515,8.99983593 L11.4753397,10.8557254 C11.645966,11.0263518 11.645966,11.3037289 11.4753397,11.4743553 M13.949859,4.05079727 C11.2163376,1.31640091 6.78442801,1.31640091 4.05090666,4.05079727 C1.3165103,6.78431862 1.3165103,11.2162282 4.05003165,13.9497496 C6.78355301,16.6832709 11.2163376,16.6832709 13.949859,13.9488746 C16.6833803,11.2162282 16.6833803,6.78344362 13.949859,4.05079727" id="Fill-1"></path>
        </g>
    </g>
</svg>