<?xml version="1.0" encoding="UTF-8"?>
<svg width="18px" height="18px" viewBox="0 0 18 18" version="1.1" xmlns="http://www.w3.org/2000/svg" xmlns:xlink="http://www.w3.org/1999/xlink">
    <!-- Generator: sketchtool 46.2 (44496) - http://www.bohemiancoding.com/sketch -->
    <title>cross--small</title>
    <desc>Created with sketchtool.</desc>
    <defs></defs>
    <g id="Android" stroke="none" stroke-width="1" fill="none" fill-rule="evenodd">
        <g id="cross--small" fill="#000000">
            <path d="M9.70711027,9.000125 L14.8530031,3.8542322 C15.048999,3.65823629 15.048999,3.34224287 14.8530031,3.14624695 C14.6580071,2.95125102 14.3420137,2.95125102 14.1460178,3.14624695 L9.000125,8.29313973 L3.85323222,3.14624695 C3.65823629,2.95125102 3.34224287,2.95125102 3.14624695,3.14624695 C2.95125102,3.34224287 2.95125102,3.65823629 3.14624695,3.8542322 L8.29313973,9.000125 L3.14624695,14.1460178 C2.95125102,14.3420137 2.95125102,14.6580071 3.14624695,14.854003 C3.24424491,14.951001 3.37224224,15 3.50023958,15 C3.62823691,15 3.75623425,14.951001 3.85323222,14.854003 L9.000125,9.70711027 L14.1460178,14.854003 C14.2440157,14.951001 14.3720131,15 14.5000104,15 C14.6280077,15 14.7560051,14.951001 14.8530031,14.854003 C15.048999,14.6580071 15.048999,14.3420137 14.8530031,14.1460178 L9.70711027,9.000125 Z" id="Fill-1"></path>
        </g>
    </g>
</svg>