<?xml version="1.0" encoding="UTF-8"?>
<svg width="24px" height="24px" viewBox="0 0 24 24" version="1.1" xmlns="http://www.w3.org/2000/svg" xmlns:xlink="http://www.w3.org/1999/xlink">
    <!-- Generator: sketchtool 46.2 (44496) - http://www.bohemiancoding.com/sketch -->
    <title>cross-circle-outlined</title>
    <desc>Created with sketchtool.</desc>
    <defs></defs>
    <g id="Android" stroke="none" stroke-width="1" fill="none" fill-rule="evenodd">
        <g id="cross-circle-outlined" fill="#000000">
            <path d="M6.10715179,17.8928482 C2.85793097,14.6436274 2.85793097,9.35687261 6.10715179,6.10681845 C9.35637261,2.85759763 14.6431274,2.85759763 17.8931816,6.10681845 C21.141569,9.35687261 21.141569,14.6436274 17.8931816,17.8928482 C14.6431274,21.1412357 9.35637261,21.1412357 6.10715179,17.8928482 M19.0715345,4.92846547 C15.1656361,1.02340039 8.8338639,1.02340039 4.92879881,4.92846547 C1.02373373,8.83353056 1.02373373,15.1661361 4.92879881,19.0712012 C8.8338639,22.9762663 15.1656361,22.9762663 19.0715345,19.0712012 C22.9757663,15.1661361 22.9757663,8.83353056 19.0715345,4.92846547 M15.5348089,14.3569559 L13.178103,12.00025 L15.5348089,9.64271071 C15.8606477,9.3177053 15.8606477,8.78936316 15.5348089,8.46435774 C15.2106368,8.13935232 14.6822947,8.13935232 14.3564559,8.46435774 L11.99975,10.821897 L9.64304405,8.46435774 C9.31803863,8.13935232 8.78969649,8.13935232 8.46469108,8.46435774 C8.13885231,8.78936316 8.13885231,9.3177053 8.46469108,9.64271071 L10.821397,12.00025 L8.46469108,14.3569559 C8.13885231,14.6827947 8.13885231,15.2103035 8.46469108,15.5353089 C8.78969649,15.8611477 9.31720529,15.8611477 9.64304405,15.5353089 L11.99975,13.178603 L14.3564559,15.5353089 C14.6831281,15.8611477 15.2106368,15.8611477 15.5348089,15.5353089 C15.8606477,15.2103035 15.861481,14.6827947 15.5348089,14.3569559" id="Page-1"></path>
        </g>
    </g>
</svg>