<?xml version="1.0" encoding="UTF-8"?>
<svg width="24px" height="24px" viewBox="0 0 24 24" version="1.1" xmlns="http://www.w3.org/2000/svg" xmlns:xlink="http://www.w3.org/1999/xlink">
    <!-- Generator: (null) (null) ((null)) - http://www.bohemiancoding.com/sketch -->
    <title>download</title>
    <desc>Created with (null).</desc>
    <defs></defs>
    <g id="Android" stroke="none" stroke-width="1" fill="none" fill-rule="evenodd">
        <g id="download" fill="#000000">
            <path d="M21,14.5883002 C21,17.0209115 19.09345,19 16.75,19 L8.25,19 C5.90655,19 4,17.0209115 4,14.5883002 C4,14.1007767 4.38055796,13.7057396 4.85,13.7057396 C5.31944204,13.7057396 5.7,14.1007767 5.7,14.5880796 C5.7,16.0476905 6.8441,17.2353201 8.25,17.2353201 L16.75,17.2353201 C18.1559,17.2353201 19.3,16.0476905 19.3,14.5883002 C19.3,14.1007767 19.680558,13.7057396 20.15,13.7057396 C20.619442,13.7057396 21,14.1007767 21,14.5880796 Z M7.71875,12.6310495 C7.3524,12.3257599 7.2929,11.7707681 7.58615,11.3904796 C7.8794,11.010191 8.4132,10.9475449 8.78125,11.2519522 L11.65,13.6351524 L11.65,4.88233997 C11.65,4.3952883 12.02995,4 12.5,4 C12.97005,4 13.35,4.3952883 13.35,4.88233997 L13.35,13.6351524 L16.21875,11.2519522 C16.376,11.1222482 16.563,11.0596021 16.74915,11.0596021 C16.99905,11.0596021 17.24555,11.1725416 17.41385,11.3904796 C17.7071,11.7707681 17.6476,12.3257599 17.28125,12.6310495 L13.03125,16.1604094 C12.721,16.4171703 12.279,16.4171703 11.96875,16.1604094 L7.71875,12.6310495 Z" id="Fill-9-Copy-2"></path>
        </g>
    </g>
</svg>