<?xml version="1.0" encoding="UTF-8"?>
<svg width="16px" height="16px" viewBox="0 0 16 16" version="1.1" xmlns="http://www.w3.org/2000/svg" xmlns:xlink="http://www.w3.org/1999/xlink">
    <!-- Generator: sketchtool 46.2 (44496) - http://www.bohemiancoding.com/sketch -->
    <title>download--small</title>
    <desc>Created with sketchtool.</desc>
    <defs></defs>
    <g id="Android" stroke="none" stroke-width="1" fill="none" fill-rule="evenodd">
        <g id="download--small" fill="#000000">
            <path d="M14,9.72550474 C13.9998465,11.6883949 12.4856557,13.2857143 10.625,13.2857143 L5.375,13.2857143 C3.51428125,13.2857143 2.00005086,11.6882867 2,9.72530516 C2.00005067,9.50686013 2.16792447,9.32979206 2.375,9.32979206 C2.58207553,9.32979206 2.74994933,9.50686013 2.74999999,9.72530515 C2.75005084,11.2523222 3.92753125,12.4944903 5.375,12.4944903 L10.625,12.4944903 C12.0724688,12.4944903 13.2499492,11.2523222 13.25,9.72530516 C13.2500507,9.50686013 13.4179245,9.32979206 13.625,9.32979206 C13.8321068,9.32979206 14,9.50691358 14,9.72540406 C14,9.72543762 14,9.72547118 14,9.72550474 Z M4.373,8.43570893 C4.21925,8.28933249 4.208,8.03851448 4.3475,7.87710478 C4.487,7.71332141 4.72475,7.7030355 4.877,7.85020316 L7.625,10.4137689 L7.625,3.395612 C7.625,3.17644295 7.793,3 8,3 C8.207,3 8.375,3.17644295 8.375,3.395612 L8.375,10.4137689 L11.123,7.85020316 C11.195,7.78136668 11.285,7.74734404 11.375,7.74734404 C11.477,7.74734404 11.57825,7.79086136 11.6525,7.87710478 C11.792,8.03851448 11.78075,8.28933249 11.627,8.43570893 L8.252,11.600605 C8.23325,11.6188031 8.21,11.6282978 8.189,11.6417486 C8.17175,11.6520345 8.15825,11.6654853 8.14025,11.6733976 C8.05025,11.7121675 7.94975,11.7121675 7.85975,11.6733976 C7.84175,11.6654853 7.8275,11.6520345 7.811,11.6417486 C7.79,11.6282978 7.76675,11.6188031 7.748,11.600605 L4.373,8.43570893 Z" id="Fill-11-Copy"></path>
        </g>
    </g>
</svg>