<?xml version="1.0" encoding="UTF-8"?>
<svg width="18px" height="18px" viewBox="0 0 18 18" version="1.1" xmlns="http://www.w3.org/2000/svg" xmlns:xlink="http://www.w3.org/1999/xlink">
    <!-- Generator: sketchtool 46.2 (44496) - http://www.bohemiancoding.com/sketch -->
    <title>download--small</title>
    <desc>Created with sketchtool.</desc>
    <defs></defs>
    <g id="Android" stroke="none" stroke-width="1" fill="none" fill-rule="evenodd">
        <g id="download--small" fill="#000000">
            <path d="M16,10.8464206 C15.9998217,13.1364599 14.2332655,15 12.0625,15 L5.9375,15 C3.76666146,15 2.00005934,13.1363345 2,10.8461894 C2,10.8462278 2,10.8462663 2,10.8463047 C2,11.1012103 2.19587542,11.3078521 2.4375,11.3078521 C2.67912458,11.3078521 2.875,11.1012103 2.875,10.8463047 C2.875,10.8462663 2.875,10.8462278 2.87499999,10.8461893 C2.87505932,12.6277093 4.24878646,14.0769053 5.9375,14.0769053 L12.0625,14.0769053 C13.7512135,14.0769053 15.1249407,12.6277093 15.125,10.8461894 C15.1250591,10.5913368 15.3209119,10.3847574 15.5625,10.3847574 C15.8041246,10.3847574 16,10.5913992 16,10.8463047 C16,10.8463434 16,10.846382 16,10.8464206 Z M4.7685,9.34166042 C4.589125,9.1708879 4.576,8.87826689 4.73875,8.68995558 C4.9015,8.49887498 5.178875,8.48687475 5.3565,8.65857036 L8.5625,11.6493971 L8.5625,3.46154734 C8.5625,3.20585011 8.7585,3 9,3 C9.2415,3 9.4375,3.20585011 9.4375,3.46154734 L9.4375,11.6493971 L12.6435,8.65857036 C12.7275,8.57826112 12.8325,8.53856805 12.9375,8.53856805 C13.0565,8.53856805 13.174625,8.58933826 13.26125,8.68995558 C13.424,8.87826689 13.410875,9.1708879 13.2315,9.34166042 L9.294,13.0340391 C9.272125,13.0552703 9.245,13.0663474 9.2205,13.08204 C9.200375,13.0940403 9.184625,13.1097329 9.163625,13.1189638 C9.058625,13.1641955 8.941375,13.1641955 8.836375,13.1189638 C8.815375,13.1097329 8.79875,13.0940403 8.7795,13.08204 C8.755,13.0663474 8.727875,13.0552703 8.706,13.0340391 L4.7685,9.34166042 Z" id="Fill-11-Copy"></path>
        </g>
    </g>
</svg>