<?xml version="1.0" encoding="UTF-8"?>
<svg width="24px" height="24px" viewBox="0 0 24 24" version="1.1" xmlns="http://www.w3.org/2000/svg" xmlns:xlink="http://www.w3.org/1999/xlink">
    <!-- Generator: (null) (null) ((null)) - http://www.bohemiancoding.com/sketch -->
    <title>edit</title>
    <desc>Created with (null).</desc>
    <defs></defs>
    <g id="Android" stroke="none" stroke-width="1" fill="none" fill-rule="evenodd">
        <g id="edit" fill="#000000">
            <path d="M4.5,12.8313333 C4.5,13.2905 4.87333333,13.6646667 5.33333333,13.6646667 L6.73083333,13.6646667 C6.9525,13.6646667 7.1625,13.578 7.32083333,13.4205 L12.6608333,8.07966667 L10.085,5.50383333 L4.74416667,10.8446667 C4.58666667,11.0021667 4.5,11.2113333 4.5,11.4338333 L4.5,12.8313333 Z M11.3916667,4.19716667 L11.2633333,4.32466667 L13.8391667,6.90133333 L13.9666667,6.773 C14.31,6.42966667 14.5,5.973 14.5,5.48716667 C14.5,5.00133333 14.31,4.54466667 13.9666667,4.20133333 C13.6108333,3.84383333 13.1425,3.6655 12.6758333,3.6655 C12.21,3.6655 11.745,3.843 11.3916667,4.19716667 L11.3916667,4.19716667 Z M2.83333333,12.8313333 L2.83333333,11.4338333 C2.83333333,10.7663333 3.09333333,10.138 3.56583333,9.66633333 L10.2125,3.01883333 C11.5708333,1.6605 13.7833333,1.65966667 15.1425,3.01883333 C15.8033333,3.6805 16.1666667,4.55633333 16.1666667,5.48716667 C16.1666667,6.418 15.8033333,7.29383333 15.145,7.95216667 L8.49833333,14.5988333 C8.02583333,15.0713333 7.39833333,15.3313333 6.73083333,15.3313333 L5.33333333,15.3313333 C3.955,15.3313333 2.83333333,14.2096667 2.83333333,12.8313333 L2.83333333,12.8313333 Z M22,21.1646667 C22,21.6246667 21.6275,21.998 21.1666667,21.998 L2.83333333,21.998 C2.37333333,21.998 2,21.6246667 2,21.1646667 C2,20.7046667 2.37333333,20.3313333 2.83333333,20.3313333 L21.1666667,20.3313333 C21.6275,20.3313333 22,20.7046667 22,21.1646667 L22,21.1646667 Z" id="Page-1"></path>
        </g>
    </g>
</svg>