<?xml version="1.0" encoding="UTF-8"?>
<svg width="18px" height="18px" viewBox="0 0 18 18" version="1.1" xmlns="http://www.w3.org/2000/svg" xmlns:xlink="http://www.w3.org/1999/xlink">
    <!-- Generator: sketchtool 46.2 (44496) - http://www.bohemiancoding.com/sketch -->
    <title>edit--small</title>
    <desc>Created with sketchtool.</desc>
    <defs></defs>
    <g id="Android" stroke="none" stroke-width="1" fill="none" fill-rule="evenodd">
        <g id="edit--small" fill="#000000">
            <path d="M17,16.5534222 C17,16.7987556 16.8008889,16.9978667 16.5555556,16.9978667 L1.44444444,16.9978667 C1.19911111,16.9978667 1,16.7987556 1,16.5534222 C1,16.3080889 1.19911111,16.1089778 1.44444444,16.1089778 L16.5555556,16.1089778 C16.8008889,16.1089778 17,16.3080889 17,16.5534222 L17,16.5534222 Z M1.88888889,10.6183111 C1.88888889,10.2618667 2.02755556,9.92764444 2.27911111,9.6752 L8.73511111,3.22008889 L12.1111111,6.59608889 L5.65511111,13.0520889 C5.40711111,13.3000889 5.06311111,13.4423111 4.71288889,13.4423111 L3.22222222,13.4423111 C2.48711111,13.4423111 1.88888889,12.8440889 1.88888889,12.1089778 L1.88888889,10.6183111 Z M11.0551111,1.88853333 C11.6657778,1.88853333 12.2782222,2.12231111 12.7457778,2.58897778 C13.1964444,3.03964444 13.4444444,3.63786667 13.4444444,4.2752 C13.4444444,4.91253333 13.1964444,5.51075556 12.7457778,5.96142222 L12.7395556,5.96764444 L9.36355556,2.59164444 L9.36977778,2.58542222 C9.83377778,2.12142222 10.4435556,1.88853333 11.0551111,1.88853333 L11.0551111,1.88853333 Z M3.22222222,14.3312 L4.71288889,14.3312 C5.30666667,14.3312 5.864,14.1000889 6.28355556,13.6805333 L13.3742222,6.58986667 C13.992,5.97208889 14.3333333,5.14986667 14.3333333,4.2752 C14.3333333,3.40053333 13.992,2.57831111 13.3706667,1.95697778 C12.0942222,0.680533333 10.0177778,0.682311111 8.74133333,1.95697778 L1.65066667,9.04675556 C1.23111111,9.46631111 1,10.0245333 1,10.6183111 L1,12.1089778 C1,13.3338667 1.99644444,14.3312 3.22222222,14.3312 L3.22222222,14.3312 Z" id="Page-1"></path>
        </g>
    </g>
</svg>