<?xml version="1.0" encoding="UTF-8"?>
<svg width="20px" height="20px" viewBox="0 0 20 20" version="1.1" xmlns="http://www.w3.org/2000/svg" xmlns:xlink="http://www.w3.org/1999/xlink">
    <!-- Generator: sketchtool 43.2 (39069) - http://www.bohemiancoding.com/sketch -->
    <title>export--small</title>
    <desc>Created with sketchtool.</desc>
    <defs></defs>
    <g id="Android" stroke="none" stroke-width="1" fill="none" fill-rule="evenodd">
        <g id="export--small" fill="#000000">
            <path d="M15.3351855,7.3 C14.6239756,7.3 14.001667,7.57 13.5571608,8.02 L7.24517298,4.33 C7.33407421,4.15 7.33407421,3.88 7.33407421,3.7 C7.33407421,2.17 6.17835813,1 4.66703711,1 C3.15571608,1 2,2.17 2,3.7 C2,5.23 3.15571608,6.4 4.66703711,6.4 C5.378247,6.4 6.00055566,6.13 6.44506184,5.68 L12.7570497,9.37 C12.6681484,9.55 12.6681484,9.82 12.6681484,10 C12.6681484,10.18 12.6681484,10.45 12.7570497,10.63 L6.44506184,14.41 C6.00055566,13.96 5.378247,13.69 4.66703711,13.69 C3.24461732,13.69 2.08890124,14.86 2.08890124,16.3 C2.08890124,17.74 3.24461732,18.91 4.66703711,18.91 C6.0894569,18.91 7.24517298,17.74 7.24517298,16.3 C7.24517298,16.12 7.24517298,15.94 7.15627174,15.67 L13.4682596,11.89 C13.9127657,12.34 14.5350744,12.61 15.2462843,12.61 C16.7576053,12.61 17.9133214,11.44 17.9133214,9.91 C17.9133214,8.38 16.8465066,7.3 15.3351855,7.3 L15.3351855,7.3 Z" id="Shape"></path>
        </g>
    </g>
</svg>