<?xml version="1.0" encoding="UTF-8" standalone="no"?>
<svg width="24px" height="24px" viewBox="0 0 24 24" version="1.1" xmlns="http://www.w3.org/2000/svg" xmlns:xlink="http://www.w3.org/1999/xlink">
    <!-- Generator: sketchtool 43.2 (39069) - http://www.bohemiancoding.com/sketch -->
    <title>external-messenger-outlined</title>
    <desc>Created with sketchtool.</desc>
    <defs></defs>
    <g id="Android" stroke="none" stroke-width="1" fill="none" fill-rule="evenodd">
        <g id="external-messenger-outlined" fill="#000000">
            <path d="M17.9208333,8.94416667 L12.91,14.2625 L10.5766667,11.7733333 L6.02083333,14.2625 L11.0316667,8.94416667 L13.4225,11.4333333 L17.9208333,8.94416667 Z M12,18.975 C11.1841667,18.975 10.3741667,18.865 9.59166667,18.65 C9.38166667,18.5916667 9.15833333,18.6183333 8.96916667,18.7225 L7.0825,19.7583333 L7.0825,17.93 C7.0825,17.6675 6.95833333,17.42 6.7475,17.2625 C4.78916667,15.8 3.66666667,13.6341667 3.66666667,11.3208333 C3.66666667,7.1 7.40416667,3.66666667 12,3.66666667 C16.5941667,3.66666667 20.3333333,7.1 20.3333333,11.3208333 C20.3333333,15.5408333 16.5941667,18.975 12,18.975 L12,18.975 Z M12,2 C6.48583333,2 2,6.18083333 2,11.3208333 C2,14.03 3.23916667,16.5641667 5.41583333,18.3366667 L5.41583333,21.1666667 C5.41583333,21.4608333 5.57166667,21.7333333 5.825,21.8833333 C5.95583333,21.9608333 6.1025,22 6.24916667,22 C6.3875,22 6.525,21.965 6.65,21.8966667 L9.48166667,20.3425 C10.3041667,20.5408333 11.15,20.6416667 12,20.6416667 C17.5141667,20.6416667 22,16.46 22,11.3208333 C22,6.18083333 17.5141667,2 12,2 L12,2 Z" id="Fill-1"></path>
        </g>
    </g>
</svg>