<?xml version="1.0" encoding="UTF-8"?>
<svg width="24px" height="24px" viewBox="0 0 24 24" version="1.1" xmlns="http://www.w3.org/2000/svg" xmlns:xlink="http://www.w3.org/1999/xlink">
    <!-- Generator: (null) (null) ((null)) - http://www.bohemiancoding.com/sketch -->
    <title>external-twitter-outlined</title>
    <desc>Created with (null).</desc>
    <defs></defs>
    <g id="Android" stroke="none" stroke-width="1" fill="none" fill-rule="evenodd">
        <g id="external-twitter-outlined" fill="#000000">
            <path d="M18.7300442,8.34437086 L18.5825462,8.44634766 L18.5925461,8.62002689 C18.6008793,8.75944829 18.602546,8.90046308 18.602546,9.04386795 C18.602546,12.9484639 15.5509206,18.4472439 8.76601241,18.4472439 C7.33519844,18.4472439 5.93438406,18.1508739 4.64690148,17.5820346 C6.15938101,17.487228 7.58102844,16.9677837 8.78434549,16.0651297 L9.52350216,15.5114276 L8.5843482,15.4962904 C7.3793645,15.4763731 6.30187908,14.8214908 5.76188639,13.8200468 C5.81105239,13.8216402 5.86021839,13.8232336 5.9093844,13.8232336 C6.26021298,13.8232336 6.60770828,13.7786187 6.9410371,13.6909824 L8.29101884,13.335657 L6.91770409,13.0711547 C5.57355561,12.8122292 4.55773602,11.7677638 4.35440544,10.5010208 C4.75023341,10.6420356 5.17022773,10.7209082 5.59188869,10.734452 L6.75937289,10.7718966 L5.78938602,10.1520689 C4.88689823,9.57366927 4.34773886,8.60966987 4.34773886,7.57078126 C4.34773886,7.17801125 4.42523781,6.79002141 4.57523578,6.42911916 C6.4385439,8.40810636 9.06100842,9.6087238 11.8484707,9.74256834 L12.291798,9.76328238 L12.1901327,9.35139172 C12.1359668,9.13070756 12.1084672,8.89249614 12.1084672,8.64472439 C12.1084672,6.93661306 13.5609475,5.54717921 15.3467567,5.54717921 C16.2409113,5.54717921 17.1033996,5.9033013 17.7142247,6.5247224 L17.8400563,6.6521934 L18.0200539,6.61873226 C18.5500467,6.51994224 19.0642064,6.36777374 19.5558664,6.16302345 C19.4467012,6.33988946 19.3258695,6.49126127 19.1892047,6.62112234 C19.0633731,6.73903301 18.8367095,6.86969078 18.6858782,6.95732709 C18.4858809,7.07125429 18.2125512,7.22899965 18.3558826,7.50784245 C18.3933821,7.58113828 18.4908808,7.70382911 18.7233777,7.70382911 C18.9133751,7.70382911 19.3133697,7.61539611 19.735864,7.49589205 C19.4317014,7.80739929 19.0950393,8.09181895 18.7300442,8.34437086 M21.461674,5.83000548 C21.6108386,5.34959916 21.4408409,4.83095155 21.0300131,4.51785092 C20.7958496,4.34098491 20.5133534,4.24936513 20.227524,4.24936513 C20.0016937,4.24936513 19.7750301,4.30672708 19.5725328,4.42224767 C19.169205,4.64850869 18.747544,4.83095155 18.3058833,4.95921924 C17.4650614,4.34337499 16.4209088,4 15.3484233,4 C12.8901233,4 10.8526508,5.75352288 10.5318218,8.0217099 C8.57101505,7.62017627 6.78520588,6.5884579 5.49855662,5.0787233 C5.25272661,4.78952348 4.88439827,4.62540457 4.50107012,4.62540457 C4.46857056,4.62540457 4.43440435,4.62779465 4.40023815,4.63018473 C3.97857719,4.66045909 3.60274894,4.88751681 3.38941849,5.23726535 C2.95692435,5.94393268 2.73026075,6.75178011 2.73026075,7.57317134 C2.73026075,8.12846686 2.83275936,8.67021859 3.02359011,9.17452572 C2.81775956,9.39839665 2.69942783,9.68679978 2.69942783,9.99193348 C2.69942783,11.2124683 3.18025466,12.3326196 3.9827438,13.1739282 C3.9335778,13.3834586 3.9410777,13.6065329 4.01274339,13.8192501 C4.29023964,14.6502017 4.79773277,15.3648359 5.45439055,15.9105711 C5.02856298,16.0021909 4.58606897,16.0507892 4.13857502,16.0507892 C3.90691149,16.0507892 3.67274799,16.0364487 3.43525121,16.0109545 C3.38525188,16.0037843 3.33525256,16.0013942 3.28525324,16.0013942 C2.74692719,16.0013942 2.25860046,16.3240552 2.07610293,16.818802 C1.87277235,17.3573669 2.08776944,17.9596674 2.59109596,18.2687845 C4.43940429,19.4000896 6.57520872,20 8.76601241,20 C15.8742496,20 20.1458584,14.5299009 20.2225241,9.19125629 C20.8008496,8.7204103 21.309176,8.17786187 21.7400035,7.57317134 C21.904168,7.36762436 22,7.11188567 22,6.83224618 C22,6.42035552 21.7875029,6.05467311 21.461674,5.83000548" id="Fill-1"></path>
        </g>
    </g>
</svg>