<?xml version="1.0" encoding="UTF-8"?>
<svg width="18px" height="18px" viewBox="0 0 18 18" version="1.1" xmlns="http://www.w3.org/2000/svg" xmlns:xlink="http://www.w3.org/1999/xlink">
    <!-- Generator: sketchtool 46.2 (44496) - http://www.bohemiancoding.com/sketch -->
    <title>external-twitter-outlined--small</title>
    <desc>Created with sketchtool.</desc>
    <defs></defs>
    <g id="Android" stroke="none" stroke-width="1" fill="none" fill-rule="evenodd">
        <g id="external-twitter-outlined--small" fill="#000000">
            <path d="M13.8475097,6.45238629 C13.8536347,6.56083352 13.8553847,6.67196953 13.8553847,6.78310553 C13.8553847,10.170065 11.338896,14.0750616 6.73641681,14.0750616 C5.32417318,14.0750616 4.00817912,13.6502353 2.90043412,12.9242662 C3.09555824,12.9457764 3.29505734,12.9601165 3.49718143,12.9601165 C4.66967614,12.9601165 5.74854627,12.5496303 6.6051674,11.8613041 C5.50967235,11.8424826 4.58567652,11.1003809 4.26717795,10.0822317 C4.42030226,10.1127045 4.57692656,10.1288371 4.73705083,10.1288371 C4.9662998,10.1288371 5.1876738,10.0965718 5.39679786,10.038315 C4.25142802,9.80170289 3.38868192,8.76742102 3.38868192,7.524311 L3.38868192,7.49204571 C3.72643039,7.68384495 4.11230365,7.79856599 4.5226768,7.81290612 C3.85067983,7.35222944 3.40968182,6.56800359 3.40968182,5.67891553 C3.40968182,5.20927627 3.53305627,4.76921353 3.74918029,4.39009635 C4.98204973,5.94151916 6.8265414,6.9614609 8.90640702,7.06811562 C8.86265721,6.88169393 8.84165731,6.68451714 8.84165731,6.48375532 C8.84165731,5.06946 9.96165225,3.92224961 11.343271,3.92224961 C12.0633928,3.92224961 12.7135148,4.23235492 13.1702628,4.72977818 C13.7390102,4.61595339 14.2753828,4.40264396 14.7583806,4.1086713 C14.5711314,4.70737172 14.1747582,5.20927627 13.6585106,5.52655165 C14.1642583,5.46470984 14.6455061,5.32668609 15.0952541,5.12233923 C14.7610056,5.63948017 14.3375075,6.09029801 13.8475097,6.45238629 M15.6228767,4.37306744 C15.7270012,4.01277168 15.6088768,3.62379565 15.3210031,3.38897603 C15.1573788,3.25632982 14.9596297,3.18731795 14.7592556,3.18731795 C14.6008813,3.18731795 14.442507,3.23033834 14.3007577,3.31727538 C14.0181339,3.48666816 13.7223853,3.62379565 13.4143867,3.71969527 C12.8255143,3.25812234 12.0948926,3 11.344146,3 C9.62302878,3 8.19678522,4.31570692 7.97191123,6.01680484 C6.59991743,5.71566211 5.34954807,4.94129509 4.44917713,3.81021734 C4.27680291,3.59332288 4.01955407,3.46963926 3.75093028,3.46963926 C3.72818039,3.46963926 3.7036805,3.47143177 3.6800556,3.47322429 C3.38518193,3.49563074 3.12180812,3.66681604 2.9721838,3.92852341 C2.67031016,4.45821197 2.51106088,5.06408246 2.51106088,5.68070804 C2.51106088,6.09746807 2.58281056,6.503473 2.71668495,6.88169393 C2.5723106,7.0492942 2.49006097,7.2652924 2.49006097,7.49473448 C2.49006097,8.40981403 2.82605946,9.24960789 3.38780692,9.88057361 C3.35368208,10.038315 3.35893205,10.205019 3.40880683,10.364553 C3.60305595,10.9883486 3.95830435,11.5234147 4.41855227,11.9330047 C4.12017862,12.0020166 3.81043001,12.0378669 3.49718143,12.0378669 C3.33443216,12.0378669 3.1708079,12.0280081 3.00455865,12.0082904 C2.96955881,12.0029128 2.93455897,12.0011203 2.89955913,12.0011203 C2.52331082,12.0011203 2.18118737,12.24311 2.05343794,12.6141609 C1.91081359,13.0183733 2.06131291,13.4700874 2.41393632,13.7022182 C3.70718048,14.5500784 5.20254873,15 6.73641681,15 C11.7125194,15 14.7023809,10.8978266 14.7557556,6.89424154 C15.1608788,6.54111584 15.5161272,6.13421465 15.8180008,5.68070804 C15.9326253,5.52655165 16,5.33475241 16,5.12502801 C16,4.81581896 15.8512507,4.54156397 15.6228767,4.37306744" id="Fill-1"></path>
        </g>
    </g>
</svg>