<?xml version="1.0" encoding="UTF-8" standalone="no"?>
<svg width="18px" height="18px" viewBox="0 0 18 18" version="1.1" xmlns="http://www.w3.org/2000/svg" xmlns:xlink="http://www.w3.org/1999/xlink">
    <!-- Generator: sketchtool 43.2 (39069) - http://www.bohemiancoding.com/sketch -->
    <title>external-messenger-outlined--small</title>
    <desc>Created with sketchtool.</desc>
    <defs></defs>
    <g id="Android" stroke="none" stroke-width="1" fill="none" fill-rule="evenodd">
        <g id="external-messenger-outlined--small" fill="#000000">
            <path d="M10.1665455,8.53551515 L13.8552727,6.49527273 L9.74666667,10.8550303 L7.83345455,8.81478788 L4.09818182,10.8550303 L8.20678788,6.49527273 L10.1665455,8.53551515 Z M9,14.9161212 C8.31539394,14.9161212 7.63272727,14.824 6.97236364,14.6426667 C6.85115152,14.609697 6.72121212,14.6242424 6.61066667,14.6853333 L4.77018182,15.6957576 L4.77018182,13.8610909 C4.77018182,13.7078788 4.69745455,13.5643636 4.57527273,13.4732121 C2.9190303,12.2358788 1.96969697,10.4031515 1.96969697,8.44242424 C1.96969697,4.8729697 5.12315152,1.96969697 9,1.96969697 C12.8768485,1.96969697 16.030303,4.8729697 16.030303,8.44242424 C16.030303,12.0118788 12.8768485,14.9161212 9,14.9161212 L9,14.9161212 Z M9,1 C4.58884848,1 1,4.33866667 1,8.44242424 C1,10.6339394 2.01721212,12.6819394 3.80048485,14.0996364 L3.80048485,16.5151515 C3.80048485,16.6858182 3.89066667,16.8438788 4.03806061,16.9321212 C4.11466667,16.9767273 4.2,17 4.28533333,17 C4.36581818,17 4.44630303,16.9796364 4.5190303,16.9398788 L6.90836364,15.6278788 C7.592,15.7995152 8.2950303,15.8858182 9,15.8858182 C13.4111515,15.8858182 17,12.5471515 17,8.44242424 C17,4.33866667 13.4111515,1 9,1 L9,1 Z" id="Fill-1"></path>
        </g>
    </g>
</svg>