<?xml version="1.0" encoding="UTF-8" standalone="no"?>
<svg width="18px" height="18px" viewBox="0 0 18 18" version="1.1" xmlns="http://www.w3.org/2000/svg" xmlns:xlink="http://www.w3.org/1999/xlink">
    <!-- Generator: sketchtool 43.2 (39069) - http://www.bohemiancoding.com/sketch -->
    <title>filter--small</title>
    <desc>Created with sketchtool.</desc>
    <defs></defs>
    <g id="Android" stroke="none" stroke-width="1" fill="none" fill-rule="evenodd">
        <g id="filter--small" fill="#000000">
            <path d="M2,5.5 C2,5.22385763 2.21990657,5 2.49826741,5 L15.5017326,5 C15.7769181,5 16,5.23193359 16,5.5 C16,5.77614237 15.7800934,6 15.5017326,6 L2.49826741,6 C2.22308192,6 2,5.76806641 2,5.5 Z M4,9 C4,8.72385763 4.22765279,8.5 4.50964952,8.5 L13.4903505,8.5 C13.7718221,8.5 14,8.73193359 14,9 C14,9.27614237 13.7723472,9.5 13.4903505,9.5 L4.50964952,9.5 C4.22817786,9.5 4,9.26806641 4,9 Z M7,12.5 C7,12.2238576 7.21505737,12 7.49047852,12 L10.5095215,12 C10.7804053,12 11,12.2319336 11,12.5 C11,12.7761424 10.7849426,13 10.5095215,13 L7.49047852,13 C7.21959471,13 7,12.7680664 7,12.5 Z" id="Combined-Shape"></path>
        </g>
    </g>
</svg>