<?xml version="1.0" encoding="UTF-8"?>
<svg width="18px" height="18px" viewBox="0 0 18 18" version="1.1" xmlns="http://www.w3.org/2000/svg" xmlns:xlink="http://www.w3.org/1999/xlink">
    <!-- Generator: sketchtool 46.2 (44496) - http://www.bohemiancoding.com/sketch -->
    <title>filter--small</title>
    <desc>Created with sketchtool.</desc>
    <defs></defs>
    <g id="Android" stroke="none" stroke-width="1" fill="none" fill-rule="evenodd">
        <g id="filter--small" fill="#000000">
            <path d="M2.5,5 L15.5,5 C15.7761424,5 16,5.22385763 16,5.5 L16,5.5 C16,5.77614237 15.7761424,6 15.5,6 L2.5,6 C2.22385763,6 2,5.77614237 2,5.5 L2,5.5 L2,5.5 C2,5.22385763 2.22385763,5 2.5,5 L2.5,5 Z M4.5,8.5 L13.5,8.5 C13.7761424,8.5 14,8.72385763 14,9 C14,9.27614237 13.7761424,9.5 13.5,9.5 L4.5,9.5 C4.22385763,9.5 4,9.27614237 4,9 C4,8.72385763 4.22385763,8.5 4.5,8.5 Z M7.5,12 L10.5,12 C10.7761424,12 11,12.2238576 11,12.5 C11,12.7761424 10.7761424,13 10.5,13 L7.5,13 C7.22385763,13 7,12.7761424 7,12.5 C7,12.2238576 7.22385763,12 7.5,12 Z" id="Combined-Shape"></path>
        </g>
    </g>
</svg>