<?xml version="1.0" encoding="UTF-8"?>
<svg width="16px" height="16px" viewBox="0 0 16 16" version="1.1" xmlns="http://www.w3.org/2000/svg" xmlns:xlink="http://www.w3.org/1999/xlink">
    <!-- Generator: sketchtool 52.3 (67297) - http://www.bohemiancoding.com/sketch -->
    <title>filter--small</title>
    <desc>Created with sketchtool.</desc>
    <g id="Android" stroke="none" stroke-width="1" fill="none" fill-rule="evenodd">
        <g id="filter--small" fill="#000000">
            <path d="M2.42857143,5 L13.5714286,5 C13.808122,5 14,5.19187796 14,5.42857143 C14,5.66526489 13.808122,5.85714286 13.5714286,5.85714286 L2.42857143,5.85714286 C2.19187796,5.85714286 2,5.66526489 2,5.42857143 C2,5.19187796 2.19187796,5 2.42857143,5 Z M4.14285714,8 L11.8571429,8 C12.0938363,8 12.2857143,8.19187796 12.2857143,8.42857143 C12.2857143,8.66526489 12.0938363,8.85714286 11.8571429,8.85714286 L4.14285714,8.85714286 C3.90616368,8.85714286 3.71428571,8.66526489 3.71428571,8.42857143 C3.71428571,8.19187796 3.90616368,8 4.14285714,8 Z M6.71428571,11 L9.28571429,11 C9.52240775,11 9.71428571,11.191878 9.71428571,11.4285714 C9.71428571,11.6652649 9.52240775,11.8571429 9.28571429,11.8571429 L6.71428571,11.8571429 C6.47759225,11.8571429 6.28571429,11.6652649 6.28571429,11.4285714 C6.28571429,11.191878 6.47759225,11 6.71428571,11 Z" id="Combined-Shape"></path>
        </g>
    </g>
</svg>