<?xml version="1.0" encoding="UTF-8"?>
<svg width="20px" height="20px" viewBox="0 0 20 20" version="1.1" xmlns="http://www.w3.org/2000/svg" xmlns:xlink="http://www.w3.org/1999/xlink">
    <!-- Generator: sketchtool 46.2 (44496) - http://www.bohemiancoding.com/sketch -->
    <title>filter--small</title>
    <desc>Created with sketchtool.</desc>
    <defs></defs>
    <g id="Android" stroke="none" stroke-width="1" fill="none" fill-rule="evenodd">
        <g id="filter--small" fill="#000000">
            <path d="M12.667,2 L12.667,7.333 L14.445,7.333 L14.445,5.556 L18,5.556 L18,3.777 L14.445,3.777 L14.445,2 L12.667,2 Z M2,5.556 L10.888,5.556 L10.888,3.778 L2,3.778 L2,5.556 Z M5.556,7.333 L5.556,9.112 L2,9.112 L2,10.889 L5.556,10.889 L5.556,12.667 L7.334,12.667 L7.334,7.333 L5.556,7.333 Z M9.111,10.889 L18,10.889 L18,9.112 L9.111,9.112 L9.111,10.889 Z M9.111,12.667 L9.111,18 L10.889,18 L10.889,16.223 L18,16.223 L18,14.444 L10.889,14.444 L10.889,12.667 L9.111,12.667 Z M2,16.223 L7.333,16.223 L7.333,14.445 L2,14.445 L2,16.223 Z" id="Page-1"></path>
        </g>
    </g>
</svg>