<?xml version="1.0" encoding="UTF-8"?>
<svg width="28px" height="28px" viewBox="0 0 28 28" version="1.1" xmlns="http://www.w3.org/2000/svg" xmlns:xlink="http://www.w3.org/1999/xlink">
    <!-- Generator: sketchtool 46.2 (44496) - http://www.bohemiancoding.com/sketch -->
    <title>filter</title>
    <desc>Created with sketchtool.</desc>
    <defs></defs>
    <g id="Android" stroke="none" stroke-width="1" fill="none" fill-rule="evenodd">
        <g id="filter" fill-rule="nonzero" fill="#000000">
            <path d="M3.5,19.8333333 L3.5,22.1666667 L10.5,22.1666667 L10.5,19.8333333 L3.5,19.8333333 Z M3.5,5.83333333 L3.5,8.16666667 L15.1666667,8.16666667 L15.1666667,5.83333333 L3.5,5.83333333 Z M15.1666667,24.5 L15.1666667,22.1666667 L24.5,22.1666667 L24.5,19.8333333 L15.1666667,19.8333333 L15.1666667,17.5 L12.8333333,17.5 L12.8333333,24.5 L15.1666667,24.5 Z M8.16666667,10.5 L8.16666667,12.8333333 L3.5,12.8333333 L3.5,15.1666667 L8.16666667,15.1666667 L8.16666667,17.5 L10.5,17.5 L10.5,10.5 L8.16666667,10.5 Z M24.5,15.1666667 L24.5,12.8333333 L12.8333333,12.8333333 L12.8333333,15.1666667 L24.5,15.1666667 Z M17.5,10.5 L19.8333333,10.5 L19.8333333,8.16666667 L24.5,8.16666667 L24.5,5.83333333 L19.8333333,5.83333333 L19.8333333,3.5 L17.5,3.5 L17.5,10.5 Z" id="Shape"></path>
        </g>
    </g>
</svg>