<?xml version="1.0" encoding="UTF-8"?>
<svg width="18px" height="18px" viewBox="0 0 18 18" version="1.1" xmlns="http://www.w3.org/2000/svg" xmlns:xlink="http://www.w3.org/1999/xlink">
    <!-- Generator: sketchtool 46.2 (44496) - http://www.bohemiancoding.com/sketch -->
    <title>filter--small</title>
    <desc>Created with sketchtool.</desc>
    <defs></defs>
    <g id="Android" stroke="none" stroke-width="1" fill="none" fill-rule="evenodd">
        <g id="filter--small" fill="#000000">
            <path d="M11.333625,2 L11.333625,6.666375 L12.889375,6.666375 L12.889375,5.1115 L16,5.1115 L16,3.554875 L12.889375,3.554875 L12.889375,2 L11.333625,2 Z M2,5.1115 L9.777,5.1115 L9.777,3.55575 L2,3.55575 L2,5.1115 Z M5.1115,6.666375 L5.1115,8.223 L2,8.223 L2,9.777875 L5.1115,9.777875 L5.1115,11.333625 L6.66725,11.333625 L6.66725,6.666375 L5.1115,6.666375 Z M8.222125,9.777875 L16,9.777875 L16,8.223 L8.222125,8.223 L8.222125,9.777875 Z M8.222125,11.333625 L8.222125,16 L9.777875,16 L9.777875,14.445125 L16,14.445125 L16,12.8885 L9.777875,12.8885 L9.777875,11.333625 L8.222125,11.333625 Z M2,14.445125 L6.666375,14.445125 L6.666375,12.889375 L2,12.889375 L2,14.445125 Z" id="Page-1"></path>
        </g>
    </g>
</svg>