<?xml version="1.0" encoding="UTF-8" standalone="no"?>
<svg width="18px" height="18px" viewBox="0 0 18 18" version="1.1" xmlns="http://www.w3.org/2000/svg" xmlns:xlink="http://www.w3.org/1999/xlink">
    <!-- Generator: sketchtool 43.2 (39069) - http://www.bohemiancoding.com/sketch -->
    <title>folder--small</title>
    <desc>Created with sketchtool.</desc>
    <defs></defs>
    <g id="Android" stroke="none" stroke-width="1" fill="none" fill-rule="evenodd">
        <g id="folder--small" fill="#000000">
            <path d="M17.1,4.64705882 L17.1,4.98852941 L17.1,6.41176471 L17.1,7.29411765 L17.1,8.17647059 L17.1,13.4705882 C17.1,14.93 15.8886,16.1176471 14.4,16.1176471 L3.6,16.1176471 C2.1114,16.1176471 0.9,14.93 0.9,13.4705882 L0.9,7.29411765 C0.9,5.83470588 2.1114,4.64705882 3.6,4.64705882 L11.25,4.64705882 C11.4984,4.64705882 11.7,4.44941176 11.7,4.20588235 L11.7,3.76470588 C11.7,3.27764706 12.1041,2.88235294 12.6,2.88235294 L16.2,2.88235294 C16.6959,2.88235294 17.1,3.27764706 17.1,3.76470588 L17.1,4.64705882 Z M16.2,2 L12.6,2 C11.6064,2 10.8,2.78970588 10.8,3.76470588 L3.6,3.76470588 C1.62,3.76470588 0,5.35294118 0,7.29411765 L0,13.4705882 C0,15.4117647 1.62,17 3.6,17 L14.4,17 C16.38,17 18,15.4117647 18,13.4705882 L18,7.29411765 L18,4.64705882 L18,3.76470588 C18,2.78970588 17.1936,2 16.2,2 L16.2,2 Z" id="Page-1"></path>
        </g>
    </g>
</svg>