<?xml version="1.0" encoding="UTF-8"?>
<svg width="28px" height="28px" viewBox="0 0 28 28" version="1.1" xmlns="http://www.w3.org/2000/svg" xmlns:xlink="http://www.w3.org/1999/xlink">
    <!-- Generator: sketchtool 43.2 (39069) - http://www.bohemiancoding.com/sketch -->
    <title>folder</title>
    <desc>Created with sketchtool.</desc>
    <defs></defs>
    <g id="Android" stroke="none" stroke-width="1" fill="none" fill-rule="evenodd">
        <g id="folder" fill="#000000">
            <path d="M26,22 C26,23.103 25.103,24 24,24 L4,24 C2.897,24 2,23.103 2,22 L2,8 C2,6.897 2.897,6 4,6 L17,6 C17.552,6 18,5.553 18,5 L18,4 L26,4 L26,22 Z M26,2 L18,2 C16.896,2 16,2.896 16,4 L4,4 C1.8,4 0,5.8 0,8 L0,22 C0,24.2 1.8,26 4,26 L24,26 C26.2,26 28,24.2 28,22 L28,4 C28,2.896 27.104,2 26,2 L26,2 Z" id="Page-1"></path>
        </g>
    </g>
</svg>