<?xml version="1.0" encoding="UTF-8"?>
<svg width="24px" height="24px" viewBox="0 0 24 24" version="1.1" xmlns="http://www.w3.org/2000/svg" xmlns:xlink="http://www.w3.org/1999/xlink">
    <!-- Generator: sketchtool 52.3 (67297) - http://www.bohemiancoding.com/sketch -->
    <title>folder</title>
    <desc>Created with sketchtool.</desc>
    <g id="Android" stroke="none" stroke-width="1" fill="none" fill-rule="evenodd">
        <g id="folder" fill="#000000">
            <path d="M22.2857143,18.6666667 C22.2857143,19.5858333 21.5168571,20.3333333 20.5714286,20.3333333 L3.42857143,20.3333333 C2.48314286,20.3333333 1.71428571,19.5858333 1.71428571,18.6666667 L1.71428571,7 C1.71428571,6.08083333 2.48314286,5.33333333 3.42857143,5.33333333 L14.5714286,5.33333333 C15.0445714,5.33333333 15.4285714,4.96083333 15.4285714,4.5 L15.4285714,3.66666667 L22.2857143,3.66666667 L22.2857143,18.6666667 Z M22.2857143,2 L15.4285714,2 C14.4822857,2 13.7142857,2.74666667 13.7142857,3.66666667 L3.42857143,3.66666667 C1.54285714,3.66666667 0,5.16666667 0,7 L0,18.6666667 C0,20.5 1.54285714,22 3.42857143,22 L20.5714286,22 C22.4571429,22 24,20.5 24,18.6666667 L24,3.66666667 C24,2.74666667 23.232,2 22.2857143,2 L22.2857143,2 Z" id="Page-1"></path>
        </g>
    </g>
</svg>