<?xml version="1.0" encoding="UTF-8"?>
<svg width="18px" height="18px" viewBox="0 0 18 18" version="1.1" xmlns="http://www.w3.org/2000/svg" xmlns:xlink="http://www.w3.org/1999/xlink">
    <!-- Generator: sketchtool 46.2 (44496) - http://www.bohemiancoding.com/sketch -->
    <title>globe--small</title>
    <desc>Created with sketchtool.</desc>
    <defs></defs>
    <g id="Android" stroke="none" stroke-width="1" fill="none" fill-rule="evenodd">
        <g id="globe--small" fill="#000000">
            <path d="M10.1822222,16.0011109 C10.952,14.8289269 11.824,13.3901355 12.2657778,11.6642968 L15.5875556,11.6642968 C14.6728889,13.9135748 12.6408889,15.5869807 10.1822222,16.0011109 L10.1822222,16.0011109 Z M2.41244444,11.6642968 L5.54577778,11.6642968 C6.03022222,13.3785825 6.97066667,14.8715841 7.74933333,15.9904466 C5.32177778,15.5576539 3.31822222,13.8931349 2.41244444,11.6642968 L2.41244444,11.6642968 Z M2.12266667,7.22083981 L5.528,7.22083981 C5.33244444,8.00555432 5.22222222,8.75027772 5.22222222,9.44256832 C5.22222222,9.89846701 5.27555556,10.3410353 5.35111111,10.7756054 L2.12266667,10.7756054 C1.976,10.2059542 1.88888889,9.61319707 1.88888889,8.99822262 C1.88888889,8.38413686 1.976,7.790491 2.12266667,7.22083981 L2.12266667,7.22083981 Z M7.85422222,1.98911353 C6.90933333,3.54876694 6.21866667,4.99822262 5.78311111,6.33214841 L2.41244444,6.33214841 C3.33066667,4.07131749 5.37955556,2.39257943 7.85422222,1.98911353 L7.85422222,1.98911353 Z M15.5875556,6.33214841 L12.0808889,6.33214841 C11.6106667,4.64185737 10.8755556,3.10175517 10.2151111,2.00066652 C12.6586667,2.42368363 14.6773333,4.09353477 15.5875556,6.33214841 L15.5875556,6.33214841 Z M9,1.8886914 C9.03644444,1.8886914 9.072,1.89402355 9.10844444,1.89402355 C9.792,2.91157521 10.6382222,4.55209953 11.1653333,6.33214841 L6.71733333,6.33214841 C7.18755556,4.98489225 7.936,3.5007776 8.95911111,1.89046878 C8.97244444,1.89046878 8.98577778,1.8886914 9,1.8886914 L9,1.8886914 Z M6.25866667,10.7756054 C6.17333333,10.3401466 6.11111111,9.89757832 6.11111111,9.44256832 C6.11111111,8.75827594 6.23022222,8.01266385 6.44266667,7.22083981 L11.3946667,7.22083981 C11.5626667,7.96289713 11.6666667,8.71473006 11.6666667,9.44256832 C11.6666667,9.90735392 11.6142222,10.3472562 11.5413333,10.7756054 L6.25866667,10.7756054 Z M9.05155556,16.1050878 C9.03377778,16.1050878 9.01688889,16.1077538 9,16.1077538 C8.97244444,16.1077538 8.94488889,16.1041991 8.91733333,16.1033104 C8.91555556,16.1006443 8.91377778,16.0988669 8.912,16.0962008 C8.16,15.0422128 7.05244444,13.4727838 6.48266667,11.6642968 L11.3431111,11.6642968 C10.8684444,13.3430349 9.95022222,14.7471673 9.16,15.9389025 C9.12088889,15.9966674 9.08888889,16.0482115 9.05155556,16.1050878 L9.05155556,16.1050878 Z M15.8773333,10.7756054 L12.4417778,10.7756054 C12.5084444,10.3454788 12.5555556,9.90557654 12.5555556,9.44256832 C12.5555556,8.70228838 12.4524444,7.95489891 12.2986667,7.22083981 L15.8773333,7.22083981 C16.024,7.790491 16.1111111,8.38413686 16.1111111,8.99822262 C16.1111111,9.61319707 16.024,10.2059542 15.8773333,10.7756054 L15.8773333,10.7756054 Z M17,8.99822262 C17,4.77782715 13.728,1.32881582 9.58311111,1.02932682 C9.57688889,1.02132859 9,1 9,1 C9,1 8.46133333,1.01866252 8.456,1.02754943 C4.29244444,1.30837592 1,4.76449678 1,8.99822262 C1,13.4159076 4.58133333,16.9964452 9,16.9964452 C9.10933333,16.9964452 9.38666667,17.0044435 9.392,16.9964452 C13.6266667,16.7911575 17,13.2834926 17,8.99822262 L17,8.99822262 Z" id="Fill-1"></path>
        </g>
    </g>
</svg>