<?xml version="1.0" encoding="UTF-8"?>
<svg width="18px" height="18px" viewBox="0 0 18 18" version="1.1" xmlns="http://www.w3.org/2000/svg" xmlns:xlink="http://www.w3.org/1999/xlink">
    <!-- Generator: sketchtool 46.2 (44496) - http://www.bohemiancoding.com/sketch -->
    <title>grid--small</title>
    <desc>Created with sketchtool.</desc>
    <defs>
        <polygon id="path-1" points="0 0 6.9999 0 6.9999 7 0 7"></polygon>
        <polygon id="path-3" points="0 0 6.9999 0 6.9999 7 0 7"></polygon>
    </defs>
    <g id="Android" stroke="none" stroke-width="1" fill="none" fill-rule="evenodd">
        <g id="grid--small">
            <g id="Page-1" transform="translate(1.000000, 1.000000)">
                <g id="Group-3">
                    <mask id="mask-2" fill="white">
                        <use xlink:href="#path-1"></use>
                    </mask>
                    <g id="Clip-2"></g>
                    <path d="M5.9229,0 L1.0769,0 C0.4829,0 -0.0001,0.482 -0.0001,1.077 L-0.0001,5.923 C-0.0001,6.518 0.4829,7 1.0769,7 L5.9229,7 C6.5179,7 6.9999,6.518 6.9999,5.923 L6.9999,1.077 C6.9999,0.482 6.5179,0 5.9229,0" id="Fill-1" fill="#000000" mask="url(#mask-2)"></path>
                </g>
                <path d="M14.9229,0 L10.0769,0 C9.4829,0 8.9999,0.482 8.9999,1.077 L8.9999,5.923 C8.9999,6.518 9.4829,7 10.0769,7 L14.9229,7 C15.5179,7 15.9999,6.518 15.9999,5.923 L15.9999,1.077 C15.9999,0.482 15.5179,0 14.9229,0" id="Fill-4" fill="#000000"></path>
                <g id="Group-8" transform="translate(0.000000, 9.000000)">
                    <mask id="mask-4" fill="white">
                        <use xlink:href="#path-3"></use>
                    </mask>
                    <g id="Clip-7"></g>
                    <path d="M5.9229,0 L1.0769,0 C0.4829,0 -0.0001,0.482 -0.0001,1.077 L-0.0001,5.923 C-0.0001,6.518 0.4829,7 1.0769,7 L5.9229,7 C6.5179,7 6.9999,6.518 6.9999,5.923 L6.9999,1.077 C6.9999,0.482 6.5179,0 5.9229,0" id="Fill-6" fill="#000000" mask="url(#mask-4)"></path>
                </g>
                <path d="M14.9229,9 L10.0769,9 C9.4829,9 8.9999,9.482 8.9999,10.077 L8.9999,14.923 C8.9999,15.518 9.4829,16 10.0769,16 L14.9229,16 C15.5179,16 15.9999,15.518 15.9999,14.923 L15.9999,10.077 C15.9999,9.482 15.5179,9 14.9229,9" id="Fill-9" fill="#000000"></path>
            </g>
        </g>
    </g>
</svg>