<?xml version="1.0" encoding="UTF-8"?>
<svg width="24px" height="24px" viewBox="0 0 24 24" version="1.1" xmlns="http://www.w3.org/2000/svg" xmlns:xlink="http://www.w3.org/1999/xlink">
    <!-- Generator: (null) (null) ((null)) - http://www.bohemiancoding.com/sketch -->
    <title>grid</title>
    <desc>Created with (null).</desc>
    <defs>
        <polygon id="path-1" points="1.77635684e-15 0 8 0 8 8 1.77635684e-15 8"></polygon>
        <polygon id="path-3" points="1.77635684e-15 0 8 0 8 8 1.77635684e-15 8"></polygon>
    </defs>
    <g id="Android" stroke="none" stroke-width="1" fill="none" fill-rule="evenodd">
        <g id="grid">
            <g id="Page-1" transform="translate(2.000000, 2.000000)">
                <path d="M6.769,0 L1.231,0 C0.551,0 0,0.551 0,1.23 L0,6.77 C0,7.449 0.551,8 1.231,8 L6.769,8 C7.449,8 8,7.449 8,6.77 L8,1.23 C8,0.551 7.449,0 6.769,0" id="Fill-1" fill="#000000"></path>
                <g id="Group-5" transform="translate(12.000000, 0.000000)">
                    <mask id="mask-2" fill="white">
                        <use xlink:href="#path-1"></use>
                    </mask>
                    <g id="Clip-4"></g>
                    <path d="M6.769,0 L1.231,0 C0.551,0 1.77635684e-15,0.551 1.77635684e-15,1.23 L1.77635684e-15,6.77 C1.77635684e-15,7.449 0.551,8 1.231,8 L6.769,8 C7.449,8 8,7.449 8,6.77 L8,1.23 C8,0.551 7.449,0 6.769,0" id="Fill-3" fill="#000000" mask="url(#mask-2)"></path>
                </g>
                <path d="M6.769,12 L1.231,12 C0.551,12 0,12.551 0,13.23 L0,18.77 C0,19.449 0.551,20 1.231,20 L6.769,20 C7.449,20 8,19.449 8,18.77 L8,13.23 C8,12.551 7.449,12 6.769,12" id="Fill-6" fill="#000000"></path>
                <g id="Group-10" transform="translate(12.000000, 12.000000)">
                    <mask id="mask-4" fill="white">
                        <use xlink:href="#path-3"></use>
                    </mask>
                    <g id="Clip-9"></g>
                    <path d="M6.769,0 L1.231,0 C0.551,0 1.77635684e-15,0.551 1.77635684e-15,1.23 L1.77635684e-15,6.77 C1.77635684e-15,7.449 0.551,8 1.231,8 L6.769,8 C7.449,8 8,7.449 8,6.77 L8,1.23 C8,0.551 7.449,0 6.769,0" id="Fill-8" fill="#000000" mask="url(#mask-4)"></path>
                </g>
            </g>
        </g>
    </g>
</svg>