<?xml version="1.0" encoding="UTF-8"?>
<svg width="18px" height="18px" viewBox="0 0 18 18" version="1.1" xmlns="http://www.w3.org/2000/svg" xmlns:xlink="http://www.w3.org/1999/xlink">
    <!-- Generator: sketchtool 46.2 (44496) - http://www.bohemiancoding.com/sketch -->
    <title>groups--small</title>
    <desc>Created with sketchtool.</desc>
    <defs></defs>
    <g id="Android" stroke="none" stroke-width="1" fill="none" fill-rule="evenodd">
        <g id="groups--small" fill="#000000">
            <path d="M13.2333333,16.0111111 C11.7017778,16.0111111 10.4555556,14.7648889 10.4555556,13.2333333 C10.4555556,11.7017778 11.7017778,10.4555556 13.2333333,10.4555556 C14.7648889,10.4555556 16.0111111,11.7017778 16.0111111,13.2333333 C16.0111111,14.7648889 14.7648889,16.0111111 13.2333333,16.0111111 M13.2333333,9.56666667 C11.2084444,9.56666667 9.56666667,11.2093333 9.56666667,13.2333333 C9.56666667,15.2573333 11.2084444,16.9 13.2333333,16.9 C15.2582222,16.9 16.9,15.2573333 16.9,13.2333333 C16.9,11.2093333 15.2582222,9.56666667 13.2333333,9.56666667 M4.56666667,16.0111111 C3.03511111,16.0111111 1.78888889,14.7648889 1.78888889,13.2333333 C1.78888889,11.7017778 3.03511111,10.4555556 4.56666667,10.4555556 C6.09822222,10.4555556 7.34444444,11.7017778 7.34444444,13.2333333 C7.34444444,14.7648889 6.09822222,16.0111111 4.56666667,16.0111111 M4.56666667,9.56666667 C2.54177778,9.56666667 0.9,11.2093333 0.9,13.2333333 C0.9,15.2573333 2.54177778,16.9 4.56666667,16.9 C6.59155556,16.9 8.23333333,15.2573333 8.23333333,13.2333333 C8.23333333,11.2093333 6.59155556,9.56666667 4.56666667,9.56666667 M13.2333333,1.78888889 C14.7648889,1.78888889 16.0111111,3.03511111 16.0111111,4.56666667 C16.0111111,6.09822222 14.7648889,7.34444444 13.2333333,7.34444444 C11.7017778,7.34444444 10.4555556,6.09822222 10.4555556,4.56666667 C10.4555556,3.03511111 11.7017778,1.78888889 13.2333333,1.78888889 M13.2333333,8.23333333 C15.2582222,8.23333333 16.9,6.59066667 16.9,4.56666667 C16.9,2.54266667 15.2582222,0.9 13.2333333,0.9 C11.2084444,0.9 9.56666667,2.54266667 9.56666667,4.56666667 C9.56666667,6.59066667 11.2084444,8.23333333 13.2333333,8.23333333 M4.56666667,7.34444444 C3.03511111,7.34444444 1.78888889,6.09822222 1.78888889,4.56666667 C1.78888889,3.03511111 3.03511111,1.78888889 4.56666667,1.78888889 C6.09822222,1.78888889 7.34444444,3.03511111 7.34444444,4.56666667 C7.34444444,6.09822222 6.09822222,7.34444444 4.56666667,7.34444444 M4.56666667,0.9 C2.54177778,0.9 0.9,2.54266667 0.9,4.56666667 C0.9,6.59066667 2.54177778,8.23333333 4.56666667,8.23333333 C6.59155556,8.23333333 8.23333333,6.59066667 8.23333333,4.56666667 C8.23333333,2.54266667 6.59155556,0.9 4.56666667,0.9" id="Page-1"></path>
        </g>
    </g>
</svg>