<?xml version="1.0" encoding="UTF-8"?>
<svg width="24px" height="24px" viewBox="0 0 24 24" version="1.1" xmlns="http://www.w3.org/2000/svg" xmlns:xlink="http://www.w3.org/1999/xlink">
    <!-- Generator: sketchtool 52.3 (67297) - http://www.bohemiancoding.com/sketch -->
    <title>groups</title>
    <desc>Created with sketchtool.</desc>
    <g id="Android" stroke="none" stroke-width="1" fill="none" fill-rule="evenodd">
        <g id="groups" fill="#000000">
            <path d="M17.4166667,20.3333333 C15.8083333,20.3333333 14.5,19.025 14.5,17.4166667 C14.5,15.8083333 15.8083333,14.5 17.4166667,14.5 C19.025,14.5 20.3333333,15.8083333 20.3333333,17.4166667 C20.3333333,19.025 19.025,20.3333333 17.4166667,20.3333333 M17.4166667,12.8333333 C14.885,12.8333333 12.8333333,14.8858333 12.8333333,17.4166667 C12.8333333,19.9475 14.885,22 17.4166667,22 C19.9483333,22 22,19.9475 22,17.4166667 C22,14.8858333 19.9483333,12.8333333 17.4166667,12.8333333 M6.58333333,20.3333333 C4.975,20.3333333 3.66666667,19.025 3.66666667,17.4166667 C3.66666667,15.8083333 4.975,14.5 6.58333333,14.5 C8.19166667,14.5 9.5,15.8083333 9.5,17.4166667 C9.5,19.025 8.19166667,20.3333333 6.58333333,20.3333333 M6.58333333,12.8333333 C4.05166667,12.8333333 2,14.8858333 2,17.4166667 C2,19.9475 4.05166667,22 6.58333333,22 C9.115,22 11.1666667,19.9475 11.1666667,17.4166667 C11.1666667,14.8858333 9.115,12.8333333 6.58333333,12.8333333 M17.4166667,3.66666667 C19.025,3.66666667 20.3333333,4.975 20.3333333,6.58333333 C20.3333333,8.19166667 19.025,9.5 17.4166667,9.5 C15.8083333,9.5 14.5,8.19166667 14.5,6.58333333 C14.5,4.975 15.8083333,3.66666667 17.4166667,3.66666667 M17.4166667,11.1666667 C19.9483333,11.1666667 22,9.11416667 22,6.58333333 C22,4.0525 19.9483333,2 17.4166667,2 C14.885,2 12.8333333,4.0525 12.8333333,6.58333333 C12.8333333,9.11416667 14.885,11.1666667 17.4166667,11.1666667 M6.58333333,9.5 C4.975,9.5 3.66666667,8.19166667 3.66666667,6.58333333 C3.66666667,4.975 4.975,3.66666667 6.58333333,3.66666667 C8.19166667,3.66666667 9.5,4.975 9.5,6.58333333 C9.5,8.19166667 8.19166667,9.5 6.58333333,9.5 M6.58333333,2 C4.05166667,2 2,4.0525 2,6.58333333 C2,9.11416667 4.05166667,11.1666667 6.58333333,11.1666667 C9.115,11.1666667 11.1666667,9.11416667 11.1666667,6.58333333 C11.1666667,4.0525 9.115,2 6.58333333,2" id="Page-1"></path>
        </g>
    </g>
</svg>