<?xml version="1.0" encoding="UTF-8"?>
<svg width="16px" height="16px" viewBox="0 0 16 16" version="1.1" xmlns="http://www.w3.org/2000/svg" xmlns:xlink="http://www.w3.org/1999/xlink">
    <!-- Generator: sketchtool 46.2 (44496) - http://www.bohemiancoding.com/sketch -->
    <title>groups--small</title>
    <desc>Created with sketchtool.</desc>
    <defs></defs>
    <g id="Android" stroke="none" stroke-width="1" fill="none" fill-rule="evenodd">
        <g id="groups--small" fill="#000000">
            <path d="M11.6916667,14.1222222 C10.3515556,14.1222222 9.26111111,13.0317778 9.26111111,11.6916667 C9.26111111,10.3515556 10.3515556,9.26111111 11.6916667,9.26111111 C13.0317778,9.26111111 14.1222222,10.3515556 14.1222222,11.6916667 C14.1222222,13.0317778 13.0317778,14.1222222 11.6916667,14.1222222 M11.6916667,8.48333333 C9.91988889,8.48333333 8.48333333,9.92066667 8.48333333,11.6916667 C8.48333333,13.4626667 9.91988889,14.9 11.6916667,14.9 C13.4634444,14.9 14.9,13.4626667 14.9,11.6916667 C14.9,9.92066667 13.4634444,8.48333333 11.6916667,8.48333333 M4.10833333,14.1222222 C2.76822222,14.1222222 1.67777778,13.0317778 1.67777778,11.6916667 C1.67777778,10.3515556 2.76822222,9.26111111 4.10833333,9.26111111 C5.44844444,9.26111111 6.53888889,10.3515556 6.53888889,11.6916667 C6.53888889,13.0317778 5.44844444,14.1222222 4.10833333,14.1222222 M4.10833333,8.48333333 C2.33655556,8.48333333 0.9,9.92066667 0.9,11.6916667 C0.9,13.4626667 2.33655556,14.9 4.10833333,14.9 C5.88011111,14.9 7.31666667,13.4626667 7.31666667,11.6916667 C7.31666667,9.92066667 5.88011111,8.48333333 4.10833333,8.48333333 M11.6916667,1.67777778 C13.0317778,1.67777778 14.1222222,2.76822222 14.1222222,4.10833333 C14.1222222,5.44844444 13.0317778,6.53888889 11.6916667,6.53888889 C10.3515556,6.53888889 9.26111111,5.44844444 9.26111111,4.10833333 C9.26111111,2.76822222 10.3515556,1.67777778 11.6916667,1.67777778 M11.6916667,7.31666667 C13.4634444,7.31666667 14.9,5.87933333 14.9,4.10833333 C14.9,2.33733333 13.4634444,0.9 11.6916667,0.9 C9.91988889,0.9 8.48333333,2.33733333 8.48333333,4.10833333 C8.48333333,5.87933333 9.91988889,7.31666667 11.6916667,7.31666667 M4.10833333,6.53888889 C2.76822222,6.53888889 1.67777778,5.44844444 1.67777778,4.10833333 C1.67777778,2.76822222 2.76822222,1.67777778 4.10833333,1.67777778 C5.44844444,1.67777778 6.53888889,2.76822222 6.53888889,4.10833333 C6.53888889,5.44844444 5.44844444,6.53888889 4.10833333,6.53888889 M4.10833333,0.9 C2.33655556,0.9 0.9,2.33733333 0.9,4.10833333 C0.9,5.87933333 2.33655556,7.31666667 4.10833333,7.31666667 C5.88011111,7.31666667 7.31666667,5.87933333 7.31666667,4.10833333 C7.31666667,2.33733333 5.88011111,0.9 4.10833333,0.9" id="Page-1"></path>
        </g>
    </g>
</svg>