<?xml version="1.0" encoding="UTF-8" standalone="no"?>
<svg width="24px" height="24px" viewBox="0 0 24 24" version="1.1" xmlns="http://www.w3.org/2000/svg" xmlns:xlink="http://www.w3.org/1999/xlink">
    <!-- Generator: sketchtool 43.2 (39069) - http://www.bohemiancoding.com/sketch -->
    <title>heart</title>
    <desc>Created with sketchtool.</desc>
    <defs></defs>
    <g id="Android" stroke="none" stroke-width="1" fill="none" fill-rule="evenodd">
        <g id="heart" fill="#000000">
            <path d="M17.2649261,2.5 C15.6648605,2.5 14.0521026,3.18227273 12.8548033,4.457 L12.000194,5.36727273 L11.1455846,4.457 C9.94828532,3.18227273 8.33552744,2.5 6.73546177,2.5 C5.45439386,2.5 4.18094129,2.937 3.13510249,3.85677273 C0.437583011,6.22918182 0.296276313,10.4912273 2.71033625,13.0622727 L9.66651807,20.4705455 C10.3112828,21.1571364 11.1557384,21.5 12.000194,21.5 C12.8446496,21.5 13.6891052,21.1571364 14.3338698,20.4705455 L21.2900517,13.0622727 C23.7041116,10.4912273 23.5619588,6.22918182 20.8644393,3.85677273 C19.8194466,2.937 18.5459941,2.5 17.2649261,2.5" id="Fill-1"></path>
        </g>
    </g>
</svg>