<?xml version="1.0" encoding="UTF-8"?>
<svg width="16px" height="16px" viewBox="0 0 16 16" version="1.1" xmlns="http://www.w3.org/2000/svg" xmlns:xlink="http://www.w3.org/1999/xlink">
    <!-- Generator: sketchtool 46.2 (44496) - http://www.bohemiancoding.com/sketch -->
    <title>heart--small</title>
    <desc>Created with sketchtool.</desc>
    <defs></defs>
    <g id="Android" stroke="none" stroke-width="1" fill="none" fill-rule="evenodd">
        <g id="heart--small" fill="#000000">
            <path d="M11.3502081,2 C10.3317057,2 9.30620317,2.43946875 8.54390132,3.26175 L8,3.84898437 L7.45609868,3.26175 C6.69379683,2.43946875 5.66759433,2 4.64979186,2 C3.83428988,2 3.02368791,2.28175 2.3586863,2.87510938 C0.642282127,4.40482812 0.551981908,7.15189062 2.08848564,8.81023437 L6.51459639,13.5862031 C6.92479739,14.0287344 7.46239869,14.25 8,14.25 C8.5369013,14.25 9.07520261,14.0287344 9.48470361,13.5862031 L13.9115144,8.81023437 C15.4480181,7.15189062 15.3577179,4.40482812 13.6413137,2.87510938 C12.9756121,2.28175 12.1657101,2 11.3502081,2" id="Fill-1"></path>
        </g>
    </g>
</svg>