<?xml version="1.0" encoding="UTF-8" standalone="no"?>
<svg width="24px" height="24px" viewBox="0 0 24 24" version="1.1" xmlns="http://www.w3.org/2000/svg" xmlns:xlink="http://www.w3.org/1999/xlink">
    <!-- Generator: sketchtool 43.2 (39069) - http://www.bohemiancoding.com/sketch -->
    <title>heart-outline</title>
    <desc>Created with sketchtool.</desc>
    <defs></defs>
    <g id="Android" stroke="none" stroke-width="1" fill="none" fill-rule="evenodd">
        <g id="heart-outline" fill="#000000">
            <path d="M17.2649261,2.5 C15.6648605,2.5 14.0521026,3.18227273 12.8548033,4.457 L12.000194,5.36727273 L11.1455846,4.457 C9.94828532,3.18227273 8.33552744,2.5 6.73546177,2.5 C5.45439386,2.5 4.18094129,2.937 3.13510249,3.85677273 C0.437583011,6.22918182 0.296276313,10.4912273 2.71033625,13.0622727 L9.66651807,20.4705455 C10.3112828,21.1571364 11.1557384,21.5 12.000194,21.5 C12.8446496,21.5 13.6891052,21.1571364 14.3338698,20.4705455 L21.2900517,13.0622727 C23.7041116,10.4912273 23.5619588,6.22918182 20.8644393,3.85677273 C19.8194466,2.937 18.5459941,2.5 17.2649261,2.5 M17.2649261,4.22727273 C18.1990734,4.22727273 19.0629904,4.55113636 19.7602163,5.16518182 C20.6943636,5.98736364 21.2418212,7.14895455 21.3018977,8.43663636 C21.3619742,9.71740909 20.9126697,10.9679545 20.0682141,11.867 L13.1120323,19.2752727 C12.8108036,19.5956818 12.4156526,19.7727273 12.000194,19.7727273 C11.5847353,19.7727273 11.1895843,19.5956818 10.8883556,19.2752727 L3.93217381,11.867 C3.08771821,10.9679545 2.63756753,9.71740909 2.69764403,8.43663636 C2.75772053,7.14895455 3.30517822,5.98736364 4.24017164,5.16518182 C4.93824365,4.55113636 5.80046835,4.22727273 6.73546177,4.22727273 C7.9107612,4.22727273 9.0733684,4.74718182 9.92374703,5.65227273 L10.7783564,6.56254545 C11.0973542,6.90281818 11.5381972,7.09454545 12.000194,7.09454545 C12.4613446,7.09454545 12.9030338,6.90281818 13.2220315,6.56254545 L14.0766409,5.65227273 C14.9270195,4.74718182 16.0887806,4.22727273 17.2649261,4.22727273" id="Fill-1"></path>
        </g>
    </g>
</svg>