<?xml version="1.0" encoding="UTF-8"?>
<svg width="18px" height="18px" viewBox="0 0 18 18" version="1.1" xmlns="http://www.w3.org/2000/svg" xmlns:xlink="http://www.w3.org/1999/xlink">
    <!-- Generator: sketchtool 46.2 (44496) - http://www.bohemiancoding.com/sketch -->
    <title>heart-outline--small</title>
    <desc>Created with sketchtool.</desc>
    <defs></defs>
    <g id="Android" stroke="none" stroke-width="1" fill="none" fill-rule="evenodd">
        <g id="heart-outline--small" fill="#000000">
            <path d="M12.8288093,2 C11.6648065,2 10.4928036,2.50225 9.62160151,3.442 L9,4.113125 L8.37839849,3.442 C7.50719637,2.50225 6.33439352,2 5.1711907,2 C4.23918844,2 3.31278619,2.322 2.55278434,3.000125 C0.591179574,4.748375 0.487979323,7.887875 2.24398359,9.783125 L7.30319588,15.241375 C7.77119702,15.747125 8.38559851,16 9,16 C9.61360149,16 10.228803,15.747125 10.6968041,15.241375 L15.7560164,9.783125 C17.5120207,7.887875 17.4088204,4.748375 15.4472157,3.000125 C14.6864138,2.322 13.7608116,2 12.8288093,2 M12.8288093,2.875 C13.6216112,2.875 14.352013,3.152375 14.9416144,3.67825 C15.7048163,4.358125 16.1504174,5.313625 16.1960175,6.368 C16.2416176,7.406625 15.8760167,8.42425 15.194415,9.160125 L10.1352028,14.618375 C9.83200202,14.94475 9.42880104,15.125 9,15.125 C8.57039896,15.125 8.16719798,14.94475 7.86479724,14.618375 L2.80558495,9.160125 C2.1239833,8.42425 1.75838241,7.406625 1.80398252,6.368 C1.84958263,5.313625 2.29518371,4.358125 3.05838557,3.67825 C3.647187,3.152375 4.37838877,2.875 5.1711907,2.875 C6.15119308,2.875 7.11519542,3.309 7.81679713,4.065 L8.43839864,4.73525 C8.59359901,4.90325 8.79679951,4.988125 9,4.988125 C9.20320049,4.988125 9.40640099,4.90325 9.56160136,4.73525 L10.1832029,4.065 C10.8840046,3.309 11.8480069,2.875 12.8288093,2.875" id="Fill-1"></path>
        </g>
    </g>
</svg>