<?xml version="1.0" encoding="UTF-8"?>
<svg width="16px" height="16px" viewBox="0 0 16 16" version="1.1" xmlns="http://www.w3.org/2000/svg" xmlns:xlink="http://www.w3.org/1999/xlink">
    <!-- Generator: (null) (null) ((null)) - http://www.bohemiancoding.com/sketch -->
    <title>heart-outline--small</title>
    <desc>Created with (null).</desc>
    <defs></defs>
    <g id="Android" stroke="none" stroke-width="1" fill="none" fill-rule="evenodd">
        <g id="heart-outline--small" fill="#000000">
            <path d="M11.3502081,2 C10.3317057,2 9.30620317,2.43946875 8.54390132,3.26175 L8,3.84898437 L7.45609868,3.26175 C6.69379683,2.43946875 5.66759433,2 4.64979186,2 C3.83428988,2 3.02368791,2.28175 2.3586863,2.87510938 C0.642282127,4.40482812 0.551981908,7.15189062 2.08848564,8.81023438 L6.51529639,13.5862031 C6.92479739,14.0287344 7.46239869,14.25 8,14.25 C8.5369013,14.25 9.07520261,14.0287344 9.48470361,13.5862031 L13.9115144,8.81023438 C15.4480181,7.15189062 15.3577179,4.40482812 13.6413137,2.87510938 C12.9756121,2.28175 12.1657101,2 11.3502081,2 M11.3502081,2.765625 C12.0439098,2.765625 12.6830114,3.00832813 13.1989126,3.46846875 C13.8667143,4.06335938 14.2566152,4.89942187 14.2965153,5.822 C14.3364154,6.73079688 14.0165146,7.62121875 13.4201132,8.26510937 L8.99330241,13.0410781 C8.72800177,13.3266563 8.37520091,13.484375 8,13.484375 C7.62409909,13.484375 7.27129823,13.3266563 7.00669759,13.0410781 L2.57988683,8.26510937 C1.98348539,7.62121875 1.66358461,6.73079688 1.70348471,5.822 C1.7433848,4.89942187 2.13328575,4.06335938 2.80108737,3.46846875 C3.31628862,3.00832813 3.95609018,2.765625 4.64979186,2.765625 C5.50729394,2.765625 6.35079599,3.145375 6.96469749,3.806875 L7.50859881,4.39334375 C7.64439914,4.54034375 7.82219957,4.61460937 8,4.61460937 C8.17780043,4.61460937 8.35560086,4.54034375 8.49140119,4.39334375 L9.03530251,3.806875 C9.648504,3.145375 10.4920061,2.765625 11.3502081,2.765625" id="Fill-1"></path>
        </g>
    </g>
</svg>