<?xml version="1.0" encoding="UTF-8"?>
<svg width="18px" height="18px" viewBox="0 0 18 18" version="1.1" xmlns="http://www.w3.org/2000/svg" xmlns:xlink="http://www.w3.org/1999/xlink">
    <!-- Generator: sketchtool 46.2 (44496) - http://www.bohemiancoding.com/sketch -->
    <title>heart--small</title>
    <desc>Created with sketchtool.</desc>
    <defs></defs>
    <g id="Android" stroke="none" stroke-width="1" fill="none" fill-rule="evenodd">
        <g id="heart--small" fill="#000000">
            <path d="M12.8288093,2 C11.6648065,2 10.4928036,2.50225 9.62160151,3.442 L9,4.113125 L8.37839849,3.442 C7.50719637,2.50225 6.33439352,2 5.1711907,2 C4.23918844,2 3.31278619,2.322 2.55278434,3.000125 C0.591179574,4.748375 0.487979323,7.887875 2.24398359,9.783125 L7.30239588,15.241375 C7.77119702,15.747125 8.38559851,16 9,16 C9.61360149,16 10.228803,15.747125 10.6968041,15.241375 L15.7560164,9.783125 C17.5120207,7.887875 17.4088204,4.748375 15.4472157,3.000125 C14.6864138,2.322 13.7608116,2 12.8288093,2" id="Fill-1"></path>
        </g>
    </g>
</svg>