<?xml version="1.0" encoding="UTF-8"?>
<svg width="16px" height="16px" viewBox="0 0 16 16" version="1.1" xmlns="http://www.w3.org/2000/svg" xmlns:xlink="http://www.w3.org/1999/xlink">
    <!-- Generator: (null) (null) ((null)) - http://www.bohemiancoding.com/sketch -->
    <title>hide--small</title>
    <desc>Created with (null).</desc>
    <defs></defs>
    <g id="Android" stroke="none" stroke-width="1" fill="none" fill-rule="evenodd">
        <g id="hide--small" fill="#000000">
            <path d="M10.6119403,11.2911137 L5.24409449,4.68331622 C3.75508285,5.33120043 2.54330709,6.48403036 1.88682571,7.95148032 C2.91926196,10.2618012 5.3189564,11.8007204 8.02385709,11.8007204 C8.93618522,11.8007204 9.80902574,11.6127253 10.6119403,11.2911137 L10.6119403,11.2911137 Z M14.1131743,14.3806047 C14.236573,14.5445178 14.2118933,14.7799002 14.0514749,14.9119629 C13.8869432,15.0479099 13.644259,15.0238278 13.5085204,14.8575842 L11.1154072,11.9118085 C10.1685274,12.3336324 9.12375132,12.57756 8.02385709,12.57756 C4.92243507,12.57756 2.17886943,10.7776227 1.0592314,8.09441881 L1,7.95148032 L1.0592314,7.81087236 C1.75520038,6.14144411 3.08132566,4.81615579 4.72911035,4.05096881 L2.76295687,1.63111352 C2.6280409,1.46564669 2.65272065,1.22249591 2.81725232,1.08654898 C2.98260665,0.950602055 3.22529087,0.97856828 3.36020684,1.14403511 L14.1131743,14.3806047 Z M6.31601833,3.53048629 C6.86719944,3.4030846 7.43647902,3.32617748 8.02385709,3.32617748 C11.1236338,3.32617748 13.8211306,5.06707497 14.9407686,7.75027887 L15,7.89244052 L14.9407686,8.035379 C14.4208485,9.28065284 13.5406041,10.320841 12.4555177,11.1046722 L11.9866024,10.5267035 C12.9236103,9.87027408 13.6911505,9.00176743 14.1600658,7.95148032 C13.1276296,5.6427131 10.7279351,4.10301706 8.02385709,4.10301706 C7.62898108,4.10301706 7.24479962,4.1449664 6.86637678,4.20944408 L6.31601833,3.53048629 Z" id="Fill-1"></path>
        </g>
    </g>
</svg>