<?xml version="1.0" encoding="UTF-8" standalone="no"?>
<svg width="20px" height="20px" viewBox="0 0 20 20" version="1.1" xmlns="http://www.w3.org/2000/svg" xmlns:xlink="http://www.w3.org/1999/xlink">
    <!-- Generator: sketchtool 43.2 (39069) - http://www.bohemiancoding.com/sketch -->
    <title>hide--small</title>
    <desc>Created with sketchtool.</desc>
    <defs></defs>
    <g id="Android" stroke="none" stroke-width="1" fill="none" fill-rule="evenodd">
        <g id="hide--small" fill="#000000">
            <path d="M13.358209,14.2314319 L6.45669291,5.73569229 C4.54224938,6.56868627 2.98425197,8.05089618 2.14020449,9.93761756 C3.46762252,12.9080301 6.55294394,14.8866406 10.0306734,14.8866406 C11.2036667,14.8866406 12.3258902,14.6449325 13.358209,14.2314319 L13.358209,14.2314319 Z M17.8597955,18.2036346 C18.0184511,18.41438 17.9867199,18.7170146 17.7804677,18.8868095 C17.568927,19.0615984 17.2569045,19.0306358 17.0823834,18.8168939 L14.0055236,15.0294681 C12.7881067,15.5718131 11.4448231,15.8854343 10.0306734,15.8854343 C6.0431308,15.8854343 2.51568927,13.5712292 1.07615466,10.1213956 L1,9.93761756 L1.07615466,9.75683589 C1.97097191,7.61042814 3.67599013,5.90648602 5.79457045,4.92267418 L3.26665883,1.81143167 C3.09319544,1.59868861 3.12492655,1.28606617 3.33646727,1.11127726 C3.5490657,0.936488357 3.86108826,0.972444931 4.03455165,1.185188 L17.8597955,18.2036346 Z M7.83488071,4.25348237 C8.54354213,4.0896802 9.27547303,3.99079962 10.0306734,3.99079962 C14.0161006,3.99079962 17.4843107,6.2290964 18.9238453,9.67892998 L19,9.86170924 L18.9238453,10.0454873 C18.2553767,11.6465537 17.1236338,12.9839385 15.7285227,13.9917214 L15.1256317,13.2486188 C16.3303561,12.4046381 17.3171936,11.2879867 17.9200846,9.93761756 C16.5926666,6.96920256 13.5073452,4.98959336 10.0306734,4.98959336 C9.52297567,4.98959336 9.02902809,5.04352822 8.54248443,5.1264281 L7.83488071,4.25348237 Z" id="Fill-1"></path>
        </g>
    </g>
</svg>