<?xml version="1.0" encoding="UTF-8" standalone="no"?>
<svg width="24px" height="24px" viewBox="0 0 24 24" version="1.1" xmlns="http://www.w3.org/2000/svg" xmlns:xlink="http://www.w3.org/1999/xlink">
    <!-- Generator: sketchtool 43.2 (39069) - http://www.bohemiancoding.com/sketch -->
    <title>hide</title>
    <desc>Created with sketchtool.</desc>
    <defs></defs>
    <g id="Android" stroke="none" stroke-width="1" fill="none" fill-rule="evenodd">
        <g id="hide" fill="#000000">
            <path d="M15.0341667,17.2160009 L7.54333333,8.01312086 C5.79666667,8.96222546 4.48583333,10.4801227 3.66666667,12.3666042 C5.08833333,15.6386276 8.19916667,17.8115997 11.8225,17.8115997 C12.9458333,17.8115997 14.03,17.6021768 15.0341667,17.2160009 L15.0341667,17.2160009 Z M20.0758333,20.9923148 C20.2183333,21.325716 20.1441667,21.5686466 19.85,21.8107395 C19.495,22.1039315 18.9691667,22.0503193 18.6775,21.6926249 L16.1566667,18.595679 C14.8125,19.1703355 13.3425,19.4878206 11.8225,19.4878206 C7.39666667,19.4878206 3.71833333,16.8499297 2.12,12.7728846 L2,12.4688026 L2.12,12.1672336 C3.015,9.88536162 4.56083333,8.00474395 6.52416667,6.77920111 L3.6775,3.30194322 C3.38583333,2.9442489 3.43833333,2.455037 3.795,2.16100724 C4.15083333,1.86865286 4.67583333,1.99849507 4.9675,2.35702708 L8.04583333,6.29333998 L8.04916667,6.29333998 L20.0758333,20.9923148 Z M9.77416667,5.4615122 C10.4341667,5.32329309 11.1175,5.24622546 11.8225,5.24622546 C16.2491667,5.24622546 20.28,8.08013619 21.8791667,12.1571813 L22,12.4637764 L21.8791667,12.7703715 C21.25,14.3737133 20.2425,15.751716 18.9841667,16.835689 L17.86,15.4476339 C18.7941667,14.5982147 19.5666667,13.5636655 20.0866667,12.3666042 C18.665,9.09458074 15.4458333,6.92160869 11.8225,6.92160869 C11.5425,6.92160869 11.2658333,6.93836252 10.9916667,6.96433096 L9.77416667,5.4615122 Z" id="Fill-1"></path>
        </g>
    </g>
</svg>