<?xml version="1.0" encoding="UTF-8"?>
<svg width="18px" height="18px" viewBox="0 0 18 18" version="1.1" xmlns="http://www.w3.org/2000/svg" xmlns:xlink="http://www.w3.org/1999/xlink">
    <!-- Generator: sketchtool 46.2 (44496) - http://www.bohemiancoding.com/sketch -->
    <title>home--small</title>
    <desc>Created with sketchtool.</desc>
    <defs></defs>
    <g id="Android" stroke="none" stroke-width="1" fill="none" fill-rule="evenodd">
        <g id="home--small" fill="#000000">
            <path d="M8.55597533,10.8192122 L9.44491361,10.8192122 C10.6707595,10.8192122 11.6672593,11.815712 11.6672593,13.0415579 L11.6672593,13.888716 C11.6672593,15.1145619 12.6637591,16.1110617 13.889605,16.1110617 C15.1154509,16.1110617 16.1119507,15.1145619 16.1119507,13.888716 L16.1119507,8.78176565 C16.1119507,7.93105173 15.7581532,7.10789488 15.1394522,6.5229735 L11.138341,2.73342963 C9.94094116,1.60714484 8.06083671,1.6062559 6.86343686,2.73342963 L2.86143675,6.5229735 C2.24273571,7.10789488 1.88893827,7.93105173 1.88893827,8.78176565 L1.88893827,13.888716 C1.88893827,15.1145619 2.88543808,16.1110617 4.11128396,16.1110617 C5.33712984,16.1110617 6.33362965,15.1145619 6.33362965,13.888716 L6.33362965,13.0415579 C6.33362965,11.815712 7.33012945,10.8192122 8.55597533,10.8192122 M13.889605,17 C12.1739541,17 10.778321,15.6043669 10.778321,13.888716 L10.778321,13.0415579 C10.778321,12.3064059 10.1800656,11.7081505 9.44491361,11.7081505 L8.55597533,11.7081505 C7.82082338,11.7081505 7.22256792,12.3064059 7.22256792,13.0415579 L7.22256792,13.888716 C7.22256792,15.6043669 5.82693483,17 4.11128396,17 C2.39563309,17 1,15.6043669 1,13.888716 L1,8.78176565 C1,7.68837158 1.45602533,6.62964609 2.24984721,5.87671537 L6.25273626,2.08717151 C7.79326629,0.638202122 10.2067337,0.638202122 11.7490416,2.08717151 L15.7510417,5.87760431 C16.5448636,6.62964609 17.0008889,7.68837158 17.0008889,8.78176565 L17.0008889,13.888716 C17.0008889,15.6043669 15.6052558,17 13.889605,17" id="Page-1"></path>
        </g>
    </g>
</svg>