<?xml version="1.0" encoding="UTF-8"?>
<svg width="18px" height="18px" viewBox="0 0 18 18" version="1.1" xmlns="http://www.w3.org/2000/svg" xmlns:xlink="http://www.w3.org/1999/xlink">
    <!-- Generator: sketchtool 46.2 (44496) - http://www.bohemiancoding.com/sketch -->
    <title>info--small</title>
    <desc>Created with sketchtool.</desc>
    <defs></defs>
    <g id="Android" stroke="none" stroke-width="1" fill="none" fill-rule="evenodd">
        <g id="info--small" fill="#000000">
            <path d="M9.4375,12.0625 C9.4375,12.304 9.2415,12.5 9,12.5 C8.7585,12.5 8.5625,12.304 8.5625,12.0625 C8.5625,11.821 8.7585,11.625 9,11.625 C9.2415,11.625 9.4375,11.821 9.4375,12.0625 M9.4375,5.9375 L9.4375,10.3125 C9.4375,10.554 9.2415,10.75 9,10.75 C8.7585,10.75 8.5625,10.554 8.5625,10.3125 L8.5625,5.9375 C8.5625,5.696 8.7585,5.5 9,5.5 C9.2415,5.5 9.4375,5.696 9.4375,5.9375 M9,15.125 C5.623375,15.125 2.875,12.3775 2.875,9 C2.875,5.6225 5.623375,2.875 9,2.875 C12.376625,2.875 15.125,5.6225 15.125,9 C15.125,12.3775 12.376625,15.125 9,15.125 M9,2 C5.13425,2 2,5.13425 2,9 C2,12.86575 5.13425,16 9,16 C12.86575,16 16,12.86575 16,9 C16,5.13425 12.86575,2 9,2" id="Page-1" transform="translate(9.000000, 9.000000) scale(1, -1) translate(-9.000000, -9.000000) "></path>
        </g>
    </g>
</svg>