<?xml version="1.0" encoding="UTF-8"?>
<svg width="24px" height="24px" viewBox="0 0 24 24" version="1.1" xmlns="http://www.w3.org/2000/svg" xmlns:xlink="http://www.w3.org/1999/xlink">
    <!-- Generator: sketchtool 46.2 (44496) - http://www.bohemiancoding.com/sketch -->
    <title>info</title>
    <desc>Created with sketchtool.</desc>
    <defs></defs>
    <g id="Android" stroke="none" stroke-width="1" fill="none" fill-rule="evenodd">
        <g id="info" fill="#000000">
            <path d="M12.8333333,16.1666667 C12.8333333,16.6275 12.46,17 12,17 C11.54,17 11.1666667,16.6275 11.1666667,16.1666667 C11.1666667,15.7058333 11.54,15.3333333 12,15.3333333 C12.46,15.3333333 12.8333333,15.7058333 12.8333333,16.1666667 M12.8333333,7.83333333 L12.8333333,12.8333333 C12.8333333,13.2933333 12.46,13.6666667 12,13.6666667 C11.54,13.6666667 11.1666667,13.2933333 11.1666667,12.8333333 L11.1666667,7.83333333 C11.1666667,7.3725 11.54,7 12,7 C12.46,7 12.8333333,7.3725 12.8333333,7.83333333 M12,20.3333333 C7.405,20.3333333 3.66666667,16.595 3.66666667,12 C3.66666667,7.405 7.405,3.66666667 12,3.66666667 C16.595,3.66666667 20.3333333,7.405 20.3333333,12 C20.3333333,16.595 16.595,20.3333333 12,20.3333333 M12,2 C6.4775,2 2,6.4775 2,12 C2,17.5225 6.4775,22 12,22 C17.5225,22 22,17.5225 22,12 C22,6.4775 17.5225,2 12,2" id="Page-1" transform="translate(12.000000, 12.000000) scale(1, -1) translate(-12.000000, -12.000000) "></path>
        </g>
    </g>
</svg>