<?xml version="1.0" encoding="UTF-8" standalone="no"?>
<svg width="18px" height="18px" viewBox="0 0 18 18" version="1.1" xmlns="http://www.w3.org/2000/svg" xmlns:xlink="http://www.w3.org/1999/xlink">
    <!-- Generator: sketchtool 43.2 (39069) - http://www.bohemiancoding.com/sketch -->
    <title>invite--small</title>
    <desc>Created with sketchtool.</desc>
    <defs></defs>
    <g id="Android" stroke="none" stroke-width="1" fill="none" fill-rule="evenodd">
        <g id="invite--small" fill-rule="nonzero" fill="#000000">
            <path d="M10.0799086,2.55452377 C10.0799086,2.05178887 10.7161174,1.80949856 11.0696526,2.17759505 L16.8469766,8.1928742 C17.0510081,8.40530929 17.0510077,8.73429783 16.8469758,8.94673249 L11.0696518,14.9619859 C10.7161162,15.3300812 10.0799086,15.0877906 10.0799086,14.5850563 L10.0799086,11.624587 C6.4321506,11.7459198 3.89935441,13.0528045 2.04854608,15.7506476 C1.70425938,16.2524994 0.897107874,15.9355254 1.01089577,15.3431551 C2.01350154,10.1236731 4.97764473,6.47453069 10.0799086,5.52581717 L10.0799086,2.55452377 Z M11.222676,3.96196185 L11.222676,5.99181141 C11.222676,6.26501472 11.0168317,6.49733839 10.7380237,6.53880842 C6.69335448,7.14041444 4.08032301,9.54470655 2.76875953,13.1961565 C4.76438413,11.3727957 7.33661145,10.5084268 10.6512923,10.5084268 C10.9668588,10.5084268 11.222676,10.7561967 11.222676,11.0618365 L11.222676,13.1776226 L15.6482372,8.56980211 L11.222676,3.96196185 Z" id="Shape"></path>
        </g>
    </g>
</svg>