<?xml version="1.0" encoding="UTF-8"?>
<svg width="16px" height="16px" viewBox="0 0 16 16" version="1.1" xmlns="http://www.w3.org/2000/svg" xmlns:xlink="http://www.w3.org/1999/xlink">
    <!-- Generator: sketchtool 46.2 (44496) - http://www.bohemiancoding.com/sketch -->
    <title>invite--small</title>
    <desc>Created with sketchtool.</desc>
    <defs></defs>
    <g id="Android" stroke="none" stroke-width="1" fill="none" fill-rule="evenodd">
        <g id="invite--small" fill-rule="nonzero" fill="#000000">
            <path d="M8.94492001,2.4852083 C8.94492001,2.04531526 9.50160276,1.83331124 9.81094603,2.15539567 L14.8661045,7.41876493 C15.0446321,7.60464562 15.0446318,7.8925106 14.8661038,8.07839093 L9.8109453,13.3417376 C9.50160167,13.6638211 8.94492001,13.4518168 8.94492001,13.0119242 L8.94492001,10.4215136 C5.75313178,10.5276798 3.53693511,11.671204 1.91747782,14.0318166 C1.61622696,14.470937 0.90996939,14.1935847 1.0095338,13.6752608 C1.88681385,9.10821399 4.48043914,5.91521435 8.94492001,5.08509002 L8.94492001,2.4852083 Z M9.94484148,3.71671662 L9.94484148,5.49283498 C9.94484148,5.73188788 9.76472774,5.93517109 9.52077071,5.97145737 C5.98168517,6.49786263 3.69528263,8.60161823 2.54766459,11.7966369 C4.29383611,10.2011962 6.54453502,9.44487344 9.44488074,9.44487344 C9.72100143,9.44487344 9.94484148,9.66167214 9.94484148,9.9291069 L9.94484148,11.7804198 L13.8172076,7.74857684 L9.94484148,3.71671662 Z" id="Shape"></path>
        </g>
    </g>
</svg>