<?xml version="1.0" encoding="UTF-8"?>
<svg width="16px" height="16px" viewBox="0 0 16 16" version="1.1" xmlns="http://www.w3.org/2000/svg" xmlns:xlink="http://www.w3.org/1999/xlink">
    <!-- Generator: (null) (null) ((null)) - http://www.bohemiancoding.com/sketch -->
    <title>launch-new-window--small</title>
    <desc>Created with (null).</desc>
    <defs></defs>
    <g id="Android" stroke="none" stroke-width="1" fill="none" fill-rule="evenodd">
        <g id="launch-new-window--small" fill="#000000">
            <path d="M14.6111111,9.55555556 C14.3956667,9.55555556 14.2222222,9.729 14.2222222,9.94444444 L14.2222222,10.3333333 C14.2222222,12.4776667 12.4776667,14.2222222 10.3333333,14.2222222 L5.66666667,14.2222222 C3.52233333,14.2222222 1.77777778,12.4776667 1.77777778,10.3333333 L1.77777778,5.66666667 C1.77777778,3.52233333 3.52233333,1.77777778 5.66666667,1.77777778 L6.05555556,1.77777778 C6.27022222,1.77777778 6.44444444,1.60355556 6.44444444,1.38888889 C6.44444444,1.17422222 6.27022222,1 6.05555556,1 L4.88888889,1 C2.55555556,1.19833333 1,3.22055556 1,5.66666667 L1,10.3333333 C1,12.9101111 3.08911111,15 5.66666667,15 L10.3333333,15 C12.9108889,15 15,12.9101111 15,10.3333333 L15,9.94444444 C15,9.729 14.825,9.55555556 14.6111111,9.55555556 M15,1.39044444 L15,7.61111111 C15,7.71922222 14.9564444,7.81644444 14.8864444,7.88644444 C14.8156667,7.95722222 14.7184444,8 14.6111111,8 C14.3964444,8 14.2222222,7.82655556 14.2222222,7.61111111 L14.2222222,2.32844444 L5.55311111,10.9975556 C5.40144444,11.1492222 5.15566667,11.1492222 5.00322222,10.9975556 C4.85155556,10.8451111 4.85155556,10.5993333 5.00322222,10.4468889 L13.6723333,1.77777778 L8.38888889,1.77777778 C8.17422222,1.77777778 8,1.60433333 8,1.38888889 C8,1.175 8.17422222,1.00077778 8.38888889,1 L14.6103333,1.00155556 C14.6608889,1 14.7114444,1.01088889 14.7596667,1.03033333 C14.8545556,1.07 14.9307778,1.14544444 14.9704444,1.24111111 C14.9898889,1.28855556 15,1.33988889 15,1.39044444" id="Page-1"></path>
        </g>
    </g>
</svg>