<?xml version="1.0" encoding="UTF-8"?>
<svg width="18px" height="18px" viewBox="0 0 18 18" version="1.1" xmlns="http://www.w3.org/2000/svg" xmlns:xlink="http://www.w3.org/1999/xlink">
    <!-- Generator: sketchtool 46.2 (44496) - http://www.bohemiancoding.com/sketch -->
    <title>launch-new-window--small</title>
    <desc>Created with sketchtool.</desc>
    <defs></defs>
    <g id="Android" stroke="none" stroke-width="1" fill="none" fill-rule="evenodd">
        <g id="launch-new-window--small" fill="#000000">
            <path d="M16.5555556,10.7777778 C16.3093333,10.7777778 16.1111111,10.976 16.1111111,11.2222222 L16.1111111,11.6666667 C16.1111111,14.1173333 14.1173333,16.1111111 11.6666667,16.1111111 L6.33333333,16.1111111 C3.88266667,16.1111111 1.88888889,14.1173333 1.88888889,11.6666667 L1.88888889,6.33333333 C1.88888889,3.88266667 3.88266667,1.88888889 6.33333333,1.88888889 L6.77777778,1.88888889 C7.02311111,1.88888889 7.22222222,1.68977778 7.22222222,1.44444444 C7.22222222,1.19911111 7.02311111,1 6.77777778,1 L5.44444444,1 C2.77777778,1.22666667 1,3.53777778 1,6.33333333 L1,11.6666667 C1,14.6115556 3.38755556,17 6.33333333,17 L11.6666667,17 C14.6124444,17 17,14.6115556 17,11.6666667 L17,11.2222222 C17,10.976 16.8,10.7777778 16.5555556,10.7777778 M17,1.44622222 L17,8.55555556 C17,8.67911111 16.9502222,8.79022222 16.8702222,8.87022222 C16.7893333,8.95111111 16.6782222,9 16.5555556,9 C16.3102222,9 16.1111111,8.80177778 16.1111111,8.55555556 L16.1111111,2.51822222 L6.20355556,12.4257778 C6.03022222,12.5991111 5.74933333,12.5991111 5.57511111,12.4257778 C5.40177778,12.2515556 5.40177778,11.9706667 5.57511111,11.7964444 L15.4826667,1.88888889 L9.44444444,1.88888889 C9.19911111,1.88888889 9,1.69066667 9,1.44444444 C9,1.2 9.19911111,1.00088889 9.44444444,1 L16.5546667,1.00177778 C16.6124444,1 16.6702222,1.01244444 16.7253333,1.03466667 C16.8337778,1.08 16.9208889,1.16622222 16.9662222,1.27555556 C16.9884444,1.32977778 17,1.38844444 17,1.44622222" id="Page-1"></path>
        </g>
    </g>
</svg>