<?xml version="1.0" encoding="UTF-8" standalone="no"?>
<svg width="18px" height="18px" viewBox="0 0 18 18" version="1.1" xmlns="http://www.w3.org/2000/svg" xmlns:xlink="http://www.w3.org/1999/xlink">
    <!-- Generator: sketchtool 43.2 (39069) - http://www.bohemiancoding.com/sketch -->
    <title>link--small</title>
    <desc>Created with sketchtool.</desc>
    <defs></defs>
    <g id="Android" stroke="none" stroke-width="1" fill="none" fill-rule="evenodd">
        <g id="link--small" fill-rule="nonzero" fill="#000000">
            <path d="M2.92735959,10.5842211 C1.69089722,11.8206969 1.69087444,13.8362221 2.92732543,15.0726792 C4.16375886,16.3091177 6.17931861,16.309099 7.41578715,15.0726419 L10.0560809,12.4323537 C11.2388912,11.2495346 11.2958019,9.35504511 10.2128803,8.10889465 C10.0811355,7.95721353 9.87837329,7.88750413 9.68120649,7.92610581 C9.48403969,7.96470749 9.32253224,8.10573428 9.25770899,8.29589986 C9.19288573,8.48606545 9.2346309,8.6963734 9.36717129,8.84735985 C10.0727862,9.65934261 10.0400205,10.8642666 9.26400699,11.6402729 L6.62370816,14.280561 C5.81235924,15.091909 4.53074549,15.0919277 3.71941449,14.2805984 C2.90807808,13.4692504 2.90808574,12.1876312 3.7194354,11.3763019 L6.35972863,8.73599507 C6.504572,8.59518634 6.56238061,8.38729791 6.51101889,8.19193261 C6.45965718,7.99656731 6.3070824,7.84399231 6.11171717,7.79263032 C5.91635194,7.74126833 5.70846343,7.79907664 5.5676545,7.94391981 L2.92735959,10.5842211 L2.92735959,10.5842211 Z M7.94392002,5.56765485 C6.76110915,6.75046646 6.70419083,8.64494292 7.78712625,9.89112698 C7.99104778,10.124659 8.34567684,10.1486596 8.57921243,9.94473397 C8.81274801,9.74080831 8.83675494,9.38617883 8.6328334,9.15264685 C7.92721661,8.34066409 7.95998138,7.13574381 8.73599397,6.35972823 L11.3762889,3.71943445 C12.1876363,2.90808459 13.4692543,2.90807526 14.2805921,3.71941391 C15.0919275,4.53074696 15.0919167,5.81236799 14.280562,6.62370478 L11.6402695,9.26401163 C11.4955385,9.40484484 11.437816,9.61267844 11.4891924,9.80797423 C11.5405688,10.00327 11.6930899,10.1557914 11.8883856,10.2071683 C12.0836812,10.2585452 12.291515,10.2008231 12.4323485,10.0560925 L15.0726423,7.41579123 C16.3091084,6.17932662 16.3091176,4.1637622 15.0726798,2.92732372 C13.8362341,1.69087778 11.8206792,1.69089458 10.5842149,2.92735919 L7.94392002,5.56765485 L7.94392002,5.56765485 Z" id="Shape-Copy-4"></path>
        </g>
    </g>
</svg>