<?xml version="1.0" encoding="UTF-8"?>
<svg width="24px" height="24px" viewBox="0 0 24 24" version="1.1" xmlns="http://www.w3.org/2000/svg" xmlns:xlink="http://www.w3.org/1999/xlink">
    <!-- Generator: (null) (null) ((null)) - http://www.bohemiancoding.com/sketch -->
    <title>link</title>
    <desc>Created with (null).</desc>
    <defs></defs>
    <g id="Android" stroke="none" stroke-width="1" fill="none" fill-rule="evenodd">
        <g id="link" fill="#000000" fill-rule="nonzero">
            <path d="M3.04479942,13.983173 C1.2784246,15.749567 1.27839206,18.6288887 3.04475061,20.3952561 C4.81108409,22.1615967 7.69045516,22.1615701 9.45683878,20.3952027 L13.228687,16.6233625 C14.9184161,14.9336209 14.999717,12.2272073 13.4526862,10.4469924 C13.2644793,10.230305 12.974819,10.1307202 12.6931521,10.1858654 C12.4114853,10.2410107 12.1807603,10.4424775 12.0881557,10.7141427 C11.995551,10.9858078 12.055187,11.2862477 12.2445304,11.5019426 C13.2525517,12.661918 13.2057436,14.383238 12.0971528,15.4918184 L8.32529737,19.2636586 C7.16622748,20.4227272 5.33535071,20.4227539 4.17630642,19.263712 C3.0172544,18.1046434 3.01726534,16.2737589 4.17633629,15.114717 L7.94818376,11.3428501 C8.15510285,11.1416948 8.23768658,10.8447113 8.1643127,10.565618 C8.09093882,10.2865247 7.87297486,10.0685604 7.59388167,9.99518617 C7.31478849,9.9218119 7.0178049,10.0043952 6.81664928,10.211314 L3.04479942,13.983173 L3.04479942,13.983173 Z M10.2113143,6.81664978 C8.5215845,8.50638066 8.44027261,11.2127756 9.98732321,12.9930385 C10.2786397,13.3266557 10.7852526,13.3609423 11.1188749,13.06962 C11.4524972,12.7782976 11.4867928,12.271684 11.1954763,11.9380669 C10.1874523,10.7780916 10.2342591,9.05677687 11.3428485,7.94818319 L15.1146984,4.17633493 C16.2737661,3.0172637 18.1046491,3.01725037 19.2637029,4.17630559 C20.4227536,5.33535281 20.4227382,7.16623999 19.26366,8.32529254 L15.4918136,12.0971595 C15.285055,12.2983498 15.2025943,12.5952549 15.2759892,12.8742489 C15.3493841,13.1532429 15.5672713,13.3711306 15.8462651,13.4445262 C16.1252589,13.5179217 16.4221642,13.4354616 16.623355,13.2287036 L20.3952033,9.45684462 C22.1615834,7.6904666 22.1615965,4.81108885 20.3952569,3.04474817 C18.6289058,1.27839683 15.7495417,1.27842083 13.9831642,3.04479885 L10.2113143,6.81664978 L10.2113143,6.81664978 Z" id="Shape"></path>
        </g>
    </g>
</svg>