<?xml version="1.0" encoding="UTF-8"?>
<svg width="24px" height="24px" viewBox="0 0 24 24" version="1.1" xmlns="http://www.w3.org/2000/svg" xmlns:xlink="http://www.w3.org/1999/xlink">
    <!-- Generator: (null) (null) ((null)) - http://www.bohemiancoding.com/sketch -->
    <title>list</title>
    <desc>Created with (null).</desc>
    <defs></defs>
    <g id="Android" stroke="none" stroke-width="1" fill="none" fill-rule="evenodd">
        <g id="list" fill="#000000">
            <path d="M21,18 L3,18 C2.448,18 2,18.447 2,19 C2,19.553 2.448,20 3,20 L21,20 C21.552,20 22,19.553 22,19 C22,18.447 21.552,18 21,18 M21,11 L3,11 C2.448,11 2,11.447 2,12 C2,12.553 2.448,13 3,13 L21,13 C21.552,13 22,12.553 22,12 C22,11.447 21.552,11 21,11 M2,5 C2,4.447 2.448,4 3,4 L21,4 C21.552,4 22,4.447 22,5 C22,5.553 21.552,6 21,6 L3,6 C2.448,6 2,5.553 2,5" id="Page-1"></path>
        </g>
    </g>
</svg>