<?xml version="1.0" encoding="UTF-8"?>
<svg width="18px" height="18px" viewBox="0 0 18 18" version="1.1" xmlns="http://www.w3.org/2000/svg" xmlns:xlink="http://www.w3.org/1999/xlink">
    <!-- Generator: sketchtool 46.2 (44496) - http://www.bohemiancoding.com/sketch -->
    <title>list--small</title>
    <desc>Created with sketchtool.</desc>
    <defs></defs>
    <g id="Android" stroke="none" stroke-width="1" fill="none" fill-rule="evenodd">
        <g id="list--small" fill="#000000">
            <path d="M17,9 C17,9.276 16.776,9.5 16.5,9.5 L1.5,9.5 C1.224,9.5 1,9.276 1,9 C1,8.724 1.224,8.5 1.5,8.5 L16.5,8.5 C16.776,8.5 17,8.724 17,9 M16.5,14 L1.5,14 C1.224,14 1,14.224 1,14.5 C1,14.776 1.224,15 1.5,15 L16.5,15 C16.776,15 17,14.776 17,14.5 C17,14.224 16.776,14 16.5,14 M1.5,4 L16.5,4 C16.776,4 17,3.776 17,3.5 C17,3.224 16.776,3 16.5,3 L1.5,3 C1.224,3 1,3.224 1,3.5 C1,3.776 1.224,4 1.5,4" id="Page-1"></path>
        </g>
    </g>
</svg>