<?xml version="1.0" encoding="UTF-8" standalone="no"?>
<svg width="24px" height="24px" viewBox="0 0 24 24" version="1.1" xmlns="http://www.w3.org/2000/svg" xmlns:xlink="http://www.w3.org/1999/xlink">
    <!-- Generator: sketchtool 43.2 (39069) - http://www.bohemiancoding.com/sketch -->
    <title>location-services</title>
    <desc>Created with sketchtool.</desc>
    <defs></defs>
    <g id="Android" stroke="none" stroke-width="1" fill="none" fill-rule="evenodd">
        <g id="location-services" fill="#000000">
            <path d="M15.3333333,12 C15.3333333,13.8408333 13.8408333,15.3333333 12,15.3333333 C10.1591667,15.3333333 8.66666667,13.8408333 8.66666667,12 C8.66666667,10.1591667 10.1591667,8.66666667 12,8.66666667 C13.8408333,8.66666667 15.3333333,10.1591667 15.3333333,12 M12,17.8333333 C8.78333333,17.8333333 6.16666667,15.2158333 6.16666667,12 C6.16666667,8.78416667 8.78333333,6.16666667 12,6.16666667 C15.2166667,6.16666667 17.8333333,8.78416667 17.8333333,12 C17.8333333,15.2158333 15.2166667,17.8333333 12,17.8333333 M21.1666667,11.1666667 L19.4508333,11.1666667 C19.0666667,7.69083333 16.3091667,4.93416667 12.8333333,4.54916667 L12.8333333,2.83333333 C12.8333333,2.37333333 12.46,2 12,2 C11.54,2 11.1666667,2.37333333 11.1666667,2.83333333 L11.1666667,4.54916667 C7.69083333,4.93416667 4.93333333,7.69083333 4.54916667,11.1666667 L2.83333333,11.1666667 C2.37333333,11.1666667 2,11.54 2,12 C2,12.46 2.37333333,12.8333333 2.83333333,12.8333333 L4.54916667,12.8333333 C4.93416667,16.3091667 7.69083333,19.0658333 11.1666667,19.4508333 L11.1666667,21.1666667 C11.1666667,21.6275 11.54,22 12,22 C12.46,22 12.8333333,21.6275 12.8333333,21.1666667 L12.8333333,19.4508333 C16.3091667,19.0658333 19.0658333,16.3091667 19.4508333,12.8333333 L21.1666667,12.8333333 C21.6275,12.8333333 22,12.46 22,12 C22,11.54 21.6275,11.1666667 21.1666667,11.1666667" id="Page-1"></path>
        </g>
    </g>
</svg>