<?xml version="1.0" encoding="UTF-8"?>
<svg width="28px" height="28px" viewBox="0 0 28 28" version="1.1" xmlns="http://www.w3.org/2000/svg" xmlns:xlink="http://www.w3.org/1999/xlink">
    <!-- Generator: sketchtool 46.2 (44496) - http://www.bohemiancoding.com/sketch -->
    <title>location-services</title>
    <desc>Created with sketchtool.</desc>
    <defs></defs>
    <g id="Android" stroke="none" stroke-width="1" fill="none" fill-rule="evenodd">
        <g id="location-services" fill="#000000">
            <path d="M18,14 C18,16.209 16.209,18 14,18 C11.791,18 10,16.209 10,14 C10,11.791 11.791,10 14,10 C16.209,10 18,11.791 18,14 M14,21 C10.14,21 7,17.859 7,14 C7,10.141 10.14,7 14,7 C17.86,7 21,10.141 21,14 C21,17.859 17.86,21 14,21 M25,13 L22.941,13 C22.48,8.829 19.171,5.521 15,5.059 L15,3 C15,2.448 14.552,2 14,2 C13.448,2 13,2.448 13,3 L13,5.059 C8.829,5.521 5.52,8.829 5.059,13 L3,13 C2.448,13 2,13.448 2,14 C2,14.552 2.448,15 3,15 L5.059,15 C5.521,19.171 8.829,22.479 13,22.941 L13,25 C13,25.553 13.448,26 14,26 C14.552,26 15,25.553 15,25 L15,22.941 C19.171,22.479 22.479,19.171 22.941,15 L25,15 C25.553,15 26,14.552 26,14 C26,13.448 25.553,13 25,13" id="Page-1"></path>
        </g>
    </g>
</svg>