<?xml version="1.0" encoding="UTF-8"?>
<svg width="20px" height="20px" viewBox="0 0 20 20" version="1.1" xmlns="http://www.w3.org/2000/svg" xmlns:xlink="http://www.w3.org/1999/xlink">
    <!-- Generator: sketchtool 46.2 (44496) - http://www.bohemiancoding.com/sketch -->
    <title>location-services--small</title>
    <desc>Created with sketchtool.</desc>
    <defs></defs>
    <g id="Android" stroke="none" stroke-width="1" fill="none" fill-rule="evenodd">
        <g id="location-services--small" fill="#000000">
            <path d="M14,10 C14,12.209 12.209,14 10,14 C7.791,14 6,12.209 6,10 C6,7.791 7.791,6 10,6 C12.209,6 14,7.791 14,10 M10,16 C6.691,16 4,13.309 4,10 C4,6.691 6.691,4 10,4 C13.309,4 16,6.691 16,10 C16,13.309 13.309,16 10,16 M18.5,9.5 L16.975,9.5 C16.729,6.034 13.966,3.271 10.5,3.025 L10.5,1.5 C10.5,1.224 10.276,1 10,1 C9.724,1 9.5,1.224 9.5,1.5 L9.5,3.025 C6.034,3.271 3.271,6.034 3.025,9.5 L1.5,9.5 C1.224,9.5 1,9.724 1,10 C1,10.276 1.224,10.5 1.5,10.5 L3.025,10.5 C3.271,13.966 6.034,16.729 9.5,16.975 L9.5,18.5 C9.5,18.776 9.724,19 10,19 C10.276,19 10.5,18.776 10.5,18.5 L10.5,16.975 C13.966,16.729 16.729,13.966 16.975,10.5 L18.5,10.5 C18.776,10.5 19,10.276 19,10 C19,9.724 18.776,9.5 18.5,9.5" id="Page-1"></path>
        </g>
    </g>
</svg>