<?xml version="1.0" encoding="UTF-8"?>
<svg width="16px" height="16px" viewBox="0 0 16 16" version="1.1" xmlns="http://www.w3.org/2000/svg" xmlns:xlink="http://www.w3.org/1999/xlink">
    <!-- Generator: sketchtool 52.3 (67297) - http://www.bohemiancoding.com/sketch -->
    <title>location-pin-slashed--small</title>
    <desc>Created with sketchtool.</desc>
    <g id="Android" stroke="none" stroke-width="1" fill="none" fill-rule="evenodd">
        <g id="location-pin-slashed--small" fill="#000000">
            <path d="M9,6.8056 C9,6.3648 8.65155556,6.0056 8.22222222,6.0056 C7.95311111,6.0056 7.72677778,6.156 7.58755556,6.3696 L7.09522222,5.7096 C7.37911111,5.4008 7.77733333,5.2056 8.22222222,5.2056 C9.08011111,5.2056 9.77777778,5.9232 9.77777778,6.8056 C9.77777778,7.4128 9.44333333,7.936 8.95722222,8.2072 L8.47033333,7.5544 C8.77677778,7.4464 9,7.1552 9,6.8056 Z M4.55344444,2.3016 L4.09455556,1.6872 C5.25188889,0.5968 6.74755556,0 8.22222222,0 C11.2812222,0 14.4444444,2.5456 14.4444444,6.8048 C14.4444444,8.2672 13.7016667,10.2272 12.2573333,12.6312 L11.7517778,11.9536 C13.0063333,9.8128 13.6666667,8.0544 13.6666667,6.8048 C13.6666667,2.9048 10.862,0.8 8.22222222,0.8 C6.92022222,0.8 5.57933333,1.3144 4.55344444,2.3016 Z M10.4365556,14.0224 C9.924,14.7712 9.11666667,15.2 8.22222222,15.2 C7.32777778,15.2 6.52044444,14.7712 6.00788889,14.0224 C3.89544444,10.9328 2.77777778,8.4368 2.77777778,6.8048 C2.77777778,5.4976 3.099,4.3992 3.61777778,3.5088 L10.9187778,13.2968 C10.7647778,13.5344 10.6053333,13.776 10.4365556,14.0224 Z M2.64711111,0.9488 C2.51955556,0.7784 2.29011111,0.7496 2.13377778,0.8888 C1.97822222,1.0288 1.95488889,1.28 2.08244444,1.4504 L3.12544444,2.8488 C2.43244444,3.9096 2,5.2392 2,6.8048 C2,8.628 3.13477778,11.2112 5.37166667,14.4824 C6.032,15.4472 7.07111111,16 8.22222222,16 C9.37333333,16 10.4124444,15.4472 11.0727778,14.4824 C11.1941111,14.3048 11.3006667,14.136 11.415,13.9624 L12.2417778,15.0704 C12.3701111,15.2424 12.5995556,15.2664 12.7551111,15.1264 C12.9067778,14.9904 12.9301111,14.7488 12.8134444,14.58 L2.64711111,0.9488 Z" id="Fill-1"></path>
        </g>
    </g>
</svg>