<?xml version="1.0" encoding="UTF-8"?>
<svg width="18px" height="18px" viewBox="0 0 18 18" version="1.1" xmlns="http://www.w3.org/2000/svg" xmlns:xlink="http://www.w3.org/1999/xlink">
    <!-- Generator: sketchtool 46.2 (44496) - http://www.bohemiancoding.com/sketch -->
    <title>location-pin--small</title>
    <desc>Created with sketchtool.</desc>
    <defs></defs>
    <g id="Android" stroke="none" stroke-width="1" fill="none" fill-rule="evenodd">
        <g id="location-pin--small" fill="#000000">
            <path d="M9,8.5563 C8.517,8.5563 8.125,8.1522 8.125,7.6563 C8.125,7.1604 8.517,6.7563 9,6.7563 C9.483,6.7563 9.875,7.1604 9.875,7.6563 C9.875,8.1522 9.483,8.5563 9,8.5563 M9,5.8563 C8.034875,5.8563 7.25,6.6636 7.25,7.6563 C7.25,8.649 8.034875,9.4563 9,9.4563 C9.965125,9.4563 10.75,8.649 10.75,7.6563 C10.75,6.6636 9.965125,5.8563 9,5.8563 M11.491125,15.7752 C10.9145,16.6176 10.00625,17.1 9,17.1 C7.99375,17.1 7.0855,16.6176 6.508875,15.7752 C4.132375,12.2994 2.875,9.4914 2.875,7.6554 C2.875,3.2679 6.03025,0.9 9,0.9 C11.96975,0.9 15.125,3.2679 15.125,7.6554 C15.125,9.4914 13.867625,12.2994 11.491125,15.7752 M9,0 C5.558625,0 2,2.8638 2,7.6554 C2,9.7065 3.276625,12.6126 5.793125,16.2927 C6.536,17.3781 7.705,18 9,18 C10.295,18 11.464,17.3781 12.206875,16.2927 C14.723375,12.6126 16,9.7065 16,7.6554 C16,2.8638 12.441375,0 9,0" id="Fill-1"></path>
        </g>
    </g>
</svg>