<?xml version="1.0" encoding="UTF-8"?>
<svg width="18px" height="18px" viewBox="0 0 18 18" version="1.1" xmlns="http://www.w3.org/2000/svg" xmlns:xlink="http://www.w3.org/1999/xlink">
    <!-- Generator: sketchtool 46.2 (44496) - http://www.bohemiancoding.com/sketch -->
    <title>location-pin-slashed--small</title>
    <desc>Created with sketchtool.</desc>
    <defs></defs>
    <g id="Android" stroke="none" stroke-width="1" fill="none" fill-rule="evenodd">
        <g id="location-pin-slashed--small" fill="#000000">
            <path d="M9.875,7.6563 C9.875,7.1604 9.483,6.7563 9,6.7563 C8.69725,6.7563 8.442625,6.9255 8.286,7.1658 L7.732125,6.4233 C8.0515,6.0759 8.4995,5.8563 9,5.8563 C9.965125,5.8563 10.75,6.6636 10.75,7.6563 C10.75,8.3394 10.37375,8.928 9.826875,9.2331 L9.279125,8.4987 C9.623875,8.3772 9.875,8.0496 9.875,7.6563 L9.875,7.6563 Z M4.872625,2.5893 L4.356375,1.8981 C5.658375,0.6714 7.341,0 9,0 C12.441375,0 16,2.8638 16,7.6554 C16,9.3006 15.164375,11.5056 13.5395,14.2101 L12.97075,13.4478 C14.382125,11.0394 15.125,9.0612 15.125,7.6554 C15.125,3.2679 11.96975,0.9 9,0.9 C7.53525,0.9 6.02675,1.4787 4.872625,2.5893 L4.872625,2.5893 Z M11.491125,15.7752 C10.9145,16.6176 10.00625,17.1 9,17.1 C7.99375,17.1 7.0855,16.6176 6.508875,15.7752 C4.132375,12.2994 2.875,9.4914 2.875,7.6554 C2.875,6.1848 3.236375,4.9491 3.82,3.9474 L12.033625,14.9589 C11.860375,15.2262 11.681,15.498 11.491125,15.7752 L11.491125,15.7752 Z M2.728,1.0674 C2.5845,0.8757 2.326375,0.8433 2.1505,0.9999 C1.9755,1.1574 1.94925,1.44 2.09275,1.6317 L3.266125,3.2049 C2.4865,4.3983 2,5.8941 2,7.6554 C2,9.7065 3.276625,12.6126 5.793125,16.2927 C6.536,17.3781 7.705,18 9,18 C10.295,18 11.464,17.3781 12.206875,16.2927 C12.343375,16.0929 12.46325,15.903 12.591875,15.7077 L13.522,16.9542 C13.666375,17.1477 13.9245,17.1747 14.0995,17.0172 C14.270125,16.8642 14.296375,16.5924 14.165125,16.4025 L2.728,1.0674 Z" id="Fill-1"></path>
        </g>
    </g>
</svg>