<?xml version="1.0" encoding="UTF-8"?>
<svg width="16px" height="16px" viewBox="0 0 16 16" version="1.1" xmlns="http://www.w3.org/2000/svg" xmlns:xlink="http://www.w3.org/1999/xlink">
    <!-- Generator: sketchtool 46.2 (44496) - http://www.bohemiancoding.com/sketch -->
    <title>location-pin--small</title>
    <desc>Created with sketchtool.</desc>
    <defs></defs>
    <g id="Android" stroke="none" stroke-width="1" fill="none" fill-rule="evenodd">
        <g id="location-pin--small" fill="#000000">
            <path d="M7.97222222,7.6056 C7.54288889,7.6056 7.19444444,7.2464 7.19444444,6.8056 C7.19444444,6.3648 7.54288889,6.0056 7.97222222,6.0056 C8.40155556,6.0056 8.75,6.3648 8.75,6.8056 C8.75,7.2464 8.40155556,7.6056 7.97222222,7.6056 M7.97222222,5.2056 C7.11433333,5.2056 6.41666667,5.9232 6.41666667,6.8056 C6.41666667,7.688 7.11433333,8.4056 7.97222222,8.4056 C8.83011111,8.4056 9.52777778,7.688 9.52777778,6.8056 C9.52777778,5.9232 8.83011111,5.2056 7.97222222,5.2056 M10.1865556,14.0224 C9.674,14.7712 8.86666667,15.2 7.97222222,15.2 C7.07777778,15.2 6.27044444,14.7712 5.75788889,14.0224 C3.64544444,10.9328 2.52777778,8.4368 2.52777778,6.8048 C2.52777778,2.9048 5.33244444,0.8 7.97222222,0.8 C10.612,0.8 13.4166667,2.9048 13.4166667,6.8048 C13.4166667,8.4368 12.299,10.9328 10.1865556,14.0224 M7.97222222,0 C4.91322222,0 1.75,2.5456 1.75,6.8048 C1.75,8.628 2.88477778,11.2112 5.12166667,14.4824 C5.782,15.4472 6.82111111,16 7.97222222,16 C9.12333333,16 10.1624444,15.4472 10.8227778,14.4824 C13.0596667,11.2112 14.1944444,8.628 14.1944444,6.8048 C14.1944444,2.5456 11.0312222,0 7.97222222,0" id="Fill-1"></path>
        </g>
    </g>
</svg>