<?xml version="1.0" encoding="UTF-8"?>
<svg width="18px" height="18px" viewBox="0 0 18 18" version="1.1" xmlns="http://www.w3.org/2000/svg" xmlns:xlink="http://www.w3.org/1999/xlink">
    <!-- Generator: sketchtool 46.2 (44496) - http://www.bohemiancoding.com/sketch -->
    <title>location-services--small</title>
    <desc>Created with sketchtool.</desc>
    <defs></defs>
    <g id="Android" stroke="none" stroke-width="1" fill="none" fill-rule="evenodd">
        <g id="location-services--small" fill="#000000">
            <path d="M12.5555556,9 C12.5555556,10.9635556 10.9635556,12.5555556 9,12.5555556 C7.03644444,12.5555556 5.44444444,10.9635556 5.44444444,9 C5.44444444,7.03644444 7.03644444,5.44444444 9,5.44444444 C10.9635556,5.44444444 12.5555556,7.03644444 12.5555556,9 M9,14.3333333 C6.05866667,14.3333333 3.66666667,11.9413333 3.66666667,9 C3.66666667,6.05866667 6.05866667,3.66666667 9,3.66666667 C11.9413333,3.66666667 14.3333333,6.05866667 14.3333333,9 C14.3333333,11.9413333 11.9413333,14.3333333 9,14.3333333 M16.5555556,8.55555556 L15.2,8.55555556 C14.9813333,5.47466667 12.5253333,3.01866667 9.44444444,2.8 L9.44444444,1.44444444 C9.44444444,1.19911111 9.24533333,1 9,1 C8.75466667,1 8.55555556,1.19911111 8.55555556,1.44444444 L8.55555556,2.8 C5.47466667,3.01866667 3.01866667,5.47466667 2.8,8.55555556 L1.44444444,8.55555556 C1.19911111,8.55555556 1,8.75466667 1,9 C1,9.24533333 1.19911111,9.44444444 1.44444444,9.44444444 L2.8,9.44444444 C3.01866667,12.5253333 5.47466667,14.9813333 8.55555556,15.2 L8.55555556,16.5555556 C8.55555556,16.8008889 8.75466667,17 9,17 C9.24533333,17 9.44444444,16.8008889 9.44444444,16.5555556 L9.44444444,15.2 C12.5253333,14.9813333 14.9813333,12.5253333 15.2,9.44444444 L16.5555556,9.44444444 C16.8008889,9.44444444 17,9.24533333 17,9 C17,8.75466667 16.8008889,8.55555556 16.5555556,8.55555556" id="Page-1"></path>
        </g>
    </g>
</svg>