<?xml version="1.0" encoding="UTF-8" standalone="no"?>
<svg width="18px" height="18px" viewBox="0 0 18 18" version="1.1" xmlns="http://www.w3.org/2000/svg" xmlns:xlink="http://www.w3.org/1999/xlink">
    <!-- Generator: sketchtool 43.2 (39069) - http://www.bohemiancoding.com/sketch -->
    <title>lock--small</title>
    <desc>Created with sketchtool.</desc>
    <defs></defs>
    <g id="Android" stroke="none" stroke-width="1" fill="none" fill-rule="evenodd">
        <g id="lock--small" fill="#000000">
            <path d="M8.95,17.1 C5.99553571,17.1 3.59285714,14.6781 3.59285714,11.7 C3.59285714,8.7219 5.99553571,6.3 8.95,6.3 C11.9044643,6.3 14.3071429,8.7219 14.3071429,11.7 C14.3071429,14.6781 11.9044643,17.1 8.95,17.1 L8.95,17.1 Z M6.27142857,3.6 C6.27142857,1.9026 7.26607143,0.9 8.95,0.9 C10.6339286,0.9 11.6285714,1.9026 11.6285714,3.6558 L11.6285714,6.0147 C10.8160714,5.625 9.90982143,5.4 8.95,5.4 C7.99017857,5.4 7.08392857,5.625 6.27142857,6.0147 L6.27142857,3.6 Z M12.5214286,6.534 L12.5214286,3.6 C12.5214286,1.3986 11.1339286,0 8.95,0 C6.76607143,0 5.37857143,1.3986 5.37857143,3.6 L5.37857143,6.534 C3.76071429,7.6725 2.7,9.5598 2.7,11.7 C2.7,15.1794 5.49821429,18 8.95,18 C12.4017857,18 15.2,15.1794 15.2,11.7 C15.2,9.5598 14.1392857,7.6725 12.5214286,6.534 L12.5214286,6.534 Z M8.95,12.6 C8.21160714,12.6 7.61071429,11.9943 7.61071429,11.2509 C7.61071429,10.5066 8.21160714,9.9 8.95,9.9 C9.68839286,9.9 10.2892857,10.5066 10.2892857,11.2509 C10.2892857,11.9943 9.68839286,12.6 8.95,12.6 L8.95,12.6 Z M8.95,9 C7.71696429,9 6.71785714,10.008 6.71785714,11.2509 C6.71785714,12.339 7.48392857,13.2462 8.50357143,13.4541 L8.50357143,14.85 C8.50357143,15.0984 8.70357143,15.3 8.95,15.3 C9.19642857,15.3 9.39642857,15.0984 9.39642857,14.85 L9.39642857,13.4541 C10.4160714,13.2462 11.1821429,12.339 11.1821429,11.2509 C11.1821429,10.008 10.1839286,9 8.95,9 L8.95,9 Z" id="Page-1"></path>
        </g>
    </g>
</svg>