<?xml version="1.0" encoding="UTF-8" standalone="no"?>
<svg width="24px" height="24px" viewBox="0 0 24 24" version="1.1" xmlns="http://www.w3.org/2000/svg" xmlns:xlink="http://www.w3.org/1999/xlink">
    <!-- Generator: sketchtool 43.2 (39069) - http://www.bohemiancoding.com/sketch -->
    <title>lock</title>
    <desc>Created with sketchtool.</desc>
    <defs></defs>
    <g id="Android" stroke="none" stroke-width="1" fill="none" fill-rule="evenodd">
        <g id="lock" fill="#000000">
            <path d="M12,15.4285714 C11.06245,15.4285714 10.3,14.6597143 10.3,13.7142857 C10.3,12.7688571 11.06245,12 12,12 C12.93755,12 13.7,12.7688571 13.7,13.7142857 C13.7,14.6597143 12.93755,15.4285714 12,15.4285714 L12,15.4285714 Z M12,10.2857143 C10.1249,10.2857143 8.6,11.8234286 8.6,13.7142857 C8.6,15.3068571 9.688,16.638 11.15,17.0211429 L11.15,19.7142857 C11.15,20.1882857 11.5308,20.5714286 12,20.5714286 C12.4692,20.5714286 12.85,20.1882857 12.85,19.7142857 L12.85,17.0211429 C14.31285,16.638 15.4,15.3068571 15.4,13.7142857 C15.4,11.8234286 13.8751,10.2857143 12,10.2857143 L12,10.2857143 Z M12,22.2857143 C8.25065,22.2857143 5.2,19.2094286 5.2,15.4285714 C5.2,11.6477143 8.25065,8.57142857 12,8.57142857 C15.74935,8.57142857 18.8,11.6477143 18.8,15.4285714 C18.8,19.2094286 15.74935,22.2857143 12,22.2857143 L12,22.2857143 Z M8.6,5.14285714 C8.6,3.22028571 10.09345,1.71428571 12,1.71428571 C13.90655,1.71428571 15.4,3.22028571 15.4,5.14285714 L15.4,7.578 C14.35705,7.11685714 13.20955,6.85714286 12,6.85714286 C10.7913,6.85714286 9.6421,7.11685714 8.6,7.578 L8.6,5.14285714 Z M17.1,8.58857143 L17.1,5.14285714 C17.1,2.25942857 14.8594,0 12,0 C9.1406,0 6.9,2.25942857 6.9,5.14285714 L6.9,8.58857143 C4.84045,10.1537143 3.5,12.6325714 3.5,15.4285714 C3.5,20.1548571 7.3131,24 12,24 C16.6869,24 20.5,20.1548571 20.5,15.4285714 C20.5,12.6334286 19.15955,10.1537143 17.1,8.58857143 L17.1,8.58857143 Z" id="Page-1"></path>
        </g>
    </g>
</svg>