<?xml version="1.0" encoding="UTF-8"?>
<svg width="18px" height="18px" viewBox="0 0 18 18" version="1.1" xmlns="http://www.w3.org/2000/svg" xmlns:xlink="http://www.w3.org/1999/xlink">
    <!-- Generator: sketchtool 46.2 (44496) - http://www.bohemiancoding.com/sketch -->
    <title>mail--small</title>
    <desc>Created with sketchtool.</desc>
    <defs></defs>
    <g id="Android" stroke="none" stroke-width="1" fill="none" fill-rule="evenodd">
        <g id="mail--small" fill="#000000">
            <path d="M16.1111111,4.75288889 L16.1111111,4.94044444 L9.53511111,8.856 C9.21511111,9.04622222 8.78488889,9.04622222 8.46488889,8.856 L1.88888889,4.94044444 L1.88888889,4.75288889 L1.88888889,3.88533333 C1.88888889,2.78488889 2.91555556,1.88888889 4.17777778,1.88888889 L13.8222222,1.88888889 C15.0844444,1.88888889 16.1111111,2.78488889 16.1111111,3.88533333 L16.1111111,4.75288889 Z M16.1111111,13.8213333 C16.1111111,15.0844444 15.0844444,16.1111111 13.8222222,16.1111111 L4.17777778,16.1111111 C2.91555556,16.1111111 1.88888889,15.0844444 1.88888889,13.8213333 L1.88888889,5.97511111 L8.01066667,9.62044444 C8.31111111,9.79911111 8.65511111,9.888 9,9.888 C9.34488889,9.888 9.68888889,9.79911111 9.98933333,9.62044444 L16.1111111,5.97511111 L16.1111111,13.8213333 Z M13.8222222,1 L4.17777778,1 C2.42577778,1 1,2.29422222 1,3.88533333 L1,4.75288889 L1,5.19377778 L1,13.8213333 C1,15.5742222 2.42577778,17 4.17777778,17 L13.8222222,17 C15.5742222,17 17,15.5742222 17,13.8213333 L17,5.19377778 L17,4.75288889 L17,3.88533333 C17,2.29422222 15.5742222,1 13.8222222,1 L13.8222222,1 Z" id="Fill-1"></path>
        </g>
    </g>
</svg>