<?xml version="1.0" encoding="UTF-8"?>
<svg width="24px" height="24px" viewBox="0 0 24 24" version="1.1" xmlns="http://www.w3.org/2000/svg" xmlns:xlink="http://www.w3.org/1999/xlink">
    <!-- Generator: sketchtool 46.2 (44496) - http://www.bohemiancoding.com/sketch -->
    <title>mail</title>
    <desc>Created with sketchtool.</desc>
    <defs></defs>
    <g id="Android" stroke="none" stroke-width="1" fill="none" fill-rule="evenodd">
        <g id="mail" fill="#000000">
            <path d="M17.85,20.3333333 L6.15083333,20.3333333 C4.78083333,20.3333333 3.66666667,19.2191667 3.66666667,17.85 L3.66666667,9.00833333 L10.6408333,13.2858333 C11.0541667,13.54 11.5266667,13.6666667 12,13.6666667 C12.4741667,13.6666667 12.9475,13.54 13.36,13.2858333 L20.3333333,9.00833333 L20.3333333,17.85 C20.3333333,19.2191667 19.22,20.3333333 17.85,20.3333333 L17.85,20.3333333 Z M3.66666667,5.88583333 C3.66666667,4.66166667 4.78083333,3.66666667 6.15083333,3.66666667 L17.85,3.66666667 C19.22,3.66666667 20.3333333,4.66166667 20.3333333,5.88583333 L20.3333333,7.05333333 L12.4883333,11.865 C12.1966667,12.045 11.8041667,12.045 11.5125,11.865 L3.66666667,7.05333333 L3.66666667,5.88583333 Z M22,5.88583333 C22,3.74333333 20.1383333,2 17.85,2 L6.15083333,2 C3.86166667,2 2,3.74333333 2,5.88583333 L2,17.85 C2,20.1383333 3.86166667,22 6.15083333,22 L17.85,22 C20.1383333,22 22,20.1383333 22,17.85 L22,5.88583333 Z" id="Fill-1"></path>
        </g>
    </g>
</svg>