<?xml version="1.0" encoding="UTF-8"?>
<svg width="24px" height="24px" viewBox="0 0 24 24" version="1.1" xmlns="http://www.w3.org/2000/svg" xmlns:xlink="http://www.w3.org/1999/xlink">
    <!-- Generator: sketchtool 46.2 (44496) - http://www.bohemiancoding.com/sketch -->
    <title>mail</title>
    <desc>Created with sketchtool.</desc>
    <defs></defs>
    <g id="Android" stroke="none" stroke-width="1" fill="none" fill-rule="evenodd">
        <g id="mail" fill="#000000">
            <path d="M6.15083333,19.3333333 C4.78083333,19.3333333 3.66666667,18.2191667 3.66666667,16.85 L3.66666667,10.0083333 L10.6408333,14.2858333 C11.0541667,14.54 11.5266667,14.6666667 12,14.6666667 C12.4741667,14.6666667 12.9475,14.54 13.36,14.2858333 L20.3333333,10.0083333 L20.3333333,16.85 C20.3333333,18.2191667 19.22,19.3333333 17.85,19.3333333 L6.15083333,19.3333333 Z M3.66666667,6.88583333 C3.66666667,5.66166667 4.78083333,4.66666667 6.15083333,4.66666667 L17.85,4.66666667 C19.22,4.66666667 20.3333333,5.66166667 20.3333333,6.88583333 L20.3333333,8.05333333 L12.4883333,12.865 C12.1966667,13.045 11.8041667,13.045 11.5125,12.865 L3.66666667,8.05333333 L3.66666667,6.88583333 Z M22,6.88583333 C22,4.74333333 20.1383333,3 17.85,3 L6.15083333,3 C3.86166667,3 2,4.74333333 2,6.88583333 L2,16.85 C2,19.1383333 3.86166667,21 6.15083333,21 L17.85,21 C18.9941667,21 20.0316667,20.5345833 20.783125,19.783125 C21.5345833,19.0316667 22,17.9941667 22,16.85 L22,6.88583333 Z" id="Fill-1"></path>
        </g>
    </g>
</svg>