<?xml version="1.0" encoding="UTF-8"?>
<svg width="18px" height="18px" viewBox="0 0 18 18" version="1.1" xmlns="http://www.w3.org/2000/svg" xmlns:xlink="http://www.w3.org/1999/xlink">
    <!-- Generator: (null) (null) ((null)) - http://www.bohemiancoding.com/sketch -->
    <title>meetup-m--small</title>
    <desc>Created with (null).</desc>
    <defs></defs>
    <g id="Android" stroke="none" stroke-width="1" fill="none" fill-rule="evenodd">
        <g id="meetup-m--small" fill="#000000">
            <path d="M16.6439055,15.7295617 C16.4455036,15.8524882 16.2303015,15.9221466 16.0038993,15.9516489 C15.8086974,15.9762342 15.6110955,15.9852488 15.4158936,16 C14.7846875,15.9803318 14.1630814,15.8926442 13.5702757,15.6779326 C12.5622659,15.3124311 11.9446599,14.5740527 11.6990575,13.5144263 C11.5806564,13.0030521 11.6174567,12.4924974 11.8190587,12.0073475 C12.057461,11.4320515 12.3078634,10.8616725 12.567866,10.2962107 C13.0022702,9.35213518 13.4510745,8.41297676 13.8902788,7.47054031 C13.9750796,7.2894286 14.0454803,7.1001218 14.1134809,6.910815 C14.1742815,6.74363497 14.1886817,6.56825984 14.1558814,6.39124568 C14.1238811,6.21750957 14.0270801,6.10359769 13.8550784,6.0634417 C13.6222762,6.00771502 13.4142742,6.05442709 13.2382725,6.22488516 C13.090271,6.36993843 12.9734699,6.53793797 12.879869,6.72314722 C12.4774651,7.52216943 12.0710611,8.32037214 11.6726573,9.12185288 C11.0814515,10.3109618 10.4974459,11.5033488 9.90544014,12.6916383 C9.80943921,12.8834036 9.69903814,13.0727104 9.57023689,13.243988 C9.13663268,13.8184645 8.50142652,13.9086106 7.90782076,13.700455 C7.55901738,13.5799871 7.38941574,13.3062708 7.36301548,12.9358522 C7.34941535,12.7432674 7.37261557,12.5539606 7.44221625,12.3720294 C7.68301858,11.7475628 7.92382092,11.1230962 8.16462325,10.4969906 C8.4782263,9.67993917 8.79502937,8.86288773 9.10623239,8.04419728 C9.1902332,7.82292959 9.25663384,7.5934668 9.23983368,7.34925283 C9.22463353,7.13208269 9.16623297,6.93294177 9.00543141,6.77723488 C8.82382965,6.60349876 8.61182759,6.55186964 8.37502529,6.62972308 C8.1286229,6.71249359 7.9430211,6.86656146 7.84302013,7.12142906 C7.49341674,8.01879247 7.13981331,8.91533637 6.79020992,9.81269978 C6.2726049,11.1370279 5.75739991,12.462995 5.24219491,13.7881426 C5.1069936,14.1372539 4.93419192,14.4625993 4.68698953,14.7428717 C4.40218676,15.0657586 4.04458329,15.2312997 3.62457922,15.2730947 C3.17337485,15.3198067 2.7357706,15.2681776 2.32056657,15.0813293 C1.63095989,14.7715546 1.19095562,14.2446097 1.04135417,13.4816459 C0.970153477,13.1177835 0.992553694,12.7563796 1.0957547,12.4064488 C1.71336069,10.3191569 2.29816636,8.22203094 3.01657332,6.16751946 C3.19497505,5.65696476 3.38937694,5.15132711 3.59897897,4.65306505 C4.03818323,3.60982887 4.85179112,3.06649376 5.92060149,2.88947961 C6.25500473,2.83457245 6.58620795,2.88128451 6.89741096,3.02961582 C7.34621532,3.24268841 7.79901971,3.4475659 8.24062399,3.67620918 C8.5406269,3.83273558 8.81582957,3.80733077 9.08303216,3.62376054 C9.23743366,3.51804375 9.37903503,3.39101971 9.52223642,3.26891273 C9.69343808,3.12303995 9.8502396,2.95995747 10.0302413,2.82719686 C10.5278462,2.4608759 11.0758515,2.42317844 11.645457,2.61002672 C11.8774593,2.68706065 12.0478609,2.8640748 12.2246626,3.02633778 C12.3334637,3.1271375 12.4374647,3.23285429 12.5438657,3.33611254 C12.7854681,3.56639484 12.9630698,3.59671671 13.2374725,3.41888305 C13.5950759,3.1845032 13.9822797,3.08370347 14.4014837,3.08780102 C14.6846865,3.09107906 14.9662892,3.086162 15.2462919,3.14516672 C16.0166994,3.30579067 16.487104,3.78438449 16.7047061,4.55062631 C16.8359074,5.01446895 16.8055071,5.46929698 16.6871059,5.92740305 C16.5223043,6.56416229 16.2775019,7.17141917 16.0230995,7.77293948 C15.6518959,8.65063465 15.2686922,9.52341276 14.9014886,10.402747 C14.6582862,10.9878771 14.4486842,11.5861193 14.321483,12.2114054 C14.2662824,12.4810242 14.2366821,12.752282 14.2462822,13.0284569 C14.2606824,13.4398509 14.4438842,13.7324159 14.8254879,13.8676351 C15.0334899,13.9405715 15.254292,13.9799079 15.4718941,14.0241615 C15.7142965,14.0733321 15.9606989,14.0995564 16.2023012,14.152005 C16.3335025,14.1815074 16.4631037,14.2347755 16.5855049,14.2921412 C17.0895098,14.5314381 17.1631105,15.4058553 16.6439055,15.7295617" id="Fill-1"></path>
        </g>
    </g>
</svg>