<?xml version="1.0" encoding="UTF-8" standalone="no"?>
<svg width="24px" height="24px" viewBox="0 0 24 24" version="1.1" xmlns="http://www.w3.org/2000/svg" xmlns:xlink="http://www.w3.org/1999/xlink">
    <!-- Generator: sketchtool 43.2 (39069) - http://www.bohemiancoding.com/sketch -->
    <title>meetup-m</title>
    <desc>Created with sketchtool.</desc>
    <defs></defs>
    <g id="Android" stroke="none" stroke-width="1" fill="none" fill-rule="evenodd">
        <g id="meetup-m" fill="#000000">
            <path d="M21.5548819,20.1594481 C21.3068795,20.3142444 21.0378768,20.4019623 20.7548741,20.4391134 C20.5108717,20.4700727 20.2638693,20.4814244 20.019867,20.5 C19.2308593,20.4752326 18.4538518,20.3648112 17.7128446,20.0944336 C16.4528324,19.6341725 15.6808249,18.7043626 15.3738219,17.3700183 C15.2258205,16.7260656 15.2718209,16.0831448 15.5238234,15.4722153 C15.8218263,14.7477685 16.1348293,14.0295136 16.4598324,13.3174505 C17.0028377,12.1286147 17.5638432,10.9459707 18.1128485,9.7591989 C18.2188495,9.53113232 18.3068504,9.29274597 18.3918512,9.05435963 C18.4678519,8.84383663 18.4858521,8.62299387 18.4448517,8.40008716 C18.4048513,8.18130835 18.2838501,8.03786375 18.0688481,7.98729695 C17.7778452,7.91712262 17.5178427,7.97594522 17.2978406,8.19059613 C17.1128388,8.37325579 16.9668374,8.58481077 16.8498362,8.81803724 C16.3468314,9.82421336 15.8388264,10.8293575 15.3408216,11.8386296 C14.6018144,13.336026 13.8718073,14.8375504 13.1318002,16.3339149 C13.011799,16.5753971 12.8737977,16.8137835 12.7127961,17.0294664 C12.1707909,17.7528812 11.3767832,17.8663985 10.634776,17.6042767 C10.1987717,17.4525763 9.98676967,17.1078965 9.95376935,16.6414436 C9.93676918,16.3989293 9.96576947,16.160543 10.0527703,15.9314444 C10.3537732,15.1450791 10.6547761,14.3587137 10.9557791,13.5702845 C11.3477829,12.5414049 11.7437867,11.5125253 12.1327905,10.4815818 C12.2377915,10.2029484 12.3207923,9.91399523 12.2997921,9.60646653 C12.2807919,9.33299302 12.2077912,9.08222297 12.0067893,8.88614762 C11.7797871,8.66736882 11.5147845,8.60235436 11.2187816,8.70039203 C10.9107786,8.80462156 10.6787764,8.99863295 10.5537752,9.31957734 C10.1167709,10.4495905 9.67476664,11.5785717 9.2377624,12.7085849 C8.59075613,14.3762573 7.94674988,16.0459937 7.30274364,17.7146981 C7.133742,18.1543197 6.9177399,18.5640139 6.60873691,18.9169496 C6.25273345,19.3235479 5.80572912,19.532007 5.28072403,19.5846377 C4.71671856,19.6434603 4.16971325,19.5784459 3.65070822,19.3431555 C2.78869986,18.9530687 2.23869452,18.2895085 2.05169271,17.3287393 C1.96269185,16.8705421 1.99069212,16.4154409 2.11969337,15.9747874 C2.89170086,13.3463458 3.62270795,10.7055204 4.52071666,8.11835784 C4.74371882,7.4754371 4.98672118,6.83870821 5.24872372,6.2112671 C5.79772904,4.89756228 6.8147389,4.21336252 8.15075186,3.99045581 C8.56875592,3.92131345 8.98275993,3.98013605 9.3717637,4.16692362 C9.93276915,4.43523725 10.4987746,4.69323113 11.05078,4.9811523 C11.4257836,5.17825962 11.769787,5.14626838 12.1037902,4.91510586 C12.2967921,4.78198102 12.4737938,4.62202482 12.6527955,4.46826047 C12.8667976,4.28456883 13.0627995,4.0792057 13.2878017,3.91202567 C13.9098077,3.45073262 14.5948144,3.40326174 15.3068213,3.63855216 C15.5968241,3.73555786 15.8098261,3.95846457 16.0308283,4.16279572 C16.1668296,4.28972871 16.2968309,4.42285355 16.4298322,4.55288246 C16.7318351,4.84286758 16.9538372,4.88105067 17.2968406,4.65711199 C17.7438449,4.36196699 18.2278496,4.235034 18.7518547,4.24019388 C19.1058581,4.24432178 19.4578615,4.23812993 19.8078649,4.31243217 C20.7708743,4.51469937 21.35888,5.11737306 21.6308826,6.08227017 C21.7948842,6.6663683 21.7568838,7.23911471 21.6088824,7.81598902 C21.4028804,8.61783399 21.0968774,9.38252784 20.7788743,10.1399979 C20.3148698,11.2452436 19.8358652,12.3442976 19.3768607,13.4516073 C19.0728578,14.1884378 18.8108553,14.9417799 18.6518537,15.7291772 C18.582853,16.0686972 18.5458527,16.4102811 18.5578528,16.7580568 C18.575853,17.2761085 18.8048552,17.6445238 19.2818598,17.8147997 C19.5418623,17.9066455 19.817865,17.9561804 20.0898677,18.011907 C20.3928706,18.0738256 20.7008736,18.1068488 21.0028765,18.1728952 C21.1668781,18.2100463 21.3288797,18.2771248 21.4818812,18.349363 C22.1118873,18.6506999 22.2038882,19.7518178 21.5548819,20.1594481" id="Fill-1"></path>
        </g>
    </g>
</svg>