<?xml version="1.0" encoding="UTF-8" standalone="no"?>
<svg width="18px" height="18px" viewBox="0 0 18 18" version="1.1" xmlns="http://www.w3.org/2000/svg" xmlns:xlink="http://www.w3.org/1999/xlink">
    <!-- Generator: sketchtool 43.2 (39069) - http://www.bohemiancoding.com/sketch -->
    <title>messages--small</title>
    <desc>Created with sketchtool.</desc>
    <defs></defs>
    <g id="Android" stroke="none" stroke-width="1" fill="none" fill-rule="evenodd">
        <g id="messages--small" fill="#000000">
            <path d="M13.4444444,1 L4.55555556,1 C2.592,1 1,2.592 1,4.55555556 L1,9.87644444 C1,11.84 2.592,13.432 4.55555556,13.432 L5.38044444,13.432 C5.69511111,13.432 5.98666667,13.5991111 6.14666667,13.8702222 L7.40977778,16.0186667 C7.73777778,16.6728889 8.36888889,17 9,17 C9.63111111,17 10.2622222,16.6728889 10.5902222,16.0186667 L11.8533333,13.8702222 C12.0133333,13.5991111 12.3048889,13.432 12.6195556,13.432 L13.4444444,13.432 C15.408,13.432 17,11.84 17,9.87644444 L17,4.55555556 C17,2.592 15.408,1 13.4444444,1 M13.4444444,1.88888889 C14.9146667,1.88888889 16.1111111,3.08533333 16.1111111,4.55555556 L16.1111111,9.87644444 C16.1111111,11.3466667 14.9146667,12.5431111 13.4444444,12.5431111 L12.6195556,12.5431111 C11.992,12.5431111 11.4053333,12.8791111 11.0871111,13.4195556 L9.824,15.568 C9.81422222,15.5857778 9.80444444,15.6026667 9.79555556,15.6204444 C9.64177778,15.928 9.344,16.1111111 9,16.1111111 C8.656,16.1111111 8.35822222,15.928 8.20444444,15.6204444 C8.19555556,15.6026667 8.18577778,15.5857778 8.176,15.568 L6.91288889,13.4195556 C6.59466667,12.8791111 6.008,12.5431111 5.38044444,12.5431111 L4.55555556,12.5431111 C3.08533333,12.5431111 1.88888889,11.3466667 1.88888889,9.87644444 L1.88888889,4.55555556 C1.88888889,3.08533333 3.08533333,1.88888889 4.55555556,1.88888889 L13.4444444,1.88888889" id="Page-1"></path>
        </g>
    </g>
</svg>