<?xml version="1.0" encoding="UTF-8"?>
<svg width="16px" height="16px" viewBox="0 0 16 16" version="1.1" xmlns="http://www.w3.org/2000/svg" xmlns:xlink="http://www.w3.org/1999/xlink">
    <!-- Generator: (null) (null) ((null)) - http://www.bohemiancoding.com/sketch -->
    <title>microphone--small</title>
    <desc>Created with (null).</desc>
    <defs></defs>
    <g id="Android" stroke="none" stroke-width="1" fill="none" fill-rule="evenodd">
        <g id="microphone--small" fill="#000000">
            <path d="M6.161375,7.542375 C6.161375,8.61775 6.990875,9.49275 8.011125,9.49275 C9.0305,9.49275 9.860875,8.61775 9.860875,7.542375 L9.860875,3.82625 C9.860875,2.7325 9.048,1.875 8.011125,1.875 C6.97425,1.875 6.161375,2.7325 6.161375,3.82625 L6.161375,7.542375 Z M5.286375,7.542375 L5.286375,3.82625 C5.286375,2.26875 6.50875,1 8.011125,1 C9.5135,1 10.735875,2.26875 10.735875,3.82625 L10.735875,7.542375 C10.735875,9.099875 9.5135,10.36775 8.011125,10.36775 C6.50875,10.36775 5.286375,9.099875 5.286375,7.542375 Z M13.02225,6.6875 L13.02225,7.587 C13.02225,10.114875 11.12,12.204375 8.6665,12.5255 L8.6665,14.5625 C8.6665,14.804875 8.4705,15 8.229,15 C7.986625,15 7.7915,14.804875 7.7915,14.5625 L7.7915,12.56225 C5.130625,12.44675 3,10.26275 3,7.587 L3,6.6875 C3,6.446 3.195125,6.25 3.4375,6.25 C3.679,6.25 3.875,6.446 3.875,6.6875 L3.875,7.587 C3.875,9.854125 5.73,11.698625 8.011125,11.698625 C10.291375,11.698625 12.14725,9.854125 12.14725,7.587 L12.14725,6.6875 C12.14725,6.446 12.342375,6.25 12.58475,6.25 C12.82625,6.25 13.02225,6.446 13.02225,6.6875 Z" id="Fill-1"></path>
        </g>
    </g>
</svg>