<?xml version="1.0" encoding="UTF-8"?>
<svg width="24px" height="24px" viewBox="0 0 24 24" version="1.1" xmlns="http://www.w3.org/2000/svg" xmlns:xlink="http://www.w3.org/1999/xlink">
    <!-- Generator: sketchtool 46.2 (44496) - http://www.bohemiancoding.com/sketch -->
    <title>native-nav-going</title>
    <desc>Created with sketchtool.</desc>
    <defs></defs>
    <g id="Android" stroke="none" stroke-width="1" fill="none" fill-rule="evenodd">
        <g id="native-nav-going" fill-rule="nonzero" fill="#000000">
            <path d="M12,22 C6.4771525,22 2,17.5228475 2,12 C2,6.4771525 6.4771525,2 12,2 C17.5228475,2 22,6.4771525 22,12 C22,17.5228475 17.5228475,22 12,22 Z M8.85555085,12.5357535 C8.43106792,12.1112706 7.74284512,12.1112706 7.31836219,12.5357535 C6.89387927,12.9602364 6.89387927,13.6484592 7.31836219,14.0729422 L9.92705785,16.6816378 C10.3716621,17.126242 11.0996254,17.1020035 11.5136703,16.6288094 L17.6006268,9.67228762 C17.9959334,9.22050867 17.9501535,8.53381017 17.4983746,8.13850359 C17.0465956,7.74319701 16.3598971,7.78897691 15.9645905,8.24075586 L10.6427065,14.3229091 L8.85555085,12.5357535 Z" id="Attending-Blk"></path>
        </g>
    </g>
</svg>