<?xml version="1.0" encoding="UTF-8"?>
<svg width="26px" height="26px" viewBox="0 0 26 26" version="1.1" xmlns="http://www.w3.org/2000/svg" xmlns:xlink="http://www.w3.org/1999/xlink">
    <!-- Generator: sketchtool 46.2 (44496) - http://www.bohemiancoding.com/sketch -->
    <title>native-nav-going</title>
    <desc>Created with sketchtool.</desc>
    <defs></defs>
    <g id="Android" stroke="none" stroke-width="1" fill="none" fill-rule="evenodd">
        <g id="native-nav-going" fill="#000000">
            <path d="M13,24 C6.935,24 2,19.065 2,13 C2,6.935 6.935,2 13,2 C19.065,2 24,6.935 24,13 C24,19.065 19.065,24 13,24 M0,13 C0,5.82 5.82,0 13,0 C20.18,0 26,5.82 26,13 C26,20.18 20.18,26 13,26 C5.82,26 0,20.18 0,13 Z M17.3145,9.2725 L11.5925,14.6675 L8.6365,12.2285 C8.2095,11.8765 7.5805,11.9395 7.2285,12.3635 C6.8765,12.7895 6.9375,13.4195 7.3635,13.7715 L11.0005,16.7715 C11.1855,16.9245 11.4115,17.0005 11.6365,17.0005 C11.8835,17.0005 12.1305,16.9085 12.3225,16.7275 L18.6855,10.7275 C19.0875,10.3485 19.1065,9.7155 18.7275,9.3145 C18.3495,8.9125 17.7135,8.8935 17.3145,9.2725 Z" id="Attending"></path>
        </g>
    </g>
</svg>