<?xml version="1.0" encoding="UTF-8"?>
<svg width="24px" height="24px" viewBox="0 0 24 24" version="1.1" xmlns="http://www.w3.org/2000/svg" xmlns:xlink="http://www.w3.org/1999/xlink">
    <!-- Generator: sketchtool 52.3 (67297) - http://www.bohemiancoding.com/sketch -->
    <title>native-nav-m</title>
    <desc>Created with sketchtool.</desc>
    <g id="Android" stroke="none" stroke-width="1" fill="none" fill-rule="evenodd">
        <g id="native-nav-m" fill="#000000" fill-rule="nonzero">
            <path d="M18.3973326,16.9261251 C18.1236807,14.3013956 22.0270052,8.64320538 21.7195835,6.44700311 C21.4424381,4.46972239 20.1102772,4.05633331 18.9516233,4.03537274 C17.8244103,4.01557664 17.5274688,4.19490599 17.1466851,4.41615648 C16.9265991,4.5430844 16.611026,4.79577575 16.1731829,4.37889324 C15.8820639,4.10174789 15.6899253,3.90728035 15.3813391,3.66157585 C15.2252992,3.53581242 14.9749368,3.37860812 14.5568899,3.31689088 C14.1376784,3.25517363 13.5961969,3.31689088 13.251512,3.46477936 C12.906827,3.61266785 12.635504,3.87118158 12.3525363,4.11688608 C12.0684041,4.36375505 11.3499222,5.16840816 10.6803483,4.87146671 C10.3903937,4.74337432 9.4052468,4.25196533 8.69608075,3.94454359 C7.32549217,3.35066069 5.34821144,4.31251809 4.63671644,5.57713933 C3.57704302,7.46009748 1.48564363,14.8568508 1.17007055,15.8326819 C0.45974002,18.0230618 2.06904624,19.8082039 4.2407945,19.70573 C5.15840181,19.6626444 5.76975186,19.3272752 6.34966104,18.2722597 C6.68503021,17.6632386 9.8326096,9.43970715 10.0666693,9.04494969 C10.2366829,8.759653 10.8037828,8.38119821 11.283547,8.62806718 C11.7644757,8.87493616 11.8599628,9.38847019 11.7889297,9.87172785 C11.6736466,10.6542559 9.4541548,15.6708197 9.3679836,16.2390841 C9.2235885,17.204435 9.6823922,17.7412585 10.6838418,17.79366 C11.3708828,17.8297587 12.0544303,17.5828898 12.5982408,16.5581506 C12.9010046,15.9863928 16.4025848,8.97275216 16.7123355,8.5046327 C17.053527,7.99109866 17.3271789,7.8222496 17.6730284,7.83971674 C17.9431869,7.85369046 18.3728786,7.92239456 18.2657468,8.72937662 C18.1597795,9.52005601 15.3452403,14.6658767 15.0494633,15.92584 C14.6547059,17.6108372 15.5793,19.316795 17.102435,20.0632242 C18.0736082,20.539495 22.3227822,21.3546284 21.9804261,19.1630841 C21.71609,17.4745935 18.5906357,18.776478 18.3973326,16.9261251 Z" id="M2-Blk"></path>
        </g>
    </g>
</svg>