<?xml version="1.0" encoding="UTF-8"?>
<svg width="24px" height="24px" viewBox="0 0 24 24" version="1.1" xmlns="http://www.w3.org/2000/svg" xmlns:xlink="http://www.w3.org/1999/xlink">
    <!-- Generator: (null) (null) ((null)) - http://www.bohemiancoding.com/sketch -->
    <title>native-nav-notifications</title>
    <desc>Created with (null).</desc>
    <defs></defs>
    <g id="Android" stroke="none" stroke-width="1" fill="none" fill-rule="evenodd">
        <g id="native-nav-notifications" fill="#000000" fill-rule="nonzero">
            <path d="M12.0717778,18.863636 C12.9157778,18.863636 13.6022963,19.5672004 13.6022963,20.431818 C13.6022963,21.2965874 12.9157778,22 12.0717778,22 C11.2277778,22 10.5412593,21.2965874 10.5412593,20.431818 C10.5412593,19.5672004 11.2277778,18.863636 12.0717778,18.863636 Z M5.52548148,14.4812725 C6.13274074,14.419796 6.66666667,13.9269214 6.66666667,13.3016827 L6.66666667,8.98603253 C6.66666667,6.61395046 8.20903704,4.59797671 10.3032593,3.95740678 C10.4257778,3.9199137 10.5185185,3.80121093 10.5185185,3.67006107 L10.5185185,3.54027735 C10.5185185,2.6865889 11.1453333,1.99516804 11.9797037,2.00002544 C12.0007407,2.00017723 12.0028148,2.00260593 12.0235556,2.00366849 C12.0444444,2.00260593 12.0877037,2.00017723 12.1088889,2.00002544 C12.9431111,1.99516804 13.6296296,2.6865889 13.6296296,3.54027735 L13.6296296,3.67006107 C13.6296296,3.80121093 13.7223704,3.9199137 13.845037,3.95740678 C15.9391111,4.59797671 17.4814815,6.61395046 17.4814815,8.98603253 L17.4814815,13.3016827 C17.4814815,13.9269214 17.9413333,14.419796 18.5485926,14.4812725 C19.3894815,14.5664288 20,15.3023253 20,16.1898638 L20,16.2578674 C20,17.1778897 19.2207407,17.9626638 18.3226667,17.9626638 L12.0051852,17.9626638 L5.6877037,17.9626638 C4.78962963,17.9626638 4,17.1778897 4,16.2578674 L4,16.1898638 C4,15.3023253 4.68474074,14.5664288 5.52548148,14.4812725 Z" id="Updates-Blk"></path>
        </g>
    </g>
</svg>