<?xml version="1.0" encoding="UTF-8" standalone="no"?>
<svg width="24px" height="24px" viewBox="0 0 24 24" version="1.1" xmlns="http://www.w3.org/2000/svg" xmlns:xlink="http://www.w3.org/1999/xlink">
    <!-- Generator: sketchtool 43.2 (39069) - http://www.bohemiancoding.com/sketch -->
    <title>native-nav-profile</title>
    <desc>Created with sketchtool.</desc>
    <defs></defs>
    <g id="Android" stroke="none" stroke-width="1" fill="none" fill-rule="evenodd">
        <g id="native-nav-profile" fill-rule="nonzero" fill="#000000">
            <path d="M19.962231,20.4222304 C19.1697769,17.3235229 15.746684,14.9867499 12.0000843,14.9867499 C8.25331294,14.9867499 4.83022004,17.3235229 4.03776587,20.4222304 C3.94126333,20.7992081 4.03175593,21.1994721 4.28571903,21.5056137 C4.54174268,21.8145237 4.92586402,22 5.33969165,22 L18.6603052,22 C19.0741329,22 19.4582542,21.8145237 19.7144496,21.5056137 C19.968241,21.1994721 20.0587336,20.7992081 19.962231,20.4222304 M12.0479922,13.5004971 C8.99528357,13.5004971 6.51163091,11.1451602 6.51163091,8.25032997 C6.51163091,5.35533691 8.99528357,3 12.0479922,3 C15.100529,3 17.5841817,5.35533691 17.5841817,8.25032997 C17.5841817,11.1451602 15.100529,13.5004971 12.0479922,13.5004971" id="Profile-Blk"></path>
        </g>
    </g>
</svg>