<?xml version="1.0" encoding="UTF-8"?>
<svg width="24px" height="24px" viewBox="0 0 24 24" version="1.1" xmlns="http://www.w3.org/2000/svg" xmlns:xlink="http://www.w3.org/1999/xlink">
    <!-- Generator: sketchtool 52.3 (67297) - http://www.bohemiancoding.com/sketch -->
    <title>native-nav-find</title>
    <desc>Created with sketchtool.</desc>
    <g id="Android" stroke="none" stroke-width="1" fill="none" fill-rule="evenodd">
        <g id="native-nav-find" fill="#000000" fill-rule="nonzero">
            <path d="M10.1004723,16.3482877 C10.0116354,16.542344 9.88744609,16.7240556 9.72790439,16.8835973 L5.15160971,21.4600707 C4.43161459,22.1798871 3.26010317,22.1800658 2.53992931,21.4600707 C1.81993419,20.7398968 1.82011294,19.5683854 2.53992931,18.8483903 L7.11640274,14.2720956 C7.19935744,14.1891409 7.28830585,14.1157439 7.38186685,14.0519045 C5.20387908,11.0884841 5.45513275,6.89879684 8.13562785,4.21830174 C11.0933635,1.26056609 15.8888027,1.26056609 18.8463596,4.21830174 C21.8040952,7.17603739 21.8040952,11.9712978 18.8463596,14.9290335 C16.4800592,17.2954769 12.9372607,17.7685616 10.1004723,16.3482877 Z M10.169227,12.8954343 C11.975471,14.7015219 14.9038516,14.7015219 16.7100956,12.8954343 C18.5161832,11.0891903 18.5161832,8.16080972 16.7100956,6.35456569 C14.9038516,4.5484781 11.975471,4.5484781 10.169227,6.35456569 C8.36313942,8.16080972 8.36313942,11.0891903 10.169227,12.8954343 Z" id="Search" transform="translate(11.532331, 12.000000) scale(-1, 1) translate(-11.532331, -12.000000) "></path>
        </g>
    </g>
</svg>