<?xml version="1.0" encoding="UTF-8"?>
<svg width="24px" height="24px" viewBox="0 0 24 24" version="1.1" xmlns="http://www.w3.org/2000/svg" xmlns:xlink="http://www.w3.org/1999/xlink">
    <!-- Generator: sketchtool 46.2 (44496) - http://www.bohemiancoding.com/sketch -->
    <title>native-nav-notifications</title>
    <desc>Created with sketchtool.</desc>
    <defs></defs>
    <g id="Android" stroke="none" stroke-width="1" fill="none" fill-rule="evenodd">
        <g id="native-nav-notifications" fill="#010202">
            <path d="M14,22 C14,23.103 13.103,24 12,24 C10.897,24 10,23.103 10,22 C10,20.897 10.897,20 12,20 C13.103,20 14,20.897 14,22 M20,16 L4,16 C3.449,16 3,15.552 3,14.996 C3,14.444 3.449,13.996 4,13.996 C5.654,13.996 7,12.65 7,10.996 L7,7 C7,4.243 9.243,2 12,2 L12.155,2.002 C14.827,2.082 17,4.437 17,7.251 L17,10.996 C17,12.65 18.346,13.996 20,13.996 C20.552,13.996 21,14.444 21,15 C21,15.552 20.552,16 20,16 M20,11.996 C19.448,11.996 19,11.547 19,10.996 L19,7.251 C19,3.366 15.956,0.115 12.215,0.003 L12,0 C8.14,0 5,3.14 5,7 L5,10.996 C5,11.547 4.551,11.996 4,11.996 C2.346,11.996 1,13.342 1,15 C1,16.654 2.346,18 4,18 L20,18 C21.654,18 23,16.654 23,14.996 C23,13.342 21.654,11.996 20,11.996" id="Page-1"></path>
        </g>
    </g>
</svg>