<?xml version="1.0" encoding="UTF-8"?>
<svg width="16px" height="16px" viewBox="0 0 16 16" version="1.1" xmlns="http://www.w3.org/2000/svg" xmlns:xlink="http://www.w3.org/1999/xlink">
    <!-- Generator: sketchtool 52.3 (67297) - http://www.bohemiancoding.com/sketch -->
    <title>notifications--small</title>
    <desc>Created with sketchtool.</desc>
    <g id="Android" stroke="none" stroke-width="1" fill="none" fill-rule="evenodd">
        <g id="notifications--small" fill="#000000">
            <path d="M13.6333332,8.78888878 C13.6333332,8.35421101 13.2791221,7.9999999 12.8444443,7.9999999 C11.9742999,7.9999999 11.2666665,7.29236658 11.2666665,6.42222215 L11.2666665,4.84444439 C11.2666665,3.10415553 9.85139989,1.68888888 8.11111103,1.68888888 C6.37082216,1.68888888 4.95555551,3.10415553 4.95555551,4.84444439 L4.95555551,6.42222215 C4.95555551,7.29236658 4.24792219,7.9999999 3.37777776,7.9999999 C2.94309998,7.9999999 2.58888888,8.35421101 2.58888888,8.78888878 C2.58888888,9.22356655 2.94309998,9.57777766 3.37777776,9.57777766 L12.8444443,9.57777766 C13.2791221,9.57777766 13.6333332,9.22356655 13.6333332,8.78888878 M14.4222221,8.78888878 C14.4222221,9.6598221 13.7153776,10.3666665 12.8444443,10.3666665 L3.37777776,10.3666665 C2.50684443,10.3666665 1.8,9.6598221 1.8,8.78888878 C1.8,7.91795546 2.50684443,7.21111103 3.37777776,7.21111103 C3.81324442,7.21111103 4.16666663,6.85768881 4.16666663,6.42222215 L4.16666663,4.84444439 C4.16666663,2.6663222 5.93298883,0.9 8.11111103,0.9 C10.2892332,0.9 12.0555554,2.6663222 12.0555554,4.84444439 L12.0555554,6.42222215 C12.0555554,6.85768881 12.4089776,7.21111103 12.8444443,7.21111103 C13.7153776,7.21111103 14.4222221,7.91795546 14.4222221,8.78888878 M9.68888878,13.5222221 C9.68888878,14.3931554 8.98204435,15.0999998 8.11111103,15.0999998 C7.2401777,15.0999998 6.53333327,14.3931554 6.53333327,13.5222221 C6.53333327,12.6512887 7.2401777,11.9444443 8.11111103,11.9444443 C8.98204435,11.9444443 9.68888878,12.6512887 9.68888878,13.5222221" id="Page-1"></path>
        </g>
    </g>
</svg>