<?xml version="1.0" encoding="UTF-8"?>
<svg width="24px" height="24px" viewBox="0 0 24 24" version="1.1" xmlns="http://www.w3.org/2000/svg" xmlns:xlink="http://www.w3.org/1999/xlink">
    <!-- Generator: (null) (null) ((null)) - http://www.bohemiancoding.com/sketch -->
    <title>notifications</title>
    <desc>Created with (null).</desc>
    <defs></defs>
    <g id="Android" stroke="none" stroke-width="1" fill="none" fill-rule="evenodd">
        <g id="notifications" fill="#000000">
            <path d="M19.78,14.62043 C19.78,14.14227 19.39472,13.75699 18.92,13.75699 C17.49756,13.75699 16.34,12.59943 16.34,11.17699 L16.34,7.95715 C16.34,5.53625 14.47036,3.51181 12.17244,3.44301 C12.12858,3.44129 12.083,3.44043 12.03828,3.44043 C10.9134,3.44043 9.8556,3.86871 9.04634,4.65389 C8.20354,5.47089 7.74,6.56739 7.74,7.74043 L7.74,11.17699 C7.74,12.59943 6.58244,13.75699 5.16,13.75699 C4.68528,13.75699 4.3,14.14227 4.3,14.61699 C4.3,15.09515 4.68528,15.48043 5.16,15.48043 L18.92,15.48043 C19.39472,15.48043 19.78,15.09515 19.78,14.62043 M21.5,14.61699 C21.5,16.04287 20.34244,17.20043 18.92,17.20043 L5.16,17.20043 C3.73756,17.20043 2.58,16.04287 2.58,14.62043 C2.58,13.19455 3.73756,12.03699 5.16,12.03699 C5.63472,12.03699 6.02,11.65171 6.02,11.17699 L6.02,7.74043 C6.02,6.09783 6.6693,4.56359 7.84836,3.41979 C9.0257,2.27599 10.58488,1.67313 12.2249,1.72301 C15.44216,1.82019 18.06,4.61605 18.06,7.95715 L18.06,11.17699 C18.06,11.65171 18.44528,12.03699 18.92,12.03699 C20.34244,12.03699 21.5,13.19455 21.5,14.61699 M13.76,20.64043 C13.76,21.58901 12.98858,22.36043 12.04,22.36043 C11.09142,22.36043 10.32,21.58901 10.32,20.64043 C10.32,19.69185 11.09142,18.92043 12.04,18.92043 C12.98858,18.92043 13.76,19.69185 13.76,20.64043" id="Fill-1"></path>
        </g>
    </g>
</svg>