<?xml version="1.0" encoding="UTF-8" standalone="no"?>
<svg width="18px" height="18px" viewBox="0 0 18 18" version="1.1" xmlns="http://www.w3.org/2000/svg" xmlns:xlink="http://www.w3.org/1999/xlink">
    <!-- Generator: sketchtool 43.2 (39069) - http://www.bohemiancoding.com/sketch -->
    <title>notifications--small</title>
    <desc>Created with sketchtool.</desc>
    <defs></defs>
    <g id="Android" stroke="none" stroke-width="1" fill="none" fill-rule="evenodd">
        <g id="notifications--small" fill="#000000">
            <path d="M15.3,9.9 C15.3,9.4041 14.8959,9 14.4,9 C13.4073,9 12.6,8.1927 12.6,7.2 L12.6,5.4 C12.6,3.4146 10.9854,1.8 9,1.8 C7.0146,1.8 5.4,3.4146 5.4,5.4 L5.4,7.2 C5.4,8.1927 4.5927,9 3.6,9 C3.1041,9 2.7,9.4041 2.7,9.9 C2.7,10.3959 3.1041,10.8 3.6,10.8 L14.4,10.8 C14.8959,10.8 15.3,10.3959 15.3,9.9 M16.2,9.9 C16.2,10.8936 15.3936,11.7 14.4,11.7 L3.6,11.7 C2.6064,11.7 1.8,10.8936 1.8,9.9 C1.8,8.9064 2.6064,8.1 3.6,8.1 C4.0968,8.1 4.5,7.6968 4.5,7.2 L4.5,5.4 C4.5,2.9151 6.5151,0.9 9,0.9 C11.4849,0.9 13.5,2.9151 13.5,5.4 L13.5,7.2 C13.5,7.6968 13.9032,8.1 14.4,8.1 C15.3936,8.1 16.2,8.9064 16.2,9.9 M10.8,15.3 C10.8,16.2936 9.9936,17.1 9,17.1 C8.0064,17.1 7.2,16.2936 7.2,15.3 C7.2,14.3064 8.0064,13.5 9,13.5 C9.9936,13.5 10.8,14.3064 10.8,15.3" id="Page-1"></path>
        </g>
    </g>
</svg>