<?xml version="1.0" encoding="UTF-8"?>
<svg width="24px" height="24px" viewBox="0 0 24 24" version="1.1" xmlns="http://www.w3.org/2000/svg" xmlns:xlink="http://www.w3.org/1999/xlink">
    <!-- Generator: sketchtool 46.2 (44496) - http://www.bohemiancoding.com/sketch -->
    <title>notifications-mute</title>
    <desc>Created with sketchtool.</desc>
    <defs></defs>
    <g id="Android" stroke="none" stroke-width="1" fill="none" fill-rule="evenodd">
        <g id="notifications-mute" fill="#000000">
            <path d="M11.1664984,16.1669158 C11.1664984,15.7069222 10.7931702,15.333594 10.3331766,15.333594 L4.49992381,15.333594 C4.03993016,15.333594 3.66660198,14.9602658 3.66660198,14.4969389 C3.66660198,14.0369452 4.03993016,13.663617 4.49992381,13.663617 C5.87740479,13.663617 6.99822265,12.5436325 6.99988929,11.1669849 L6.99988929,11.1669849 L6.99988929,10.333663 C6.99988929,9.87366938 6.62656111,9.5003412 6.16656746,9.5003412 C5.70657382,9.5003412 5.33324564,9.87366938 5.33324564,10.333663 L5.33324564,11.1636516 C5.33324564,11.6294785 4.9499176,12.0069733 4.48242405,11.9969734 C3.74993417,11.9819736 3.01161103,12.1911374 2.58745022,12.7869625 C1.14830342,14.8094346 2.57245043,17.0002376 4.49992381,17.0002376 L10.3331766,17.0002376 C10.7931702,17.0002376 11.1664984,16.6269095 11.1664984,16.1669158 L11.1664984,16.1669158 Z M11.1664984,18.6668813 C10.2473444,18.6668813 9.49985477,19.414371 9.49985477,20.3335249 C9.49985477,21.2526789 10.2473444,22.0001686 11.1664984,22.0001686 C12.0856524,22.0001686 12.8331421,21.2526789 12.8331421,20.3335249 C12.8331421,19.414371 12.0856524,18.6668813 11.1664984,18.6668813 L11.1664984,18.6668813 Z M16.5114246,15.333594 L7.34738449,6.16955386 C7.5615482,5.67956063 7.86821063,5.22873352 8.26570514,4.84290551 C9.04986098,4.08208269 10.0748468,3.66708842 11.1648318,3.66708842 C11.2081645,3.66708842 11.2523306,3.66792174 11.29483,3.66958838 C13.5214659,3.73625413 15.3331076,5.69789371 15.3331076,8.04369465 L15.3331076,11.1636516 C15.3331076,12.5419659 16.4547587,13.663617 17.833073,13.663617 C18.2930667,13.663617 18.6663949,14.0369452 18.6663949,14.5002722 C18.6663949,14.9602658 18.2930667,15.333594 17.833073,15.333594 L16.5114246,15.333594 Z M21.7555189,20.5776882 L18.146402,16.9685714 C19.3763851,16.8119069 20.3330385,15.7710879 20.3330385,14.4969389 C20.3330385,13.1186246 19.2113873,11.9969734 17.833073,11.9969734 C17.3730794,11.9969734 16.9997512,11.6236452 16.9997512,11.1636516 L16.9997512,8.04369465 C16.9997512,4.80623935 14.4631196,2.0971101 11.3456626,2.00294473 C9.75651789,1.95461206 8.24570542,2.53877066 7.10488784,3.64708869 C6.70656001,4.0329167 6.38156449,4.46957734 6.11406819,4.93623756 L3.42243869,2.24460806 C3.09660985,1.91877922 2.56995046,1.91877922 2.24412163,2.24460806 C1.91829279,2.57043689 1.91829279,3.09709629 2.24412163,3.42292512 L5.46574381,6.6445473 L5.70407385,6.88287735 L14.1547905,15.333594 L15.8214341,17.0002376 L20.5772018,21.7560053 C20.7396996,21.9185031 20.95303,22.0001686 21.1663603,22.0001686 C21.3796907,22.0001686 21.5930211,21.9185031 21.7555189,21.7560053 C22.0813477,21.4301765 22.0813477,20.9035171 21.7555189,20.5776882 L21.7555189,20.5776882 Z" id="Fill-1"></path>
        </g>
    </g>
</svg>