<?xml version="1.0" encoding="UTF-8"?>
<svg width="20px" height="20px" viewBox="0 0 20 20" version="1.1" xmlns="http://www.w3.org/2000/svg" xmlns:xlink="http://www.w3.org/1999/xlink">
    <!-- Generator: sketchtool 46.2 (44496) - http://www.bohemiancoding.com/sketch -->
    <title>overflow--small</title>
    <desc>Created with sketchtool.</desc>
    <defs></defs>
    <g id="Android" stroke="none" stroke-width="1" fill="none" fill-rule="evenodd">
        <g id="overflow--small" fill="#000000">
            <path d="M10,8 C11.104,8 12,8.896 12,10 C12,11.104 11.104,12 10,12 C8.896,12 8,11.104 8,10 C8,8.896 8.896,8 10,8 Z M10,16 C11.104,16 12,16.896 12,18 C12,19.104 11.104,20 10,20 C8.896,20 8,19.104 8,18 C8,16.896 8.896,16 10,16 Z M10,0 C11.104,0 12,0.896 12,2 C12,3.104 11.104,4 10,4 C8.896,4 8,3.104 8,2 C8,0.896 8.896,0 10,0 Z" id="Combined-Shape"></path>
        </g>
    </g>
</svg>