<?xml version="1.0" encoding="UTF-8"?>
<svg width="28px" height="28px" viewBox="0 0 28 28" version="1.1" xmlns="http://www.w3.org/2000/svg" xmlns:xlink="http://www.w3.org/1999/xlink">
    <!-- Generator: sketchtool 46.2 (44496) - http://www.bohemiancoding.com/sketch -->
    <title>overflow</title>
    <desc>Created with sketchtool.</desc>
    <defs></defs>
    <g id="Android" stroke="none" stroke-width="1" fill="none" fill-rule="evenodd">
        <g id="overflow" fill="#000000">
            <path d="M14,20 C11.794,20 10,21.794 10,24 C10,26.206 11.794,28 14,28 C16.206,28 18,26.206 18,24 C18,21.794 16.206,20 14,20" id="Path"></path>
            <path d="M14,10 C11.794,10 10,11.794 10,14 C10,16.206 11.794,18 14,18 C16.206,18 18,16.206 18,14 C18,11.794 16.206,10 14,10" id="Path"></path>
            <path d="M14,0 C11.794,0 10,1.794 10,4 C10,6.206 11.794,8 14,8 C16.206,8 18,6.206 18,4 C18,1.794 16.206,0 14,0" id="Path"></path>
        </g>
    </g>
</svg>