<?xml version="1.0" encoding="UTF-8"?>
<svg width="24px" height="24px" viewBox="0 0 24 24" version="1.1" xmlns="http://www.w3.org/2000/svg" xmlns:xlink="http://www.w3.org/1999/xlink">
    <!-- Generator: sketchtool 46.2 (44496) - http://www.bohemiancoding.com/sketch -->
    <title>photo-album-add</title>
    <desc>Created with sketchtool.</desc>
    <defs></defs>
    <g id="Android" stroke="none" stroke-width="1" fill="none" fill-rule="evenodd">
        <g id="photo-album-add" fill="#000000">
            <path d="M15.3396154,9.38056 L11.2465,13.99176 L8.73596154,11.09304 C8.56169231,10.89944 8.30957692,10.79648 8.0495,10.79824 C7.78853846,10.80704 7.54438462,10.92848 7.3825,11.13176 L4.86753846,13.65032 C4.56411538,14.03136 4.62957692,14.5796 5.01261538,14.88056 C5.39653846,15.1824 5.95296154,15.1076 6.2555,14.72568 L8.1185,13.00616 L10.6343462,15.8688 C10.8024231,16.05624 11.0421538,16.08 11.2933846,16.08 L11.3234615,16.08 C11.5861923,16.08 11.8312308,16.02896 11.9922308,15.82216 L16.7364231,10.46032 C17.0363077,10.07664 16.9664231,9.524 16.5807308,9.2248 C16.1950385,8.92648 15.6403846,8.99512 15.3396154,9.38056 M22.2307692,18.72 C22.2307692,16.7796 20.6437692,15.2 18.6923077,15.2 C16.7399615,15.2 15.1538462,16.7796 15.1538462,18.72 C15.1538462,20.6604 16.7399615,22.24 18.6923077,22.24 C20.6437692,22.24 22.2307692,20.6604 22.2307692,18.72 M18.6923077,13.44 L18.6923077,5.52 C18.6923077,4.55024 17.8988077,3.76 16.9230769,3.76 L4.53846154,3.76 C3.56273077,3.76 2.76923077,4.55024 2.76923077,5.52 L2.76923077,17.84 C2.76923077,18.81064 3.56273077,19.6 4.53846154,19.6 L13.4642308,19.6 C13.4155769,19.31312 13.3846154,19.02096 13.3846154,18.72 C13.3846154,15.80984 15.7651154,13.44 18.6923077,13.44 M24,18.56688 C24,21.47704 21.6186154,24 18.6923077,24 C16.7328846,24 15.0220385,22.9352 14.1029231,21.36 L4.53846154,21.36 C2.59142308,21.36 1,19.776 1,17.84 L1,5.52 C1,3.584 2.59142308,2 4.53846154,2 L16.9230769,2 C18.8692308,2 20.4615385,3.584 20.4615385,5.52 L20.4615385,13.44 L20.4571154,13.44 C22.5173846,14.32 24,16.27272 24,18.56688 M6.30769231,9.04 C7.28430769,9.04 8.07692308,8.2524 8.07692308,7.28 C8.07692308,6.30848 7.28430769,5.52 6.30769231,5.52 C5.33019231,5.52 4.53846154,6.30848 4.53846154,7.28 C4.53846154,8.2524 5.33019231,9.04 6.30769231,9.04 M21.3461538,18.72 C21.3461538,19.20576 20.9498462,19.6 20.4615385,19.6 L19.5769231,19.6 L19.5769231,20.48 C19.5769231,20.96664 19.1797308,21.36 18.6923077,21.36 C18.204,21.36 17.8076923,20.96664 17.8076923,20.48 L17.8076923,19.6 L16.9230769,19.6 C16.4347692,19.6 16.0384615,19.20576 16.0384615,18.72 C16.0384615,18.23512 16.4347692,17.84 16.9230769,17.84 L17.8076923,17.84 L17.8076923,16.96 C17.8076923,16.47512 18.204,16.08 18.6923077,16.08 C19.1797308,16.08 19.5769231,16.47512 19.5769231,16.96 L19.5769231,17.84 L20.4615385,17.84 C20.9498462,17.84 21.3461538,18.23512 21.3461538,18.72" id="Fill-1"></path>
        </g>
    </g>
</svg>