<?xml version="1.0" encoding="UTF-8"?>
<svg width="24px" height="24px" viewBox="0 0 24 24" version="1.1" xmlns="http://www.w3.org/2000/svg" xmlns:xlink="http://www.w3.org/1999/xlink">
    <!-- Generator: (null) (null) ((null)) - http://www.bohemiancoding.com/sketch -->
    <title>photo-album</title>
    <desc>Created with (null).</desc>
    <defs></defs>
    <g id="Android" stroke="none" stroke-width="1" fill="none" fill-rule="evenodd">
        <g id="photo-album" fill="#000000">
            <path d="M18.4225,12.2441667 C18.7483333,12.57 18.7483333,13.0966667 18.4225,13.4225 L13.4225,18.4225 C13.2608333,18.5841667 13.0475,18.6666667 12.8325,18.6666667 C12.65,18.6666667 12.4658333,18.6066667 12.3125,18.4841667 L8.72833333,15.6166667 L6.75583333,17.5891667 C6.43,17.915 5.90333333,17.915 5.5775,17.5891667 C5.25166667,17.2633333 5.25166667,16.7366667 5.5775,16.4108333 L8.0775,13.9108333 C8.3775,13.6108333 8.85666667,13.5833333 9.18666667,13.8491667 L12.7716667,16.7166667 L17.2441667,12.2441667 C17.57,11.9183333 18.0966667,11.9183333 18.4225,12.2441667 L18.4225,12.2441667 Z M20.3333333,18.6666667 C20.3333333,19.5858333 19.5858333,20.3333333 18.6666667,20.3333333 L5.33333333,20.3333333 C4.41416667,20.3333333 3.66666667,19.5858333 3.66666667,18.6666667 L3.66666667,5.33333333 C3.66666667,4.41416667 4.41416667,3.66666667 5.33333333,3.66666667 L18.6666667,3.66666667 C19.5858333,3.66666667 20.3333333,4.41416667 20.3333333,5.33333333 L20.3333333,18.6666667 Z M18.6666667,2 L5.33333333,2 C3.495,2 2,3.495 2,5.33333333 L2,18.6666667 C2,20.505 3.495,22 5.33333333,22 L18.6666667,22 C20.505,22 22,20.505 22,18.6666667 L22,5.33333333 C22,3.495 20.505,2 18.6666667,2 L18.6666667,2 Z M8.66666667,7 C9.58583333,7 10.3333333,7.7475 10.3333333,8.66666667 C10.3333333,9.58583333 9.58583333,10.3333333 8.66666667,10.3333333 C7.7475,10.3333333 7,9.58583333 7,8.66666667 C7,7.7475 7.7475,7 8.66666667,7 L8.66666667,7 Z M8.66666667,12 C10.5075,12 12,10.5075 12,8.66666667 C12,6.82583333 10.5075,5.33333333 8.66666667,5.33333333 C6.82583333,5.33333333 5.33333333,6.82583333 5.33333333,8.66666667 C5.33333333,10.5075 6.82583333,12 8.66666667,12 L8.66666667,12 Z" id="Page-1"></path>
        </g>
    </g>
</svg>