<?xml version="1.0" encoding="UTF-8"?>
<svg width="16px" height="16px" viewBox="0 0 16 16" version="1.1" xmlns="http://www.w3.org/2000/svg" xmlns:xlink="http://www.w3.org/1999/xlink">
    <!-- Generator: sketchtool 52.3 (67297) - http://www.bohemiancoding.com/sketch -->
    <title>photo-album--small</title>
    <desc>Created with sketchtool.</desc>
    <g id="Android" stroke="none" stroke-width="1" fill="none" fill-rule="evenodd">
        <g id="photo-album--small" fill="#000000">
            <path d="M8.89444444,11.7667778 L12.5608889,7.87788889 C12.7078889,7.72155556 12.7008889,7.47577778 12.5437778,7.328 C12.3874444,7.181 12.1416667,7.188 11.9938889,7.34433333 L8.58177778,10.9648889 L5.80666667,8.61055556 C5.64955556,8.47755556 5.41466667,8.49 5.27233333,8.64011111 L3.43833333,10.5845556 C3.29211111,10.7416667 3.29911111,10.9874444 3.45544444,11.1352222 C3.61177778,11.2822222 3.85755556,11.2752222 4.00533333,11.1188889 L5.585,9.44277778 L8.36011111,11.7971111 C8.43244444,11.8585556 8.52188889,11.8888889 8.61133333,11.8888889 C8.71477778,11.8888889 8.81744444,11.8476667 8.89444444,11.7667778 L8.89444444,11.7667778 Z M4.11111111,5.59588889 C4.11111111,6.45533333 4.80722222,7.15144444 5.66666667,7.15144444 C6.52533333,7.15144444 7.22222222,6.45533333 7.22222222,5.59588889 C7.22222222,4.73722222 6.52533333,4.04033333 5.66666667,4.04033333 C4.80722222,4.04033333 4.11111111,4.73722222 4.11111111,5.59588889 L4.11111111,5.59588889 Z M3.72222222,1.77777778 C2.64966667,1.77777778 1.77777778,2.64966667 1.77777778,3.72222222 L1.77777778,12.2777778 C1.77777778,13.3503333 2.64966667,14.2222222 3.72222222,14.2222222 L12.2777778,14.2222222 C13.3503333,14.2222222 14.2222222,13.3503333 14.2222222,12.2777778 L14.2222222,3.72222222 C14.2222222,2.64966667 13.3503333,1.77777778 12.2777778,1.77777778 L3.72222222,1.77777778 Z M12.2777778,15 L3.72222222,15 C2.22111111,15 1,13.7788889 1,12.2777778 L1,3.72222222 C1,2.22188889 2.22111111,1 3.72222222,1 L12.2777778,1 C13.7781111,1 15,2.22188889 15,3.72222222 L15,12.2777778 C15,13.7788889 13.7781111,15 12.2777778,15 L12.2777778,15 Z" id="Fill-1"></path>
        </g>
    </g>
</svg>