<?xml version="1.0" encoding="UTF-8"?>
<svg width="20px" height="20px" viewBox="0 0 20 20" version="1.1" xmlns="http://www.w3.org/2000/svg" xmlns:xlink="http://www.w3.org/1999/xlink">
    <!-- Generator: sketchtool 43.2 (39069) - http://www.bohemiancoding.com/sketch -->
    <title>photo-album--small</title>
    <desc>Created with sketchtool.</desc>
    <defs></defs>
    <g id="Android" stroke="none" stroke-width="1" fill="none" fill-rule="evenodd">
        <g id="photo-album--small" fill="#000000">
            <path d="M11.1504,14.8428 L15.8644,9.8428 C16.0534,9.6418 16.0444,9.3258 15.8424,9.1358 C15.6414,8.9468 15.3254,8.9558 15.1354,9.1568 L10.7484,13.8118 L7.1804,10.7848 C6.9784,10.6138 6.6764,10.6298 6.4934,10.8228 L4.1354,13.3228 C3.9474,13.5248 3.9564,13.8408 4.1574,14.0308 C4.3584,14.2198 4.6744,14.2108 4.8644,14.0098 L6.8954,11.8548 L10.4634,14.8818 C10.5564,14.9608 10.6714,14.9998 10.7864,14.9998 C10.9194,14.9998 11.0514,14.9468 11.1504,14.8428 L11.1504,14.8428 Z M5.0004,6.9088 C5.0004,8.0138 5.8954,8.9088 7.0004,8.9088 C8.1044,8.9088 9.0004,8.0138 9.0004,6.9088 C9.0004,5.8048 8.1044,4.9088 7.0004,4.9088 C5.8954,4.9088 5.0004,5.8048 5.0004,6.9088 L5.0004,6.9088 Z M4.5004,1.9998 C3.1214,1.9998 2.0004,3.1208 2.0004,4.4998 L2.0004,15.4998 C2.0004,16.8788 3.1214,17.9998 4.5004,17.9998 L15.5004,17.9998 C16.8794,17.9998 18.0004,16.8788 18.0004,15.4998 L18.0004,4.4998 C18.0004,3.1208 16.8794,1.9998 15.5004,1.9998 L4.5004,1.9998 Z M15.5004,18.9998 L4.5004,18.9998 C2.5704,18.9998 1.0004,17.4298 1.0004,15.4998 L1.0004,4.4998 C1.0004,2.5708 2.5704,0.9998 4.5004,0.9998 L15.5004,0.9998 C17.4294,0.9998 19.0004,2.5708 19.0004,4.4998 L19.0004,15.4998 C19.0004,17.4298 17.4294,18.9998 15.5004,18.9998 L15.5004,18.9998 Z" id="Fill-1"></path>
        </g>
    </g>
</svg>