<?xml version="1.0" encoding="UTF-8"?>
<svg width="18px" height="18px" viewBox="0 0 18 18" version="1.1" xmlns="http://www.w3.org/2000/svg" xmlns:xlink="http://www.w3.org/1999/xlink">
    <!-- Generator: sketchtool 46.2 (44496) - http://www.bohemiancoding.com/sketch -->
    <title>photo-album--small</title>
    <desc>Created with sketchtool.</desc>
    <defs></defs>
    <g id="Android" stroke="none" stroke-width="1" fill="none" fill-rule="evenodd">
        <g id="photo-album--small" fill="#000000">
            <path d="M10.0222222,13.3048889 L14.2124444,8.86044444 C14.3804444,8.68177778 14.3724444,8.40088889 14.1928889,8.232 C14.0142222,8.064 13.7333333,8.072 13.5644444,8.25066667 L9.66488889,12.3884444 L6.49333333,9.69777778 C6.31377778,9.54577778 6.04533333,9.56 5.88266667,9.73155556 L3.78666667,11.9537778 C3.61955556,12.1333333 3.62755556,12.4142222 3.80622222,12.5831111 C3.98488889,12.7511111 4.26577778,12.7431111 4.43466667,12.5644444 L6.24,10.6488889 L9.41155556,13.3395556 C9.49422222,13.4097778 9.59644444,13.4444444 9.69866667,13.4444444 C9.81688889,13.4444444 9.93422222,13.3973333 10.0222222,13.3048889 L10.0222222,13.3048889 Z M4.55555556,6.25244444 C4.55555556,7.23466667 5.35111111,8.03022222 6.33333333,8.03022222 C7.31466667,8.03022222 8.11111111,7.23466667 8.11111111,6.25244444 C8.11111111,5.27111111 7.31466667,4.47466667 6.33333333,4.47466667 C5.35111111,4.47466667 4.55555556,5.27111111 4.55555556,6.25244444 L4.55555556,6.25244444 Z M4.11111111,1.88888889 C2.88533333,1.88888889 1.88888889,2.88533333 1.88888889,4.11111111 L1.88888889,13.8888889 C1.88888889,15.1146667 2.88533333,16.1111111 4.11111111,16.1111111 L13.8888889,16.1111111 C15.1146667,16.1111111 16.1111111,15.1146667 16.1111111,13.8888889 L16.1111111,4.11111111 C16.1111111,2.88533333 15.1146667,1.88888889 13.8888889,1.88888889 L4.11111111,1.88888889 Z M13.8888889,17 L4.11111111,17 C2.39555556,17 1,15.6044444 1,13.8888889 L1,4.11111111 C1,2.39644444 2.39555556,1 4.11111111,1 L13.8888889,1 C15.6035556,1 17,2.39644444 17,4.11111111 L17,13.8888889 C17,15.6044444 15.6035556,17 13.8888889,17 L13.8888889,17 Z" id="Fill-1"></path>
        </g>
    </g>
</svg>