<?xml version="1.0" encoding="UTF-8"?>
<svg width="18px" height="18px" viewBox="0 0 18 18" version="1.1" xmlns="http://www.w3.org/2000/svg" xmlns:xlink="http://www.w3.org/1999/xlink">
    <!-- Generator: sketchtool 46.2 (44496) - http://www.bohemiancoding.com/sketch -->
    <title>photo-album-add--small</title>
    <desc>Created with sketchtool.</desc>
    <defs></defs>
    <g id="Android" stroke="none" stroke-width="1" fill="none" fill-rule="evenodd">
        <g id="photo-album-add--small" fill="#000000">
            <path d="M3.68421053,5.02631579 C3.68421053,4.28547368 4.28457895,3.68421053 5.02631579,3.68421053 C5.76715789,3.68421053 6.36842105,4.28547368 6.36842105,5.02631579 C6.36842105,5.76805263 5.76715789,6.36842105 5.02631579,6.36842105 C4.28457895,6.36842105 3.68421053,5.76805263 3.68421053,5.02631579 M12.5098947,7.12268421 L8.77257895,11.5963684 C8.68310526,11.6894211 8.56678947,11.7368421 8.44778947,11.7368421 C8.344,11.7368421 8.24110526,11.7019474 8.15789474,11.6312632 L5.83336842,9.22173684 L4.45726316,10.7016316 C4.28726316,10.8814737 4.00452632,10.8895263 3.82468421,10.7204211 C3.64484211,10.5504211 3.63678947,10.2676842 3.805,10.0860526 L5.47368421,8.29747368 C5.63742105,8.12568421 5.90763158,8.11047368 6.08836842,8.26436842 L8.41289474,10.6738947 L11.8576316,6.508 C12.0276316,6.32905263 12.3112632,6.321 12.4902105,6.49010526 C12.6718421,6.66010526 12.679,6.94284211 12.5098947,7.12268421 M14.4210526,17.1052632 C12.9411579,17.1052632 11.7368421,15.9009474 11.7368421,14.4210526 C11.7368421,12.9411579 12.9411579,11.7368421 14.4210526,11.7368421 C15.9009474,11.7368421 17.1052632,12.9411579 17.1052632,14.4210526 C17.1052632,15.9009474 15.9009474,17.1052632 14.4210526,17.1052632 M10.8421053,14.4210526 L4.13157895,14.4210526 C2.89773684,14.4210526 1.89473684,13.4180526 1.89473684,12.1842105 L1.89473684,4.13157895 C1.89473684,2.89773684 2.89773684,1.89473684 4.13157895,1.89473684 L12.1842105,1.89473684 C13.4171579,1.89473684 14.4210526,2.89773684 14.4210526,4.13157895 L14.4210526,10.8421053 C12.4472632,10.8421053 10.8421053,12.4472632 10.8421053,14.4210526 C10.8421053,14.4210526 10.8421053,14.6116316 10.8421053,14.4210526 M15.3157895,10.9691579 L15.3157895,4.13157895 C15.3157895,2.40473684 13.9101579,1 12.1842105,1 L4.13157895,1 C2.40473684,1 1,2.40473684 1,4.13157895 L1,12.1842105 C1,13.9110526 2.40473684,15.3157895 4.13157895,15.3157895 L10.9691579,15.3157895 C11.3691053,16.8556316 12.7586316,18 14.4210526,18 C16.3948421,18 18,16.3948421 18,14.4210526 C18,12.7586316 16.8547368,11.3691053 15.3157895,10.9691579 M15.7631579,13.9736842 L14.8684211,13.9736842 L14.8684211,13.0789474 C14.8684211,12.8328947 14.668,12.6315789 14.4210526,12.6315789 C14.1741053,12.6315789 13.9736842,12.8328947 13.9736842,13.0789474 L13.9736842,13.9736842 L13.0789474,13.9736842 C12.832,13.9736842 12.6315789,14.175 12.6315789,14.4210526 C12.6315789,14.6671053 12.832,14.8684211 13.0789474,14.8684211 L13.9736842,14.8684211 L13.9736842,15.7631579 C13.9736842,16.0101053 14.1741053,16.2105263 14.4210526,16.2105263 C14.668,16.2105263 14.8684211,16.0101053 14.8684211,15.7631579 L14.8684211,14.8684211 L15.7631579,14.8684211 C16.0101053,14.8684211 16.2105263,14.6671053 16.2105263,14.4210526 C16.2105263,14.175 16.0101053,13.9736842 15.7631579,13.9736842" id="Page-1"></path>
        </g>
    </g>
</svg>