<?xml version="1.0" encoding="UTF-8"?>
<svg width="16px" height="16px" viewBox="0 0 16 16" version="1.1" xmlns="http://www.w3.org/2000/svg" xmlns:xlink="http://www.w3.org/1999/xlink">
    <!-- Generator: sketchtool 52.3 (67297) - http://www.bohemiancoding.com/sketch -->
    <title>plus--small</title>
    <desc>Created with sketchtool.</desc>
    <g id="Android" stroke="none" stroke-width="1" fill="none" fill-rule="evenodd">
        <g id="plus--small" fill="#000000">
            <path d="M12.5833333,7.58333333 L8.41666667,7.58333333 L8.41666667,3.41666667 C8.41666667,3.18666667 8.23,3 8,3 C7.77,3 7.58333333,3.18666667 7.58333333,3.41666667 L7.58333333,7.58333333 L3.41666667,7.58333333 C3.18666667,7.58333333 3,7.77 3,8 C3,8.23 3.18666667,8.41666667 3.41666667,8.41666667 L7.58333333,8.41666667 L7.58333333,12.5833333 C7.58333333,12.8133333 7.77,13 8,13 C8.23,13 8.41666667,12.8133333 8.41666667,12.5833333 L8.41666667,8.41666667 L12.5833333,8.41666667 C12.8133333,8.41666667 13,8.23 13,8 C13,7.77 12.8133333,7.58333333 12.5833333,7.58333333" id="Page-1"></path>
        </g>
    </g>
</svg>