<?xml version="1.0" encoding="UTF-8"?>
<svg width="18px" height="18px" viewBox="0 0 18 18" version="1.1" xmlns="http://www.w3.org/2000/svg" xmlns:xlink="http://www.w3.org/1999/xlink">
    <!-- Generator: sketchtool 46.2 (44496) - http://www.bohemiancoding.com/sketch -->
    <title>plus--small</title>
    <desc>Created with sketchtool.</desc>
    <defs></defs>
    <g id="Android" stroke="none" stroke-width="1" fill="none" fill-rule="evenodd">
        <g id="plus--small" fill="#000000">
            <path d="M14.5,8.5 L9.5,8.5 L9.5,3.5 C9.5,3.224 9.276,3 9,3 C8.724,3 8.5,3.224 8.5,3.5 L8.5,8.5 L3.5,8.5 C3.224,8.5 3,8.724 3,9 C3,9.276 3.224,9.5 3.5,9.5 L8.5,9.5 L8.5,14.5 C8.5,14.776 8.724,15 9,15 C9.276,15 9.5,14.776 9.5,14.5 L9.5,9.5 L14.5,9.5 C14.776,9.5 15,9.276 15,9 C15,8.724 14.776,8.5 14.5,8.5" id="Page-1"></path>
        </g>
    </g>
</svg>