<?xml version="1.0" encoding="UTF-8"?>
<svg width="20px" height="20px" viewBox="0 0 20 20" version="1.1" xmlns="http://www.w3.org/2000/svg" xmlns:xlink="http://www.w3.org/1999/xlink">
    <!-- Generator: sketchtool 46.2 (44496) - http://www.bohemiancoding.com/sketch -->
    <title>plus-circle--small</title>
    <desc>Created with sketchtool.</desc>
    <defs></defs>
    <g id="Android" stroke="none" stroke-width="1" fill="none" fill-rule="evenodd">
        <g id="plus-circle--small" fill="#000000">
            <path d="M14,10 C14,10.276 13.776,10.5 13.5,10.5 L10.5,10.5 L10.5,13.5 C10.5,13.776 10.276,14 10,14 C9.724,14 9.5,13.776 9.5,13.5 L9.5,10.5 L6.5,10.5 C6.224,10.5 6,10.276 6,10 C6,9.724 6.224,9.5 6.5,9.5 L9.5,9.5 L9.5,6.5 C9.5,6.224 9.724,6 10,6 C10.276,6 10.5,6.224 10.5,6.5 L10.5,9.5 L13.5,9.5 C13.776,9.5 14,9.724 14,10 M10,17 C6.141,17 3,13.86 3,10 C3,6.14 6.141,3 10,3 C13.859,3 17,6.14 17,10 C17,13.86 13.859,17 10,17 M10,2 C5.582,2 2,5.582 2,10 C2,14.418 5.582,18 10,18 C14.418,18 18,14.418 18,10 C18,5.582 14.418,2 10,2" id="Page-1"></path>
        </g>
    </g>
</svg>