<?xml version="1.0" encoding="UTF-8"?>
<svg width="28px" height="28px" viewBox="0 0 28 28" version="1.1" xmlns="http://www.w3.org/2000/svg" xmlns:xlink="http://www.w3.org/1999/xlink">
    <!-- Generator: sketchtool 46.2 (44496) - http://www.bohemiancoding.com/sketch -->
    <title>profiles</title>
    <desc>Created with sketchtool.</desc>
    <defs></defs>
    <g id="Android" stroke="none" stroke-width="1" fill="none" fill-rule="evenodd">
        <g id="profiles" fill="#000000">
            <path d="M26,21.714 L26,23.143 C26,24.721 24.731,26 23.167,26 L19.108,26 C19.585,25.506 19.949,24.909 20.188,24.25 L23.167,24.25 C23.764,24.25 24.25,23.753 24.25,23.143 L24.25,21.714 C24.25,20.523 22.966,17.75 20.333,17.75 L19.898,17.75 C19.649,17.125 19.326,16.54 18.941,16 L20.333,16 C23.463,16 26,18.559 26,21.714 L26,21.714 Z M17.25,22.571 C17.25,23.497 16.51,24.25 15.6,24.25 L5.4,24.25 C4.49,24.25 3.75,23.497 3.75,22.571 L3.75,20.858 C3.75,18.041 6.016,15.75 8.8,15.75 L12.2,15.75 C14.984,15.75 17.25,18.041 17.25,20.858 L17.25,22.571 Z M12.2,14 L8.8,14 C5.045,14 2,17.07 2,20.858 L2,22.571 C2,24.465 3.522,26 5.4,26 L15.6,26 C17.478,26 19,24.465 19,22.571 L19,20.858 C19,17.07 15.955,14 12.2,14 L12.2,14 Z M15.745,11.158 C16.098,12.126 17.008,12.821 18.083,12.821 C19.462,12.821 20.583,11.684 20.583,10.286 C20.583,8.888 19.462,7.75 18.083,7.75 C17.71,7.75 17.359,7.839 17.041,7.988 C17.076,7.711 17.1,7.43 17.1,7.143 C17.1,6.806 17.067,6.477 17.019,6.152 C17.361,6.063 17.713,6 18.083,6 C20.43,6 22.333,7.919 22.333,10.286 C22.333,12.652 20.43,14.571 18.083,14.571 C16.527,14.571 15.18,13.719 14.44,12.46 C14.933,12.089 15.372,11.651 15.745,11.158 L15.745,11.158 Z M10.5,3.75 C12.347,3.75 13.85,5.273 13.85,7.143 C13.85,9.014 12.347,10.536 10.5,10.536 C8.653,10.536 7.15,9.014 7.15,7.143 C7.15,5.273 8.653,3.75 10.5,3.75 L10.5,3.75 Z M10.5,12.286 C13.316,12.286 15.6,9.983 15.6,7.143 C15.6,4.303 13.316,2 10.5,2 C7.684,2 5.4,4.303 5.4,7.143 C5.4,9.983 7.684,12.286 10.5,12.286 L10.5,12.286 Z" id="Fill-1"></path>
        </g>
    </g>
</svg>