<?xml version="1.0" encoding="UTF-8"?>
<svg width="16px" height="16px" viewBox="0 0 16 16" version="1.1" xmlns="http://www.w3.org/2000/svg" xmlns:xlink="http://www.w3.org/1999/xlink">
    <!-- Generator: (null) (null) ((null)) - http://www.bohemiancoding.com/sketch -->
    <title>profiles--small</title>
    <desc>Created with (null).</desc>
    <defs></defs>
    <g id="Android" stroke="none" stroke-width="1" fill="none" fill-rule="evenodd">
        <g id="profiles--small" fill="#000000">
            <path d="M11.8157895,9.08526316 C12.0147368,9.35052632 12.1884211,9.63473684 12.3336842,9.93789474 C13.5257895,10.2126316 14.4210526,11.3139474 14.4210526,12.6315789 C14.4210526,13.5023684 13.7421053,14.2105263 12.9084211,14.2105263 L12.2160526,14.2105263 C12.0123684,14.5136842 11.7565789,14.7726316 11.4739474,15 L12.9084211,15 C14.1794737,15 15.2105263,13.9389474 15.2105263,12.6315789 C15.2105263,10.6910526 13.6947368,9.11842105 11.8157895,9.08526316 M7.90789474,7.89473684 L5.14473684,7.89473684 C2.85605263,7.89473684 1,9.80368421 1,12.1586842 C1,13.7273684 2.23789474,15 3.76315789,15 L9.28947368,15 C10.8155263,15 12.0526316,13.7273684 12.0526316,12.1586842 C12.0526316,9.80368421 10.1965789,7.89473684 7.90789474,7.89473684 M10.4736842,3.15789474 C10.2960526,3.15789474 10.1247368,3.18078947 9.95815789,3.21789474 C9.97394737,3.35526316 10,3.48947368 10,3.63157895 C10,3.77210526 9.97394737,3.90473684 9.95894737,4.04052632 C10.1215789,3.98447368 10.2921053,3.94736842 10.4736842,3.94736842 C11.3444737,3.94736842 12.0526316,4.65631579 12.0526316,5.52631579 C12.0526316,6.39710526 11.3444737,7.10526316 10.4736842,7.10526316 C9.80894737,7.10526316 9.24210526,6.69157895 9.00921053,6.10815789 C8.82368421,6.30631579 8.62315789,6.49026316 8.39657895,6.64263158 C8.79684211,7.38473684 9.57210526,7.89473684 10.4736842,7.89473684 C11.7818421,7.89473684 12.8421053,6.83447368 12.8421053,5.52631579 C12.8421053,4.21815789 11.7818421,3.15789474 10.4736842,3.15789474 M6.36842105,0.789473684 C4.79894737,0.789473684 3.52631579,2.06210526 3.52631579,3.63157895 C3.52631579,5.20105263 4.79894737,6.47368421 6.36842105,6.47368421 C7.93789474,6.47368421 9.21052632,5.20105263 9.21052632,3.63157895 C9.21052632,2.06210526 7.93789474,0.789473684 6.36842105,0.789473684 M7.90789474,8.68421053 C9.75842105,8.68421053 11.2631579,10.2426316 11.2631579,12.1586842 C11.2631579,13.29 10.3781579,14.2105263 9.28947368,14.2105263 L3.76315789,14.2105263 C2.67526316,14.2105263 1.78947368,13.29 1.78947368,12.1586842 C1.78947368,10.2426316 3.295,8.68421053 5.14473684,8.68421053 L7.90789474,8.68421053 M6.36842105,1.57894737 C7.50052632,1.57894737 8.42105263,2.49947368 8.42105263,3.63157895 C8.42105263,4.76289474 7.50052632,5.68421053 6.36842105,5.68421053 C5.23710526,5.68421053 4.31578947,4.76289474 4.31578947,3.63157895 C4.31578947,2.49947368 5.23710526,1.57894737 6.36842105,1.57894737" id="Page-1"></path>
        </g>
    </g>
</svg>