<?xml version="1.0" encoding="UTF-8" standalone="no"?>
<svg width="24px" height="24px" viewBox="0 0 24 24" version="1.1" xmlns="http://www.w3.org/2000/svg" xmlns:xlink="http://www.w3.org/1999/xlink">
    <!-- Generator: sketchtool 43.2 (39069) - http://www.bohemiancoding.com/sketch -->
    <title>profile</title>
    <desc>Created with sketchtool.</desc>
    <defs></defs>
    <g id="Android" stroke="none" stroke-width="1" fill="none" fill-rule="evenodd">
        <g id="profile" fill="#000000">
            <path d="M12,1.71428571 C13.8751,1.71428571 15.4,3.252 15.4,5.14285714 C15.4,7.03371429 13.8751,8.57142857 12,8.57142857 C10.1249,8.57142857 8.6,7.03371429 8.6,5.14285714 C8.6,3.252 10.1249,1.71428571 12,1.71428571 L12,1.71428571 Z M12,10.2857143 C14.81605,10.2857143 17.1,7.98257143 17.1,5.14285714 C17.1,2.30314286 14.81605,0 12,0 C9.18395,0 6.9,2.30314286 6.9,5.14285714 C6.9,7.98257143 9.18395,10.2857143 12,10.2857143 L12,10.2857143 Z M18.8,20.5714286 C18.8,21.5168571 18.03755,22.2857143 17.1,22.2857143 L6.9,22.2857143 C5.96245,22.2857143 5.2,21.5168571 5.2,20.5714286 L5.2,18.8571429 C5.2,16.0208571 7.48735,13.7142857 10.3,13.7142857 L13.7,13.7142857 C16.51265,13.7142857 18.8,16.0208571 18.8,18.8571429 L18.8,20.5714286 Z M13.7,12 L10.3,12 C6.5447,12 3.5,15.0702857 3.5,18.8571429 L3.5,20.5714286 C3.5,22.4648571 5.02235,24 6.9,24 L17.1,24 C18.97765,24 20.5,22.4648571 20.5,20.5714286 L20.5,18.8571429 C20.5,15.0702857 17.4553,12 13.7,12 L13.7,12 Z" id="Page-1"></path>
        </g>
    </g>
</svg>