<?xml version="1.0" encoding="UTF-8"?>
<svg width="20px" height="20px" viewBox="0 0 20 20" version="1.1" xmlns="http://www.w3.org/2000/svg" xmlns:xlink="http://www.w3.org/1999/xlink">
    <!-- Generator: sketchtool 46.2 (44496) - http://www.bohemiancoding.com/sketch -->
    <title>projector--small</title>
    <desc>Created with sketchtool.</desc>
    <defs></defs>
    <g id="Android" stroke="none" stroke-width="1" fill="none" fill-rule="evenodd">
        <g id="projector--small" fill="#000000">
            <path d="M10,11.8256 L12.22,15.5266 L7.78,15.5266 L10,11.8256 Z M13.539,16.2726 C13.627,16.1166 13.625,15.9246 13.532,15.7696 L10.429,10.5966 C10.248,10.2946 9.752,10.2946 9.571,10.5966 L6.468,15.7696 C6.375,15.9246 6.373,16.1166 6.461,16.2726 C6.55,16.4296 6.716,16.5266 6.896,16.5266 L13.104,16.5266 C13.284,16.5266 13.45,16.4296 13.539,16.2726 L13.539,16.2726 Z M15.543,12.7936 L13.5,12.7936 C13.224,12.7936 13,12.5696 13,12.2936 C13,12.0166 13.224,11.7936 13.5,11.7936 L15.543,11.7936 C16.347,11.7936 17,11.2286 17,10.5346 L17,4.0006 L3,4.0006 L3,10.5346 C3,11.2286 3.653,11.7936 4.457,11.7936 L6.5,11.7936 C6.776,11.7936 7,12.0166 7,12.2936 C7,12.5696 6.776,12.7936 6.5,12.7936 L4.457,12.7936 C3.102,12.7936 2,11.7796 2,10.5346 L2,3.5006 C2,3.2236 2.224,3.0006 2.5,3.0006 L17.5,3.0006 C17.776,3.0006 18,3.2236 18,3.5006 L18,10.5346 C18,11.7796 16.898,12.7936 15.543,12.7936 L15.543,12.7936 Z" id="Page-1"></path>
        </g>
    </g>
</svg>