<?xml version="1.0" encoding="UTF-8"?>
<svg width="18px" height="18px" viewBox="0 0 18 18" version="1.1" xmlns="http://www.w3.org/2000/svg" xmlns:xlink="http://www.w3.org/1999/xlink">
    <!-- Generator: sketchtool 46.2 (44496) - http://www.bohemiancoding.com/sketch -->
    <title>pulse--small</title>
    <desc>Created with sketchtool.</desc>
    <defs></defs>
    <g id="Android" stroke="none" stroke-width="1" fill="none" fill-rule="evenodd">
        <g id="pulse--small" fill="#000000">
            <path d="M16.9986871,10.9100795 C16.9851752,11.0531356 16.8674288,11.1641923 16.7255541,11.1764273 L14.7952857,11.3533651 C14.588747,11.3721883 14.4024761,11.2441907 14.344568,11.0569002 L14.3329864,11.0173715 L11.942349,3.24528504 L8.50743637,16.6436168 C8.44277238,16.8949061 8.18025587,17.0483149 7.92256504,16.9861985 C7.7324336,16.9391405 7.59731482,16.7894963 7.56450025,16.6144409 L5.93438858,7.87013768 L4.62663173,11.0569002 L4.61601526,11.0832526 C4.54363019,11.2601904 4.3631501,11.3637179 4.17880946,11.3533651 L1.28340685,11.1764273 C1.11643863,11.1660746 0.990006052,11.0267831 1.00062253,10.8639627 C1.01027387,10.7143185 1.13381105,10.5976149 1.28340685,10.5882033 L3.84390789,10.431971 L5.66029047,6.00193815 C5.75969929,5.76006043 6.04055334,5.64335678 6.2876277,5.7402961 C6.44687484,5.8014714 6.55400474,5.93982169 6.5839239,6.09228936 L8.11366161,14.2991911 L11.431793,1.35732119 C11.496457,1.10509072 11.7580084,0.951681893 12.0166643,1.01379835 C12.1874931,1.05615048 12.3139257,1.18226571 12.3621824,1.33567454 L15.1649321,10.4460884 L16.7255541,10.5882033 C16.8915572,10.604203 17.0141292,10.7472591 16.9986871,10.9100795" id="Fill-1"></path>
        </g>
    </g>
</svg>