<?xml version="1.0" encoding="UTF-8"?>
<svg width="16px" height="16px" viewBox="0 0 16 16" version="1.1" xmlns="http://www.w3.org/2000/svg" xmlns:xlink="http://www.w3.org/1999/xlink">
    <!-- Generator: (null) (null) ((null)) - http://www.bohemiancoding.com/sketch -->
    <title>pulse--small</title>
    <desc>Created with (null).</desc>
    <defs></defs>
    <g id="Android" stroke="none" stroke-width="1" fill="none" fill-rule="evenodd">
        <g id="pulse--small" fill="#000000">
            <path d="M14.9988512,9.67131955 C14.9870283,9.79649362 14.8840002,9.89366823 14.7598599,9.90437391 L13.070875,10.0591945 C12.8901536,10.0756647 12.7271666,9.96366689 12.676497,9.79978768 L12.6663631,9.7652001 L10.5745554,2.96462441 L7.56900682,14.6881647 C7.51242583,14.9080428 7.28272389,15.0422756 7.05724441,14.9879236 C6.8908794,14.946748 6.77265046,14.8158093 6.74393772,14.6626358 L5.31759001,7.01137047 L4.17330277,9.79978768 L4.16401335,9.82284606 C4.10067642,9.97766663 3.94275633,10.0682531 3.78145828,10.0591945 L1.24798099,9.90437391 C1.1018838,9.89531526 0.991255296,9.77343524 1.00054471,9.63096738 C1.00898964,9.50002871 1.11708467,9.39791302 1.24798099,9.38967788 L3.48841941,9.25297462 L5.07775416,5.37669588 C5.16473688,5.16505288 5.41048418,5.06293718 5.62667424,5.14775909 C5.76601549,5.20128748 5.85975415,5.32234398 5.88593341,5.45575319 L7.22445391,12.6367922 L10.1278189,1.31265604 C10.1843999,1.09195438 10.4132573,0.957721657 10.6395813,1.01207356 C10.7890565,1.04913167 10.899685,1.1594825 10.9419096,1.29371522 L13.3943156,9.26532732 L14.7598599,9.38967788 C14.9051126,9.40367761 15.0123631,9.52885169 14.9988512,9.67131955" id="Fill-1"></path>
        </g>
    </g>
</svg>