<?xml version="1.0" encoding="UTF-8"?>
<svg width="24px" height="24px" viewBox="0 0 24 24" version="1.1" xmlns="http://www.w3.org/2000/svg" xmlns:xlink="http://www.w3.org/1999/xlink">
    <!-- Generator: sketchtool 46.2 (44496) - http://www.bohemiancoding.com/sketch -->
    <title>refresh</title>
    <desc>Created with sketchtool.</desc>
    <defs></defs>
    <g id="Android" stroke="none" stroke-width="1" fill="none" fill-rule="evenodd">
        <g id="refresh" fill="#000000">
            <path d="M20.5207313,2.82982666 C20.3582304,2.66732573 20.1398958,2.57565854 19.9040611,2.57399186 C19.6815598,2.57399186 19.4590586,2.66982574 19.2940576,2.83399335 C19.1290567,2.99982763 19.0340561,3.22316225 19.0348895,3.44566352 L19.0365561,4.88817179 C15.1323671,1.02481631 8.81316419,1.03731638 4.92480857,4.92567201 C1.02395287,8.82569437 1.02561955,15.1732308 4.92647524,19.0740864 C8.82566426,22.9732755 15.1723673,22.9732755 19.0723897,19.0724198 C20.9115669,17.2332426 21.9507395,14.7907286 21.9999065,12.1932137 C22.0032398,11.9615457 21.917406,11.7415444 21.7557384,11.5732101 C21.5949041,11.4098758 21.3790696,11.3157086 21.1474016,11.3090419 C20.9107335,11.3032086 20.6857323,11.3940424 20.5157313,11.5648767 C20.3557304,11.7248777 20.2648965,11.9382122 20.2607298,12.1640468 C20.2190629,14.3090591 19.361558,16.3265707 17.8440493,17.8449127 C14.6223642,21.0665979 9.38233412,21.0682645 6.16231566,17.8482461 C2.94313054,14.629061 2.94563055,9.38903093 6.16731569,6.16734579 C9.45816789,2.87649359 14.4181963,2.84316007 17.7623822,6.07817861 L16.4132078,6.06401187 C16.1915398,6.0648452 15.9598718,6.16984581 15.7790375,6.35068018 C15.5965364,6.53234788 15.4915358,6.76568256 15.4907025,6.98901717 C15.4923691,7.46735324 15.8832047,7.85902216 16.3632075,7.86152217 L19.9073945,7.8598555 C20.1315624,7.8598555 20.3540637,7.76568829 20.5182313,7.60235402 C20.6823989,7.43651973 20.7773994,7.21401846 20.7765661,6.98985051 L20.7773994,3.44566352 C20.7765661,3.21316219 20.6848989,2.99399427 20.5207313,2.82982666" id="Fill-1"></path>
        </g>
    </g>
</svg>