<?xml version="1.0" encoding="UTF-8"?>
<svg width="20px" height="20px" viewBox="0 0 20 20" version="1.1" xmlns="http://www.w3.org/2000/svg" xmlns:xlink="http://www.w3.org/1999/xlink">
    <!-- Generator: sketchtool 46.2 (44496) - http://www.bohemiancoding.com/sketch -->
    <title>refresh--small</title>
    <desc>Created with sketchtool.</desc>
    <defs></defs>
    <g id="Android" stroke="none" stroke-width="1" fill="none" fill-rule="evenodd">
        <g id="refresh--small" fill="#000000">
            <path d="M16.8369,2.6269 C16.7359,2.5249 16.6019,2.4709 16.4589,2.4699 C16.1749,2.4699 15.9239,2.7189 15.9259,3.0049 L15.9259,4.6439 L15.6609,4.3509 C15.6589,4.3479 15.6569,4.3439 15.6539,4.3399 C12.5339,1.2199 7.4589,1.2209 4.3389,4.3399 C1.2199,7.4589 1.2199,12.5339 4.3399,15.6529 C7.4589,18.7729 12.5339,18.7729 15.6529,15.6529 C17.1229,14.1839 17.9539,12.2309 17.9939,10.1529 C17.9969,10.0109 17.9439,9.8759 17.8449,9.7729 C17.7459,9.6709 17.6139,9.6129 17.4719,9.6109 C17.3249,9.6069 17.1879,9.6629 17.0839,9.7669 C16.9859,9.8649 16.9309,9.9959 16.9279,10.1349 C16.8939,11.9339 16.1739,13.6269 14.8999,14.8999 C12.1969,17.6039 7.7999,17.6059 5.0979,14.9039 C2.3959,12.2009 2.3989,7.8069 5.1029,5.1039 C7.8009,2.4049 12.0599,2.2749 14.8979,5.0949 L15.1749,5.3399 L13.6059,5.3229 C13.3209,5.3229 13.0299,5.6159 13.0289,5.9009 C13.0279,6.1959 13.2689,6.4359 13.5639,6.4359 L16.4599,6.4359 C16.7469,6.4349 16.9939,6.1869 16.9929,5.8999 L16.9939,3.0049 C16.9939,2.8619 16.9389,2.7289 16.8369,2.6269" id="Fill-1"></path>
        </g>
    </g>
</svg>