<?xml version="1.0" encoding="UTF-8" standalone="no"?>
<svg width="18px" height="18px" viewBox="0 0 18 18" version="1.1" xmlns="http://www.w3.org/2000/svg" xmlns:xlink="http://www.w3.org/1999/xlink">
    <!-- Generator: sketchtool 43.2 (39069) - http://www.bohemiancoding.com/sketch -->
    <title>refresh--small</title>
    <desc>Created with sketchtool.</desc>
    <defs></defs>
    <g id="Android" stroke="none" stroke-width="1" fill="none" fill-rule="evenodd">
        <g id="refresh--small" fill="#000000">
            <path d="M15.842463,1.62685046 C15.7414266,1.52481376 15.6073784,1.47079433 15.464327,1.46979397 C15.1802248,1.46979397 14.9291345,1.71888356 14.9311352,2.00498645 L14.9311352,3.64457611 L14.6660399,3.3514707 C14.6640392,3.34846962 14.6620384,3.34446818 14.6590374,3.34046674 C11.5379149,0.219344259 6.46108905,0.220344619 3.33996656,3.34046674 C0.219844439,6.46058887 0.219844439,11.5374147 3.34096692,14.6575368 C6.46108905,17.7786593 11.5379149,17.7786593 14.658037,14.6575368 C16.1285659,13.1880083 16.9598648,11.2343057 16.9998792,9.15555809 C17.0028803,9.013507 16.9498612,8.87845843 16.8508256,8.77542138 C16.75179,8.67338468 16.6197425,8.61536381 16.4776914,8.61336309 C16.3306385,8.60936165 16.1935893,8.6653818 16.0895518,8.76941922 C15.9915166,8.86745447 15.9364968,8.9985016 15.9334957,9.13755161 C15.8994835,10.9371988 15.1792244,12.6308079 13.9047661,13.9042659 C11.2007936,16.6092387 6.80221173,16.6112395 4.09923963,13.9082674 C1.39626753,11.2042949 1.39926861,6.80871407 4.10424143,4.10474161 C6.80321209,1.40477059 11.0637444,1.27472382 13.9027654,4.09573837 L14.179865,4.34082651 L12.6103006,4.3238204 C12.325198,4.3238204 12.0340933,4.61692581 12.033093,4.90202834 C12.0320926,5.19713448 12.2731793,5.43722082 12.5682854,5.43722082 L15.4653273,5.43722082 C15.7524306,5.43622046 15.9995195,5.18813124 15.9985191,4.90102798 L15.9995195,2.00498645 C15.9995195,1.861935 15.9444997,1.72888715 15.842463,1.62685046" id="Fill-1"></path>
        </g>
    </g>
</svg>