<?xml version="1.0" encoding="UTF-8"?>
<svg width="24px" height="24px" viewBox="0 0 24 24" version="1.1" xmlns="http://www.w3.org/2000/svg" xmlns:xlink="http://www.w3.org/1999/xlink">
    <!-- Generator: sketchtool 52.3 (67297) - http://www.bohemiancoding.com/sketch -->
    <title>reply</title>
    <desc>Created with sketchtool.</desc>
    <g id="Android" stroke="none" stroke-width="1" fill="none" fill-rule="evenodd">
        <g id="reply" fill="#000000">
            <path d="M13.670375,7.83328671 L7.77725,7.83328671 L11.789125,3.3749387 C12.104125,3.02577089 12.06125,2.50076916 11.69375,2.20076817 C11.328875,1.90160052 10.775,1.94076732 10.460875,2.2916018 L5.210875,8.12495434 C5.17675,8.16328779 5.160125,8.20745461 5.133875,8.24912141 C5.11025,8.28745487 5.081375,8.32162165 5.063875,8.36328845 C5.025375,8.45828877 5.002625,8.55745576 5.00175,8.65828942 C5.00175,8.66162277 5,8.66412278 5,8.66662278 C5,8.66912279 5.00175,8.6716228 5.00175,8.67495615 C5.002625,8.77578981 5.025375,8.8749568 5.063875,8.96995712 C5.081375,9.01162392 5.11025,9.04495736 5.133875,9.08329082 C5.160125,9.12579096 5.17675,9.16995777 5.210875,9.20829123 L10.460875,15.0416438 C10.63325,15.2349777 10.879125,15.3333114 11.125,15.3333114 C11.32625,15.3333114 11.52925,15.2674778 11.69375,15.1324774 C12.06125,14.8324764 12.104125,14.3074747 11.789125,13.9583069 L7.77725,9.49995886 L13.670375,9.49995886 C15.644375,9.49995886 17.25,11.0291306 17.25,12.9091367 L17.25,21.1666639 C17.25,21.6274988 17.641125,22 18.125,22 C18.608875,22 19,21.6274988 19,21.1666639 L19,12.9091367 C19,10.1099609 16.608625,7.83328671 13.670375,7.83328671" id="Fill-1"></path>
        </g>
    </g>
</svg>