<?xml version="1.0" encoding="UTF-8"?>
<svg width="16px" height="16px" viewBox="0 0 16 16" version="1.1" xmlns="http://www.w3.org/2000/svg" xmlns:xlink="http://www.w3.org/1999/xlink">
    <!-- Generator: sketchtool 46.2 (44496) - http://www.bohemiancoding.com/sketch -->
    <title>reply--small</title>
    <desc>Created with sketchtool.</desc>
    <defs></defs>
    <g id="Android" stroke="none" stroke-width="1" fill="none" fill-rule="evenodd">
        <g id="reply--small" fill="#000000">
            <path d="M12.625,8.91933333 L12.625,14.6111111 C12.625,14.8265556 12.4453333,15 12.2239583,15 C12.0025833,15 11.8229167,14.8265556 11.8229167,14.6111111 L11.8229167,8.91933333 C11.8229167,7.34044444 10.5636458,6.05555556 9.015625,6.05555556 L4.30739583,6.05555556 L7.70822917,9.68311111 C7.85741667,9.84255556 7.84538542,10.0883333 7.68095833,10.2322222 C7.60395833,10.2998889 7.50770833,10.3333333 7.41145833,10.3333333 C7.302375,10.3333333 7.19409375,10.2913333 7.1146875,10.2057778 L3.10427083,5.928 C3.08742708,5.91088889 3.08020833,5.88911111 3.067375,5.86966667 C3.05454167,5.85022222 3.03930208,5.83233333 3.02967708,5.81055556 C3.01203125,5.76777778 3.00320833,5.72266667 3.00160417,5.67677778 C3.00160417,5.67366667 3,5.67055556 3,5.66666667 C3,5.66277778 3.00160417,5.66044444 3.00160417,5.65733333 C3.00320833,5.61144444 3.01203125,5.56555556 3.02967708,5.52355556 C3.0385,5.501 3.05454167,5.48388889 3.067375,5.46444444 C3.08020833,5.44422222 3.08742708,5.42322222 3.10427083,5.40533333 L7.1146875,1.12755556 C7.263875,0.968111111 7.51813542,0.958 7.68095833,1.10111111 C7.84538542,1.24577778 7.85741667,1.49155556 7.70822917,1.65022222 L4.30739583,5.27777778 L9.015625,5.27777778 C11.0055937,5.27777778 12.625,6.91188889 12.625,8.91933333" id="Page-1"></path>
        </g>
    </g>
</svg>