<?xml version="1.0" encoding="UTF-8" standalone="no"?>
<svg width="18px" height="18px" viewBox="0 0 18 18" version="1.1" xmlns="http://www.w3.org/2000/svg" xmlns:xlink="http://www.w3.org/1999/xlink">
    <!-- Generator: sketchtool 43.2 (39069) - http://www.bohemiancoding.com/sketch -->
    <title>reply--small</title>
    <desc>Created with sketchtool.</desc>
    <defs></defs>
    <g id="Android" stroke="none" stroke-width="1" fill="none" fill-rule="evenodd">
        <g id="reply--small" fill="#000000">
            <path d="M14.5,10.0506667 L14.5,16.5555556 C14.5,16.8017778 14.2946667,17 14.0416667,17 C13.7886667,17 13.5833333,16.8017778 13.5833333,16.5555556 L13.5833333,10.0506667 C13.5833333,8.24622222 12.1441667,6.77777778 10.375,6.77777778 L4.99416667,6.77777778 L8.88083333,10.9235556 C9.05133333,11.1057778 9.03758333,11.3866667 8.84966667,11.5511111 C8.76166667,11.6284444 8.65166667,11.6666667 8.54166667,11.6666667 C8.417,11.6666667 8.29325,11.6186667 8.2025,11.5208889 L3.61916667,6.632 C3.59991667,6.61244444 3.59166667,6.58755556 3.577,6.56533333 C3.56233333,6.54311111 3.54491667,6.52266667 3.53391667,6.49777778 C3.51375,6.44888889 3.50366667,6.39733333 3.50183333,6.34488889 C3.50183333,6.34133333 3.5,6.33777778 3.5,6.33333333 C3.5,6.32888889 3.50183333,6.32622222 3.50183333,6.32266667 C3.50366667,6.27022222 3.51375,6.21777778 3.53391667,6.16977778 C3.544,6.144 3.56233333,6.12444444 3.577,6.10222222 C3.59166667,6.07911111 3.59991667,6.05511111 3.61916667,6.03466667 L8.2025,1.14577778 C8.373,0.963555556 8.66358333,0.952 8.84966667,1.11555556 C9.03758333,1.28088889 9.05133333,1.56177778 8.88083333,1.74311111 L4.99416667,5.88888889 L10.375,5.88888889 C12.64925,5.88888889 14.5,7.75644444 14.5,10.0506667" id="Page-1"></path>
        </g>
    </g>
</svg>