<?xml version="1.0" encoding="UTF-8"?>
<svg width="16px" height="16px" viewBox="0 0 16 16" version="1.1" xmlns="http://www.w3.org/2000/svg" xmlns:xlink="http://www.w3.org/1999/xlink">
    <!-- Generator: (null) (null) ((null)) - http://www.bohemiancoding.com/sketch -->
    <title>search--small</title>
    <desc>Created with (null).</desc>
    <defs></defs>
    <g id="Android" stroke="none" stroke-width="1" fill="none" fill-rule="evenodd">
        <g id="search--small" fill="#000000">
            <path d="M6.44436883,1 C3.4375217,1 1,3.4375217 1,6.44436883 C1,9.45121596 3.4375217,11.8887377 6.44436883,11.8887377 C7.80779434,11.8887377 9.05066596,11.3839669 10.0057638,10.5564228 L14.3355926,14.8862516 C14.4118137,14.961695 14.5113679,14.9998056 14.6109221,14.9998056 C14.7104762,14.9998056 14.8100304,14.961695 14.8862516,14.8862516 C15.0379161,14.7338093 15.0379161,14.4880349 14.8862516,14.3355926 L10.5564228,10.0057638 C11.3839669,9.05066596 11.8887377,7.80779434 11.8887377,6.44436883 C11.8887377,3.4375217 9.45121596,1 6.44436883,1 M6.44436883,1.77776698 C9.01799975,1.77776698 11.1109707,3.87073791 11.1109707,6.44436883 C11.1109707,7.56279774 10.7049763,8.6470049 9.96843099,9.49632644 L9.74910071,9.74910071 L9.49632644,9.96843099 C8.6470049,10.7049763 7.56279774,11.1109707 6.44436883,11.1109707 C3.87073791,11.1109707 1.77776698,9.01799975 1.77776698,6.44436883 C1.77776698,3.87073791 3.87073791,1.77776698 6.44436883,1.77776698" id="Fill-1"></path>
        </g>
    </g>
</svg>