<?xml version="1.0" encoding="UTF-8" standalone="no"?>
<svg width="18px" height="18px" viewBox="0 0 18 18" version="1.1" xmlns="http://www.w3.org/2000/svg" xmlns:xlink="http://www.w3.org/1999/xlink">
    <!-- Generator: sketchtool 43.2 (39069) - http://www.bohemiancoding.com/sketch -->
    <title>search--small</title>
    <desc>Created with sketchtool.</desc>
    <defs></defs>
    <g id="Android" stroke="none" stroke-width="1" fill="none" fill-rule="evenodd">
        <g id="search--small" fill="#000000">
            <path d="M7.1221358,0.9 C3.68573909,0.9 0.9,3.68573909 0.9,7.1221358 C0.9,10.5585325 3.68573909,13.3442716 7.1221358,13.3442716 C8.68033638,13.3442716 10.1007611,12.7673907 11.1923015,11.8216261 L16.1406772,16.7700018 C16.2277871,16.8562228 16.3415633,16.8997778 16.4553395,16.8997778 C16.5691157,16.8997778 16.6828919,16.8562228 16.7700018,16.7700018 C16.9433327,16.595782 16.9433327,16.314897 16.7700018,16.1406772 L11.8216261,11.1923015 C12.7673907,10.1007611 13.3442716,8.68033638 13.3442716,7.1221358 C13.3442716,3.68573909 10.5585325,0.9 7.1221358,0.9 M7.1221358,1.78887654 C10.0634283,1.78887654 12.4553951,4.18084332 12.4553951,7.1221358 C12.4553951,8.40034027 11.9914015,9.63943417 11.1496354,10.6100874 L10.8989722,10.8989722 L10.6100874,11.1496354 C9.63943417,11.9914015 8.40034027,12.4553951 7.1221358,12.4553951 C4.18084332,12.4553951 1.78887654,10.0634283 1.78887654,7.1221358 C1.78887654,4.18084332 4.18084332,1.78887654 7.1221358,1.78887654" id="Fill-1"></path>
        </g>
    </g>
</svg>