<?xml version="1.0" encoding="UTF-8"?>
<svg width="24px" height="24px" viewBox="0 0 24 24" version="1.1" xmlns="http://www.w3.org/2000/svg" xmlns:xlink="http://www.w3.org/1999/xlink">
    <!-- Generator: sketchtool 52.3 (67297) - http://www.bohemiancoding.com/sketch -->
    <title>search</title>
    <desc>Created with sketchtool.</desc>
    <g id="Android" stroke="none" stroke-width="1" fill="none" fill-rule="evenodd">
        <g id="search" fill="#000000">
            <path d="M8.66659722,2 C4.98496891,2 2,4.985 2,8.66666667 C2,12.3483333 4.98496891,15.3333333 8.66659722,15.3333333 C10.2074145,15.3333333 11.6207331,14.8058333 12.749888,13.9283333 L20.5773065,21.7558333 C20.7398048,21.9183333 20.9531359,22 21.166467,22 C21.3797981,22 21.5931292,21.9183333 21.7556275,21.7558333 C22.0814575,21.43 22.0814575,20.9033333 21.7556275,20.5775 L13.9282091,12.75 C14.8056999,11.6208333 15.3331944,10.2075 15.3331944,8.66666667 C15.3331944,4.985 12.3482255,2 8.66659722,2 M8.66659722,3.66666667 C11.4240685,3.66666667 13.6665451,5.90916667 13.6665451,8.66666667 C13.6665451,9.78166667 13.3015489,10.84 12.6123895,11.7275 L12.2257268,12.2258333 L11.7273987,12.6125 C10.8399079,13.3025 9.78158561,13.6666667 8.66659722,13.6666667 C5.90912595,13.6666667 3.66664931,11.4241667 3.66664931,8.66666667 C3.66664931,5.90916667 5.90912595,3.66666667 8.66659722,3.66666667" id="Fill-1"></path>
        </g>
    </g>
</svg>