<?xml version="1.0" encoding="UTF-8"?>
<svg width="20px" height="20px" viewBox="0 0 20 20" version="1.1" xmlns="http://www.w3.org/2000/svg" xmlns:xlink="http://www.w3.org/1999/xlink">
    <!-- Generator: sketchtool 43.2 (39069) - http://www.bohemiancoding.com/sketch -->
    <title>search--small</title>
    <desc>Created with sketchtool.</desc>
    <defs></defs>
    <g id="Android" stroke="none" stroke-width="1" fill="none" fill-rule="evenodd">
        <g id="search--small" fill="#000000">
            <path d="M8,1 C4.134,1 1,4.134 1,8 C1,11.866 4.134,15 8,15 C9.753,15 11.351,14.351 12.579,13.287 L18.146,18.854 C18.244,18.951 18.372,19 18.5,19 C18.628,19 18.756,18.951 18.854,18.854 C19.049,18.658 19.049,18.342 18.854,18.146 L13.287,12.579 C14.351,11.351 15,9.753 15,8 C15,4.134 11.866,1 8,1 M8,2 C11.309,2 14,4.691 14,8 C14,9.438 13.478,10.832 12.531,11.924 L12.249,12.249 L11.924,12.531 C10.832,13.478 9.438,14 8,14 C4.691,14 2,11.309 2,8 C2,4.691 4.691,2 8,2" id="Fill-1"></path>
        </g>
    </g>
</svg>