<?xml version="1.0" encoding="UTF-8"?>
<svg width="28px" height="28px" viewBox="0 0 28 28" version="1.1" xmlns="http://www.w3.org/2000/svg" xmlns:xlink="http://www.w3.org/1999/xlink">
    <!-- Generator: sketchtool 43.2 (39069) - http://www.bohemiancoding.com/sketch -->
    <title>send</title>
    <desc>Created with sketchtool.</desc>
    <defs></defs>
    <g id="Android" stroke="none" stroke-width="1" fill="none" fill-rule="evenodd">
        <g id="send" fill="#000000">
            <path d="M4.01204602,16.5368709 L4.07904602,23.4188709 C4.08004602,23.5168709 4.06704602,23.6158709 4.03904602,23.7108709 C4.01304602,23.7988709 4.03804602,23.8948709 4.10004602,23.9508709 C4.17104602,24.0148709 4.21904602,23.9978709 4.26104602,23.9768709 L23.925046,14.1398709 C23.967046,14.1178709 24.000046,14.0578709 24.000046,13.9928709 C24.000046,13.9278709 23.969046,13.8688709 23.919046,13.8438709 L4.26204602,4.00687088 C4.17504602,3.99087088 4.13904602,3.99887088 4.10204602,4.03187088 C4.03804602,4.08887088 4.01304602,4.18487088 4.03904602,4.27287088 C4.06704602,4.36787088 4.08004602,4.46687088 4.07904602,4.56487088 L4.01004602,11.4348709 L14.481046,12.2598709 C15.379046,12.3508709 16.039046,13.0918709 16.039046,13.9838709 C16.039046,14.8798709 15.377046,15.6198709 14.499046,15.7048709 L4.01204602,16.5368709 Z M4.20004602,25.9918709 L4.20004602,25.9918709 C3.67604602,25.9918709 3.16904602,25.7988709 2.77404602,25.4478709 C2.17504602,24.9178709 1.91104602,24.0948709 2.07804602,23.3108709 L2.00304602,15.6238709 C1.99804602,15.0988709 2.40004602,14.6588709 2.92404602,14.6168709 L10.904046,13.9838709 L2.92204602,13.3558709 C2.39804602,13.3148709 1.99504602,12.8748709 2.00004602,12.3498709 L2.07804602,4.67187088 C1.91104602,3.88987088 2.17604602,3.06587088 2.77504602,2.53487088 C3.41604602,1.96687088 4.38804602,1.83487088 5.15604602,2.21787088 L24.820046,12.0578709 C25.550046,12.4288709 26.000046,13.1688709 26.000046,13.9928709 C26.000046,14.8148709 25.551046,15.5558709 24.826046,15.9248709 L5.15704602,25.7658709 C4.86104602,25.9128709 4.53004602,25.9918709 4.20004602,25.9918709 L4.20004602,25.9918709 Z" id="Fill-1"></path>
        </g>
    </g>
</svg>