<?xml version="1.0" encoding="UTF-8"?>
<svg width="24px" height="24px" viewBox="0 0 24 24" version="1.1" xmlns="http://www.w3.org/2000/svg" xmlns:xlink="http://www.w3.org/1999/xlink">
    <!-- Generator: sketchtool 46.2 (44496) - http://www.bohemiancoding.com/sketch -->
    <title>send</title>
    <desc>Created with sketchtool.</desc>
    <defs></defs>
    <g id="Android" stroke="none" stroke-width="1" fill="none" fill-rule="evenodd">
        <g id="send" fill="#000000">
            <path d="M3.6767018,14.1181636 L3.73253503,19.8551068 C3.73336836,19.9368012 3.72253505,20.0193291 3.69920176,20.0985226 C3.67753513,20.1718808 3.69836843,20.2519079 3.750035,20.2985904 C3.80920155,20.3519418 3.84920147,20.3377703 3.88420141,20.3202644 L20.2708366,12.1199868 C20.3058366,12.1016473 20.3333365,12.0516304 20.3333365,11.9974453 C20.3333365,11.9432603 20.3075032,11.894077 20.2658367,11.8732366 L3.88503474,3.67295905 C3.81253488,3.6596212 3.78253493,3.66629013 3.75170166,3.69379945 C3.69836843,3.74131554 3.67753513,3.82134265 3.69920176,3.89470083 C3.72253505,3.97389432 3.73336836,4.05642227 3.73253503,4.13811661 L3.67503514,9.8650564 L12.4008517,10.5527893 C13.1491836,10.6286484 13.6991826,11.2463576 13.6991826,11.9899428 C13.6991826,12.7368625 13.147517,13.3537381 12.4158517,13.4245954 L3.6767018,14.1181636 Z M3.83336817,22 L3.83336817,22 C3.39670234,22 2.97420315,21.8391122 2.64503711,21.5465131 C2.14587141,21.1046967 1.92587183,20.418631 2.06503823,19.7650763 L2.00253835,13.3570725 C1.99837169,12.9194243 2.33337105,12.5526334 2.77003688,12.5176215 L9.42002412,11.9899428 L2.76837021,11.4664321 C2.33170438,11.4322539 1.99587169,11.065463 2.00003835,10.6278148 L2.06503823,4.22731349 C1.92587183,3.57542602 2.14670474,2.88852669 2.64587045,2.44587676 C3.18003609,1.97238304 3.99003454,1.86234577 4.63003331,2.18162058 L21.0166686,10.384399 C21.6250007,10.6936704 22,11.310546 22,11.9974453 C22,12.6826774 21.6258341,13.3003867 21.0216685,13.6079908 L4.63086664,21.8116029 C4.38420045,21.9341444 4.10836764,22 3.83336817,22 L3.83336817,22 Z" id="Fill-1"></path>
        </g>
    </g>
</svg>