<?xml version="1.0" encoding="UTF-8"?>
<svg width="18px" height="18px" viewBox="0 0 18 18" version="1.1" xmlns="http://www.w3.org/2000/svg" xmlns:xlink="http://www.w3.org/1999/xlink">
    <!-- Generator: sketchtool 46.2 (44496) - http://www.bohemiancoding.com/sketch -->
    <title>send--small</title>
    <desc>Created with sketchtool.</desc>
    <defs></defs>
    <g id="Android" stroke="none" stroke-width="1" fill="none" fill-rule="evenodd">
        <g id="send--small" fill="#000000">
            <path d="M1.89425004,10.5234952 L1.94313884,15.476901 C1.94402772,15.5213581 1.93780551,15.5658152 1.92536109,15.6084939 C1.88002784,15.7587588 1.92536109,15.9205825 2.03913866,16.0228338 C2.14402736,16.1153045 2.29602708,16.1357547 2.42047129,16.0752931 L15.9253353,9.31693048 C16.0364462,9.26002544 16.1111127,9.13465653 16.1111127,8.99861792 C16.1111127,8.8625793 16.0373351,8.73721039 15.9235575,8.68030535 L2.4195824,1.92016445 C2.29869374,1.86059198 2.14491624,1.88015309 2.04002755,1.97351292 C1.92536109,2.07487502 1.88002784,2.23758787 1.92536109,2.38874188 C1.93780551,2.43053152 1.94402772,2.47409944 1.94313884,2.5185565 L1.89336115,7.4657384 L9.31023638,8.0499042 C9.79823548,8.09969611 10.1573459,8.50425538 10.1573459,8.99150479 C10.1573459,9.48142161 9.7973466,9.88687002 9.31912525,9.93399451 L1.89425004,10.5234952 Z M2.26847157,17 L2.26847157,17 C1.96802768,17 1.67647266,16.8888573 1.44980641,16.6879114 C1.09691817,16.3749337 0.94580734,15.8867952 1.05425158,15.42622 L1.00180724,10.1171576 C0.999140575,9.88331346 1.17780691,9.68859152 1.41069537,9.66991956 L9.24090318,9.04840983 L9.27556978,8.49269655 L9.24090318,8.93548889 L1.40980649,8.319314 C1.17602914,8.30064204 0.9973628,8.10503096 1.00002946,7.87207595 L1.05425158,2.56923756 C0.94580734,2.10866239 1.09691817,1.62052384 1.44980641,1.30843527 C1.81958351,0.981231288 2.37691582,0.904765141 2.81602612,1.12527217 L16.3226679,7.88541307 C16.7413338,8.09702869 17,8.52381649 17,8.99861792 C17,9.4725302 16.7413338,9.89842886 16.3253346,10.1100445 L2.81691501,16.8710745 C2.64713754,16.9555429 2.45780456,17 2.26847157,17 L2.26847157,17 Z" id="Fill-1"></path>
        </g>
    </g>
</svg>