<?xml version="1.0" encoding="UTF-8"?>
<svg width="24px" height="24px" viewBox="0 0 24 24" version="1.1" xmlns="http://www.w3.org/2000/svg" xmlns:xlink="http://www.w3.org/1999/xlink">
    <!-- Generator: (null) (null) ((null)) - http://www.bohemiancoding.com/sketch -->
    <title>sent-messages</title>
    <desc>Created with (null).</desc>
    <defs></defs>
    <g id="Android" stroke="none" stroke-width="1" fill="none" fill-rule="evenodd">
        <g id="sent-messages" fill="#000000">
            <path d="M6.16666667,12.8333333 C6.16666667,12.3733333 6.54166667,12 7.00583333,12 L16.9941667,12 C17.4575,12 17.8333333,12.37 17.8333333,12.8333333 C17.8333333,13.2941667 17.4583333,13.6666667 16.9941667,13.6666667 L7.00583333,13.6666667 C6.5425,13.6666667 6.16666667,13.2975 6.16666667,12.8333333 M6.16666667,7.83333333 C6.16666667,7.37333333 6.54166667,7 7.00583333,7 L16.9941667,7 C17.4575,7 17.8333333,7.37 17.8333333,7.83333333 C17.8333333,8.29333333 17.4583333,8.66666667 16.9941667,8.66666667 L7.00583333,8.66666667 C6.5425,8.66666667 6.16666667,8.29666667 6.16666667,7.83333333 M3.66666667,6.17416667 L3.66666667,17 L20.3333333,17 L20.3333333,6.17416667 C20.3333333,4.78 19.2166667,3.66666667 17.8383333,3.66666667 L6.16166667,3.66666667 C4.78583333,3.66666667 3.66666667,4.79 3.66666667,6.17416667 M22,5.88583333 L22,17.85 C22,20.1383333 20.1383333,22 17.85,22 L6.15083333,22 C3.86166667,22 2,20.1383333 2,17.85 L2,5.88583333 C2,3.74333333 3.86166667,2 6.15083333,2 L17.85,2 C20.1383333,2 22,3.74333333 22,5.88583333" id="Page-1"></path>
        </g>
    </g>
</svg>