<?xml version="1.0" encoding="UTF-8"?>
<svg width="18px" height="18px" viewBox="0 0 18 18" version="1.1" xmlns="http://www.w3.org/2000/svg" xmlns:xlink="http://www.w3.org/1999/xlink">
    <!-- Generator: sketchtool 46.2 (44496) - http://www.bohemiancoding.com/sketch -->
    <title>sent-messages--small</title>
    <desc>Created with sketchtool.</desc>
    <defs></defs>
    <g id="Android" stroke="none" stroke-width="1" fill="none" fill-rule="evenodd">
        <g id="sent-messages--small" fill="#000000">
            <path d="M4.55555556,9.44444444 C4.55555556,9.19911111 4.75822222,9 5.00888889,9 L12.9911111,9 C13.2408889,9 13.4444444,9.20622222 13.4444444,9.44444444 C13.4444444,9.68977778 13.2417778,9.88888889 12.9911111,9.88888889 L5.00888889,9.88888889 C4.75822222,9.88888889 4.55555556,9.68266667 4.55555556,9.44444444 M4.55555556,5.88888889 C4.55555556,5.64355556 4.75822222,5.44444444 5.00888889,5.44444444 L12.9911111,5.44444444 C13.2408889,5.44444444 13.4444444,5.65066667 13.4444444,5.88888889 C13.4444444,6.13422222 13.2417778,6.33333333 12.9911111,6.33333333 L5.00888889,6.33333333 C4.75822222,6.33333333 4.55555556,6.12711111 4.55555556,5.88888889 M1.88888889,4.55466667 L1.88888889,13.4444444 L16.1111111,13.4444444 L16.1111111,4.55466667 C16.1111111,3.08177778 14.9128889,1.88888889 13.4355556,1.88888889 L4.56355556,1.88888889 C3.07644444,1.88888889 1.88888889,3.08266667 1.88888889,4.55466667 M17,4.10844444 L17,13.6808889 C17,15.5102222 15.5102222,17 13.6808889,17 L4.32088889,17 C2.48888889,17 1,15.5102222 1,13.6808889 L1,4.10844444 C1,2.39466667 2.48888889,1 4.32088889,1 L13.6808889,1 C15.5102222,1 17,2.39466667 17,4.10844444" id="Page-1"></path>
        </g>
    </g>
</svg>