<?xml version="1.0" encoding="UTF-8"?>
<svg width="24px" height="24px" viewBox="0 0 24 24" version="1.1" xmlns="http://www.w3.org/2000/svg" xmlns:xlink="http://www.w3.org/1999/xlink">
    <!-- Generator: sketchtool 52.3 (67297) - http://www.bohemiancoding.com/sketch -->
    <title>show</title>
    <desc>Created with sketchtool.</desc>
    <g id="Android" stroke="none" stroke-width="1" fill="none" fill-rule="evenodd">
        <g id="show" fill="#000000" fill-rule="nonzero">
            <path d="M12,4 C16.843275,4 21.1294761,6.98789859 22.8784451,11.4405377 L23,11.75 L22.8784451,12.0594623 C21.1294761,16.5121014 16.843275,19.5 12,19.5 C7.15672504,19.5 2.87052391,16.5121014 1.12155488,12.0594623 L1,11.75 L1.12155488,11.4405377 C2.87052391,6.98789859 7.15672504,4 12,4 Z M12,5.68811881 C7.96752528,5.68811881 4.38556352,8.1083576 2.81449303,11.75 C4.38556352,15.3916424 7.96752528,17.8118812 12,17.8118812 C16.0324747,17.8118812 19.6144365,15.3916424 21.185507,11.75 C19.6144365,8.1083576 16.0324747,5.68811881 12,5.68811881 Z M12,8.14356436 C13.9881786,8.14356436 15.5946882,9.75532401 15.5946882,11.75 C15.5946882,13.744676 13.9881786,15.3564356 12,15.3564356 C10.0118214,15.3564356 8.40531179,13.744676 8.40531179,11.75 C8.40531179,9.75532401 10.0118214,8.14356436 12,8.14356436 Z M12,9.83168317 C10.9411067,9.83168317 10.0879318,10.6876463 10.0879318,11.75 C10.0879318,12.8123537 10.9411067,13.6683168 12,13.6683168 C13.0588933,13.6683168 13.9120682,12.8123537 13.9120682,11.75 C13.9120682,10.6876463 13.0588933,9.83168317 12,9.83168317 Z" id="Shape"></path>
        </g>
    </g>
</svg>