<?xml version="1.0" encoding="UTF-8" standalone="no"?>
<svg width="18px" height="18px" viewBox="0 0 18 18" version="1.1" xmlns="http://www.w3.org/2000/svg" xmlns:xlink="http://www.w3.org/1999/xlink">
    <!-- Generator: sketchtool 43.2 (39069) - http://www.bohemiancoding.com/sketch -->
    <title>show--small</title>
    <desc>Created with sketchtool.</desc>
    <defs></defs>
    <g id="Android" stroke="none" stroke-width="1" fill="none" fill-rule="evenodd">
        <g id="show--small" fill-rule="nonzero" fill="#000000">
            <path d="M9,3.5 C12.5315404,3.5 15.6569456,5.64059057 16.9323061,8.83067588 L17,9 L16.9323061,9.16932412 C15.6569456,12.3594094 12.5315404,14.5 9,14.5 C5.46845962,14.5 2.34305437,12.3594094 1.06769389,9.16932412 L1,9 L1.06769389,8.83067588 C2.34305437,5.64059057 5.46845962,3.5 9,3.5 Z M9,4.41666667 C5.86665349,4.41666667 3.08606509,6.24936019 1.88888889,9 C3.08606509,11.7506398 5.86665349,13.5833333 9,13.5833333 C12.1333465,13.5833333 14.9139349,11.7506398 16.1111111,9 C14.9139349,6.24936019 12.1333465,4.41666667 9,4.41666667 Z M9,6.25 C10.4750342,6.25 11.6666667,7.47887095 11.6666667,9 C11.6666667,10.521129 10.4750342,11.75 9,11.75 C7.52496577,11.75 6.33333333,10.521129 6.33333333,9 C6.33333333,7.47887095 7.52496577,6.25 9,6.25 Z M9,7.16666667 C8.01574209,7.16666667 7.22222222,7.98498403 7.22222222,9 C7.22222222,10.015016 8.01574209,10.8333333 9,10.8333333 C9.98425791,10.8333333 10.7777778,10.015016 10.7777778,9 C10.7777778,7.98498403 9.98425791,7.16666667 9,7.16666667 Z" id="Shape-Copy-2"></path>
        </g>
    </g>
</svg>