<?xml version="1.0" encoding="UTF-8"?>
<svg width="24px" height="24px" viewBox="0 0 24 24" version="1.1" xmlns="http://www.w3.org/2000/svg" xmlns:xlink="http://www.w3.org/1999/xlink">
    <!-- Generator: sketchtool 52.3 (67297) - http://www.bohemiancoding.com/sketch -->
    <title>sort-direction</title>
    <desc>Created with sketchtool.</desc>
    <g id="Android" stroke="none" stroke-width="1" fill="none" fill-rule="evenodd">
        <g id="sort-direction" fill="#000000" fill-rule="nonzero">
            <path d="M7.28571429,4.77497303 L7.28571429,17.1428571 C7.28571429,17.6162441 6.90195836,18 6.42857143,18 C5.9551845,18 5.57142857,17.6162441 5.57142857,17.1428571 L5.57142857,4.77497303 L2.34613212,8.29347825 C2.02625291,8.64243739 1.48405231,8.66601133 1.13509318,8.34613212 C0.786134041,8.02625291 0.762560102,7.48405231 1.08243931,7.13509318 L5.79672502,1.99223603 C6.13644208,1.62163561 6.72070078,1.62163561 7.06041783,1.99223603 L11.7747035,7.13509318 C12.0945828,7.48405231 12.0710088,8.02625291 11.7220497,8.34613212 C11.3730905,8.66601133 10.8308899,8.64243739 10.5110107,8.29347825 L7.28571429,4.77497303 Z M18.2045689,22.0063574 C18.047826,22.1780201 17.822204,22.2857143 17.5714286,22.2857143 C17.3206532,22.2857143 17.0950311,22.1780201 16.9382882,22.0063574 L12.2252965,16.8649119 C11.9054172,16.5159527 11.9289912,15.9737521 12.2779503,15.6538729 C12.6269095,15.3339937 13.1691101,15.3575677 13.4889893,15.7065268 L16.7142857,19.225032 L16.7142857,8.57142857 C16.7142857,8.09804164 17.0980416,7.71428571 17.5714286,7.71428571 C18.0448155,7.71428571 18.4285714,8.09804164 18.4285714,8.57142857 L18.4285714,19.225032 L21.6538679,15.7065268 C21.9737471,15.3575677 22.5159477,15.3339937 22.8649068,15.6538729 C23.213866,15.9737521 23.2374399,16.5159527 22.9175607,16.8649119 L18.2045689,22.0063574 Z" id="Icon"></path>
        </g>
    </g>
</svg>