<?xml version="1.0" encoding="UTF-8"?>
<svg width="16px" height="16px" viewBox="0 0 16 16" version="1.1" xmlns="http://www.w3.org/2000/svg" xmlns:xlink="http://www.w3.org/1999/xlink">
    <!-- Generator: sketchtool 52.3 (67297) - http://www.bohemiancoding.com/sketch -->
    <title>sort-direction--small</title>
    <desc>Created with sketchtool.</desc>
    <g id="Android" stroke="none" stroke-width="1" fill="none" fill-rule="evenodd">
        <g id="sort-direction--small" fill="#000000" fill-rule="nonzero">
            <path d="M4.87272727,1.89607766 L4.87272727,11.4909091 C4.87272727,11.6917399 4.70992173,11.8545455 4.50909091,11.8545455 C4.30826009,11.8545455 4.14545455,11.6917399 4.14545455,11.4909091 L4.14545455,1.89607766 L1.27531156,4.76622065 C1.13330272,4.90822948 0.903060913,4.90822948 0.76105208,4.76622065 C0.619043246,4.62421181 0.619043246,4.39397 0.76105208,4.25196117 L4.25196117,0.76105208 C4.39397,0.619043246 4.62421181,0.619043246 4.76622065,0.76105208 L8.25712974,4.25196117 C8.39913857,4.39397 8.39913857,4.62421181 8.25712974,4.76622065 C8.11512091,4.90822948 7.88487909,4.90822948 7.74287026,4.76622065 L4.87272727,1.89607766 Z M11.8545455,14.1039223 L14.7246884,11.2337794 C14.8666973,11.0917705 15.0969391,11.0917705 15.2389479,11.2337794 C15.3809568,11.3757882 15.3809568,11.60603 15.2389479,11.7480388 L11.7480388,15.2389479 C11.60603,15.3809568 11.3757882,15.3809568 11.2337794,15.2389479 L7.74287026,11.7480388 C7.60086143,11.60603 7.60086143,11.3757882 7.74287026,11.2337794 C7.88487909,11.0917705 8.11512091,11.0917705 8.25712974,11.2337794 L11.1272727,14.1039223 L11.1272727,4.50909091 C11.1272727,4.30826009 11.2900783,4.14545455 11.4909091,4.14545455 C11.6917399,4.14545455 11.8545455,4.30826009 11.8545455,4.50909091 L11.8545455,14.1039223 Z" id="Icon"></path>
        </g>
    </g>
</svg>