<?xml version="1.0" encoding="UTF-8"?>
<svg width="18px" height="18px" viewBox="0 0 18 18" version="1.1" xmlns="http://www.w3.org/2000/svg" xmlns:xlink="http://www.w3.org/1999/xlink">
    <!-- Generator: sketchtool 46.2 (44496) - http://www.bohemiancoding.com/sketch -->
    <title>star--small</title>
    <desc>Created with sketchtool.</desc>
    <defs></defs>
    <g id="Android" stroke="none" stroke-width="1" fill="none" fill-rule="evenodd">
        <g id="star--small" fill="#000000">
            <path d="M8.99996961,1 C8.85152512,1 8.35641386,1.04533335 8.18041381,1.62666686 L6.33330214,6.29511272 L1.86218967,6.29511272 C1.31730062,6.29511272 1.11552278,6.71022395 1.05418942,6.8871129 C1.00352274,7.0346685 0.876411593,7.5422242 1.35018951,7.91111321 L4.9999684,11.0142253 L3.87285695,15.8311156 C3.75996802,16.2044491 3.87819028,16.4737825 3.99730143,16.6346714 C4.17063481,16.8675604 4.43196823,17.0000048 4.69863497,17.0000048 C4.87196836,17.0000048 5.0488573,16.9440048 5.20530179,16.8213381 L8.99996961,14.3333374 L12.7919708,16.8213381 C12.9484153,16.9431159 13.1253042,16.9982271 13.2995265,16.9982271 C13.567971,16.9982271 13.8301933,16.8657826 14.0017489,16.6337825 C14.1217489,16.4737825 14.2390823,16.2035602 14.1261934,15.8328934 L12.9999708,11.000003 L16.6506386,7.91111321 C17.1235276,7.5422242 16.9964165,7.03555738 16.9457498,6.88889067 C16.8853053,6.71022395 16.6835275,6.29511272 16.1368607,6.29511272 L11.6666371,6.29511272 L9.81863652,1.62666686 C9.64352536,1.04533335 9.14752521,1 8.99996961,1 M8.99996961,1.97155585 L10.8399702,6.62222393 L11.0621925,7.18400187 L11.6666371,7.18400187 L16.1155273,7.18489076 L16.1217495,7.19466854 L16.0764162,7.23289078 L12.4257484,10.3208917 L12.0106372,10.6728918 L12.1341928,11.2017809 L13.2595265,16.0337823 L13.2675265,16.0693379 L9.48708087,13.590226 L8.99996961,13.2702259 L8.51285835,13.590226 L4.72974609,16.0702268 L4.73241276,16.060449 L4.73863499,16.0328934 L5.86574644,11.2160031 L5.98930203,10.6880029 L5.57507968,10.3368917 L1.88885634,7.21955744 C1.88885634,7.21333522 1.88974523,7.20177966 1.89507857,7.18400187 L6.33330214,7.18400187 L6.93774676,7.18400187 L7.15996905,6.62222393 L8.99996961,1.97155585" id="Fill-1"></path>
        </g>
    </g>
</svg>