<?xml version="1.0" encoding="UTF-8"?>
<svg width="16px" height="16px" viewBox="0 0 16 16" version="1.1" xmlns="http://www.w3.org/2000/svg" xmlns:xlink="http://www.w3.org/1999/xlink">
    <!-- Generator: sketchtool 52.3 (67297) - http://www.bohemiancoding.com/sketch -->
    <title>star--small</title>
    <desc>Created with sketchtool.</desc>
    <g id="Android" stroke="none" stroke-width="1" fill="none" fill-rule="evenodd">
        <g id="star--small" fill="#000000">
            <path d="M7.99997341,1 C7.87008448,1 7.43686213,1.03966668 7.28286208,1.5483335 L5.66663937,5.63322363 L1.75441596,5.63322363 C1.27763804,5.63322363 1.10108243,5.99644596 1.04741575,6.15122378 C1.0030824,6.28033493 0.891860144,6.72444618 1.30641582,7.04722405 L4.49997235,9.7624471 L3.51374983,13.9772262 C3.41497202,14.3038929 3.5184165,14.5395597 3.62263875,14.6803375 C3.77430546,14.8841153 4.0029722,15.0000042 4.2363056,15.0000042 C4.38797231,15.0000042 4.54275014,14.9510042 4.67963907,14.8436709 L7.99997341,12.6666702 L11.3179744,14.8436709 C11.4548633,14.9502264 11.6096412,14.9984487 11.7620857,14.9984487 C11.9969746,14.9984487 12.2264191,14.8825598 12.3765303,14.6795597 C12.4815303,14.5395597 12.584197,14.3031151 12.4854192,13.9787817 L11.4999745,9.75000265 L14.6943088,7.04722405 C15.1080867,6.72444618 14.9968644,6.28111271 14.9525311,6.15277934 C14.8996422,5.99644596 14.7230866,5.63322363 14.2447531,5.63322363 L10.3333074,5.63322363 L8.71630696,1.5483335 C8.56308469,1.03966668 8.12908456,1 7.99997341,1 M7.99997341,1.85011137 L9.6099739,5.91944594 L9.8044184,6.41100164 L10.3333074,6.41100164 L14.2260864,6.41177942 L14.2315309,6.42033498 L14.1918642,6.45377943 L10.9975299,9.15578025 L10.6343075,9.46378034 L10.7424187,9.92655826 L11.7270856,14.1545595 L11.7340857,14.1856707 L8.42619576,12.0164478 L7.99997341,11.7364477 L7.57375106,12.0164478 L4.26352783,14.1864484 L4.26586117,14.1778929 L4.27130561,14.1537818 L5.25752813,9.93900271 L5.36563928,9.47700257 L5.00319472,9.16978025 L1.7777493,6.44211276 C1.7777493,6.43666831 1.77852708,6.4265572 1.78319375,6.41100164 L5.66663937,6.41100164 L6.19552842,6.41100164 L6.38997292,5.91944594 L7.99997341,1.85011137" id="Fill-1"></path>
        </g>
    </g>
</svg>