<?xml version="1.0" encoding="UTF-8"?>
<svg width="18px" height="18px" viewBox="0 0 18 18" version="1.1" xmlns="http://www.w3.org/2000/svg" xmlns:xlink="http://www.w3.org/1999/xlink">
    <!-- Generator: sketchtool 46.2 (44496) - http://www.bohemiancoding.com/sketch -->
    <title>textblock--small</title>
    <desc>Created with sketchtool.</desc>
    <defs></defs>
    <g id="Android" stroke="none" stroke-width="1" fill="none" fill-rule="evenodd">
        <g id="textblock--small" fill="#000000">
            <path d="M10.7777778,12.5555556 C10.7777778,12.8008889 10.5786667,13 10.3333333,13 L4.11111111,13 C3.86577778,13 3.66666667,12.8008889 3.66666667,12.5555556 C3.66666667,12.3102222 3.86577778,12.1111111 4.11111111,12.1111111 L10.3333333,12.1111111 C10.5786667,12.1111111 10.7777778,12.3102222 10.7777778,12.5555556 L10.7777778,12.5555556 Z M14.3333333,5.44444444 C14.3333333,5.68977778 14.1342222,5.88888889 13.8888889,5.88888889 L4.11111111,5.88888889 C3.86577778,5.88888889 3.66666667,5.68977778 3.66666667,5.44444444 C3.66666667,5.19911111 3.86577778,5 4.11111111,5 L13.8888889,5 C14.1342222,5 14.3333333,5.19911111 14.3333333,5.44444444 L14.3333333,5.44444444 Z M14.3333333,9 C14.3333333,9.24533333 14.1342222,9.44444444 13.8888889,9.44444444 L4.11111111,9.44444444 C3.86577778,9.44444444 3.66666667,9.24533333 3.66666667,9 C3.66666667,8.75466667 3.86577778,8.55555556 4.11111111,8.55555556 L13.8888889,8.55555556 C14.1342222,8.55555556 14.3333333,8.75466667 14.3333333,9 L14.3333333,9 Z M16.1111111,13.8888889 C16.1111111,15.1146667 15.1146667,16.1111111 13.8888889,16.1111111 L4.11111111,16.1111111 C2.88622222,16.1111111 1.88888889,15.1146667 1.88888889,13.8888889 L1.88888889,4.11111111 C1.88888889,2.88533333 2.88622222,1.88888889 4.11111111,1.88888889 L13.8888889,1.88888889 C15.1146667,1.88888889 16.1111111,2.88533333 16.1111111,4.11111111 L16.1111111,13.8888889 Z M13.8888889,1 L4.11111111,1 C2.39555556,1 1,2.39555556 1,4.11111111 L1,13.8888889 C1,15.6044444 2.39555556,17 4.11111111,17 L13.8888889,17 C15.6035556,17 17,15.6044444 17,13.8888889 L17,4.11111111 C17,2.39555556 15.6035556,1 13.8888889,1 L13.8888889,1 Z" id="Fill-1"></path>
        </g>
    </g>
</svg>