<?xml version="1.0" encoding="UTF-8"?>
<svg width="24px" height="24px" viewBox="0 0 24 24" version="1.1" xmlns="http://www.w3.org/2000/svg" xmlns:xlink="http://www.w3.org/1999/xlink">
    <!-- Generator: sketchtool 52.3 (67297) - http://www.bohemiancoding.com/sketch -->
    <title>textblock</title>
    <desc>Created with sketchtool.</desc>
    <g id="Android" stroke="none" stroke-width="1" fill="none" fill-rule="evenodd">
        <g id="textblock" fill="#000000">
            <path d="M14.5,16.1666667 C14.5,16.6266667 14.1275,17 13.6666667,17 L6.16666667,17 C5.70666667,17 5.33333333,16.6266667 5.33333333,16.1666667 C5.33333333,15.7066667 5.70666667,15.3333333 6.16666667,15.3333333 L13.6666667,15.3333333 C14.1275,15.3333333 14.5,15.7066667 14.5,16.1666667 Z M18.6666667,7.83333333 C18.6666667,8.29333333 18.2941667,8.66666667 17.8333333,8.66666667 L6.16666667,8.66666667 C5.70666667,8.66666667 5.33333333,8.29333333 5.33333333,7.83333333 C5.33333333,7.37333333 5.70666667,7 6.16666667,7 L17.8333333,7 C18.2941667,7 18.6666667,7.37333333 18.6666667,7.83333333 Z M18.6666667,12 C18.6666667,12.46 18.2941667,12.8333333 17.8333333,12.8333333 L6.16666667,12.8333333 C5.70666667,12.8333333 5.33333333,12.46 5.33333333,12 C5.33333333,11.54 5.70666667,11.1666667 6.16666667,11.1666667 L17.8333333,11.1666667 C18.2941667,11.1666667 18.6666667,11.54 18.6666667,12 Z M20.3333333,18.6666667 C20.3333333,19.5858333 19.5858333,20.3333333 18.6666667,20.3333333 L5.33333333,20.3333333 C4.41416667,20.3333333 3.66666667,19.5858333 3.66666667,18.6666667 L3.66666667,5.33333333 C3.66666667,4.41333333 4.41416667,3.66666667 5.33333333,3.66666667 L18.6666667,3.66666667 C19.5858333,3.66666667 20.3333333,4.41333333 20.3333333,5.33333333 L20.3333333,18.6666667 Z M18.6666667,2 L5.33333333,2 C3.495,2 2,3.495 2,5.33333333 L2,18.6666667 C2,20.505 3.495,22 5.33333333,22 L18.6666667,22 C20.505,22 22,20.505 22,18.6666667 L22,5.33333333 C22,3.495 20.505,2 18.6666667,2 Z" id="Page-1"></path>
        </g>
    </g>
</svg>