<?xml version="1.0" encoding="UTF-8"?>
<svg width="20px" height="20px" viewBox="0 0 20 20" version="1.1" xmlns="http://www.w3.org/2000/svg" xmlns:xlink="http://www.w3.org/1999/xlink">
    <!-- Generator: sketchtool 46.2 (44496) - http://www.bohemiancoding.com/sketch -->
    <title>textblock--small</title>
    <desc>Created with sketchtool.</desc>
    <defs></defs>
    <g id="Android" stroke="none" stroke-width="1" fill="none" fill-rule="evenodd">
        <g id="textblock--small" fill="#000000">
            <path d="M11.9996,14.0002 C11.9996,14.2762 11.7756,14.5002 11.4996,14.5002 L4.4996,14.5002 C4.2236,14.5002 3.9996,14.2762 3.9996,14.0002 C3.9996,13.7242 4.2236,13.5002 4.4996,13.5002 L11.4996,13.5002 C11.7756,13.5002 11.9996,13.7242 11.9996,14.0002 L11.9996,14.0002 Z M15.9996,6.0002 C15.9996,6.2762 15.7756,6.5002 15.4996,6.5002 L4.4996,6.5002 C4.2236,6.5002 3.9996,6.2762 3.9996,6.0002 C3.9996,5.7242 4.2236,5.5002 4.4996,5.5002 L15.4996,5.5002 C15.7756,5.5002 15.9996,5.7242 15.9996,6.0002 L15.9996,6.0002 Z M15.9996,10.0002 C15.9996,10.2762 15.7756,10.5002 15.4996,10.5002 L4.4996,10.5002 C4.2236,10.5002 3.9996,10.2762 3.9996,10.0002 C3.9996,9.7242 4.2236,9.5002 4.4996,9.5002 L15.4996,9.5002 C15.7756,9.5002 15.9996,9.7242 15.9996,10.0002 L15.9996,10.0002 Z M17.9996,15.5002 C17.9996,16.8792 16.8786,18.0002 15.4996,18.0002 L4.4996,18.0002 C3.1216,18.0002 1.9996,16.8792 1.9996,15.5002 L1.9996,4.5002 C1.9996,3.1212 3.1216,2.0002 4.4996,2.0002 L15.4996,2.0002 C16.8786,2.0002 17.9996,3.1212 17.9996,4.5002 L17.9996,15.5002 Z M15.4996,1.0002 L4.4996,1.0002 C2.5696,1.0002 0.9996,2.5702 0.9996,4.5002 L0.9996,15.5002 C0.9996,17.4302 2.5696,19.0002 4.4996,19.0002 L15.4996,19.0002 C17.4286,19.0002 18.9996,17.4302 18.9996,15.5002 L18.9996,4.5002 C18.9996,2.5702 17.4286,1.0002 15.4996,1.0002 L15.4996,1.0002 Z" id="Fill-1"></path>
        </g>
    </g>
</svg>