<?xml version="1.0" encoding="UTF-8"?>
<svg width="24px" height="24px" viewBox="0 0 24 24" version="1.1" xmlns="http://www.w3.org/2000/svg" xmlns:xlink="http://www.w3.org/1999/xlink">
    <!-- Generator: (null) (null) ((null)) - http://www.bohemiancoding.com/sketch -->
    <title>ticket</title>
    <desc>Created with (null).</desc>
    <defs></defs>
    <g id="Android" stroke="none" stroke-width="1" fill="none" fill-rule="evenodd">
        <g id="ticket" fill="#000000">
            <path d="M15.9468439,13.0046512 C15.9468439,12.4259302 15.5375415,11.9581395 15.0332226,11.9581395 L5.89700997,11.9581395 C5.39269103,11.9581395 4.9833887,12.4259302 4.9833887,13.0046512 C4.9833887,13.5833721 5.39269103,14.0511628 5.89700997,14.0511628 L15.0332226,14.0511628 C15.5375415,14.0511628 15.9468439,13.5833721 15.9468439,13.0046512 L15.9468439,13.0046512 Z M15.9468439,8.81860465 C15.9468439,8.23988372 15.5375415,7.77209302 15.0332226,7.77209302 L5.89700997,7.77209302 C5.39269103,7.77209302 4.9833887,8.23988372 4.9833887,8.81860465 C4.9833887,9.39732558 5.39269103,9.86511628 5.89700997,9.86511628 L15.0332226,9.86511628 C15.5375415,9.86511628 15.9468439,9.39732558 15.9468439,8.81860465 L15.9468439,8.81860465 Z M22.2857143,6.6 C22.2857143,5.6073 21.5168571,4.8 20.5714286,4.8 L3.42857143,4.8 C2.48314286,4.8 1.71428571,5.6073 1.71428571,6.6 L1.71428571,10.002 C2.23628571,10.497 2.57142857,11.2053 2.57142857,12 C2.57142857,12.7947 2.23628571,13.503 1.71428571,13.998 L1.71428571,17.4 C1.71428571,18.3927 2.48314286,19.2 3.42857143,19.2 L20.5714286,19.2 C21.5168571,19.2 22.2857143,18.3927 22.2857143,17.4 L22.2857143,13.998 C21.7637143,13.503 21.4285714,12.7947 21.4285714,12 C21.4285714,11.2053 21.7637143,10.497 22.2857143,10.002 L22.2857143,6.6 Z M24,6.6 L24,11.1 C23.5277143,11.1 23.1428571,11.5032 23.1428571,12 C23.1428571,12.4968 23.5277143,12.9 24,12.9 L24,17.4 C24,19.38 22.4571429,21 20.5714286,21 L3.42857143,21 C1.54285714,21 0,19.38 0,17.4 L0,12.9 C0.472285714,12.9 0.857142857,12.4968 0.857142857,12 C0.857142857,11.5032 0.472285714,11.1 0,11.1 L0,6.6 C0,4.62 1.54285714,3 3.42857143,3 L20.5714286,3 C22.4571429,3 24,4.62 24,6.6 L24,6.6 Z M18,16.5 C17.448,16.5 17,16.947 17,17.5 C17,18.053 17.448,18.5 18,18.5 C18.552,18.5 19,18.053 19,17.5 C19,16.947 18.552,16.5 18,16.5 L18,16.5 Z M18,12.8333333 C17.448,12.8333333 17,13.2803333 17,13.8333333 C17,14.3863333 17.448,14.8333333 18,14.8333333 C18.552,14.8333333 19,14.3863333 19,13.8333333 C19,13.2803333 18.552,12.8333333 18,12.8333333 L18,12.8333333 Z M18,9.16666667 C17.448,9.16666667 17,9.61366667 17,10.1666667 C17,10.7196667 17.448,11.1666667 18,11.1666667 C18.552,11.1666667 19,10.7196667 19,10.1666667 C19,9.61366667 18.552,9.16666667 18,9.16666667 L18,9.16666667 Z M19,6.5 C19,7.053 18.552,7.5 18,7.5 C17.448,7.5 17,7.053 17,6.5 C17,5.947 17.448,5.5 18,5.5 C18.552,5.5 19,5.947 19,6.5 L19,6.5 Z" id="Page-1"></path>
        </g>
    </g>
</svg>