<?xml version="1.0" encoding="UTF-8"?>
<svg width="16px" height="16px" viewBox="0 0 16 16" version="1.1" xmlns="http://www.w3.org/2000/svg" xmlns:xlink="http://www.w3.org/1999/xlink">
    <!-- Generator: (null) (null) ((null)) - http://www.bohemiancoding.com/sketch -->
    <title>ticket--small</title>
    <desc>Created with (null).</desc>
    <defs></defs>
    <g id="Android" stroke="none" stroke-width="1" fill="none" fill-rule="evenodd">
        <g id="ticket--small" fill="#000000">
            <path d="M10.6666667,8.66666667 C10.6666667,8.42133333 10.489679,8.22222222 10.2716049,8.22222222 L3.95061728,8.22222222 C3.73254321,8.22222222 3.55555556,8.42133333 3.55555556,8.66666667 C3.55555556,8.912 3.73254321,9.11111111 3.95061728,9.11111111 L10.2716049,9.11111111 C10.489679,9.11111111 10.6666667,8.912 10.6666667,8.66666667 M10.6666667,6 C10.6666667,5.75466667 10.489679,5.55555556 10.2716049,5.55555556 L3.95061728,5.55555556 C3.73254321,5.55555556 3.55555556,5.75466667 3.55555556,6 C3.55555556,6.24533333 3.73254321,6.44444444 3.95061728,6.44444444 L10.2716049,6.44444444 C10.489679,6.44444444 10.6666667,6.24533333 10.6666667,6 M15.2,6.88211111 L15.2,5.11111111 C15.2,3.82466667 14.1232,2.77777778 12.8,2.77777778 L3.2,2.77777778 C1.8768,2.77777778 0.8,3.82466667 0.8,5.11111111 L0.8,6.88211111 C1.276,7.152 1.6,7.64822222 1.6,8.22222222 C1.6,8.79622222 1.276,9.29244444 0.8,9.56233333 L0.8,11.3333333 C0.8,12.6197778 1.8768,13.6666667 3.2,13.6666667 L12.8,13.6666667 C14.1232,13.6666667 15.2,12.6197778 15.2,11.3333333 L15.2,9.56233333 C14.724,9.29244444 14.4,8.79622222 14.4,8.22222222 C14.4,7.64822222 14.724,7.152 15.2,6.88211111 M16,7.44444444 C15.5592,7.44444444 15.2,7.79288889 15.2,8.22222222 C15.2,8.65155556 15.5592,9 16,9 L16,9.77777778 L16,11.3333333 C16,13.0444444 14.56,14.4444444 12.8,14.4444444 L3.2,14.4444444 C1.44,14.4444444 0,13.0444444 0,11.3333333 L0,9 C0.4408,9 0.8,8.65155556 0.8,8.22222222 C0.8,7.79288889 0.4408,7.44444444 0,7.44444444 L0,5.11111111 C0,3.4 1.44,2 3.2,2 L12.8,2 C14.56,2 16,3.4 16,5.11111111 L16,7.44444444 Z M12,11.7222222 C12,11.9368889 12.1792,12.1111111 12.4,12.1111111 C12.6208,12.1111111 12.8,11.9368889 12.8,11.7222222 C12.8,11.5075556 12.6208,11.3333333 12.4,11.3333333 C12.1792,11.3333333 12,11.5075556 12,11.7222222 M12,9.38888889 C12,9.60355556 12.1792,9.77777778 12.4,9.77777778 C12.6208,9.77777778 12.8,9.60355556 12.8,9.38888889 C12.8,9.17422222 12.6208,9 12.4,9 C12.1792,9 12,9.17422222 12,9.38888889 M12,7.05555556 C12,7.27022222 12.1792,7.44444444 12.4,7.44444444 C12.6208,7.44444444 12.8,7.27022222 12.8,7.05555556 C12.8,6.84088889 12.6208,6.66666667 12.4,6.66666667 C12.1792,6.66666667 12,6.84088889 12,7.05555556 M12.4,4.33333333 C12.6208,4.33333333 12.8,4.50755556 12.8,4.72222222 C12.8,4.93688889 12.6208,5.11111111 12.4,5.11111111 C12.1792,5.11111111 12,4.93688889 12,4.72222222 C12,4.50755556 12.1792,4.33333333 12.4,4.33333333" id="Page-1"></path>
        </g>
    </g>
</svg>