<?xml version="1.0" encoding="UTF-8" standalone="no"?>
<svg width="18px" height="18px" viewBox="0 0 18 18" version="1.1" xmlns="http://www.w3.org/2000/svg" xmlns:xlink="http://www.w3.org/1999/xlink">
    <!-- Generator: sketchtool 43.2 (39069) - http://www.bohemiancoding.com/sketch -->
    <title>ticket--small</title>
    <desc>Created with sketchtool.</desc>
    <defs></defs>
    <g id="Android" stroke="none" stroke-width="1" fill="none" fill-rule="evenodd">
        <g id="ticket--small" fill="#000000">
            <path d="M12,9.5 C12,9.224 11.8008889,9 11.5555556,9 L4.44444444,9 C4.19911111,9 4,9.224 4,9.5 C4,9.776 4.19911111,10 4.44444444,10 L11.5555556,10 C11.8008889,10 12,9.776 12,9.5 M12,6.5 C12,6.224 11.8008889,6 11.5555556,6 L4.44444444,6 C4.19911111,6 4,6.224 4,6.5 C4,6.776 4.19911111,7 4.44444444,7 L11.5555556,7 C11.8008889,7 12,6.776 12,6.5 M17.1,7.492375 L17.1,5.5 C17.1,4.05275 15.8886,2.875 14.4,2.875 L3.6,2.875 C2.1114,2.875 0.9,4.05275 0.9,5.5 L0.9,7.492375 C1.4355,7.796 1.8,8.35425 1.8,9 C1.8,9.64575 1.4355,10.204 0.9,10.507625 L0.9,12.5 C0.9,13.94725 2.1114,15.125 3.6,15.125 L14.4,15.125 C15.8886,15.125 17.1,13.94725 17.1,12.5 L17.1,10.507625 C16.5645,10.204 16.2,9.64575 16.2,9 C16.2,8.35425 16.5645,7.796 17.1,7.492375 M18,8.125 C17.5041,8.125 17.1,8.517 17.1,9 C17.1,9.483 17.5041,9.875 18,9.875 L18,10.75 L18,12.5 C18,14.425 16.38,16 14.4,16 L3.6,16 C1.62,16 0,14.425 0,12.5 L0,9.875 C0.4959,9.875 0.9,9.483 0.9,9 C0.9,8.517 0.4959,8.125 0,8.125 L0,5.5 C0,3.575 1.62,2 3.6,2 L14.4,2 C16.38,2 18,3.575 18,5.5 L18,8.125 Z M13.5,12.9375 C13.5,13.179 13.7016,13.375 13.95,13.375 C14.1984,13.375 14.4,13.179 14.4,12.9375 C14.4,12.696 14.1984,12.5 13.95,12.5 C13.7016,12.5 13.5,12.696 13.5,12.9375 M13.5,10.3125 C13.5,10.554 13.7016,10.75 13.95,10.75 C14.1984,10.75 14.4,10.554 14.4,10.3125 C14.4,10.071 14.1984,9.875 13.95,9.875 C13.7016,9.875 13.5,10.071 13.5,10.3125 M13.5,7.6875 C13.5,7.929 13.7016,8.125 13.95,8.125 C14.1984,8.125 14.4,7.929 14.4,7.6875 C14.4,7.446 14.1984,7.25 13.95,7.25 C13.7016,7.25 13.5,7.446 13.5,7.6875 M13.95,4.625 C14.1984,4.625 14.4,4.821 14.4,5.0625 C14.4,5.304 14.1984,5.5 13.95,5.5 C13.7016,5.5 13.5,5.304 13.5,5.0625 C13.5,4.821 13.7016,4.625 13.95,4.625" id="Page-1"></path>
        </g>
    </g>
</svg>