<?xml version="1.0" encoding="UTF-8" standalone="no"?>
<svg width="18px" height="18px" viewBox="0 0 18 18" version="1.1" xmlns="http://www.w3.org/2000/svg" xmlns:xlink="http://www.w3.org/1999/xlink">
    <!-- Generator: sketchtool 43.2 (39069) - http://www.bohemiancoding.com/sketch -->
    <title>trash--small</title>
    <desc>Created with sketchtool.</desc>
    <defs></defs>
    <g id="Android" stroke="none" stroke-width="1" fill="none" fill-rule="evenodd">
        <g id="trash--small" fill="#000000">
            <path d="M13.7226667,2.7 L13.6666667,2.7 L13.0898667,2.7 L4.91106667,2.7 L4.22226667,2.7 L5.2648,17.037 L5.26666667,17.0685 L5.26666667,17.0982 C5.28346667,17.0991 5.30306667,17.1 5.32546667,17.1 L12.6754667,17.1 C12.6969333,17.1 12.7165333,17.0991 12.7333333,17.0982 L12.7333333,17.0685 L12.7081333,17.037 L13.7226667,2.7 Z M5.3768,1.8 L12.6241333,1.8 L12.3170667,1.2078 C12.2452,1.0692 11.9596,0.9 11.8,0.9 L6.2,0.9 C6.04133333,0.9 5.75573333,1.0692 5.68386667,1.2078 L5.3768,1.8 Z M16,2.25 C16,2.4984 15.7918667,2.7 15.5333333,2.7 L14.7138667,2.7 L13.6666667,17.1 C13.6666667,17.7156 13.3148,18 12.6754667,18 L5.32546667,18 C4.68706667,18 4.33333333,17.7156 4.33333333,17.1 L3.28613333,2.7 L2.46666667,2.7 C2.20906667,2.7 2,2.4984 2,2.25 C2,2.0016 2.20906667,1.8 2.46666667,1.8 L3.2208,1.8 L4.33333333,1.8 L4.8504,0.8055 C5.07906667,0.3618 5.6876,0 6.2,0 L11.8,0 C12.3133333,0 12.9218667,0.3618 13.1505333,0.8055 L13.6666667,1.8 L14.7801333,1.8 L15.5333333,1.8 C15.7918667,1.8 16,2.0016 16,2.25 L16,2.25 Z M12,4.44444444 C12,4.19911111 11.777,4 11.5,4 C11.224,4 11,4.19911111 11,4.44444444 L11,15.5555556 C11,15.8008889 11.224,16 11.5,16 C11.777,16 12,15.8008889 12,15.5555556 L12,4.44444444 Z M7,4.44444444 C7,4.19911111 6.777,4 6.5,4 C6.224,4 6,4.19911111 6,4.44444444 L6,15.5555556 C6,15.8008889 6.224,16 6.5,16 C6.777,16 7,15.8008889 7,15.5555556 L7,4.44444444 Z M9.5,15.5555556 C9.5,15.8008889 9.277,16 9,16 C8.724,16 8.5,15.8008889 8.5,15.5555556 L8.5,4.44444444 C8.5,4.19911111 8.724,4 9,4 C9.277,4 9.5,4.19911111 9.5,4.44444444 L9.5,15.5555556 Z" id="Fill-1"></path>
        </g>
    </g>
</svg>