<?xml version="1.0" encoding="UTF-8"?>
<svg width="20px" height="20px" viewBox="0 0 20 20" version="1.1" xmlns="http://www.w3.org/2000/svg" xmlns:xlink="http://www.w3.org/1999/xlink">
    <!-- Generator: sketchtool 43.2 (39069) - http://www.bohemiancoding.com/sketch -->
    <title>trash--small</title>
    <desc>Created with sketchtool.</desc>
    <defs></defs>
    <g id="Android" stroke="none" stroke-width="1" fill="none" fill-rule="evenodd">
        <g id="trash--small" fill="#000000">
            <path d="M14.5596,3 L14.4996,3 L13.8816,3 L5.1186,3 L4.3806,3 L5.4976,18.93 L5.4996,18.965 L5.4996,18.998 C5.5176,18.999 5.5386,19 5.5626,19 L13.4376,19 C13.4606,19 13.4816,18.999 13.4996,18.998 L13.4996,18.965 L13.4726,18.93 L14.5596,3 Z M5.6176,2 L13.3826,2 L13.0536,1.342 C12.9766,1.188 12.6706,1 12.4996,1 L6.4996,1 C6.3296,1 6.0236,1.188 5.9466,1.342 L5.6176,2 Z M16.9996,2.5 C16.9996,2.776 16.7766,3 16.4996,3 L15.6216,3 L14.4996,19 C14.4996,19.684 14.1226,20 13.4376,20 L5.5626,20 C4.8786,20 4.4996,19.684 4.4996,19 L3.3776,3 L2.4996,3 C2.2236,3 1.9996,2.776 1.9996,2.5 C1.9996,2.224 2.2236,2 2.4996,2 L3.3076,2 L4.4996,2 L5.0536,0.895 C5.2986,0.402 5.9506,0 6.4996,0 L12.4996,0 C13.0496,0 13.7016,0.402 13.9466,0.895 L14.4996,2 L15.6926,2 L16.4996,2 C16.7766,2 16.9996,2.224 16.9996,2.5 L16.9996,2.5 Z M12.4996,4.5 C12.4996,4.224 12.2766,4 11.9996,4 C11.7236,4 11.4996,4.224 11.4996,4.5 L11.4996,17 C11.4996,17.276 11.7236,17.5 11.9996,17.5 C12.2766,17.5 12.4996,17.276 12.4996,17 L12.4996,4.5 Z M7.4996,4.5 C7.4996,4.224 7.2766,4 6.9996,4 C6.7236,4 6.4996,4.224 6.4996,4.5 L6.4996,17 C6.4996,17.276 6.7236,17.5 6.9996,17.5 C7.2766,17.5 7.4996,17.276 7.4996,17 L7.4996,4.5 Z M9.9996,17 C9.9996,17.276 9.7766,17.5 9.4996,17.5 C9.2236,17.5 8.9996,17.276 8.9996,17 L8.9996,4.5 C8.9996,4.224 9.2236,4 9.4996,4 C9.7766,4 9.9996,4.224 9.9996,4.5 L9.9996,17 Z" id="Fill-1"></path>
        </g>
    </g>
</svg>