<?xml version="1.0" encoding="UTF-8"?>
<svg width="24px" height="24px" viewBox="0 0 24 24" version="1.1" xmlns="http://www.w3.org/2000/svg" xmlns:xlink="http://www.w3.org/1999/xlink">
    <!-- Generator: sketchtool 52.3 (67297) - http://www.bohemiancoding.com/sketch -->
    <title>trash</title>
    <desc>Created with sketchtool.</desc>
    <g id="Android" stroke="none" stroke-width="1" fill="none" fill-rule="evenodd">
        <g id="trash" fill="#000000">
            <path d="M11.1666667,19.7142857 L11.1666667,6 C11.1666667,5.526 11.54,5.14285714 12,5.14285714 C12.46,5.14285714 12.8333333,5.526 12.8333333,6 L12.8333333,19.7142857 C12.8333333,20.1882857 12.46,20.5714286 12,20.5714286 C11.54,20.5714286 11.1666667,20.1882857 11.1666667,19.7142857 L11.1666667,19.7142857 Z M14.5016667,19.6611429 L15.335,5.94685714 C15.3641667,5.47371429 15.7608333,5.12314286 16.2183333,5.14457143 C16.6783333,5.17371429 17.0275,5.58085714 16.9983333,6.05314286 L16.165,19.7674286 C16.1375,20.2225714 15.7708333,20.5714286 15.3341667,20.5714286 C15.3166667,20.5714286 15.2991667,20.5705714 15.2808333,20.5697143 C14.8216667,20.5405714 14.4725,20.1334286 14.5016667,19.6611429 L14.5016667,19.6611429 Z M7.835,19.7674286 L7.00166667,6.05314286 C6.9725,5.58085714 7.32166667,5.17371429 7.78166667,5.14457143 C8.25,5.11971429 8.63666667,5.47371429 8.665,5.94685714 L9.49833333,19.6611429 C9.5275,20.1334286 9.17833333,20.5405714 8.71833333,20.5697143 C8.70083333,20.5705714 8.68333333,20.5714286 8.66583333,20.5714286 C8.22916667,20.5714286 7.8625,20.2225714 7.835,19.7674286 L7.835,19.7674286 Z M17.045,21.7054286 L17,21.7808571 L17,21.8571429 C17,21.9831429 16.925,22.1742857 16.8508333,22.2857143 L7.20583333,22.2857143 C7.10916667,22.1811429 7.00333333,21.9694286 7,21.8571429 L7,21.7808571 L6.99333333,21.7054286 L5.48833333,4.28571429 L18.5891667,4.28571429 L17.045,21.7054286 Z M9.5,1.71428571 L14.5,1.71428571 C14.9383333,1.71428571 15.2083333,1.72885714 15.71,2.57142857 L8.29,2.57142857 C8.79166667,1.72885714 9.06166667,1.71428571 9.5,1.71428571 L9.5,1.71428571 Z M21.1666667,2.57142857 L20.3333333,2.57142857 L18.1108333,2.57142857 L17,0.857142857 C16.6908333,0.379714286 16.1666667,0 15.3333333,0 L8.66666667,0 C7.83333333,0 7.30916667,0.379714286 7,0.857142857 L5.88916667,2.57142857 L3.66666667,2.57142857 L2.83333333,2.57142857 C2.37333333,2.57142857 2,2.95457143 2,3.42857143 C2,3.90257143 2.37333333,4.28571429 2.83333333,4.28571429 L3.815,4.28571429 L5.33333333,21.8571429 C5.33333333,22.8034286 6.13166667,24 7.0525,24 L17.0516667,24 C17.9725,24 18.6666667,22.8034286 18.6666667,21.8571429 L20.185,4.28571429 L21.1666667,4.28571429 C21.6266667,4.28571429 22,3.90257143 22,3.42857143 C22,2.95457143 21.6266667,2.57142857 21.1666667,2.57142857 L21.1666667,2.57142857 Z" id="Page-1"></path>
        </g>
    </g>
</svg>