<?xml version="1.0" encoding="UTF-8" standalone="no"?>
<svg width="24px" height="24px" viewBox="0 0 24 24" version="1.1" xmlns="http://www.w3.org/2000/svg" xmlns:xlink="http://www.w3.org/1999/xlink">
    <!-- Generator: sketchtool 43.2 (39069) - http://www.bohemiancoding.com/sketch -->
    <title>tune</title>
    <desc>Created with sketchtool.</desc>
    <defs></defs>
    <g id="Android" stroke="none" stroke-width="1" fill="none" fill-rule="evenodd">
        <g id="tune" fill="#000000">
            <path d="M6,13 L2.99077797,13 C2.45097518,13 2,12.5522847 2,12 C2,11.4438648 2.44358641,11 2.99077797,11 L6,11 L6,9.99077797 C6,9.45097518 6.44771525,9 7,9 C7.55613518,9 8,9.44358641 8,9.99077797 L8,14.009222 C8,14.5490248 7.55228475,15 7,15 C6.44386482,15 6,14.5564136 6,14.009222 L6,13 Z M14,18 L21.0046024,18 C21.5543453,18 22,18.4438648 22,19 C22,19.5522847 21.5443356,20 21.0046024,20 L14,20 L14,21.009222 C14,21.5564136 13.5561352,22 13,22 C12.4477153,22 12,21.5490248 12,21.009222 L12,16.990778 C12,16.4435864 12.4438648,16 13,16 C13.5522847,16 14,16.4509752 14,16.990778 L14,18 Z M18,4 L21.009222,4 C21.5564136,4 22,4.44386482 22,5 C22,5.55228475 21.5490248,6 21.009222,6 L18,6 L18,7.00922203 C18,7.55641359 17.5561352,8 17,8 C16.4477153,8 16,7.54902482 16,7.00922203 L16,2.99077797 C16,2.44358641 16.4438648,2 17,2 C17.5522847,2 18,2.45097518 18,2.99077797 L18,4 Z M2,5 C2,4.44771525 2.45576096,4 3.00247329,4 L12.9975267,4 C13.5511774,4 14,4.44386482 14,5 C14,5.55228475 13.544239,6 12.9975267,6 L3.00247329,6 C2.44882258,6 2,5.55613518 2,5 Z M2,19 C2,18.4477153 2.45303631,18 2.99703014,18 L9.00296986,18 C9.5536144,18 10,18.4438648 10,19 C10,19.5522847 9.54696369,20 9.00296986,20 L2.99703014,20 C2.4463856,20 2,19.5561352 2,19 Z M22,12 C22,12.5561352 21.5511774,13 20.9975267,13 L11.0024733,13 C10.455761,13 10,12.5522847 10,12 C10,11.4438648 10.4488226,11 11.0024733,11 L20.9975267,11 C21.544239,11 22,11.4477153 22,12 Z" id="Combined-Shape"></path>
        </g>
    </g>
</svg>