<?xml version="1.0" encoding="UTF-8" standalone="no"?>
<svg width="18px" height="18px" viewBox="0 0 18 18" version="1.1" xmlns="http://www.w3.org/2000/svg" xmlns:xlink="http://www.w3.org/1999/xlink">
    <!-- Generator: sketchtool 43.2 (39069) - http://www.bohemiancoding.com/sketch -->
    <title>tune--small</title>
    <desc>Created with sketchtool.</desc>
    <defs></defs>
    <g id="Android" stroke="none" stroke-width="1" fill="none" fill-rule="evenodd">
        <g id="tune--small" fill="#000000">
            <path d="M4,8.5 L1.49047852,8.5 C1.21505737,8.5 1,8.72385763 1,9 C1,9.26806641 1.21959471,9.5 1.49047852,9.5 L4,9.5 L4,11.1744792 C4,11.4375 4.22385763,11.6666667 4.5,11.6666667 C4.76806641,11.6666667 5,11.4463068 5,11.1744792 L5,6.82552083 C5,6.5625 4.77614237,6.33333333 4.5,6.33333333 C4.23193359,6.33333333 4,6.55369318 4,6.82552083 L4,8.5 Z M7,14 L16.4987692,14 C16.7755913,14 17,14.2319336 17,14.5 C17,14.7761424 16.7702494,15 16.4987692,15 L7,15 L7,16.5078125 C7,16.7796402 6.76806641,17 6.5,17 C6.22385763,17 6,16.7708333 6,16.5078125 L6,12.1588542 C6,11.8870265 6.23193359,11.6666667 6.5,11.6666667 C6.77614237,11.6666667 7,11.8958333 7,12.1588542 L7,14 Z M12,3 L16.5089948,3 C16.7801695,3 17,3.23193359 17,3.5 C17,3.77614237 16.7721195,4 16.5089948,4 L12,4 L12,5.84114583 C12,6.11297348 11.7680664,6.33333333 11.5,6.33333333 C11.2238576,6.33333333 11,6.10416667 11,5.84114583 L11,1.4921875 C11,1.22035985 11.2319336,1 11.5,1 C11.7761424,1 12,1.22916667 12,1.4921875 L12,3 Z M1,3.5 C1,3.22385763 1.22247314,3 1.50966585,3 L9.49033415,3 C9.77181483,3 10,3.23193359 10,3.5 C10,3.77614237 9.77752686,4 9.49033415,4 L1.50966585,4 C1.22818517,4 1,3.76806641 1,3.5 Z M6,9 C6,8.72385763 6.22975063,8.5 6.50123084,8.5 L16.4987692,8.5 C16.7755913,8.5 17,8.73193359 17,9 C17,9.27614237 16.7702494,9.5 16.4987692,9.5 L6.50123084,9.5 C6.22440869,9.5 6,9.26806641 6,9 Z M1,14.5 C1,14.2238576 1.21505737,14 1.49047852,14 L4.50952148,14 C4.78040529,14 5,14.2319336 5,14.5 C5,14.7761424 4.78494263,15 4.50952148,15 L1.49047852,15 C1.21959471,15 1,14.7680664 1,14.5 Z" id="Combined-Shape"></path>
        </g>
    </g>
</svg>