<?xml version="1.0" encoding="UTF-8"?>
<svg width="16px" height="16px" viewBox="0 0 16 16" version="1.1" xmlns="http://www.w3.org/2000/svg" xmlns:xlink="http://www.w3.org/1999/xlink">
    <!-- Generator: (null) (null) ((null)) - http://www.bohemiancoding.com/sketch -->
    <title>tune--small</title>
    <desc>Created with (null).</desc>
    <defs></defs>
    <g id="Android" stroke="none" stroke-width="1" fill="none" fill-rule="evenodd">
        <g id="tune--small" fill="#000000">
            <path d="M3.625,7.5625 L3.625,6.10416667 C3.625,5.86254209 3.82087542,5.66666667 4.0625,5.66666667 C4.30412458,5.66666667 4.5,5.86254209 4.5,6.10416667 L4.5,9.89583333 C4.5,10.1374579 4.30412458,10.3333333 4.0625,10.3333333 C3.82087542,10.3333333 3.625,10.1374579 3.625,9.89583333 L3.625,8.4375 L1.4375,8.4375 C1.19587542,8.4375 1,8.24162458 1,8 C1,7.75837542 1.19587542,7.5625 1.4375,7.5625 L3.625,7.5625 Z M6.25,12.375 L14.5625,12.375 C14.8041246,12.375 15,12.5708754 15,12.8125 C15,13.0541246 14.8041246,13.25 14.5625,13.25 L6.25,13.25 L6.25,14.5625 C6.25,14.8041246 6.05412458,15 5.8125,15 C5.57087542,15 5.375,14.8041246 5.375,14.5625 L5.375,10.7708333 C5.375,10.5292088 5.57087542,10.3333333 5.8125,10.3333333 C6.05412458,10.3333333 6.25,10.5292088 6.25,10.7708333 L6.25,12.375 Z M10.625,2.75 L14.5625,2.75 C14.8041246,2.75 15,2.94587542 15,3.1875 C15,3.42912458 14.8041246,3.625 14.5625,3.625 L10.625,3.625 L10.625,5.22916667 C10.625,5.47079124 10.4291246,5.66666667 10.1875,5.66666667 C9.94587542,5.66666667 9.75,5.47079124 9.75,5.22916667 L9.75,1.4375 C9.75,1.19587542 9.94587542,1 10.1875,1 C10.4291246,1 10.625,1.19587542 10.625,1.4375 L10.625,2.75 Z M1.4375,2.75 L8.4375,2.75 C8.67912458,2.75 8.875,2.94587542 8.875,3.1875 C8.875,3.42912458 8.67912458,3.625 8.4375,3.625 L1.4375,3.625 C1.19587542,3.625 1,3.42912458 1,3.1875 C1,2.94587542 1.19587542,2.75 1.4375,2.75 Z M5.8125,7.5625 L14.5625,7.5625 C14.8041246,7.5625 15,7.75837542 15,8 C15,8.24162458 14.8041246,8.4375 14.5625,8.4375 L5.8125,8.4375 C5.57087542,8.4375 5.375,8.24162458 5.375,8 C5.375,7.75837542 5.57087542,7.5625 5.8125,7.5625 Z M1.4375,12.375 L4.0625,12.375 C4.30412458,12.375 4.5,12.5708754 4.5,12.8125 C4.5,13.0541246 4.30412458,13.25 4.0625,13.25 L1.4375,13.25 C1.19587542,13.25 1,13.0541246 1,12.8125 C1,12.5708754 1.19587542,12.375 1.4375,12.375 Z" id="Combined-Shape"></path>
        </g>
    </g>
</svg>