<?xml version="1.0" encoding="UTF-8"?>
<svg width="18px" height="18px" viewBox="0 0 18 18" version="1.1" xmlns="http://www.w3.org/2000/svg" xmlns:xlink="http://www.w3.org/1999/xlink">
    <!-- Generator: sketchtool 46.2 (44496) - http://www.bohemiancoding.com/sketch -->
    <title>tune--small</title>
    <desc>Created with sketchtool.</desc>
    <defs></defs>
    <g id="Android" stroke="none" stroke-width="1" fill="none" fill-rule="evenodd">
        <g id="tune--small" fill="#000000">
            <path d="M4,8.5 L1.5,8.5 L1.5,8.5 C1.22385763,8.5 1,8.72385763 1,9 C1,9.27614237 1.22385763,9.5 1.5,9.5 L4,9.5 L4,11.1666667 C4,11.442809 4.22385763,11.6666667 4.5,11.6666667 C4.77614237,11.6666667 5,11.442809 5,11.1666667 L5,6.83333333 C5,6.55719096 4.77614237,6.33333333 4.5,6.33333333 C4.22385763,6.33333333 4,6.55719096 4,6.83333333 L4,8.5 Z M7,14 L16.5,14 C16.7761424,14 17,14.2238576 17,14.5 C17,14.7761424 16.7761424,15 16.5,15 L7,15 L7,16.5 L7,16.5 C7,16.7761424 6.77614237,17 6.5,17 C6.22385763,17 6,16.7761424 6,16.5 L6,12.1666667 C6,11.8905243 6.22385763,11.6666667 6.5,11.6666667 C6.77614237,11.6666667 7,11.8905243 7,12.1666667 L7,14 Z M12,3 L16.5,3 C16.7761424,3 17,3.22385763 17,3.5 C17,3.77614237 16.7761424,4 16.5,4 L12,4 L12,5.83333333 C12,6.10947571 11.7761424,6.33333333 11.5,6.33333333 C11.2238576,6.33333333 11,6.10947571 11,5.83333333 L11,1.5 L11,1.5 C11,1.22385763 11.2238576,1 11.5,1 C11.7761424,1 12,1.22385763 12,1.5 L12,3 Z M1.5,3 L9.5,3 C9.77614237,3 10,3.22385763 10,3.5 C10,3.77614237 9.77614237,4 9.5,4 L1.5,4 C1.22385763,4 1,3.77614237 1,3.5 C1,3.22385763 1.22385763,3 1.5,3 L1.5,3 Z M6.5,8.5 L16.5,8.5 C16.7761424,8.5 17,8.72385763 17,9 C17,9.27614237 16.7761424,9.5 16.5,9.5 L6.5,9.5 C6.22385763,9.5 6,9.27614237 6,9 C6,8.72385763 6.22385763,8.5 6.5,8.5 Z M1.5,14 L4.5,14 C4.77614237,14 5,14.2238576 5,14.5 C5,14.7761424 4.77614237,15 4.5,15 L1.5,15 C1.22385763,15 1,14.7761424 1,14.5 C1,14.2238576 1.22385763,14 1.5,14 L1.5,14 Z" id="Combined-Shape"></path>
        </g>
    </g>
</svg>