<?xml version="1.0" encoding="UTF-8"?>
<svg width="24px" height="24px" viewBox="0 0 24 24" version="1.1" xmlns="http://www.w3.org/2000/svg" xmlns:xlink="http://www.w3.org/1999/xlink">
    <!-- Generator: (null) (null) ((null)) - http://www.bohemiancoding.com/sketch -->
    <title>tune</title>
    <desc>Created with (null).</desc>
    <defs></defs>
    <g id="Android" stroke="none" stroke-width="1" fill="none" fill-rule="evenodd">
        <g id="tune" fill="#000000">
            <path d="M6,13 L3,13 C2.44771525,13 2,12.5522847 2,12 C2,11.4477153 2.44771525,11 3,11 L6,11 L6,10 C6,9.44771525 6.44771525,9 7,9 C7.55228475,9 8,9.44771525 8,10 L8,14 C8,14.5522847 7.55228475,15 7,15 C6.44771525,15 6,14.5522847 6,14 L6,13 Z M14,18 L21,18 C21.5522847,18 22,18.4477153 22,19 C22,19.5522847 21.5522847,20 21,20 L14,20 L14,21 C14,21.5522847 13.5522847,22 13,22 C12.4477153,22 12,21.5522847 12,21 L12,17 C12,16.4477153 12.4477153,16 13,16 C13.5522847,16 14,16.4477153 14,17 L14,18 Z M18,4 L21,4 C21.5522847,4 22,4.44771525 22,5 C22,5.55228475 21.5522847,6 21,6 L18,6 L18,7 C18,7.55228475 17.5522847,8 17,8 C16.4477153,8 16,7.55228475 16,7 L16,3 C16,2.44771525 16.4477153,2 17,2 C17.5522847,2 18,2.44771525 18,3 L18,4 Z M3,4 L13,4 C13.5522847,4 14,4.44771525 14,5 C14,5.55228475 13.5522847,6 13,6 L3,6 C2.44771525,6 2,5.55228475 2,5 C2,4.44771525 2.44771525,4 3,4 Z M3,18 L9,18 C9.55228475,18 10,18.4477153 10,19 C10,19.5522847 9.55228475,20 9,20 L3,20 C2.44771525,20 2,19.5522847 2,19 C2,18.4477153 2.44771525,18 3,18 Z M21,11 C21.5522847,11 22,11.4477153 22,12 C22,12.5522847 21.5522847,13 21,13 L11,13 C10.4477153,13 10,12.5522847 10,12 C10,11.4477153 10.4477153,11 11,11 L21,11 Z" id="Combined-Shape"></path>
        </g>
    </g>
</svg>