<?xml version="1.0" encoding="UTF-8"?>
<svg width="20px" height="20px" viewBox="0 0 20 20" version="1.1" xmlns="http://www.w3.org/2000/svg" xmlns:xlink="http://www.w3.org/1999/xlink">
    <!-- Generator: sketchtool 43.2 (39069) - http://www.bohemiancoding.com/sketch -->
    <title>calendar--small</title>
    <desc>Created with sketchtool.</desc>
    <defs></defs>
    <g id="Web" stroke="none" stroke-width="1" fill="none" fill-rule="evenodd">
        <g id="calendar--small" fill="#000000">
            <path d="M10,9.5 L8.5,9.5 C8.224,9.5 8,9.724 8,10 C8,10.276 8.224,10.5 8.5,10.5 L9.5,10.5 L9.5,14.5 L8.5,14.5 C8.224,14.5 8,14.724 8,15 C8,15.276 8.224,15.5 8.5,15.5 L11.5,15.5 C11.776,15.5 12,15.276 12,15 C12,14.724 11.776,14.5 11.5,14.5 L10.5,14.5 L10.5,10 C10.5,9.724 10.276,9.5 10,9.5 L10,9.5 Z M5,18 C3.346,18 2,16.654 2,15 L2,7 L18,7 L18,15 C18,16.654 16.654,18 15,18 L5,18 Z M2,6 L2,5 C2,3.346 3.346,2 5,2 L15,2 C16.654,2 18,3.346 18,5 L18,6 L2,6 Z M15,1 L5,1 C2.791,1 1,2.791 1,5 L1,15 C1,17.209 2.791,19 5,19 L15,19 C17.209,19 19,17.209 19,15 L19,5 C19,2.791 17.209,1 15,1 L15,1 Z" id="Page-1"></path>
        </g>
    </g>
</svg>