<?xml version="1.0" encoding="UTF-8" standalone="no"?>
<svg width="28px" height="28px" viewBox="0 0 28 28" version="1.1" xmlns="http://www.w3.org/2000/svg" xmlns:xlink="http://www.w3.org/1999/xlink">
    <!-- Generator: sketchtool 43.2 (39069) - http://www.bohemiancoding.com/sketch -->
    <title>calendar</title>
    <desc>Created with sketchtool.</desc>
    <defs></defs>
    <g id="Web" stroke="none" stroke-width="1" fill="none" fill-rule="evenodd">
        <g id="calendar" fill="#000000">
            <path d="M24,8 L4,8 L4,6 C4,4.896 4.897,4 6,4 C6,4.553 6.448,5 7,5 C7.552,5 8,4.553 8,4 L13,4 C13,4.553 13.448,5 14,5 C14.552,5 15,4.553 15,4 L20,4 C20,4.553 20.448,5 21,5 C21.552,5 22,4.553 22,4 C23.103,4 24,4.896 24,6 L24,8 Z M24,22 C24,23.103 23.103,24 22,24 L6,24 C4.897,24 4,23.103 4,22 L4,10 L24,10 L24,22 Z M22,2 L22,2 L22,1 C22,0.447 21.552,0 21,0 C20.448,0 20,0.447 20,1 L20,2 L15,2 L15,1 C15,0.447 14.552,0 14,0 C13.448,0 13,0.447 13,1 L13,2 L8,2 L8,1 C8,0.447 7.552,0 7,0 C6.448,0 6,0.447 6,1 L6,2 C3.791,2 2,3.791 2,6 L2,8 L2,10 L2,22 C2,24.209 3.791,26 6,26 L22,26 C24.209,26 26,24.209 26,22 L26,10 L26,8 L26,6 C26,3.791 24.209,2 22,2 L22,2 Z" id="Page-1"></path>
        </g>
    </g>
</svg>