<?xml version="1.0" encoding="UTF-8"?>
<svg width="28px" height="28px" viewBox="0 0 28 28" version="1.1" xmlns="http://www.w3.org/2000/svg" xmlns:xlink="http://www.w3.org/1999/xlink">
    <!-- Generator: sketchtool 43.2 (39069) - http://www.bohemiancoding.com/sketch -->
    <title>check-circle</title>
    <desc>Created with sketchtool.</desc>
    <defs></defs>
    <g id="Web" stroke="none" stroke-width="1" fill="none" fill-rule="evenodd">
        <g id="check-circle" fill="#000000">
            <path d="M20.707,11.707 L14,19.707 C13.805,19.902 13.506,20 13.25,20 C12.994,20 12.781,19.902 12.586,19.707 L8.293,15.707 C7.902,15.316 7.902,14.684 8.293,14.293 C8.684,13.902 9.316,13.902 9.707,14.293 L13.25,18 L19.293,10.293 C19.684,9.902 20.316,9.902 20.707,10.293 C21.098,10.684 21.098,11.316 20.707,11.707 M14,2 C7.373,2 2,7.373 2,14 C2,20.627 7.373,26 14,26 C20.627,26 26,20.627 26,14 C26,7.373 20.627,2 14,2" id="Page-1"></path>
        </g>
    </g>
</svg>