<?xml version="1.0" encoding="UTF-8"?>
<svg width="20px" height="20px" viewBox="0 0 20 20" version="1.1" xmlns="http://www.w3.org/2000/svg" xmlns:xlink="http://www.w3.org/1999/xlink">
    <!-- Generator: sketchtool 43.2 (39069) - http://www.bohemiancoding.com/sketch -->
    <title>check-circle--small</title>
    <desc>Created with sketchtool.</desc>
    <defs></defs>
    <g id="Web" stroke="none" stroke-width="1" fill="none" fill-rule="evenodd">
        <g id="check-circle--small" fill="#000000">
            <path d="M14.859,6.837 L9.124,13.848 C9.028,13.945 8.898,14 8.761,14 C8.625,14 8.494,13.945 8.399,13.848 L5.14,10.838 C4.947,10.641 4.954,10.327 5.154,10.138 C5.354,9.95 5.671,9.953 5.865,10.151 L8.761,12.79 L14.134,6.151 C14.329,5.954 14.647,5.95 14.845,6.138 C15.046,6.326 15.052,6.64 14.859,6.837 M10,1 C5.029,1 1,5.029 1,10 C1,14.971 5.029,19 10,19 C14.97,19 19,14.971 19,10 C19,5.029 14.97,1 10,1" id="Fill-1"></path>
        </g>
    </g>
</svg>