<?xml version="1.0" encoding="UTF-8" standalone="no"?>
<svg width="28px" height="28px" viewBox="0 0 28 28" version="1.1" xmlns="http://www.w3.org/2000/svg" xmlns:xlink="http://www.w3.org/1999/xlink">
    <!-- Generator: sketchtool 43.2 (39069) - http://www.bohemiancoding.com/sketch -->
    <title>export</title>
    <desc>Created with sketchtool.</desc>
    <defs></defs>
    <g id="Web" stroke="none" stroke-width="1" fill="none" fill-rule="evenodd">
        <g id="export" fill="#000000">
            <path d="M19,12 L18,12 C17.447,12 17,12.448 17,13 C17,13.552 17.447,14 18,14 L19,14 C20.654,14 22,15.346 22,17 L22,23 C22,24.654 20.654,26 19,26 L9,26 C7.346,26 6,24.654 6,23 L6,17 C6,15.346 7.346,14 9,14 L10,14 C10.552,14 11,13.552 11,13 C11,12.448 10.552,12 10,12 L9,12 C6.243,12 4,14.243 4,17 L4,23 C4,25.757 6.243,28 9,28 L19,28 C21.757,28 24,25.757 24,23 L24,17 C24,14.243 21.757,12 19,12 M8.219,5.625 C7.874,5.193 7.944,4.564 8.375,4.218 L13.375,0.218 C13.74,-0.073 14.26,-0.073 14.625,0.218 L19.625,4.218 C20.056,4.564 20.126,5.193 19.781,5.625 C19.583,5.871 19.293,6 18.999,6 C18.78,6 18.56,5.928 18.375,5.781 L15,3.08 L15,19 C15,19.552 14.553,20 14,20 C13.447,20 13,19.552 13,19 L13,3.08 L9.625,5.781 C9.192,6.125 8.564,6.055 8.219,5.625" id="Fill-1"></path>
        </g>
    </g>
</svg>