<?xml version="1.0" encoding="UTF-8"?>
<svg width="20px" height="20px" viewBox="0 0 20 20" version="1.1" xmlns="http://www.w3.org/2000/svg" xmlns:xlink="http://www.w3.org/1999/xlink">
    <!-- Generator: sketchtool 43.2 (39069) - http://www.bohemiancoding.com/sketch -->
    <title>export--small</title>
    <desc>Created with sketchtool.</desc>
    <defs></defs>
    <g id="Web" stroke="none" stroke-width="1" fill="none" fill-rule="evenodd">
        <g id="export--small" fill="#000000">
            <path d="M13.5,7.9995 C13.224,7.9995 13,8.2235 13,8.4995 C13,8.7755 13.224,8.9995 13.5,8.9995 C15.43,8.9995 17,10.5695 17,12.4995 L17,15.4995 C17,17.4295 15.43,18.9995 13.5,18.9995 L6.5,18.9995 C4.57,18.9995 3,17.4295 3,15.4995 L3,12.4995 C3,10.5695 4.57,8.9995 6.5,8.9995 C6.776,8.9995 7,8.7755 7,8.4995 C7,8.2235 6.776,7.9995 6.5,7.9995 C4.019,7.9995 2,10.0185 2,12.4995 L2,15.4995 C2,17.9805 4.019,19.9995 6.5,19.9995 L13.5,19.9995 C15.981,19.9995 18,17.9805 18,15.4995 L18,12.4995 C18,10.0185 15.981,7.9995 13.5,7.9995 M4.13,5.8345 C3.944,5.6305 3.959,5.3135 4.164,5.1285 L9.664,0.1285 C9.689,0.1055 9.72,0.0935 9.748,0.0765 C9.771,0.0635 9.789,0.0465 9.813,0.0365 C9.933,-0.0125 10.067,-0.0125 10.187,0.0365 C10.211,0.0465 10.229,0.0635 10.252,0.0765 C10.28,0.0935 10.311,0.1055 10.336,0.1285 L15.836,5.1285 C16.041,5.3135 16.056,5.6305 15.87,5.8345 C15.771,5.9435 15.636,5.9985 15.5,5.9985 C15.38,5.9985 15.26,5.9555 15.164,5.8685 L10.5,1.6285 L10.5,12.4995 C10.5,12.7755 10.276,12.9995 10,12.9995 C9.724,12.9995 9.5,12.7755 9.5,12.4995 L9.5,1.6285 L4.836,5.8685 C4.633,6.0545 4.316,6.0415 4.13,5.8345" id="Page-1"></path>
        </g>
    </g>
</svg>