<?xml version="1.0" encoding="UTF-8"?>
<svg width="24px" height="24px" viewBox="0 0 24 24" version="1.1" xmlns="http://www.w3.org/2000/svg" xmlns:xlink="http://www.w3.org/1999/xlink">
    <!-- Generator: sketchtool 43.2 (39069) - http://www.bohemiancoding.com/sketch -->
    <title>external-facebookBoxed</title>
    <desc>Created with sketchtool.</desc>
    <defs></defs>
    <g id="Web" stroke="none" stroke-width="1" fill="none" fill-rule="evenodd">
        <g id="external-facebookBoxed" fill-rule="nonzero" fill="#000000">
            <path d="M19.7777778,2 L4.22222222,2 C3,2 2,3 2,4.22222222 L2,19.7777778 C2,21.0011111 3,22 4.22222222,22 L12,22 L12,14.2222222 L9.77777778,14.2222222 L9.77777778,11.4722222 L12,11.4722222 L12,9.19444444 C12,6.79 13.3466667,5.10111111 16.1844444,5.10111111 L18.1877778,5.10333333 L18.1877778,7.99777778 L16.8577778,7.99777778 C15.7533333,7.99777778 15.3333333,8.82666667 15.3333333,9.59555556 L15.3333333,11.4733333 L18.1866667,11.4733333 L17.5555556,14.2222222 L15.3333333,14.2222222 L15.3333333,22 L19.7777778,22 C21,22 22,21.0011111 22,19.7777778 L22,4.22222222 C22,3 21,2 19.7777778,2 Z" id="Shape"></path>
        </g>
    </g>
</svg>