<?xml version="1.0" encoding="UTF-8" standalone="no"?>
<svg width="24px" height="24px" viewBox="0 0 24 24" version="1.1" xmlns="http://www.w3.org/2000/svg" xmlns:xlink="http://www.w3.org/1999/xlink">
    <!-- Generator: sketchtool 43.2 (39069) - http://www.bohemiancoding.com/sketch -->
    <title>external-twitter</title>
    <desc>Created with sketchtool.</desc>
    <defs></defs>
    <g id="Web" stroke="none" stroke-width="1" fill="none" fill-rule="evenodd">
        <g id="external-twitter" fill-rule="nonzero" fill="#000000">
            <path d="M19.9521739,7.98287854 C19.9608696,8.15623328 19.9641304,8.3317282 19.9641304,8.50508293 C19.9641304,13.8448368 15.8369565,20 8.29021739,20 C5.97173913,20 3.81630435,19.3311932 2,18.1840556 C2.32173913,18.2215088 2.64782609,18.2407705 2.97826087,18.2407705 C4.90217391,18.2407705 6.67065217,17.5944355 8.07391304,16.5125736 C6.27934783,16.4794007 4.76304348,15.3130016 4.24130435,13.7078652 C4.49130435,13.7538791 4.74891304,13.7784912 5.01304348,13.7784912 C5.38804348,13.7784912 5.75108696,13.7303371 6.09456522,13.6383093 C4.2173913,13.2659176 2.80326087,11.6340289 2.80326087,9.67576244 L2.80326087,9.62546816 C3.35652174,9.92830391 3.99021739,10.1102194 4.66195652,10.1316212 C3.56086957,9.40609952 2.83586957,8.17121455 2.83586957,6.76832531 C2.83586957,6.02889246 3.03804348,5.33440342 3.3923913,4.73729267 C5.41521739,7.18245051 8.44021739,8.78972713 11.85,8.9588015 C11.7804348,8.6623863 11.7445652,8.3552702 11.7445652,8.03745318 C11.7445652,5.80738363 13.5804348,4 15.8467391,4 C17.0271739,4 18.0934783,4.48903157 18.8423913,5.27447833 C19.776087,5.09256287 20.6543478,4.75655431 21.4478261,4.29427501 C21.1413043,5.23702515 20.4902174,6.02889246 19.6434783,6.52862493 C20.473913,6.43017657 21.2630435,6.21508828 22,5.8929909 C21.45,6.70411985 20.7543478,7.41466025 19.9521739,7.98287854 Z" id="Shape"></path>
        </g>
    </g>
</svg>