<?xml version="1.0" encoding="UTF-8"?>
<svg width="28px" height="28px" viewBox="0 0 28 28" version="1.1" xmlns="http://www.w3.org/2000/svg" xmlns:xlink="http://www.w3.org/1999/xlink">
    <!-- Generator: sketchtool 43.2 (39069) - http://www.bohemiancoding.com/sketch -->
    <title>hide</title>
    <desc>Created with sketchtool.</desc>
    <defs></defs>
    <g id="Web" stroke="none" stroke-width="1" fill="none" fill-rule="evenodd">
        <g id="hide" fill="#000000">
            <path d="M17.641,20.1642035 L8.652,9.17820347 C6.556,10.3112035 4.983,12.1232035 4,14.3752035 C5.706,18.2812035 9.439,20.8752035 13.787,20.8752035 C15.135,20.8752035 16.436,20.6252035 17.641,20.1642035 L17.641,20.1642035 Z M23.691,24.6722035 C23.862,25.0702035 23.773,25.3602035 23.42,25.6492035 C22.994,25.9992035 22.363,25.9352035 22.013,25.5082035 L18.988,21.8112035 C17.375,22.4972035 15.611,22.8762035 13.787,22.8762035 C8.476,22.8762035 4.062,19.7272035 2.144,14.8602035 L2,14.4972035 L2.144,14.1372035 C3.218,11.4132035 5.073,9.16820347 7.429,7.70520347 L4.013,3.55420347 C3.663,3.12720347 3.726,2.54320347 4.154,2.19220347 C4.581,1.84320347 5.211,1.99820347 5.561,2.42620347 L9.255,7.12520347 L9.259,7.12520347 L23.691,24.6722035 Z M11.329,6.13220347 C12.121,5.96720347 12.941,5.87520347 13.787,5.87520347 C19.099,5.87520347 23.936,9.25820347 25.855,14.1252035 L26,14.4912035 L25.855,14.8572035 C25.1,16.7712035 23.891,18.4162035 22.381,19.7102035 L21.032,18.0532035 C22.153,17.0392035 23.08,15.8042035 23.704,14.3752035 C21.998,10.4692035 18.135,7.87520347 13.787,7.87520347 C13.451,7.87520347 13.119,7.89520347 12.79,7.92620347 L11.329,6.13220347 Z" id="Fill-1"></path>
        </g>
    </g>
</svg>