<?xml version="1.0" encoding="UTF-8"?>
<svg width="20px" height="20px" viewBox="0 0 20 20" version="1.1" xmlns="http://www.w3.org/2000/svg" xmlns:xlink="http://www.w3.org/1999/xlink">
    <!-- Generator: sketchtool 43.2 (39069) - http://www.bohemiancoding.com/sketch -->
    <title>overflow--small</title>
    <desc>Created with sketchtool.</desc>
    <defs></defs>
    <g id="Web" stroke="none" stroke-width="1" fill="none" fill-rule="evenodd">
        <g id="overflow--small" fill="#000000">
            <g id="Page-1" transform="translate(0.000000, 8.000000)">
                <path d="M2,3 C1.448,3 1,2.551 1,2 C1,1.449 1.448,1 2,1 C2.552,1 3,1.449 3,2 C3,2.551 2.552,3 2,3 M2,0 C0.896,0 0,0.896 0,2 C0,3.104 0.896,4 2,4 C3.104,4 4,3.104 4,2 C4,0.896 3.104,0 2,0" id="Fill-1"></path>
                <path d="M10,3 C9.448,3 9,2.551 9,2 C9,1.449 9.448,1 10,1 C10.552,1 11,1.449 11,2 C11,2.551 10.552,3 10,3 M10,0 C8.896,0 8,0.896 8,2 C8,3.104 8.896,4 10,4 C11.104,4 12,3.104 12,2 C12,0.896 11.104,0 10,0" id="Fill-3"></path>
                <path d="M18,3 C17.448,3 17,2.551 17,2 C17,1.449 17.448,1 18,1 C18.552,1 19,1.449 19,2 C19,2.551 18.552,3 18,3 M18,0 C16.896,0 16,0.896 16,2 C16,3.104 16.896,4 18,4 C19.104,4 20,3.104 20,2 C20,0.896 19.104,0 18,0" id="Fill-5"></path>
            </g>
        </g>
    </g>
</svg>