<?xml version="1.0" encoding="UTF-8" standalone="no"?>
<svg width="28px" height="28px" viewBox="0 0 28 28" version="1.1" xmlns="http://www.w3.org/2000/svg" xmlns:xlink="http://www.w3.org/1999/xlink">
    <!-- Generator: sketchtool 43.2 (39069) - http://www.bohemiancoding.com/sketch -->
    <title>reply</title>
    <desc>Created with sketchtool.</desc>
    <defs></defs>
    <g id="Web" stroke="none" stroke-width="1" fill="none" fill-rule="evenodd">
        <g id="reply" fill="#000000">
            <path d="M15.9092,9 L9.1742,9 L13.7592,3.65 C14.1192,3.231 14.0702,2.601 13.6502,2.241 C13.2332,1.882 12.6002,1.929 12.2412,2.35 L6.2412,9.35 C6.2022,9.396 6.1832,9.449 6.1532,9.499 C6.1262,9.545 6.0932,9.586 6.0732,9.636 C6.0292,9.75 6.0032,9.869 6.0022,9.99 C6.0022,9.994 6.0002,9.997 6.0002,10 C6.0002,10.003 6.0022,10.006 6.0022,10.01 C6.0032,10.131 6.0292,10.25 6.0732,10.364 C6.0932,10.414 6.1262,10.454 6.1532,10.5 C6.1832,10.551 6.2022,10.604 6.2412,10.65 L12.2412,17.65 C12.4382,17.882 12.7192,18 13.0002,18 C13.2302,18 13.4622,17.921 13.6502,17.759 C14.0702,17.399 14.1192,16.769 13.7592,16.35 L9.1742,11 L15.9092,11 C18.1652,11 20.0002,12.835 20.0002,15.091 L20.0002,25 C20.0002,25.553 20.4472,26 21.0002,26 C21.5532,26 22.0002,25.553 22.0002,25 L22.0002,15.091 C22.0002,11.732 19.2672,9 15.9092,9" id="Fill-1"></path>
        </g>
    </g>
</svg>