<?xml version="1.0" encoding="UTF-8"?>
<svg width="28px" height="28px" viewBox="0 0 28 28" version="1.1" xmlns="http://www.w3.org/2000/svg" xmlns:xlink="http://www.w3.org/1999/xlink">
    <!-- Generator: sketchtool 43.2 (39069) - http://www.bohemiancoding.com/sketch -->
    <title>search</title>
    <desc>Created with sketchtool.</desc>
    <defs></defs>
    <g id="Web" stroke="none" stroke-width="1" fill="none" fill-rule="evenodd">
        <g id="search" fill="#000000">
            <path d="M10,2 C5.582,2 2,5.582 2,10 C2,14.418 5.582,18 10,18 C11.849,18 13.545,17.367 14.9,16.314 L24.293,25.707 C24.488,25.902 24.744,26 25,26 C25.256,26 25.512,25.902 25.707,25.707 C26.098,25.316 26.098,24.684 25.707,24.293 L16.314,14.9 C17.367,13.545 18,11.849 18,10 C18,5.582 14.418,2 10,2 M10,4 C13.309,4 16,6.691 16,10 C16,11.338 15.562,12.608 14.735,13.673 L14.271,14.271 L13.673,14.735 C12.608,15.563 11.338,16 10,16 C6.691,16 4,13.309 4,10 C4,6.691 6.691,4 10,4" id="Fill-1"></path>
        </g>
    </g>
</svg>