<?xml version="1.0" encoding="UTF-8"?>
<svg width="28px" height="28px" viewBox="0 0 28 28" version="1.1" xmlns="http://www.w3.org/2000/svg" xmlns:xlink="http://www.w3.org/1999/xlink">
    <!-- Generator: sketchtool 43.2 (39069) - http://www.bohemiancoding.com/sketch -->
    <title>updates</title>
    <desc>Created with sketchtool.</desc>
    <defs></defs>
    <g id="Web" stroke="none" stroke-width="1" fill="none" fill-rule="evenodd">
        <g id="updates" fill="#000000">
            <path d="M25,15 C24.448,15 24,14.553 24,14 C24,19.514 19.514,24 14,24 C8.486,24 4,19.514 4,14 C4,8.486 8.486,4 14,4 C13.448,4 13,3.553 13,3 C13,2.447 13.448,2 14,2 C7.383,2 2,7.383 2,14 C2,20.617 7.383,26 14,26 C20.617,26 26,20.617 26,14 C26,14.553 25.552,15 25,15" id="Page-1"></path>
        </g>
    </g>
</svg>