<?xml version="1.0" encoding="UTF-8"?>
<svg width="20px" height="20px" viewBox="0 0 20 20" version="1.1" xmlns="http://www.w3.org/2000/svg" xmlns:xlink="http://www.w3.org/1999/xlink">
    <!-- Generator: sketchtool 43.2 (39069) - http://www.bohemiancoding.com/sketch -->
    <title>updates--small</title>
    <desc>Created with sketchtool.</desc>
    <defs></defs>
    <g id="Web" stroke="none" stroke-width="1" fill="none" fill-rule="evenodd">
        <g id="updates--small" fill="#000000">
            <path d="M18.5,10.5 C18.224,10.5 18,10.276 18,10 C18,14.411 14.411,18 10,18 C5.589,18 2,14.411 2,10 C2,5.589 5.589,2 10,2 C9.724,2 9.5,1.776 9.5,1.5 C9.5,1.224 9.724,1 10,1 C5.038,1 1,5.037 1,10 C1,14.963 5.038,19 10,19 C14.962,19 19,14.963 19,10 C19,10.276 18.776,10.5 18.5,10.5" id="Page-1"></path>
        </g>
    </g>
</svg>