<?xml version="1.0" encoding="UTF-8" standalone="no"?>
<svg width="36px" height="36px" viewBox="0 0 36 36" version="1.1" xmlns="http://www.w3.org/2000/svg" xmlns:xlink="http://www.w3.org/1999/xlink">
    <!-- Generator: sketchtool 43.2 (39069) - http://www.bohemiancoding.com/sketch -->
    <title>Web-large</title>
    <desc>Created with sketchtool.</desc>
    <defs></defs>
    <g id="Web" stroke="none" stroke-width="1" fill="none" fill-rule="evenodd">
        <g id="Web-large" fill="#000000">
            <path d="M23,11.5 C23,10.671 22.329,10 21.5,10 L19,10 L19,7.5 C19,6.671 18.329,6 17.5,6 C16.671,6 16,6.671 16,7.5 L16,10 L13.5,10 C12.671,10 12,10.671 12,11.5 C12,12.329 12.671,13 13.5,13 L16,13 L16,15.5 C16,16.329 16.671,17 17.5,17 C18.329,17 19,16.329 19,15.5 L19,13 L21.5,13 C22.329,13 23,12.329 23,11.5 M33,6.283 L33,18.5 C33,20.156 31.282,21 29.625,21 L12,21 C9,21 9,24.25 6,24.25 C4.5,24.25 3,23.156 3,21.5 L3,6.143 C3,4.766 3.75,3 5.125,3 L30.125,3 C31.5,3 33,4.906 33,6.283 M9,30 C9,31.656 7.656,33 6,33 C4.343,33 3,31.656 3,30 C3,28.342 4.343,27 6,27 C7.656,27 9,28.342 9,30" id="Page-1"></path>
        </g>
    </g>
</svg>