<?xml version="1.0" encoding="UTF-8" standalone="no"?>
<svg width="20px" height="20px" viewBox="0 0 20 20" version="1.1" xmlns="http://www.w3.org/2000/svg" xmlns:xlink="http://www.w3.org/1999/xlink">
    <!-- Generator: sketchtool 43.2 (39069) - http://www.bohemiancoding.com/sketch -->
    <title>Web-small</title>
    <desc>Created with sketchtool.</desc>
    <defs></defs>
    <g id="Web" stroke="none" stroke-width="1" fill="none" fill-rule="evenodd">
        <g id="Web-small" fill="#000000">
            <path d="M15,1 L5,1 C2.791,1 1,2.791 1,5 L1,10.986 C1,13.195 2.791,14.986 5,14.986 L5.928,14.986 C6.282,14.986 6.61,15.174 6.79,15.479 L8.211,17.896 C8.58,18.632 9.29,19 10,19 C10.71,19 11.42,18.632 11.789,17.896 L13.21,15.479 C13.39,15.174 13.718,14.986 14.072,14.986 L15,14.986 C17.209,14.986 19,13.195 19,10.986 L19,5 C19,2.791 17.209,1 15,1 M15,2 C16.654,2 18,3.346 18,5 L18,10.986 C18,12.64 16.654,13.986 15,13.986 L14.072,13.986 C13.366,13.986 12.706,14.364 12.348,14.972 L10.927,17.389 C10.916,17.409 10.905,17.428 10.895,17.448 C10.722,17.794 10.387,18 10,18 C9.613,18 9.278,17.794 9.105,17.448 C9.095,17.428 9.084,17.409 9.073,17.389 L7.652,14.972 C7.294,14.364 6.634,13.986 5.928,13.986 L5,13.986 C3.346,13.986 2,12.64 2,10.986 L2,5 C2,3.346 3.346,2 5,2 L15,2" id="Page-1"></path>
        </g>
    </g>
</svg>