<?xml version="1.0" encoding="UTF-8" standalone="no"?>
<svg width="48px" height="48px" viewBox="0 0 48 48" version="1.1" xmlns="http://www.w3.org/2000/svg" xmlns:xlink="http://www.w3.org/1999/xlink">
    <!-- Generator: sketchtool 43.2 (39069) - http://www.bohemiancoding.com/sketch -->
    <title>Web-xlarge</title>
    <desc>Created with sketchtool.</desc>
    <defs></defs>
    <g id="Web" stroke="none" stroke-width="1" fill="none" fill-rule="evenodd">
        <g id="Web-xlarge" fill="#000000">
            <path d="M32,16 C32,14.895 31.105,14 30,14 L26,14 L26,10 C26,8.895 25.105,8 24,8 C22.895,8 22,8.895 22,10 L22,14 L18,14 C16.895,14 16,14.895 16,16 C16,17.105 16.895,18 18,18 L22,18 L22,22 C22,23.105 22.895,24 24,24 C25.105,24 26,23.105 26,22 L26,18 L30,18 C31.105,18 32,17.105 32,16 M44,8 L44,24 C44,26.208 42.208,28 40,28 L16,28 C12,28 12,32 8,32 C6,32 4,30.208 4,28 L4,8 C4,5.789 5.791,4 8,4 L40,4 C42.208,4 44,5.789 44,8 M12,40 C12,42.208 10.208,44 8,44 C5.791,44 4,42.208 4,40 C4,37.789 5.791,36 8,36 C10.208,36 12,37.789 12,40" id="Page-1"></path>
        </g>
    </g>
</svg>