<?xml version="1.0" encoding="UTF-8" standalone="no"?>
<svg width="160px" height="160px" viewBox="0 0 160 160" version="1.1" xmlns="http://www.w3.org/2000/svg" xmlns:xlink="http://www.w3.org/1999/xlink">
    <!-- Generator: sketchtool 43.2 (39069) - http://www.bohemiancoding.com/sketch -->
    <title>Web-xxxlarge</title>
    <desc>Created with sketchtool.</desc>
    <defs></defs>
    <g id="Web" stroke="none" stroke-width="1" fill="none" fill-rule="evenodd">
        <g id="Web-xxxlarge" fill="#000000">
            <path d="M106,56 C106,52.684 103.316,50 100,50 L86,50 L86,36 C86,32.684 83.316,30 80,30 C76.684,30 74,32.684 74,36 L74,50 L60,50 C56.684,50 54,52.684 54,56 C54,59.316 56.684,62 60,62 L74,62 L74,76 C74,79.316 76.684,82 80,82 C83.316,82 86,79.316 86,76 L86,62 L100,62 C103.316,62 106,59.316 106,56 M140,32 L140,80 C140,86.625 134.625,92 128,92 L56,92 C44,92 44,104 32,104 C26,104 20,98.625 20,92 L20,32 C20,25.367 25.371,20 32,20 L128,20 C134.625,20 140,25.367 140,32 M44,128 C44,134.625 38.625,140 32,140 C25.371,140 20,134.625 20,128 C20,121.367 25.371,116 32,116 C38.625,116 44,121.367 44,128" id="Page-1"></path>
        </g>
    </g>
</svg>