<?xml version="1.0" encoding="UTF-8" standalone="no"?>
<svg width="72px" height="72px" viewBox="0 0 72 72" version="1.1" xmlns="http://www.w3.org/2000/svg" xmlns:xlink="http://www.w3.org/1999/xlink">
    <!-- Generator: sketchtool 43.2 (39069) - http://www.bohemiancoding.com/sketch -->
    <title>Web-xxlarge</title>
    <desc>Created with sketchtool.</desc>
    <defs></defs>
    <g id="Web" stroke="none" stroke-width="1" fill="none" fill-rule="evenodd">
        <g id="Web-xxlarge" fill="#000000">
            <path d="M18,60 C18,63.313 15.312,66 12,66 C8.686,66 6,63.313 6,60 C6,56.684 8.686,54 12,54 C15.312,54 18,56.684 18,60 M44.85,27 L39,27 L39,32.85 C39,34.591 37.658,36 36,36 C34.342,36 33,34.591 33,32.85 L33,27 L27.15,27 C25.409,27 24,25.658 24,24 C24,22.342 25.409,21 27.15,21 L33,21 L33,15.15 C33,13.409 34.342,12 36,12 C37.658,12 39,13.409 39,15.15 L39,21 L44.85,21 C46.591,21 48,22.342 48,24 C48,25.658 46.591,27 44.85,27 M60,6 L12,6 C8.686,6 6,8.684 6,12 L6,42 C6,45.312 8.686,48 12,48 C17,48 19,42 24,42 L60,42 C63.313,42 66,39.313 66,36 L66,12 C66,8.684 63.313,6 60,6" id="Page-1"></path>
        </g>
    </g>
</svg>