<?xml version="1.0" encoding="UTF-8" standalone="no"?>
<svg width="16px" height="16px" viewBox="0 0 16 16" version="1.1" xmlns="http://www.w3.org/2000/svg" xmlns:xlink="http://www.w3.org/1999/xlink">
    <!-- Generator: sketchtool 43.2 (39069) - http://www.bohemiancoding.com/sketch -->
    <title>Web-small</title>
    <desc>Created with sketchtool.</desc>
    <defs></defs>
    <g id="Web" stroke="none" stroke-width="1" fill="none" fill-rule="evenodd">
        <g id="Web-small" fill="#000000">
            <path d="M11,5 L9,5 L9,3 L7,3 L7,5 L5,5 L5,7 L7,7 L7,9 L9,9 L9,7 L11,7 L11,5 Z M14,3 L14,9 L14,9.001 C14,9.553 13.552,10 13,10 L5,10 C3.807,10 4,11 3,11 C2.448,11 2,10.553 2,10 L2,3 C2,2.447 2.448,2 3,2 L13,2 C13.552,2 14,2.447 14,3 L14,3 Z M4,13.001 C4,13.553 3.552,14 3,14 C2.448,14 2,13.553 2,13.001 C2,12.447 2.448,12 3,12 C3.552,12 4,12.447 4,13.001 L4,13.001 Z" id="Page-1"></path>
        </g>
    </g>
</svg>