<?xml version="1.0" encoding="UTF-8" standalone="no"?>
<svg width="24px" height="24px" viewBox="0 0 24 24" version="1.1" xmlns="http://www.w3.org/2000/svg" xmlns:xlink="http://www.w3.org/1999/xlink">
    <!-- Generator: sketchtool 43.2 (39069) - http://www.bohemiancoding.com/sketch -->
    <title>Web-medium</title>
    <desc>Created with sketchtool.</desc>
    <defs></defs>
    <g id="Web" stroke="none" stroke-width="1" fill="none" fill-rule="evenodd">
        <g id="Web-medium" fill="#000000">
            <path d="M16,8 C16,7.447 15.553,7 15,7 L13,7 L13,5 C13,4.447 12.553,4 12,4 C11.447,4 11,4.447 11,5 L11,7 L9,7 C8.447,7 8,7.447 8,8 C8,8.553 8.447,9 9,9 L11,9 L11,11 C11,11.553 11.447,12 12,12 C12.553,12 13,11.553 13,11 L13,9 L15,9 C15.553,9 16,8.553 16,8 M22,4 L22,12 C22,13.104 21.104,14 20,14 L8,14 C6,14 6,16 4,16 C3,16 2,15.104 2,14 L2,4 C2,2.895 2.896,2 4,2 L20,2 C21.104,2 22,2.895 22,4 M6,20 C6,21.104 5.104,22 4,22 C2.896,22 2,21.104 2,20 C2,18.895 2.896,18 4,18 C5.104,18 6,18.895 6,20" id="Page-1"></path>
        </g>
    </g>
</svg>