<?xml version="1.0" encoding="UTF-8" standalone="no"?>
<svg width="24px" height="24px" viewBox="0 0 24 24" version="1.1" xmlns="http://www.w3.org/2000/svg" xmlns:xlink="http://www.w3.org/1999/xlink">
    <!-- Generator: sketchtool 43.2 (39069) - http://www.bohemiancoding.com/sketch -->
    <title>announce</title>
    <desc>Created with sketchtool.</desc>
    <defs></defs>
    <g id="Web" stroke="none" stroke-width="1" fill="none" fill-rule="evenodd">
        <g id="announce" fill-rule="nonzero" fill="#000000">
            <path d="M12.1517276,2 C14.5921227,2 16.5712632,3.97914026 16.5712632,6.4195356 L16.5712632,12.2229603 C16.5712632,14.6633541 14.5921219,16.6424959 12.1517276,16.6424959 C9.71133332,16.6424959 7.73219201,14.6633541 7.73219201,12.2229603 L7.73219201,6.4195356 C7.73219201,3.97914026 9.71133256,2 12.1517276,2 Z M12.1517276,3.24997741 C10.6159371,3.24997741 9.33118308,4.32435368 9.04165465,5.79454976 L10.1403247,5.79456475 C10.3657116,5.79137722 10.5753552,5.90979394 10.6889789,6.10447083 C10.8026026,6.29914772 10.8026026,6.53992348 10.6889789,6.73460037 C10.5753552,6.92927726 10.3657116,7.04769398 10.1428498,7.0445243 L8.98216942,7.0445243 L8.98216942,8.69626161 L10.1403247,8.69627708 C10.3657116,8.69308955 10.5753552,8.81150627 10.6889789,9.00618316 C10.8026026,9.20086005 10.8026026,9.44163581 10.6889789,9.6363127 C10.5753552,9.83098959 10.3657116,9.94940631 10.1428498,9.94623664 L8.98216942,9.94623664 L8.98216942,11.5979739 L10.1403247,11.5979894 C10.3657116,11.5948019 10.5753552,11.7132186 10.6889789,11.9078955 C10.8026026,12.1025724 10.8026026,12.3433481 10.6889789,12.538025 C10.5753552,12.7327019 10.3657116,12.8511186 10.1428498,12.847949 L9.04121531,12.847949 C9.32781325,14.3195973 10.6120452,15.3925185 12.1517276,15.3925185 C13.6914211,15.3925185 14.9756605,14.3195819 15.2622461,12.8479172 L14.1690024,12.8477514 C13.9457578,12.8582608 13.7338685,12.7488564 13.6131699,12.5607594 C13.4924713,12.3726624 13.4813054,12.1344573 13.5838794,11.9358944 C13.6864533,11.7373315 13.8871792,11.6085858 14.1103841,11.5981678 C14.1396796,11.5972519 14.1396796,11.5972519 14.1606054,11.5979716 L15.3212858,11.5979716 L15.3212858,9.94621013 L14.1690024,9.9460391 C13.9457578,9.95654844 13.7338685,9.84714403 13.6131699,9.65904707 C13.4924713,9.4709501 13.4813054,9.23274494 13.5838794,9.03418207 C13.6864533,8.83561921 13.8871792,8.70687346 14.1103841,8.69645548 C14.1396796,8.69553958 14.1396796,8.69553958 14.1606054,8.69625923 L15.3212858,8.69625923 L15.3212858,7.0444978 L14.1690024,7.04432677 C13.9457578,7.05483611 13.7338685,6.9454317 13.6131699,6.75733474 C13.4924713,6.56923777 13.4813054,6.3310326 13.5838794,6.13246974 C13.6864533,5.93390688 13.8871792,5.80516113 14.1103841,5.79474315 C14.1396796,5.79382725 14.1396796,5.79382725 14.1606054,5.7945469 L15.2618,5.7945469 C14.9722705,4.32435228 13.6875171,3.24997741 12.1517276,3.24997741 Z M6.54720952,7.95778292 C6.6799977,8.07934956 6.75391878,8.25226991 6.75008301,8.42841337 L6.75008301,12.2229603 C6.75008301,15.2235002 9.15118806,17.6246049 12.1517276,17.6246049 C15.1522672,17.6246049 17.5533722,15.2235002 17.5533722,12.2229603 L17.5533901,8.43093856 C17.5502025,8.20555162 17.6686193,7.995908 17.8632961,7.88228432 C18.057973,7.76866065 18.2987488,7.76866065 18.4934257,7.88228432 C18.6881026,7.995908 18.8065193,8.20555162 18.8033496,8.42841337 L18.8033496,12.2229603 C18.8033496,15.6735939 16.1756508,18.5313523 12.7767163,18.8468515 L12.7767163,20.7495268 L15.9437493,20.7495437 C16.1691363,20.7463562 16.3787799,20.8647729 16.4924036,21.0594498 C16.6060272,21.2541267 16.6060272,21.4949024 16.4924036,21.6895793 C16.3787799,21.8842562 16.1691363,22.0026729 15.9462745,21.9995032 L8.36557775,21.9993057 C8.14233309,22.009815 7.93044385,21.9004106 7.80974524,21.7123137 C7.68904664,21.5242167 7.67788077,21.2860115 7.7804547,21.0874487 C7.88302862,20.8888858 8.08375458,20.7601401 8.3069594,20.7497221 C8.33625491,20.7488062 8.33625491,20.7488062 8.35718072,20.7495258 L11.5267389,20.7495258 L11.5267389,18.8468515 C8.12780447,18.5313523 5.5001056,15.6735939 5.5001056,12.2229603 L5.50014691,8.43225395 C5.49318043,8.10841593 5.73476727,7.8329141 6.05673807,7.79752051 C6.2356787,7.77781554 6.41442716,7.83622159 6.54720952,7.95778292 Z" id="Shape"></path>
        </g>
    </g>
</svg>