<?xml version="1.0" encoding="UTF-8"?>
<svg width="20px" height="20px" viewBox="0 0 20 20" version="1.1" xmlns="http://www.w3.org/2000/svg" xmlns:xlink="http://www.w3.org/1999/xlink">
    <!-- Generator: sketchtool 46.2 (44496) - http://www.bohemiancoding.com/sketch -->
    <title>archive--small</title>
    <desc>Created with sketchtool.</desc>
    <defs></defs>
    <g id="Web" stroke="none" stroke-width="1" fill="none" fill-rule="evenodd">
        <g id="archive--small" fill="#000000">
            <path d="M1,4 L19,4 L19,2 L1,2 L1,4 Z M18,5 L2,5 L2,15.5 C2,16.879 3.122,18 4.5,18 L15.5,18 C16.879,18 18,16.879 18,15.5 L18,5 Z M20,2 L20,4 C20,4.55 19.55,5 19,5 L19,5 L19,15.5 C19,17.43 17.429,19 15.5,19 L4.5,19 C2.57,19 1,17.43 1,15.5 L1,5 L1,5 C0.45,5 0,4.55 0,4 L0,2 C0,1.45 0.45,1 1,1 L4.498,1 L4.5,1 L15.5,1 L15.503,1 L19,1 C19.55,1 20,1.45 20,2 L20,2 Z M4,7.5 C4,7.224 4.224,7 4.5,7 L15.5,7 C15.776,7 16,7.224 16,7.5 C16,7.777 15.776,8 15.5,8 L4.5,8 C4.224,8 4,7.777 4,7.5 L4,7.5 Z" id="Page-1"></path>
        </g>
    </g>
</svg>