<?xml version="1.0" encoding="UTF-8"?>
<svg width="28px" height="28px" viewBox="0 0 28 28" version="1.1" xmlns="http://www.w3.org/2000/svg" xmlns:xlink="http://www.w3.org/1999/xlink">
    <!-- Generator: sketchtool 46.2 (44496) - http://www.bohemiancoding.com/sketch -->
    <title>archive</title>
    <desc>Created with sketchtool.</desc>
    <defs></defs>
    <g id="Web" stroke="none" stroke-width="1" fill="none" fill-rule="evenodd">
        <g id="archive" fill="#000000">
            <path d="M2,6 L26,6 L26,4 L2,4 L2,6 Z M24,8 L4,8 L4,22 C4,23.103 4.897,24 6,24 L22,24 C23.103,24 24,23.103 24,22 L24,8 Z M28,4 L28,6 C28,7.1 27.1,8 26,8 L26,22 C26,24.206 24.206,26 22,26 L6,26 C3.794,26 2,24.206 2,22 L2,8 C0.9,8 0,7.1 0,6 L0,4 C0,2.9 0.9,2 2,2 L26,2 C27.1,2 28,2.9 28,4 L28,4 Z M6,11 C6,10.448 6.448,10 7,10 L21,10 C21.553,10 22,10.448 22,11 C22,11.552 21.553,12 21,12 L7,12 C6.448,12 6,11.552 6,11 L6,11 Z" id="Page-1"></path>
        </g>
    </g>
</svg>