<?xml version="1.0" encoding="UTF-8"?>
<svg width="24px" height="24px" viewBox="0 0 24 24" version="1.1" xmlns="http://www.w3.org/2000/svg" xmlns:xlink="http://www.w3.org/1999/xlink">
    <!-- Generator: sketchtool 52.3 (67297) - http://www.bohemiancoding.com/sketch -->
    <title>arrow-left</title>
    <desc>Created with sketchtool.</desc>
    <g id="Web" stroke="none" stroke-width="1" fill="none" fill-rule="evenodd">
        <g id="arrow-left" fill="#000000">
            <path d="M21.4287857,11.1428571 L4.64078571,11.1428571 L11.7490714,4.03457143 C12.0842143,3.69942857 12.0842143,3.15771429 11.7490714,2.82257143 C11.4139286,2.48742857 10.8722143,2.48742857 10.5370714,2.82257143 L1.9665,11.3931429 C1.88764286,11.472 1.82421429,11.5671429 1.7805,11.6725714 C1.69392857,11.8817143 1.69392857,12.1182857 1.7805,12.3274286 C1.82421429,12.4328571 1.88764286,12.528 1.9665,12.6068571 L10.5370714,21.1774286 C10.7042143,21.3445714 10.9236429,21.4285714 11.1430714,21.4285714 C11.3625,21.4285714 11.5819286,21.3445714 11.7490714,21.1774286 C12.0842143,20.8422857 12.0842143,20.3005714 11.7490714,19.9654286 L4.64078571,12.8571429 L21.4287857,12.8571429 C21.9027857,12.8571429 22.2859286,12.474 22.2859286,12 C22.2859286,11.526 21.9027857,11.1428571 21.4287857,11.1428571" id="Fill-1"></path>
        </g>
    </g>
</svg>