<?xml version="1.0" encoding="UTF-8"?>
<svg width="16px" height="16px" viewBox="0 0 16 16" version="1.1" xmlns="http://www.w3.org/2000/svg" xmlns:xlink="http://www.w3.org/1999/xlink">
    <!-- Generator: (null) (null) ((null)) - http://www.bohemiancoding.com/sketch -->
    <title>arrow-right--small</title>
    <desc>Created with (null).</desc>
    <defs></defs>
    <g id="Web" stroke="none" stroke-width="1" fill="none" fill-rule="evenodd">
        <g id="arrow-right--small" fill="#000000">
            <path d="M14.706878,7.71626966 L2.20212087,7.71626966 L7.10540575,2.46269379 C7.25451611,2.30411611 7.24583773,2.05402097 7.08647111,1.90569956 C6.92868237,1.75737815 6.67858723,1.76605653 6.52947688,1.92463421 L1.01633854,7.83145543 C1.0155496,7.83145543 1.0155496,7.83224438 1.0155496,7.83224438 L1.00687122,7.8417117 C0.991881286,7.85827952 0.984780793,7.87800311 0.972946638,7.89614881 C0.957956708,7.91823924 0.940599947,7.93796283 0.93034368,7.96320903 C0.89168544,8.05788227 0.89168544,8.16360072 0.93034368,8.25827396 C0.940599947,8.28352015 0.957956708,8.30324375 0.972946638,8.32533417 C0.984780793,8.34347987 0.991881286,8.36320346 1.00687122,8.37977128 L1.0155496,8.38923861 C1.0155496,8.38923861 1.0155496,8.39002755 1.01633854,8.39002755 L6.52947688,14.2968488 C6.60679336,14.3796879 6.71172286,14.4222908 6.81744132,14.4222908 C6.91369244,14.4222908 7.01073251,14.3867884 7.08647111,14.3157834 C7.24583773,14.167462 7.25451611,13.9173669 7.10540575,13.7587892 L2.20212087,8.50521332 L14.706878,8.50521332 C14.9246264,8.50521332 15.1013498,8.32848994 15.1013498,8.11074149 C15.1013498,7.89299304 14.9246264,7.71626966 14.706878,7.71626966" id="Fill-1" transform="translate(8.001350, 8.111069) scale(-1, 1) translate(-8.001350, -8.111069) "></path>
        </g>
    </g>
</svg>