<?xml version="1.0" encoding="UTF-8"?>
<svg width="16px" height="16px" viewBox="0 0 16 16" version="1.1" xmlns="http://www.w3.org/2000/svg" xmlns:xlink="http://www.w3.org/1999/xlink">
    <!-- Generator: sketchtool 52.3 (67297) - http://www.bohemiancoding.com/sketch -->
    <title>audio--small</title>
    <desc>Created with sketchtool.</desc>
    <g id="Web" stroke="none" stroke-width="1" fill="none" fill-rule="evenodd">
        <g id="audio--small" fill="#000000">
            <path d="M9.23761015,4.3808111 C10.4949066,6.24706946 10.5062809,8.66891809 9.26735829,10.5526754 C9.18336354,10.6804174 9.04337229,10.7495381 8.90163115,10.7495381 C8.81851134,10.7495381 8.73539154,10.7267895 8.66102119,10.6777925 C8.45978376,10.5448009 8.40378726,10.2735678 8.53677895,10.0723304 C9.58146366,8.48430463 9.57096431,6.44218226 8.51228048,4.86990553 C8.3775389,4.66954305 8.43003562,4.39743506 8.6303981,4.26181854 C8.82988563,4.1279519 9.10286857,4.18044862 9.23761015,4.3808111 Z M12.3742891,7.50349093 C12.3742891,8.92527707 11.9551903,10.2499443 11.5859634,11.4179963 L11.480095,11.7557252 C11.4214737,11.9429635 11.2482345,12.061956 11.0618711,12.061956 C11.0189988,12.061956 10.9752515,12.0558314 10.9323792,12.0427072 C10.7013937,11.9700868 10.5727767,11.7251021 10.6445222,11.4941165 L10.7521405,11.1537628 C11.1021186,10.046082 11.4993438,8.79053549 11.4993438,7.50349093 C11.4993438,6.20332219 11.1021186,4.90140356 10.7503906,3.75172542 L10.6558965,3.43936994 C10.5859009,3.20838438 10.7162677,2.96427463 10.9481282,2.89427901 C11.1773639,2.82253349 11.4232235,2.95552518 11.4932192,3.18651074 L11.5877133,3.49624139 C11.9376914,4.64416964 12.3742891,6.07295534 12.3742891,7.50349093 Z M12.695394,13.2343828 C12.6096494,13.3280019 12.4924067,13.374374 12.3742891,13.374374 C12.2684207,13.374374 12.1616774,13.3358764 12.0776826,13.2580063 C11.9000687,13.0943915 11.8895694,12.8179088 12.0540591,12.6394199 C14.7970127,9.67773004 14.7970127,5.6976038 12.0540591,2.73503896 C11.8895694,2.55742506 11.9000687,2.28094234 12.0776826,2.11645262 C12.2535467,1.95283785 12.5309043,1.96246225 12.695394,2.14007615 C15.768202,5.45786878 15.768202,9.91659011 12.695394,13.2343828 Z M6.68714455,10.7057908 L3.9888132,8.51492772 C3.91094307,8.45018176 3.81294919,8.4160589 3.71320542,8.4160589 L1.87494532,8.4160589 L1.87494532,6.52092734 L3.71320542,6.52092734 C3.81294919,6.52092734 3.91094307,6.48680447 3.9888132,6.42293347 L6.68714455,4.23119545 L6.68714455,10.7057908 Z M7.31273045,2.91790253 C7.16136491,2.84440712 6.98112618,2.8671557 6.84900944,2.97389903 L3.55746516,5.64598203 L1.43747266,5.64598203 C1.19598775,5.64598203 1,5.84196978 1,6.08345468 L1,8.85353155 C1,9.09589141 1.19598775,9.29100421 1.43747266,9.29100421 L3.55746516,9.29100421 L6.84900944,11.9639622 C6.92862946,12.0287081 7.02662334,12.061956 7.12461721,12.061956 C7.18936316,12.061956 7.25323417,12.0488318 7.31273045,12.0190837 C7.46584588,11.9464632 7.56208987,11.7933478 7.56208987,11.6244834 L7.56208987,3.31250287 C7.56208987,3.14451337 7.46584588,2.99052299 7.31273045,2.91790253 Z" id="Fill-1"></path>
        </g>
    </g>
</svg>