<?xml version="1.0" encoding="UTF-8"?>
<svg width="24px" height="24px" viewBox="0 0 24 24" version="1.1" xmlns="http://www.w3.org/2000/svg" xmlns:xlink="http://www.w3.org/1999/xlink">
    <!-- Generator: sketchtool 52.3 (67297) - http://www.bohemiancoding.com/sketch -->
    <title>audio</title>
    <desc>Created with sketchtool.</desc>
    <g id="Web" stroke="none" stroke-width="1" fill="none" fill-rule="evenodd">
        <g id="audio" fill="#000000">
            <path d="M14.0692284,16.3468688 C15.8566698,13.629718 15.8396751,10.1348101 14.0262418,7.44165173 C13.7173383,6.98379481 13.0965323,6.86383229 12.6386754,7.17073639 C12.1808185,7.47963985 12.0598563,8.10044585 12.3677601,8.55830277 C13.7303343,10.5806708 13.7423305,13.2058504 12.3987504,15.2472125 C12.0948454,15.7080685 12.2228054,16.3278748 12.684661,16.6317798 C12.8536082,16.7437448 13.0445486,16.7967283 13.2334895,16.7967283 C13.558388,16.7967283 13.8772883,16.6387776 14.0692284,16.3468688 Z M17.1502655,17.8953849 L17.2972196,17.4295305 C17.7860669,15.8820141 18.3948766,13.9556161 18.3948766,11.9472437 C18.3948766,9.92587541 17.7880662,7.93749677 17.299219,6.33899631 L17.1702593,5.9121297 C17.0103093,5.38229528 16.4524836,5.08538806 15.9236489,5.24433839 C15.3948141,5.40328871 15.0959075,5.96111439 15.2558575,6.48994913 L15.3878163,6.92381355 C15.8606685,8.47033026 16.3955014,10.2237823 16.3955014,11.9472437 C16.3955014,13.6477123 15.8616682,15.3361847 15.3908154,16.8267189 L15.2418619,17.2995711 C15.0769135,17.8264065 15.3708216,18.3872312 15.8986567,18.5521797 C15.9976257,18.5821703 16.0975945,18.5971656 16.1965636,18.5971656 C16.6224305,18.5971656 17.0173071,18.3232512 17.1502655,17.8953849 Z M18.7287723,20.0757036 C23.0904092,15.3651756 23.0904092,9.03315438 18.7287723,4.32162673 C18.35189,3.91475388 17.7210872,3.89076138 17.3162137,4.2676436 C16.9113402,4.64252645 16.886348,5.2753287 17.2612309,5.68020218 C20.928085,9.63996475 20.928085,14.7573656 17.2612309,18.7171281 C16.886348,19.1220016 16.9113402,19.7548039 17.3162137,20.1296867 C17.5081537,20.3086308 17.7520775,20.3966033 17.9950016,20.3966033 C18.2639175,20.3966033 18.5318338,20.288637 18.7287723,20.0757036 Z M3.9993752,12.7979779 L6.1187129,12.7979779 C6.34864105,12.7979779 6.57157138,12.8769532 6.74951578,13.0219079 L9.79756326,15.4971344 L9.79756326,8.30038337 L6.74951578,10.7756099 C6.57157138,10.9195649 6.34864105,10.9985402 6.1187129,10.9985402 L3.9993752,10.9985402 L3.9993752,12.7979779 Z M10.7972509,18.5971656 C10.5723211,18.5971656 10.3483911,18.5211894 10.1674477,18.3732356 L5.76382381,14.7973531 L2.9996876,14.7973531 C2.44786004,14.7973531 2,14.3504927 2,13.7976655 L2,9.9988526 C2,9.44702505 2.44786004,8.999165 2.9996876,8.999165 L5.76382381,8.999165 L10.1674477,5.42428215 C10.4663543,5.18135807 10.8802249,5.13337306 11.2271165,5.29732183 C11.5750078,5.46326997 11.7969385,5.81516 11.7969385,6.20103942 L11.7969385,17.597478 C11.7969385,17.9833574 11.5750078,18.3342478 11.2271165,18.5001959 C11.0901593,18.5651756 10.9432052,18.5971656 10.7972509,18.5971656 Z" id="Fill-1"></path>
        </g>
    </g>
</svg>