<?xml version="1.0" encoding="UTF-8"?>
<svg width="16px" height="16px" viewBox="0 0 16 16" version="1.1" xmlns="http://www.w3.org/2000/svg" xmlns:xlink="http://www.w3.org/1999/xlink">
    <!-- Generator: (null) (null) ((null)) - http://www.bohemiancoding.com/sketch -->
    <title>block--small</title>
    <desc>Created with (null).</desc>
    <defs></defs>
    <g id="Web" stroke="none" stroke-width="1" fill="none" fill-rule="evenodd">
        <g id="block--small" fill="#000000">
            <path d="M7.9999999,14.3111109 C6.40171104,14.3111109 4.94463328,13.7083998 3.83151107,12.7262332 L12.7262332,3.83151107 C13.7091887,4.94463328 14.3111109,6.40171104 14.3111109,7.9999999 C14.3111109,11.4797887 11.4797887,14.3111109 7.9999999,14.3111109 M7.9999999,1.68888888 C9.59828877,1.68888888 11.0553665,2.29159998 12.1684887,3.27376663 L3.27376663,12.1684887 C2.29081109,11.0553665 1.68888888,9.59828877 1.68888888,7.9999999 C1.68888888,4.52021106 4.52021106,1.68888888 7.9999999,1.68888888 M7.9999999,0.9 C4.0847444,0.9 0.9,4.0847444 0.9,7.9999999 C0.9,11.9152554 4.0847444,15.0999998 7.9999999,15.0999998 C11.9152554,15.0999998 15.0999998,11.9152554 15.0999998,7.9999999 C15.0999998,4.0847444 11.9152554,0.9 7.9999999,0.9" id="Page-1"></path>
        </g>
    </g>
</svg>