<?xml version="1.0" encoding="UTF-8"?>
<svg width="20px" height="20px" viewBox="0 0 20 20" version="1.1" xmlns="http://www.w3.org/2000/svg" xmlns:xlink="http://www.w3.org/1999/xlink">
    <!-- Generator: sketchtool 43.2 (39069) - http://www.bohemiancoding.com/sketch -->
    <title>block--small</title>
    <desc>Created with sketchtool.</desc>
    <defs></defs>
    <g id="Web" stroke="none" stroke-width="1" fill="none" fill-rule="evenodd">
        <g id="block--small" fill="#000000">
            <path d="M10,18 C7.974,18 6.127,17.236 4.716,15.991 L15.991,4.716 C17.237,6.127 18,7.974 18,10 C18,14.411 14.411,18 10,18 M10,2 C12.026,2 13.873,2.764 15.284,4.009 L4.009,15.284 C2.763,13.873 2,12.026 2,10 C2,5.589 5.589,2 10,2 M10,1 C5.037,1 1,5.037 1,10 C1,14.963 5.037,19 10,19 C14.963,19 19,14.963 19,10 C19,5.037 14.963,1 10,1" id="Page-1"></path>
        </g>
    </g>
</svg>