<?xml version="1.0" encoding="UTF-8"?>
<svg width="24px" height="24px" viewBox="0 0 24 24" version="1.1" xmlns="http://www.w3.org/2000/svg" xmlns:xlink="http://www.w3.org/1999/xlink">
    <!-- Generator: sketchtool 46.2 (44496) - http://www.bohemiancoding.com/sketch -->
    <title>bolt</title>
    <desc>Created with sketchtool.</desc>
    <defs></defs>
    <g id="Web" stroke="none" stroke-width="1" fill="none" fill-rule="evenodd">
        <g id="bolt" fill="#000000">
            <path d="M7.50780239,12.4759412 L10.8335981,12.4759412 C11.0769286,12.4759412 11.309426,12.5826067 11.4669242,12.7684379 C11.6252558,12.9534358 11.6944216,13.1992664 11.6569221,13.440097 L10.9302636,18.001712 L15.8252082,11.523452 L12.5002458,11.523452 C12.2560819,11.523452 12.0244179,11.4167865 11.8660864,11.2317886 C11.7077548,11.0459574 11.6385889,10.8001269 11.6769218,10.5592963 L12.4027469,5.99851458 L7.50780239,12.4759412 Z M9.58277889,22 C9.47361346,22 9.36278138,21.9775003 9.25694925,21.9333341 C8.90528656,21.7833358 8.70028888,21.41334 8.7602882,21.0350109 L9.85694245,14.142589 L5.83365469,14.142589 C5.51699161,14.142589 5.22866154,13.9634244 5.0878298,13.6800942 C4.94616474,13.3967641 4.97783105,13.0592679 5.16866222,12.8067708 L13.0852392,2.33105612 C13.3152366,2.02522625 13.722732,1.91689415 14.0760613,2.06689245 C14.4285573,2.21605742 14.6327217,2.58688656 14.5735557,2.96438228 L13.4769014,9.85680421 L17.5001892,9.85680421 C17.816019,9.85680421 18.1051824,10.0359688 18.2460141,10.319299 C18.3868458,10.6026291 18.3551795,10.9401253 18.1651817,11.1926224 L10.2486047,21.6683371 C10.0869398,21.8825013 9.83860932,22 9.58277889,22 L9.58277889,22 Z" id="Fill-1"></path>
        </g>
    </g>
</svg>