<?xml version="1.0" encoding="UTF-8"?>
<svg width="16px" height="16px" viewBox="0 0 16 16" version="1.1" xmlns="http://www.w3.org/2000/svg" xmlns:xlink="http://www.w3.org/1999/xlink">
    <!-- Generator: sketchtool 52.3 (67297) - http://www.bohemiancoding.com/sketch -->
    <title>bolt--small</title>
    <desc>Created with sketchtool.</desc>
    <g id="Web" stroke="none" stroke-width="1" fill="none" fill-rule="evenodd">
        <g id="bolt--small" fill="#000000">
            <path d="M4.28854382,8.41190212 L7.32400991,8.41190212 C7.44506621,8.41190212 7.56035792,8.46543042 7.63859158,8.5584873 C7.71682525,8.65154418 7.75058925,8.77424751 7.72917793,8.89448029 L6.99378151,13.1355683 L11.5939208,7.58838989 L8.58810119,7.58838989 C8.46704489,7.58838989 8.35257669,7.53568511 8.27351952,7.44262822 C8.19610937,7.35039485 8.16234537,7.22851504 8.18210966,7.10828226 L8.8985653,2.85319454 L4.28854382,8.41190212 Z M6.32344255,15 C6.26497318,15 6.20650381,14.9876473 6.15132849,14.9621184 C5.98168497,14.8838848 5.88615755,14.7018886 5.91827453,14.5174218 L6.83402013,9.23541436 L3.4123268,9.23541436 C3.25256542,9.23541436 3.10680376,9.14318099 3.03927576,8.99906635 C2.97092424,8.85412819 2.99315907,8.68366116 3.09527459,8.56095784 L9.24196991,1.14934773 C9.36137918,1.0060566 9.56149265,0.959116403 9.73031266,1.03817358 C9.89995618,1.11558373 9.99630711,1.29675642 9.96501365,1.48039965 L9.07479692,6.76487766 L12.4709614,6.76487766 C12.6298992,6.76487766 12.7756609,6.85711103 12.8431889,7.00122567 C12.9115404,7.14616382 12.8893056,7.31663085 12.7871901,7.43933418 L6.64049476,14.8509443 C6.56061407,14.9481187 6.44285182,15 6.32344255,15 Z" id="Fill-1"></path>
        </g>
    </g>
</svg>