<?xml version="1.0" encoding="UTF-8"?>
<svg width="20px" height="20px" viewBox="0 0 20 20" version="1.1" xmlns="http://www.w3.org/2000/svg" xmlns:xlink="http://www.w3.org/1999/xlink">
    <!-- Generator: sketchtool 46.2 (44496) - http://www.bohemiancoding.com/sketch -->
    <title>bolt--small</title>
    <desc>Created with sketchtool.</desc>
    <defs></defs>
    <g id="Web" stroke="none" stroke-width="1" fill="none" fill-rule="evenodd">
        <g id="bolt--small" fill="#000000">
            <path d="M5.56469298,10.0003546 L9.25069298,10.0003546 C9.39769298,10.0003546 9.53769298,10.0653546 9.63269298,10.1783546 C9.72769298,10.2913546 9.76869298,10.4403546 9.74269298,10.5863546 L8.84969298,15.7363546 L14.435693,9.0003546 L10.785693,9.0003546 C10.638693,9.0003546 10.499693,8.9363546 10.403693,8.8233546 C10.309693,8.7113546 10.268693,8.5633546 10.292693,8.4173546 L11.162693,3.2503546 L5.56469298,10.0003546 Z M8.03569298,18.0003546 C7.96469298,18.0003546 7.89369298,17.9853546 7.82669298,17.9543546 C7.62069298,17.8593546 7.50469298,17.6383546 7.54369298,17.4143546 L8.65569298,11.0003546 L4.50069298,11.0003546 C4.30669298,11.0003546 4.12969298,10.8883546 4.04769298,10.7133546 C3.96469298,10.5373546 3.99169298,10.3303546 4.11569298,10.1813546 L11.579693,1.1813546 C11.724693,1.0073546 11.967693,0.950354597 12.172693,1.0463546 C12.378693,1.1403546 12.495693,1.3603546 12.457693,1.5833546 L11.376693,8.0003546 L15.500693,8.0003546 C15.693693,8.0003546 15.870693,8.1123546 15.952693,8.2873546 C16.035693,8.4633546 16.008693,8.6703546 15.884693,8.8193546 L8.42069298,17.8193546 C8.32369298,17.9373546 8.18069298,18.0003546 8.03569298,18.0003546 L8.03569298,18.0003546 Z" id="Fill-1"></path>
        </g>
    </g>
</svg>