<?xml version="1.0" encoding="UTF-8"?>
<svg width="28px" height="28px" viewBox="0 0 28 28" version="1.1" xmlns="http://www.w3.org/2000/svg" xmlns:xlink="http://www.w3.org/1999/xlink">
    <!-- Generator: sketchtool 46.2 (44496) - http://www.bohemiancoding.com/sketch -->
    <title>bolt</title>
    <desc>Created with sketchtool.</desc>
    <defs></defs>
    <g id="Web" stroke="none" stroke-width="1" fill="none" fill-rule="evenodd">
        <g id="bolt" fill="#000000">
            <path d="M9.00939696,14.5712718 L13.000397,14.5712718 C13.292397,14.5712718 13.571397,14.6992718 13.760397,14.9222718 C13.950397,15.1442718 14.033397,15.4392718 13.988397,15.7282718 L13.116397,21.2022718 L18.990397,13.4282718 L15.000397,13.4282718 C14.707397,13.4282718 14.429397,13.3002718 14.239397,13.0782718 C14.049397,12.8552718 13.966397,12.5602718 14.012397,12.2712718 L14.883397,6.79827185 L9.00939696,14.5712718 Z M11.499397,26.0002718 C11.368397,26.0002718 11.235397,25.9732718 11.108397,25.9202718 C10.686397,25.7402718 10.440397,25.2962718 10.512397,24.8422718 L11.828397,16.5712718 L7.00039696,16.5712718 C6.62039696,16.5712718 6.27439696,16.3562718 6.10539696,16.0162718 C5.93539696,15.6762718 5.97339696,15.2712718 6.20239696,14.9682718 L15.702397,2.39727185 C15.978397,2.03027185 16.467397,1.90027185 16.891397,2.08027185 C17.314397,2.25927185 17.559397,2.70427185 17.488397,3.15727185 L16.172397,11.4282718 L21.000397,11.4282718 C21.379397,11.4282718 21.726397,11.6432718 21.895397,11.9832718 C22.064397,12.3232718 22.026397,12.7282718 21.798397,13.0312718 L12.298397,25.6022718 C12.104397,25.8592718 11.806397,26.0002718 11.499397,26.0002718 L11.499397,26.0002718 Z" id="Fill-1"></path>
        </g>
    </g>
</svg>