<?xml version="1.0" encoding="UTF-8"?>
<svg width="20px" height="20px" viewBox="0 0 20 20" version="1.1" xmlns="http://www.w3.org/2000/svg" xmlns:xlink="http://www.w3.org/1999/xlink">
    <!-- Generator: sketchtool 43.2 (39069) - http://www.bohemiancoding.com/sketch -->
    <title>calendar--small</title>
    <desc>Created with sketchtool.</desc>
    <defs></defs>
    <g id="Web" stroke="none" stroke-width="1" fill="none" fill-rule="evenodd">
        <g id="calendar--small" fill="#000000">
            <path d="M18,6 L2,6 L2,5 C2,3.346 3.346,2 5,2 L6,2 L6,2.5 C6,2.776 6.224,3 6.5,3 C6.776,3 7,2.776 7,2.5 L7,2 L13,2 L13,2.5 C13,2.776 13.224,3 13.5,3 C13.776,3 14,2.776 14,2.5 L14,2 L15,2 C16.654,2 18,3.346 18,5 L18,6 Z M18,15 C18,16.654 16.654,18 15,18 L5,18 C3.346,18 2,16.654 2,15 L2,7 L18,7 L18,15 Z M15,1 L14,1 L14,0.5 C14,0.224 13.776,0 13.5,0 C13.224,0 13,0.224 13,0.5 L13,1 L7,1 L7,0.5 C7,0.224 6.776,0 6.5,0 C6.224,0 6,0.224 6,0.5 L6,1 L5,1 C2.791,1 1,2.791 1,5 L1,15 C1,17.209 2.791,19 5,19 L15,19 C17.209,19 19,17.209 19,15 L19,5 C19,2.791 17.209,1 15,1 L15,1 Z" id="Page-1"></path>
        </g>
    </g>
</svg>