<?xml version="1.0" encoding="UTF-8" standalone="no"?>
<svg width="28px" height="28px" viewBox="0 0 28 28" version="1.1" xmlns="http://www.w3.org/2000/svg" xmlns:xlink="http://www.w3.org/1999/xlink">
    <!-- Generator: sketchtool 43.2 (39069) - http://www.bohemiancoding.com/sketch -->
    <title>calendar</title>
    <desc>Created with sketchtool.</desc>
    <defs></defs>
    <g id="Web" stroke="none" stroke-width="1" fill="none" fill-rule="evenodd">
        <g id="calendar" fill="#000000">
            <path d="M4.5552,9.6084 L22.9122,9.6084 L22.9122,8.5754 C22.9122,6.6554 21.4222,5.0914 19.5902,5.0914 L18.2852,5.0914 L18.2852,6.0734 C18.2852,6.7334 17.7482,7.2694 17.0872,7.2694 C16.4272,7.2694 15.8902,6.7334 15.8902,6.0734 L15.8902,5.0914 L11.5772,5.0914 L11.5772,6.0734 C11.5772,6.7334 11.0402,7.2694 10.3792,7.2694 C9.7192,7.2694 9.1812,6.7334 9.1812,6.0734 L9.1812,5.0914 L7.8772,5.0914 C6.0452,5.0914 4.5552,6.6554 4.5552,8.5754 L4.5552,9.6084 Z M4.5552,11.2144 L4.5552,20.8204 C4.5552,21.2904 4.6432,21.7474 4.8172,22.1754 C5.3402,23.4664 6.5412,24.3014 7.8772,24.3014 L19.5902,24.3014 C20.9262,24.3014 22.1262,23.4664 22.6502,22.1754 C22.8242,21.7474 22.9122,21.2904 22.9122,20.8204 L22.9122,11.2144 L4.5552,11.2144 Z M19.5902,25.9104 L7.8772,25.9104 C5.9112,25.9104 4.1472,24.6894 3.3822,22.7984 C3.1292,22.1714 3.0002,21.5064 3.0002,20.8204 L3.0002,8.5754 C3.0002,5.7674 5.1882,3.4854 7.8772,3.4854 L9.1812,3.4854 L9.1812,3.1974 C9.1812,2.5374 9.7192,2.0004 10.3792,2.0004 C11.0402,2.0004 11.5772,2.5374 11.5772,3.1974 L11.5772,3.4854 L15.8902,3.4854 L15.8902,3.1974 C15.8902,2.5374 16.4272,2.0004 17.0872,2.0004 C17.7482,2.0004 18.2852,2.5374 18.2852,3.1974 L18.2852,3.4854 L19.5902,3.4854 C22.2792,3.4854 24.4662,5.7674 24.4662,8.5754 L24.4662,20.8204 C24.4662,21.5064 24.3382,22.1714 24.0842,22.7984 C23.3202,24.6894 21.5562,25.9104 19.5902,25.9104 L19.5902,25.9104 Z" id="Fill-1"></path>
        </g>
    </g>
</svg>