<?xml version="1.0" encoding="UTF-8"?>
<svg width="28px" height="28px" viewBox="0 0 28 28" version="1.1" xmlns="http://www.w3.org/2000/svg" xmlns:xlink="http://www.w3.org/1999/xlink">
    <!-- Generator: sketchtool 46.2 (44496) - http://www.bohemiancoding.com/sketch -->
    <title>calendar-plus</title>
    <desc>Created with sketchtool.</desc>
    <defs></defs>
    <g id="Web" stroke="none" stroke-width="1" fill="none" fill-rule="evenodd">
        <g id="calendar-plus" fill="#000000">
            <path d="M22.4795,8.5996 C22.4795,6.6726 21.0225,5.1026 19.2295,5.1026 L17.9535,5.1026 L17.9535,6.0886 C17.9535,6.7506 17.4275,7.2886 16.7815,7.2886 C16.1355,7.2886 15.6105,6.7506 15.6105,6.0886 L15.6105,5.1026 L11.3905,5.1026 L11.3905,6.0886 C11.3905,6.7506 10.8655,7.2886 10.2185,7.2886 C9.5735,7.2886 9.0465,6.7506 9.0465,6.0886 L9.0465,5.1026 L7.7715,5.1026 C5.9795,5.1026 4.5215,6.6726 4.5215,8.5996 L4.5215,9.6366 L22.4795,9.6366 L22.4795,8.5996 Z M22.4795,11.2486 L4.5215,11.2486 L4.5215,20.8906 C4.5215,21.3626 4.6075,21.8216 4.7775,22.2506 C5.2895,23.5466 6.4635,24.3846 7.7715,24.3846 L19.2295,24.3846 C20.5375,24.3846 21.7105,23.5466 22.2235,22.2506 C22.3935,21.8216 22.4795,21.3626 22.4795,20.8906 L22.4795,11.2486 Z M24.0005,8.5996 L24.0005,20.8906 C24.0005,21.5786 23.8755,22.2466 23.6255,22.8756 C22.8785,24.7746 21.1535,25.9996 19.2295,25.9996 L7.7715,25.9996 C5.8475,25.9996 4.1225,24.7746 3.3735,22.8756 C3.1255,22.2466 3.0005,21.5786 3.0005,20.8906 L3.0005,8.5996 C3.0005,5.7816 5.1405,3.4906 7.7715,3.4906 L9.0465,3.4906 L9.0465,3.2016 C9.0465,2.5386 9.5735,1.9996 10.2185,1.9996 C10.8655,1.9996 11.3905,2.5386 11.3905,3.2016 L11.3905,3.4906 L15.6105,3.4906 L15.6105,3.2016 C15.6105,2.5386 16.1355,1.9996 16.7815,1.9996 C17.4275,1.9996 17.9535,2.5386 17.9535,3.2016 L17.9535,3.4906 L19.2295,3.4906 C21.8605,3.4906 24.0005,5.7816 24.0005,8.5996 L24.0005,8.5996 Z M9.2505,17.7496 C9.2505,17.3356 9.5855,16.9996 10.0005,16.9996 L13.0005,16.9996 L13.0005,13.9996 C13.0005,13.5856 13.3355,13.2496 13.7505,13.2496 C14.1645,13.2496 14.5005,13.5856 14.5005,13.9996 L14.5005,16.9996 L17.5005,16.9996 C17.9145,16.9996 18.2505,17.3356 18.2505,17.7496 C18.2505,18.1636 17.9145,18.4996 17.5005,18.4996 L14.5005,18.4996 L14.5005,21.4996 C14.5005,21.9136 14.1645,22.2496 13.7505,22.2496 C13.3355,22.2496 13.0005,21.9136 13.0005,21.4996 L13.0005,18.4996 L10.0005,18.4996 C9.5855,18.4996 9.2505,18.1636 9.2505,17.7496 L9.2505,17.7496 Z" id="Fill-1"></path>
        </g>
    </g>
</svg>