<?xml version="1.0" encoding="UTF-8"?>
<svg width="24px" height="24px" viewBox="0 0 24 24" version="1.1" xmlns="http://www.w3.org/2000/svg" xmlns:xlink="http://www.w3.org/1999/xlink">
    <!-- Generator: sketchtool 52.3 (67297) - http://www.bohemiancoding.com/sketch -->
    <title>calendar-check</title>
    <desc>Created with sketchtool.</desc>
    <g id="Web" stroke="none" stroke-width="1" fill="none" fill-rule="evenodd">
        <g id="calendar-check" fill="#000000">
            <path d="M3.90285708,8.22977914 L19.6374285,8.22977914 L19.6374285,7.34453573 C19.6374285,5.69916561 18.3602856,4.35887454 16.7899999,4.35887454 L15.6714285,4.35887454 L15.6714285,5.2004128 C15.6714285,5.76600878 15.2111428,6.22534127 14.6445714,6.22534127 C14.0788571,6.22534127 13.6185714,5.76600878 13.6185714,5.2004128 L13.6185714,4.35887454 L9.92171422,4.35887454 L9.92171422,5.2004128 C9.92171422,5.76600878 9.4614285,6.22534127 8.89485708,6.22534127 C8.32914279,6.22534127 7.86799993,5.76600878 7.86799993,5.2004128 L7.86799993,4.35887454 L6.75028565,4.35887454 C5.17999993,4.35887454 3.90285708,5.69916561 3.90285708,7.34453573 L3.90285708,8.22977914 Z M3.90285708,9.60606269 L3.90285708,17.8380551 C3.90285708,18.240828 3.97828565,18.6324603 4.1274285,18.9992407 C4.57571422,20.1055808 5.60514279,20.8211454 6.75028565,20.8211454 L16.7899999,20.8211454 C17.9351428,20.8211454 18.9637142,20.1055808 19.4128571,18.9992407 C19.5619999,18.6324603 19.6374285,18.240828 19.6374285,17.8380551 L19.6374285,9.60606269 L3.90285708,9.60606269 Z M16.7899999,22.1999998 L6.75028565,22.1999998 C5.06514279,22.1999998 3.55314279,21.1536472 2.8974285,19.5331291 C2.68057136,18.9958129 2.56999993,18.4259321 2.56999993,17.8380551 L2.56999993,7.34453573 C2.56999993,4.93818193 4.4454285,2.98259099 6.75028565,2.98259099 L7.86799993,2.98259099 L7.86799993,2.73578547 C7.86799993,2.17018949 8.32914279,1.71000004 8.89485708,1.71000004 C9.4614285,1.71000004 9.92171422,2.17018949 9.92171422,2.73578547 L9.92171422,2.98259099 L13.6185714,2.98259099 L13.6185714,2.73578547 C13.6185714,2.17018949 14.0788571,1.71000004 14.6445714,1.71000004 C15.2111428,1.71000004 15.6714285,2.17018949 15.6714285,2.73578547 L15.6714285,2.98259099 L16.7899999,2.98259099 C19.0948571,2.98259099 20.9694285,4.93818193 20.9694285,7.34453573 L20.9694285,17.8380551 C20.9694285,18.4259321 20.8597142,18.9958129 20.6419999,19.5331291 C19.9871428,21.1536472 18.4751428,22.1999998 16.7899999,22.1999998 Z M10.6281585,18.6999998 L10.6281585,18.8999998 C10.4563419,18.8999998 10.2908885,18.8302041 10.1681279,18.7026597 L7.48694495,15.9169952 C7.23768502,15.658022 7.23768502,15.2420937 7.48694495,14.9831205 C7.7403452,14.7198456 8.15360589,14.7198456 8.40700614,14.9831205 L10.6281585,17.2908278 L15.5304939,12.197456 C15.7838941,11.9341811 16.1971548,11.9341811 16.450555,12.197456 C16.699815,12.4564292 16.699815,12.8723574 16.450555,13.1313306 L11.0881891,18.7026597 C10.9654285,18.8302041 10.7999751,18.8999998 10.6281585,18.8999998 L10.6281585,18.6999998 Z" id="Fill-1"></path>
        </g>
    </g>
</svg>