<?xml version="1.0" encoding="UTF-8"?>
<svg width="20px" height="20px" viewBox="0 0 20 20" version="1.1" xmlns="http://www.w3.org/2000/svg" xmlns:xlink="http://www.w3.org/1999/xlink">
    <!-- Generator: sketchtool 46.2 (44496) - http://www.bohemiancoding.com/sketch -->
    <title>calendar-plus--small</title>
    <desc>Created with sketchtool.</desc>
    <defs></defs>
    <g id="Web" stroke="none" stroke-width="1" fill="none" fill-rule="evenodd">
        <g id="calendar-plus--small" fill="#000000">
            <path d="M18,5.0859 C18,3.3849 16.614,1.9999 14.911,1.9999 L14,1.9999 L14,2.4999 C14,2.7759 13.776,2.9999 13.5,2.9999 C13.224,2.9999 13,2.7759 13,2.4999 L13,1.9999 L7,1.9999 L7,2.4999 C7,2.7759 6.776,2.9999 6.5,2.9999 C6.224,2.9999 6,2.7759 6,2.4999 L6,1.9999 L5.089,1.9999 C3.386,1.9999 2,3.3849 2,5.0859 L2,5.9999 L18,5.9999 L18,5.0859 Z M18,6.9999 L2,6.9999 L2,14.9139 C2,15.3309 2.082,15.7339 2.242,16.1149 C2.726,17.2599 3.844,17.9999 5.089,17.9999 L14.911,17.9999 C16.157,17.9999 17.275,17.2599 17.758,16.1149 C17.919,15.7349 18,15.3309 18,14.9139 L18,6.9999 Z M19,5.0859 L19,14.9139 C19,15.4669 18.893,15.9999 18.68,16.5039 C18.039,18.0219 16.56,18.9999 14.911,18.9999 L5.089,18.9999 C3.441,18.9999 1.962,18.0219 1.32,16.5039 C1.108,15.9999 1,15.4669 1,14.9139 L1,5.0859 C1,2.8319 2.835,0.9999 5.089,0.9999 L6,0.9999 L6,0.4999 C6,0.2249 6.224,-0.0001 6.5,-0.0001 C6.776,-0.0001 7,0.2249 7,0.4999 L7,0.9999 L13,0.9999 L13,0.4999 C13,0.2249 13.224,-0.0001 13.5,-0.0001 C13.776,-0.0001 14,0.2249 14,0.4999 L14,0.9999 L14.911,0.9999 C17.166,0.9999 19,2.8319 19,5.0859 L19,5.0859 Z M6,12.5499 C6,12.2729 6.224,12.0499 6.5,12.0499 L9.5,12.0499 L9.5,9.0499 C9.5,8.7739 9.724,8.5499 10,8.5499 C10.276,8.5499 10.5,8.7739 10.5,9.0499 L10.5,12.0499 L13.5,12.0499 C13.776,12.0499 14,12.2729 14,12.5499 C14,12.8259 13.776,13.0499 13.5,13.0499 L10.5,13.0499 L10.5,16.0499 C10.5,16.3259 10.276,16.5499 10,16.5499 C9.724,16.5499 9.5,16.3259 9.5,16.0499 L9.5,13.0499 L6.5,13.0499 C6.224,13.0499 6,12.8259 6,12.5499 L6,12.5499 Z" id="Fill-1"></path>
        </g>
    </g>
</svg>