<?xml version="1.0" encoding="UTF-8"?>
<svg width="20px" height="20px" viewBox="0 0 20 20" version="1.1" xmlns="http://www.w3.org/2000/svg" xmlns:xlink="http://www.w3.org/1999/xlink">
    <!-- Generator: sketchtool 43.2 (39069) - http://www.bohemiancoding.com/sketch -->
    <title>calendar--small</title>
    <desc>Created with sketchtool.</desc>
    <defs></defs>
    <g id="Web" stroke="none" stroke-width="1" fill="none" fill-rule="evenodd">
        <g id="calendar--small" fill="#000000">
            <path d="M18,6 L2,6 L2,5.086 C2,3.385 3.386,2 5.089,2 L6,2 L6,2.5 C6,2.776 6.224,3 6.5,3 C6.776,3 7,2.776 7,2.5 L7,2 L13,2 L13,2.5 C13,2.776 13.224,3 13.5,3 C13.776,3 14,2.776 14,2.5 L14,2 L14.911,2 C16.614,2 18,3.385 18,5.086 L18,6 Z M18,14.914 C18,15.331 17.919,15.735 17.758,16.115 C17.275,17.26 16.157,18 14.911,18 L5.089,18 C3.844,18 2.726,17.26 2.242,16.115 C2.082,15.734 2,15.331 2,14.914 L2,7 L18,7 L18,14.914 Z M14.911,1 L14,1 L14,0.5 C14,0.225 13.776,0 13.5,0 C13.224,0 13,0.225 13,0.5 L13,1 L7,1 L7,0.5 C7,0.225 6.776,0 6.5,0 C6.224,0 6,0.225 6,0.5 L6,1 L5.089,1 C2.835,1 1,2.832 1,5.086 L1,14.914 C1,15.467 1.108,16 1.32,16.504 C1.962,18.021 3.441,19 5.089,19 L14.911,19 C16.56,19 18.039,18.021 18.68,16.504 C18.893,16 19,15.467 19,14.914 L19,5.086 C19,2.832 17.166,1 14.911,1 L14.911,1 Z" id="Page-1"></path>
        </g>
    </g>
</svg>