<?xml version="1.0" encoding="UTF-8" standalone="no"?>
<svg width="18px" height="18px" viewBox="0 0 18 18" version="1.1" xmlns="http://www.w3.org/2000/svg" xmlns:xlink="http://www.w3.org/1999/xlink">
    <!-- Generator: sketchtool 43.2 (39069) - http://www.bohemiancoding.com/sketch -->
    <title>calendar-cross--small</title>
    <desc>Created with sketchtool.</desc>
    <defs></defs>
    <g id="Web" stroke="none" stroke-width="1" fill="none" fill-rule="evenodd">
        <g id="calendar-cross--small" fill="#000000">
            <path d="M16.3000007,5.40000025 L1.90000004,5.40000025 L1.90000004,4.57740022 C1.90000004,3.04650014 3.1474001,1.80000008 4.68010017,1.80000008 L5.50000021,1.80000008 L5.50000021,2.25000011 C5.50000021,2.49840012 5.70160022,2.70000013 5.95000023,2.70000013 C6.19840024,2.70000013 6.40000025,2.49840012 6.40000025,2.25000011 L6.40000025,1.80000008 L11.8000005,1.80000008 L11.8000005,2.25000011 C11.8000005,2.49840012 12.0016005,2.70000013 12.2500005,2.70000013 C12.4984005,2.70000013 12.7000006,2.49840012 12.7000006,2.25000011 L12.7000006,1.80000008 L13.5199006,1.80000008 C15.0526007,1.80000008 16.3000007,3.04650014 16.3000007,4.57740022 L16.3000007,5.40000025 Z M16.3000007,13.4226006 C16.3000007,13.7979006 16.2271007,14.1615007 16.0822007,14.5035007 C15.6475007,15.5340007 14.6413006,16.2000008 13.5199006,16.2000008 L4.68010017,16.2000008 C3.55960012,16.2000008 2.55340007,15.5340007 2.11780005,14.5035007 C1.97380005,14.1606007 1.90000004,13.7979006 1.90000004,13.4226006 L1.90000004,6.3000003 L16.3000007,6.3000003 L16.3000007,13.4226006 Z M13.5199006,0.900000042 L12.7000006,0.900000042 L12.7000006,0.450000021 C12.7000006,0.20250001 12.4984005,0 12.2500005,0 C12.0016005,0 11.8000005,0.20250001 11.8000005,0.450000021 L11.8000005,0.900000042 L6.40000025,0.900000042 L6.40000025,0.450000021 C6.40000025,0.20250001 6.19840024,0 5.95000023,0 C5.70160022,0 5.50000021,0.20250001 5.50000021,0.450000021 L5.50000021,0.900000042 L4.68010017,0.900000042 C2.65150008,0.900000042 1,2.54880012 1,4.57740022 L1,13.4226006 C1,13.9203007 1.0972,14.4000007 1.28800001,14.8536007 C1.86580004,16.2189008 3.1969001,17.1000008 4.68010017,17.1000008 L13.5199006,17.1000008 C15.0040007,17.1000008 16.3351007,16.2189008 16.9120007,14.8536007 C17.1037008,14.4000007 17.2000008,13.9203007 17.2000008,13.4226006 L17.2000008,4.57740022 C17.2000008,2.54880012 15.5494007,0.900000042 13.5199006,0.900000042 L13.5199006,0.900000042 Z M11.8525272,13.8515188 C11.6548885,14.0491576 11.3362464,14.0481492 11.139616,13.8515188 L8.99987395,11.7127852 L6.86114029,13.8515188 C6.66350153,14.0481492 6.34485946,14.0481492 6.14822907,13.8515188 C5.95059031,13.6548885 5.95059031,13.335238 6.14822907,13.1386076 L8.28696273,10.999874 L6.14822907,8.86114029 C5.95059031,8.66350153 5.95059031,8.34485946 6.14822907,8.14822907 C6.34485946,7.95059031 6.66350153,7.95059031 6.86114029,8.14822907 L8.99987395,10.2869627 L11.1386076,8.14822907 C11.3362464,7.95059031 11.6548885,7.95059031 11.8525272,8.14822907 C12.0491576,8.34485946 12.0491576,8.66350153 11.8525272,8.86114029 L9.71278518,10.999874 L11.8525272,13.1386076 C12.0491576,13.335238 12.0491576,13.6548885 11.8525272,13.8515188" id="Page-1"></path>
        </g>
    </g>
</svg>