<?xml version="1.0" encoding="UTF-8"?>
<svg width="20px" height="20px" viewBox="0 0 20 20" version="1.1" xmlns="http://www.w3.org/2000/svg" xmlns:xlink="http://www.w3.org/1999/xlink">
    <!-- Generator: sketchtool 43.2 (39069) - http://www.bohemiancoding.com/sketch -->
    <title>camera--small</title>
    <desc>Created with sketchtool.</desc>
    <defs></defs>
    <g id="Web" stroke="none" stroke-width="1" fill="none" fill-rule="evenodd">
        <g id="camera--small" fill="#000000">
            <path d="M10,15 C8.07,15 6.5,13.43 6.5,11.5 C6.5,9.57 8.07,8 10,8 C11.93,8 13.5,9.57 13.5,11.5 C13.5,13.43 11.93,15 10,15 L10,15 Z M10,7 C7.515,7 5.5,9.015 5.5,11.5 C5.5,13.985 7.515,16 10,16 C12.485,16 14.5,13.985 14.5,11.5 C14.5,9.015 12.485,7 10,7 L10,7 Z M19,17 C19,17.552 18.551,18 18,18 L2,18 C1.449,18 1,17.552 1,17 L1,6 C1,5.448 1.449,5 2,5 L18,5 C18.551,5 19,5.448 19,6 L19,17 Z M6.447,2.342 C6.524,2.188 6.829,2 7,2 L13,2 C13.171,2 13.476,2.188 13.553,2.342 L14.382,4 L5.618,4 L6.447,2.342 Z M18,4 L15.5,4 L14.447,1.895 C14.201,1.402 13.55,1 13,1 L7,1 C6.45,1 5.799,1.402 5.553,1.895 L4.5,4 L2,4 C0.9,4 0,4.9 0,6 L0,17 C0,18.1 0.9,19 2,19 L18,19 C19.1,19 20,18.1 20,17 L20,6 C20,4.9 19.1,4 18,4 L18,4 Z" id="Page-1"></path>
        </g>
    </g>
</svg>