<?xml version="1.0" encoding="UTF-8"?>
<svg width="24px" height="24px" viewBox="0 0 24 24" version="1.1" xmlns="http://www.w3.org/2000/svg" xmlns:xlink="http://www.w3.org/1999/xlink">
    <!-- Generator: sketchtool 52.3 (67297) - http://www.bohemiancoding.com/sketch -->
    <title>camera</title>
    <desc>Created with sketchtool.</desc>
    <g id="Web" stroke="none" stroke-width="1" fill="none" fill-rule="evenodd">
        <g id="camera" fill="#000000">
            <path d="M22.2857143,18.6666667 C22.2857143,19.5866667 21.5177143,20.3333333 20.5714286,20.3333333 L3.42857143,20.3333333 C2.48228571,20.3333333 1.71428571,19.5866667 1.71428571,18.6666667 L1.71428571,8.66666667 C1.71428571,7.74666667 2.48228571,7 3.42857143,7 L20.5714286,7 C21.5177143,7 22.2857143,7.74666667 22.2857143,8.66666667 L22.2857143,18.6666667 Z M9.42857143,3.66666667 L14.5714286,3.66666667 C15.1422857,3.66666667 15.4285714,3.66666667 16.2857143,5.33333333 L7.71428571,5.33333333 C8.57142857,3.66666667 8.85771429,3.66666667 9.42857143,3.66666667 L9.42857143,3.66666667 Z M20.5714286,5.33333333 L18.8571429,5.33333333 L17.1428571,2.83333333 C16.8248571,2.36916667 16.2857143,2 15.4285714,2 L8.57142857,2 C7.71428571,2 7.17514286,2.36916667 6.85714286,2.83333333 L5.14285714,5.33333333 L3.42857143,5.33333333 C1.53514286,5.33333333 0,6.82583333 0,8.66666667 L0,18.6666667 C0,20.5075 1.53514286,22 3.42857143,22 L20.5714286,22 C22.4648571,22 24,20.5075 24,18.6666667 L24,8.66666667 C24,6.82583333 22.4648571,5.33333333 20.5714286,5.33333333 L20.5714286,5.33333333 Z M12,17 C10.1091429,17 8.57142857,15.505 8.57142857,13.6675 C8.57142857,11.8291667 10.1091429,10.3333333 12,10.3333333 C13.8908571,10.3333333 15.4285714,11.8291667 15.4285714,13.6675 C15.4285714,15.505 13.8908571,17 12,17 L12,17 Z M12,8.66666667 C9.16114286,8.66666667 6.85714286,10.9041667 6.85714286,13.6675 C6.85714286,16.4308333 9.16114286,18.6666667 12,18.6666667 C14.8388571,18.6666667 17.1428571,16.4308333 17.1428571,13.6675 C17.1428571,10.9041667 14.8388571,8.66666667 12,8.66666667 L12,8.66666667 Z" id="Page-1"></path>
        </g>
    </g>
</svg>