<?xml version="1.0" encoding="UTF-8"?>
<svg width="16px" height="16px" viewBox="0 0 16 16" version="1.1" xmlns="http://www.w3.org/2000/svg" xmlns:xlink="http://www.w3.org/1999/xlink">
    <!-- Generator: sketchtool 52.3 (67297) - http://www.bohemiancoding.com/sketch -->
    <title>camera--small</title>
    <desc>Created with sketchtool.</desc>
    <g id="Web" stroke="none" stroke-width="1" fill="none" fill-rule="evenodd">
        <g id="camera--small" fill="#000000">
            <path d="M8,12.0617284 C6.456,12.0617284 5.2,10.8212346 5.2,9.2962963 C5.2,7.77135802 6.456,6.5308642 8,6.5308642 C9.544,6.5308642 10.8,7.77135802 10.8,9.2962963 C10.8,10.8212346 9.544,12.0617284 8,12.0617284 L8,12.0617284 Z M8,5.74074074 C6.012,5.74074074 4.4,7.33283951 4.4,9.2962963 C4.4,11.2597531 6.012,12.8518519 8,12.8518519 C9.988,12.8518519 11.6,11.2597531 11.6,9.2962963 C11.6,7.33283951 9.988,5.74074074 8,5.74074074 L8,5.74074074 Z M15.2,13.6419753 C15.2,14.0781235 14.8408,14.4320988 14.4,14.4320988 L1.6,14.4320988 C1.1592,14.4320988 0.8,14.0781235 0.8,13.6419753 L0.8,4.95061728 C0.8,4.51446914 1.1592,4.16049383 1.6,4.16049383 L14.4,4.16049383 C14.8408,4.16049383 15.2,4.51446914 15.2,4.95061728 L15.2,13.6419753 Z M5.1576,2.06034568 C5.2192,1.93866667 5.4632,1.79012346 5.6,1.79012346 L10.4,1.79012346 C10.5368,1.79012346 10.7808,1.93866667 10.8424,2.06034568 L11.5056,3.37037037 L4.4944,3.37037037 L5.1576,2.06034568 Z M14.4,3.37037037 L12.4,3.37037037 L11.5576,1.70716049 C11.3608,1.31762963 10.84,1 10.4,1 L5.6,1 C5.16,1 4.6392,1.31762963 4.4424,1.70716049 L3.6,3.37037037 L1.6,3.37037037 C0.72,3.37037037 0,4.08148148 0,4.95061728 L0,13.6419753 C0,14.5111111 0.72,15.2222222 1.6,15.2222222 L14.4,15.2222222 C15.28,15.2222222 16,14.5111111 16,13.6419753 L16,4.95061728 C16,4.08148148 15.28,3.37037037 14.4,3.37037037 L14.4,3.37037037 Z" id="Page-1"></path>
        </g>
    </g>
</svg>