<?xml version="1.0" encoding="UTF-8"?>
<svg width="28px" height="28px" viewBox="0 0 28 28" version="1.1" xmlns="http://www.w3.org/2000/svg" xmlns:xlink="http://www.w3.org/1999/xlink">
    <!-- Generator: sketchtool 46.2 (44496) - http://www.bohemiancoding.com/sketch -->
    <title>check-circle</title>
    <desc>Created with sketchtool.</desc>
    <defs></defs>
    <g id="Web" stroke="none" stroke-width="1" fill="none" fill-rule="evenodd">
        <g id="check-circle" fill="#000000">
            <path d="M20.4795,10.8164 L12.4655,18.8304 C12.2825,19.0134 12.0345,19.0934 11.7955,19.0684 C11.5585,19.0934 11.3125,19.0154 11.1315,18.8344 L7.3385,15.0424 C7.0205,14.7234 7.0185,14.2084 7.3405,13.8864 C7.6615,13.5664 8.1785,13.5664 8.4975,13.8844 L11.7955,17.1854 L19.3225,9.6594 C19.6435,9.3384 20.1595,9.3354 20.4815,9.6564 C20.8015,9.9764 20.8005,10.4954 20.4795,10.8164 M14.0005,2.0004 C7.3725,2.0004 2.0005,7.3724 2.0005,14.0004 C2.0005,20.6274 7.3725,26.0004 14.0005,26.0004 C20.6275,26.0004 26.0005,20.6274 26.0005,14.0004 C26.0005,7.3724 20.6275,2.0004 14.0005,2.0004" id="Fill-1"></path>
        </g>
    </g>
</svg>