<?xml version="1.0" encoding="UTF-8"?>
<svg width="18px" height="18px" viewBox="0 0 18 18" version="1.1" xmlns="http://www.w3.org/2000/svg" xmlns:xlink="http://www.w3.org/1999/xlink">
    <!-- Generator: sketchtool 46.2 (44496) - http://www.bohemiancoding.com/sketch -->
    <title>check-circle--small</title>
    <desc>Created with sketchtool.</desc>
    <defs></defs>
    <g id="Web" stroke="none" stroke-width="1" fill="none" fill-rule="evenodd">
        <g id="check-circle--small" fill="#000000">
            <path d="M13.3398163,6.92445046 L8.04531098,12.2189558 C7.92462093,12.3405268 7.75988341,12.3933837 7.60219349,12.3766457 C7.44626546,12.3933837 7.28328984,12.3414077 7.16348074,12.2215986 L4.65806093,9.71617879 C4.44751404,9.50563191 4.44575215,9.16558548 4.65894188,8.9532767 C4.87125066,8.74184887 5.21217804,8.74184887 5.42360587,8.9515148 L7.60219349,11.1327453 L12.5751523,6.15978647 C12.7874611,5.94835864 13.1283884,5.94571579 13.3415782,6.15802457 C13.553006,6.36945241 13.5521251,6.71214168 13.3398163,6.92445046 M9,2 C5.13366667,2 2,5.13366667 2,9 C2,12.8655556 5.13366667,16 9,16 C12.8655556,16 16,12.8655556 16,9 C16,5.13366667 12.8655556,2 9,2" id="Fill-1"></path>
        </g>
    </g>
</svg>