<?xml version="1.0" encoding="UTF-8"?>
<svg width="20px" height="20px" viewBox="0 0 20 20" version="1.1" xmlns="http://www.w3.org/2000/svg" xmlns:xlink="http://www.w3.org/1999/xlink">
    <!-- Generator: sketchtool 43.2 (39069) - http://www.bohemiancoding.com/sketch -->
    <title>check-circle--small</title>
    <desc>Created with sketchtool.</desc>
    <defs></defs>
    <g id="Web" stroke="none" stroke-width="1" fill="none" fill-rule="evenodd">
        <g id="check-circle--small" fill="#000000">
            <path d="M14.8594,7.6123 L8.8494,13.6223 C8.7124,13.7603 8.5254,13.8203 8.3464,13.8013 C8.1694,13.8203 7.9844,13.7613 7.8484,13.6253 L5.0044,10.7813 C4.7654,10.5423 4.7634,10.1563 5.0054,9.9153 C5.2464,9.6753 5.6334,9.6753 5.8734,9.9133 L8.3464,12.3893 L13.9914,6.7443 C14.2324,6.5043 14.6194,6.5013 14.8614,6.7423 C15.1014,6.9823 15.1004,7.3713 14.8594,7.6123 M10.0004,1.0003 C5.0294,1.0003 1.0004,5.0293 1.0004,10.0003 C1.0004,14.9703 5.0294,19.0003 10.0004,19.0003 C14.9704,19.0003 19.0004,14.9703 19.0004,10.0003 C19.0004,5.0293 14.9704,1.0003 10.0004,1.0003" id="Fill-1"></path>
        </g>
    </g>
</svg>