<?xml version="1.0" encoding="UTF-8"?>
<svg width="16px" height="16px" viewBox="0 0 16 16" version="1.1" xmlns="http://www.w3.org/2000/svg" xmlns:xlink="http://www.w3.org/1999/xlink">
    <!-- Generator: sketchtool 52.3 (67297) - http://www.bohemiancoding.com/sketch -->
    <title>check-circle--small</title>
    <desc>Created with sketchtool.</desc>
    <g id="Web" stroke="none" stroke-width="1" fill="none" fill-rule="evenodd">
        <g id="check-circle--small" fill="#000000">
            <path d="M11.7198425,6.22095754 L7.18169513,10.7591049 C7.07824651,10.8633086 6.93704292,10.9086146 6.80188013,10.8942677 C6.66822754,10.9086146 6.52853415,10.8640637 6.42584063,10.7613702 L4.27833794,8.61386754 C4.09786918,8.43339878 4.09635898,8.14193041 4.27909304,7.95995146 C4.46107199,7.7787276 4.75329546,7.7787276 4.93451932,7.95844126 L6.80188013,9.82806737 L11.0644162,5.56553126 C11.2463952,5.38430741 11.5386187,5.38204211 11.7213527,5.56402106 C11.9025766,5.74524492 11.9018215,6.03897859 11.7198425,6.22095754 M8,2 C4.686,2 2,4.686 2,8 C2,11.3133333 4.686,14 8,14 C11.3133333,14 14,11.3133333 14,8 C14,4.686 11.3133333,2 8,2" id="Fill-1"></path>
        </g>
    </g>
</svg>