<?xml version="1.0" encoding="UTF-8" standalone="no"?>
<svg width="20px" height="20px" viewBox="0 0 20 20" version="1.1" xmlns="http://www.w3.org/2000/svg" xmlns:xlink="http://www.w3.org/1999/xlink">
    <!-- Generator: sketchtool 43.2 (39069) - http://www.bohemiancoding.com/sketch -->
    <title>chevron-up--small</title>
    <desc>Created with sketchtool.</desc>
    <defs></defs>
    <g id="Web" stroke="none" stroke-width="1" fill="none" fill-rule="evenodd">
        <g id="chevron-up--small" fill="#000000">
            <path d="M5.14094465,18.84625 C4.94894465,18.64725 4.95394465,18.33125 5.15194465,18.13925 L13.7819446,9.76825002 L5.15194465,1.85842922 C4.95394465,1.66642922 4.94894465,1.34942922 5.13994465,1.15142922 C5.33394465,0.953429225 5.64994465,0.949429225 5.84694465,1.14042922 L14.8479446,9.40925002 C14.9449446,9.50425002 14.9999446,9.63425002 14.9999446,9.76825002 C14.9999446,9.90425002 14.9449446,10.03325 14.8479446,10.12825 L5.84794465,18.85725 C5.75094465,18.95125 5.62494465,18.99825 5.49994465,18.99825 C5.36894465,18.99825 5.23894465,18.94725 5.14094465,18.84625 Z" id="Fill-1" transform="translate(9.999972, 9.999125) scale(1, -1) rotate(90.000000) translate(-9.999972, -9.999125) "></path>
        </g>
    </g>
</svg>