<?xml version="1.0" encoding="UTF-8"?>
<svg width="28px" height="28px" viewBox="0 0 28 28" version="1.1" xmlns="http://www.w3.org/2000/svg" xmlns:xlink="http://www.w3.org/1999/xlink">
    <!-- Generator: sketchtool 46.2 (44496) - http://www.bohemiancoding.com/sketch -->
    <title>clock-arrow</title>
    <desc>Created with sketchtool.</desc>
    <defs></defs>
    <g id="Web" stroke="none" stroke-width="1" fill="none" fill-rule="evenodd">
        <g id="clock-arrow" fill="#000000">
            <path d="M17.8945,16.6973 C17.7185,17.0493 17.3675,17.2503 16.9985,17.2503 C16.8485,17.2503 16.6965,17.2173 16.5525,17.1443 L12.5525,15.1443 C12.2135,14.9743 11.9995,14.6293 11.9995,14.2503 L11.9995,8.2503 C11.9995,7.6973 12.4475,7.2503 12.9995,7.2503 C13.5525,7.2503 13.9995,7.6973 13.9995,8.2503 L13.9995,13.6333 L17.4475,15.3553 C17.9415,15.6023 18.1415,16.2033 17.8945,16.6973 M26.5885,13.3163 L23.7065,10.4363 C23.5255,10.2543 23.2675,10.1493 22.9995,10.1493 C22.7325,10.1493 22.4755,10.2543 22.2935,10.4353 L19.4115,13.3153 C19.0225,13.7083 19.0235,14.3433 19.4115,14.7333 C19.5945,14.9153 19.8685,15.0183 20.1645,15.0183 C20.4585,15.0183 20.7315,14.9163 20.9125,14.7363 L21.9985,13.6273 C21.9095,18.9753 17.8505,22.9803 12.4995,22.9803 C7.2625,22.9803 3.0005,18.7223 3.0005,13.4893 C3.0005,8.2553 7.2625,3.9973 12.4995,3.9973 C14.9665,3.9973 17.3045,4.9393 19.0815,6.6493 C19.2695,6.8303 19.5155,6.9293 19.7755,6.9293 C20.0535,6.9293 20.3095,6.8213 20.4975,6.6243 C20.6805,6.4303 20.7795,6.1783 20.7775,5.9143 C20.7715,5.6463 20.6635,5.3983 20.4715,5.2123 C18.3205,3.1403 15.4905,2.0003 12.4995,2.0003 C6.1585,2.0003 0.9995,7.1583 0.9995,13.4983 C0.9995,19.8403 6.1585,25.0003 12.4995,25.0003 C18.8215,25.0003 23.9675,19.8743 24.0005,13.5593 L25.1725,14.7333 C25.3525,14.9153 25.6115,15.0193 25.8805,15.0193 C26.1475,15.0193 26.4055,14.9163 26.5865,14.7353 C26.7775,14.5423 26.8805,14.2913 26.8805,14.0263 C26.8805,13.7593 26.7765,13.5073 26.5885,13.3163" id="Fill-1"></path>
        </g>
    </g>
</svg>