<?xml version="1.0" encoding="UTF-8"?>
<svg width="20px" height="20px" viewBox="0 0 20 20" version="1.1" xmlns="http://www.w3.org/2000/svg" xmlns:xlink="http://www.w3.org/1999/xlink">
    <!-- Generator: sketchtool 43.2 (39069) - http://www.bohemiancoding.com/sketch -->
    <title>cog--small</title>
    <desc>Created with sketchtool.</desc>
    <defs></defs>
    <g id="Web" stroke="none" stroke-width="1" fill="none" fill-rule="evenodd">
        <g id="cog--small" fill="#000000">
            <path d="M10,12 C8.897,12 8,11.103 8,10 C8,8.897 8.897,8 10,8 C11.103,8 12,8.897 12,10 C12,11.103 11.103,12 10,12 L10,12 Z M10,7 C8.346,7 7,8.346 7,10 C7,11.654 8.346,13 10,13 C11.654,13 13,11.654 13,10 C13,8.346 11.654,7 10,7 L10,7 Z M15.495,11.421 C15.362,11.936 15.158,12.428 14.891,12.882 C14.774,13.078 14.807,13.328 14.968,13.489 L15.657,14.179 C16.064,14.586 16.064,15.25 15.657,15.657 C15.249,16.065 14.587,16.065 14.179,15.657 L13.489,14.968 C13.327,14.806 13.078,14.773 12.882,14.891 C12.426,15.159 11.935,15.362 11.421,15.495 C11.2,15.553 11.046,15.752 11.046,15.979 L11.046,16.954 C11.046,17.531 10.577,18 10,18 C9.423,18 8.954,17.531 8.954,16.954 L8.954,15.979 C8.954,15.752 8.8,15.553 8.579,15.495 C8.064,15.362 7.572,15.158 7.118,14.891 C7.039,14.844 6.951,14.821 6.864,14.821 C6.735,14.821 6.607,14.871 6.511,14.968 L5.821,15.657 C5.413,16.065 4.751,16.065 4.343,15.657 C3.936,15.25 3.936,14.586 4.343,14.179 L5.032,13.489 C5.193,13.328 5.226,13.078 5.109,12.882 C4.841,12.426 4.638,11.935 4.505,11.421 C4.447,11.2 4.248,11.046 4.021,11.046 L3.046,11.046 C2.469,11.046 2,10.577 2,10 C2,9.423 2.469,8.954 3.046,8.954 L4.021,8.954 C4.248,8.954 4.447,8.8 4.505,8.579 C4.638,8.065 4.841,7.574 5.109,7.118 C5.226,6.922 5.193,6.672 5.032,6.511 L4.343,5.821 C3.936,5.414 3.936,4.75 4.343,4.343 C4.751,3.935 5.413,3.935 5.821,4.343 L6.511,5.032 C6.672,5.194 6.921,5.226 7.118,5.109 C7.574,4.841 8.065,4.638 8.579,4.505 C8.8,4.447 8.954,4.248 8.954,4.021 L8.954,3.046 C8.954,2.469 9.423,2 10,2 C10.577,2 11.046,2.469 11.046,3.046 L11.046,4.021 C11.046,4.248 11.2,4.447 11.421,4.505 C11.935,4.638 12.426,4.841 12.882,5.109 C13.079,5.227 13.328,5.195 13.489,5.032 L14.179,4.343 C14.587,3.935 15.249,3.935 15.657,4.343 C16.064,4.75 16.064,5.414 15.657,5.821 L14.968,6.511 C14.807,6.672 14.774,6.922 14.891,7.118 C15.159,7.574 15.362,8.065 15.495,8.579 C15.553,8.8 15.752,8.954 15.979,8.954 L16.954,8.954 C17.531,8.954 18,9.423 18,10 C18,10.577 17.531,11.046 16.954,11.046 L15.979,11.046 C15.752,11.046 15.553,11.2 15.495,11.421 L15.495,11.421 Z M16.954,12.046 C18.082,12.046 19,11.128 19,10 C19,8.872 18.082,7.954 16.954,7.954 L16.354,7.954 C16.244,7.609 16.105,7.274 15.94,6.952 L16.364,6.528 C17.162,5.73 17.162,4.434 16.364,3.636 C15.567,2.839 14.269,2.839 13.472,3.636 L13.048,4.06 C12.726,3.895 12.391,3.756 12.046,3.646 L12.046,3.046 C12.046,1.918 11.128,1 10,1 C8.872,1 7.954,1.918 7.954,3.046 L7.954,3.646 C7.609,3.756 7.274,3.895 6.952,4.06 L6.528,3.636 C5.731,2.839 4.433,2.839 3.636,3.636 C2.838,4.434 2.838,5.73 3.636,6.528 L4.06,6.952 C3.895,7.274 3.756,7.609 3.646,7.954 L3.046,7.954 C1.918,7.954 1,8.872 1,10 C1,11.128 1.918,12.046 3.046,12.046 L3.646,12.046 C3.756,12.391 3.895,12.726 4.06,13.048 L3.636,13.472 C2.838,14.27 2.838,15.566 3.636,16.364 C4.433,17.161 5.731,17.161 6.528,16.364 L6.952,15.94 C7.273,16.105 7.608,16.244 7.954,16.354 L7.954,16.954 C7.954,18.082 8.872,19 10,19 C11.128,19 12.046,18.082 12.046,16.954 L12.046,16.354 C12.391,16.244 12.726,16.105 13.048,15.94 L13.472,16.364 C14.269,17.161 15.567,17.161 16.364,16.364 C17.162,15.566 17.162,14.27 16.364,13.472 L15.94,13.048 C16.105,12.727 16.244,12.392 16.354,12.046 L16.954,12.046 Z" id="Page-1"></path>
        </g>
    </g>
</svg>