<?xml version="1.0" encoding="UTF-8"?>
<svg width="16px" height="16px" viewBox="0 0 16 16" version="1.1" xmlns="http://www.w3.org/2000/svg" xmlns:xlink="http://www.w3.org/1999/xlink">
    <!-- Generator: sketchtool 52.3 (67297) - http://www.bohemiancoding.com/sketch -->
    <title>cog--small</title>
    <desc>Created with sketchtool.</desc>
    <g id="Web" stroke="none" stroke-width="1" fill="none" fill-rule="evenodd">
        <g id="cog--small" fill="#000000">
            <path d="M8,9.55555556 C7.14211111,9.55555556 6.44444444,8.85788889 6.44444444,8 C6.44444444,7.14211111 7.14211111,6.44444444 8,6.44444444 C8.85788889,6.44444444 9.55555556,7.14211111 9.55555556,8 C9.55555556,8.85788889 8.85788889,9.55555556 8,9.55555556 L8,9.55555556 Z M8,5.66666667 C6.71355556,5.66666667 5.66666667,6.71355556 5.66666667,8 C5.66666667,9.28644444 6.71355556,10.3333333 8,10.3333333 C9.28644444,10.3333333 10.3333333,9.28644444 10.3333333,8 C10.3333333,6.71355556 9.28644444,5.66666667 8,5.66666667 L8,5.66666667 Z M12.2738889,9.10522222 C12.1704444,9.50577778 12.0117778,9.88844444 11.8041111,10.2415556 C11.7131111,10.394 11.7387778,10.5884444 11.864,10.7136667 L12.3998889,11.2503333 C12.7164444,11.5668889 12.7164444,12.0833333 12.3998889,12.3998889 C12.0825556,12.7172222 11.5676667,12.7172222 11.2503333,12.3998889 L10.7136667,11.864 C10.5876667,11.738 10.394,11.7123333 10.2415556,11.8041111 C9.88688889,12.0125556 9.505,12.1704444 9.10522222,12.2738889 C8.93333333,12.319 8.81355556,12.4737778 8.81355556,12.6503333 L8.81355556,13.4086667 C8.81355556,13.8574444 8.44877778,14.2222222 8,14.2222222 C7.55122222,14.2222222 7.18644444,13.8574444 7.18644444,13.4086667 L7.18644444,12.6503333 C7.18644444,12.4737778 7.06666667,12.319 6.89477778,12.2738889 C6.49422222,12.1704444 6.11155556,12.0117778 5.75844444,11.8041111 C5.697,11.7675556 5.62855556,11.7496667 5.56088889,11.7496667 C5.46055556,11.7496667 5.361,11.7885556 5.28633333,11.864 L4.74966667,12.3998889 C4.43233333,12.7172222 3.91744444,12.7172222 3.60011111,12.3998889 C3.28355556,12.0833333 3.28355556,11.5668889 3.60011111,11.2503333 L4.136,10.7136667 C4.26122222,10.5884444 4.28688889,10.394 4.19588889,10.2415556 C3.98744444,9.88688889 3.82955556,9.505 3.72611111,9.10522222 C3.681,8.93333333 3.52622222,8.81355556 3.34966667,8.81355556 L2.59133333,8.81355556 C2.14255556,8.81355556 1.77777778,8.44877778 1.77777778,8 C1.77777778,7.55122222 2.14255556,7.18644444 2.59133333,7.18644444 L3.34966667,7.18644444 C3.52622222,7.18644444 3.681,7.06666667 3.72611111,6.89477778 C3.82955556,6.495 3.98744444,6.11311111 4.19588889,5.75844444 C4.28688889,5.606 4.26122222,5.41155556 4.136,5.28633333 L3.60011111,4.74966667 C3.28355556,4.43311111 3.28355556,3.91666667 3.60011111,3.60011111 C3.91744444,3.28277778 4.43233333,3.28277778 4.74966667,3.60011111 L5.28633333,4.136 C5.41155556,4.262 5.60522222,4.28688889 5.75844444,4.19588889 C6.11311111,3.98744444 6.495,3.82955556 6.89477778,3.72611111 C7.06666667,3.681 7.18644444,3.52622222 7.18644444,3.34966667 L7.18644444,2.59133333 C7.18644444,2.14255556 7.55122222,1.77777778 8,1.77777778 C8.44877778,1.77777778 8.81355556,2.14255556 8.81355556,2.59133333 L8.81355556,3.34966667 C8.81355556,3.52622222 8.93333333,3.681 9.10522222,3.72611111 C9.505,3.82955556 9.88688889,3.98744444 10.2415556,4.19588889 C10.3947778,4.28766667 10.5884444,4.26277778 10.7136667,4.136 L11.2503333,3.60011111 C11.5676667,3.28277778 12.0825556,3.28277778 12.3998889,3.60011111 C12.7164444,3.91666667 12.7164444,4.43311111 12.3998889,4.74966667 L11.864,5.28633333 C11.7387778,5.41155556 11.7131111,5.606 11.8041111,5.75844444 C12.0125556,6.11311111 12.1704444,6.495 12.2738889,6.89477778 C12.319,7.06666667 12.4737778,7.18644444 12.6503333,7.18644444 L13.4086667,7.18644444 C13.8574444,7.18644444 14.2222222,7.55122222 14.2222222,8 C14.2222222,8.44877778 13.8574444,8.81355556 13.4086667,8.81355556 L12.6503333,8.81355556 C12.4737778,8.81355556 12.319,8.93333333 12.2738889,9.10522222 L12.2738889,9.10522222 Z M13.4086667,9.59133333 C14.286,9.59133333 15,8.87733333 15,8 C15,7.12266667 14.286,6.40866667 13.4086667,6.40866667 L12.942,6.40866667 C12.8564444,6.14033333 12.7483333,5.87977778 12.62,5.62933333 L12.9497778,5.29955556 C13.5704444,4.67888889 13.5704444,3.67088889 12.9497778,3.05022222 C12.3298889,2.43033333 11.3203333,2.43033333 10.7004444,3.05022222 L10.3706667,3.38 C10.1202222,3.25166667 9.85966667,3.14355556 9.59133333,3.058 L9.59133333,2.59133333 C9.59133333,1.714 8.87733333,1 8,1 C7.12266667,1 6.40866667,1.714 6.40866667,2.59133333 L6.40866667,3.058 C6.14033333,3.14355556 5.87977778,3.25166667 5.62933333,3.38 L5.29955556,3.05022222 C4.67966667,2.43033333 3.67011111,2.43033333 3.05022222,3.05022222 C2.42955556,3.67088889 2.42955556,4.67888889 3.05022222,5.29955556 L3.38,5.62933333 C3.25166667,5.87977778 3.14355556,6.14033333 3.058,6.40866667 L2.59133333,6.40866667 C1.714,6.40866667 1,7.12266667 1,8 C1,8.87733333 1.714,9.59133333 2.59133333,9.59133333 L3.058,9.59133333 C3.14355556,9.85966667 3.25166667,10.1202222 3.38,10.3706667 L3.05022222,10.7004444 C2.42955556,11.3211111 2.42955556,12.3291111 3.05022222,12.9497778 C3.67011111,13.5696667 4.67966667,13.5696667 5.29955556,12.9497778 L5.62933333,12.62 C5.879,12.7483333 6.13955556,12.8564444 6.40866667,12.942 L6.40866667,13.4086667 C6.40866667,14.286 7.12266667,15 8,15 C8.87733333,15 9.59133333,14.286 9.59133333,13.4086667 L9.59133333,12.942 C9.85966667,12.8564444 10.1202222,12.7483333 10.3706667,12.62 L10.7004444,12.9497778 C11.3203333,13.5696667 12.3298889,13.5696667 12.9497778,12.9497778 C13.5704444,12.3291111 13.5704444,11.3211111 12.9497778,10.7004444 L12.62,10.3706667 C12.7483333,10.121 12.8564444,9.86044444 12.942,9.59133333 L13.4086667,9.59133333 Z" id="Page-1"></path>
        </g>
    </g>
</svg>