<?xml version="1.0" encoding="UTF-8"?>
<svg width="24px" height="24px" viewBox="0 0 24 24" version="1.1" xmlns="http://www.w3.org/2000/svg" xmlns:xlink="http://www.w3.org/1999/xlink">
    <!-- Generator: sketchtool 46.2 (44496) - http://www.bohemiancoding.com/sketch -->
    <title>copy</title>
    <desc>Created with sketchtool.</desc>
    <defs></defs>
    <g id="Web" stroke="none" stroke-width="1" fill="none" fill-rule="evenodd">
        <g id="copy" fill="#000000">
            <path d="M20.3333333,5.33333333 C20.3333333,4.41416667 19.5858333,3.66666667 18.6666667,3.66666667 L11.2158333,3.66666667 C10.2966667,3.66666667 9.5,4.41416667 9.5,5.33333333 L9.5,12.7841667 C9.5,13.7033333 10.2966667,14.5 11.2158333,14.5 L18.6666667,14.5 C19.5858333,14.5 20.3333333,13.7033333 20.3333333,12.7841667 L20.3333333,5.33333333 Z M22,5.33333333 L22,12.7841667 C22,14.6183333 20.5,16.1666667 18.6666667,16.1666667 L11.2158333,16.1666667 C9.38166667,16.1666667 7.83333333,14.6183333 7.83333333,12.7841667 L7.83333333,5.33333333 C7.83333333,3.5 9.38166667,2 11.2158333,2 L18.6666667,2 C20.5,2 22,3.5 22,5.33333333 L22,5.33333333 Z M12.8333333,17.8333333 L14.5,17.8333333 L14.5,19.0591667 C14.5,20.6758333 13.1333333,22 11.5158333,22 L4.94083333,22 C3.32333333,22 2,20.6758333 2,19.0591667 L2,12.485 C2,10.8666667 3.32333333,9.5 4.94083333,9.5 L6.16666667,9.5 L6.16666667,11.1666667 L4.94083333,11.1666667 C4.13,11.1666667 3.66666667,11.6733333 3.66666667,12.485 L3.66666667,19.0591667 C3.66666667,19.8691667 4.13,20.3333333 4.94083333,20.3333333 L11.5158333,20.3333333 C12.3266667,20.3333333 12.8333333,19.8691667 12.8333333,19.0591667 L12.8333333,17.8333333 Z" id="Page-1"></path>
        </g>
    </g>
</svg>