<?xml version="1.0" encoding="UTF-8"?>
<svg width="16px" height="16px" viewBox="0 0 16 16" version="1.1" xmlns="http://www.w3.org/2000/svg" xmlns:xlink="http://www.w3.org/1999/xlink">
    <!-- Generator: (null) (null) ((null)) - http://www.bohemiancoding.com/sketch -->
    <title>creditcard--small</title>
    <desc>Created with (null).</desc>
    <defs></defs>
    <g id="Web" stroke="none" stroke-width="1" fill="none" fill-rule="evenodd">
        <g id="creditcard--small" fill="#000000">
            <path d="M3.2,10.9444444 C3.2,10.7297778 3.3792,10.5555556 3.6,10.5555556 L6,10.5555556 C6.2208,10.5555556 6.4,10.7297778 6.4,10.9444444 C6.4,11.1591111 6.2208,11.3333333 6,11.3333333 L3.6,11.3333333 C3.3792,11.3333333 3.2,11.1591111 3.2,10.9444444 L3.2,10.9444444 Z M0.8,5.11111111 C0.8,3.82466667 1.8768,2.77777778 3.2,2.77777778 L12.8,2.77777778 C14.1232,2.77777778 15.2,3.82466667 15.2,5.11111111 L0.8,5.11111111 Z M0.8,7.44444444 L15.2,7.44444444 L15.2,5.88888889 L0.8,5.88888889 L0.8,7.44444444 Z M15.2,11.3333333 C15.2,12.6197778 14.1232,13.6666667 12.8,13.6666667 L3.2,13.6666667 C1.8768,13.6666667 0.8,12.6197778 0.8,11.3333333 L0.8,8.22222222 L15.2,8.22222222 L15.2,11.3333333 Z M12.8,2 L3.2,2 C1.4328,2 0,3.393 0,5.11111111 L0,8.22222222 L0,11.3333333 C0,13.0514444 1.4328,14.4444444 3.2,14.4444444 L12.8,14.4444444 C14.5672,14.4444444 16,13.0514444 16,11.3333333 L16,8.22222222 L16,5.11111111 C16,3.393 14.5672,2 12.8,2 L12.8,2 Z" id="Page-1"></path>
        </g>
    </g>
</svg>