<?xml version="1.0" encoding="UTF-8"?>
<svg width="28px" height="28px" viewBox="0 0 28 28" version="1.1" xmlns="http://www.w3.org/2000/svg" xmlns:xlink="http://www.w3.org/1999/xlink">
    <!-- Generator: sketchtool 46.2 (44496) - http://www.bohemiancoding.com/sketch -->
    <title>cross-circle</title>
    <desc>Created with sketchtool.</desc>
    <defs></defs>
    <g id="Web" stroke="none" stroke-width="1" fill="none" fill-rule="evenodd">
        <g id="cross-circle" fill="#000000">
            <path d="M18.242875,18.2425 C17.851875,18.6335 17.219875,18.6335 16.828875,18.2425 L13.999875,15.4145 L11.171875,18.2425 C10.780875,18.6345 10.147875,18.6335 9.75787501,18.2425 C9.36687501,17.8515 9.36687501,17.2205 9.75787501,16.8285 L12.585875,14.0005 L9.75787501,11.1725 C9.36787501,10.7815 9.36687501,10.1485 9.75787501,9.7585 C10.147875,9.3675 10.781875,9.3675 11.171875,9.7585 L13.999875,12.5865 L16.827875,9.7585 C17.218875,9.3675 17.851875,9.3675 18.242875,9.7585 C18.633875,10.1485 18.632875,10.7815 18.242875,11.1725 L15.413875,14.0005 L18.242875,16.8285 C18.633875,17.2195 18.632875,17.8525 18.242875,18.2425 M22.485875,5.5145 C17.799875,0.8285 10.200875,0.8285 5.51487501,5.5145 C0.82787501,10.2015 0.82887501,17.7995 5.51487501,22.4855 C10.200875,27.1725 17.798875,27.1725 22.485875,22.4855 C27.171875,17.7995 27.171875,10.2015 22.485875,5.5145" id="Fill-1"></path>
        </g>
    </g>
</svg>