<?xml version="1.0" encoding="UTF-8"?>
<svg width="18px" height="18px" viewBox="0 0 18 18" version="1.1" xmlns="http://www.w3.org/2000/svg" xmlns:xlink="http://www.w3.org/1999/xlink">
    <!-- Generator: sketchtool 46.2 (44496) - http://www.bohemiancoding.com/sketch -->
    <title>cross-circle-outlined--small</title>
    <desc>Created with sketchtool.</desc>
    <defs></defs>
    <g id="Web" stroke="none" stroke-width="1" fill="none" fill-rule="evenodd">
        <g id="cross-circle-outlined--small" fill="#000000">
            <path d="M14.6571,3.3431 C11.5331,0.2191 6.4671,0.2191 3.3431,3.3431 C0.2191,6.4671 0.2191,11.5331 3.3431,14.6571 C6.4671,17.7811 11.5331,17.7811 14.6571,14.6571 C17.7811,11.5331 17.7811,6.4671 14.6571,3.3431 M4.0501,13.9501 C1.3211,11.2201 1.3211,6.7801 4.0501,4.0501 C6.7801,1.3211 11.2201,1.3211 13.9501,4.0501 C16.6781,6.7791 16.6781,11.2201 13.9501,13.9501 C11.2201,16.6781 6.7791,16.6781 4.0501,13.9501 M11.8281,11.8281 C11.6331,12.0231 11.3161,12.0231 11.1211,11.8281 L9.0001,9.7071 L6.8791,11.8281 C6.6831,12.0231 6.3661,12.0231 6.1711,11.8281 C5.9761,11.6331 5.9761,11.3161 6.1711,11.1211 L8.2931,9.0001 L6.1711,6.8791 C5.9761,6.6831 5.9761,6.3661 6.1711,6.1711 C6.3661,5.9761 6.6831,5.9761 6.8791,6.1711 L9.0001,8.2931 L11.1211,6.1711 C11.3161,5.9761 11.6331,5.9761 11.8281,6.1711 C12.0231,6.3661 12.0231,6.6831 11.8281,6.8791 L9.7071,9.0001 L11.8281,11.1211 C12.0231,11.3161 12.0231,11.6331 11.8281,11.8281" id="Fill-1"></path>
        </g>
    </g>
</svg>