<?xml version="1.0" encoding="UTF-8"?>
<svg width="20px" height="20px" viewBox="0 0 20 20" version="1.1" xmlns="http://www.w3.org/2000/svg" xmlns:xlink="http://www.w3.org/1999/xlink">
    <!-- Generator: sketchtool 46.2 (44496) - http://www.bohemiancoding.com/sketch -->
    <title>cross--small</title>
    <desc>Created with sketchtool.</desc>
    <defs></defs>
    <g id="Web" stroke="none" stroke-width="1" fill="none" fill-rule="evenodd">
        <g id="cross--small" fill="#000000">
            <path d="M10.70725,10.00025 L15.85325,4.85425 C16.04925,4.65825 16.04925,4.34225 15.85325,4.14625 C15.65825,3.95125 15.34225,3.95125 15.14625,4.14625 L10.00025,9.29325 L4.85325,4.14625 C4.65825,3.95125 4.34225,3.95125 4.14625,4.14625 C3.95125,4.34225 3.95125,4.65825 4.14625,4.85425 L9.29325,10.00025 L4.14625,15.14625 C3.95125,15.34225 3.95125,15.65825 4.14625,15.85425 C4.24425,15.95125 4.37225,16.00025 4.50025,16.00025 C4.62825,16.00025 4.75625,15.95125 4.85325,15.85425 L10.00025,10.70725 L15.14625,15.85425 C15.24425,15.95125 15.37225,16.00025 15.50025,16.00025 C15.62825,16.00025 15.75625,15.95125 15.85325,15.85425 C16.04925,15.65825 16.04925,15.34225 15.85325,15.14625 L10.70725,10.00025 Z" id="Fill-1"></path>
        </g>
    </g>
</svg>