<?xml version="1.0" encoding="UTF-8"?>
<svg width="16px" height="16px" viewBox="0 0 16 16" version="1.1" xmlns="http://www.w3.org/2000/svg" xmlns:xlink="http://www.w3.org/1999/xlink">
    <!-- Generator: sketchtool 46.2 (44496) - http://www.bohemiancoding.com/sketch -->
    <title>cross--small</title>
    <desc>Created with sketchtool.</desc>
    <defs></defs>
    <g id="Web" stroke="none" stroke-width="1" fill="none" fill-rule="evenodd">
        <g id="cross--small" fill="#000000">
            <path d="M8.58925856,8.00010416 L12.8775026,3.71186017 C13.0408325,3.54853024 13.0408325,3.28520239 12.8775026,3.12187246 C12.7150059,2.95937585 12.4516781,2.95937585 12.2883482,3.12187246 L8.00010416,7.41094977 L3.71102685,3.12187246 C3.54853024,2.95937585 3.28520239,2.95937585 3.12187246,3.12187246 C2.95937585,3.28520239 2.95937585,3.54853024 3.12187246,3.71186017 L7.41094977,8.00010416 L3.12187246,12.2883482 C2.95937585,12.4516781 2.95937585,12.7150059 3.12187246,12.8783359 C3.20353743,12.9591675 3.31020187,13 3.41686632,13 C3.52353076,13 3.6301952,12.9591675 3.71102685,12.8783359 L8.00010416,8.58925856 L12.2883482,12.8783359 C12.3700131,12.9591675 12.4766776,13 12.583342,13 C12.6900065,13 12.7966709,12.9591675 12.8775026,12.8783359 C13.0408325,12.7150059 13.0408325,12.4516781 12.8775026,12.2883482 L8.58925856,8.00010416 Z" id="Fill-1"></path>
        </g>
    </g>
</svg>