<?xml version="1.0" encoding="UTF-8" standalone="no"?>
<svg width="20px" height="20px" viewBox="0 0 20 20" version="1.1" xmlns="http://www.w3.org/2000/svg" xmlns:xlink="http://www.w3.org/1999/xlink">
    <!-- Generator: sketchtool 43.2 (39069) - http://www.bohemiancoding.com/sketch -->
    <title>cross-circle--small</title>
    <desc>Created with sketchtool.</desc>
    <defs></defs>
    <g id="Web" stroke="none" stroke-width="1" fill="none" fill-rule="evenodd">
        <g id="cross-circle--small" fill="#000000">
            <path d="M12.8286,12.8281 C12.6326,13.0241 12.3166,13.0231 12.1216,12.8281 L9.9996,10.7071 L7.8786,12.8281 C7.6826,13.0231 7.3666,13.0231 7.1716,12.8281 C6.9756,12.6331 6.9756,12.3161 7.1716,12.1211 L9.2926,10.0001 L7.1716,7.8791 C6.9756,7.6831 6.9756,7.3671 7.1716,7.1721 C7.3666,6.9761 7.6826,6.9761 7.8786,7.1721 L9.9996,9.2931 L12.1206,7.1721 C12.3166,6.9761 12.6326,6.9761 12.8286,7.1721 C13.0236,7.3671 13.0236,7.6831 12.8286,7.8791 L10.7066,10.0001 L12.8286,12.1211 C13.0236,12.3161 13.0236,12.6331 12.8286,12.8281 M15.6566,4.3441 C12.5326,1.2191 7.4676,1.2191 4.3436,4.3441 C1.2186,7.4681 1.2186,12.5331 4.3426,15.6571 C7.4666,18.7811 12.5326,18.7811 15.6566,15.6561 C18.7806,12.5331 18.7806,7.4671 15.6566,4.3441" id="Fill-1"></path>
        </g>
    </g>
</svg>