<?xml version="1.0" encoding="UTF-8" standalone="no"?>
<svg width="24px" height="24px" viewBox="0 0 24 24" version="1.1" xmlns="http://www.w3.org/2000/svg" xmlns:xlink="http://www.w3.org/1999/xlink">
    <!-- Generator: sketchtool 43.2 (39069) - http://www.bohemiancoding.com/sketch -->
    <title>cross</title>
    <desc>Created with sketchtool.</desc>
    <defs></defs>
    <g id="Web" stroke="none" stroke-width="1" fill="none" fill-rule="evenodd">
        <g id="cross" fill="#000000">
            <path d="M13.4141,12 L19.7071,5.707 C20.0981,5.316 20.0981,4.684 19.7071,4.293 C19.3161,3.902 18.6841,3.902 18.2931,4.293 L12.0001,10.586 L5.7071,4.293 C5.3161,3.902 4.6841,3.902 4.2931,4.293 C3.9021,4.684 3.9021,5.316 4.2931,5.707 L10.5861,12 L4.2931,18.293 C3.9021,18.684 3.9021,19.316 4.2931,19.707 C4.4881,19.902 4.7441,20 5.0001,20 C5.2561,20 5.5121,19.902 5.7071,19.707 L12.0001,13.414 L18.2931,19.707 C18.4881,19.902 18.7441,20 19.0001,20 C19.2561,20 19.5121,19.902 19.7071,19.707 C20.0981,19.316 20.0981,18.684 19.7071,18.293 L13.4141,12 Z" id="Fill-1"></path>
        </g>
    </g>
</svg>