<?xml version="1.0" encoding="UTF-8"?>
<svg width="16px" height="16px" viewBox="0 0 16 16" version="1.1" xmlns="http://www.w3.org/2000/svg" xmlns:xlink="http://www.w3.org/1999/xlink">
    <!-- Generator: sketchtool 52.3 (67297) - http://www.bohemiancoding.com/sketch -->
    <title>cross-circle--small</title>
    <desc>Created with sketchtool.</desc>
    <g id="Web" stroke="none" stroke-width="1" fill="none" fill-rule="evenodd">
        <g id="cross-circle--small" fill="#000000">
            <path d="M10.1217197,10.1208759 C9.97471856,10.2678771 9.7377167,10.2671271 9.59146556,10.1208759 L7.99995313,8.53011351 L6.4091907,10.1208759 C6.26218956,10.2671271 6.0251877,10.2671271 5.87893656,10.1208759 C5.73193541,9.97462479 5.73193541,9.73687294 5.87893656,9.59062179 L7.46969899,7.99985937 L5.87893656,6.40909694 C5.73193541,6.26209579 5.73193541,6.02509394 5.87893656,5.8788428 C6.0251877,5.73184165 6.26218956,5.73184165 6.4091907,5.8788428 L7.99995313,7.46960523 L9.59071556,5.8788428 C9.7377167,5.73184165 9.97471856,5.73184165 10.1217197,5.8788428 C10.2679708,6.02509394 10.2679708,6.26209579 10.1217197,6.40909694 L8.53020727,7.99985937 L10.1217197,9.59062179 C10.2679708,9.73687294 10.2679708,9.97462479 10.1217197,10.1208759 M12.2427363,3.75782623 C9.89971797,1.41405792 6.1009383,1.41405792 3.75791999,3.75782623 C1.41415168,6.10084453 1.41415168,9.89962421 3.75716999,12.2426425 C6.10018829,14.5856608 9.89971797,14.5856608 12.2427363,12.2418925 C14.5857546,9.89962421 14.5857546,6.10009453 12.2427363,3.75782623" id="Fill-1"></path>
        </g>
    </g>
</svg>