<?xml version="1.0" encoding="UTF-8"?>
<svg width="24px" height="24px" viewBox="0 0 24 24" version="1.1" xmlns="http://www.w3.org/2000/svg" xmlns:xlink="http://www.w3.org/1999/xlink">
    <!-- Generator: Sketch 52.2 (67145) - http://www.bohemiancoding.com/sketch -->
    <title>clean</title>
    <desc>Created with Sketch.</desc>
    <g id="clean" stroke="none" stroke-width="1" fill="none" fill-rule="evenodd">
        <path d="M6.58832956,14.4741748 C5.96997416,15.0925302 5.26216478,15.6236386 4.46749621,16.0687052 C5.25375866,16.5260164 5.96150626,17.0677756 6.58832956,17.6945989 C7.20426317,18.3105326 7.7274581,18.9941511 8.15775624,19.7425545 C8.6181118,18.9895977 9.15399884,18.3062918 9.76569169,17.6945989 C10.3895956,17.0706951 11.0844453,16.529245 11.8479943,16.0701901 C11.078001,15.6233957 10.3830499,15.091533 9.76569169,14.4741748 C9.15505243,13.8635355 8.61868118,13.1676595 8.15558567,12.3884873 C7.72412854,13.1643174 7.20198192,13.8605224 6.58832956,14.4741748 Z M8.02715728,8 C8.58065454,10.2963773 9.5137194,12.1008821 10.8263519,13.4135146 C12.1389843,14.7261471 13.8816386,15.5973613 16.0543146,16.0271573 C13.9166383,16.4982596 12.173984,17.4076269 10.8263519,18.7552591 C9.47871967,20.1028913 8.54565481,21.8692431 8.02715728,24.0543146 C7.7292124,21.8899913 6.89604977,20.1236395 5.52766939,18.7552591 C4.15928901,17.3868787 2.31673255,16.4775115 0,16.0271573 C2.36232097,15.6075208 4.20487743,14.7363066 5.52766939,13.4135146 C6.85046134,12.0907226 7.68362398,10.2862178 8.02715728,8 Z" id="Rectangle-16-Copy-2" fill="#000000" fill-rule="nonzero"></path>
        <path d="M16.436782,4.4180503 C16.0178703,4.83846759 15.538357,5.199566 15,5.502165 C15.5326622,5.81308898 16.0121336,6.18142886 16.436782,6.60760344 C16.854053,7.02637417 17.2084972,7.49116363 17.5000074,8 C17.8118804,7.48806778 18.174923,7.02349089 18.5893211,6.60760344 C19.0119916,6.18341376 19.4827252,5.81528411 20,5.50317456 C19.4783595,5.19940091 19.0075572,4.83778961 18.5893211,4.4180503 C18.1756368,4.00287918 17.8122661,3.52975594 17.4985369,3 C17.2062415,3.52748365 16.8525076,4.00083059 16.436782,4.4180503 Z M17.5,0 C17.879242,1.57341816 18.5185538,2.80981809 19.4179355,3.70919981 C20.3173172,4.60858153 21.5113387,5.20551493 23,5.5 C21.5353196,5.82278712 20.3412982,6.445862 19.4179355,7.36922462 C18.4945729,8.29258725 17.8552611,9.50284571 17.5,11 C17.2958559,9.51706183 16.7249945,8.30680337 15.7874157,7.36922462 C14.849837,6.43164588 13.5873651,5.808571 12,5.5 C13.6186011,5.21247595 14.881073,4.61554255 15.7874157,3.70919981 C16.6937585,2.80285707 17.2646199,1.56645713 17.5,0 Z" id="Rectangle-16-Copy-3" fill="#000000" fill-rule="nonzero"></path>
    </g>
</svg>