<?xml version="1.0" encoding="UTF-8" standalone="no"?>
<svg width="28px" height="28px" viewBox="0 0 28 28" version="1.1" xmlns="http://www.w3.org/2000/svg" xmlns:xlink="http://www.w3.org/1999/xlink">
    <!-- Generator: sketchtool 43.2 (39069) - http://www.bohemiancoding.com/sketch -->
    <title>download</title>
    <desc>Created with sketchtool.</desc>
    <defs></defs>
    <g id="Web" stroke="none" stroke-width="1" fill="none" fill-rule="evenodd">
        <g id="download" fill="#000000">
            <path d="M24,17.00025 C24,19.75725 21.757,22.00025 19,22.00025 L9,22.00025 C6.243,22.00025 4,19.75725 4,17.00025 C4.00000001,17.0001667 4,17.0000833 4,17 C4,16.4477153 4.44771525,16 5,16 C5.55228475,16 6,16.4477153 6,17 C6,17.0000833 5.99999999,17.0001667 5.99999997,17.00025 C6,18.65425 7.346,20.00025 9,20.00025 L19,20.00025 C20.654,20.00025 22,18.65425 22,17.00025 C22,17.0001667 22,17.0000833 22,17 C22,16.4477153 22.4477153,16 23,16 C23.5522847,16 24,16.4477153 24,17 C24,17.0000833 24,17.0001667 24,17.00025 Z M8.375,14.782 C7.944,14.436 7.874,13.807 8.219,13.376 C8.564,12.945 9.192,12.874 9.625,13.219 L13,15.92 L13,6 C13,5.448 13.447,5 14,5 C14.553,5 15,5.448 15,6 L15,15.92 L18.375,13.219 C18.56,13.072 18.78,13.001 18.999,13.001 C19.293,13.001 19.583,13.129 19.781,13.376 C20.126,13.807 20.056,14.436 19.625,14.782 L14.625,18.782 C14.26,19.073 13.74,19.073 13.375,18.782 L8.375,14.782 Z" id="Fill-9-Copy-2"></path>
        </g>
    </g>
</svg>