<?xml version="1.0" encoding="UTF-8"?>
<svg width="16px" height="16px" viewBox="0 0 16 16" version="1.1" xmlns="http://www.w3.org/2000/svg" xmlns:xlink="http://www.w3.org/1999/xlink">
    <!-- Generator: sketchtool 52.3 (67297) - http://www.bohemiancoding.com/sketch -->
    <title>drinks--small</title>
    <desc>Created with sketchtool.</desc>
    <g id="Web" stroke="none" stroke-width="1" fill="none" fill-rule="evenodd">
        <g id="drinks--small" fill="#000000">
            <path d="M5.61085341,5.83040027 L4.82842452,5.83040027 L4.82842452,3.83062233 C4.82842452,3.13579082 5.37534231,2.59251652 6.0740513,2.59251652 C6.34320684,2.59251652 6.53803163,2.39898962 6.53803163,2.13162716 L6.53803163,1 L7.32046052,1 L7.32046052,2.13162716 C7.32046052,2.82645867 6.7727603,3.36973297 6.0740513,3.36973297 C5.8056782,3.36973297 5.61085341,3.56325987 5.61085341,3.83062233 L5.61085341,5.83040027 Z M8.74056894,5.83040027 L7.95814005,5.83040027 L7.95814005,3.83062233 C7.95814005,3.13579082 8.50505784,2.59251652 9.20376684,2.59251652 C9.47292237,2.59251652 9.66774716,2.39898962 9.66774716,2.13162716 L9.66774716,1 L10.450176,1 L10.450176,2.13162716 C10.450176,2.82645867 9.90247583,3.36973297 9.20376684,3.36973297 C8.93539373,3.36973297 8.74056894,3.56325987 8.74056894,3.83062233 L8.74056894,5.83040027 Z M12.8991784,10.8263476 L11.9884312,10.8263476 L12.6362823,8.2079054 L12.8991784,8.2079054 C13.6260549,8.2079054 14.2175711,8.79470383 14.2175711,9.51673791 C14.2175711,10.238772 13.6260549,10.8263476 12.8991784,10.8263476 Z M6.91594478,14.2227835 C4.91057956,14.2227835 3.1806293,12.8781991 2.70882468,10.9491478 L2.00620354,8.2079054 L11.8303806,8.2079054 L11.1527972,10.9483706 C10.65439,12.8758674 8.91270329,14.2227835 6.91594478,14.2227835 Z M12.8991784,7.43068895 L12.8287599,7.43068895 L12.3295702,7.43068895 L1,7.43068895 L1.94908623,11.136457 C2.5061756,13.4113696 4.54831498,15 6.91594478,15 C9.10205108,15 11.0143073,13.6219952 11.7482256,11.6035641 L12.8991784,11.6035641 C14.0579556,11.6035641 15,10.6677955 15,9.51673791 C15,8.36645756 14.0579556,7.43068895 12.8991784,7.43068895 Z" id="Fill-1"></path>
        </g>
    </g>
</svg>