<?xml version="1.0" encoding="UTF-8"?>
<svg width="24px" height="24px" viewBox="0 0 24 24" version="1.1" xmlns="http://www.w3.org/2000/svg" xmlns:xlink="http://www.w3.org/1999/xlink">
    <!-- Generator: sketchtool 46.2 (44496) - http://www.bohemiancoding.com/sketch -->
    <title>drinks</title>
    <desc>Created with sketchtool.</desc>
    <defs></defs>
    <g id="Web" stroke="none" stroke-width="1" fill="none" fill-rule="evenodd">
        <g id="drinks" fill="#000000">
            <path d="M13.5581307,9.09810526 L11.8786581,9.09810526 L11.8786581,6.15915789 C11.8786581,4.98694737 12.7662594,4.06905263 13.8990637,4.06905263 C14.1341899,4.06905263 14.2391569,3.86526316 14.2391569,3.664 L14.2391569,2 L15.9186296,2 L15.9186296,3.664 C15.9186296,4.83536842 15.0310283,5.75326316 13.8990637,5.75326316 C13.6630978,5.75326316 13.5581307,5.95789474 13.5581307,6.15915789 L13.5581307,9.09810526 Z M6.89062434,9.11242105 L6.84024016,6.17263158 C6.84024016,5.00715789 7.76898854,4.06905263 8.9101902,4.06905263 C9.14531637,4.06905263 9.25112315,3.86526316 9.25112315,3.664 L9.25112315,2 L10.9305958,2 L10.9305958,3.664 C10.9305958,4.83536842 10.0429945,5.75326316 8.9101902,5.75326316 C8.71873032,5.75326316 8.51971281,5.90484211 8.51971281,6.15915789 L8.57009699,9.08378947 L6.89062434,9.11242105 Z M18.7989251,15.3263158 L17.9071252,15.3263158 L18.6796826,11.9275789 C18.8014443,11.9225263 18.9467187,11.9174737 19.1490952,11.9174737 C19.6109502,11.9174737 20.3205274,12.7031579 20.3205274,13.6724211 C20.3205274,14.5844211 19.6378217,15.3263158 18.7989251,15.3263158 L18.7989251,15.3263158 Z M10.5367595,20.3157895 C7.91090398,20.3157895 5.64193643,18.4294737 5.01969182,15.7246316 L4.12285342,11.9174737 L16.9590629,11.9174737 L16.0949742,15.7187368 C15.4374606,18.4252632 13.1516984,20.3157895 10.5367595,20.3157895 L10.5367595,20.3157895 Z M19.1490952,10.2332632 C19.1180249,10.2332632 19.0945123,10.2341053 19.0651216,10.2341053 L19.0651216,10.2332632 L2,10.2332632 L3.38388546,16.1069474 C4.1824747,19.5764211 7.12407104,22 10.5367595,22 C13.6244699,22 16.3460553,19.9924211 17.4469497,17.0105263 L18.7989251,17.0105263 C20.5640509,17.0105263 22,15.5124211 22,13.6724211 C22,11.872 20.6413066,10.2332632 19.1490952,10.2332632 L19.1490952,10.2332632 Z" id="Fill-1"></path>
        </g>
    </g>
</svg>