<?xml version="1.0" encoding="UTF-8"?>
<svg width="18px" height="18px" viewBox="0 0 18 18" version="1.1" xmlns="http://www.w3.org/2000/svg" xmlns:xlink="http://www.w3.org/1999/xlink">
    <!-- Generator: sketchtool 46.2 (44496) - http://www.bohemiancoding.com/sketch -->
    <title>drinks--small</title>
    <desc>Created with sketchtool.</desc>
    <defs></defs>
    <g id="Web" stroke="none" stroke-width="1" fill="none" fill-rule="evenodd">
        <g id="drinks--small" fill="#000000">
            <path d="M6.26954675,6.52045745 L5.37534231,6.52045745 L5.37534231,4.23499695 C5.37534231,3.44090379 6.00039121,2.82001888 6.79891578,2.82001888 C7.1065221,2.82001888 7.32917901,2.59884528 7.32917901,2.29328818 L7.32917901,1 L8.22338345,1 L8.22338345,2.29328818 C8.22338345,3.08738134 7.59744034,3.70826625 6.79891578,3.70826625 C6.49220366,3.70826625 6.26954675,3.92943985 6.26954675,4.23499695 L6.26954675,6.52045745 Z M9.8463645,6.52045745 L8.95216006,6.52045745 L8.95216006,4.23499695 C8.95216006,3.44090379 9.57720896,2.82001888 10.3757335,2.82001888 C10.6833399,2.82001888 10.9059968,2.59884528 10.9059968,2.29328818 L10.9059968,1 L11.8002012,1 L11.8002012,2.29328818 C11.8002012,3.08738134 11.1742581,3.70826625 10.3757335,3.70826625 C10.0690214,3.70826625 9.8463645,3.92943985 9.8463645,4.23499695 L9.8463645,6.52045745 Z M14.5990611,12.2301116 L13.5582071,12.2301116 L14.2986084,9.23760617 L14.5990611,9.23760617 C15.429777,9.23760617 16.1057956,9.90823294 16.1057956,10.7334148 C16.1057956,11.5585966 15.429777,12.2301116 14.5990611,12.2301116 L14.5990611,12.2301116 Z M7.76107975,16.1117526 C5.46923378,16.1117526 3.49214777,14.5750847 2.95294249,12.3704547 L2.14994691,9.23760617 L13.3775778,9.23760617 L12.6031968,12.3695664 C12.0335886,14.5724199 10.0430895,16.1117526 7.76107975,16.1117526 L7.76107975,16.1117526 Z M14.5990611,8.3493588 L14.5185827,8.3493588 L13.9480803,8.3493588 L1,8.3493588 L2.08466998,12.5845223 C2.72134354,15.1844224 5.05521712,17 7.76107975,17 C10.259487,17 12.4449226,15.4251374 13.2836864,13.118359 L14.5990611,13.118359 C15.9233779,13.118359 17,12.0489091 17,10.7334148 C17,9.41880864 15.9233779,8.3493588 14.5990611,8.3493588 L14.5990611,8.3493588 Z" id="Fill-1"></path>
        </g>
    </g>
</svg>