<?xml version="1.0" encoding="UTF-8"?>
<svg width="28px" height="28px" viewBox="0 0 28 28" version="1.1" xmlns="http://www.w3.org/2000/svg" xmlns:xlink="http://www.w3.org/1999/xlink">
    <!-- Generator: sketchtool 43.2 (39069) - http://www.bohemiancoding.com/sketch -->
    <title>edit</title>
    <desc>Created with sketchtool.</desc>
    <defs></defs>
    <g id="Web" stroke="none" stroke-width="1" fill="none" fill-rule="evenodd">
        <g id="edit" fill="#000000">
            <path d="M5,14.9976 C5,15.5486 5.448,15.9976 6,15.9976 L7.677,15.9976 C7.943,15.9976 8.195,15.8936 8.385,15.7046 L14.793,9.2956 L11.702,6.2046 L5.293,12.6136 C5.104,12.8026 5,13.0536 5,13.3206 L5,14.9976 Z M13.27,4.6366 L13.116,4.7896 L16.207,7.8816 L16.36,7.7276 C16.772,7.3156 17,6.7676 17,6.1846 C17,5.6016 16.772,5.0536 16.36,4.6416 C15.933,4.2126 15.371,3.9986 14.811,3.9986 C14.252,3.9986 13.694,4.2116 13.27,4.6366 L13.27,4.6366 Z M3,14.9976 L3,13.3206 C3,12.5196 3.312,11.7656 3.879,11.1996 L11.855,3.2226 C13.485,1.5926 16.14,1.5916 17.771,3.2226 C18.564,4.0166 19,5.0676 19,6.1846 C19,7.3016 18.564,8.3526 17.774,9.1426 L9.798,17.1186 C9.231,17.6856 8.478,17.9976 7.677,17.9976 L6,17.9976 C4.346,17.9976 3,16.6516 3,14.9976 L3,14.9976 Z M26,24.9976 C26,25.5496 25.553,25.9976 25,25.9976 L3,25.9976 C2.448,25.9976 2,25.5496 2,24.9976 C2,24.4456 2.448,23.9976 3,23.9976 L25,23.9976 C25.553,23.9976 26,24.4456 26,24.9976 L26,24.9976 Z" id="Page-1"></path>
        </g>
    </g>
</svg>