<?xml version="1.0" encoding="UTF-8"?>
<svg width="16px" height="16px" viewBox="0 0 16 16" version="1.1" xmlns="http://www.w3.org/2000/svg" xmlns:xlink="http://www.w3.org/1999/xlink">
    <!-- Generator: sketchtool 52.3 (67297) - http://www.bohemiancoding.com/sketch -->
    <title>edit--small</title>
    <desc>Created with sketchtool.</desc>
    <g id="Web" stroke="none" stroke-width="1" fill="none" fill-rule="evenodd">
        <g id="edit--small" fill="#000000">
            <path d="M15,14.6092444 C15,14.8239111 14.8257778,14.9981333 14.6111111,14.9981333 L1.38888889,14.9981333 C1.17422222,14.9981333 1,14.8239111 1,14.6092444 C1,14.3945778 1.17422222,14.2203556 1.38888889,14.2203556 L14.6111111,14.2203556 C14.8257778,14.2203556 15,14.3945778 15,14.6092444 L15,14.6092444 Z M1.77777778,9.41602222 C1.77777778,9.10413333 1.89911111,8.81168889 2.11922222,8.5908 L7.76822222,2.94257778 L10.7222222,5.89657778 L5.07322222,11.5455778 C4.85622222,11.7625778 4.55522222,11.8870222 4.24877778,11.8870222 L2.94444444,11.8870222 C2.30122222,11.8870222 1.77777778,11.3635778 1.77777778,10.7203556 L1.77777778,9.41602222 Z M9.79822222,1.77746667 C10.3325556,1.77746667 10.8684444,1.98202222 11.2775556,2.39035556 C11.6718889,2.78468889 11.8888889,3.30813333 11.8888889,3.8658 C11.8888889,4.42346667 11.6718889,4.94691111 11.2775556,5.34124444 L11.2721111,5.34668889 L8.31811111,2.39268889 L8.32355556,2.38724444 C8.72955556,1.98124444 9.26311111,1.77746667 9.79822222,1.77746667 L9.79822222,1.77746667 Z M2.94444444,12.6648 L4.24877778,12.6648 C4.76833333,12.6648 5.256,12.4625778 5.62311111,12.0954667 L11.8274444,5.89113333 C12.368,5.35057778 12.6666667,4.63113333 12.6666667,3.8658 C12.6666667,3.10046667 12.368,2.38102222 11.8243333,1.83735556 C10.7074444,0.720466667 8.89055556,0.722022222 7.77366667,1.83735556 L1.56933333,8.04091111 C1.20222222,8.40802222 1,8.89646667 1,9.41602222 L1,10.7203556 C1,11.7921333 1.87188889,12.6648 2.94444444,12.6648 L2.94444444,12.6648 Z" id="Page-1"></path>
        </g>
    </g>
</svg>