<?xml version="1.0" encoding="UTF-8"?>
<svg width="20px" height="20px" viewBox="0 0 20 20" version="1.1" xmlns="http://www.w3.org/2000/svg" xmlns:xlink="http://www.w3.org/1999/xlink">
    <!-- Generator: sketchtool 46.2 (44496) - http://www.bohemiancoding.com/sketch -->
    <title>edit--small</title>
    <desc>Created with sketchtool.</desc>
    <defs></defs>
    <g id="Web" stroke="none" stroke-width="1" fill="none" fill-rule="evenodd">
        <g id="edit--small" fill="#000000">
            <path d="M19,18.4976 C19,18.7736 18.776,18.9976 18.5,18.9976 L1.5,18.9976 C1.224,18.9976 1,18.7736 1,18.4976 C1,18.2216 1.224,17.9976 1.5,17.9976 L18.5,17.9976 C18.776,17.9976 19,18.2216 19,18.4976 L19,18.4976 Z M2,11.8206 C2,11.4196 2.156,11.0436 2.439,10.7596 L9.702,3.4976 L13.5,7.2956 L6.237,14.5586 C5.958,14.8376 5.571,14.9976 5.177,14.9976 L3.5,14.9976 C2.673,14.9976 2,14.3246 2,13.4976 L2,11.8206 Z M12.312,1.9996 C12.999,1.9996 13.688,2.2626 14.214,2.7876 C14.721,3.2946 15,3.9676 15,4.6846 C15,5.4016 14.721,6.0746 14.214,6.5816 L14.207,6.5886 L10.409,2.7906 L10.416,2.7836 C10.938,2.2616 11.624,1.9996 12.312,1.9996 L12.312,1.9996 Z M3.5,15.9976 L5.177,15.9976 C5.845,15.9976 6.472,15.7376 6.944,15.2656 L14.921,7.2886 C15.616,6.5936 16,5.6686 16,4.6846 C16,3.7006 15.616,2.7756 14.917,2.0766 C13.481,0.6406 11.145,0.6426 9.709,2.0766 L1.732,10.0526 C1.26,10.5246 1,11.1526 1,11.8206 L1,13.4976 C1,14.8756 2.121,15.9976 3.5,15.9976 L3.5,15.9976 Z" id="Page-1"></path>
        </g>
    </g>
</svg>