<?xml version="1.0" encoding="UTF-8"?>
<svg width="24px" height="24px" viewBox="0 0 24 24" version="1.1" xmlns="http://www.w3.org/2000/svg" xmlns:xlink="http://www.w3.org/1999/xlink">
    <!-- Generator: (null) (null) ((null)) - http://www.bohemiancoding.com/sketch -->
    <title>export</title>
    <desc>Created with (null).</desc>
    <defs></defs>
    <g id="Web" stroke="none" stroke-width="1" fill="none" fill-rule="evenodd">
        <g id="export" fill="#000000">
            <path d="M16.3549995,10.2842139 L15.4979996,10.2842139 C15.0240786,10.2842139 14.6409996,10.6681499 14.6409996,11.1412139 C14.6409996,11.6142778 15.0240786,11.9982138 15.4979996,11.9982138 L16.3549995,11.9982138 C17.7724775,11.9982138 18.9259995,13.1517358 18.9259995,14.5692137 L18.9259995,19.7112135 C18.9259995,21.1286915 17.7724775,22.2822135 16.3549995,22.2822135 L7.78499985,22.2822135 C6.3675219,22.2822135 5.21399994,21.1286915 5.21399994,19.7112135 L5.21399994,14.5692137 C5.21399994,13.1517358 6.3675219,11.9982138 7.78499985,11.9982138 L8.64199982,11.9982138 C9.1150638,11.9982138 9.49899979,11.6142778 9.49899979,11.1412139 C9.49899979,10.6681499 9.1150638,10.2842139 8.64199982,10.2842139 L7.78499985,10.2842139 C5.42225093,10.2842139 3.5,12.2064648 3.5,14.5692137 L3.5,19.7112135 C3.5,22.0739625 5.42225093,23.9962134 7.78499985,23.9962134 L16.3549995,23.9962134 C18.7177485,23.9962134 20.6399994,22.0739625 20.6399994,19.7112135 L20.6399994,14.5692137 C20.6399994,12.2064648 18.7177485,10.2842139 16.3549995,10.2842139 M7.11568287,4.82083908 C6.82001788,4.45061509 6.88000788,3.91156211 7.24937487,3.61504012 L11.5343747,0.187040243 C11.8471797,-0.0623467478 12.2928197,-0.0623467478 12.6056247,0.187040243 L16.8906245,3.61504012 C17.2599915,3.91156211 17.3199815,4.45061509 17.0243165,4.82083908 C16.8546305,5.03166107 16.6061005,5.14221407 16.3541425,5.14221407 C16.1664595,5.14221407 15.9779196,5.08051007 15.8193746,4.95453107 L12.9269997,2.63977416 L12.9269997,16.2832137 C12.9269997,16.7562777 12.5439207,17.1402136 12.0699997,17.1402136 C11.5960787,17.1402136 11.2129997,16.7562777 11.2129997,16.2832137 L11.2129997,2.63977416 L8.32062483,4.95453107 C7.94954384,5.24933906 7.41134786,5.18934907 7.11568287,4.82083908" id="Fill-1"></path>
        </g>
    </g>
</svg>