<?xml version="1.0" encoding="UTF-8"?>
<svg width="24px" height="24px" viewBox="0 0 24 24" version="1.1" xmlns="http://www.w3.org/2000/svg" xmlns:xlink="http://www.w3.org/1999/xlink">
    <!-- Generator: sketchtool 52.3 (67297) - http://www.bohemiancoding.com/sketch -->
    <title>external-linkedin</title>
    <desc>Created with sketchtool.</desc>
    <g id="Web" stroke="none" stroke-width="1" fill="none" fill-rule="evenodd">
        <g id="external-linkedin" fill="#000000">
            <path d="M19.0432512,19.0426956 L16.0770577,19.0426956 L16.0770577,14.4014556 C16.0770577,13.2942026 16.0581683,11.8702742 14.5359038,11.8702742 C12.991972,11.8702742 12.7569655,13.0769744 12.7569655,14.3220089 L12.7569655,19.0426956 L9.79410539,19.0426956 L9.79410539,9.49798606 L12.6375177,9.49798606 L12.6375177,10.8030223 L12.6780744,10.8030223 C13.0736409,10.0524459 14.0414456,9.26131281 15.484819,9.26131281 C18.4882358,9.26131281 19.0432512,11.2374788 19.0432512,13.8081058 L19.0432512,19.0426956 Z M6.44901247,8.19406095 C5.49620823,8.19406095 4.72785355,7.42348399 4.72785355,6.4734576 C4.72785355,5.52398678 5.49620823,4.75340982 6.44901247,4.75340982 C7.39792772,4.75340982 8.16850468,5.52398678 8.16850468,6.4734576 C8.16850468,7.42348399 7.39792772,8.19406095 6.44901247,8.19406095 Z M4.96341565,19.0426956 L7.93294258,19.0426956 L7.93294258,9.49798606 L4.96341565,9.49798606 L4.96341565,19.0426956 Z M20.5205145,2 L3.47559654,2 C2.66168505,2 2,2.64557349 2,3.44226229 L2,20.5577377 C2,21.3538709 2.66168505,22.0005556 3.47559654,22.0005556 L20.5205145,22.0005556 C21.3360927,22.0005556 22,21.3538709 22,20.5577377 L22,3.44226229 C22,2.64557349 21.3360927,2 20.5205145,2 Z" id="Fill-1"></path>
        </g>
    </g>
</svg>