<?xml version="1.0" encoding="UTF-8"?>
<svg width="20px" height="20px" viewBox="0 0 20 20" version="1.1" xmlns="http://www.w3.org/2000/svg" xmlns:xlink="http://www.w3.org/1999/xlink">
    <!-- Generator: sketchtool 43.2 (39069) - http://www.bohemiancoding.com/sketch -->
    <title>external-messenger-outlined--small</title>
    <desc>Created with sketchtool.</desc>
    <defs></defs>
    <g id="Web" stroke="none" stroke-width="1" fill="none" fill-rule="evenodd">
        <g id="external-messenger-outlined--small" fill="#000000">
            <path d="M11.453,9.771 L15.257,7.667 L11.02,12.163 L9.047,10.059 L5.195,12.163 L9.432,7.667 L11.453,9.771 Z M10.25,16.351 C9.544,16.351 8.84,16.256 8.159,16.069 C8.034,16.035 7.9,16.05 7.786,16.113 L5.888,17.155 L5.888,15.263 C5.888,15.105 5.813,14.957 5.687,14.863 C3.979,13.587 3,11.697 3,9.675 C3,5.994 6.252,3 10.25,3 C14.248,3 17.5,5.994 17.5,9.675 C17.5,13.356 14.248,16.351 10.25,16.351 L10.25,16.351 Z M10.25,2 C5.701,2 2,5.443 2,9.675 C2,11.935 3.049,14.047 4.888,15.509 L4.888,18 C4.888,18.176 4.981,18.339 5.133,18.43 C5.212,18.476 5.3,18.5 5.388,18.5 C5.471,18.5 5.554,18.479 5.629,18.438 L8.093,17.085 C8.798,17.262 9.523,17.351 10.25,17.351 C14.799,17.351 18.5,13.908 18.5,9.675 C18.5,5.443 14.799,2 10.25,2 L10.25,2 Z" id="Fill-1"></path>
        </g>
    </g>
</svg>