<?xml version="1.0" encoding="UTF-8"?>
<svg width="24px" height="24px" viewBox="0 0 24 24" version="1.1" xmlns="http://www.w3.org/2000/svg" xmlns:xlink="http://www.w3.org/1999/xlink">
    <!-- Generator: (null) (null) ((null)) - http://www.bohemiancoding.com/sketch -->
    <title>external-medium</title>
    <desc>Created with (null).</desc>
    <defs></defs>
    <g id="Web" stroke="none" stroke-width="1" fill="none" fill-rule="evenodd">
        <g id="external-medium" fill="#000000" fill-rule="nonzero">
            <path d="M8.66666667,20.3285 C8.66666667,20.74925 8.44047619,21 8.11809524,21 C8.00380952,21 7.87714286,20.9683611 7.74380952,20.9017778 L2.55380952,18.2955833 C2.24904762,18.1425833 2,17.7374167 2,17.3955278 L2,4.61908333 C2,4.28238889 2.18095238,4.08216667 2.43904762,4.08216667 C2.53095238,4.08216667 2.63238095,4.10766667 2.73857143,4.16102778 L2.92047619,4.25216667 C2.92142857,4.25263889 2.92190476,4.25263889 2.92285714,4.25311111 L8.64190476,7.12469444 C8.65238095,7.12988889 8.65904762,7.13933333 8.66666667,7.14736111 L8.66666667,20.3285 Z M14.6604762,4.88825 L15.0090476,4.31969444 C15.1338095,4.11663889 15.3638095,4 15.5947619,4 C15.65,4 15.7047619,4.00802778 15.7585714,4.02172222 C15.8,4.03116667 15.8428571,4.04580556 15.8871429,4.068 L21.9204762,7.09730556 C21.9209524,7.09777778 21.9209524,7.09825 21.9214286,7.09825 L21.9271429,7.10108333 C21.9309524,7.10297222 21.9314286,7.10769444 21.9347619,7.11052778 C21.9652381,7.13319444 21.977619,7.17380556 21.9571429,7.20733333 L15.9490476,17.0130278 L15.3357143,18.0141389 L11.3552381,10.2833889 L14.6604762,4.88825 Z M9.61904762,15.14775 L9.61904762,8.98855556 L13.8961905,17.2958889 L10.0490476,15.3640278 L9.61904762,15.14775 Z M22,20.3285 C22,20.7242222 21.7633333,20.949 21.4152381,20.949 C21.2595238,20.949 21.0814286,20.9041389 20.892381,20.8092222 L20.032381,20.3771389 L20.032381,20.3771389 L16.1857143,18.4452778 L22,8.95597222 L22,20.3285 Z" id="Shape"></path>
        </g>
    </g>
</svg>