<?xml version="1.0" encoding="UTF-8"?>
<svg width="28px" height="28px" viewBox="0 0 28 28" version="1.1" xmlns="http://www.w3.org/2000/svg" xmlns:xlink="http://www.w3.org/1999/xlink">
    <!-- Generator: sketchtool 43.2 (39069) - http://www.bohemiancoding.com/sketch -->
    <title>external-instagram</title>
    <desc>Created with sketchtool.</desc>
    <defs></defs>
    <g id="Web" stroke="none" stroke-width="1" fill="none" fill-rule="evenodd">
        <g id="external-instagram" fill="#000000">
            <path d="M23.7813,18.8555 C23.7293,20.0285 23.5333,20.6655 23.3683,21.0875 C23.1503,21.6485 22.8903,22.0485 22.4693,22.4685 C22.0493,22.8905 21.6483,23.1515 21.0883,23.3685 C20.6643,23.5335 20.0273,23.7295 18.8553,23.7835 C17.5893,23.8395 17.2093,23.8515 14.0003,23.8515 C10.7903,23.8515 10.4103,23.8395 9.1433,23.7835 C7.9713,23.7295 7.3353,23.5335 6.9123,23.3685 C6.3513,23.1515 5.9503,22.8905 5.5303,22.4685 C5.1103,22.0485 4.8493,21.6485 4.6313,21.0875 C4.4663,20.6655 4.2713,20.0285 4.2173,18.8555 C4.1593,17.5875 4.1473,17.2095 4.1473,14.0005 C4.1473,10.7915 4.1593,10.4105 4.2173,9.1435 C4.2713,7.9715 4.4663,7.3355 4.6313,6.9125 C4.8493,6.3505 5.1103,5.9505 5.5303,5.5305 C5.9503,5.1095 6.3513,4.8495 6.9123,4.6305 C7.3353,4.4665 7.9713,4.2715 9.1433,4.2175 C10.4103,4.1595 10.7913,4.1475 14.0003,4.1475 C17.2093,4.1475 17.5883,4.1595 18.8553,4.2175 C20.0273,4.2715 20.6643,4.4665 21.0883,4.6305 C21.6483,4.8495 22.0493,5.1095 22.4693,5.5305 C22.8903,5.9505 23.1503,6.3505 23.3683,6.9125 C23.5333,7.3355 23.7293,7.9715 23.7813,9.1435 C23.8403,10.4105 23.8513,10.7915 23.8513,14.0005 C23.8513,17.2095 23.8403,17.5875 23.7813,18.8555 M25.9273,9.0525 C25.8703,7.7745 25.6663,6.9025 25.3693,6.1395 C25.0633,5.3505 24.6523,4.6815 23.9853,4.0145 C23.3183,3.3475 22.6493,2.9365 21.8603,2.6305 C21.0963,2.3335 20.2233,2.1305 18.9473,2.0725 C17.6683,2.0145 17.2593,2.0005 14.0003,2.0005 C10.7403,2.0005 10.3323,2.0145 9.0523,2.0725 C7.7753,2.1305 6.9033,2.3335 6.1393,2.6305 C5.3503,2.9365 4.6813,3.3475 4.0143,4.0145 C3.3463,4.6815 2.9363,5.3505 2.6303,6.1395 C2.3333,6.9025 2.1303,7.7745 2.0723,9.0525 C2.0133,10.3325 2.0003,10.7405 2.0003,14.0005 C2.0003,17.2585 2.0133,17.6675 2.0723,18.9485 C2.1303,20.2245 2.3333,21.0965 2.6303,21.8605 C2.9363,22.6485 3.3463,23.3185 4.0143,23.9855 C4.6813,24.6525 5.3503,25.0635 6.1393,25.3705 C6.9033,25.6675 7.7753,25.8705 9.0523,25.9275 C10.3323,25.9865 10.7403,26.0005 14.0003,26.0005 C17.2593,26.0005 17.6683,25.9865 18.9473,25.9275 C20.2233,25.8705 21.0963,25.6675 21.8603,25.3705 C22.6493,25.0635 23.3183,24.6525 23.9853,23.9855 C24.6523,23.3185 25.0633,22.6485 25.3693,21.8605 C25.6663,21.0965 25.8703,20.2245 25.9273,18.9485 C25.9863,17.6675 26.0003,17.2585 26.0003,14.0005 C26.0003,10.7405 25.9863,10.3325 25.9273,9.0525 M21.8323,7.6055 C21.8323,8.3985 21.1883,9.0425 20.3943,9.0425 C19.6003,9.0425 18.9573,8.3985 18.9573,7.6055 C18.9573,6.8115 19.6003,6.1685 20.3943,6.1685 C21.1883,6.1685 21.8323,6.8115 21.8323,7.6055 M14.0003,18.0105 C11.7843,18.0105 9.9893,16.2145 9.9893,14.0005 C9.9893,11.7845 11.7843,9.9895 14.0003,9.9895 C16.2153,9.9895 18.0113,11.7845 18.0113,14.0005 C18.0113,16.2145 16.2153,18.0105 14.0003,18.0105 M14.0003,7.8415 C10.5983,7.8415 7.8413,10.5985 7.8413,14.0005 C7.8413,17.4015 10.5983,20.1575 14.0003,20.1575 C17.4003,20.1575 20.1583,17.4015 20.1583,14.0005 C20.1583,10.5985 17.4003,7.8415 14.0003,7.8415" id="Fill-1"></path>
        </g>
    </g>
</svg>