<?xml version="1.0" encoding="UTF-8"?>
<svg width="28px" height="28px" viewBox="0 0 28 28" version="1.1" xmlns="http://www.w3.org/2000/svg" xmlns:xlink="http://www.w3.org/1999/xlink">
    <!-- Generator: sketchtool 43.2 (39069) - http://www.bohemiancoding.com/sketch -->
    <title>external-instagram</title>
    <desc>Created with sketchtool.</desc>
    <defs></defs>
    <g id="Web" stroke="none" stroke-width="1" fill="none" fill-rule="evenodd">
        <g id="external-instagram" fill-rule="nonzero" fill="#000000">
            <path d="M23.3333333,2 L4.66666667,2 C3.2,2 2,3.2 2,4.66666667 L2,23.3333333 C2,24.8013333 3.2,26 4.66666667,26 L23.3333333,26 C24.8,26 26,24.8013333 26,23.3333333 L26,4.66666667 C26,3.2 24.8,2 23.3333333,2 Z M13.9786667,21.364 C18.0573333,21.364 21.3626667,18.056 21.3626667,13.9786667 C21.3626667,13.528 21.3053333,13.0933333 21.2253333,12.6666667 L23.3333333,12.6666667 L23.3333333,22.288 C23.3333333,22.7973333 22.92,23.208 22.4093333,23.208 L5.59066667,23.208 C5.08,23.208 4.66666667,22.7973333 4.66666667,22.288 L4.66666667,12.6666667 L6.732,12.6666667 C6.65066667,13.0933333 6.59333333,13.528 6.59333333,13.9786667 C6.59333333,18.0573333 9.90133333,21.364 13.9786667,21.364 Z M9.364,13.9786667 C9.364,11.4293333 11.4306667,9.364 13.98,9.364 C16.528,9.364 18.596,11.4293333 18.596,13.9786667 C18.596,16.528 16.528,18.5946667 13.98,18.5946667 C11.4293333,18.5946667 9.364,16.528 9.364,13.9786667 Z M22.4093333,8.66666667 L20.256,8.66666667 C19.7466667,8.66666667 19.3333333,8.25066667 19.3333333,7.744 L19.3333333,5.588 C19.3333333,5.07866667 19.7466667,4.66666667 20.2546667,4.66666667 L22.408,4.66666667 C22.92,4.66666667 23.3333333,5.07866667 23.3333333,5.588 L23.3333333,7.74266667 C23.3333333,8.25066667 22.92,8.66666667 22.4093333,8.66666667 Z" id="Shape"></path>
        </g>
    </g>
</svg>