<?xml version="1.0" encoding="UTF-8"?>
<svg width="28px" height="28px" viewBox="0 0 28 28" version="1.1" xmlns="http://www.w3.org/2000/svg" xmlns:xlink="http://www.w3.org/1999/xlink">
    <!-- Generator: sketchtool 43.2 (39069) - http://www.bohemiancoding.com/sketch -->
    <title>external-messenger-outlined</title>
    <desc>Created with sketchtool.</desc>
    <defs></defs>
    <g id="Web" stroke="none" stroke-width="1" fill="none" fill-rule="evenodd">
        <g id="external-messenger-outlined" fill="#000000">
            <path d="M21.1055,10.3335 L15.0925,16.7155 L12.2925,13.7285 L6.8255,16.7155 L12.8385,10.3335 L15.7075,13.3205 L21.1055,10.3335 Z M14.0005,22.3705 C13.0215,22.3705 12.0495,22.2385 11.1105,21.9805 C10.8585,21.9105 10.5905,21.9425 10.3635,22.0675 L8.0995,23.3105 L8.0995,21.1165 C8.0995,20.8015 7.9505,20.5045 7.6975,20.3155 C5.3475,18.5605 4.0005,15.9615 4.0005,13.1855 C4.0005,8.1205 8.4855,4.0005 14.0005,4.0005 C19.5135,4.0005 24.0005,8.1205 24.0005,13.1855 C24.0005,18.2495 19.5135,22.3705 14.0005,22.3705 L14.0005,22.3705 Z M14.0005,2.0005 C7.3835,2.0005 2.0005,7.0175 2.0005,13.1855 C2.0005,16.4365 3.4875,19.4775 6.0995,21.6045 L6.0995,25.0005 C6.0995,25.3535 6.2865,25.6805 6.5905,25.8605 C6.7475,25.9535 6.9235,26.0005 7.0995,26.0005 C7.2655,26.0005 7.4305,25.9585 7.5805,25.8765 L10.9785,24.0115 C11.9655,24.2495 12.9805,24.3705 14.0005,24.3705 C20.6175,24.3705 26.0005,19.3525 26.0005,13.1855 C26.0005,7.0175 20.6175,2.0005 14.0005,2.0005 L14.0005,2.0005 Z" id="Fill-1"></path>
        </g>
    </g>
</svg>