<?xml version="1.0" encoding="UTF-8"?>
<svg width="24px" height="24px" viewBox="0 0 24 24" version="1.1" xmlns="http://www.w3.org/2000/svg" xmlns:xlink="http://www.w3.org/1999/xlink">
    <!-- Generator: sketchtool 46.2 (44496) - http://www.bohemiancoding.com/sketch -->
    <title>external-outlook</title>
    <desc>Created with sketchtool.</desc>
    <defs></defs>
    <g id="Web" stroke="none" stroke-width="1" fill="none" fill-rule="evenodd">
        <g id="external-outlook" fill-rule="nonzero" fill="#000000">
            <path d="M14.5210084,6.25 L14.5210084,6.16666667 L21.3277311,6.16666667 C21.5798319,6.16666667 22,6.5 22,7 L16.0336134,11 L15.8655462,11 L14.5210084,10.1666667 L14.5210084,6.25 Z M14.5210084,11.5833333 L15.7815126,12.4166667 C15.9495798,12.5833333 16.2016807,12.4166667 16.2016807,12.4166667 C15.9495798,12.5833333 22,8.58333333 22,8.58333333 L22,15.75 C22,16.5 21.4957983,16.8333333 20.907563,16.8333333 L14.5210084,16.8333333 L14.5210084,11.5833333 L14.5210084,11.5833333 Z M2,4.25 L13.7647059,2 L13.7647059,22 L2,19.5833333 L2,4.25 Z M7.96638655,9.83333333 C8.38655462,9.83333333 8.72268908,10 8.97478992,10.3333333 C9.22689076,10.75 9.31092437,11.3333333 9.31092437,12 C9.31092437,12.6666667 9.22689076,13.1666667 8.97478992,13.5833333 C8.72268908,14 8.38655462,14.1666667 7.96638655,14.1666667 C7.54621849,14.1666667 7.21008403,14 6.95798319,13.5833333 C6.70588235,13.1666667 6.53781513,12.6666667 6.53781513,12 C6.53781513,11.3333333 6.70588235,10.8333333 6.95798319,10.4166667 C7.21008403,10 7.54621849,9.83333333 7.96638655,9.83333333 Z M9.89915966,14.5 C10.3193277,13.8333333 10.5714286,13 10.6554622,12 C10.6554622,11 10.4033613,10.1666667 9.89915966,9.5 C9.4789916,8.91666667 8.80672269,8.58333333 8.05042017,8.58333333 C7.21008403,8.58333333 6.53781513,8.91666667 6.03361345,9.58333333 C5.52941176,10.25 5.27731092,11.0833333 5.27731092,12.1666667 C5.27731092,13.1666667 5.52941176,13.9166667 6.03361345,14.5833333 C6.53781513,15.1666667 7.21008403,15.5 7.96638655,15.5 C8.72268908,15.5 9.39495798,15.1666667 9.89915966,14.5 Z" id="Combined-Shape"></path>
        </g>
    </g>
</svg>