<?xml version="1.0" encoding="UTF-8"?>
<svg width="24px" height="24px" viewBox="0 0 24 24" version="1.1" xmlns="http://www.w3.org/2000/svg" xmlns:xlink="http://www.w3.org/1999/xlink">
    <!-- Generator: (null) (null) ((null)) - http://www.bohemiancoding.com/sketch -->
    <title>external-gmail</title>
    <desc>Created with (null).</desc>
    <defs></defs>
    <g id="Web" stroke="none" stroke-width="1" fill="none" fill-rule="evenodd">
        <g id="external-gmail" fill="#000000" fill-rule="nonzero">
            <path d="M20,4 L4,4 C2.88235294,4 2,4.88235294 2,6 L2,18 C2,19.1176471 2.88235294,20 4,20 L20,20 C21.1176471,20 22,19.1176471 22,18 L22,6 C22,4.88235294 21.1176471,4 20,4 Z M20,18 L18,18 L18,9.17647059 L12,13 L6,9.17647059 L6,18 L4,18 L4,6 L5.17647059,6 L12,10.1764706 L18.8235294,6 L20,6 L20,18 L20,18 Z" id="Shape"></path>
        </g>
    </g>
</svg>