<?xml version="1.0" encoding="UTF-8" standalone="no"?>
<svg width="28px" height="28px" viewBox="0 0 28 28" version="1.1" xmlns="http://www.w3.org/2000/svg" xmlns:xlink="http://www.w3.org/1999/xlink">
    <!-- Generator: sketchtool 43.2 (39069) - http://www.bohemiancoding.com/sketch -->
    <title>external-twitter-outlined</title>
    <desc>Created with sketchtool.</desc>
    <defs></defs>
    <g id="Web" stroke="none" stroke-width="1" fill="none" fill-rule="evenodd">
        <g id="external-twitter-outlined" fill="#000000">
            <path d="M22.0763248,9.453 L21.8993248,9.581 L21.9113248,9.799 C21.9213248,9.974 21.9233248,10.151 21.9233248,10.331 C21.9233248,15.232 18.2613248,22.134 10.1193248,22.134 C8.40232475,22.134 6.72132475,21.762 5.17632475,21.048 C6.99132475,20.929 8.69732475,20.277 10.1413248,19.144 L11.0283248,18.449 L9.90132475,18.43 C8.45532475,18.405 7.16232475,17.583 6.51432475,16.326 C6.57332475,16.328 6.63232475,16.33 6.69132475,16.33 C7.11232475,16.33 7.52932475,16.274 7.92932475,16.164 L9.54932475,15.718 L7.90132475,15.386 C6.28832475,15.061 5.06932475,13.75 4.82532475,12.16 C5.30032475,12.337 5.80432475,12.436 6.31032475,12.453 L7.71132475,12.5 L6.54732475,11.722 C5.46432475,10.996 4.81732475,9.786 4.81732475,8.482 C4.81732475,7.989 4.91032475,7.502 5.09032475,7.049 C7.32632475,9.533 10.4733248,11.04 13.8183248,11.208 L14.3503248,11.234 L14.2283248,10.717 C14.1633248,10.44 14.1303248,10.141 14.1303248,9.83 C14.1303248,7.686 15.8733248,5.942 18.0163248,5.942 C19.0893248,5.942 20.1243248,6.389 20.8573248,7.169 L21.0083248,7.329 L21.2243248,7.287 C21.8603248,7.163 22.4773248,6.972 23.0673248,6.715 C22.9363248,6.937 22.7913248,7.127 22.6273248,7.29 C22.4763248,7.438 22.2043248,7.602 22.0233248,7.712 C21.7833248,7.855 21.4553248,8.053 21.6273248,8.403 C21.6723248,8.495 21.7893248,8.649 22.0683248,8.649 C22.2963248,8.649 22.7763248,8.538 23.2833248,8.388 C22.9183248,8.779 22.5143248,9.136 22.0763248,9.453 M25.3543248,6.297 C25.5333248,5.694 25.3293248,5.043 24.8363248,4.65 C24.5553248,4.428 24.2163248,4.313 23.8733248,4.313 C23.6023248,4.313 23.3303248,4.385 23.0873248,4.53 C22.6033248,4.814 22.0973248,5.043 21.5673248,5.204 C20.5583248,4.431 19.3053248,4 18.0183248,4 C15.0683248,4 12.6233248,6.201 12.2383248,9.048 C9.88532475,8.544 7.74232475,7.249 6.19832475,5.354 C5.90332475,4.991 5.46132475,4.785 5.00132475,4.785 C4.96232475,4.785 4.92132475,4.788 4.88032475,4.791 C4.37432475,4.829 3.92332475,5.114 3.66732475,5.553 C3.14832475,6.44 2.87632475,7.454 2.87632475,8.485 C2.87632475,9.182 2.99932475,9.862 3.22832475,10.495 C2.98132475,10.776 2.83932475,11.138 2.83932475,11.521 C2.83932475,13.053 3.41632475,14.459 4.37932475,15.515 C4.32032475,15.778 4.32932475,16.058 4.41532475,16.325 C4.74832475,17.368 5.35732475,18.265 6.14532475,18.95 C5.63432475,19.065 5.10332475,19.126 4.56632475,19.126 C4.28832475,19.126 4.00732475,19.108 3.72232475,19.076 C3.66232475,19.067 3.60232475,19.064 3.54232475,19.064 C2.89632475,19.064 2.31032475,19.469 2.09132475,20.09 C1.84732475,20.766 2.10532475,21.522 2.70932475,21.91 C4.92732475,23.33 7.49032475,24.083 10.1193248,24.083 C18.6493248,24.083 23.7753248,17.217 23.8673248,10.516 C24.5613248,9.925 25.1713248,9.244 25.6883248,8.485 C25.8853248,8.227 26.0003248,7.906 26.0003248,7.555 C26.0003248,7.038 25.7453248,6.579 25.3543248,6.297" id="Fill-1"></path>
        </g>
    </g>
</svg>