<?xml version="1.0" encoding="UTF-8"?>
<svg width="24px" height="24px" viewBox="0 0 24 24" version="1.1" xmlns="http://www.w3.org/2000/svg" xmlns:xlink="http://www.w3.org/1999/xlink">
    <!-- Generator: sketchtool 43.2 (39069) - http://www.bohemiancoding.com/sketch -->
    <title>external-yahoo</title>
    <desc>Created with sketchtool.</desc>
    <defs></defs>
    <g id="Web" stroke="none" stroke-width="1" fill="none" fill-rule="evenodd">
        <g id="external-yahoo" fill-rule="nonzero" fill="#000000">
            <path d="M19.3888889,2.38888889 L19.3888889,2.38888889 L19.3888889,2.38888889 C18.4444444,2.61111111 17.6666667,2.61111111 16.8333333,2.38888889 C16.1111111,3.72222222 13.4444444,8.11111111 11.7777778,10.8888889 C10.0555556,8.05555556 8,4.77777778 6.72222222,2.38888889 C5.66666667,2.61111111 5.22222222,2.61111111 4.16666667,2.38888889 C6.22222222,5.5 9.61111111,11.5 10.7222222,13.4444444 L10.5555556,21.6111111 C10.5555556,21.6111111 11.2777778,21.5 11.7777778,21.5 C12.3333333,21.5 13,21.6111111 13,21.6111111 L12.8333333,13.4444444 C14.9444444,9.72222222 18.4444444,3.66666667 19.3888889,2.38888889 Z" id="Shape"></path>
        </g>
    </g>
</svg>