<?xml version="1.0" encoding="UTF-8"?>
<svg width="28px" height="28px" viewBox="0 0 28 28" version="1.1" xmlns="http://www.w3.org/2000/svg" xmlns:xlink="http://www.w3.org/1999/xlink">
    <!-- Generator: sketchtool 43.2 (39069) - http://www.bohemiancoding.com/sketch -->
    <title>external-linkedin</title>
    <desc>Created with sketchtool.</desc>
    <defs></defs>
    <g id="Web" stroke="none" stroke-width="1" fill="none" fill-rule="evenodd">
        <g id="external-linkedin" fill="#000000">
            <path d="M22.4513333,22.4506667 L18.892,22.4506667 L18.892,16.8813333 C18.892,15.5526667 18.8693333,13.844 17.0426667,13.844 C15.19,13.844 14.908,15.292 14.908,16.786 L14.908,22.4506667 L11.3526667,22.4506667 L11.3526667,10.9973333 L14.7646667,10.9973333 L14.7646667,12.5633333 L14.8133333,12.5633333 C15.288,11.6626667 16.4493333,10.7133333 18.1813333,10.7133333 C21.7853333,10.7133333 22.4513333,13.0846667 22.4513333,16.1693333 L22.4513333,22.4506667 Z M7.33866667,9.43266667 C6.19533333,9.43266667 5.27333333,8.508 5.27333333,7.368 C5.27333333,6.22866667 6.19533333,5.304 7.33866667,5.304 C8.47733333,5.304 9.402,6.22866667 9.402,7.368 C9.402,8.508 8.47733333,9.43266667 7.33866667,9.43266667 L7.33866667,9.43266667 Z M5.556,22.4506667 L9.11933333,22.4506667 L9.11933333,10.9973333 L5.556,10.9973333 L5.556,22.4506667 Z M24.224,2 L3.77066667,2 C2.794,2 2,2.77466667 2,3.73066667 L2,24.2686667 C2,25.224 2.794,26 3.77066667,26 L24.224,26 C25.2026667,26 25.9993333,25.224 25.9993333,24.2686667 L25.9993333,3.73066667 C25.9993333,2.77466667 25.2026667,2 24.224,2 L24.224,2 Z" id="Fill-1"></path>
        </g>
    </g>
</svg>