<?xml version="1.0" encoding="UTF-8"?>
<svg width="28px" height="28px" viewBox="0 0 28 28" version="1.1" xmlns="http://www.w3.org/2000/svg" xmlns:xlink="http://www.w3.org/1999/xlink">
    <!-- Generator: sketchtool 46.2 (44496) - http://www.bohemiancoding.com/sketch -->
    <title>external-facebookBoxed</title>
    <desc>Created with sketchtool.</desc>
    <defs></defs>
    <g id="Web" stroke="none" stroke-width="1" fill="none" fill-rule="evenodd">
        <g id="external-facebookBoxed" fill-rule="nonzero" fill="#000000">
            <path d="M23.3333333,2 L4.66666667,2 C3.2,2 2,3.2 2,4.66666667 L2,23.3333333 C2,24.8013333 3.2,26 4.66666667,26 L14,26 L14,16.6666667 L11.3333333,16.6666667 L11.3333333,13.3666667 L14,13.3666667 L14,10.6333333 C14,7.748 15.616,5.72133333 19.0213333,5.72133333 L21.4253333,5.724 L21.4253333,9.19733333 L19.8293333,9.19733333 C18.504,9.19733333 18,10.192 18,11.1146667 L18,13.368 L21.424,13.368 L20.6666667,16.6666667 L18,16.6666667 L18,26 L23.3333333,26 C24.8,26 26,24.8013333 26,23.3333333 L26,4.66666667 C26,3.2 24.8,2 23.3333333,2 Z" id="Shape"></path>
        </g>
    </g>
</svg>