<?xml version="1.0" encoding="UTF-8" standalone="no"?>
<svg width="20px" height="20px" viewBox="0 0 20 20" version="1.1" xmlns="http://www.w3.org/2000/svg" xmlns:xlink="http://www.w3.org/1999/xlink">
    <!-- Generator: sketchtool 43.2 (39069) - http://www.bohemiancoding.com/sketch -->
    <title>external-twitter-outlined--small</title>
    <desc>Created with sketchtool.</desc>
    <defs></defs>
    <g id="Web" stroke="none" stroke-width="1" fill="none" fill-rule="evenodd">
        <g id="external-twitter-outlined--small" fill="#000000">
            <path d="M15.54,6.8516 C15.547,6.9726 15.549,7.0966 15.549,7.2206 C15.549,10.9996 12.673,15.3566 7.413,15.3566 C5.799,15.3566 4.295,14.8826 3.029,14.0726 C3.252,14.0966 3.48,14.1126 3.711,14.1126 C5.051,14.1126 6.284,13.6546 7.263,12.8866 C6.011,12.8656 4.955,12.0376 4.591,10.9016 C4.766,10.9356 4.945,10.9536 5.128,10.9536 C5.39,10.9536 5.643,10.9176 5.882,10.8526 C4.573,10.5886 3.587,9.4346 3.587,8.0476 L3.587,8.0116 C3.973,8.2256 4.414,8.3536 4.883,8.3696 C4.115,7.8556 3.611,6.9806 3.611,5.9886 C3.611,5.4646 3.752,4.9736 3.999,4.5506 C5.408,6.2816 7.516,7.4196 9.893,7.5386 C9.843,7.3306 9.819,7.1106 9.819,6.8866 C9.819,5.3086 11.099,4.0286 12.678,4.0286 C13.501,4.0286 14.244,4.3746 14.766,4.9296 C15.416,4.8026 16.029,4.5646 16.581,4.2366 C16.367,4.9046 15.914,5.4646 15.324,5.8186 C15.902,5.7496 16.452,5.5956 16.966,5.3676 C16.584,5.9446 16.1,6.4476 15.54,6.8516 M17.569,4.5316 C17.688,4.1296 17.553,3.6956 17.224,3.4336 C17.037,3.2856 16.811,3.2086 16.582,3.2086 C16.401,3.2086 16.22,3.2566 16.058,3.3536 C15.735,3.5426 15.397,3.6956 15.045,3.8026 C14.372,3.2876 13.537,2.9996 12.679,2.9996 C10.712,2.9996 9.082,4.4676 8.825,6.3656 C7.257,6.0296 5.828,5.1656 4.799,3.9036 C4.602,3.6616 4.308,3.5236 4.001,3.5236 C3.975,3.5236 3.947,3.5256 3.92,3.5276 C3.583,3.5526 3.282,3.7436 3.111,4.0356 C2.766,4.6266 2.584,5.3026 2.584,5.9906 C2.584,6.4556 2.666,6.9086 2.819,7.3306 C2.654,7.5176 2.56,7.7586 2.56,8.0146 C2.56,9.0356 2.944,9.9726 3.586,10.6766 C3.547,10.8526 3.553,11.0386 3.61,11.2166 C3.832,11.9126 4.238,12.5096 4.764,12.9666 C4.423,13.0436 4.069,13.0836 3.711,13.0836 C3.525,13.0836 3.338,13.0726 3.148,13.0506 C3.108,13.0446 3.068,13.0426 3.028,13.0426 C2.598,13.0426 2.207,13.3126 2.061,13.7266 C1.898,14.1776 2.07,14.6816 2.473,14.9406 C3.951,15.8866 5.66,16.3886 7.413,16.3886 C13.1,16.3886 16.517,11.8116 16.578,7.3446 C17.041,6.9506 17.447,6.4966 17.792,5.9906 C17.923,5.8186 18,5.6046 18,5.3706 C18,5.0256 17.83,4.7196 17.569,4.5316" id="Fill-1"></path>
        </g>
    </g>
</svg>