<?xml version="1.0" encoding="UTF-8" standalone="no"?>
<svg width="28px" height="28px" viewBox="0 0 28 28" version="1.1" xmlns="http://www.w3.org/2000/svg" xmlns:xlink="http://www.w3.org/1999/xlink">
    <!-- Generator: sketchtool 43.2 (39069) - http://www.bohemiancoding.com/sketch -->
    <title>external-tumblr</title>
    <desc>Created with sketchtool.</desc>
    <defs></defs>
    <g id="Web" stroke="none" stroke-width="1" fill="none" fill-rule="evenodd">
        <g id="external-tumblr" fill="#000000">
            <path d="M20.1558,24.5166 C19.3438,25.3836 17.4608,25.9726 15.7758,25.9996 L15.5908,25.9996 C9.9278,25.9996 8.6978,21.8386 8.6978,19.4086 L8.6978,12.6586 L6.4678,12.6586 C6.2098,12.6586 5.9998,12.4486 5.9998,12.1906 L5.9998,9.0016 C5.9998,8.6656 6.2128,8.3666 6.5288,8.2536 C9.4358,7.2296 10.3478,4.6936 10.4828,2.7656 C10.5198,2.2496 10.7878,1.9996 11.2358,1.9996 L14.5608,1.9996 C14.8198,1.9996 15.0288,2.2096 15.0288,2.4686 L15.0288,7.8676 L18.9208,7.8676 C19.1788,7.8676 19.3878,8.0756 19.3878,8.3326 L19.3878,12.1646 C19.3878,12.4226 19.1788,12.6316 18.9208,12.6316 L15.0098,12.6316 L15.0098,18.8746 C15.0098,20.4426 16.0438,20.8756 16.6818,20.8756 C17.2938,20.8606 17.8958,20.6746 18.1998,20.5516 C18.4228,20.4626 18.6198,20.4036 18.7968,20.4476 C18.9598,20.4886 19.0678,20.6046 19.1408,20.8156 L20.1718,23.8296 C20.2568,24.0706 20.3278,24.3326 20.1558,24.5166" id="Fill-1"></path>
        </g>
    </g>
</svg>