<?xml version="1.0" encoding="UTF-8"?>
<svg width="24px" height="24px" viewBox="0 0 24 24" version="1.1" xmlns="http://www.w3.org/2000/svg" xmlns:xlink="http://www.w3.org/1999/xlink">
    <!-- Generator: sketchtool 46.2 (44496) - http://www.bohemiancoding.com/sketch -->
    <title>external-tumblr</title>
    <desc>Created with sketchtool.</desc>
    <defs></defs>
    <g id="Web" stroke="none" stroke-width="1" fill="none" fill-rule="evenodd">
        <g id="external-tumblr" fill="#000000">
            <path d="M17.7966667,20.7641667 C17.12,21.4866667 15.5508333,21.9775 14.1466667,22 L13.9925,22 C9.27333333,22 8.24833333,18.5325 8.24833333,16.5075 L8.24833333,10.8825 L6.39,10.8825 C6.175,10.8825 6,10.7075 6,10.4925 L6,7.835 C6,7.555 6.1775,7.30583333 6.44083333,7.21166667 C8.86333333,6.35833333 9.62333333,4.245 9.73583333,2.63833333 C9.76666667,2.20833333 9.99,2 10.3633333,2 L13.1341667,2 C13.35,2 13.5241667,2.175 13.5241667,2.39083333 L13.5241667,6.89 L16.7675,6.89 C16.9825,6.89 17.1566667,7.06333333 17.1566667,7.2775 L17.1566667,10.4708333 C17.1566667,10.6858333 16.9825,10.86 16.7675,10.86 L13.5083333,10.86 L13.5083333,16.0625 C13.5083333,17.3691667 14.37,17.73 14.9016667,17.73 C15.4116667,17.7175 15.9133333,17.5625 16.1666667,17.46 C16.3525,17.3858333 16.5166667,17.3366667 16.6641667,17.3733333 C16.8,17.4075 16.89,17.5041667 16.9508333,17.68 L17.81,20.1916667 C17.8808333,20.3925 17.94,20.6108333 17.7966667,20.7641667" id="Fill-1"></path>
        </g>
    </g>
</svg>