<?xml version="1.0" encoding="UTF-8" standalone="no"?>
<svg width="28px" height="28px" viewBox="0 0 28 28" version="1.1" xmlns="http://www.w3.org/2000/svg" xmlns:xlink="http://www.w3.org/1999/xlink">
    <!-- Generator: sketchtool 43.2 (39069) - http://www.bohemiancoding.com/sketch -->
    <title>external-yahoo</title>
    <desc>Created with sketchtool.</desc>
    <defs></defs>
    <g id="Web" stroke="none" stroke-width="1" fill="none" fill-rule="evenodd">
        <g id="external-yahoo" fill-rule="nonzero" fill="#000000">
            <path d="M23,2 L23,2 L23,2 C21.8211679,2.27745665 20.850365,2.27745665 19.810219,2 C18.9087591,3.66473988 15.580292,9.14450867 13.5,12.6127168 C11.350365,9.07514451 8.78467153,4.98265896 7.18978102,2 C5.87226277,2.27745665 5.31751825,2.27745665 4,2 C6.56569343,5.88439306 10.7956204,13.3757225 12.1824818,15.8034682 L11.9744526,26 C11.9744526,26 12.8759124,25.8612717 13.5,25.8612717 C14.1934307,25.8612717 15.0255474,26 15.0255474,26 L14.8175182,15.8034682 C17.4525547,11.1560694 21.8211679,3.59537572 23,2 Z" id="Shape"></path>
        </g>
    </g>
</svg>