<?xml version="1.0" encoding="UTF-8" standalone="no"?>
<svg width="28px" height="28px" viewBox="0 0 28 28" version="1.1" xmlns="http://www.w3.org/2000/svg" xmlns:xlink="http://www.w3.org/1999/xlink">
    <!-- Generator: sketchtool 43.2 (39069) - http://www.bohemiancoding.com/sketch -->
    <title>external-outlook</title>
    <desc>Created with sketchtool.</desc>
    <defs></defs>
    <g id="Web" stroke="none" stroke-width="1" fill="none" fill-rule="evenodd">
        <g id="external-outlook" fill-rule="nonzero" fill="#000000">
            <path d="M17.0252101,7.1 L17.0252101,7 L25.1932773,7 C25.4957983,7 26,7.4 26,8 L18.8403361,12.8 L18.6386555,12.8 L17.0252101,11.8 L17.0252101,7.1 Z M17.0252101,13.5 L18.5378151,14.5 C18.7394958,14.7 19.0420168,14.5 19.0420168,14.5 C18.7394958,14.7 26,9.9 26,9.9 L26,18.5 C26,19.4 25.394958,19.8 24.6890756,19.8 L17.0252101,19.8 L17.0252101,13.5 L17.0252101,13.5 Z M2,4.7 L16.1176471,2 L16.1176471,26 L2,23.1 L2,4.7 Z M9.15966387,11.4 C9.66386555,11.4 10.0672269,11.6 10.3697479,12 C10.6722689,12.5 10.7731092,13.2 10.7731092,14 C10.7731092,14.8 10.6722689,15.4 10.3697479,15.9 C10.0672269,16.4 9.66386555,16.6 9.15966387,16.6 C8.65546218,16.6 8.25210084,16.4 7.94957983,15.9 C7.64705882,15.4 7.44537815,14.8 7.44537815,14 C7.44537815,13.2 7.64705882,12.6 7.94957983,12.1 C8.25210084,11.6 8.65546218,11.4 9.15966387,11.4 Z M11.4789916,17 C11.9831933,16.2 12.2857143,15.2 12.3865546,14 C12.3865546,12.8 12.0840336,11.8 11.4789916,11 C10.9747899,10.3 10.1680672,9.9 9.2605042,9.9 C8.25210084,9.9 7.44537815,10.3 6.84033613,11.1 C6.23529412,11.9 5.93277311,12.9 5.93277311,14.2 C5.93277311,15.4 6.23529412,16.3 6.84033613,17.1 C7.44537815,17.8 8.25210084,18.2 9.15966387,18.2 C10.0672269,18.2 10.8739496,17.8 11.4789916,17 Z" id="Combined-Shape"></path>
        </g>
    </g>
</svg>