<?xml version="1.0" encoding="UTF-8"?>
<svg width="24px" height="24px" viewBox="0 0 24 24" version="1.1" xmlns="http://www.w3.org/2000/svg" xmlns:xlink="http://www.w3.org/1999/xlink">
    <!-- Generator: sketchtool 46.2 (44496) - http://www.bohemiancoding.com/sketch -->
    <title>external-instagram</title>
    <desc>Created with sketchtool.</desc>
    <defs></defs>
    <g id="Web" stroke="none" stroke-width="1" fill="none" fill-rule="evenodd">
        <g id="external-instagram" fill="#000000">
            <path d="M20.1511333,16.0463333 C20.1078,17.0238333 19.9444667,17.5546667 19.8069667,17.9063333 C19.6253,18.3738333 19.4086333,18.7071667 19.0578,19.0571667 C18.7078,19.4088333 18.3736333,19.6263333 17.9069667,19.8071667 C17.5536333,19.9446667 17.0228,20.108 16.0461333,20.153 C14.9911333,20.1996667 14.6744667,20.2096667 12.0003,20.2096667 C9.3253,20.2096667 9.00863333,20.1996667 7.9528,20.153 C6.97613333,20.108 6.44613333,19.9446667 6.09363333,19.8071667 C5.62613333,19.6263333 5.29196667,19.4088333 4.94196667,19.0571667 C4.59196667,18.7071667 4.37446667,18.3738333 4.1928,17.9063333 C4.0553,17.5546667 3.8928,17.0238333 3.8478,16.0463333 C3.79946667,14.9896667 3.78946667,14.6746667 3.78946667,12.0005 C3.78946667,9.32633333 3.79946667,9.00883333 3.8478,7.953 C3.8928,6.97633333 4.0553,6.44633333 4.1928,6.09383333 C4.37446667,5.6255 4.59196667,5.29216667 4.94196667,4.94216667 C5.29196667,4.59133333 5.62613333,4.37466667 6.09363333,4.19216667 C6.44613333,4.0555 6.97613333,3.893 7.9528,3.848 C9.00863333,3.79966667 9.32613333,3.78966667 12.0003,3.78966667 C14.6744667,3.78966667 14.9903,3.79966667 16.0461333,3.848 C17.0228,3.893 17.5536333,4.0555 17.9069667,4.19216667 C18.3736333,4.37466667 18.7078,4.59133333 19.0578,4.94216667 C19.4086333,5.29216667 19.6253,5.6255 19.8069667,6.09383333 C19.9444667,6.44633333 20.1078,6.97633333 20.1511333,7.953 C20.2003,9.00883333 20.2094667,9.32633333 20.2094667,12.0005 C20.2094667,14.6746667 20.2003,14.9896667 20.1511333,16.0463333 M21.9394667,7.87716667 C21.8919667,6.81216667 21.7219667,6.0855 21.4744667,5.44966667 C21.2194667,4.79216667 20.8769667,4.23466667 20.3211333,3.67883333 C19.7653,3.123 19.2078,2.7805 18.5503,2.5255 C17.9136333,2.278 17.1861333,2.10883333 16.1228,2.0605 C15.0569667,2.01216667 14.7161333,2.0005 12.0003,2.0005 C9.28363333,2.0005 8.94363333,2.01216667 7.87696667,2.0605 C6.8128,2.10883333 6.08613333,2.278 5.44946667,2.5255 C4.79196667,2.7805 4.23446667,3.123 3.67863333,3.67883333 C3.12196667,4.23466667 2.7803,4.79216667 2.5253,5.44966667 C2.2778,6.0855 2.10863333,6.81216667 2.0603,7.87716667 C2.01113333,8.94383333 2.0003,9.28383333 2.0003,12.0005 C2.0003,14.7155 2.01113333,15.0563333 2.0603,16.1238333 C2.10863333,17.1871667 2.2778,17.9138333 2.5253,18.5505 C2.7803,19.2071667 3.12196667,19.7655 3.67863333,20.3213333 C4.23446667,20.8771667 4.79196667,21.2196667 5.44946667,21.4755 C6.08613333,21.723 6.8128,21.8921667 7.87696667,21.9396667 C8.94363333,21.9888333 9.28363333,22.0005 12.0003,22.0005 C14.7161333,22.0005 15.0569667,21.9888333 16.1228,21.9396667 C17.1861333,21.8921667 17.9136333,21.723 18.5503,21.4755 C19.2078,21.2196667 19.7653,20.8771667 20.3211333,20.3213333 C20.8769667,19.7655 21.2194667,19.2071667 21.4744667,18.5505 C21.7219667,17.9138333 21.8919667,17.1871667 21.9394667,16.1238333 C21.9886333,15.0563333 22.0003,14.7155 22.0003,12.0005 C22.0003,9.28383333 21.9886333,8.94383333 21.9394667,7.87716667 M18.5269667,6.67133333 C18.5269667,7.33216667 17.9903,7.86883333 17.3286333,7.86883333 C16.6669667,7.86883333 16.1311333,7.33216667 16.1311333,6.67133333 C16.1311333,6.00966667 16.6669667,5.47383333 17.3286333,5.47383333 C17.9903,5.47383333 18.5269667,6.00966667 18.5269667,6.67133333 M12.0003,15.3421667 C10.1536333,15.3421667 8.6578,13.8455 8.6578,12.0005 C8.6578,10.1538333 10.1536333,8.658 12.0003,8.658 C13.8461333,8.658 15.3428,10.1538333 15.3428,12.0005 C15.3428,13.8455 13.8461333,15.3421667 12.0003,15.3421667 M12.0003,6.868 C9.1653,6.868 6.8678,9.1655 6.8678,12.0005 C6.8678,14.8346667 9.1653,17.1313333 12.0003,17.1313333 C14.8336333,17.1313333 17.1319667,14.8346667 17.1319667,12.0005 C17.1319667,9.1655 14.8336333,6.868 12.0003,6.868" id="Fill-1"></path>
        </g>
    </g>
</svg>