<?xml version="1.0" encoding="UTF-8"?>
<svg width="28px" height="28px" viewBox="0 0 28 28" version="1.1" xmlns="http://www.w3.org/2000/svg" xmlns:xlink="http://www.w3.org/1999/xlink">
    <!-- Generator: sketchtool 43.2 (39069) - http://www.bohemiancoding.com/sketch -->
    <title>external-medium</title>
    <desc>Created with sketchtool.</desc>
    <defs></defs>
    <g id="Web" stroke="none" stroke-width="1" fill="none" fill-rule="evenodd">
        <g id="external-medium" fill-rule="nonzero" fill="#000000">
            <path d="M10,23.5942 C10,24.0991 9.72857143,24.4 9.34171429,24.4 C9.20457143,24.4 9.05257143,24.3620333 8.89257143,24.2821333 L2.66457143,21.1547 C2.29885714,20.9711 2,20.4849 2,20.0746333 L2,4.7429 C2,4.33886667 2.21714286,4.0986 2.52685714,4.0986 C2.63714286,4.0986 2.75885714,4.1292 2.88628571,4.19323333 L3.10457143,4.3026 C3.10571429,4.30316667 3.10628571,4.30316667 3.10742857,4.30373333 L9.97028571,7.74963333 C9.98285714,7.75586667 9.99085714,7.7672 10,7.77683333 L10,23.5942 Z M17.1925714,5.0659 L17.6108571,4.38363333 C17.7605714,4.13996667 18.0365714,4 18.3137143,4 C18.38,4 18.4457143,4.00963333 18.5102857,4.02606667 C18.56,4.0374 18.6114286,4.05496667 18.6645714,4.0816 L25.9045714,7.71676667 C25.9051429,7.71733333 25.9051429,7.7179 25.9057143,7.7179 L25.9125714,7.7213 C25.9171429,7.72356667 25.9177143,7.72923333 25.9217143,7.73263333 C25.9582857,7.75983333 25.9731429,7.80856667 25.9485714,7.8488 L18.7388571,19.6156333 L18.0028571,20.8169667 L13.2262857,11.5400667 L17.1925714,5.0659 Z M11.1428571,17.3773 L11.1428571,9.98626667 L16.2754286,19.9550667 L11.6588571,17.6368333 L11.1428571,17.3773 Z M26,23.5942 C26,24.0690667 25.716,24.3388 25.2982857,24.3388 C25.1114286,24.3388 24.8977143,24.2849667 24.6708571,24.1710667 L23.6388571,23.6525667 L23.6388571,23.6525667 L19.0228571,21.3343333 L26,9.94716667 L26,23.5942 Z" id="Shape"></path>
        </g>
    </g>
</svg>