<?xml version="1.0" encoding="UTF-8"?>
<svg width="24px" height="24px" viewBox="0 0 24 24" version="1.1" xmlns="http://www.w3.org/2000/svg" xmlns:xlink="http://www.w3.org/1999/xlink">
    <!-- Generator: sketchtool 43.2 (39069) - http://www.bohemiancoding.com/sketch -->
    <title>external-instagram</title>
    <desc>Created with sketchtool.</desc>
    <defs></defs>
    <g id="Web" stroke="none" stroke-width="1" fill="none" fill-rule="evenodd">
        <g id="external-instagram" fill-rule="nonzero" fill="#000000">
            <path d="M19.7777778,2 L4.22222222,2 C3,2 2,3 2,4.22222222 L2,19.7777778 C2,21.0011111 3,22 4.22222222,22 L19.7777778,22 C21,22 22,21.0011111 22,19.7777778 L22,4.22222222 C22,3 21,2 19.7777778,2 Z M11.9822222,18.1366667 C15.3811111,18.1366667 18.1355556,15.38 18.1355556,11.9822222 C18.1355556,11.6066667 18.0877778,11.2444444 18.0211111,10.8888889 L19.7777778,10.8888889 L19.7777778,18.9066667 C19.7777778,19.3311111 19.4333333,19.6733333 19.0077778,19.6733333 L4.99222222,19.6733333 C4.56666667,19.6733333 4.22222222,19.3311111 4.22222222,18.9066667 L4.22222222,10.8888889 L5.94333333,10.8888889 C5.87555556,11.2444444 5.82777778,11.6066667 5.82777778,11.9822222 C5.82777778,15.3811111 8.58444444,18.1366667 11.9822222,18.1366667 Z M8.13666667,11.9822222 C8.13666667,9.85777778 9.85888889,8.13666667 11.9833333,8.13666667 C14.1066667,8.13666667 15.83,9.85777778 15.83,11.9822222 C15.83,14.1066667 14.1066667,15.8288889 11.9833333,15.8288889 C9.85777778,15.8288889 8.13666667,14.1066667 8.13666667,11.9822222 Z M19.0077778,7.55555556 L17.2133333,7.55555556 C16.7888889,7.55555556 16.4444444,7.20888889 16.4444444,6.78666667 L16.4444444,4.99 C16.4444444,4.56555556 16.7888889,4.22222222 17.2122222,4.22222222 L19.0066667,4.22222222 C19.4333333,4.22222222 19.7777778,4.56555556 19.7777778,4.99 L19.7777778,6.78555556 C19.7777778,7.20888889 19.4333333,7.55555556 19.0077778,7.55555556 Z" id="Shape"></path>
        </g>
    </g>
</svg>