<?xml version="1.0" encoding="UTF-8"?>
<svg width="20px" height="20px" viewBox="0 0 20 20" version="1.1" xmlns="http://www.w3.org/2000/svg" xmlns:xlink="http://www.w3.org/1999/xlink">
    <!-- Generator: sketchtool 43.2 (39069) - http://www.bohemiancoding.com/sketch -->
    <title>filter--small</title>
    <desc>Created with sketchtool.</desc>
    <defs></defs>
    <g id="Web" stroke="none" stroke-width="1" fill="none" fill-rule="evenodd">
        <g id="filter--small" fill="#000000">
            <path d="M8.5,14 L1.5,14 C1.224,14 1,14.224 1,14.5 C1,14.776 1.224,15 1.5,15 L8.5,15 C8.776,15 9,14.776 9,14.5 C9,14.224 8.776,14 8.5,14 M12.5,10 L1.5,10 C1.224,10 1,10.224 1,10.5 C1,10.776 1.224,11 1.5,11 L12.5,11 C12.776,11 13,10.776 13,10.5 C13,10.224 12.776,10 12.5,10 M19,6.5 C19,6.776 18.776,7 18.5,7 L1.5,7 C1.224,7 1,6.776 1,6.5 C1,6.224 1.224,6 1.5,6 L18.5,6 C18.776,6 19,6.224 19,6.5" id="Page-1"></path>
        </g>
    </g>
</svg>