<?xml version="1.0" encoding="UTF-8"?>
<svg width="24px" height="24px" viewBox="0 0 24 24" version="1.1" xmlns="http://www.w3.org/2000/svg" xmlns:xlink="http://www.w3.org/1999/xlink">
    <!-- Generator: (null) (null) ((null)) - http://www.bohemiancoding.com/sketch -->
    <title>filter</title>
    <desc>Created with (null).</desc>
    <defs></defs>
    <g id="Web" stroke="none" stroke-width="1" fill="none" fill-rule="evenodd">
        <g id="filter" fill="#000000">
            <path d="M11.1666667,18.3333333 L2.83333333,18.3333333 C2.37333333,18.3333333 2,18.7066667 2,19.1666667 C2,19.6266667 2.37333333,20 2.83333333,20 L11.1666667,20 C11.6266667,20 12,19.6266667 12,19.1666667 C12,18.7066667 11.6266667,18.3333333 11.1666667,18.3333333 M16.1666667,11.6666667 L2.83333333,11.6666667 C2.37333333,11.6666667 2,12.04 2,12.5 C2,12.96 2.37333333,13.3333333 2.83333333,13.3333333 L16.1666667,13.3333333 C16.6266667,13.3333333 17,12.96 17,12.5 C17,12.04 16.6266667,11.6666667 16.1666667,11.6666667 M22,5.83333333 C22,6.29333333 21.6266667,6.66666667 21.1666667,6.66666667 L2.83333333,6.66666667 C2.37333333,6.66666667 2,6.29333333 2,5.83333333 C2,5.37333333 2.37333333,5 2.83333333,5 L21.1666667,5 C21.6266667,5 22,5.37333333 22,5.83333333" id="Page-1"></path>
        </g>
    </g>
</svg>