<?xml version="1.0" encoding="UTF-8"?>
<svg width="16px" height="16px" viewBox="0 0 16 16" version="1.1" xmlns="http://www.w3.org/2000/svg" xmlns:xlink="http://www.w3.org/1999/xlink">
    <!-- Generator: sketchtool 46.2 (44496) - http://www.bohemiancoding.com/sketch -->
    <title>filter--small</title>
    <desc>Created with sketchtool.</desc>
    <defs></defs>
    <g id="Web" stroke="none" stroke-width="1" fill="none" fill-rule="evenodd">
        <g id="filter--small" fill="#000000">
            <path d="M6.83333333,11.2222222 L1.38888889,11.2222222 C1.17422222,11.2222222 1,11.3964444 1,11.6111111 C1,11.8257778 1.17422222,12 1.38888889,12 L6.83333333,12 C7.048,12 7.22222222,11.8257778 7.22222222,11.6111111 C7.22222222,11.3964444 7.048,11.2222222 6.83333333,11.2222222 M9.94444444,8.11111111 L1.38888889,8.11111111 C1.17422222,8.11111111 1,8.28533333 1,8.5 C1,8.71466667 1.17422222,8.88888889 1.38888889,8.88888889 L9.94444444,8.88888889 C10.1591111,8.88888889 10.3333333,8.71466667 10.3333333,8.5 C10.3333333,8.28533333 10.1591111,8.11111111 9.94444444,8.11111111 M15,5.38888889 C15,5.60355556 14.8257778,5.77777778 14.6111111,5.77777778 L1.38888889,5.77777778 C1.17422222,5.77777778 1,5.60355556 1,5.38888889 C1,5.17422222 1.17422222,5 1.38888889,5 L14.6111111,5 C14.8257778,5 15,5.17422222 15,5.38888889" id="Page-1"></path>
        </g>
    </g>
</svg>