<?xml version="1.0" encoding="UTF-8"?>
<svg width="28px" height="28px" viewBox="0 0 28 28" version="1.1" xmlns="http://www.w3.org/2000/svg" xmlns:xlink="http://www.w3.org/1999/xlink">
    <!-- Generator: sketchtool 43.2 (39069) - http://www.bohemiancoding.com/sketch -->
    <title>filter</title>
    <desc>Created with sketchtool.</desc>
    <defs></defs>
    <g id="Web" stroke="none" stroke-width="1" fill="none" fill-rule="evenodd">
        <g id="filter" fill="#000000">
            <path d="M13,21 L3,21 C2.448,21 2,21.448 2,22 C2,22.552 2.448,23 3,23 L13,23 C13.552,23 14,22.552 14,22 C14,21.448 13.552,21 13,21 M19,13 L3,13 C2.448,13 2,13.448 2,14 C2,14.552 2.448,15 3,15 L19,15 C19.552,15 20,14.552 20,14 C20,13.448 19.552,13 19,13 M26,6 C26,6.552 25.552,7 25,7 L3,7 C2.448,7 2,6.552 2,6 C2,5.448 2.448,5 3,5 L25,5 C25.552,5 26,5.448 26,6" id="Page-1"></path>
        </g>
    </g>
</svg>