<?xml version="1.0" encoding="UTF-8"?>
<svg width="16px" height="16px" viewBox="0 0 16 16" version="1.1" xmlns="http://www.w3.org/2000/svg" xmlns:xlink="http://www.w3.org/1999/xlink">
    <!-- Generator: (null) (null) ((null)) - http://www.bohemiancoding.com/sketch -->
    <title>folder--small</title>
    <desc>Created with (null).</desc>
    <defs></defs>
    <g id="Web" stroke="none" stroke-width="1" fill="none" fill-rule="evenodd">
        <g id="folder--small" fill="#000000">
            <path d="M15.2,4.29411765 L15.2,4.59005882 L15.2,5.82352941 L15.2,6.58823529 L15.2,7.35294118 L15.2,11.9411765 C15.2,13.206 14.1232,14.2352941 12.8,14.2352941 L3.2,14.2352941 C1.8768,14.2352941 0.8,13.206 0.8,11.9411765 L0.8,6.58823529 C0.8,5.32341176 1.8768,4.29411765 3.2,4.29411765 L10,4.29411765 C10.2208,4.29411765 10.4,4.12282353 10.4,3.91176471 L10.4,3.52941176 C10.4,3.10729412 10.7592,2.76470588 11.2,2.76470588 L14.4,2.76470588 C14.8408,2.76470588 15.2,3.10729412 15.2,3.52941176 L15.2,4.29411765 Z M14.4,2 L11.2,2 C10.3168,2 9.6,2.68441176 9.6,3.52941176 L3.2,3.52941176 C1.44,3.52941176 0,4.90588235 0,6.58823529 L0,11.9411765 C0,13.6235294 1.44,15 3.2,15 L12.8,15 C14.56,15 16,13.6235294 16,11.9411765 L16,6.58823529 L16,4.29411765 L16,3.52941176 C16,2.68441176 15.2832,2 14.4,2 L14.4,2 Z" id="Page-1"></path>
        </g>
    </g>
</svg>