<?xml version="1.0" encoding="UTF-8"?>
<svg width="20px" height="20px" viewBox="0 0 20 20" version="1.1" xmlns="http://www.w3.org/2000/svg" xmlns:xlink="http://www.w3.org/1999/xlink">
    <!-- Generator: sketchtool 43.2 (39069) - http://www.bohemiancoding.com/sketch -->
    <title>folder--small</title>
    <desc>Created with sketchtool.</desc>
    <defs></defs>
    <g id="Web" stroke="none" stroke-width="1" fill="none" fill-rule="evenodd">
        <g id="folder--small" fill="#000000">
            <path d="M19,5 L19,5.387 L19,7 L19,8 L19,9 L19,15 C19,16.654 17.654,18 16,18 L4,18 C2.346,18 1,16.654 1,15 L1,8 C1,6.346 2.346,5 4,5 L12.5,5 C12.776,5 13,4.776 13,4.5 L13,4 C13,3.448 13.449,3 14,3 L18,3 C18.551,3 19,3.448 19,4 L19,5 Z M18,2 L14,2 C12.896,2 12,2.895 12,4 L4,4 C1.8,4 0,5.8 0,8 L0,15 C0,17.2 1.8,19 4,19 L16,19 C18.2,19 20,17.2 20,15 L20,8 L20,5 L20,4 C20,2.895 19.104,2 18,2 L18,2 Z" id="Page-1"></path>
        </g>
    </g>
</svg>