<?xml version="1.0" encoding="UTF-8"?>
<svg width="24px" height="24px" viewBox="0 0 24 24" version="1.1" xmlns="http://www.w3.org/2000/svg" xmlns:xlink="http://www.w3.org/1999/xlink">
    <!-- Generator: sketchtool 46.2 (44496) - http://www.bohemiancoding.com/sketch -->
    <title>globe</title>
    <desc>Created with sketchtool.</desc>
    <defs></defs>
    <g id="Web" stroke="none" stroke-width="1" fill="none" fill-rule="evenodd">
        <g id="globe" fill="#000000">
            <path d="M14.4934193,19.5683333 C15.1659193,18.445 15.8942527,16.9116667 16.3292527,15.0533333 L19.352586,15.0533333 C18.4317527,17.1541667 16.6684193,18.7975 14.4934193,19.5683333 M11.267586,20.0308333 C10.6192527,19.195 9.45841933,17.4516667 8.82591933,15.0533333 L14.6142527,15.0533333 C13.9817527,17.4516667 12.8209193,19.195 12.172586,20.0308333 C12.0217527,20.0383333 11.4184193,20.0383333 11.267586,20.0308333 M4.087586,15.0533333 L7.11091933,15.0533333 C7.54591933,16.9116667 8.27425267,18.445 8.94675267,19.5683333 C6.77091933,18.7975 5.00841933,17.1541667 4.087586,15.0533333 M8.94675267,3.87166667 C8.27425267,4.995 7.54591933,6.52833333 7.11091933,8.38666667 L4.087586,8.38666667 C5.00841933,6.28666667 6.77091933,4.6425 8.94675267,3.87166667 M12.172586,3.40916667 C12.8209193,4.245 13.9817527,5.98833333 14.6142527,8.38666667 L8.82591933,8.38666667 C9.45841933,5.98833333 10.6192527,4.245 11.267586,3.40916667 C11.4184193,3.40166667 12.0217527,3.40166667 12.172586,3.40916667 M8.38675267,11.72 C8.38675267,11.1425 8.42591933,10.5866667 8.495086,10.0533333 L14.945086,10.0533333 C15.0142527,10.5866667 15.0534193,11.1425 15.0534193,11.72 C15.0534193,12.2975 15.0142527,12.8533333 14.945086,13.3866667 L8.495086,13.3866667 C8.42591933,12.8533333 8.38675267,12.2975 8.38675267,11.72 M3.38675267,11.72 C3.38675267,11.1491667 3.445086,10.5925 3.555086,10.0533333 L6.820086,10.0533333 C6.75841933,10.59 6.720086,11.1441667 6.720086,11.72 C6.720086,12.2958333 6.75841933,12.85 6.820086,13.3866667 L3.555086,13.3866667 C3.445086,12.8483333 3.38675267,12.2908333 3.38675267,11.72 M20.0534193,11.72 C20.0534193,12.2908333 19.995086,12.8483333 19.885086,13.3866667 L16.6192527,13.3866667 C16.6809193,12.85 16.720086,12.2958333 16.720086,11.72 C16.720086,11.1441667 16.6809193,10.59 16.6192527,10.0533333 L19.885086,10.0533333 C19.995086,10.5925 20.0534193,11.1491667 20.0534193,11.72 M19.352586,8.38666667 L16.3292527,8.38666667 C15.8942527,6.52833333 15.1659193,4.995 14.4934193,3.87166667 C16.6684193,4.6425 18.4317527,6.28666667 19.352586,8.38666667 M11.720086,1.72 C6.19675267,1.72 1.720086,6.1975 1.720086,11.72 C1.720086,17.2425 6.19675267,21.72 11.720086,21.72 C17.242586,21.72 21.720086,17.2425 21.720086,11.72 C21.720086,6.1975 17.242586,1.72 11.720086,1.72" id="Fill-1"></path>
        </g>
    </g>
</svg>