<?xml version="1.0" encoding="UTF-8"?>
<svg width="20px" height="20px" viewBox="0 0 20 20" version="1.1" xmlns="http://www.w3.org/2000/svg" xmlns:xlink="http://www.w3.org/1999/xlink">
    <!-- Generator: sketchtool 46.2 (44496) - http://www.bohemiancoding.com/sketch -->
    <title>globe--small</title>
    <desc>Created with sketchtool.</desc>
    <defs></defs>
    <g id="Web" stroke="none" stroke-width="1" fill="none" fill-rule="evenodd">
        <g id="globe--small" fill="#000000">
            <path d="M11.3301,17.8799 C12.1961,16.5609 13.1771,14.9419 13.6741,12.9999 L17.4111,12.9999 C16.3821,15.5309 14.0961,17.4139 11.3301,17.8799 L11.3301,17.8799 Z M2.5891,12.9999 L6.1141,12.9999 C6.6591,14.9289 7.7171,16.6089 8.5931,17.8679 C5.8621,17.3809 3.6081,15.5079 2.5891,12.9999 L2.5891,12.9999 Z M2.2631,7.9999 L6.0941,7.9999 C5.8741,8.8829 5.7501,9.7209 5.7501,10.4999 C5.7501,11.0129 5.8101,11.5109 5.8951,11.9999 L2.2631,11.9999 C2.0981,11.3589 2.0001,10.6919 2.0001,9.9999 C2.0001,9.3089 2.0981,8.6409 2.2631,7.9999 L2.2631,7.9999 Z M8.7111,2.1129 C7.6481,3.8679 6.8711,5.4989 6.3811,6.9999 L2.5891,6.9999 C3.6221,4.4559 5.9271,2.5669 8.7111,2.1129 L8.7111,2.1129 Z M17.4111,6.9999 L13.4661,6.9999 C12.9371,5.0979 12.1101,3.3649 11.3671,2.1259 C14.1161,2.6019 16.3871,4.4809 17.4111,6.9999 L17.4111,6.9999 Z M10.0001,1.9999 C10.0411,1.9999 10.0811,2.0059 10.1221,2.0059 C10.8911,3.1509 11.8431,4.9969 12.4361,6.9999 L7.4321,6.9999 C7.9611,5.4839 8.8031,3.8139 9.9541,2.0019 C9.9691,2.0019 9.9841,1.9999 10.0001,1.9999 L10.0001,1.9999 Z M6.9161,11.9999 C6.8201,11.5099 6.7501,11.0119 6.7501,10.4999 C6.7501,9.7299 6.8841,8.8909 7.1231,7.9999 L12.6941,7.9999 C12.8831,8.8349 13.0001,9.6809 13.0001,10.4999 C13.0001,11.0229 12.9411,11.5179 12.8591,11.9999 L6.9161,11.9999 Z M10.0581,17.9969 C10.0381,17.9969 10.0191,17.9999 10.0001,17.9999 C9.9691,17.9999 9.9381,17.9959 9.9071,17.9949 C9.9051,17.9919 9.9031,17.9899 9.9011,17.9869 C9.0551,16.8009 7.8091,15.0349 7.1681,12.9999 L12.6361,12.9999 C12.1021,14.8889 11.0691,16.4689 10.1801,17.8099 C10.1361,17.8749 10.1001,17.9329 10.0581,17.9969 L10.0581,17.9969 Z M17.7371,11.9999 L13.8721,11.9999 C13.9471,11.5159 14.0001,11.0209 14.0001,10.4999 C14.0001,9.6669 13.8841,8.8259 13.7111,7.9999 L17.7371,7.9999 C17.9021,8.6409 18.0001,9.3089 18.0001,9.9999 C18.0001,10.6919 17.9021,11.3589 17.7371,11.9999 L17.7371,11.9999 Z M19.0001,9.9999 C19.0001,5.2509 15.3191,1.3699 10.6561,1.0329 C10.6491,1.0239 10.0001,0.9999 10.0001,0.9999 C10.0001,0.9999 9.3941,1.0209 9.3881,1.0309 C4.7041,1.3469 1.0001,5.2359 1.0001,9.9999 C1.0001,14.9709 5.0291,18.9999 10.0001,18.9999 C10.1231,18.9999 10.4351,19.0089 10.4411,18.9999 C15.2051,18.7689 19.0001,14.8219 19.0001,9.9999 L19.0001,9.9999 Z" id="Fill-1"></path>
        </g>
    </g>
</svg>