<?xml version="1.0" encoding="UTF-8"?>
<svg width="28px" height="28px" viewBox="0 0 28 28" version="1.1" xmlns="http://www.w3.org/2000/svg" xmlns:xlink="http://www.w3.org/1999/xlink">
    <!-- Generator: sketchtool 46.2 (44496) - http://www.bohemiancoding.com/sketch -->
    <title>globe</title>
    <desc>Created with sketchtool.</desc>
    <defs></defs>
    <g id="Web" stroke="none" stroke-width="1" fill="none" fill-rule="evenodd">
        <g id="globe" fill="#000000">
            <path d="M17.3281,23.418 C18.1351,22.07 19.0091,20.23 19.5311,18 L23.1591,18 C22.0541,20.521 19.9381,22.493 17.3281,23.418 M13.4571,23.973 C12.6791,22.97 11.2861,20.878 10.5271,18 L17.4731,18 C16.7141,20.878 15.3211,22.97 14.5431,23.973 C14.3621,23.982 13.6381,23.982 13.4571,23.973 M4.8411,18 L8.4691,18 C8.9911,20.23 9.8651,22.07 10.6721,23.418 C8.0611,22.493 5.9461,20.521 4.8411,18 M10.6721,4.582 C9.8651,5.93 8.9911,7.77 8.4691,10 L4.8411,10 C5.9461,7.48 8.0611,5.507 10.6721,4.582 M14.5431,4.027 C15.3211,5.03 16.7141,7.122 17.4731,10 L10.5271,10 C11.2861,7.122 12.6791,5.03 13.4571,4.027 C13.6381,4.018 14.3621,4.018 14.5431,4.027 M10.0001,14 C10.0001,13.307 10.0471,12.64 10.1301,12 L17.8701,12 C17.9531,12.64 18.0001,13.307 18.0001,14 C18.0001,14.693 17.9531,15.36 17.8701,16 L10.1301,16 C10.0471,15.36 10.0001,14.693 10.0001,14 M4.0001,14 C4.0001,13.315 4.0701,12.647 4.2021,12 L8.1201,12 C8.0461,12.644 8.0001,13.309 8.0001,14 C8.0001,14.691 8.0461,15.356 8.1201,16 L4.2021,16 C4.0701,15.354 4.0001,14.685 4.0001,14 M24.0001,14 C24.0001,14.685 23.9301,15.354 23.7981,16 L19.8791,16 C19.9531,15.356 20.0001,14.691 20.0001,14 C20.0001,13.309 19.9531,12.644 19.8791,12 L23.7981,12 C23.9301,12.647 24.0001,13.315 24.0001,14 M23.1591,10 L19.5311,10 C19.0091,7.77 18.1351,5.93 17.3281,4.582 C19.9381,5.507 22.0541,7.48 23.1591,10 M14.0001,2 C7.3721,2 2.0001,7.373 2.0001,14 C2.0001,20.627 7.3721,26 14.0001,26 C20.6271,26 26.0001,20.627 26.0001,14 C26.0001,7.373 20.6271,2 14.0001,2" id="Fill-1"></path>
        </g>
    </g>
</svg>