<?xml version="1.0" encoding="UTF-8"?>
<svg width="16px" height="16px" viewBox="0 0 16 16" version="1.1" xmlns="http://www.w3.org/2000/svg" xmlns:xlink="http://www.w3.org/1999/xlink">
    <!-- Generator: sketchtool 46.2 (44496) - http://www.bohemiancoding.com/sketch -->
    <title>grid--small</title>
    <desc>Created with sketchtool.</desc>
    <defs>
        <polygon id="path-1" points="0 0 6.1249125 0 6.1249125 6.125 0 6.125"></polygon>
        <polygon id="path-3" points="0 0 6.1249125 0 6.1249125 6.125 0 6.125"></polygon>
    </defs>
    <g id="Web" stroke="none" stroke-width="1" fill="none" fill-rule="evenodd">
        <g id="grid--small">
            <g id="Page-1" transform="translate(1.000000, 1.000000)">
                <g id="Group-3">
                    <mask id="mask-2" fill="white">
                        <use xlink:href="#path-1"></use>
                    </mask>
                    <g id="Clip-2"></g>
                    <path d="M5.1825375,0 L0.9422875,0 C0.4225375,0 -8.75e-05,0.42175 -8.75e-05,0.942375 L-8.75e-05,5.182625 C-8.75e-05,5.70325 0.4225375,6.125 0.9422875,6.125 L5.1825375,6.125 C5.7031625,6.125 6.1249125,5.70325 6.1249125,5.182625 L6.1249125,0.942375 C6.1249125,0.42175 5.7031625,0 5.1825375,0" id="Fill-1" fill="#000000" mask="url(#mask-2)"></path>
                </g>
                <path d="M13.0575375,0 L8.8172875,0 C8.2975375,0 7.8749125,0.42175 7.8749125,0.942375 L7.8749125,5.182625 C7.8749125,5.70325 8.2975375,6.125 8.8172875,6.125 L13.0575375,6.125 C13.5781625,6.125 13.9999125,5.70325 13.9999125,5.182625 L13.9999125,0.942375 C13.9999125,0.42175 13.5781625,0 13.0575375,0" id="Fill-4" fill="#000000"></path>
                <g id="Group-8" transform="translate(0.000000, 7.875000)">
                    <mask id="mask-4" fill="white">
                        <use xlink:href="#path-3"></use>
                    </mask>
                    <g id="Clip-7"></g>
                    <path d="M5.1825375,0 L0.9422875,0 C0.4225375,0 -8.75e-05,0.42175 -8.75e-05,0.942375 L-8.75e-05,5.182625 C-8.75e-05,5.70325 0.4225375,6.125 0.9422875,6.125 L5.1825375,6.125 C5.7031625,6.125 6.1249125,5.70325 6.1249125,5.182625 L6.1249125,0.942375 C6.1249125,0.42175 5.7031625,0 5.1825375,0" id="Fill-6" fill="#000000" mask="url(#mask-4)"></path>
                </g>
                <path d="M13.0575375,7.875 L8.8172875,7.875 C8.2975375,7.875 7.8749125,8.29675 7.8749125,8.817375 L7.8749125,13.057625 C7.8749125,13.57825 8.2975375,14 8.8172875,14 L13.0575375,14 C13.5781625,14 13.9999125,13.57825 13.9999125,13.057625 L13.9999125,8.817375 C13.9999125,8.29675 13.5781625,7.875 13.0575375,7.875" id="Fill-9" fill="#000000"></path>
            </g>
        </g>
    </g>
</svg>