<?xml version="1.0" encoding="UTF-8" standalone="no"?>
<svg width="20px" height="20px" viewBox="0 0 20 20" version="1.1" xmlns="http://www.w3.org/2000/svg" xmlns:xlink="http://www.w3.org/1999/xlink">
    <!-- Generator: sketchtool 43.2 (39069) - http://www.bohemiancoding.com/sketch -->
    <title>heart--small</title>
    <desc>Created with sketchtool.</desc>
    <defs></defs>
    <g id="Web" stroke="none" stroke-width="1" fill="none" fill-rule="evenodd">
        <g id="heart--small" fill="#000000">
            <path d="M14.7861,2 C13.3311,2 11.8661,2.574 10.7771,3.648 L10.0001,4.415 L9.2231,3.648 C8.1341,2.574 6.6681,2 5.2141,2 C4.0491,2 2.8911,2.368 1.9411,3.143 C-0.5109,5.141 -0.6399,8.729 1.5551,10.895 L7.8781,17.133 C8.4641,17.711 9.2321,18 10.0001,18 C10.7671,18 11.5361,17.711 12.1211,17.133 L18.4451,10.895 C20.6401,8.729 20.5111,5.141 18.0591,3.143 C17.1081,2.368 15.9511,2 14.7861,2" id="Fill-1"></path>
        </g>
    </g>
</svg>