<?xml version="1.0" encoding="UTF-8"?>
<svg width="16px" height="16px" viewBox="0 0 16 16" version="1.1" xmlns="http://www.w3.org/2000/svg" xmlns:xlink="http://www.w3.org/1999/xlink">
    <!-- Generator: sketchtool 52.3 (67297) - http://www.bohemiancoding.com/sketch -->
    <title>heart-outline--small</title>
    <desc>Created with sketchtool.</desc>
    <g id="Web" stroke="none" stroke-width="1" fill="none" fill-rule="evenodd">
        <g id="heart-outline--small" fill="#000000">
            <path d="M11.8289336,2 C10.6649308,2 9.49292792,2.45920112 8.6217258,3.3184032 L8.00012429,3.93200469 L7.37852278,3.3184032 C6.50732066,2.45920112 5.33451782,2 4.17131499,2 C3.23931273,2 2.31291048,2.29440072 1.55290863,2.91440222 C-0.408696135,4.5128061 -0.511896386,7.38321308 1.24410788,9.11601729 L6.30332017,14.1064294 C6.77132131,14.5688305 7.3857228,14.8000311 8.00012429,14.8000311 C8.61372578,14.8000311 9.22892728,14.5688305 9.69692841,14.1064294 L14.7561407,9.11601729 C16.512145,7.38321308 16.4089447,4.5128061 14.44734,2.91440222 C13.6865381,2.29440072 12.7609359,2 11.8289336,2 M11.8289336,2.80000194 C12.6217355,2.80000194 13.3521373,3.05360256 13.9417387,3.53440373 C14.7049406,4.15600524 15.1505417,5.02960736 15.1961418,5.9936097 C15.2417419,6.94321201 14.876141,7.87361427 14.1945393,8.5464159 L9.13532705,13.536828 C8.83212631,13.8352287 8.42892533,14.0000291 8.00012429,14.0000291 C7.57052325,14.0000291 7.16732227,13.8352287 6.86492153,13.536828 L1.80570924,8.5464159 C1.12410759,7.87361427 0.7585067,6.94321201 0.804106811,5.9936097 C0.849706922,5.02960736 1.295308,4.15600524 2.05850986,3.53440373 C2.64731129,3.05360256 3.37851306,2.80000194 4.17131499,2.80000194 C5.15131737,2.80000194 6.11531971,3.19680291 6.81692142,3.88800459 L7.43852293,4.50080607 C7.5937233,4.65440645 7.7969238,4.73200664 8.00012429,4.73200664 C8.20332478,4.73200664 8.40652528,4.65440645 8.56172566,4.50080607 L9.18332717,3.88800459 C9.88412887,3.19680291 10.8481312,2.80000194 11.8289336,2.80000194" id="Fill-1"></path>
        </g>
    </g>
</svg>