<?xml version="1.0" encoding="UTF-8"?>
<svg width="28px" height="28px" viewBox="0 0 28 28" version="1.1" xmlns="http://www.w3.org/2000/svg" xmlns:xlink="http://www.w3.org/1999/xlink">
    <!-- Generator: sketchtool 43.2 (39069) - http://www.bohemiancoding.com/sketch -->
    <title>heart-outline</title>
    <desc>Created with sketchtool.</desc>
    <defs></defs>
    <g id="Web" stroke="none" stroke-width="1" fill="none" fill-rule="evenodd">
        <g id="heart-outline" fill="#000000">
            <path d="M20.2222,3 C18.3312,3 16.4252,3.79 15.0102,5.266 L14.0002,6.32 L12.9902,5.266 C11.5752,3.79 9.6692,3 7.7782,3 C6.2642,3 4.7592,3.506 3.5232,4.571 C0.3352,7.318 0.1682,12.253 3.0212,15.23 L11.2422,23.808 C12.0042,24.603 13.0022,25 14.0002,25 C14.9982,25 15.9962,24.603 16.7582,23.808 L24.9792,15.23 C27.8322,12.253 27.6642,7.318 24.4762,4.571 C23.2412,3.506 21.7362,3 20.2222,3 M20.2222,5 C21.3262,5 22.3472,5.375 23.1712,6.086 C24.2752,7.038 24.9222,8.383 24.9932,9.874 C25.0642,11.357 24.5332,12.805 23.5352,13.846 L15.3142,22.424 C14.9582,22.795 14.4912,23 14.0002,23 C13.5092,23 13.0422,22.795 12.6862,22.424 L4.4652,13.846 C3.4672,12.805 2.9352,11.357 3.0062,9.874 C3.0772,8.383 3.7242,7.038 4.8292,6.086 C5.6542,5.375 6.6732,5 7.7782,5 C9.1672,5 10.5412,5.602 11.5462,6.65 L12.5562,7.704 C12.9332,8.098 13.4542,8.32 14.0002,8.32 C14.5452,8.32 15.0672,8.098 15.4442,7.704 L16.4542,6.65 C17.4592,5.602 18.8322,5 20.2222,5" id="Fill-1"></path>
        </g>
    </g>
</svg>