<?xml version="1.0" encoding="UTF-8"?>
<svg width="16px" height="16px" viewBox="0 0 16 16" version="1.1" xmlns="http://www.w3.org/2000/svg" xmlns:xlink="http://www.w3.org/1999/xlink">
    <!-- Generator: sketchtool 52.3 (67297) - http://www.bohemiancoding.com/sketch -->
    <title>heart--small</title>
    <desc>Created with sketchtool.</desc>
    <g id="Web" stroke="none" stroke-width="1" fill="none" fill-rule="evenodd">
        <g id="heart--small" fill="#000000">
            <path d="M11.8288093,2 C10.6648065,2 9.49280363,2.45920112 8.62160151,3.3184032 L8,3.93200469 L7.37839849,3.3184032 C6.50719637,2.45920112 5.33439352,2 4.1711907,2 C3.23918844,2 2.31278619,2.29440072 1.55278434,2.91440222 C-0.408820426,4.5128061 -0.512020677,7.38321308 1.24398359,9.11601729 L6.30239588,14.1064294 C6.77119702,14.5688305 7.38559851,14.8000311 8,14.8000311 C8.61360149,14.8000311 9.22880298,14.5688305 9.69680412,14.1064294 L14.7560164,9.11601729 C16.5120207,7.38321308 16.4088204,4.5128061 14.4472157,2.91440222 C13.6864138,2.29440072 12.7608116,2 11.8288093,2" id="Fill-1"></path>
        </g>
    </g>
</svg>