<?xml version="1.0" encoding="UTF-8"?>
<svg width="24px" height="24px" viewBox="0 0 24 24" version="1.1" xmlns="http://www.w3.org/2000/svg" xmlns:xlink="http://www.w3.org/1999/xlink">
    <!-- Generator: sketchtool 52.3 (67297) - http://www.bohemiancoding.com/sketch -->
    <title>heart-outline</title>
    <desc>Created with sketchtool.</desc>
    <g id="Web" stroke="none" stroke-width="1" fill="none" fill-rule="evenodd">
        <g id="heart-outline" fill="#000000">
            <path d="M17.2648054,3 C15.6647398,3 14.0519819,3.66845683 12.8546826,4.91737112 L12.0000733,5.809211 L11.1454639,4.91737112 C9.94816462,3.66845683 8.33540674,3 6.73534107,3 C5.45427316,3 4.18082059,3.42815083 3.13498179,4.32929834 C0.437462311,6.6536666 0.296155613,10.8294064 2.71021555,13.3483887 L9.66639737,20.6066453 C10.3111621,21.2793329 11.1556177,21.6152536 12.0000733,21.6152536 C12.8445289,21.6152536 13.6889845,21.2793329 14.3337491,20.6066453 L21.289931,13.3483887 C23.7039909,10.8294064 23.5618381,6.6536666 20.8643186,4.32929834 C19.8193259,3.42815083 18.5458734,3 17.2648054,3 M17.2648054,4.69229578 C18.1989527,4.69229578 19.0628697,5.00960124 19.7600956,5.6112124 C20.6942429,6.41674519 21.2417005,7.5548141 21.301777,8.81642061 C21.3618535,10.0712579 20.912549,11.2964801 20.0680934,12.17732 L13.1119116,19.4355767 C12.8106829,19.7494975 12.4155319,19.9229578 12.0000733,19.9229578 C11.5846146,19.9229578 11.1894636,19.7494975 10.8882349,19.4355767 L3.93205311,12.17732 C3.08759751,11.2964801 2.63744683,10.0712579 2.69752333,8.81642061 C2.75759983,7.5548141 3.30505752,6.41674519 4.24005094,5.6112124 C4.93812295,5.00960124 5.80034765,4.69229578 6.73534107,4.69229578 C7.9106405,4.69229578 9.0732477,5.20167682 9.92362633,6.08843981 L10.7782357,6.98027969 C11.0972335,7.31366195 11.5380765,7.50150679 12.0000733,7.50150679 C12.4612239,7.50150679 12.9029131,7.31366195 13.2219108,6.98027969 L14.0765202,6.08843981 C14.9268988,5.20167682 16.0886599,4.69229578 17.2648054,4.69229578" id="Fill-1"></path>
        </g>
    </g>
</svg>