<?xml version="1.0" encoding="UTF-8" standalone="no"?>
<svg width="20px" height="20px" viewBox="0 0 20 20" version="1.1" xmlns="http://www.w3.org/2000/svg" xmlns:xlink="http://www.w3.org/1999/xlink">
    <!-- Generator: sketchtool 43.2 (39069) - http://www.bohemiancoding.com/sketch -->
    <title>hide--small</title>
    <desc>Created with sketchtool.</desc>
    <defs></defs>
    <g id="Web" stroke="none" stroke-width="1" fill="none" fill-rule="evenodd">
        <g id="hide--small" fill="#000000">
            <path d="M12.684,14.2474117 L6.159,5.74141165 C4.349,6.57541165 2.876,8.05941165 2.078,9.94841165 C3.333,12.9224117 6.25,14.9034117 9.538,14.9034117 C10.647,14.9034117 11.708,14.6614117 12.684,14.2474117 L12.684,14.2474117 Z M16.94,18.2244117 C17.09,18.4354117 17.06,18.7384117 16.865,18.9084117 C16.665,19.0834117 16.37,19.0524117 16.205,18.8384117 L13.296,15.0464117 C12.145,15.5894117 10.875,15.9034117 9.538,15.9034117 C5.768,15.9034117 2.433,13.5864117 1.072,10.1324117 L1,9.94841165 L1.072,9.76741165 C1.918,7.61841165 3.53,5.91241165 5.533,4.92741165 L3.143,1.81241165 C2.979,1.59941165 3.009,1.28641165 3.209,1.11141165 C3.41,0.936411653 3.705,0.972411653 3.869,1.18541165 L16.94,18.2244117 Z M7.462,4.25741165 C8.132,4.09341165 8.824,3.99441165 9.538,3.99441165 C13.306,3.99441165 16.585,6.23541165 17.946,9.68941165 L18.018,9.87241165 L17.946,10.0564117 C17.314,11.6594117 16.244,12.9984117 14.925,14.0074117 L14.355,13.2634117 C15.494,12.4184117 16.427,11.3004117 16.997,9.94841165 C15.742,6.97641165 12.825,4.99441165 9.538,4.99441165 C9.058,4.99441165 8.591,5.04841165 8.131,5.13141165 L7.462,4.25741165 Z" id="Fill-1"></path>
        </g>
    </g>
</svg>