<?xml version="1.0" encoding="UTF-8"?>
<svg width="24px" height="24px" viewBox="0 0 24 24" version="1.1" xmlns="http://www.w3.org/2000/svg" xmlns:xlink="http://www.w3.org/1999/xlink">
    <!-- Generator: sketchtool 46.2 (44496) - http://www.bohemiancoding.com/sketch -->
    <title>home</title>
    <desc>Created with sketchtool.</desc>
    <defs></defs>
    <g id="Web" stroke="none" stroke-width="1" fill="none" fill-rule="evenodd">
        <g id="home" fill="#000000">
            <path d="M9.79083333,3.63596343 L9.79916667,3.63596343 L9.79083333,3.63596343 Z M11.1666667,13.6644562 L12.8333333,13.6644562 C14.2116667,13.6644562 15.3333333,14.7764177 15.3333333,16.1442805 L15.3333333,17.8138899 C15.3333333,19.2034251 16.455,20.3328912 17.8333333,20.3328912 C19.2116667,20.3328912 20.3333333,19.2034251 20.3333333,17.8138899 L20.3333333,10.9212287 C20.3333333,10.2035384 20.0258333,9.51919025 19.4891667,9.04406426 L13.68,4.28030097 C12.7591667,3.46508478 11.2416667,3.46425123 10.3433333,4.26029566 C10.335,4.2669641 10.3275,4.27363253 10.3191667,4.28030097 L4.48583333,9.06490311 C3.97416667,9.51919025 3.66666667,10.2035384 3.66666667,10.9212287 L3.66666667,17.8138899 C3.66666667,19.2034251 4.78833333,20.3328912 6.16666667,20.3328912 C7.545,20.3328912 8.66666667,19.2034251 8.66666667,17.8138899 L8.66666667,16.1442805 C8.66666667,14.7764177 9.78833333,13.6644562 11.1666667,13.6644562 L11.1666667,13.6644562 Z M17.8333333,22 C15.5358333,22 13.6666667,20.122002 13.6666667,17.8138899 L13.6666667,16.1442805 C13.6666667,15.6883262 13.3,15.331565 12.8333333,15.331565 L11.1666667,15.331565 C10.6991667,15.331565 10.3333333,15.6883262 10.3333333,16.1442805 L10.3333333,17.8138899 C10.3333333,20.122002 8.46416667,22 6.16666667,22 C3.86916667,22 2,20.122002 2,17.8138899 L2,10.9212287 C2,9.72674529 2.51166667,8.58811001 3.405,7.79623335 L9.25083333,3.00079499 C10.7741667,1.66210666 13.2416667,1.66710798 14.7608333,3.0116312 L20.57,7.77539449 C21.4883333,8.58727645 22,9.72674529 22,10.9212287 L22,17.8138899 C22,20.122002 20.1308333,22 17.8333333,22 L17.8333333,22 Z" id="Fill-1"></path>
        </g>
    </g>
</svg>