<?xml version="1.0" encoding="UTF-8" standalone="no"?>
<svg width="20px" height="20px" viewBox="0 0 20 20" version="1.1" xmlns="http://www.w3.org/2000/svg" xmlns:xlink="http://www.w3.org/1999/xlink">
    <!-- Generator: sketchtool 43.2 (39069) - http://www.bohemiancoding.com/sketch -->
    <title>home--small</title>
    <desc>Created with sketchtool.</desc>
    <defs></defs>
    <g id="Web" stroke="none" stroke-width="1" fill="none" fill-rule="evenodd">
        <g id="home--small" fill="#000000">
            <path d="M9.5,12.046 L10.5,12.046 C11.879,12.046 13,13.167 13,14.546 L13,15.499 C13,16.878 14.121,17.999 15.5,17.999 C16.879,17.999 18,16.878 18,15.499 L18,9.754 C18,8.797 17.602,7.871 16.906,7.213 L12.405,2.95 C11.058,1.683 8.943,1.682 7.596,2.95 L3.094,7.213 C2.398,7.871 2,8.797 2,9.754 L2,15.499 C2,16.878 3.121,17.999 4.5,17.999 C5.879,17.999 7,16.878 7,15.499 L7,14.546 C7,13.167 8.121,12.046 9.5,12.046 M15.5,18.999 C13.57,18.999 12,17.429 12,15.499 L12,14.546 C12,13.719 11.327,13.046 10.5,13.046 L9.5,13.046 C8.673,13.046 8,13.719 8,14.546 L8,15.499 C8,17.429 6.43,18.999 4.5,18.999 C2.57,18.999 1,17.429 1,15.499 L1,9.754 C1,8.524 1.513,7.333 2.406,6.486 L6.909,2.223 C8.642,0.593 11.357,0.593 13.092,2.223 L17.594,6.487 C18.487,7.333 19,8.524 19,9.754 L19,15.499 C19,17.429 17.43,18.999 15.5,18.999" id="Page-1"></path>
        </g>
    </g>
</svg>