<?xml version="1.0" encoding="UTF-8"?>
<svg width="16px" height="16px" viewBox="0 0 16 16" version="1.1" xmlns="http://www.w3.org/2000/svg" xmlns:xlink="http://www.w3.org/1999/xlink">
    <!-- Generator: sketchtool 52.3 (67297) - http://www.bohemiancoding.com/sketch -->
    <title>home--small</title>
    <desc>Created with sketchtool.</desc>
    <g id="Web" stroke="none" stroke-width="1" fill="none" fill-rule="evenodd">
        <g id="home--small" fill="#000000">
            <path d="M7.61147842,9.59181066 L8.38929941,9.59181066 C9.46191455,9.59181066 10.3338519,10.463748 10.3338519,11.5363631 L10.3338519,12.2776265 C10.3338519,13.3502417 11.2057892,14.222179 12.2784044,14.222179 C13.3510195,14.222179 14.2229568,13.3502417 14.2229568,12.2776265 L14.2229568,7.80904495 C14.2229568,7.06467026 13.9133841,6.34440802 13.3720207,5.83260181 L9.87104839,2.51675093 C8.82332352,1.53125174 7.17823212,1.53047392 6.13050725,2.51675093 L2.62875715,5.83260181 C2.08739374,6.34440802 1.77782099,7.06467026 1.77782099,7.80904495 L1.77782099,12.2776265 C1.77782099,13.3502417 2.64975832,14.222179 3.72237347,14.222179 C4.79498861,14.222179 5.66692594,13.3502417 5.66692594,12.2776265 L5.66692594,11.5363631 C5.66692594,10.463748 6.53886327,9.59181066 7.61147842,9.59181066 M12.2784044,15 C10.7772098,15 9.55603089,13.778821 9.55603089,12.2776265 L9.55603089,11.5363631 C9.55603089,10.8931052 9.03255736,10.3696316 8.38929941,10.3696316 L7.61147842,10.3696316 C6.96822046,10.3696316 6.44474693,10.8931052 6.44474693,11.5363631 L6.44474693,12.2776265 C6.44474693,13.778821 5.22356798,15 3.72237347,15 C2.22117895,15 1,13.778821 1,12.2776265 L1,7.80904495 C1,6.85232513 1.39902217,5.92594033 2.09361631,5.26712595 L5.59614423,1.95127507 C6.94410801,0.683426857 9.05589199,0.683426857 10.4054114,1.95127507 L13.9071615,5.26790377 C14.6017557,5.92594033 15.0007778,6.85232513 15.0007778,7.80904495 L15.0007778,12.2776265 C15.0007778,13.778821 13.7795989,15 12.2784044,15" id="Page-1"></path>
        </g>
    </g>
</svg>