<?xml version="1.0" encoding="UTF-8" standalone="no"?>
<svg width="28px" height="28px" viewBox="0 0 28 28" version="1.1" xmlns="http://www.w3.org/2000/svg" xmlns:xlink="http://www.w3.org/1999/xlink">
    <!-- Generator: sketchtool 43.2 (39069) - http://www.bohemiancoding.com/sketch -->
    <title>home</title>
    <desc>Created with sketchtool.</desc>
    <defs></defs>
    <g id="Web" stroke="none" stroke-width="1" fill="none" fill-rule="evenodd">
        <g id="home" fill="#000000">
            <path d="M11.349,3.96263551 L11.359,3.96263551 L11.349,3.96263551 Z M13,15.9936355 L15,15.9936355 C16.654,15.9936355 18,17.3276355 18,18.9686355 L18,20.9716355 C18,22.6386355 19.346,23.9936355 21,23.9936355 C22.654,23.9936355 24,22.6386355 24,20.9716355 L24,12.7026355 C24,11.8416355 23.631,11.0206355 22.987,10.4506355 L16.016,4.73563551 C14.911,3.75763551 13.09,3.75663551 12.012,4.71163551 C12.002,4.71963551 11.993,4.72763551 11.983,4.73563551 L4.983,10.4756355 C4.369,11.0206355 4,11.8416355 4,12.7026355 L4,20.9716355 C4,22.6386355 5.346,23.9936355 7,23.9936355 C8.654,23.9936355 10,22.6386355 10,20.9716355 L10,18.9686355 C10,17.3276355 11.346,15.9936355 13,15.9936355 L13,15.9936355 Z M21,25.9936355 C18.243,25.9936355 16,23.7406355 16,20.9716355 L16,18.9686355 C16,18.4216355 15.56,17.9936355 15,17.9936355 L13,17.9936355 C12.439,17.9936355 12,18.4216355 12,18.9686355 L12,20.9716355 C12,23.7406355 9.757,25.9936355 7,25.9936355 C4.243,25.9936355 2,23.7406355 2,20.9716355 L2,12.7026355 C2,11.2696355 2.614,9.90363551 3.686,8.95363551 L10.701,3.20063551 C12.529,1.59463551 15.49,1.60063551 17.313,3.21363551 L24.284,8.92863551 C25.386,9.90263551 26,11.2696355 26,12.7026355 L26,20.9716355 C26,23.7406355 23.757,25.9936355 21,25.9936355 L21,25.9936355 Z" id="Fill-1"></path>
        </g>
    </g>
</svg>