<?xml version="1.0" encoding="UTF-8"?>
<svg width="28px" height="28px" viewBox="0 0 28 28" version="1.1" xmlns="http://www.w3.org/2000/svg" xmlns:xlink="http://www.w3.org/1999/xlink">
    <!-- Generator: sketchtool 46.2 (44496) - http://www.bohemiancoding.com/sketch -->
    <title>info</title>
    <desc>Created with sketchtool.</desc>
    <defs></defs>
    <g id="Web" stroke="none" stroke-width="1" fill="none" fill-rule="evenodd">
        <g id="info" fill="#000000">
            <path d="M15,19 C15,19.553 14.552,20 14,20 C13.448,20 13,19.553 13,19 C13,18.447 13.448,18 14,18 C14.552,18 15,18.447 15,19 M15,9 L15,15 C15,15.552 14.552,16 14,16 C13.448,16 13,15.552 13,15 L13,9 C13,8.447 13.448,8 14,8 C14.552,8 15,8.447 15,9 M14,24 C8.486,24 4,19.514 4,14 C4,8.486 8.486,4 14,4 C19.514,4 24,8.486 24,14 C24,19.514 19.514,24 14,24 M14,2 C7.373,2 2,7.373 2,14 C2,20.627 7.373,26 14,26 C20.627,26 26,20.627 26,14 C26,7.373 20.627,2 14,2" id="Page-1" transform="translate(14.000000, 14.000000) scale(1, -1) translate(-14.000000, -14.000000) "></path>
        </g>
    </g>
</svg>