<?xml version="1.0" encoding="UTF-8"?>
<svg width="28px" height="28px" viewBox="0 0 28 28" version="1.1" xmlns="http://www.w3.org/2000/svg" xmlns:xlink="http://www.w3.org/1999/xlink">
    <!-- Generator: sketchtool 43.2 (39069) - http://www.bohemiancoding.com/sketch -->
    <title>invite</title>
    <desc>Created with sketchtool.</desc>
    <defs></defs>
    <g id="Web" stroke="none" stroke-width="1" fill="none" fill-rule="evenodd">
        <g id="invite" fill-rule="nonzero" fill="#000000">
            <path d="M15.2222222,8.94039778 L15.2222222,5 C15.2222222,4.09156827 16.3356752,3.65375461 16.9544103,4.31889749 L24.7321881,12.6800413 C25.0892712,13.0639072 25.0892706,13.6583828 24.7321866,14.0422479 L16.9544088,22.4033559 C16.335673,23.0684967 15.2222222,22.6306825 15.2222222,21.7222518 L15.2222222,17.8474115 C10.5124093,18.0631689 7.24140021,19.8453279 4.83290064,23.4701184 C4.23035159,24.3769544 2.81772551,23.8041889 3.01686996,22.7337879 C4.37030919,15.4590547 8.36352427,10.3344662 15.2222222,8.94039778 Z M17.2222222,7.54321197 L17.2222222,9.777776 C17.2222222,10.2714488 16.8619665,10.691253 16.3740141,10.7661885 C11.3363431,11.5398305 7.97837602,14.4922417 6.1510452,19.0079676 C8.7755338,16.8529006 12.0783626,15.8250314 16.2222222,15.8250314 C16.774507,15.8250314 17.2222222,16.2727467 17.2222222,16.8250314 L17.2222222,19.1790478 L22.6342293,13.3611424 L17.2222222,7.54321197 Z" id="Shape"></path>
        </g>
    </g>
</svg>