<?xml version="1.0" encoding="UTF-8"?>
<svg width="20px" height="20px" viewBox="0 0 20 20" version="1.1" xmlns="http://www.w3.org/2000/svg" xmlns:xlink="http://www.w3.org/1999/xlink">
    <!-- Generator: sketchtool 46.2 (44496) - http://www.bohemiancoding.com/sketch -->
    <title>invite--small</title>
    <desc>Created with sketchtool.</desc>
    <defs></defs>
    <g id="Web" stroke="none" stroke-width="1" fill="none" fill-rule="evenodd">
        <g id="invite--small" fill-rule="nonzero" fill="#000000">
            <path d="M11.0799086,2.57253398 C11.0799086,2.0534709 11.7161174,1.80331132 12.0696526,2.18336311 L17.8469766,8.39401074 C18.0510081,8.61334545 18.0510077,8.95301911 17.8469758,9.17235338 L12.0696518,15.3829744 C11.7161162,15.763025 11.0799086,15.5128651 11.0799086,14.9938026 L11.0799086,11.9371811 C7.4321506,12.0624547 4.89935441,13.4117853 3.04854608,16.1972508 C2.70425938,16.7154021 1.89710787,16.3881333 2.01089577,15.7765236 C3.01350154,10.3875195 5.97764473,6.61985766 11.0799086,5.64033115 L11.0799086,2.57253398 Z M12.222676,4.02568384 L12.222676,6.12146028 C12.222676,6.40353688 12.0168317,6.64340612 11.7380237,6.68622305 C7.69335448,7.30736845 5.08032301,9.78974886 3.76875953,13.5597932 C5.76438413,11.6772119 8.33661145,10.7847695 11.6512923,10.7847695 C11.9668588,10.7847695 12.222676,11.0405867 12.222676,11.3561532 L12.222676,13.5406573 L16.6482372,8.78318078 L12.222676,4.02568384 Z" id="Shape"></path>
        </g>
    </g>
</svg>