<?xml version="1.0" encoding="UTF-8"?>
<svg width="24px" height="24px" viewBox="0 0 24 24" version="1.1" xmlns="http://www.w3.org/2000/svg" xmlns:xlink="http://www.w3.org/1999/xlink">
    <!-- Generator: (null) (null) ((null)) - http://www.bohemiancoding.com/sketch -->
    <title>invite</title>
    <desc>Created with (null).</desc>
    <defs></defs>
    <g id="Web" stroke="none" stroke-width="1" fill="none" fill-rule="evenodd">
        <g id="invite" fill="#000000" fill-rule="nonzero">
            <path d="M13.1119996,7.96926873 L13.1119996,4.80472052 C13.1119996,4.0751556 14.1241283,3.72354581 14.6865586,4.25772454 L21.7565589,10.9725905 C22.0811475,11.2808746 22.081147,11.7583002 21.7565576,12.0665837 L14.6865573,18.7814208 C14.1241264,19.3155979 13.1119996,18.9639876 13.1119996,18.2344236 L13.1119996,15.1225248 C8.83077938,15.2958004 5.85743199,16.7270589 3.66810577,19.6381417 C3.12038865,20.3664251 1.83631149,19.906435 2.0173338,19.0467919 C3.24761012,13.2044265 6.87744281,9.08885032 13.1119996,7.96926873 Z M14.9299996,6.84718358 L14.9299996,8.64177031 C14.9299996,9.0382408 14.6025271,9.37538708 14.1589784,9.43556807 C9.5797353,10.0568829 6.52734303,12.4279754 4.86629923,16.0545718 C7.25195949,14.3238294 10.254231,13.4983438 14.0209996,13.4983438 C14.5230265,13.4983438 14.9299996,13.8579056 14.9299996,14.3014475 L14.9299996,16.1919669 L19.8495143,11.5195853 L14.9299996,6.84718358 Z" id="Shape"></path>
        </g>
    </g>
</svg>