<?xml version="1.0" encoding="UTF-8"?>
<svg width="28px" height="28px" viewBox="0 0 28 28" version="1.1" xmlns="http://www.w3.org/2000/svg" xmlns:xlink="http://www.w3.org/1999/xlink">
    <!-- Generator: sketchtool 46.2 (44496) - http://www.bohemiancoding.com/sketch -->
    <title>launch-new-window</title>
    <desc>Created with sketchtool.</desc>
    <defs></defs>
    <g id="Web" stroke="none" stroke-width="1" fill="none" fill-rule="evenodd">
        <g id="launch-new-window" fill="#000000">
            <path d="M25,17 C24.448,17 24,17.447 24,18 C24,21.309 21.309,24 18,24 L10,24 C6.691,24 4,21.309 4,18 L4,10 C4,6.691 6.691,4 10,4 C10.552,4 11,3.553 11,3 C11,2.447 10.552,2 10,2 C5.582,2 2,5.582 2,10 L2,18 C2,22.418 5.582,26 10,26 L18,26 C22.418,26 26,22.418 26,18 C26,17.447 25.552,17 25,17 M13,3 C13,2.448 13.447,2.001 14,2 L24.997,2.002 C25.128,2 25.259,2.027 25.383,2.078 C25.626,2.18 25.822,2.375 25.923,2.618 C25.974,2.742 26,2.872 26,3.003 L26,14 C26,14.276 25.888,14.526 25.707,14.707 C25.526,14.889 25.276,15 25,15 C24.447,15 24,14.553 24,14 L24,5.415 L10.151,19.264 C9.76,19.655 9.128,19.654 8.737,19.264 C8.346,18.873 8.346,18.24 8.737,17.85 L22.586,4 L14,4 C13.447,4 13,3.553 13,3" id="Page-1"></path>
        </g>
    </g>
</svg>