<?xml version="1.0" encoding="UTF-8"?>
<svg width="24px" height="24px" viewBox="0 0 24 24" version="1.1" xmlns="http://www.w3.org/2000/svg" xmlns:xlink="http://www.w3.org/1999/xlink">
    <!-- Generator: (null) (null) ((null)) - http://www.bohemiancoding.com/sketch -->
    <title>launch-new-window</title>
    <desc>Created with (null).</desc>
    <defs></defs>
    <g id="Web" stroke="none" stroke-width="1" fill="none" fill-rule="evenodd">
        <g id="launch-new-window" fill="#000000">
            <path d="M21.1666667,14.5 C20.7066667,14.5 20.3333333,14.8725 20.3333333,15.3333333 C20.3333333,18.0908333 18.0908333,20.3333333 15.3333333,20.3333333 L8.66666667,20.3333333 C5.90916667,20.3333333 3.66666667,18.0908333 3.66666667,15.3333333 L3.66666667,8.66666667 C3.66666667,5.90916667 5.90916667,3.66666667 8.66666667,3.66666667 C9.12666667,3.66666667 9.5,3.29416667 9.5,2.83333333 C9.5,2.3725 9.12666667,2 8.66666667,2 C4.985,2 2,4.985 2,8.66666667 L2,15.3333333 C2,19.015 4.985,22 8.66666667,22 L15.3333333,22 C19.015,22 22,19.015 22,15.3333333 C22,14.8725 21.6266667,14.5 21.1666667,14.5 M11.1666667,2.83333333 C11.1666667,2.37333333 11.5391667,2.00083333 12,2 L21.1641667,2.00166667 C21.2733333,2 21.3825,2.0225 21.4858333,2.065 C21.6883333,2.15 21.8516667,2.3125 21.9358333,2.515 C21.9783333,2.61833333 22,2.72666667 22,2.83583333 L22,12 C22,12.23 21.9066667,12.4383333 21.7558333,12.5891667 C21.605,12.7408333 21.3966667,12.8333333 21.1666667,12.8333333 C20.7058333,12.8333333 20.3333333,12.4608333 20.3333333,12 L20.3333333,4.84583333 L8.7925,16.3866667 C8.46666667,16.7125 7.94,16.7116667 7.61416667,16.3866667 C7.28833333,16.0608333 7.28833333,15.5333333 7.61416667,15.2083333 L19.155,3.66666667 L12,3.66666667 C11.5391667,3.66666667 11.1666667,3.29416667 11.1666667,2.83333333" id="Page-1"></path>
        </g>
    </g>
</svg>