<?xml version="1.0" encoding="UTF-8"?>
<svg width="16px" height="16px" viewBox="0 0 16 16" version="1.1" xmlns="http://www.w3.org/2000/svg" xmlns:xlink="http://www.w3.org/1999/xlink">
    <!-- Generator: sketchtool 52.3 (67297) - http://www.bohemiancoding.com/sketch -->
    <title>link--small</title>
    <desc>Created with sketchtool.</desc>
    <g id="Web" stroke="none" stroke-width="1" fill="none" fill-rule="evenodd">
        <g id="link--small" fill="#000000" fill-rule="nonzero">
            <path d="M2.79487965,9.35790377 C1.73505476,10.4177402 1.73503524,12.1453332 2.79485037,13.2051536 C3.85465045,14.264958 5.5822731,14.264942 6.64210327,13.2051216 L8.90521223,10.9420175 C9.91904964,9.92817254 9.96783021,8.30432438 9.03961169,7.23619542 C8.92668755,7.10618303 8.75289139,7.04643211 8.58389127,7.07951927 C8.41489116,7.11260642 8.27645621,7.23348653 8.22089342,7.3964856 C8.16533063,7.55948467 8.2011122,7.73974863 8.31471825,7.86916559 C8.91953104,8.56515081 8.89144615,9.59794282 8.2262917,10.263091 L5.96317842,12.5261952 C5.26773649,13.2216363 4.16921042,13.2216523 3.47378385,12.5262272 C2.77835264,11.8307861 2.7783592,10.7322553 3.47380178,10.0368302 L5.73691025,7.77371006 C5.86106171,7.65301686 5.91061195,7.47482678 5.86658762,7.30737081 C5.82256329,7.13991483 5.69178491,7.00913627 5.524329,6.9651117 C5.3568731,6.92108714 5.17868294,6.97063712 5.05798957,7.09478841 L2.79487965,9.35790377 L2.79487965,9.35790377 Z M7.09478859,5.05798987 C6.0809507,6.0718284 6.03216357,7.69566536 6.96039393,8.76382313 C7.13518382,8.9639934 7.43915158,8.9845654 7.63932494,8.80977197 C7.83949829,8.63497855 7.86007566,8.33101042 7.68528577,8.13084015 C7.08047138,7.43485493 7.10855547,6.40206612 7.77370912,5.73690991 L10.036819,3.47380096 C10.7322597,2.77835822 11.8307894,2.77835022 12.5262218,3.47378335 C13.2216522,4.16921168 13.2216429,5.26774399 12.526196,5.96317552 L10.2630882,8.22629568 C10.139033,8.34700986 10.0895566,8.52515295 10.1335935,8.69254934 C10.1776304,8.85994572 10.3083628,8.99067836 10.4757591,9.03471569 C10.6431553,9.07875302 10.8212985,9.02927698 10.942013,8.90522213 L13.205122,6.64210677 C14.2649501,5.58227996 14.2649579,3.85465331 13.2051541,2.7948489 C12.1453435,1.7350381 10.417725,1.7350525 9.35789851,2.79487931 L7.09478859,5.05798987 L7.09478859,5.05798987 Z" id="Shape-Copy-4"></path>
        </g>
    </g>
</svg>