<?xml version="1.0" encoding="UTF-8"?>
<svg width="16px" height="16px" viewBox="0 0 16 16" version="1.1" xmlns="http://www.w3.org/2000/svg" xmlns:xlink="http://www.w3.org/1999/xlink">
    <!-- Generator: (null) (null) ((null)) - http://www.bohemiancoding.com/sketch -->
    <title>list--small</title>
    <desc>Created with (null).</desc>
    <defs></defs>
    <g id="Web" stroke="none" stroke-width="1" fill="none" fill-rule="evenodd">
        <g id="list--small" fill="#000000">
            <path d="M15,8.25 C15,8.4915 14.804,8.6875 14.5625,8.6875 L1.4375,8.6875 C1.196,8.6875 1,8.4915 1,8.25 C1,8.0085 1.196,7.8125 1.4375,7.8125 L14.5625,7.8125 C14.804,7.8125 15,8.0085 15,8.25 M14.5625,12.625 L1.4375,12.625 C1.196,12.625 1,12.821 1,13.0625 C1,13.304 1.196,13.5 1.4375,13.5 L14.5625,13.5 C14.804,13.5 15,13.304 15,13.0625 C15,12.821 14.804,12.625 14.5625,12.625 M1.4375,3.875 L14.5625,3.875 C14.804,3.875 15,3.679 15,3.4375 C15,3.196 14.804,3 14.5625,3 L1.4375,3 C1.196,3 1,3.196 1,3.4375 C1,3.679 1.196,3.875 1.4375,3.875" id="Page-1"></path>
        </g>
    </g>
</svg>