<?xml version="1.0" encoding="UTF-8"?>
<svg width="24px" height="24px" viewBox="0 0 24 24" version="1.1" xmlns="http://www.w3.org/2000/svg" xmlns:xlink="http://www.w3.org/1999/xlink">
    <!-- Generator: (null) (null) ((null)) - http://www.bohemiancoding.com/sketch -->
    <title>location-pin</title>
    <desc>Created with (null).</desc>
    <defs></defs>
    <g id="Web" stroke="none" stroke-width="1" fill="none" fill-rule="evenodd">
        <g id="location-pin" fill="#000000">
            <path d="M12,10.2857143 C11.0073,10.2857143 10.2,9.51685714 10.2,8.57142857 C10.2,7.626 11.0073,6.85714286 12,6.85714286 C12.9927,6.85714286 13.8,7.626 13.8,8.57142857 C13.8,9.51685714 12.9927,10.2857143 12,10.2857143 M12,5.14285714 C10.0146,5.14285714 8.4,6.68057143 8.4,8.57142857 C8.4,10.4622857 10.0146,12 12,12 C13.9854,12 15.6,10.4622857 15.6,8.57142857 C15.6,6.68057143 13.9854,5.14285714 12,5.14285714 M14.2878,21.066 C13.7928,21.8297143 12.9378,22.2857143 12,22.2857143 C11.0631,22.2857143 10.2072,21.8297143 9.7131,21.066 C6.5442,16.1768571 4.8,12.1928571 4.8,9.84857143 C4.8,4.56514286 8.5098,1.71428571 12,1.71428571 C15.4902,1.71428571 19.2,4.56514286 19.2,9.84857143 C19.2,12.1937143 17.4558,16.1777143 14.2878,21.066 M12,0 C7.5765,0 3,3.684 3,9.84857143 C3,12.5837143 4.7433,16.6602857 8.1804,21.966 C9.0057,23.2397143 10.4349,24 12,24 C13.566,24 14.9943,23.2397143 15.8187,21.966 C18.1821,18.3197143 21,13.2565714 21,9.84857143 C21,3.684 16.4244,0 12,0" id="Page-1"></path>
        </g>
    </g>
</svg>