<?xml version="1.0" encoding="UTF-8" standalone="no"?>
<svg width="28px" height="28px" viewBox="0 0 28 28" version="1.1" xmlns="http://www.w3.org/2000/svg" xmlns:xlink="http://www.w3.org/1999/xlink">
    <!-- Generator: sketchtool 43.2 (39069) - http://www.bohemiancoding.com/sketch -->
    <title>location-pin-slashed</title>
    <desc>Created with sketchtool.</desc>
    <defs></defs>
    <g id="Web" stroke="none" stroke-width="1" fill="none" fill-rule="evenodd">
        <g id="location-pin-slashed" fill="#000000">
            <path d="M16,10 C16,8.896 15.103,8 14,8 C13.484,8 13.019,8.201 12.664,8.522 L11.407,6.979 C12.107,6.378 13.006,6 14,6 C16.206,6 18,7.794 18,10 C18,11.285 17.38,12.418 16.436,13.15 L15.179,11.607 C15.674,11.243 16,10.661 16,10 L16,10 Z M8.987,4.011 L7.746,2.488 C9.548,0.877 11.789,0 14,0 C18.916,0 24,4.298 24,11.49 C24,13.757 22.981,16.651 21.619,19.51 L20.207,17.777 C21.368,15.186 22,13.027 22,11.49 C22,5.326 17.878,2 14,2 C12.242,2 10.438,2.689 8.987,4.011 L8.987,4.011 Z M16.542,24.577 C15.992,25.468 15.042,26 14,26 C12.959,26 12.008,25.468 11.459,24.577 C7.938,18.873 6,14.225 6,11.49 C6,9.877 6.289,8.466 6.777,7.253 L18.383,21.409 C17.829,22.422 17.223,23.475 16.542,24.577 L16.542,24.577 Z M20.705,21.334 C20.708,21.327 20.711,21.321 20.715,21.314 L19.327,19.622 C19.325,19.627 19.322,19.631 19.32,19.635 L5.774,3.014 C5.424,2.586 4.794,2.431 4.367,2.779 C3.939,3.131 3.876,3.715 4.226,4.142 L5.382,5.551 C4.52,7.208 4,9.2 4,11.49 C4,14.681 5.937,19.438 9.756,25.627 C10.673,27.113 12.261,28 14,28 C15.74,28 17.327,27.113 18.243,25.627 C18.736,24.828 19.246,23.967 19.75,23.076 L22.226,26.096 C22.576,26.522 23.207,26.587 23.633,26.236 C23.986,25.947 24.075,25.658 23.904,25.26 L20.705,21.334 Z" id="Fill-1"></path>
        </g>
    </g>
</svg>