<?xml version="1.0" encoding="UTF-8"?>
<svg width="24px" height="24px" viewBox="0 0 24 24" version="1.1" xmlns="http://www.w3.org/2000/svg" xmlns:xlink="http://www.w3.org/1999/xlink">
    <!-- Generator: sketchtool 52.3 (67297) - http://www.bohemiancoding.com/sketch -->
    <title>location-pin-filled</title>
    <desc>Created with sketchtool.</desc>
    <g id="Web" stroke="none" stroke-width="1" fill="none" fill-rule="evenodd">
        <g id="location-pin-filled" fill="#000000">
            <path d="M12,5.14285714 C10.0146,5.14285714 8.4,6.68057143 8.4,8.57142857 C8.4,10.4622857 10.0146,12 12,12 C13.9854,12 15.6,10.4622857 15.6,8.57142857 C15.6,6.68057143 13.9854,5.14285714 12,5.14285714 M12,0 C7.5765,0 3,3.684 3,9.84857143 C3,12.5837143 4.7433,16.6602857 8.1804,21.966 C9.0057,23.2397143 10.4349,24 12,24 C13.566,24 14.9943,23.2397143 15.8187,21.966 C18.1821,18.3197143 21,13.2565714 21,9.84857143 C21,3.684 16.4244,0 12,0" id="Page-1"></path>
        </g>
    </g>
</svg>