<?xml version="1.0" encoding="UTF-8" standalone="no"?>
<svg width="28px" height="28px" viewBox="0 0 28 28" version="1.1" xmlns="http://www.w3.org/2000/svg" xmlns:xlink="http://www.w3.org/1999/xlink">
    <!-- Generator: sketchtool 43.2 (39069) - http://www.bohemiancoding.com/sketch -->
    <title>location-services</title>
    <desc>Created with sketchtool.</desc>
    <defs></defs>
    <g id="Web" stroke="none" stroke-width="1" fill="none" fill-rule="evenodd">
        <g id="location-services" fill="#000000">
            <path d="M24,2 C22.844,2 7.115,8.52 6,9 C3.806,9.944 2,10.031 2,12 C2,13 2.938,14 4,14 C4.003,13.999 4.893,14 6.078,14 L12,14 C13.102,14 13.995,14.892 13.999,15.992 C14,18.907 14.002,23.993 14,24 C14,25 14.937,26 16,26 C18.031,26 19.417,20.666 20.5,18 C20.993,16.788 26,5.313 26,4 C26,2.687 25.156,2 24,2 L24,2 Z M23.966,4 L16,24 L16,15.985 C16,13.788 14.197,12 12,12 L4,12 L23.966,4 Z" id="Page-1"></path>
        </g>
    </g>
</svg>