<?xml version="1.0" encoding="UTF-8" standalone="no"?>
<svg width="20px" height="20px" viewBox="0 0 20 20" version="1.1" xmlns="http://www.w3.org/2000/svg" xmlns:xlink="http://www.w3.org/1999/xlink">
    <!-- Generator: sketchtool 43.2 (39069) - http://www.bohemiancoding.com/sketch -->
    <title>location-services--small</title>
    <desc>Created with sketchtool.</desc>
    <defs></defs>
    <g id="Web" stroke="none" stroke-width="1" fill="none" fill-rule="evenodd">
        <g id="location-services--small" fill="#000000">
            <path d="M18.0000015,1 C17.3980015,1 10.2660015,3.891 6.00000154,6 C1.73400154,8.109 1.00000154,8.031 1.00000154,9.001 C0.999001544,9.554 1.48400154,10.002 2.01500154,10.002 C2.02100154,10 6.86600154,10 9.00000154,10 C9.55100154,10 9.99800154,10.446 10.0000015,10.997 C10.0000015,13.133 10.0010015,17.995 10.0000015,18 C10.0010015,18.53 10.4460015,19 10.9980015,19 L11.0000015,19 L11.0000015,19 C11.9840015,19 12.7920015,16.645 13.5000015,15 C13.8600015,14.163 19.0000015,2.367 19.0000015,2 C19.0000015,1.435 18.5390015,1 18.0000015,1 M10.9890015,18 L11.0000015,10.993 C10.9960015,9.895 10.0990015,9 9.00000154,9 C4.26700154,9 2.07300154,9.018 2.07300154,9.018 L18.0000015,2" id="Fill-1"></path>
        </g>
    </g>
</svg>