<?xml version="1.0" encoding="UTF-8"?>
<svg width="16px" height="16px" viewBox="0 0 16 16" version="1.1" xmlns="http://www.w3.org/2000/svg" xmlns:xlink="http://www.w3.org/1999/xlink">
    <!-- Generator: (null) (null) ((null)) - http://www.bohemiancoding.com/sketch -->
    <title>location-services--small</title>
    <desc>Created with (null).</desc>
    <defs></defs>
    <g id="Web" stroke="none" stroke-width="1" fill="none" fill-rule="evenodd">
        <g id="location-services--small" fill="#000000">
            <path d="M14.2222223,1 C13.7540001,1 8.20688947,3.24855536 4.88888976,4.88888856 C1.57089004,6.52922175 1.0000012,6.46855509 1.0000012,7.22299947 C0.999223423,7.65311054 1.37644561,8.00155496 1.78944558,8.00155496 C1.79411224,7.9999994 5.56244525,7.9999994 7.22222289,7.9999994 C7.65077841,7.9999994 7.99844504,8.34688826 8.0000006,8.77544378 C8.0000006,10.436777 8.00077838,14.2183322 8.0000006,14.2222211 C8.00077838,14.6344433 8.34688946,14.9999988 8.77622276,14.9999988 L8.77777831,14.9999988 L8.77777831,14.9999988 C9.54311158,14.9999988 10.171556,13.1683323 10.7222226,11.888888 C11.0022226,11.237888 15,2.06322213 15,1.77777771 C15,1.3383333 14.6414445,1 14.2222223,1 M8.76922276,14.2222211 L8.77777831,8.77233267 C8.7746672,7.91833274 8.07700059,7.22222169 7.22222289,7.22222169 C3.54100098,7.22222169 1.83455668,7.23622169 1.83455668,7.23622169 L14.2222223,1.77777771" id="Fill-1"></path>
        </g>
    </g>
</svg>