<?xml version="1.0" encoding="UTF-8"?>
<svg width="20px" height="20px" viewBox="0 0 20 20" version="1.1" xmlns="http://www.w3.org/2000/svg" xmlns:xlink="http://www.w3.org/1999/xlink">
    <!-- Generator: sketchtool 46.2 (44496) - http://www.bohemiancoding.com/sketch -->
    <title>location-pin-slashed--small</title>
    <desc>Created with sketchtool.</desc>
    <defs></defs>
    <g id="Web" stroke="none" stroke-width="1" fill="none" fill-rule="evenodd">
        <g id="location-pin-slashed--small" fill="#000000">
            <path d="M11,8.5071 C11,7.9561 10.552,7.5071 10,7.5071 C9.654,7.5071 9.363,7.6951 9.184,7.9621 L8.551,7.1371 C8.916,6.7511 9.428,6.5071 10,6.5071 C11.103,6.5071 12,7.4041 12,8.5071 C12,9.2661 11.57,9.9201 10.945,10.2591 L10.319,9.4431 C10.713,9.3081 11,8.9441 11,8.5071 L11,8.5071 Z M5.283,2.8771 L4.693,2.1091 C6.181,0.7461 8.104,0.0001 10,0.0001 C13.933,0.0001 18,3.1821 18,8.5061 C18,10.3341 17.045,12.7841 15.188,15.7891 L14.538,14.9421 C16.151,12.2661 17,10.0681 17,8.5061 C17,3.6311 13.394,1.0001 10,1.0001 C8.326,1.0001 6.602,1.6431 5.283,2.8771 L5.283,2.8771 Z M12.847,17.5281 C12.188,18.4641 11.15,19.0001 10,19.0001 C8.85,19.0001 7.812,18.4641 7.153,17.5281 C4.437,13.6661 3,10.5461 3,8.5061 C3,6.8721 3.413,5.4991 4.08,4.3861 L13.467,16.6211 C13.269,16.9181 13.064,17.2201 12.847,17.5281 L12.847,17.5281 Z M2.832,1.1861 C2.668,0.9731 2.373,0.9371 2.172,1.1111 C1.972,1.2861 1.942,1.6001 2.106,1.8131 L3.447,3.5611 C2.556,4.8871 2,6.5491 2,8.5061 C2,10.7851 3.459,14.0141 6.335,18.1031 C7.184,19.3091 8.52,20.0001 10,20.0001 C11.48,20.0001 12.816,19.3091 13.665,18.1031 C13.821,17.8811 13.958,17.6701 14.105,17.4531 L15.168,18.8381 C15.333,19.0531 15.628,19.0831 15.828,18.9081 C16.023,18.7381 16.053,18.4361 15.903,18.2251 L2.832,1.1861 Z" id="Fill-1"></path>
        </g>
    </g>
</svg>