<?xml version="1.0" encoding="UTF-8" standalone="no"?>
<svg width="20px" height="20px" viewBox="0 0 20 20" version="1.1" xmlns="http://www.w3.org/2000/svg" xmlns:xlink="http://www.w3.org/1999/xlink">
    <!-- Generator: sketchtool 43.2 (39069) - http://www.bohemiancoding.com/sketch -->
    <title>location-pin--small</title>
    <desc>Created with sketchtool.</desc>
    <defs></defs>
    <g id="Web" stroke="none" stroke-width="1" fill="none" fill-rule="evenodd">
        <g id="location-pin--small" fill="#000000">
            <path d="M10,9.5068 C9.448,9.5068 9,9.0578 9,8.5068 C9,7.9558 9.448,7.5068 10,7.5068 C10.552,7.5068 11,7.9558 11,8.5068 C11,9.0578 10.552,9.5068 10,9.5068 M10,6.5068 C8.897,6.5068 8,7.4038 8,8.5068 C8,9.6098 8.897,10.5068 10,10.5068 C11.103,10.5068 12,9.6098 12,8.5068 C12,7.4038 11.103,6.5068 10,6.5068 M12.847,17.5278 C12.188,18.4638 11.15,18.9998 10,18.9998 C8.85,18.9998 7.812,18.4638 7.153,17.5278 C4.437,13.6658 3,10.5458 3,8.5058 C3,3.6308 6.606,0.9998 10,0.9998 C13.394,0.9998 17,3.6308 17,8.5058 C17,10.5458 15.563,13.6658 12.847,17.5278 M10,-0.0002 C6.067,-0.0002 2,3.1818 2,8.5058 C2,10.7848 3.459,14.0138 6.335,18.1028 C7.184,19.3088 8.52,19.9998 10,19.9998 C11.48,19.9998 12.816,19.3088 13.665,18.1028 C16.541,14.0138 18,10.7848 18,8.5058 C18,3.1818 13.933,-0.0002 10,-0.0002" id="Fill-1"></path>
        </g>
    </g>
</svg>