<?xml version="1.0" encoding="UTF-8"?>
<svg width="24px" height="24px" viewBox="0 0 24 24" version="1.1" xmlns="http://www.w3.org/2000/svg" xmlns:xlink="http://www.w3.org/1999/xlink">
    <!-- Generator: sketchtool 46.2 (44496) - http://www.bohemiancoding.com/sketch -->
    <title>location-services</title>
    <desc>Created with sketchtool.</desc>
    <defs></defs>
    <g id="Web" stroke="none" stroke-width="1" fill="none" fill-rule="evenodd">
        <g id="location-services" fill="#000000">
            <path d="M20.3333333,2 C19.37,2 6.2625,7.43333333 5.33333333,7.83333333 C3.505,8.62 2,8.6925 2,10.3333333 C2,11.1666667 2.78166667,12 3.66666667,12 C3.66916667,11.9991667 4.41083333,12 5.39833333,12 L10.3333333,12 C11.2516667,12 11.9958333,12.7433333 11.9991667,13.66 C12,16.0891667 12.0016667,20.3275 12,20.3333333 C12,21.1666667 12.7808333,22 13.6666667,22 C15.3591667,22 16.5141667,17.555 17.4166667,15.3333333 C17.8275,14.3233333 22,4.76083333 22,3.66666667 C22,2.5725 21.2966667,2 20.3333333,2 L20.3333333,2 Z M20.305,3.66666667 L13.6666667,20.3333333 L13.6666667,13.6541667 C13.6666667,11.8233333 12.1641667,10.3333333 10.3333333,10.3333333 L3.66666667,10.3333333 L20.305,3.66666667 Z" id="Page-1"></path>
        </g>
    </g>
</svg>