<?xml version="1.0" encoding="UTF-8"?>
<svg width="24px" height="24px" viewBox="0 0 24 24" version="1.1" xmlns="http://www.w3.org/2000/svg" xmlns:xlink="http://www.w3.org/1999/xlink">
    <!-- Generator: sketchtool 46.2 (44496) - http://www.bohemiancoding.com/sketch -->
    <title>location-pin-slashed</title>
    <desc>Created with sketchtool.</desc>
    <defs></defs>
    <g id="Web" stroke="none" stroke-width="1" fill="none" fill-rule="evenodd">
        <g id="location-pin-slashed" fill="#000000">
            <path d="M13.8000905,8.57142857 C13.8000905,7.62514286 12.9928006,6.85714286 12.0001131,6.85714286 C11.5357189,6.85714286 11.1172242,7.02942857 10.7977282,7.30457143 L9.66644243,5.982 C10.2964345,5.46685714 11.1055243,5.14285714 12.0001131,5.14285714 C13.9854882,5.14285714 15.6000679,6.68057143 15.6000679,8.57142857 C15.6000679,9.67285714 15.0420749,10.644 14.1924856,11.2714286 L13.0611998,9.94885714 C13.5066942,9.63685714 13.8000905,9.138 13.8000905,8.57142857 L13.8000905,8.57142857 Z M7.4884698,3.438 L6.37158384,2.13257143 C7.99336346,0.751714286 10.0102381,0 12.0001131,0 C16.4244575,0 21,3.684 21,9.84857143 C21,11.7917143 20.0829115,14.2722857 18.8571269,16.7228571 L17.5863429,15.2374286 C18.6312298,13.0165714 19.2000226,11.166 19.2000226,9.84857143 C19.2000226,4.56514286 15.4902692,1.71428571 12.0001131,1.71428571 C10.417933,1.71428571 8.79435339,2.30485714 7.4884698,3.438 L7.4884698,3.438 Z M14.2878844,21.066 C13.7928906,21.8297143 12.9379013,22.2857143 12.0001131,22.2857143 C11.0632249,22.2857143 10.2073356,21.8297143 9.71324184,21.066 C6.54438167,16.1768571 4.80020358,12.1928571 4.80020358,9.84857143 C4.80020358,8.466 5.06030032,7.25657143 5.4994948,6.21685714 L15.9447635,18.3505714 C15.4461698,19.2188571 14.9007766,20.1214286 14.2878844,21.066 L14.2878844,21.066 Z M18.0345373,18.2862857 C18.0372372,18.2802857 18.0399372,18.2751429 18.0435372,18.2691429 L16.7943529,16.8188571 C16.7925529,16.8231429 16.7898529,16.8265714 16.7880529,16.83 L4.59680614,2.58342857 C4.2818101,2.21657143 3.71481722,2.08371429 3.33052205,2.382 C2.94532689,2.68371429 2.88862761,3.18428571 3.20362365,3.55028571 L4.24401057,4.758 C3.46822032,6.17828571 3.0002262,7.88571429 3.0002262,9.84857143 C3.0002262,12.5837143 4.7435043,16.6611429 8.1805611,21.966 C9.00585073,23.2397143 10.4350328,24 12.0001131,24 C13.5660934,24 14.9943755,23.2397143 15.8187651,21.966 C16.2624595,21.2811429 16.7214538,20.5431429 17.1750481,19.7794286 L19.4034201,22.368 C19.7184161,22.7331429 20.286309,22.7888571 20.6697042,22.488 C20.9874002,22.2402857 21.0674992,21.9925714 20.9136011,21.6514286 L18.0345373,18.2862857 Z" id="Fill-1"></path>
        </g>
    </g>
</svg>