<?xml version="1.0" encoding="UTF-8" standalone="no"?>
<svg width="18px" height="18px" viewBox="0 0 18 18" version="1.1" xmlns="http://www.w3.org/2000/svg" xmlns:xlink="http://www.w3.org/1999/xlink">
    <!-- Generator: sketchtool 43.2 (39069) - http://www.bohemiancoding.com/sketch -->
    <title>mail--small</title>
    <desc>Created with sketchtool.</desc>
    <defs></defs>
    <g id="Web" stroke="none" stroke-width="1" fill="none" fill-rule="evenodd">
        <g id="mail--small" fill="#000000">
            <path d="M16.1111111,5.75288889 L16.1111111,5.94044444 L9.53511111,9.856 C9.21511111,10.0462222 8.78488889,10.0462222 8.46488889,9.856 L1.88888889,5.94044444 L1.88888889,5.75288889 L1.88888889,4.88533333 C1.88888889,3.78488889 2.91555556,2.88888889 4.17777778,2.88888889 L13.8222222,2.88888889 C15.0844444,2.88888889 16.1111111,3.78488889 16.1111111,4.88533333 L16.1111111,5.75288889 Z M16.1111111,12.8213333 C16.1111111,14.0844444 15.0844444,15.1111111 13.8222222,15.1111111 L4.17777778,15.1111111 C2.91555556,15.1111111 1.88888889,14.0844444 1.88888889,12.8213333 L1.88888889,6.97511111 L8.01066667,10.6204444 C8.31111111,10.7991111 8.65511111,10.888 9,10.888 C9.34488889,10.888 9.68888889,10.7991111 9.98933333,10.6204444 L16.1111111,6.97511111 L16.1111111,12.8213333 Z M4.17777778,2 C2.42577778,2 1,3.29422222 1,4.88533333 L1,5.75288889 L1,6.19377778 L1,12.8213333 C1,14.5742222 2.42577778,16 4.17777778,16 L13.8222222,16 C15.5742222,16 17,14.5742222 17,12.8213333 L17,6.19377778 L17,5.75288889 L17,4.88533333 C17,3.29422222 15.5742222,2 13.8222222,2 L4.17777778,2 Z" id="Fill-1"></path>
        </g>
    </g>
</svg>