<?xml version="1.0" encoding="UTF-8"?>
<svg width="20px" height="20px" viewBox="0 0 20 20" version="1.1" xmlns="http://www.w3.org/2000/svg" xmlns:xlink="http://www.w3.org/1999/xlink">
    <!-- Generator: sketchtool 43.2 (39069) - http://www.bohemiancoding.com/sketch -->
    <title>mail--small</title>
    <desc>Created with sketchtool.</desc>
    <defs></defs>
    <g id="Web" stroke="none" stroke-width="1" fill="none" fill-rule="evenodd">
        <g id="mail--small" fill="#000000">
            <path d="M18,5.2222 L18,5.4332 L10.602,9.8382 C10.242,10.0522 9.758,10.0522 9.398,9.8382 L2,5.4332 L2,5.2222 L2,4.2462 C2,3.0082 3.155,2.0002 4.575,2.0002 L15.425,2.0002 C16.845,2.0002 18,3.0082 18,4.2462 L18,5.2222 Z M18,15.4242 C18,16.8452 16.845,18.0002 15.425,18.0002 L4.575,18.0002 C3.155,18.0002 2,16.8452 2,15.4242 L2,6.5972 L8.887,10.6982 C9.225,10.8992 9.612,10.9992 10,10.9992 C10.388,10.9992 10.775,10.8992 11.113,10.6982 L18,6.5972 L18,15.4242 Z M15.425,1.0002 L4.575,1.0002 C2.604,1.0002 1,2.4562 1,4.2462 L1,5.2222 L1,5.7182 L1,15.4242 C1,17.3962 2.604,19.0002 4.575,19.0002 L15.425,19.0002 C17.396,19.0002 19,17.3962 19,15.4242 L19,5.7182 L19,5.2222 L19,4.2462 C19,2.4562 17.396,1.0002 15.425,1.0002 L15.425,1.0002 Z" id="Fill-1"></path>
        </g>
    </g>
</svg>