<?xml version="1.0" encoding="UTF-8"?>
<svg width="16px" height="16px" viewBox="0 0 16 16" version="1.1" xmlns="http://www.w3.org/2000/svg" xmlns:xlink="http://www.w3.org/1999/xlink">
    <!-- Generator: sketchtool 52.3 (67297) - http://www.bohemiancoding.com/sketch -->
    <title>mail--small</title>
    <desc>Created with sketchtool.</desc>
    <g id="Web" stroke="none" stroke-width="1" fill="none" fill-rule="evenodd">
        <g id="mail--small" fill="#000000">
            <path d="M14.2222222,5.28377778 L14.2222222,5.44788889 L8.46822222,8.874 C8.18822222,9.04044444 7.81177778,9.04044444 7.53177778,8.874 L1.77777778,5.44788889 L1.77777778,5.28377778 L1.77777778,4.52466667 C1.77777778,3.56177778 2.67611111,2.77777778 3.78055556,2.77777778 L12.2194444,2.77777778 C13.3238889,2.77777778 14.2222222,3.56177778 14.2222222,4.52466667 L14.2222222,5.28377778 Z M14.2222222,11.4686667 C14.2222222,12.5738889 13.3238889,13.4722222 12.2194444,13.4722222 L3.78055556,13.4722222 C2.67611111,13.4722222 1.77777778,12.5738889 1.77777778,11.4686667 L1.77777778,6.35322222 L7.13433333,9.54288889 C7.39722222,9.69922222 7.69822222,9.777 8,9.777 C8.30177778,9.777 8.60277778,9.69922222 8.86566667,9.54288889 L14.2222222,6.35322222 L14.2222222,11.4686667 Z M3.78055556,2 C2.24755556,2 1,3.13244444 1,4.52466667 L1,5.28377778 L1,5.66955556 L1,11.4686667 C1,13.0024444 2.24755556,14.25 3.78055556,14.25 L12.2194444,14.25 C13.7524444,14.25 15,13.0024444 15,11.4686667 L15,5.66955556 L15,5.28377778 L15,4.52466667 C15,3.13244444 13.7524444,2 12.2194444,2 L3.78055556,2 Z" id="Fill-1"></path>
        </g>
    </g>
</svg>