<?xml version="1.0" encoding="UTF-8"?>
<svg width="28px" height="28px" viewBox="0 0 28 28" version="1.1" xmlns="http://www.w3.org/2000/svg" xmlns:xlink="http://www.w3.org/1999/xlink">
    <!-- Generator: sketchtool 46.2 (44496) - http://www.bohemiancoding.com/sketch -->
    <title>meetup-m</title>
    <desc>Created with sketchtool.</desc>
    <defs></defs>
    <g id="Web" stroke="none" stroke-width="1" fill="none" fill-rule="evenodd">
        <g id="meetup-m" fill="#000000">
            <path d="M25.4658582,23.3720989 C25.1682554,23.5521006 24.8454522,23.6541016 24.5058489,23.697302 C24.2130461,23.7333024 23.9166432,23.7465025 23.6238404,23.7681027 C22.6770312,23.7393024 21.7446221,23.6109012 20.8554135,23.2964981 C19.3433989,22.7612929 18.4169899,21.6800825 18.0485863,20.1284674 C17.8709846,19.3796601 17.9261851,18.6320529 18.228588,17.921646 C18.5861915,17.0792378 18.9617952,16.2440297 19.3517989,15.4160217 C20.0034053,14.0336083 20.6766118,12.658395 21.3354182,11.2783816 C21.4626194,11.013179 21.5682204,10.7359763 21.6702214,10.4587736 C21.7614223,10.2139713 21.7830225,9.95716876 21.733822,9.69796625 C21.6858216,9.44356378 21.5406202,9.27676216 21.2826177,9.21796159 C20.9334143,9.1363608 20.6214113,9.20476147 20.3574087,9.45436389 C20.1354065,9.66676595 19.9602048,9.91276833 19.8198035,10.183971 C19.2161976,11.3539823 18.6065917,12.5227936 18.0089859,13.696405 C17.1221773,15.4376219 16.2461688,17.1836388 15.3581602,18.9236557 C15.2141588,19.2044584 15.0485572,19.4816611 14.8553553,19.7324636 C14.204949,20.5736717 13.2521398,20.705673 12.3617311,20.4008701 C11.8385261,20.2244683 11.5841236,19.8236645 11.5445232,19.2812592 C11.524123,18.9992565 11.5589234,18.7220538 11.6633244,18.4556512 C12.0245279,17.5412423 12.3857314,16.6268334 12.7469349,15.7100246 C13.2173394,14.513613 13.6925441,13.3172014 14.1593486,12.1183897 C14.2853498,11.7943866 14.3849508,11.4583833 14.3597505,11.1007799 C14.3369503,10.7827768 14.2493495,10.4911739 14.0081471,10.2631717 C13.7357445,10.0087693 13.4177414,9.93316853 13.0625379,10.0471696 C12.6929344,10.1683708 12.4145317,10.393973 12.2645302,10.7671766 C11.7401251,12.0811894 11.20972,13.3940021 10.6853149,14.7080148 C9.90890736,16.6472336 9.13609986,18.5888525 8.36329236,20.5292713 C8.1604904,21.0404763 7.90128788,21.5168809 7.53048429,21.9272849 C7.10328014,22.4000894 6.56687494,22.6424918 5.93686883,22.7036924 C5.26006227,22.7720931 4.6036559,22.6964923 3.98084986,22.4228897 C2.94643983,21.9692853 2.28643343,21.1976778 2.06203125,20.0804669 C1.95523022,19.5476618 1.98883054,19.0184566 2.14363204,18.5060517 C3.07004103,15.449622 3.94724954,12.3787922 5.02485999,9.37036307 C5.29246258,8.62275582 5.58406541,7.88234864 5.89846846,7.15274156 C6.55727485,5.62512675 7.77768669,4.82951903 9.38090223,4.57031652 C9.8825071,4.48991574 10.3793119,4.5583164 10.8461164,4.77551851 C11.519323,5.08752153 12.1985296,5.38752444 12.860936,5.72232769 C13.3109404,5.95152991 13.7237444,5.91432955 14.1245482,5.64552695 C14.3561505,5.49072544 14.5685525,5.30472364 14.7833546,5.12592191 C15.0401571,4.91231983 15.2753594,4.67351752 15.545362,4.47911563 C16.2917693,3.94271043 17.1137772,3.8875099 17.9681855,4.16111255 C18.3161889,4.27391364 18.5717914,4.53311616 18.8369939,4.77071846 C19.0001955,4.91831989 19.156197,5.07312139 19.3157986,5.22432286 C19.6782021,5.56152613 19.9446047,5.60592656 20.3562087,5.34552404 C20.8926139,5.00232071 21.4734195,4.85471928 22.1022256,4.86071933 C22.5270297,4.86551938 22.9494338,4.85831931 23.3694379,4.94472015 C24.5250491,5.17992243 25.230656,5.88072923 25.5570591,7.00274011 C25.753861,7.6819467 25.7082606,8.34795316 25.5306589,9.01875966 C25.2834565,9.9511687 24.9162529,10.8403773 24.5346492,11.7211859 C23.9778438,13.0063983 23.4030382,14.2844107 22.8522329,15.5720232 C22.4874293,16.4288315 22.1730263,17.30484 21.9822244,18.2204489 C21.8994236,18.6152527 21.8550232,19.0124566 21.8694234,19.4168605 C21.8910236,20.0192664 22.1658262,20.4476705 22.7382318,20.6456724 C23.0502348,20.7524735 23.381438,20.810074 23.7078412,20.8748746 C24.0714447,20.9468753 24.4410483,20.9852757 24.8034518,21.0620765 C25.0002537,21.1052769 25.1946556,21.1832776 25.3782574,21.2672785 C26.1342647,21.6176819 26.2446658,22.8980943 25.4658582,23.3720989" id="Fill-1"></path>
        </g>
    </g>
</svg>