<?xml version="1.0" encoding="UTF-8"?>
<svg width="16px" height="16px" viewBox="0 0 16 16" version="1.1" xmlns="http://www.w3.org/2000/svg" xmlns:xlink="http://www.w3.org/1999/xlink">
    <!-- Generator: sketchtool 46.2 (44496) - http://www.bohemiancoding.com/sketch -->
    <title>messages--small</title>
    <desc>Created with sketchtool.</desc>
    <defs></defs>
    <g id="Web" stroke="none" stroke-width="1" fill="none" fill-rule="evenodd">
        <g id="messages--small" fill="#000000">
            <path d="M11.8888889,1 L4.11111111,1 C2.393,1 1,2.393 1,4.11111111 L1,8.76688889 C1,10.485 2.393,11.878 4.11111111,11.878 L4.83288889,11.878 C5.10822222,11.878 5.36333333,12.0242222 5.50333333,12.2614444 L6.60855556,14.1413333 C6.89555556,14.7137778 7.44777778,15 8,15 C8.55222222,15 9.10444444,14.7137778 9.39144444,14.1413333 L10.4966667,12.2614444 C10.6366667,12.0242222 10.8917778,11.878 11.1671111,11.878 L11.8888889,11.878 C13.607,11.878 15,10.485 15,8.76688889 L15,4.11111111 C15,2.393 13.607,1 11.8888889,1 M11.8888889,1.77777778 C13.1753333,1.77777778 14.2222222,2.82466667 14.2222222,4.11111111 L14.2222222,8.76688889 C14.2222222,10.0533333 13.1753333,11.1002222 11.8888889,11.1002222 L11.1671111,11.1002222 C10.618,11.1002222 10.1046667,11.3942222 9.82622222,11.8671111 L8.721,13.747 C8.71244444,13.7625556 8.70388889,13.7773333 8.69611111,13.7928889 C8.56155556,14.062 8.301,14.2222222 8,14.2222222 C7.699,14.2222222 7.43844444,14.062 7.30388889,13.7928889 C7.29611111,13.7773333 7.28755556,13.7625556 7.279,13.747 L6.17377778,11.8671111 C5.89533333,11.3942222 5.382,11.1002222 4.83288889,11.1002222 L4.11111111,11.1002222 C2.82466667,11.1002222 1.77777778,10.0533333 1.77777778,8.76688889 L1.77777778,4.11111111 C1.77777778,2.82466667 2.82466667,1.77777778 4.11111111,1.77777778 L11.8888889,1.77777778" id="Page-1"></path>
        </g>
    </g>
</svg>