<?xml version="1.0" encoding="UTF-8"?>
<svg width="24px" height="24px" viewBox="0 0 24 24" version="1.1" xmlns="http://www.w3.org/2000/svg" xmlns:xlink="http://www.w3.org/1999/xlink">
    <!-- Generator: sketchtool 52.3 (67297) - http://www.bohemiancoding.com/sketch -->
    <title>messages</title>
    <desc>Created with sketchtool.</desc>
    <g id="Web" stroke="none" stroke-width="1" fill="none" fill-rule="evenodd">
        <g id="messages" fill="#000000">
            <path d="M18.3866667,1.72 L5.05333333,1.72 C3.2125,1.72 1.72,3.2125 1.72,5.05333333 L1.72,13.3866667 C1.72,15.2275 3.2125,16.72 5.05333333,16.72 L7.10166667,16.72 C7.38333333,16.72 7.64583333,16.8616667 7.8,17.0975 L10.3066667,20.9366667 C10.6333333,21.4591667 11.1766667,21.72 11.72,21.72 C12.2633333,21.72 12.8075,21.4591667 13.1333333,20.9366667 L15.64,17.0975 C15.7941667,16.8616667 16.0566667,16.72 16.3383333,16.72 L18.3866667,16.72 C20.2275,16.72 21.72,15.2275 21.72,13.3866667 L21.72,5.05333333 C21.72,3.2125 20.2275,1.72 18.3866667,1.72 M18.3866667,3.38666667 C19.3058333,3.38666667 20.0533333,4.13416667 20.0533333,5.05333333 L20.0533333,13.3866667 C20.0533333,14.3058333 19.3058333,15.0533333 18.3866667,15.0533333 L16.3383333,15.0533333 C15.49,15.0533333 14.7075,15.4766667 14.2441667,16.1866667 L11.7025,20.0258333 L9.19583333,16.1866667 C8.7325,15.4766667 7.95,15.0533333 7.10166667,15.0533333 L5.05333333,15.0533333 C4.13416667,15.0533333 3.38666667,14.3058333 3.38666667,13.3866667 L3.38666667,5.05333333 C3.38666667,4.13416667 4.13416667,3.38666667 5.05333333,3.38666667 L18.3866667,3.38666667" id="Page-1"></path>
        </g>
    </g>
</svg>