<?xml version="1.0" encoding="UTF-8"?>
<svg width="20px" height="20px" viewBox="0 0 20 20" version="1.1" xmlns="http://www.w3.org/2000/svg" xmlns:xlink="http://www.w3.org/1999/xlink">
    <!-- Generator: sketchtool 46.2 (44496) - http://www.bohemiancoding.com/sketch -->
    <title>microphone--small</title>
    <desc>Created with sketchtool.</desc>
    <defs></defs>
    <g id="Web" stroke="none" stroke-width="1" fill="none" fill-rule="evenodd">
        <g id="microphone--small" fill="#000000">
            <path d="M7.613,9.477 C7.613,10.706 8.561,11.706 9.727,11.706 C10.892,11.706 11.841,10.706 11.841,9.477 L11.841,5.23 C11.841,3.98 10.912,3 9.727,3 C8.542,3 7.613,3.98 7.613,5.23 L7.613,9.477 Z M6.613,9.477 L6.613,5.23 C6.613,3.45 8.01,2 9.727,2 C11.444,2 12.841,3.45 12.841,5.23 L12.841,9.477 C12.841,11.257 11.444,12.706 9.727,12.706 C8.01,12.706 6.613,11.257 6.613,9.477 L6.613,9.477 Z M15.454,8.5 L15.454,9.528 C15.454,12.417 13.28,14.805 10.476,15.172 L10.476,17.5 C10.476,17.777 10.252,18 9.976,18 C9.699,18 9.476,17.777 9.476,17.5 L9.476,15.214 C6.435,15.082 4,12.586 4,9.528 L4,8.5 C4,8.224 4.223,8 4.5,8 C4.776,8 5,8.224 5,8.5 L5,9.528 C5,12.119 7.12,14.227 9.727,14.227 C12.333,14.227 14.454,12.119 14.454,9.528 L14.454,8.5 C14.454,8.224 14.677,8 14.954,8 C15.23,8 15.454,8.224 15.454,8.5 L15.454,8.5 Z" id="Fill-1"></path>
        </g>
    </g>
</svg>