<?xml version="1.0" encoding="UTF-8"?>
<svg width="28px" height="28px" viewBox="0 0 28 28" version="1.1" xmlns="http://www.w3.org/2000/svg" xmlns:xlink="http://www.w3.org/1999/xlink">
    <!-- Generator: sketchtool 52.3 (67297) - http://www.bohemiancoding.com/sketch -->
    <title>microphone</title>
    <desc>Created with sketchtool.</desc>
    <g id="Web" stroke="none" stroke-width="1" fill="none" fill-rule="evenodd">
        <g id="microphone" fill="#000000">
            <path d="M12.137,13.371 C12.137,14.647 13.075,15.647 14.273,15.647 C15.471,15.647 16.409,14.647 16.409,13.371 L16.409,8.275 C16.409,6.999 15.471,6 14.273,6 C13.075,6 12.137,6.999 12.137,8.275 L12.137,13.371 Z M10.137,13.371 L10.137,8.275 C10.137,5.918 11.992,4 14.273,4 C16.554,4 18.409,5.918 18.409,8.275 L18.409,13.371 C18.409,15.729 16.554,17.647 14.273,17.647 C11.992,17.647 10.137,15.729 10.137,13.371 Z M21.546,12.2 L21.546,13.433 C21.546,16.982 18.964,19.937 15.572,20.55 L15.572,23 C15.572,23.553 15.124,24 14.572,24 C14.02,24 13.572,23.553 13.572,23 L13.572,20.637 C9.89,20.284 7,17.189 7,13.433 L7,12.2 C7,11.647 7.448,11.2 8,11.2 C8.553,11.2 9,11.647 9,12.2 L9,13.433 C9,16.321 11.366,18.672 14.273,18.672 C17.181,18.672 19.546,16.321 19.546,13.433 L19.546,12.2 C19.546,11.647 19.994,11.2 20.546,11.2 C21.098,11.2 21.546,11.647 21.546,12.2 Z" id="Fill-1"></path>
        </g>
    </g>
</svg>