<svg width="18" height="18" viewBox="0 0 18 18" fill="none" xmlns="http://www.w3.org/2000/svg">
	<path fill-rule="evenodd" clip-rule="evenodd" d="M10.125 3.75C10.125 4.37132 9.62132 4.875 9 4.875C8.37868 4.875 7.875 4.37132 7.875 3.75C7.875 3.12868 8.37868 2.625 9 2.625C9.62132 2.625 10.125 3.12868 10.125 3.75ZM11.0863 4.59401C10.7525 5.41845 9.94417 6 9 6C8.05584 6 7.2475 5.41845 6.91366 4.59401C6.35716 4.85752 5.85519 5.22428 5.43465 5.67526C5.22278 5.90246 4.86684 5.91489 4.63964 5.70302C4.41244 5.49115 4.40001 5.13521 4.61188 4.90801C5.17089 4.30855 5.8468 3.82998 6.59791 3.50182C6.65585 3.47651 6.71414 3.45213 6.77277 3.4287C6.92868 2.33825 7.86645 1.5 9 1.5C10.1336 1.5 11.0713 2.33826 11.2272 3.4287C11.2729 3.44696 11.3184 3.46579 11.3637 3.48519C12.117 3.80809 12.7963 4.28193 13.3594 4.87748C13.5729 5.10319 13.563 5.45921 13.3372 5.67266C13.1115 5.88611 12.7555 5.87617 12.5421 5.65045C12.1262 5.21068 11.6324 4.85259 11.0863 4.59401ZM3.89336 7.04934C4.19344 7.12974 4.37152 7.43818 4.29111 7.73826C4.12542 8.35664 4.08314 9.0016 4.16671 9.63632C4.17266 9.68156 4.17925 9.72668 4.18646 9.77167C4.28893 9.75739 4.3936 9.75 4.5 9.75C5.74264 9.75 6.75 10.7574 6.75 12C6.75 12.4187 6.63561 12.8107 6.43639 13.1465C6.83987 13.396 7.27836 13.5857 7.73826 13.7089C8.03833 13.7893 8.21641 14.0977 8.13601 14.3978C8.0556 14.6979 7.74716 14.876 7.44709 14.7956C6.79277 14.6202 6.17365 14.3356 5.61562 13.9544C5.2868 14.1425 4.90596 14.25 4.5 14.25C3.25736 14.25 2.25 13.2426 2.25 12C2.25 11.2751 2.59278 10.6303 3.1251 10.2188C3.09521 10.0748 3.07059 9.92945 3.05133 9.78316C2.94849 9.00197 3.00051 8.20817 3.20445 7.44709C3.28485 7.14701 3.59329 6.96894 3.89336 7.04934ZM14.1066 7.04934C14.4067 6.96894 14.7152 7.14701 14.7956 7.44709C14.9995 8.20817 15.0515 9.00197 14.9487 9.78316C14.9294 9.92945 14.9048 10.0748 14.8749 10.2188C15.4072 10.6303 15.75 11.2751 15.75 12C15.75 13.2426 14.7426 14.25 13.5 14.25C13.094 14.25 12.7132 14.1425 12.3844 13.9544C11.8263 14.3356 11.2072 14.6202 10.5529 14.7956C10.2528 14.876 9.9444 14.6979 9.86399 14.3978C9.78359 14.0977 9.96167 13.7893 10.2617 13.7089C10.7216 13.5857 11.1601 13.396 11.5636 13.1465C11.3644 12.8107 11.25 12.4187 11.25 12C11.25 10.7574 12.2574 9.75 13.5 9.75C13.6064 9.75 13.7111 9.75739 13.8135 9.77167C13.8208 9.72668 13.8273 9.68156 13.8333 9.63632C13.9169 9.0016 13.8746 8.35664 13.7089 7.73826C13.6285 7.43818 13.8066 7.12974 14.1066 7.04934ZM14.625 12C14.625 12.6213 14.1213 13.125 13.5 13.125C12.8787 13.125 12.375 12.6213 12.375 12C12.375 11.3787 12.8787 10.875 13.5 10.875C14.1213 10.875 14.625 11.3787 14.625 12ZM4.5 13.125C5.12132 13.125 5.625 12.6213 5.625 12C5.625 11.3787 5.12132 10.875 4.5 10.875C3.87868 10.875 3.375 11.3787 3.375 12C3.375 12.6213 3.87868 13.125 4.5 13.125Z" fill="#000000"/>
</svg>
