<?xml version="1.0" encoding="UTF-8"?>
<svg width="16px" height="16px" viewBox="0 0 16 16" version="1.1" xmlns="http://www.w3.org/2000/svg" xmlns:xlink="http://www.w3.org/1999/xlink">
    <!-- Generator: sketchtool 46.2 (44496) - http://www.bohemiancoding.com/sketch -->
    <title>notifications-mute--small</title>
    <desc>Created with sketchtool.</desc>
    <defs></defs>
    <g id="Web" stroke="none" stroke-width="1" fill="none" fill-rule="evenodd">
        <g id="notifications-mute--small" fill="#000000">
            <path d="M8.28892376,9.94426466 C8.28892376,9.72960097 8.11470396,9.55538117 7.90004028,9.55538117 L3.55543395,9.55538117 C3.12688435,9.55538117 2.77766698,9.2061638 2.77766698,8.7776142 C2.77766698,8.34906459 3.12688435,7.99984722 3.55543395,7.99984722 C4.31297899,7.99984722 4.943748,7.45463257 5.08141276,6.73675365 L5.1109679,6.05542978 C5.1109679,5.8407661 4.9367481,5.66654629 4.72208441,5.66654629 C4.50742073,5.66654629 4.33320093,5.8407661 4.33320093,6.05542978 L4.33320093,6.44431327 C4.33320093,6.87364064 3.98476132,7.22208025 3.55543395,7.22208025 C2.69677921,7.22208025 1.9999,7.91895946 1.9999,8.7776142 C1.9999,9.63626894 2.69677921,10.3331481 3.55543395,10.3331481 L7.90004028,10.3331481 C8.11470396,10.3331481 8.28892376,10.1589283 8.28892376,9.94426466 L8.28892376,9.94426466 Z M8.2220358,11.8886821 C7.36338106,11.8886821 6.66650185,12.5855613 6.66650185,13.444216 C6.66650185,14.3028708 7.36338106,14.99975 8.2220358,14.99975 C9.08146831,14.99975 9.77756975,14.3028708 9.77756975,13.444216 C9.77756975,12.5855613 9.08146831,11.8886821 8.2220358,11.8886821 L8.2220358,11.8886821 Z M8.2220358,1.77771142 C9.93778975,1.77771142 11.3331037,3.17302537 11.3331037,4.88877932 L11.3331037,6.44431327 C11.3331037,7.30219024 12.0315384,7.99984722 12.8886377,7.99984722 C13.3171873,7.99984722 13.6664046,8.34906459 13.6664046,8.7776142 C13.6664046,9.2061638 13.3171873,9.55538117 12.8886377,9.55538117 L11.105218,9.55538117 L5.34040916,3.79057235 C5.7845141,2.62003305 6.89672088,1.77771142 8.2220358,1.77771142 L8.2220358,1.77771142 Z M11.882985,10.3331481 L12.8886377,10.3331481 C13.7480702,10.3331481 14.4441716,9.63626894 14.4441716,8.7776142 C14.4441716,7.91895946 13.7480702,7.22208025 12.8886377,7.22208025 C12.4593103,7.22208025 12.1108707,6.87364064 12.1108707,6.44431327 L12.1108707,4.88877932 C12.1108707,2.7413647 10.3694504,0.999944442 8.2220358,0.999944442 C6.68516826,0.999944442 5.37385314,1.89982083 4.74463966,3.19480285 L2.664113,1.11349842 C2.51167067,0.96183386 2.26589631,0.96183386 2.11423175,1.11349842 C1.96178942,1.26594075 1.96178942,1.51171511 2.11423175,1.66415744 L13.7807364,13.3306621 C13.8561798,13.4061055 13.9557339,13.444216 14.0552881,13.444216 C14.1548423,13.444216 14.2543965,13.4061055 14.3306176,13.3306621 C14.4822822,13.1782197 14.4822822,12.9324454 14.3306176,12.7800031 L11.882985,10.3331481 Z" id="Fill-1"></path>
        </g>
    </g>
</svg>