<?xml version="1.0" encoding="UTF-8" standalone="no"?>
<svg width="20px" height="20px" viewBox="0 0 20 20" version="1.1" xmlns="http://www.w3.org/2000/svg" xmlns:xlink="http://www.w3.org/1999/xlink">
    <!-- Generator: sketchtool 43.2 (39069) - http://www.bohemiancoding.com/sketch -->
    <title>notifications-mute--small</title>
    <desc>Created with sketchtool.</desc>
    <defs></defs>
    <g id="Web" stroke="none" stroke-width="1" fill="none" fill-rule="evenodd">
        <g id="notifications-mute--small" fill="#000000">
            <path d="M10.0859,12.5 C10.0859,12.224 9.8619,12 9.5859,12 L3.9999,12 C3.4489,12 2.9999,11.551 2.9999,11 C2.9999,10.449 3.4489,10 3.9999,10 C4.9739,10 5.7849,9.299 5.9619,8.376 L5.9999,7.5 C5.9999,7.224 5.7759,7 5.4999,7 C5.2239,7 4.9999,7.224 4.9999,7.5 L4.9999,8 C4.9999,8.552 4.5519,9 3.9999,9 C2.8959,9 1.9999,9.896 1.9999,11 C1.9999,12.104 2.8959,13 3.9999,13 L9.5859,13 C9.8619,13 10.0859,12.776 10.0859,12.5 L10.0859,12.5 Z M9.9999,15 C8.8959,15 7.9999,15.896 7.9999,17 C7.9999,18.104 8.8959,19 9.9999,19 C11.1049,19 11.9999,18.104 11.9999,17 C11.9999,15.896 11.1049,15 9.9999,15 L9.9999,15 Z M9.9999,2 C12.2059,2 13.9999,3.794 13.9999,6 L13.9999,8 C13.9999,9.103 14.8979,10 15.9999,10 C16.5509,10 16.9999,10.449 16.9999,11 C16.9999,11.551 16.5509,12 15.9999,12 L13.7069,12 L6.2949,4.588 C6.8659,3.083 8.2959,2 9.9999,2 L9.9999,2 Z M14.7069,13 L15.9999,13 C17.1049,13 17.9999,12.104 17.9999,11 C17.9999,9.896 17.1049,9 15.9999,9 C15.4479,9 14.9999,8.552 14.9999,8 L14.9999,6 C14.9999,3.239 12.7609,1 9.9999,1 C8.0239,1 6.3379,2.157 5.5289,3.822 L2.8539,1.146 C2.6579,0.951 2.3419,0.951 2.1469,1.146 C1.9509,1.342 1.9509,1.658 2.1469,1.854 L17.1469,16.854 C17.2439,16.951 17.3719,17 17.4999,17 C17.6279,17 17.7559,16.951 17.8539,16.854 C18.0489,16.658 18.0489,16.342 17.8539,16.146 L14.7069,13 Z" id="Fill-1"></path>
        </g>
    </g>
</svg>