<?xml version="1.0" encoding="UTF-8" standalone="no"?>
<svg width="28px" height="28px" viewBox="0 0 28 28" version="1.1" xmlns="http://www.w3.org/2000/svg" xmlns:xlink="http://www.w3.org/1999/xlink">
    <!-- Generator: sketchtool 43.2 (39069) - http://www.bohemiancoding.com/sketch -->
    <title>notifications</title>
    <desc>Created with sketchtool.</desc>
    <defs></defs>
    <g id="Web" stroke="none" stroke-width="1" fill="none" fill-rule="evenodd">
        <g id="notifications" fill="#000000">
            <path d="M23,17.0005 C23,16.4445 22.552,15.9965 22,15.9965 C20.346,15.9965 19,14.6505 19,12.9965 L19,9.2525 C19,6.4375 16.826,4.0835 14.154,4.0035 C14.103,4.0015 14.05,4.0005 13.998,4.0005 C12.69,4.0005 11.46,4.4985 10.519,5.4115 C9.539,6.3615 9,7.6365 9,9.0005 L9,12.9965 C9,14.6505 7.654,15.9965 6,15.9965 C5.448,15.9965 5,16.4445 5,16.9965 C5,17.5525 5.448,18.0005 6,18.0005 L22,18.0005 C22.552,18.0005 23,17.5525 23,17.0005 M25,16.9965 C25,18.6545 23.654,20.0005 22,20.0005 L6,20.0005 C4.346,20.0005 3,18.6545 3,17.0005 C3,15.3425 4.346,13.9965 6,13.9965 C6.552,13.9965 7,13.5485 7,12.9965 L7,9.0005 C7,7.0905 7.755,5.3065 9.126,3.9765 C10.495,2.6465 12.308,1.9455 14.215,2.0035 C17.956,2.1165 21,5.3675 21,9.2525 L21,12.9965 C21,13.5485 21.448,13.9965 22,13.9965 C23.654,13.9965 25,15.3425 25,16.9965 M16,24.0005 C16,25.1035 15.103,26.0005 14,26.0005 C12.897,26.0005 12,25.1035 12,24.0005 C12,22.8975 12.897,22.0005 14,22.0005 C15.103,22.0005 16,22.8975 16,24.0005" id="Fill-1"></path>
        </g>
    </g>
</svg>