<?xml version="1.0" encoding="UTF-8"?>
<svg width="20px" height="20px" viewBox="0 0 20 20" version="1.1" xmlns="http://www.w3.org/2000/svg" xmlns:xlink="http://www.w3.org/1999/xlink">
    <!-- Generator: sketchtool 46.2 (44496) - http://www.bohemiancoding.com/sketch -->
    <title>overflow--small</title>
    <desc>Created with sketchtool.</desc>
    <defs></defs>
    <g id="Web" stroke="none" stroke-width="1" fill="none" fill-rule="evenodd">
        <g id="overflow--small" fill="#000000">
            <path d="M10,8 C8.896,8 8,8.896 8,10 C8,11.104 8.896,12 10,12 C11.104,12 12,11.104 12,10 C12,8.896 11.104,8 10,8 M18,8 C16.896,8 16,8.896 16,10 C16,11.104 16.896,12 18,12 C19.104,12 20,11.104 20,10 C20,8.896 19.104,8 18,8 M2,8 C0.896,8 0,8.896 0,10 C0,11.104 0.896,12 2,12 C3.104,12 4,11.104 4,10 C4,8.896 3.104,8 2,8" id="Fill-3"></path>
        </g>
    </g>
</svg>