<?xml version="1.0" encoding="UTF-8"?>
<svg width="28px" height="28px" viewBox="0 0 28 28" version="1.1" xmlns="http://www.w3.org/2000/svg" xmlns:xlink="http://www.w3.org/1999/xlink">
    <!-- Generator: sketchtool 43.2 (39069) - http://www.bohemiancoding.com/sketch -->
    <title>overflow</title>
    <desc>Created with sketchtool.</desc>
    <defs></defs>
    <g id="Web" stroke="none" stroke-width="1" fill="none" fill-rule="evenodd">
        <g id="overflow" fill="#000000">
            <path d="M24,10 C21.794,10 20,11.794 20,14 C20,16.206 21.794,18 24,18 C26.206,18 28,16.206 28,14 C28,11.794 26.206,10 24,10 M14,10 C11.794,10 10,11.794 10,14 C10,16.206 11.794,18 14,18 C16.206,18 18,16.206 18,14 C18,11.794 16.206,10 14,10 M4,10 C1.794,10 0,11.794 0,14 C0,16.206 1.794,18 4,18 C6.206,18 8,16.206 8,14 C8,11.794 6.206,10 4,10" id="Page-1"></path>
        </g>
    </g>
</svg>