<?xml version="1.0" encoding="UTF-8"?>
<svg width="16px" height="16px" viewBox="0 0 16 16" version="1.1" xmlns="http://www.w3.org/2000/svg" xmlns:xlink="http://www.w3.org/1999/xlink">
    <!-- Generator: (null) (null) ((null)) - http://www.bohemiancoding.com/sketch -->
    <title>overflow-vertical--small</title>
    <desc>Created with (null).</desc>
    <defs></defs>
    <g id="Web" stroke="none" stroke-width="1" fill="none" fill-rule="evenodd">
        <g id="overflow-vertical--small" fill="#000000" fill-rule="nonzero">
            <path d="M8.25,5.5 C8.9375,5.5 9.5,4.9375 9.5,4.25 C9.5,3.5625 8.9375,3 8.25,3 C7.5625,3 7,3.5625 7,4.25 C7,4.9375 7.5625,5.5 8.25,5.5 Z M8.25,6.75 C7.5625,6.75 7,7.3125 7,8 C7,8.6875 7.5625,9.25 8.25,9.25 C8.9375,9.25 9.5,8.6875 9.5,8 C9.5,7.3125 8.9375,6.75 8.25,6.75 Z M8.25,10.5 C7.5625,10.5 7,11.0625 7,11.75 C7,12.4375 7.5625,13 8.25,13 C8.9375,13 9.5,12.4375 9.5,11.75 C9.5,11.0625 8.9375,10.5 8.25,10.5 Z" id="Shape"></path>
        </g>
    </g>
</svg>