<?xml version="1.0" encoding="UTF-8"?>
<svg width="28px" height="28px" viewBox="0 0 28 28" version="1.1" xmlns="http://www.w3.org/2000/svg" xmlns:xlink="http://www.w3.org/1999/xlink">
    <!-- Generator: sketchtool 43.2 (39069) - http://www.bohemiancoding.com/sketch -->
    <title>overflow</title>
    <desc>Created with sketchtool.</desc>
    <defs></defs>
    <g id="Web" stroke="none" stroke-width="1" fill="none" fill-rule="evenodd">
        <g id="overflow" fill="#000000">
            <path d="M24,10 C21.794,10 20,11.794 20,14 C20,16.206 21.794,18 24,18 C26.206,18 28,16.206 28,14 C28,11.794 26.206,10 24,10 M24,12 C25.104,12 26,12.896 26,14 C26,15.104 25.104,16 24,16 C22.896,16 22,15.104 22,14 C22,12.896 22.896,12 24,12 M14,10 C11.794,10 10,11.794 10,14 C10,16.206 11.794,18 14,18 C16.206,18 18,16.206 18,14 C18,11.794 16.206,10 14,10 M14,12 C15.104,12 16,12.896 16,14 C16,15.104 15.104,16 14,16 C12.896,16 12,15.104 12,14 C12,12.896 12.896,12 14,12 M4,10 C1.794,10 0,11.794 0,14 C0,16.206 1.794,18 4,18 C6.206,18 8,16.206 8,14 C8,11.794 6.206,10 4,10 M4,12 C5.104,12 6,12.896 6,14 C6,15.104 5.104,16 4,16 C2.896,16 2,15.104 2,14 C2,12.896 2.896,12 4,12" id="Page-1"></path>
        </g>
    </g>
</svg>