<?xml version="1.0" encoding="UTF-8" standalone="no"?>
<svg width="28px" height="28px" viewBox="0 0 28 28" version="1.1" xmlns="http://www.w3.org/2000/svg" xmlns:xlink="http://www.w3.org/1999/xlink">
    <!-- Generator: sketchtool 43.2 (39069) - http://www.bohemiancoding.com/sketch -->
    <title>overflow</title>
    <desc>Created with sketchtool.</desc>
    <defs></defs>
    <g id="Web" stroke="none" stroke-width="1" fill="none" fill-rule="evenodd">
        <g id="overflow" fill-rule="nonzero" fill="#000000">
            <path d="M7,11.6666667 C5.71666667,11.6666667 4.66666667,12.7166667 4.66666667,14 C4.66666667,15.2833333 5.71666667,16.3333333 7,16.3333333 C8.28333333,16.3333333 9.33333333,15.2833333 9.33333333,14 C9.33333333,12.7166667 8.28333333,11.6666667 7,11.6666667 Z M21,11.6666667 C19.7166667,11.6666667 18.6666667,12.7166667 18.6666667,14 C18.6666667,15.2833333 19.7166667,16.3333333 21,16.3333333 C22.2833333,16.3333333 23.3333333,15.2833333 23.3333333,14 C23.3333333,12.7166667 22.2833333,11.6666667 21,11.6666667 Z M14,11.6666667 C12.7166667,11.6666667 11.6666667,12.7166667 11.6666667,14 C11.6666667,15.2833333 12.7166667,16.3333333 14,16.3333333 C15.2833333,16.3333333 16.3333333,15.2833333 16.3333333,14 C16.3333333,12.7166667 15.2833333,11.6666667 14,11.6666667 Z" id="Shape"></path>
        </g>
    </g>
</svg>