<?xml version="1.0" encoding="UTF-8"?>
<svg width="20px" height="20px" viewBox="0 0 20 20" version="1.1" xmlns="http://www.w3.org/2000/svg" xmlns:xlink="http://www.w3.org/1999/xlink">
    <!-- Generator: sketchtool 52.3 (67297) - http://www.bohemiancoding.com/sketch -->
    <title>overflow--small</title>
    <desc>Created with sketchtool.</desc>
    <g id="Web" stroke="none" stroke-width="1" fill="none" fill-rule="evenodd">
        <g id="overflow--small" fill="#000000" fill-rule="nonzero">
            <path d="M5,8.33333333 C4.08333333,8.33333333 3.33333333,9.08333333 3.33333333,10 C3.33333333,10.9166667 4.08333333,11.6666667 5,11.6666667 C5.91666667,11.6666667 6.66666667,10.9166667 6.66666667,10 C6.66666667,9.08333333 5.91666667,8.33333333 5,8.33333333 Z M15,8.33333333 C14.0833333,8.33333333 13.3333333,9.08333333 13.3333333,10 C13.3333333,10.9166667 14.0833333,11.6666667 15,11.6666667 C15.9166667,11.6666667 16.6666667,10.9166667 16.6666667,10 C16.6666667,9.08333333 15.9166667,8.33333333 15,8.33333333 Z M10,8.33333333 C9.08333333,8.33333333 8.33333333,9.08333333 8.33333333,10 C8.33333333,10.9166667 9.08333333,11.6666667 10,11.6666667 C10.9166667,11.6666667 11.6666667,10.9166667 11.6666667,10 C11.6666667,9.08333333 10.9166667,8.33333333 10,8.33333333 Z" id="Shape"></path>
        </g>
    </g>
</svg>