<?xml version="1.0" encoding="UTF-8"?>
<svg width="20px" height="20px" viewBox="0 0 20 20" version="1.1" xmlns="http://www.w3.org/2000/svg" xmlns:xlink="http://www.w3.org/1999/xlink">
    <!-- Generator: sketchtool 46.2 (44496) - http://www.bohemiancoding.com/sketch -->
    <title>photo-album-add--small</title>
    <desc>Created with sketchtool.</desc>
    <defs></defs>
    <g id="Web" stroke="none" stroke-width="1" fill="none" fill-rule="evenodd">
        <g id="photo-album-add--small" fill="#000000">
            <path d="M4,5.5 C4,4.672 4.671,4 5.5,4 C6.328,4 7,4.672 7,5.5 C7,6.329 6.328,7 5.5,7 C4.671,7 4,6.329 4,5.5 M13.864,7.843 L9.687,12.843 C9.587,12.947 9.457,13 9.324,13 C9.208,13 9.093,12.961 9,12.882 L6.402,10.189 L4.864,11.843 C4.674,12.044 4.358,12.053 4.157,11.864 C3.956,11.674 3.947,11.358 4.135,11.155 L6,9.156 C6.183,8.964 6.485,8.947 6.687,9.119 L9.285,11.812 L13.135,7.156 C13.325,6.956 13.642,6.947 13.842,7.136 C14.045,7.326 14.053,7.642 13.864,7.843 M16,19 C14.346,19 13,17.654 13,16 C13,14.346 14.346,13 16,13 C17.654,13 19,14.346 19,16 C19,17.654 17.654,19 16,19 M12,16 L4.5,16 C3.121,16 2,14.879 2,13.5 L2,4.5 C2,3.121 3.121,2 4.5,2 L13.5,2 C14.878,2 16,3.121 16,4.5 L16,12 C13.794,12 12,13.794 12,16 C12,16 12,16.213 12,16 M17,12.142 L17,4.5 C17,2.57 15.429,1 13.5,1 L4.5,1 C2.57,1 1,2.57 1,4.5 L1,13.5 C1,15.43 2.57,17 4.5,17 L12.142,17 C12.589,18.721 14.142,20 16,20 C18.206,20 20,18.206 20,16 C20,14.142 18.72,12.589 17,12.142 M17.5,15.5 L16.5,15.5 L16.5,14.5 C16.5,14.225 16.276,14 16,14 C15.724,14 15.5,14.225 15.5,14.5 L15.5,15.5 L14.5,15.5 C14.224,15.5 14,15.725 14,16 C14,16.275 14.224,16.5 14.5,16.5 L15.5,16.5 L15.5,17.5 C15.5,17.776 15.724,18 16,18 C16.276,18 16.5,17.776 16.5,17.5 L16.5,16.5 L17.5,16.5 C17.776,16.5 18,16.275 18,16 C18,15.725 17.776,15.5 17.5,15.5" id="Page-1"></path>
        </g>
    </g>
</svg>