<?xml version="1.0" encoding="UTF-8"?>
<svg width="16px" height="16px" viewBox="0 0 16 16" version="1.1" xmlns="http://www.w3.org/2000/svg" xmlns:xlink="http://www.w3.org/1999/xlink">
    <!-- Generator: (null) (null) ((null)) - http://www.bohemiancoding.com/sketch -->
    <title>photo-album-add--small</title>
    <desc>Created with (null).</desc>
    <defs></defs>
    <g id="Web" stroke="none" stroke-width="1" fill="none" fill-rule="evenodd">
        <g id="photo-album-add--small" fill="#000000">
            <path d="M3.36842105,4.55263158 C3.36842105,3.89894737 3.89815789,3.36842105 4.55263158,3.36842105 C5.20631579,3.36842105 5.73684211,3.89894737 5.73684211,4.55263158 C5.73684211,5.20710526 5.20631579,5.73684211 4.55263158,5.73684211 C3.89815789,5.73684211 3.36842105,5.20710526 3.36842105,4.55263158 M11.1557895,6.40236842 L7.85815789,10.3497368 C7.77921053,10.4318421 7.67657895,10.4736842 7.57157895,10.4736842 C7.48,10.4736842 7.38921053,10.4428947 7.31578947,10.3805263 L5.26473684,8.25447368 L4.05052632,9.56026316 C3.90052632,9.71894737 3.65105263,9.72605263 3.49236842,9.57684211 C3.33368421,9.42684211 3.32657895,9.17736842 3.475,9.01710526 L4.94736842,7.43894737 C5.09184211,7.28736842 5.33026316,7.27394737 5.48973684,7.40973684 L7.54078947,9.53578947 L10.5802632,5.86 C10.7302632,5.70210526 10.9805263,5.695 11.1384211,5.84421053 C11.2986842,5.99421053 11.305,6.24368421 11.1557895,6.40236842 M12.8421053,15.2105263 C11.5363158,15.2105263 10.4736842,14.1478947 10.4736842,12.8421053 C10.4736842,11.5363158 11.5363158,10.4736842 12.8421053,10.4736842 C14.1478947,10.4736842 15.2105263,11.5363158 15.2105263,12.8421053 C15.2105263,14.1478947 14.1478947,15.2105263 12.8421053,15.2105263 M9.68421053,12.8421053 L3.76315789,12.8421053 C2.67447368,12.8421053 1.78947368,11.9571053 1.78947368,10.8684211 L1.78947368,3.76315789 C1.78947368,2.67447368 2.67447368,1.78947368 3.76315789,1.78947368 L10.8684211,1.78947368 C11.9563158,1.78947368 12.8421053,2.67447368 12.8421053,3.76315789 L12.8421053,9.68421053 C11.1005263,9.68421053 9.68421053,11.1005263 9.68421053,12.8421053 C9.68421053,12.8421053 9.68421053,13.0102632 9.68421053,12.8421053 M13.6315789,9.79631579 L13.6315789,3.76315789 C13.6315789,2.23947368 12.3913158,1 10.8684211,1 L3.76315789,1 C2.23947368,1 1,2.23947368 1,3.76315789 L1,10.8684211 C1,12.3921053 2.23947368,13.6315789 3.76315789,13.6315789 L9.79631579,13.6315789 C10.1492105,14.9902632 11.3752632,16 12.8421053,16 C14.5836842,16 16,14.5836842 16,12.8421053 C16,11.3752632 14.9894737,10.1492105 13.6315789,9.79631579 M14.0263158,12.4473684 L13.2368421,12.4473684 L13.2368421,11.6578947 C13.2368421,11.4407895 13.06,11.2631579 12.8421053,11.2631579 C12.6242105,11.2631579 12.4473684,11.4407895 12.4473684,11.6578947 L12.4473684,12.4473684 L11.6578947,12.4473684 C11.44,12.4473684 11.2631579,12.625 11.2631579,12.8421053 C11.2631579,13.0592105 11.44,13.2368421 11.6578947,13.2368421 L12.4473684,13.2368421 L12.4473684,14.0263158 C12.4473684,14.2442105 12.6242105,14.4210526 12.8421053,14.4210526 C13.06,14.4210526 13.2368421,14.2442105 13.2368421,14.0263158 L13.2368421,13.2368421 L14.0263158,13.2368421 C14.2442105,13.2368421 14.4210526,13.0592105 14.4210526,12.8421053 C14.4210526,12.625 14.2442105,12.4473684 14.0263158,12.4473684" id="Page-1"></path>
        </g>
    </g>
</svg>