<?xml version="1.0" encoding="UTF-8" standalone="no"?>
<svg width="28px" height="28px" viewBox="0 0 28 28" version="1.1" xmlns="http://www.w3.org/2000/svg" xmlns:xlink="http://www.w3.org/1999/xlink">
    <!-- Generator: sketchtool 43.2 (39069) - http://www.bohemiancoding.com/sketch -->
    <title>photo-album</title>
    <desc>Created with sketchtool.</desc>
    <defs></defs>
    <g id="Web" stroke="none" stroke-width="1" fill="none" fill-rule="evenodd">
        <g id="photo-album" fill="#000000">
            <path d="M21.707,14.293 C22.098,14.684 22.098,15.316 21.707,15.707 L15.707,21.707 C15.513,21.901 15.257,22 14.999,22 C14.78,22 14.559,21.928 14.375,21.781 L10.074,18.34 L7.707,20.707 C7.316,21.098 6.684,21.098 6.293,20.707 C5.902,20.316 5.902,19.684 6.293,19.293 L9.293,16.293 C9.653,15.933 10.228,15.9 10.624,16.219 L14.926,19.66 L20.293,14.293 C20.684,13.902 21.316,13.902 21.707,14.293 L21.707,14.293 Z M24,22 C24,23.103 23.103,24 22,24 L6,24 C4.897,24 4,23.103 4,22 L4,6 C4,4.897 4.897,4 6,4 L22,4 C23.103,4 24,4.897 24,6 L24,22 Z M22,2 L6,2 C3.794,2 2,3.794 2,6 L2,22 C2,24.206 3.794,26 6,26 L22,26 C24.206,26 26,24.206 26,22 L26,6 C26,3.794 24.206,2 22,2 L22,2 Z M10,8 C11.103,8 12,8.897 12,10 C12,11.103 11.103,12 10,12 C8.897,12 8,11.103 8,10 C8,8.897 8.897,8 10,8 L10,8 Z M10,14 C12.209,14 14,12.209 14,10 C14,7.791 12.209,6 10,6 C7.791,6 6,7.791 6,10 C6,12.209 7.791,14 10,14 L10,14 Z" id="Page-1"></path>
        </g>
    </g>
</svg>