<?xml version="1.0" encoding="UTF-8"?>
<svg width="16px" height="16px" viewBox="0 0 16 16" version="1.1" xmlns="http://www.w3.org/2000/svg" xmlns:xlink="http://www.w3.org/1999/xlink">
    <!-- Generator: (null) (null) ((null)) - http://www.bohemiancoding.com/sketch -->
    <title>plus-circle--small</title>
    <desc>Created with (null).</desc>
    <defs></defs>
    <g id="Web" stroke="none" stroke-width="1" fill="none" fill-rule="evenodd">
        <g id="plus-circle--small" fill="#000000">
            <path d="M11.5,8 C11.5,8.2415 11.304,8.4375 11.0625,8.4375 L8.4375,8.4375 L8.4375,11.0625 C8.4375,11.304 8.2415,11.5 8,11.5 C7.7585,11.5 7.5625,11.304 7.5625,11.0625 L7.5625,8.4375 L4.9375,8.4375 C4.696,8.4375 4.5,8.2415 4.5,8 C4.5,7.7585 4.696,7.5625 4.9375,7.5625 L7.5625,7.5625 L7.5625,4.9375 C7.5625,4.696 7.7585,4.5 8,4.5 C8.2415,4.5 8.4375,4.696 8.4375,4.9375 L8.4375,7.5625 L11.0625,7.5625 C11.304,7.5625 11.5,7.7585 11.5,8 M8,14.125 C4.623375,14.125 1.875,11.3775 1.875,8 C1.875,4.6225 4.623375,1.875 8,1.875 C11.376625,1.875 14.125,4.6225 14.125,8 C14.125,11.3775 11.376625,14.125 8,14.125 M8,1 C4.13425,1 1,4.13425 1,8 C1,11.86575 4.13425,15 8,15 C11.86575,15 15,11.86575 15,8 C15,4.13425 11.86575,1 8,1" id="Page-1"></path>
        </g>
    </g>
</svg>