<?xml version="1.0" encoding="UTF-8"?>
<svg width="24px" height="24px" viewBox="0 0 24 24" version="1.1" xmlns="http://www.w3.org/2000/svg" xmlns:xlink="http://www.w3.org/1999/xlink">
    <!-- Generator: (null) (null) ((null)) - http://www.bohemiancoding.com/sketch -->
    <title>plus</title>
    <desc>Created with (null).</desc>
    <defs></defs>
    <g id="Web" stroke="none" stroke-width="1" fill="none" fill-rule="evenodd">
        <g id="plus" fill="#000000">
            <path d="M18.125,11.125 L12.875,11.125 L12.875,5.875 C12.875,5.392 12.483,5 12,5 C11.517,5 11.125,5.392 11.125,5.875 L11.125,11.125 L5.875,11.125 C5.392,11.125 5,11.517 5,12 C5,12.483 5.392,12.875 5.875,12.875 L11.125,12.875 L11.125,18.125 C11.125,18.608875 11.517,19 12,19 C12.483,19 12.875,18.608875 12.875,18.125 L12.875,12.875 L18.125,12.875 C18.608875,12.875 19,12.483 19,12 C19,11.517 18.608875,11.125 18.125,11.125" id="Page-1"></path>
        </g>
    </g>
</svg>