<?xml version="1.0" encoding="UTF-8" standalone="no"?>
<svg width="28px" height="28px" viewBox="0 0 28 28" version="1.1" xmlns="http://www.w3.org/2000/svg" xmlns:xlink="http://www.w3.org/1999/xlink">
    <!-- Generator: sketchtool 43.2 (39069) - http://www.bohemiancoding.com/sketch -->
    <title>plus</title>
    <desc>Created with sketchtool.</desc>
    <defs></defs>
    <g id="Web" stroke="none" stroke-width="1" fill="none" fill-rule="evenodd">
        <g id="plus" fill="#000000">
            <path d="M21,13 L15,13 L15,7 C15,6.448 14.552,6 14,6 C13.448,6 13,6.448 13,7 L13,13 L7,13 C6.448,13 6,13.448 6,14 C6,14.552 6.448,15 7,15 L13,15 L13,21 C13,21.553 13.448,22 14,22 C14.552,22 15,21.553 15,21 L15,15 L21,15 C21.553,15 22,14.552 22,14 C22,13.448 21.553,13 21,13" id="Page-1"></path>
        </g>
    </g>
</svg>