<?xml version="1.0" encoding="UTF-8" standalone="no"?>
<svg width="20px" height="20px" viewBox="0 0 20 20" version="1.1" xmlns="http://www.w3.org/2000/svg" xmlns:xlink="http://www.w3.org/1999/xlink">
    <!-- Generator: sketchtool 43.2 (39069) - http://www.bohemiancoding.com/sketch -->
    <title>profiles--small</title>
    <desc>Created with sketchtool.</desc>
    <defs></defs>
    <g id="Web" stroke="none" stroke-width="1" fill="none" fill-rule="evenodd">
        <g id="profiles--small" fill="#000000">
            <path d="M14.7,11.508 C14.952,11.844 15.172,12.204 15.356,12.588 C16.866,12.936 18,14.331 18,16 C18,17.103 17.14,18 16.084,18 L15.207,18 C14.949,18.384 14.625,18.712 14.267,19 L16.084,19 C17.694,19 19,17.656 19,16 C19,13.542 17.08,11.55 14.7,11.508 M9.75,10 L6.25,10 C3.351,10 1,12.418 1,15.401 C1,17.388 2.568,19 4.5,19 L11.5,19 C13.433,19 15,17.388 15,15.401 C15,12.418 12.649,10 9.75,10 M13,4 C12.775,4 12.558,4.029 12.347,4.076 C12.367,4.25 12.4,4.42 12.4,4.6 C12.4,4.778 12.367,4.946 12.348,5.118 C12.554,5.047 12.77,5 13,5 C14.103,5 15,5.898 15,7 C15,8.103 14.103,9 13,9 C12.158,9 11.44,8.476 11.145,7.737 C10.91,7.988 10.656,8.221 10.369,8.414 C10.876,9.354 11.858,10 13,10 C14.657,10 16,8.657 16,7 C16,5.343 14.657,4 13,4 M7.8,1 C5.812,1 4.2,2.612 4.2,4.6 C4.2,6.588 5.812,8.2 7.8,8.2 C9.788,8.2 11.4,6.588 11.4,4.6 C11.4,2.612 9.788,1 7.8,1 M9.75,11 C12.094,11 14,12.974 14,15.401 C14,16.834 12.879,18 11.5,18 L4.5,18 C3.122,18 2,16.834 2,15.401 C2,12.974 3.907,11 6.25,11 L9.75,11 M7.8,2 C9.234,2 10.4,3.166 10.4,4.6 C10.4,6.033 9.234,7.2 7.8,7.2 C6.367,7.2 5.2,6.033 5.2,4.6 C5.2,3.166 6.367,2 7.8,2" id="Page-1"></path>
        </g>
    </g>
</svg>