<?xml version="1.0" encoding="UTF-8"?>
<svg width="24px" height="24px" viewBox="0 0 24 24" version="1.1" xmlns="http://www.w3.org/2000/svg" xmlns:xlink="http://www.w3.org/1999/xlink">
    <!-- Generator: sketchtool 52.3 (67297) - http://www.bohemiancoding.com/sketch -->
    <title>profiles</title>
    <desc>Created with sketchtool.</desc>
    <g id="Web" stroke="none" stroke-width="1" fill="none" fill-rule="evenodd">
        <g id="profiles" fill="#000000">
            <path d="M22,18.4283333 L22,19.6191667 C22,20.9341667 20.9425,22 19.6391667,22 L16.2566667,22 C16.6541667,21.5883333 16.9575,21.0908333 17.1566667,20.5416667 L19.6391667,20.5416667 C20.1366667,20.5416667 20.5416667,20.1275 20.5416667,19.6191667 L20.5416667,18.4283333 C20.5416667,17.4358333 19.4716667,15.125 17.2775,15.125 L16.915,15.125 C16.7075,14.6041667 16.4383333,14.1166667 16.1175,13.6666667 L17.2775,13.6666667 C19.8858333,13.6666667 22,15.7991667 22,18.4283333 Z M14.7083333,19.1425 C14.7083333,19.9141667 14.0916667,20.5416667 13.3333333,20.5416667 L4.83333333,20.5416667 C4.075,20.5416667 3.45833333,19.9141667 3.45833333,19.1425 L3.45833333,17.715 C3.45833333,15.3675 5.34666667,13.4583333 7.66666667,13.4583333 L10.5,13.4583333 C12.82,13.4583333 14.7083333,15.3675 14.7083333,17.715 L14.7083333,19.1425 Z M10.5,12 L7.66666667,12 C4.5375,12 2,14.5583333 2,17.715 L2,19.1425 C2,20.7208333 3.26833333,22 4.83333333,22 L13.3333333,22 C14.8983333,22 16.1666667,20.7208333 16.1666667,19.1425 L16.1666667,17.715 C16.1666667,14.5583333 13.6291667,12 10.5,12 Z M13.4541667,9.63166667 C13.7483333,10.4383333 14.5066667,11.0175 15.4025,11.0175 C16.5516667,11.0175 17.4858333,10.07 17.4858333,8.905 C17.4858333,7.74 16.5516667,6.79166667 15.4025,6.79166667 C15.0916667,6.79166667 14.7991667,6.86583333 14.5341667,6.99 C14.5633333,6.75916667 14.5833333,6.525 14.5833333,6.28583333 C14.5833333,6.005 14.5558333,5.73083333 14.5158333,5.46 C14.8008333,5.38583333 15.0941667,5.33333333 15.4025,5.33333333 C17.3583333,5.33333333 18.9441667,6.9325 18.9441667,8.905 C18.9441667,10.8766667 17.3583333,12.4758333 15.4025,12.4758333 C14.1058333,12.4758333 12.9833333,11.7658333 12.3666667,10.7166667 C12.7775,10.4075 13.1433333,10.0425 13.4541667,9.63166667 Z M9.08333333,3.45833333 C10.6225,3.45833333 11.875,4.7275 11.875,6.28583333 C11.875,7.845 10.6225,9.11333333 9.08333333,9.11333333 C7.54416667,9.11333333 6.29166667,7.845 6.29166667,6.28583333 C6.29166667,4.7275 7.54416667,3.45833333 9.08333333,3.45833333 Z M9.08333333,10.5716667 C11.43,10.5716667 13.3333333,8.6525 13.3333333,6.28583333 C13.3333333,3.91916667 11.43,2 9.08333333,2 C6.73666667,2 4.83333333,3.91916667 4.83333333,6.28583333 C4.83333333,8.6525 6.73666667,10.5716667 9.08333333,10.5716667 Z" id="Fill-1"></path>
        </g>
    </g>
</svg>