<?xml version="1.0" encoding="UTF-8"?>
<svg width="16px" height="16px" viewBox="0 0 16 16" version="1.1" xmlns="http://www.w3.org/2000/svg" xmlns:xlink="http://www.w3.org/1999/xlink">
    <!-- Generator: sketchtool 46.2 (44496) - http://www.bohemiancoding.com/sketch -->
    <title>projector--small</title>
    <desc>Created with sketchtool.</desc>
    <defs></defs>
    <g id="Web" stroke="none" stroke-width="1" fill="none" fill-rule="evenodd">
        <g id="projector--small" fill="#000000">
            <path d="M8,9.7224 L9.9425,12.960775 L6.0575,12.960775 L8,9.7224 Z M11.096625,13.613525 C11.173625,13.477025 11.171875,13.309025 11.0905,13.1734 L8.375375,8.647025 C8.217,8.382775 7.783,8.382775 7.624625,8.647025 L4.9095,13.1734 C4.828125,13.309025 4.826375,13.477025 4.903375,13.613525 C4.98125,13.7509 5.1265,13.835775 5.284,13.835775 L10.716,13.835775 C10.8735,13.835775 11.01875,13.7509 11.096625,13.613525 L11.096625,13.613525 Z M12.850125,10.5694 L11.0625,10.5694 C10.821,10.5694 10.625,10.3734 10.625,10.1319 C10.625,9.889525 10.821,9.6944 11.0625,9.6944 L12.850125,9.6944 C13.553625,9.6944 14.125,9.200025 14.125,8.592775 L14.125,2.875525 L1.875,2.875525 L1.875,8.592775 C1.875,9.200025 2.446375,9.6944 3.149875,9.6944 L4.9375,9.6944 C5.179,9.6944 5.375,9.889525 5.375,10.1319 C5.375,10.3734 5.179,10.5694 4.9375,10.5694 L3.149875,10.5694 C1.96425,10.5694 1,9.68215 1,8.592775 L1,2.438025 C1,2.19565 1.196,2.000525 1.4375,2.000525 L14.5625,2.000525 C14.804,2.000525 15,2.19565 15,2.438025 L15,8.592775 C15,9.68215 14.03575,10.5694 12.850125,10.5694 L12.850125,10.5694 Z" id="Page-1"></path>
        </g>
    </g>
</svg>