<?xml version="1.0" encoding="UTF-8"?>
<svg width="24px" height="24px" viewBox="0 0 24 24" version="1.1" xmlns="http://www.w3.org/2000/svg" xmlns:xlink="http://www.w3.org/1999/xlink">
    <!-- Generator: (null) (null) ((null)) - http://www.bohemiancoding.com/sketch -->
    <title>projector</title>
    <desc>Created with (null).</desc>
    <defs></defs>
    <g id="Web" stroke="none" stroke-width="1" fill="none" fill-rule="evenodd">
        <g id="projector" fill="#000000">
            <path d="M13.958,18.2754 L12,15.0114 L10.042,18.2754 L13.958,18.2754 Z M16.582,18.7604 C16.767,19.0704 16.772,19.4544 16.594,19.7684 C16.417,20.0824 16.084,20.2754 15.724,20.2754 L8.276,20.2754 C7.916,20.2754 7.583,20.0824 7.406,19.7684 C7.228,19.4544 7.233,19.0704 7.418,18.7604 L11.143,12.5534 C11.504,11.9524 12.496,11.9524 12.857,12.5534 L16.582,18.7604 Z M22,5.0004 L22,13.4414 C22,15.1564 20.498,16.5514 18.652,16.5514 L17,16.5514 C16.448,16.5514 16,16.1044 16,15.5514 C16,14.9994 16.448,14.5514 17,14.5514 L18.652,14.5514 C19.383,14.5514 20,14.0434 20,13.4414 L20,6.0004 L4,6.0004 L4,13.4414 C4,14.0434 4.617,14.5514 5.348,14.5514 L7,14.5514 C7.552,14.5514 8,14.9994 8,15.5514 C8,16.1044 7.552,16.5514 7,16.5514 L5.348,16.5514 C3.502,16.5514 2,15.1564 2,13.4414 L2,5.0004 C2,4.4474 2.448,4.0004 3,4.0004 L21,4.0004 C21.552,4.0004 22,4.4474 22,5.0004 Z" id="Page-1"></path>
        </g>
    </g>
</svg>