<?xml version="1.0" encoding="UTF-8"?>
<svg width="28px" height="28px" viewBox="0 0 28 28" version="1.1" xmlns="http://www.w3.org/2000/svg" xmlns:xlink="http://www.w3.org/1999/xlink">
    <!-- Generator: sketchtool 46.2 (44496) - http://www.bohemiancoding.com/sketch -->
    <title>projector</title>
    <desc>Created with sketchtool.</desc>
    <defs></defs>
    <g id="Web" stroke="none" stroke-width="1" fill="none" fill-rule="evenodd">
        <g id="projector" fill="#000000">
            <path d="M15.958,20.2754 L14,17.0114 L12.042,20.2754 L15.958,20.2754 Z M18.582,20.7604 C18.767,21.0704 18.772,21.4544 18.594,21.7684 C18.417,22.0824 18.084,22.2754 17.724,22.2754 L10.276,22.2754 C9.916,22.2754 9.583,22.0824 9.406,21.7684 C9.228,21.4544 9.233,21.0704 9.418,20.7604 L13.143,14.5534 C13.504,13.9524 14.496,13.9524 14.857,14.5534 L18.582,20.7604 Z M24,7.0004 L24,15.4414 C24,17.1564 22.498,18.5514 20.652,18.5514 L19,18.5514 C18.448,18.5514 18,18.1044 18,17.5514 C18,16.9994 18.448,16.5514 19,16.5514 L20.652,16.5514 C21.383,16.5514 22,16.0434 22,15.4414 L22,8.0004 L6,8.0004 L6,15.4414 C6,16.0434 6.617,16.5514 7.348,16.5514 L9,16.5514 C9.552,16.5514 10,16.9994 10,17.5514 C10,18.1044 9.552,18.5514 9,18.5514 L7.348,18.5514 C5.502,18.5514 4,17.1564 4,15.4414 L4,7.0004 C4,6.4474 4.448,6.0004 5,6.0004 L23,6.0004 C23.552,6.0004 24,6.4474 24,7.0004 L24,7.0004 Z" id="Page-1"></path>
        </g>
    </g>
</svg>