<?xml version="1.0" encoding="UTF-8" standalone="no"?>
<svg width="28px" height="28px" viewBox="0 0 28 28" version="1.1" xmlns="http://www.w3.org/2000/svg" xmlns:xlink="http://www.w3.org/1999/xlink">
    <!-- Generator: sketchtool 43.2 (39069) - http://www.bohemiancoding.com/sketch -->
    <title>pulse</title>
    <desc>Created with sketchtool.</desc>
    <defs></defs>
    <g id="Web" stroke="none" stroke-width="1" fill="none" fill-rule="evenodd">
        <g id="pulse" fill="#000000">
            <path d="M25.1202475,16.7453689 C25.0832475,17.0373689 24.8522475,17.2573689 24.5732475,17.2923689 L21.5732475,17.6673689 C21.1502475,17.7203689 20.7612475,17.4553689 20.6452475,17.0583689 L20.6132475,16.9483689 L17.6642475,6.86936891 L13.2112475,25.2353689 C13.0812475,25.7723689 12.5412475,26.1013689 12.0042475,25.9723689 C11.6072475,25.8753689 11.3232475,25.5533689 11.2552475,25.1753689 L9.20224747,13.6223689 L7.83524747,17.0383689 L7.80524747,17.1133689 C7.65724747,17.4843689 7.28524747,17.6993689 6.90724747,17.6673689 L2.57324747,17.2923689 C2.22824747,17.2623689 1.97324747,16.9583689 2.00224747,16.6133689 C2.02924747,16.3053689 2.27524747,16.0673689 2.57324747,16.0423689 L6.20524747,15.7273689 L8.64424747,9.62936891 C8.84924747,9.11636891 9.43224747,8.86636891 9.94524747,9.07136891 C10.2772475,9.20436891 10.4982475,9.49736891 10.5572475,9.82536891 L12.3912475,20.1353689 L16.6012475,2.76536891 C16.7312475,2.22736891 17.2722475,1.89836891 17.8092475,2.02836891 C18.1682475,2.11536891 18.4352475,2.38936891 18.5332475,2.71936891 L22.3502475,15.7643689 L24.5732475,16.0423689 C24.9182475,16.0853689 25.1632475,16.4003689 25.1202475,16.7453689" id="Fill-1"></path>
        </g>
    </g>
</svg>