<?xml version="1.0" encoding="UTF-8"?>
<svg width="20px" height="20px" viewBox="0 0 20 20" version="1.1" xmlns="http://www.w3.org/2000/svg" xmlns:xlink="http://www.w3.org/1999/xlink">
    <!-- Generator: sketchtool 43.2 (39069) - http://www.bohemiancoding.com/sketch -->
    <title>pulse--small</title>
    <desc>Created with sketchtool.</desc>
    <defs></defs>
    <g id="Web" stroke="none" stroke-width="1" fill="none" fill-rule="evenodd">
        <g id="pulse--small" fill="#000000">
            <path d="M18.576645,11.529661 C18.562645,11.681661 18.440645,11.799661 18.293645,11.812661 L16.293645,12.000661 C16.079645,12.020661 15.886645,11.884661 15.826645,11.685661 L15.814645,11.643661 L13.337645,3.38566103 L9.77864502,17.621661 C9.71164502,17.888661 9.43964502,18.051661 9.17264502,17.985661 C8.97564502,17.935661 8.83564502,17.776661 8.80164502,17.590661 L7.11264502,8.29966103 L5.75764502,11.685661 L5.74664502,11.713661 C5.67164502,11.901661 5.48464502,12.011661 5.29364502,12.000661 L2.29364502,11.812661 C2.12064502,11.801661 1.98964502,11.653661 2.00064502,11.480661 C2.01064502,11.321661 2.13864502,11.197661 2.29364502,11.187661 L4.94664502,11.021661 L6.82864502,6.31466103 C6.93164502,6.05766103 7.22264502,5.93366103 7.47864502,6.03666103 C7.64364502,6.10166103 7.75464502,6.24866103 7.78564502,6.41066103 L9.37064502,15.130661 L12.808645,1.37966103 C12.875645,1.11166103 13.146645,0.948661029 13.414645,1.01466103 C13.591645,1.05966103 13.722645,1.19366103 13.772645,1.35666103 L16.676645,11.036661 L18.293645,11.187661 C18.465645,11.204661 18.592645,11.356661 18.576645,11.529661" id="Fill-1"></path>
        </g>
    </g>
</svg>