<?xml version="1.0" encoding="UTF-8"?>
<svg width="24px" height="24px" viewBox="0 0 24 24" version="1.1" xmlns="http://www.w3.org/2000/svg" xmlns:xlink="http://www.w3.org/1999/xlink">
    <!-- Generator: sketchtool 52.3 (67297) - http://www.bohemiancoding.com/sketch -->
    <title>pulse</title>
    <desc>Created with sketchtool.</desc>
    <g id="Web" stroke="none" stroke-width="1" fill="none" fill-rule="evenodd">
        <g id="pulse" fill="#000000">
            <path d="M21.7157654,14.0076224 C21.6837656,14.2509521 21.483983,14.4342826 21.2426872,14.4634489 L18.6481088,14.7759442 C18.2822732,14.8201102 17.9458429,14.5992802 17.8455192,14.2684518 L17.8178437,14.1767865 L15.267373,5.77774632 L11.4161537,21.0825159 C11.303722,21.5300091 10.8366979,21.8041717 10.3722683,21.6966733 C10.0289191,21.6158412 9.78329902,21.3475119 9.72448858,21.0325166 L7.94893205,11.4051616 L6.76666913,14.2517854 L6.74072335,14.3142844 C6.61272414,14.6234465 6.29099642,14.8026104 5.96407953,14.7759442 L2.21577851,14.4634489 C1.91740199,14.4384492 1.69686282,14.1851197 1.72194375,13.8976241 C1.74529495,13.6409613 1.95805039,13.4426309 2.21577851,13.4217979 L5.35694817,13.1593018 L7.46634046,8.07771169 C7.64363665,7.65021813 8.14784973,7.44188793 8.59152265,7.61271869 C8.878656,7.72355036 9.06978995,7.96771335 9.12081666,8.24104256 L10.706969,16.8325799 L14.3480274,2.35779782 C14.4604591,1.90947124 14.9283481,1.6353087 15.3927777,1.7436404 C15.7032622,1.81613931 15.9341797,2.0444692 16.0189359,2.31946506 L19.3201046,13.1901347 L21.2426872,13.4217979 C21.5410637,13.4576307 21.7529543,13.7201267 21.7157654,14.0076224" id="Fill-1"></path>
        </g>
    </g>
</svg>