<?xml version="1.0" encoding="UTF-8"?>
<svg width="28px" height="28px" viewBox="0 0 28 28" version="1.1" xmlns="http://www.w3.org/2000/svg" xmlns:xlink="http://www.w3.org/1999/xlink">
    <!-- Generator: sketchtool 46.2 (44496) - http://www.bohemiancoding.com/sketch -->
    <title>refresh</title>
    <desc>Created with sketchtool.</desc>
    <defs></defs>
    <g id="Web" stroke="none" stroke-width="1" fill="none" fill-rule="evenodd">
        <g id="refresh" fill="#000000">
            <path d="M24.2246,2.996 C24.0296,2.801 23.7676,2.691 23.4846,2.689 C23.2176,2.689 22.9506,2.804 22.7526,3.001 C22.5546,3.2 22.4406,3.468 22.4416,3.735 L22.4436,5.466 C17.7586,0.83 10.1756,0.845 5.5096,5.511 C0.8286,10.191 0.8306,17.808 5.5116,22.489 C10.1906,27.168 17.8066,27.168 22.4866,22.487 C24.6936,20.28 25.9406,17.349 25.9996,14.232 C26.0036,13.954 25.9006,13.69 25.7066,13.488 C25.5136,13.292 25.2546,13.179 24.9766,13.171 C24.6926,13.164 24.4226,13.273 24.2186,13.478 C24.0266,13.67 23.9176,13.926 23.9126,14.197 C23.8626,16.771 22.8336,19.192 21.0126,21.014 C17.1466,24.88 10.8586,24.882 6.9946,21.018 C3.1316,17.155 3.1346,10.867 7.0006,7.001 C10.9496,3.052 16.9016,3.012 20.9146,6.894 L19.2956,6.877 C19.0296,6.878 18.7516,7.004 18.5346,7.221 C18.3156,7.439 18.1896,7.719 18.1886,7.987 C18.1906,8.561 18.6596,9.031 19.2356,9.034 L23.4886,9.032 C23.7576,9.032 24.0246,8.919 24.2216,8.723 C24.4186,8.524 24.5326,8.257 24.5316,7.988 L24.5326,3.735 C24.5316,3.456 24.4216,3.193 24.2246,2.996" id="Fill-1"></path>
        </g>
    </g>
</svg>