<?xml version="1.0" encoding="UTF-8"?>
<svg width="16px" height="16px" viewBox="0 0 16 16" version="1.1" xmlns="http://www.w3.org/2000/svg" xmlns:xlink="http://www.w3.org/1999/xlink">
    <!-- Generator: sketchtool 52.3 (67297) - http://www.bohemiancoding.com/sketch -->
    <title>refresh--small</title>
    <desc>Created with sketchtool.</desc>
    <g id="Web" stroke="none" stroke-width="1" fill="none" fill-rule="evenodd">
        <g id="refresh--small" fill="#000000">
            <path d="M13.9871551,1.54849415 C13.8987483,1.45921204 13.7814561,1.41194504 13.6562861,1.41106973 C13.4076967,1.41106973 13.1879927,1.62902311 13.1897433,1.87936314 L13.1897433,3.3140041 L12.9577849,3.05753686 C12.9560343,3.05491092 12.9542836,3.05140966 12.9516577,3.0479084 C10.2206755,0.316926227 5.77845292,0.317801542 3.04747074,3.0479084 C0.317363884,5.77801526 0.317363884,10.2202379 3.04834606,12.9503447 C5.77845292,15.6813269 10.2206755,15.6813269 12.9507824,12.9503447 C14.2374951,11.6645073 14.9648817,9.95501748 14.9998943,8.13611333 C15.0025203,8.01181863 14.9561286,7.89365113 14.8694724,7.8034937 C14.7828163,7.71421159 14.6672747,7.66344334 14.54298,7.66169271 C14.4143087,7.65819145 14.2943906,7.70720908 14.2033579,7.79824181 C14.117577,7.88402267 14.0694347,7.9986889 14.0668087,8.12035766 C14.037048,9.69504898 13.4068214,11.1769569 12.2916703,12.2912327 C9.92569443,14.6580839 6.07693526,14.6598345 3.71183468,12.2947339 C1.34673409,9.92875804 1.34936003,6.08262481 3.71621125,3.71664891 C6.07781058,1.35417426 9.80577631,1.24038334 12.2899197,3.70877107 L12.5323819,3.9232232 L11.159013,3.90834285 C10.9095483,3.90834285 10.6548317,4.16481008 10.6539563,4.4142748 C10.653081,4.67249267 10.8640319,4.88256822 11.1222498,4.88256822 L13.6571614,4.88256822 C13.9083768,4.8816929 14.1245795,4.66461483 14.1237042,4.41339949 L14.1245795,1.87936314 C14.1245795,1.75419313 14.0764372,1.63777626 13.9871551,1.54849415" id="Fill-1"></path>
        </g>
    </g>
</svg>