<?xml version="1.0" encoding="UTF-8" standalone="no"?>
<svg width="18px" height="18px" viewBox="0 0 18 18" version="1.1" xmlns="http://www.w3.org/2000/svg" xmlns:xlink="http://www.w3.org/1999/xlink">
    <!-- Generator: sketchtool 43.2 (39069) - http://www.bohemiancoding.com/sketch -->
    <title>send--small</title>
    <desc>Created with sketchtool.</desc>
    <defs></defs>
    <g id="Web" stroke="none" stroke-width="1" fill="none" fill-rule="evenodd">
        <g id="send--small" fill-rule="nonzero" fill="#000000">
            <path d="M1.00166493,10.1800458 L1.05729078,15.8635319 C0.959081313,16.197946 1.06153326,16.5607195 1.31839789,16.7880897 C1.57526252,17.0154599 1.93794333,17.0644103 2.24271944,16.9128438 L16.5427851,9.75688071 C16.822535,9.61589216 17,9.32244757 17,9.00086009 C17,8.67927262 16.822535,8.38582802 16.5427851,8.24483948 L2.24271944,1.08715624 C1.93794333,0.935589735 1.57526252,0.984540123 1.31839789,1.21191029 C1.06153326,1.43928046 0.959081313,1.80205398 1.05729078,2.13646813 L1,7.81307344 L9.29202415,8.46502295 C9.55526187,8.49191938 9.75585691,8.72067861 9.75585691,8.99397936 C9.75585691,9.2672801 9.55526187,9.49603934 9.29202415,9.52293576 L1.00166493,10.1800458 Z" id="Shape"></path>
        </g>
    </g>
</svg>