<?xml version="1.0" encoding="UTF-8" standalone="no"?>
<svg width="28px" height="28px" viewBox="0 0 28 28" version="1.1" xmlns="http://www.w3.org/2000/svg" xmlns:xlink="http://www.w3.org/1999/xlink">
    <!-- Generator: sketchtool 43.2 (39069) - http://www.bohemiancoding.com/sketch -->
    <title>sent-messages</title>
    <desc>Created with sketchtool.</desc>
    <defs></defs>
    <g id="Web" stroke="none" stroke-width="1" fill="none" fill-rule="evenodd">
        <g id="sent-messages" fill="#000000">
            <path d="M7,15 C7,14.448 7.45,14 8.007,14 L19.993,14 C20.549,14 21,14.444 21,15 C21,15.553 20.55,16 19.993,16 L8.007,16 C7.451,16 7,15.557 7,15 M7,9 C7,8.448 7.45,8 8.007,8 L19.993,8 C20.549,8 21,8.444 21,9 C21,9.552 20.55,10 19.993,10 L8.007,10 C7.451,10 7,9.556 7,9 M4,7.009 L4,20 L24,20 L24,7.009 C24,5.336 22.66,4 21.006,4 L6.994,4 C5.343,4 4,5.348 4,7.009 M26,6.663 L26,21.02 C26,23.766 23.766,26 21.02,26 L6.981,26 C4.234,26 2,23.766 2,21.02 L2,6.663 C2,4.092 4.234,2 6.981,2 L21.02,2 C23.766,2 26,4.092 26,6.663" id="Page-1"></path>
        </g>
    </g>
</svg>