<?xml version="1.0" encoding="UTF-8"?>
<svg width="16px" height="16px" viewBox="0 0 16 16" version="1.1" xmlns="http://www.w3.org/2000/svg" xmlns:xlink="http://www.w3.org/1999/xlink">
    <!-- Generator: (null) (null) ((null)) - http://www.bohemiancoding.com/sketch -->
    <title>sent-messages--small</title>
    <desc>Created with (null).</desc>
    <defs></defs>
    <g id="Web" stroke="none" stroke-width="1" fill="none" fill-rule="evenodd">
        <g id="sent-messages--small" fill="#000000">
            <path d="M4.11111111,8.38888889 C4.11111111,8.17422222 4.28844444,8 4.50777778,8 L11.4922222,8 C11.7107778,8 11.8888889,8.18044444 11.8888889,8.38888889 C11.8888889,8.60355556 11.7115556,8.77777778 11.4922222,8.77777778 L4.50777778,8.77777778 C4.28844444,8.77777778 4.11111111,8.59733333 4.11111111,8.38888889 M4.11111111,5.27777778 C4.11111111,5.06311111 4.28844444,4.88888889 4.50777778,4.88888889 L11.4922222,4.88888889 C11.7107778,4.88888889 11.8888889,5.06933333 11.8888889,5.27777778 C11.8888889,5.49244444 11.7115556,5.66666667 11.4922222,5.66666667 L4.50777778,5.66666667 C4.28844444,5.66666667 4.11111111,5.48622222 4.11111111,5.27777778 M1.77777778,4.11033333 L1.77777778,11.8888889 L14.2222222,11.8888889 L14.2222222,4.11033333 C14.2222222,2.82155556 13.1737778,1.77777778 11.8811111,1.77777778 L4.11811111,1.77777778 C2.81688889,1.77777778 1.77777778,2.82233333 1.77777778,4.11033333 M15,3.71988889 L15,12.0957778 C15,13.6964444 13.6964444,15 12.0957778,15 L3.90577778,15 C2.30277778,15 1,13.6964444 1,12.0957778 L1,3.71988889 C1,2.22033333 2.30277778,1 3.90577778,1 L12.0957778,1 C13.6964444,1 15,2.22033333 15,3.71988889" id="Page-1"></path>
        </g>
    </g>
</svg>