<?xml version="1.0" encoding="UTF-8" standalone="no"?>
<svg width="28px" height="28px" viewBox="0 0 28 28" version="1.1" xmlns="http://www.w3.org/2000/svg" xmlns:xlink="http://www.w3.org/1999/xlink">
    <!-- Generator: sketchtool 43.2 (39069) - http://www.bohemiancoding.com/sketch -->
    <title>show</title>
    <desc>Created with sketchtool.</desc>
    <defs></defs>
    <g id="Web" stroke="none" stroke-width="1" fill="none" fill-rule="evenodd">
        <g id="show" fill-rule="nonzero" fill="#000000">
            <path d="M14.0748474,5 C19.831673,5 24.9263481,8.53991504 27.005212,13.8151825 L27.1496949,14.1818182 L27.005212,14.5484539 C24.9263481,19.8237213 19.831673,23.3636364 14.0748474,23.3636364 C8.31802188,23.3636364 3.2233468,19.8237213 1.14448286,14.5484539 L1,14.1818182 L1.14448286,13.8151825 C3.2233468,8.53991504 8.31802188,5 14.0748474,5 Z M14.0748474,7 C9.28175728,7 5.02415696,9.86737968 3.15674723,14.1818182 C5.02415696,18.4962567 9.28175728,21.3636364 14.0748474,21.3636364 C18.8679376,21.3636364 23.1255379,18.4962567 24.9929477,14.1818182 C23.1255379,9.86737968 18.8679376,7 14.0748474,7 Z M14.0748474,9.90909091 C16.4380413,9.90909091 18.3475747,11.8186243 18.3475747,14.1818182 C18.3475747,16.545012 16.4380413,18.4545455 14.0748474,18.4545455 C11.7116536,18.4545455 9.80212017,16.545012 9.80212017,14.1818182 C9.80212017,11.8186243 11.7116536,9.90909091 14.0748474,9.90909091 Z M14.0748474,11.9090909 C12.8162231,11.9090909 11.8021202,12.9231938 11.8021202,14.1818182 C11.8021202,15.4404425 12.8162231,16.4545455 14.0748474,16.4545455 C15.3334718,16.4545455 16.3475747,15.4404425 16.3475747,14.1818182 C16.3475747,12.9231938 15.3334718,11.9090909 14.0748474,11.9090909 Z" id="Shape"></path>
        </g>
    </g>
</svg>