<?xml version="1.0" encoding="UTF-8"?>
<svg width="16px" height="16px" viewBox="0 0 16 16" version="1.1" xmlns="http://www.w3.org/2000/svg" xmlns:xlink="http://www.w3.org/1999/xlink">
    <!-- Generator: (null) (null) ((null)) - http://www.bohemiancoding.com/sketch -->
    <title>show--small</title>
    <desc>Created with (null).</desc>
    <defs></defs>
    <g id="Web" stroke="none" stroke-width="1" fill="none" fill-rule="evenodd">
        <g id="show--small" fill="#000000" fill-rule="nonzero">
            <path d="M8,3 C11.0900978,3 13.8248274,4.87301675 14.9407678,7.66434139 L15,7.8125 L14.9407678,7.96065861 C13.8248274,10.7519832 11.0900978,12.625 8,12.625 C4.90990217,12.625 2.17517258,10.7519832 1.05923216,7.96065861 L1,7.8125 L1.05923216,7.66434139 C2.17517258,4.87301675 4.90990217,3 8,3 Z M8,3.80208333 C5.25832181,3.80208333 2.82530695,5.40569017 1.77777778,7.8125 C2.82530695,10.2193098 5.25832181,11.8229167 8,11.8229167 C10.7416782,11.8229167 13.174693,10.2193098 14.2222222,7.8125 C13.174693,5.40569017 10.7416782,3.80208333 8,3.80208333 Z M8,5.40625 C9.29065495,5.40625 10.3333333,6.48151209 10.3333333,7.8125 C10.3333333,9.14348791 9.29065495,10.21875 8,10.21875 C6.70934505,10.21875 5.66666667,9.14348791 5.66666667,7.8125 C5.66666667,6.48151209 6.70934505,5.40625 8,5.40625 Z M8,6.20833333 C7.13877433,6.20833333 6.44444444,6.92436103 6.44444444,7.8125 C6.44444444,8.70063897 7.13877433,9.41666667 8,9.41666667 C8.86122567,9.41666667 9.55555556,8.70063897 9.55555556,7.8125 C9.55555556,6.92436103 8.86122567,6.20833333 8,6.20833333 Z" id="Shape-Copy-2"></path>
        </g>
    </g>
</svg>