<?xml version="1.0" encoding="UTF-8"?>
<svg width="24px" height="24px" viewBox="0 0 24 24" version="1.1" xmlns="http://www.w3.org/2000/svg" xmlns:xlink="http://www.w3.org/1999/xlink">
    <!-- Generator: sketchtool 46.2 (44496) - http://www.bohemiancoding.com/sketch -->
    <title>star</title>
    <desc>Created with sketchtool.</desc>
    <defs></defs>
    <g id="Web" stroke="none" stroke-width="1" fill="none" fill-rule="evenodd">
        <g id="star" fill="#000000">
            <path d="M11.9996694,2 C11.8146702,2 11.1955064,2.05666641 10.9746741,2.78332977 L8.66635123,8.6183032 L3.07721001,8.6183032 C2.39637977,8.6183032 2.14388092,9.13663418 2.06721461,9.35913317 C2.00471489,9.54329899 1.84554895,10.1774628 2.43721292,10.6391273 L6.99969215,14.517443 L5.59136523,20.5382489 C5.44969921,21.0057468 5.59719854,21.3424119 5.74553119,21.542411 C5.9630302,21.833243 6.28886205,21.999909 6.6230272,21.999909 C6.84052621,21.999909 7.06052521,21.9290759 7.25635765,21.7757433 L11.9996694,18.6665908 L16.7396478,21.7757433 C16.9354803,21.9274093 17.1563126,21.997409 17.3738116,21.997409 C17.7096434,21.997409 18.0371419,21.8315764 18.2521409,21.5415777 C18.4013069,21.3424119 18.5479729,21.0049135 18.4063069,20.5399156 L16.9996466,14.4999431 L21.5629592,10.6391273 C22.1546232,10.1774628 21.9954572,9.54496565 21.9321242,9.36079982 C21.8554579,9.13663418 21.6037923,8.6183032 20.9212954,8.6183032 L15.3329875,8.6183032 L13.0238314,2.78249644 C12.8038324,2.05666641 12.1838352,2 11.9996694,2 M11.9996694,4.7249876 L13.7829946,9.23246708 L14.2004927,10.2849623 L15.3329875,10.2849623 L19.400469,10.2849623 L15.9229849,13.2282822 L15.1454884,13.8857792 L15.3763207,14.8782747 L16.4788157,19.6124198 L12.9138319,17.2732638 L11.9996694,16.6732665 L11.0855069,17.2724305 L7.52052311,19.6107532 L8.62218477,14.896608 L8.85468371,13.9057791 L8.07885391,13.2466155 L4.59386977,10.2849623 L8.66635123,10.2849623 L9.79884608,10.2849623 L10.2163442,9.23163375 L11.9996694,4.7249876" id="Fill-1"></path>
        </g>
    </g>
</svg>