<?xml version="1.0" encoding="UTF-8"?>
<svg width="28px" height="28px" viewBox="0 0 28 28" version="1.1" xmlns="http://www.w3.org/2000/svg" xmlns:xlink="http://www.w3.org/1999/xlink">
    <!-- Generator: sketchtool 46.2 (44496) - http://www.bohemiancoding.com/sketch -->
    <title>star</title>
    <desc>Created with sketchtool.</desc>
    <defs></defs>
    <g id="Web" stroke="none" stroke-width="1" fill="none" fill-rule="evenodd">
        <g id="star" fill="#000000">
            <path d="M13.9996579,2 C13.7776579,2 13.0346579,2.068 12.7696579,2.94 L9.99965789,9.942 L3.29265789,9.942 C2.47565789,9.942 2.17265789,10.564 2.08065789,10.831 C2.00565789,11.052 1.81465789,11.813 2.52465789,12.367 L7.99965789,17.021 L6.30965789,24.246 C6.13965789,24.807 6.31665789,25.211 6.49465789,25.451 C6.75565789,25.8 7.14665789,26 7.54765789,26 C7.80865789,26 8.07265789,25.915 8.30765789,25.731 L13.9996579,22 L19.6876579,25.731 C19.9226579,25.913 20.1876579,25.997 20.4486579,25.997 C20.8516579,25.997 21.2446579,25.798 21.5026579,25.45 C21.6816579,25.211 21.8576579,24.806 21.6876579,24.248 L19.9996579,17 L25.4756579,12.367 C26.1856579,11.813 25.9946579,11.054 25.9186579,10.833 C25.8266579,10.564 25.5246579,9.942 24.7056579,9.942 L17.9996579,9.942 L15.2286579,2.939 C14.9646579,2.068 14.2206579,2 13.9996579,2 M13.9996579,5.27 L16.1396579,10.679 L16.6406579,11.942 L17.9996579,11.942 L22.8806579,11.942 L18.7076579,15.474 L17.7746579,16.263 L18.0516579,17.454 L19.3746579,23.135 L15.0966579,20.328 L13.9996579,19.608 L12.9026579,20.327 L8.62465789,23.133 L9.94665789,17.476 L10.2256579,16.287 L9.29465789,15.496 L5.11265789,11.942 L9.99965789,11.942 L11.3586579,11.942 L11.8596579,10.678 L13.9996579,5.27" id="Fill-1"></path>
        </g>
    </g>
</svg>