<?xml version="1.0" encoding="UTF-8" standalone="no"?>
<svg width="28px" height="28px" viewBox="0 0 28 28" version="1.1" xmlns="http://www.w3.org/2000/svg" xmlns:xlink="http://www.w3.org/1999/xlink">
    <!-- Generator: sketchtool 43.2 (39069) - http://www.bohemiancoding.com/sketch -->
    <title>textblock</title>
    <desc>Created with sketchtool.</desc>
    <defs></defs>
    <g id="Web" stroke="none" stroke-width="1" fill="none" fill-rule="evenodd">
        <g id="textblock" fill="#000000">
            <path d="M17,19 C17,19.552 16.553,20 16,20 L7,20 C6.448,20 6,19.552 6,19 C6,18.448 6.448,18 7,18 L16,18 C16.553,18 17,18.448 17,19 L17,19 Z M22,9 C22,9.552 21.553,10 21,10 L7,10 C6.448,10 6,9.552 6,9 C6,8.448 6.448,8 7,8 L21,8 C21.553,8 22,8.448 22,9 L22,9 Z M22,14 C22,14.552 21.553,15 21,15 L7,15 C6.448,15 6,14.552 6,14 C6,13.448 6.448,13 7,13 L21,13 C21.553,13 22,13.448 22,14 L22,14 Z M24,22 C24,23.103 23.103,24 22,24 L6,24 C4.897,24 4,23.103 4,22 L4,6 C4,4.896 4.897,4 6,4 L22,4 C23.103,4 24,4.896 24,6 L24,22 Z M22,2 L6,2 C3.794,2 2,3.794 2,6 L2,22 C2,24.206 3.794,26 6,26 L22,26 C24.206,26 26,24.206 26,22 L26,6 C26,3.794 24.206,2 22,2 L22,2 Z" id="Page-1"></path>
        </g>
    </g>
</svg>