<?xml version="1.0" encoding="UTF-8"?>
<svg width="16px" height="16px" viewBox="0 0 16 16" version="1.1" xmlns="http://www.w3.org/2000/svg" xmlns:xlink="http://www.w3.org/1999/xlink">
    <!-- Generator: (null) (null) ((null)) - http://www.bohemiancoding.com/sketch -->
    <title>textblock--small</title>
    <desc>Created with (null).</desc>
    <defs></defs>
    <g id="Web" stroke="none" stroke-width="1" fill="none" fill-rule="evenodd">
        <g id="textblock--small" fill="#000000">
            <path d="M9.55555556,11.1111111 C9.55555556,11.3257778 9.38133333,11.5 9.16666667,11.5 L3.72222222,11.5 C3.50755556,11.5 3.33333333,11.3257778 3.33333333,11.1111111 C3.33333333,10.8964444 3.50755556,10.7222222 3.72222222,10.7222222 L9.16666667,10.7222222 C9.38133333,10.7222222 9.55555556,10.8964444 9.55555556,11.1111111 Z M12.6666667,4.88888889 C12.6666667,5.10355556 12.4924444,5.27777778 12.2777778,5.27777778 L3.72222222,5.27777778 C3.50755556,5.27777778 3.33333333,5.10355556 3.33333333,4.88888889 C3.33333333,4.67422222 3.50755556,4.5 3.72222222,4.5 L12.2777778,4.5 C12.4924444,4.5 12.6666667,4.67422222 12.6666667,4.88888889 Z M12.6666667,8 C12.6666667,8.21466667 12.4924444,8.38888889 12.2777778,8.38888889 L3.72222222,8.38888889 C3.50755556,8.38888889 3.33333333,8.21466667 3.33333333,8 C3.33333333,7.78533333 3.50755556,7.61111111 3.72222222,7.61111111 L12.2777778,7.61111111 C12.4924444,7.61111111 12.6666667,7.78533333 12.6666667,8 Z M14.2222222,12.2777778 C14.2222222,13.3503333 13.3503333,14.2222222 12.2777778,14.2222222 L3.72222222,14.2222222 C2.65044444,14.2222222 1.77777778,13.3503333 1.77777778,12.2777778 L1.77777778,3.72222222 C1.77777778,2.64966667 2.65044444,1.77777778 3.72222222,1.77777778 L12.2777778,1.77777778 C13.3503333,1.77777778 14.2222222,2.64966667 14.2222222,3.72222222 L14.2222222,12.2777778 Z M12.2777778,1 L3.72222222,1 C2.22111111,1 1,2.22111111 1,3.72222222 L1,12.2777778 C1,13.7788889 2.22111111,15 3.72222222,15 L12.2777778,15 C13.7781111,15 15,13.7788889 15,12.2777778 L15,3.72222222 C15,2.22111111 13.7781111,1 12.2777778,1 Z" id="Fill-1"></path>
        </g>
    </g>
</svg>