<?xml version="1.0" encoding="UTF-8"?>
<svg width="28px" height="28px" viewBox="0 0 28 28" version="1.1" xmlns="http://www.w3.org/2000/svg" xmlns:xlink="http://www.w3.org/1999/xlink">
    <!-- Generator: sketchtool 46.2 (44496) - http://www.bohemiancoding.com/sketch -->
    <title>ticket</title>
    <desc>Created with sketchtool.</desc>
    <defs></defs>
    <g id="Web" stroke="none" stroke-width="1" fill="none" fill-rule="evenodd">
        <g id="ticket" fill="#000000">
            <path d="M18,14 C18,13.447 17.552,13 17,13 L7,13 C6.448,13 6,13.447 6,14 C6,14.553 6.448,15 7,15 L17,15 C17.552,15 18,14.553 18,14 L18,14 Z M18,10 C18,9.447 17.552,9 17,9 L7,9 C6.448,9 6,9.447 6,10 C6,10.553 6.448,11 7,11 L17,11 C17.552,11 18,10.553 18,10 L18,10 Z M26,8 C26,6.897 25.103,6 24,6 L4,6 C2.897,6 2,6.897 2,8 L2,11.78 C2.609,12.33 3,13.117 3,14 C3,14.883 2.609,15.67 2,16.22 L2,20 C2,21.103 2.897,22 4,22 L24,22 C25.103,22 26,21.103 26,20 L26,16.22 C25.391,15.67 25,14.883 25,14 C25,13.117 25.391,12.33 26,11.78 L26,8 Z M28,8 L28,13 C27.449,13 27,13.448 27,14 C27,14.552 27.449,15 28,15 L28,20 C28,22.2 26.2,24 24,24 L4,24 C1.8,24 0,22.2 0,20 L0,15 C0.551,15 1,14.552 1,14 C1,13.448 0.551,13 0,13 L0,8 C0,5.8 1.8,4 4,4 L24,4 C26.2,4 28,5.8 28,8 L28,8 Z M21,19 C20.448,19 20,19.447 20,20 C20,20.553 20.448,21 21,21 C21.552,21 22,20.553 22,20 C22,19.447 21.552,19 21,19 L21,19 Z M21,15 C20.448,15 20,15.447 20,16 C20,16.553 20.448,17 21,17 C21.552,17 22,16.553 22,16 C22,15.447 21.552,15 21,15 L21,15 Z M21,11 C20.448,11 20,11.447 20,12 C20,12.553 20.448,13 21,13 C21.552,13 22,12.553 22,12 C22,11.447 21.552,11 21,11 L21,11 Z M22,8 C22,8.553 21.552,9 21,9 C20.448,9 20,8.553 20,8 C20,7.447 20.448,7 21,7 C21.552,7 22,7.447 22,8 L22,8 Z" id="Page-1"></path>
        </g>
    </g>
</svg>