<?xml version="1.0" encoding="UTF-8"?>
<svg width="28px" height="28px" viewBox="0 0 28 28" version="1.1" xmlns="http://www.w3.org/2000/svg" xmlns:xlink="http://www.w3.org/1999/xlink">
    <!-- Generator: sketchtool 46.2 (44496) - http://www.bohemiancoding.com/sketch -->
    <title>trash</title>
    <desc>Created with sketchtool.</desc>
    <defs></defs>
    <g id="Web" stroke="none" stroke-width="1" fill="none" fill-rule="evenodd">
        <g id="trash" fill="#000000">
            <path d="M13,23 L13,7 C13,6.447 13.448,6 14,6 C14.552,6 15,6.447 15,7 L15,23 C15,23.553 14.552,24 14,24 C13.448,24 13,23.553 13,23 L13,23 Z M17.002,22.938 L18.002,6.938 C18.037,6.386 18.513,5.977 19.062,6.002 C19.614,6.036 20.033,6.511 19.998,7.062 L18.998,23.062 C18.965,23.593 18.525,24 18.001,24 C17.98,24 17.959,23.999 17.937,23.998 C17.386,23.964 16.967,23.489 17.002,22.938 L17.002,22.938 Z M9.002,23.062 L8.002,7.062 C7.967,6.511 8.386,6.036 8.938,6.002 C9.5,5.973 9.964,6.386 9.998,6.938 L10.998,22.938 C11.033,23.489 10.614,23.964 10.062,23.998 C10.041,23.999 10.02,24 9.999,24 C9.475,24 9.035,23.593 9.002,23.062 L9.002,23.062 Z M20.054,25.323 L20,25.411 L20,25.5 C20,25.647 19.91,25.87 19.821,26 L8.247,26 C8.131,25.878 8.004,25.631 8,25.5 L8,25.411 L7.992,25.323 L6.186,5 L21.907,5 L20.054,25.323 Z M11,2 L17,2 C17.526,2 17.85,2.017 18.452,3 L9.548,3 C10.15,2.017 10.474,2 11,2 L11,2 Z M25,3 L24,3 L21.333,3 L20,1 C19.629,0.443 19,0 18,0 L10,0 C9,0 8.371,0.443 8,1 L6.667,3 L4,3 L3,3 C2.448,3 2,3.447 2,4 C2,4.553 2.448,5 3,5 L4.178,5 L6,25.5 C6,26.604 6.958,28 8.063,28 L20.062,28 C21.167,28 22,26.604 22,25.5 L23.822,5 L25,5 C25.552,5 26,4.553 26,4 C26,3.447 25.552,3 25,3 L25,3 Z" id="Page-1"></path>
        </g>
    </g>
</svg>