<?xml version="1.0" encoding="UTF-8"?>
<svg width="16px" height="16px" viewBox="0 0 16 16" version="1.1" xmlns="http://www.w3.org/2000/svg" xmlns:xlink="http://www.w3.org/1999/xlink">
    <!-- Generator: sketchtool 46.2 (44496) - http://www.bohemiancoding.com/sketch -->
    <title>trash--small</title>
    <desc>Created with sketchtool.</desc>
    <defs></defs>
    <g id="Web" stroke="none" stroke-width="1" fill="none" fill-rule="evenodd">
        <g id="trash--small" fill="#000000">
            <path d="M12.1701481,2.4 L12.1203704,2.4 L11.6076593,2.4 L4.33761481,2.4 L3.72534815,2.4 L4.65204444,15.144 L4.6537037,15.172 L4.6537037,15.1984 C4.66863704,15.1992 4.68605926,15.2 4.70597037,15.2 L11.2393037,15.2 C11.2583852,15.2 11.2758074,15.1992 11.2907407,15.1984 L11.2907407,15.172 L11.2683407,15.144 L12.1701481,2.4 Z M4.7516,1.6 L11.1936741,1.6 L10.9207259,1.0736 C10.8568444,0.9504 10.6029778,0.8 10.4611111,0.8 L5.48333333,0.8 C5.3422963,0.8 5.08842963,0.9504 5.02454815,1.0736 L4.7516,1.6 Z M14.1944444,2 C14.1944444,2.2208 14.009437,2.4 13.7796296,2.4 L13.0512148,2.4 L12.1203704,15.2 C12.1203704,15.7472 11.8076,16 11.2393037,16 L4.70597037,16 C4.1385037,16 3.82407407,15.7472 3.82407407,15.2 L2.89322963,2.4 L2.16481481,2.4 C1.93583704,2.4 1.75,2.2208 1.75,2 C1.75,1.7792 1.93583704,1.6 2.16481481,1.6 L2.83515556,1.6 L3.82407407,1.6 L4.28368889,0.716 C4.48694815,0.3216 5.02786667,0 5.48333333,0 L10.4611111,0 C10.9174074,0 11.4583259,0.3216 11.6615852,0.716 L12.1203704,1.6 L13.1101185,1.6 L13.7796296,1.6 C14.009437,1.6 14.1944444,1.7792 14.1944444,2 L14.1944444,2 Z M10.6388889,3.95061728 C10.6388889,3.73254321 10.4406667,3.55555556 10.1944444,3.55555556 C9.94911111,3.55555556 9.75,3.73254321 9.75,3.95061728 L9.75,13.8271605 C9.75,14.0452346 9.94911111,14.2222222 10.1944444,14.2222222 C10.4406667,14.2222222 10.6388889,14.0452346 10.6388889,13.8271605 L10.6388889,3.95061728 Z M6.19444444,3.95061728 C6.19444444,3.73254321 5.99622222,3.55555556 5.75,3.55555556 C5.50466667,3.55555556 5.30555556,3.73254321 5.30555556,3.95061728 L5.30555556,13.8271605 C5.30555556,14.0452346 5.50466667,14.2222222 5.75,14.2222222 C5.99622222,14.2222222 6.19444444,14.0452346 6.19444444,13.8271605 L6.19444444,3.95061728 Z M8.41666667,13.8271605 C8.41666667,14.0452346 8.21844444,14.2222222 7.97222222,14.2222222 C7.72688889,14.2222222 7.52777778,14.0452346 7.52777778,13.8271605 L7.52777778,3.95061728 C7.52777778,3.73254321 7.72688889,3.55555556 7.97222222,3.55555556 C8.21844444,3.55555556 8.41666667,3.73254321 8.41666667,3.95061728 L8.41666667,13.8271605 Z" id="Fill-1"></path>
        </g>
    </g>
</svg>