<?xml version="1.0" encoding="UTF-8" standalone="no"?>
<svg width="20px" height="20px" viewBox="0 0 20 20" version="1.1" xmlns="http://www.w3.org/2000/svg" xmlns:xlink="http://www.w3.org/1999/xlink">
    <!-- Generator: sketchtool 43.2 (39069) - http://www.bohemiancoding.com/sketch -->
    <title>tune--small</title>
    <desc>Created with sketchtool.</desc>
    <defs></defs>
    <g id="Web" stroke="none" stroke-width="1" fill="none" fill-rule="evenodd">
        <g id="tune--small" fill="#000000">
            <path d="M5,9.5 L1.49769878,9.5 C1.21484375,9.5 1,9.72385763 1,10 C1,10.2680664 1.22282734,10.5 1.49769878,10.5 L5,10.5 L5,12.1744792 C5,12.4375 5.22385763,12.6666667 5.5,12.6666667 C5.76806641,12.6666667 6,12.4463068 6,12.1744792 L6,7.82552083 C6,7.5625 5.77614237,7.33333333 5.5,7.33333333 C5.23193359,7.33333333 5,7.55369318 5,7.82552083 L5,9.5 Z M9,16 L18.4987692,16 C18.7755913,16 19,16.2319336 19,16.5 C19,16.7761424 18.7702494,17 18.4987692,17 L9,17 L9,18.5078125 C9,18.7796402 8.76806641,19 8.5,19 C8.22385763,19 8,18.7708333 8,18.5078125 L8,14.1588542 C8,13.8870265 8.23193359,13.6666667 8.5,13.6666667 C8.77614237,13.6666667 9,13.8958333 9,14.1588542 L9,16 Z M14,3 L18.5089948,3 C18.7801695,3 19,3.23193359 19,3.5 C19,3.77614237 18.7721195,4 18.5089948,4 L14,4 L14,5.84114583 C14,6.11297348 13.7680664,6.33333333 13.5,6.33333333 C13.2238576,6.33333333 13,6.10416667 13,5.84114583 L13,1.4921875 C13,1.22035985 13.2319336,1 13.5,1 C13.7761424,1 14,1.22916667 14,1.4921875 L14,3 Z M1,3.5 C1,3.22385763 1.22765279,3 1.50964952,3 L10.4903505,3 C10.7718221,3 11,3.23193359 11,3.5 C11,3.77614237 10.7723472,4 10.4903505,4 L1.50964952,4 C1.22817786,4 1,3.76806641 1,3.5 Z M8,10 C8,9.72385763 8.22975063,9.5 8.50123084,9.5 L18.4987692,9.5 C18.7755913,9.5 19,9.73193359 19,10 C19,10.2761424 18.7702494,10.5 18.4987692,10.5 L8.50123084,10.5 C8.22440869,10.5 8,10.2680664 8,10 Z M1,16.5 C1,16.2238576 1.21484375,16 1.49769878,16 L5.50230122,16 C5.77717266,16 6,16.2319336 6,16.5 C6,16.7761424 5.78515625,17 5.50230122,17 L1.49769878,17 C1.22282734,17 1,16.7680664 1,16.5 Z" id="Combined-Shape"></path>
        </g>
    </g>
</svg>