<?xml version="1.0" encoding="UTF-8" standalone="no"?>
<svg width="28px" height="28px" viewBox="0 0 28 28" version="1.1" xmlns="http://www.w3.org/2000/svg" xmlns:xlink="http://www.w3.org/1999/xlink">
    <!-- Generator: sketchtool 43.2 (39069) - http://www.bohemiancoding.com/sketch -->
    <title>tune</title>
    <desc>Created with sketchtool.</desc>
    <defs></defs>
    <g id="Web" stroke="none" stroke-width="1" fill="none" fill-rule="evenodd">
        <g id="tune" fill="#000000">
            <path d="M16,22 L24.9975267,22 C25.5511774,22 26,22.4438648 26,23 C26,23.5522847 25.544239,24 24.9975267,24 L16,24 L16,25.009222 C16,25.5564136 15.5561352,26 15,26 C14.4477153,26 14,25.5490248 14,25.009222 L14,20.990778 C14,20.4435864 14.4438648,20 15,20 C15.5522847,20 16,20.4509752 16,20.990778 L16,22 Z M10,13 L2.99754465,13 C2.4463114,13 2,13.4477153 2,14 C2,14.5561352 2.44661595,15 2.99754465,15 L10,15 L10,16.009222 C10,16.5490248 10.4477153,17 11,17 C11.5561352,17 12,16.5564136 12,16.009222 L12,11.990778 C12,11.4509752 11.5522847,11 11,11 C10.4438648,11 10,11.4435864 10,11.990778 L10,13 Z M20,4 L25.0029699,4 C25.5536144,4 26,4.44386482 26,5 C26,5.55228475 25.5469637,6 25.0029699,6 L20,6 L20,7.00922203 C20,7.55641359 19.5561352,8 19,8 C18.4477153,8 18,7.54902482 18,7.00922203 L18,2.99077797 C18,2.44358641 18.4438648,2 19,2 C19.5522847,2 20,2.45097518 20,2.99077797 L20,4 Z M2,23 C2,22.4477153 2.4556644,22 2.99539757,22 L11.0046024,22 C11.5543453,22 12,22.4438648 12,23 C12,23.5522847 11.5443356,24 11.0046024,24 L2.99539757,24 C2.44565467,24 2,23.5561352 2,23 Z M14,14 C14,13.4477153 14.455761,13 15.0024733,13 L24.9975267,13 C25.5511774,13 26,13.4438648 26,14 C26,14.5522847 25.544239,15 24.9975267,15 L15.0024733,15 C14.4488226,15 14,14.5561352 14,14 Z M2,5 C2,4.44771525 2.44994876,4 3.00684547,4 L14.9931545,4 C15.5492199,4 16,4.44386482 16,5 C16,5.55228475 15.5500512,6 14.9931545,6 L3.00684547,6 C2.45078007,6 2,5.55613518 2,5 Z" id="Combined-Shape"></path>
        </g>
    </g>
</svg>