<?xml version="1.0" encoding="UTF-8"?>
<svg width="20px" height="20px" viewBox="0 0 20 20" version="1.1" xmlns="http://www.w3.org/2000/svg" xmlns:xlink="http://www.w3.org/1999/xlink">
    <!-- Generator: sketchtool 46.2 (44496) - http://www.bohemiancoding.com/sketch -->
    <title>tune--small</title>
    <desc>Created with sketchtool.</desc>
    <defs></defs>
    <g id="Web" stroke="none" stroke-width="1" fill="none" fill-rule="evenodd">
        <g id="tune--small" fill="#000000">
            <path d="M5,9.5 L1.5,9.5 L1.5,9.5 C1.22385763,9.5 1,9.72385763 1,10 C1,10.2761424 1.22385763,10.5 1.5,10.5 L5,10.5 L5,12.1666667 C5,12.442809 5.22385763,12.6666667 5.5,12.6666667 C5.77614237,12.6666667 6,12.442809 6,12.1666667 L6,7.83333333 C6,7.55719096 5.77614237,7.33333333 5.5,7.33333333 C5.22385763,7.33333333 5,7.55719096 5,7.83333333 L5,9.5 Z M9,16 L18.5,16 C18.7761424,16 19,16.2238576 19,16.5 C19,16.7761424 18.7761424,17 18.5,17 L9,17 L9,18.5 C9,18.7761424 8.77614237,19 8.5,19 C8.22385763,19 8,18.7761424 8,18.5 L8,14.1666667 C8,13.8905243 8.22385763,13.6666667 8.5,13.6666667 C8.77614237,13.6666667 9,13.8905243 9,14.1666667 L9,16 Z M14,3 L18.5,3 C18.7761424,3 19,3.22385763 19,3.5 C19,3.77614237 18.7761424,4 18.5,4 L14,4 L14,5.83333333 C14,6.10947571 13.7761424,6.33333333 13.5,6.33333333 C13.2238576,6.33333333 13,6.10947571 13,5.83333333 L13,1.5 L13,1.5 C13,1.22385763 13.2238576,1 13.5,1 C13.7761424,1 14,1.22385763 14,1.5 L14,3 Z M1.5,3 L10.5,3 C10.7761424,3 11,3.22385763 11,3.5 C11,3.77614237 10.7761424,4 10.5,4 L1.5,4 C1.22385763,4 1,3.77614237 1,3.5 C1,3.22385763 1.22385763,3 1.5,3 L1.5,3 Z M8.5,9.5 L18.5,9.5 C18.7761424,9.5 19,9.72385763 19,10 C19,10.2761424 18.7761424,10.5 18.5,10.5 L8.5,10.5 C8.22385763,10.5 8,10.2761424 8,10 C8,9.72385763 8.22385763,9.5 8.5,9.5 Z M1.5,16 L5.5,16 C5.77614237,16 6,16.2238576 6,16.5 C6,16.7761424 5.77614237,17 5.5,17 L1.5,17 C1.22385763,17 1,16.7761424 1,16.5 C1,16.2238576 1.22385763,16 1.5,16 L1.5,16 Z" id="Combined-Shape"></path>
        </g>
    </g>
</svg>