<?xml version="1.0" encoding="UTF-8"?>
<svg width="28px" height="28px" viewBox="0 0 28 28" version="1.1" xmlns="http://www.w3.org/2000/svg" xmlns:xlink="http://www.w3.org/1999/xlink">
    <!-- Generator: sketchtool 46.2 (44496) - http://www.bohemiancoding.com/sketch -->
    <title>tune</title>
    <desc>Created with sketchtool.</desc>
    <defs></defs>
    <g id="Web" stroke="none" stroke-width="1" fill="none" fill-rule="evenodd">
        <g id="tune" fill="#000000">
            <path d="M16,22 L25,22 C25.5522847,22 26,22.4477153 26,23 C26,23.5522847 25.5522847,24 25,24 L16,24 L16,25 C16,25.5522847 15.5522847,26 15,26 C14.4477153,26 14,25.5522847 14,25 L14,21 C14,20.4477153 14.4477153,20 15,20 C15.5522847,20 16,20.4477153 16,21 L16,22 Z M10,13 L3,13 L3,13 C2.44771525,13 2,13.4477153 2,14 C2,14.5522847 2.44771525,15 3,15 L10,15 L10,16 C10,16.5522847 10.4477153,17 11,17 C11.5522847,17 12,16.5522847 12,16 L12,12 C12,11.4477153 11.5522847,11 11,11 C10.4477153,11 10,11.4477153 10,12 L10,13 Z M20,4 L25,4 C25.5522847,4 26,4.44771525 26,5 C26,5.55228475 25.5522847,6 25,6 L20,6 L20,7 C20,7.55228475 19.5522847,8 19,8 C18.4477153,8 18,7.55228475 18,7 L18,3 L18,3 C18,2.44771525 18.4477153,2 19,2 C19.5522847,2 20,2.44771525 20,3 L20,4 Z M3,22 L11,22 C11.5522847,22 12,22.4477153 12,23 C12,23.5522847 11.5522847,24 11,24 L3,24 C2.44771525,24 2,23.5522847 2,23 C2,22.4477153 2.44771525,22 3,22 L3,22 Z M15,13 L25,13 C25.5522847,13 26,13.4477153 26,14 C26,14.5522847 25.5522847,15 25,15 L15,15 C14.4477153,15 14,14.5522847 14,14 C14,13.4477153 14.4477153,13 15,13 Z M3,4 L15,4 C15.5522847,4 16,4.44771525 16,5 C16,5.55228475 15.5522847,6 15,6 L3,6 C2.44771525,6 2,5.55228475 2,5 C2,4.44771525 2.44771525,4 3,4 L3,4 Z" id="Combined-Shape"></path>
        </g>
    </g>
</svg>