<?xml version="1.0" encoding="UTF-8"?>
<svg width="16px" height="16px" viewBox="0 0 16 16" version="1.1" xmlns="http://www.w3.org/2000/svg" xmlns:xlink="http://www.w3.org/1999/xlink">
    <!-- Generator: sketchtool 52.3 (67297) - http://www.bohemiancoding.com/sketch -->
    <title>updates--small</title>
    <desc>Created with sketchtool.</desc>
    <g id="Web" stroke="none" stroke-width="1" fill="none" fill-rule="evenodd">
        <g id="updates--small" fill="#000000">
            <path d="M14.6111111,8.38888889 C14.3964444,8.38888889 14.2222222,8.21466667 14.2222222,8 C14.2222222,11.4307778 11.4307778,14.2222222 8,14.2222222 C4.56922222,14.2222222 1.77777778,11.4307778 1.77777778,8 C1.77777778,4.56922222 4.56922222,1.77777778 8,1.77777778 C7.78533333,1.77777778 7.61111111,1.60355556 7.61111111,1.38888889 C7.61111111,1.17422222 7.78533333,1 8,1 C4.14066667,1 1,4.13988889 1,8 C1,11.8601111 4.14066667,15 8,15 C11.8593333,15 15,11.8601111 15,8 C15,8.21466667 14.8257778,8.38888889 14.6111111,8.38888889" id="Page-1"></path>
        </g>
    </g>
</svg>