<?xml version="1.0" encoding="UTF-8"?>
<svg width="24px" height="24px" viewBox="0 0 24 24" version="1.1" xmlns="http://www.w3.org/2000/svg" xmlns:xlink="http://www.w3.org/1999/xlink">
    <!-- Generator: sketchtool 52.3 (67297) - http://www.bohemiancoding.com/sketch -->
    <title>updates</title>
    <desc>Created with sketchtool.</desc>
    <g id="Web" stroke="none" stroke-width="1" fill="none" fill-rule="evenodd">
        <g id="updates" fill="#000000">
            <path d="M21.1666667,12.8333333 C20.7066667,12.8333333 20.3333333,12.4608333 20.3333333,12 C20.3333333,16.595 16.595,20.3333333 12,20.3333333 C7.405,20.3333333 3.66666667,16.595 3.66666667,12 C3.66666667,7.405 7.405,3.66666667 12,3.66666667 C11.54,3.66666667 11.1666667,3.29416667 11.1666667,2.83333333 C11.1666667,2.3725 11.54,2 12,2 C6.48583333,2 2,6.48583333 2,12 C2,17.5141667 6.48583333,22 12,22 C17.5141667,22 22,17.5141667 22,12 C22,12.4608333 21.6266667,12.8333333 21.1666667,12.8333333" id="Page-1"></path>
        </g>
    </g>
</svg>