<?xml version="1.0" encoding="UTF-8" standalone="no"?>
<svg width="28px" height="28px" viewBox="0 0 28 28" version="1.1" xmlns="http://www.w3.org/2000/svg" xmlns:xlink="http://www.w3.org/1999/xlink">
    <!-- Generator: sketchtool 43.2 (39069) - http://www.bohemiancoding.com/sketch -->
    <title>Web-default</title>
    <desc>Created with sketchtool.</desc>
    <defs></defs>
    <g id="Web" stroke="none" stroke-width="1" fill="none" fill-rule="evenodd">
        <g id="Web-default" fill="#000000">
            <path d="M26,6.663 L26,21.02 C26,23.766 23.766,26 21.02,26 L6.981,26 C4.234,26 2,23.766 2,21.02 L2,6.663 C2,4.092 4.234,2 6.981,2 L21.02,2 C23.766,2 26,4.092 26,6.663 Z M4,7.00947762 L4,20 L24,20 L24,7.00947762 C24,5.33663106 22.6594501,4 21.0057979,4 L6.99420208,4 C5.34331197,4 4,5.34738902 4,7.00947762 Z M7,9 C7,8.44771525 7.44994876,8 8.00684547,8 L19.9931545,8 C20.5492199,8 21,8.44386482 21,9 C21,9.55228475 20.5500512,10 19.9931545,10 L8.00684547,10 C7.45078007,10 7,9.55613518 7,9 Z M7,15 C7,14.4477153 7.44994876,14 8.00684547,14 L19.9931545,14 C20.5492199,14 21,14.4438648 21,15 C21,15.5522847 20.5500512,16 19.9931545,16 L8.00684547,16 C7.45078007,16 7,15.5561352 7,15 Z" id="Combined-Shape"></path>
        </g>
    </g>
</svg>