<?xml version="1.0" encoding="UTF-8" standalone="no"?>
<svg width="20px" height="20px" viewBox="0 0 20 20" version="1.1" xmlns="http://www.w3.org/2000/svg" xmlns:xlink="http://www.w3.org/1999/xlink">
    <!-- Generator: sketchtool 43.2 (39069) - http://www.bohemiancoding.com/sketch -->
    <title>Web-xsmall</title>
    <desc>Created with sketchtool.</desc>
    <defs></defs>
    <g id="Web" stroke="none" stroke-width="1" fill="none" fill-rule="evenodd">
        <g id="Web-xsmall" fill="#000000">
            <path d="M19,4.49725 L19,15.265 C19,17.3245 17.3245,19 15.265,19 L4.73575,19 C2.6755,19 1,17.3245 1,15.265 L1,4.49725 C1,2.569 2.6755,1 4.73575,1 L15.265,1 C17.3245,1 19,2.569 19,4.49725 Z M2,4.99878564 L2,15 L18,15 L18,4.99878564 C18,3.34226429 16.652611,2 14.9905224,2 L5.00947762,2 C3.33663106,2 2,3.34260206 2,4.99878564 Z M5,6.5 C5,6.22385763 5.22765279,6 5.50964952,6 L14.4903505,6 C14.7718221,6 15,6.23193359 15,6.5 C15,6.77614237 14.7723472,7 14.4903505,7 L5.50964952,7 C5.22817786,7 5,6.76806641 5,6.5 Z M5,10.5 C5,10.2238576 5.22765279,10 5.50964952,10 L14.4903505,10 C14.7718221,10 15,10.2319336 15,10.5 C15,10.7761424 14.7723472,11 14.4903505,11 L5.50964952,11 C5.22817786,11 5,10.7680664 5,10.5 Z" id="Combined-Shape-Copy"></path>
        </g>
    </g>
</svg>