<?xml version="1.0" encoding="UTF-8" standalone="no"?>
<svg width="18px" height="18px" viewBox="0 0 18 18" version="1.1" xmlns="http://www.w3.org/2000/svg" xmlns:xlink="http://www.w3.org/1999/xlink">
    <!-- Generator: sketchtool 43.2 (39069) - http://www.bohemiancoding.com/sketch -->
    <title>wifi--small</title>
    <desc>Created with sketchtool.</desc>
    <defs></defs>
    <g id="Web" stroke="none" stroke-width="1" fill="none" fill-rule="evenodd">
        <g id="wifi--small" fill="#000000">
            <path d="M16.1812684,11.9400889 L1.89500526,11.9400889 L1.89500526,14.5027556 C1.89500526,15.3712 2.58216316,16.0778667 3.42768947,16.0778667 L14.6485842,16.0778667 C15.4932158,16.0778667 16.1812684,15.3712 16.1812684,14.5027556 L16.1812684,11.9400889 Z M13.5221105,11.0512 L17.0760053,11.0512 L17.0760053,14.5027556 C17.0760053,15.8609778 15.9871105,16.9667556 14.6485842,16.9667556 L3.42768947,16.9667556 C2.08916316,16.9667556 1.00026842,15.8609778 1.00026842,14.5027556 L1.00026842,11.0512 L12.6354263,11.0512 L12.6354263,5.58808889 L13.5221105,5.58808889 L13.5221105,11.0512 Z M13.0953211,0.999644444 L13.0944263,0.999644444 C11.2799,0.999644444 9.57363684,1.71608889 8.28879474,3.01742222 L8.92137368,3.63342222 C10.0380053,2.50364444 11.5205842,1.88142222 13.0944263,1.88142222 L13.0953211,1.88142222 C14.6494789,1.88142222 16.1087947,2.49208889 17.2370579,3.63431111 L17.8374263,2.98542222 C16.5731632,1.70453333 14.8901632,0.999644444 13.0953211,0.999644444 L13.0953211,0.999644444 Z M15.2668474,4.59431111 L15.5647947,4.26808889 L15.8269526,3.90986667 C14.2745842,2.53653333 11.7907947,2.55431111 10.2912158,3.94631111 L10.8960579,4.58986667 C12.0699526,3.4992 14.0177947,3.48942222 15.2668474,4.59431111 L15.2668474,4.59431111 Z M2.96511053,14.0085333 C2.96511053,13.4538667 3.41874211,13.0032 3.97795263,13.0032 C4.53626842,13.0032 4.9899,13.4538667 4.9899,14.0085333 C4.9899,14.5640889 4.53626842,15.0147556 3.97795263,15.0147556 C3.41874211,15.0147556 2.96511053,14.5640889 2.96511053,14.0085333 L2.96511053,14.0085333 Z" id="Fill-1"></path>
        </g>
    </g>
</svg>