<?xml version="1.0" encoding="UTF-8"?>
<svg width="24px" height="24px" viewBox="0 0 24 24" version="1.1" xmlns="http://www.w3.org/2000/svg" xmlns:xlink="http://www.w3.org/1999/xlink">
    <!-- Generator: sketchtool 46.2 (44496) - http://www.bohemiancoding.com/sketch -->
    <title>wifi</title>
    <desc>Created with sketchtool.</desc>
    <defs></defs>
    <g id="Web" stroke="none" stroke-width="1" fill="none" fill-rule="evenodd">
        <g id="wifi" fill="#000000">
            <path d="M15.78864,2 C13.51824,2 11.38304,2.8872 9.77504,4.4968 L10.90704,5.628 C12.21264,4.32 13.94624,3.6 15.78864,3.6 C17.60704,3.6 19.31424,4.3064 20.63184,5.6248 L21.19984,5.0624 L21.72704,4.4576 C20.14384,2.8728 18.03504,2 15.78864,2 L15.78864,2 Z M18.25104,7.056 L18.78704,6.4624 L19.27344,5.824 C17.29424,4.0952 14.12784,4.1168 12.21344,5.8728 L13.29424,7.052 C14.62704,5.8296 16.83664,5.82 18.25104,7.056 L18.25104,7.056 Z M19.59984,15.2624 L3.59984,15.2624 L3.59984,18.2912 C3.59984,19.268 4.31904,20.0624 5.20224,20.0624 L17.99824,20.0624 C18.88144,20.0624 19.59984,19.268 19.59984,18.2912 L19.59984,15.2624 Z M16.39984,13.6624 L21.19984,13.6624 L21.19984,18.2912 C21.19984,20.1496 19.76384,21.6624 17.99824,21.6624 L5.20224,21.6624 C3.43664,21.6624 1.99984,20.1496 1.99984,18.2912 L1.99984,13.6624 L14.79984,13.6624 L14.79984,7.6624 L16.39984,7.6624 L16.39984,13.6624 Z M5.19984,17.6624 C5.19984,17 5.73744,16.4624 6.39984,16.4624 C7.06304,16.4624 7.59984,17 7.59984,17.6624 C7.59984,18.3248 7.06304,18.8624 6.39984,18.8624 C5.73744,18.8624 5.19984,18.3248 5.19984,17.6624 L5.19984,17.6624 Z" id="Fill-1"></path>
        </g>
    </g>
</svg>