<?xml version="1.0" encoding="UTF-8"?>
<svg width="16px" height="16px" viewBox="0 0 16 16" version="1.1" xmlns="http://www.w3.org/2000/svg" xmlns:xlink="http://www.w3.org/1999/xlink">
    <!-- Generator: (null) (null) ((null)) - http://www.bohemiancoding.com/sketch -->
    <title>wifi--small</title>
    <desc>Created with (null).</desc>
    <defs></defs>
    <g id="Web" stroke="none" stroke-width="1" fill="none" fill-rule="evenodd">
        <g id="wifi--small" fill="#000000">
            <path d="M14.3110044,10.5922515 L1.78477576,10.5922515 L1.78477576,12.8392035 C1.78477576,13.6006576 2.38727739,14.2202646 3.12863682,14.2202646 L12.9671433,14.2202646 C13.7077182,14.2202646 14.3110044,13.6006576 14.3110044,12.8392035 L14.3110044,10.5922515 Z M11.9794486,9.81287163 L15.0955117,9.81287163 L15.0955117,12.8392035 C15.0955117,14.0300959 14.1407663,14.9996444 12.9671433,14.9996444 L3.12863682,14.9996444 C1.95501385,14.9996444 1.00026842,14.0300959 1.00026842,12.8392035 L1.00026842,9.81287163 L11.2020018,9.81287163 L11.2020018,5.02280316 L11.9794486,5.02280316 L11.9794486,9.81287163 Z M11.6052386,0.999644444 L11.6044541,0.999644444 C10.0134732,0.999644444 8.51741771,1.62782459 7.39086517,2.76883667 L7.94551186,3.3089469 C8.92457701,2.31835513 10.2245057,1.77278924 11.6044541,1.77278924 L11.6052386,1.77278924 C12.9679278,1.77278924 14.2474593,2.30822319 15.236723,3.30972628 L15.7631275,2.740779 C14.6546186,1.61769265 13.1789603,0.999644444 11.6052386,0.999644444 Z M13.5092379,4.1514565 L13.7704788,3.8654241 L14.0003395,3.55133403 C12.6392192,2.34719218 10.4614269,2.36277978 9.14659259,3.5832886 L9.67691955,4.1475596 C10.7061932,3.19126054 12.4140656,3.18268737 13.5092379,4.1514565 Z M2.72304653,12.4058683 C2.72304653,11.9195353 3.12079175,11.5243898 3.61110883,11.5243898 C4.10064141,11.5243898 4.49838663,11.9195353 4.49838663,12.4058683 C4.49838663,12.8929807 4.10064141,13.2881263 3.61110883,13.2881263 C3.12079175,13.2881263 2.72304653,12.8929807 2.72304653,12.4058683 Z" id="Fill-1"></path>
        </g>
    </g>
</svg>