<?xml version="1.0" encoding="utf-8"?>
<!-- Generator: Adobe Illustrator 16.0.0, SVG Export Plug-In . SVG Version: 6.00 Build 0)  -->
<!DOCTYPE svg PUBLIC "-//W3C//DTD SVG 1.1//EN" "http://www.w3.org/Graphics/SVG/1.1/DTD/svg11.dtd">
<svg version="1.1" xmlns="http://www.w3.org/2000/svg" xmlns:xlink="http://www.w3.org/1999/xlink" x="0px" y="0px" width="24px"
	 height="24px" viewBox="0 0 24 24" enable-background="new 0 0 24 24" xml:space="preserve">
<g id="_x31_6px">
</g>
<g id="_x31_6px-grid" display="none">
</g>
<g id="_x32_4px">
	<g>
		<circle cx="12" cy="12" r="2"/>
		<path d="M10.352,16.604l-0.707,0.707c-0.781,0.78-2.047,0.781-2.828,0s-0.781-2.048,0-2.828l0.707-0.707
			c0.781-0.781,0.782-2.048,0-2.829c-0.781-0.781-2.047-0.781-2.829,0l-1.414,1.414c-2.122,2.122-1.415,5.657,0.707,7.779
			c1.936,1.936,5.046,2.684,7.726,0.654l1.467-1.361c0.781-0.781,0.782-2.048,0-2.829C12.399,15.822,11.133,15.823,10.352,16.604z"
			/>
		<path d="M20.012,3.86c-1.936-1.936-5.046-2.685-7.726-0.654L10.82,4.567c-0.781,0.781-0.781,2.047,0,2.828s2.048,0.781,2.828,0
			l0.708-0.707c0.78-0.781,2.047-0.781,2.828,0s0.78,2.047,0,2.828l-0.708,0.707c-0.78,0.781-0.781,2.047,0.001,2.829
			c0.781,0.781,2.047,0.78,2.828,0l1.414-1.415C22.84,9.517,22.133,5.981,20.012,3.86z"/>
	</g>
</g>
<g id="_x32_4px-grid" display="none">
	<path display="inline" fill="none" stroke="#FF33FF" stroke-width="0.075" stroke-miterlimit="10" d="M22,12
		c0,5.522-4.473,10-10,10S2,17.522,2,12S6.473,2,12,2S22,6.478,22,12z"/>
	<circle display="inline" fill="none" stroke="#FF33FF" stroke-width="0.075" stroke-miterlimit="10" cx="12" cy="12" r="5"/>
	<line display="inline" fill="none" stroke="#FF33FF" stroke-miterlimit="10" x1="4.562" y1="22.75" x2="4.562" y2="22.75"/>
	<line display="inline" fill="none" stroke="#FF33FF" stroke-width="0.075" stroke-miterlimit="10" x1="24" y1="24" x2="0" y2="0"/>
	<line display="inline" fill="none" stroke="#FF33FF" stroke-width="0.075" stroke-miterlimit="10" x1="0" y1="24" x2="24" y2="0"/>
</g>
<g id="_x33_6px">
</g>
<g id="_x33_6px-grid" display="none">
</g>
<g id="_x34_8px">
</g>
<g id="_x34_8px-grid" display="none">
</g>
<g id="_x37_2px">
</g>
<g id="_x37_2px-grid" display="none">
</g>
<g id="_x31_60px">
</g>
<g id="_x31_60px-grid" display="none">
</g>
</svg>
