<?xml version="1.0" encoding="utf-8"?>
<!-- Generator: Adobe Illustrator 16.0.0, SVG Export Plug-In . SVG Version: 6.00 Build 0)  -->
<!DOCTYPE svg PUBLIC "-//W3C//DTD SVG 1.1//EN" "http://www.w3.org/Graphics/SVG/1.1/DTD/svg11.dtd">
<svg version="1.1" xmlns="http://www.w3.org/2000/svg" xmlns:xlink="http://www.w3.org/1999/xlink" x="0px" y="0px" width="24px"
	 height="24px" viewBox="0 0 24 24" enable-background="new 0 0 24 24" xml:space="preserve">
<g id="_x31_6px">
</g>
<g id="_x31_6px-grid" display="none">
</g>
<g id="_x32_4px">
	<g>
		<circle cx="3.875" cy="20" r="2"/>
		<path d="M20,2H4C2.895,2,2,2.895,2,4v10c0,1.104,0.938,2,1.938,2C5.938,16,6,14,8,14h12c1.104,0,2-0.896,2-2V4
			C22,2.895,21.104,2,20,2z M6,10c-1.105,0-2-0.896-2-2c0-1.105,0.895-2,2-2c1.104,0,2,0.895,2,2C8,9.104,7.104,10,6,10z M12,10
			c-1.105,0-2-0.896-2-2c0-1.105,0.895-2,2-2c1.104,0,2,0.895,2,2C14,9.104,13.104,10,12,10z M18,10c-1.105,0-2-0.896-2-2
			c0-1.105,0.895-2,2-2c1.104,0,2,0.895,2,2C20,9.104,19.104,10,18,10z"/>
	</g>
</g>
<g id="_x32_4px-grid" display="none">
	<path display="inline" fill="none" stroke="#FF33FF" stroke-width="0.075" stroke-miterlimit="10" d="M21.875,12
		c0,5.522-4.473,10-10,10s-10-4.478-10-10s4.473-10,10-10S21.875,6.478,21.875,12z"/>
	<circle display="inline" fill="none" stroke="#FF33FF" stroke-width="0.075" stroke-miterlimit="10" cx="11.875" cy="12" r="5"/>
	<line display="inline" fill="none" stroke="#FF33FF" stroke-miterlimit="10" x1="4.438" y1="22.75" x2="4.438" y2="22.75"/>
	
		<line display="inline" fill="none" stroke="#FF33FF" stroke-width="0.075" stroke-miterlimit="10" x1="23.875" y1="24" x2="-0.125" y2="0"/>
	
		<line display="inline" fill="none" stroke="#FF33FF" stroke-width="0.075" stroke-miterlimit="10" x1="-0.125" y1="24" x2="23.875" y2="0"/>
</g>
<g id="_x33_6px">
</g>
<g id="_x33_6px-grid" display="none">
</g>
<g id="_x34_8px">
</g>
<g id="_x34_8px-grid" display="none">
</g>
<g id="_x37_2px">
</g>
<g id="_x37_2px-grid" display="none">
</g>
<g id="_x31_60px">
</g>
<g id="_x31_60px-grid" display="none">
</g>
</svg>
