<svg width="24" height="24" viewBox="0 0 24 24">
  <path fill-rule="evenodd" d="M12,5 C7.45454545,5 3.57272727,7.82727273 2,11.8181818 C3.57272727,15.8090909 7.45454545,18.6363636 12,18.6363636 C16.5454545,18.6363636 20.4272727,15.8090909 22,11.8181818 C20.4272727,7.82727273 16.5454545,5 12,5 L12,5 Z M12,16.3636364 C9.49090909,16.3636364 7.45454545,14.3272727 7.45454545,11.8181818 C7.45454545,9.30909091 9.49090909,7.27272727 12,7.27272727 C14.5090909,7.27272727 16.5454545,9.30909091 16.5454545,11.8181818 C16.5454545,14.3272727 14.5090909,16.3636364 12,16.3636364 L12,16.3636364 Z M12,9.09090909 C10.4909091,9.09090909 9.27272727,10.3090909 9.27272727,11.8181818 C9.27272727,13.3272727 10.4909091,14.5454545 12,14.5454545 C13.5090909,14.5454545 14.7272727,13.3272727 14.7272727,11.8181818 C14.7272727,10.3090909 13.5090909,9.09090909 12,9.09090909 L12,9.09090909 Z"/>
</svg>
