<?xml version="1.0" encoding="utf-8"?>
<!-- Generator: Adobe Illustrator 16.0.0, SVG Export Plug-In . SVG Version: 6.00 Build 0)  -->
<!DOCTYPE svg PUBLIC "-//W3C//DTD SVG 1.1//EN" "http://www.w3.org/Graphics/SVG/1.1/DTD/svg11.dtd">
<svg version="1.1" xmlns="http://www.w3.org/2000/svg" xmlns:xlink="http://www.w3.org/1999/xlink" x="0px" y="0px" width="24px"
	 height="24px" viewBox="0 0 24 24" enable-background="new 0 0 24 24" xml:space="preserve">
<g id="_x31_6px">
</g>
<g id="_x31_6px-grid" display="none">
</g>
<g id="_x32_4px">
	<path d="M22.785,14C22,14,21,13.097,21,12s1-2,1.721-2C22.995,10,23,9.778,23,9.504V4.473C23,3.376,22.689,3,21.593,3H2.407
		C1.311,3,1,3.376,1,4.473v5.031C1,9.778,0.934,10,1.207,10C2,10,3,10.903,3,12s-1,2-1.721,2C1.005,14,1,14.222,1,14.496v4.716
		C1,20.308,1.311,21,2.408,21h19.186C22.689,21,23,20.308,23,19.212l-0.007-4.716C22.993,14.222,23.06,14,22.785,14z M17.648,16.694
		c-0.292,0.146-0.608,0.167-0.925,0.153c-0.443-0.019-0.88-0.085-1.303-0.227c-0.846-0.277-1.441-1.098-1.442-2.027
		c-0.022-0.4,0.165-0.784,0.344-1.168c0.425-0.902,0.862-1.805,1.291-2.706c0.074-0.158,0.137-0.32,0.204-0.48
		c0.032-0.078,0.055-0.157,0.059-0.242c0.006-0.153-0.004-0.311-0.156-0.396c-0.156-0.087-0.321-0.08-0.474,0.016
		c-0.169,0.108-0.275,0.271-0.366,0.445c-0.244,0.465-0.486,0.931-0.724,1.4c-0.517,1.015-1.03,2.031-1.545,3.047
		c-0.151,0.294-0.345,0.55-0.672,0.669c-0.281,0.101-0.562,0.081-0.833-0.036c-0.266-0.113-0.394-0.402-0.34-0.726
		c0.03-0.19,0.106-0.363,0.176-0.539c0.346-0.871,0.697-1.739,1.042-2.61c0.081-0.205,0.168-0.412,0.186-0.636
		c0.015-0.209-0.028-0.403-0.19-0.55c-0.266-0.242-0.714-0.118-0.871,0.244c-0.154,0.359-0.296,0.725-0.441,1.087
		c-0.529,1.322-1.029,2.654-1.585,3.965c-0.167,0.395-0.406,0.746-0.843,0.878c-0.538,0.162-1.06,0.087-1.536-0.217
		c-0.608-0.389-0.863-1.097-0.648-1.816C6.535,12.614,7.001,11,7.574,9.419c0.123-0.341,0.254-0.68,0.414-1.008
		c0.36-0.739,1.216-1.225,2.034-1.154c0.259,0.021,0.481,0.149,0.711,0.253c0.227,0.102,0.454,0.206,0.673,0.323
		c0.231,0.122,0.441,0.085,0.649-0.045c0.232-0.147,0.413-0.355,0.627-0.523c0.531-0.418,1.187-0.396,1.682,0.062
		c0.105,0.098,0.207,0.196,0.313,0.29c0.141,0.124,0.296,0.15,0.457,0.043c0.485-0.319,1.019-0.309,1.556-0.21
		c0.586,0.11,0.926,0.49,1.076,1.059c0.098,0.373,0.046,0.736-0.062,1.096c-0.195,0.66-0.486,1.279-0.763,1.904
		c-0.287,0.646-0.586,1.288-0.808,1.961c-0.121,0.369-0.228,0.741-0.223,1.134c0.005,0.446,0.19,0.681,0.63,0.768
		c0.268,0.054,0.537,0.094,0.805,0.142c0.09,0.018,0.177,0.045,0.261,0.079c0.243,0.102,0.357,0.292,0.368,0.547
		C17.987,16.389,17.878,16.579,17.648,16.694z"/>
</g>
<g id="_x32_4px-grid" display="none">
	<path display="inline" fill="none" stroke="#FF33FF" stroke-width="0.075" stroke-miterlimit="10" d="M22,12
		c0,5.522-4.473,10-10,10S2,17.522,2,12S6.473,2,12,2S22,6.478,22,12z"/>
	<circle display="inline" fill="none" stroke="#FF33FF" stroke-width="0.075" stroke-miterlimit="10" cx="12" cy="12" r="5"/>
	<line display="inline" fill="none" stroke="#FF33FF" stroke-miterlimit="10" x1="4.562" y1="22.75" x2="4.562" y2="22.75"/>
	<line display="inline" fill="none" stroke="#FF33FF" stroke-width="0.075" stroke-miterlimit="10" x1="24" y1="24" x2="0" y2="0"/>
	<line display="inline" fill="none" stroke="#FF33FF" stroke-width="0.075" stroke-miterlimit="10" x1="0" y1="24" x2="24" y2="0"/>
</g>
<g id="_x33_6px">
</g>
<g id="_x33_6px-grid" display="none">
</g>
<g id="_x34_8px">
</g>
<g id="_x34_8px-grid" display="none">
</g>
<g id="_x37_2px">
</g>
<g id="_x37_2px-grid" display="none">
</g>
<g id="_x31_60px">
</g>
<g id="_x31_60px-grid" display="none">
</g>
</svg>
