<?xml version="1.0" encoding="utf-8"?>
<!-- Generator: Adobe Illustrator 16.0.0, SVG Export Plug-In . SVG Version: 6.00 Build 0)  -->
<!DOCTYPE svg PUBLIC "-//W3C//DTD SVG 1.1//EN" "http://www.w3.org/Graphics/SVG/1.1/DTD/svg11.dtd">
<svg version="1.1" xmlns="http://www.w3.org/2000/svg" xmlns:xlink="http://www.w3.org/1999/xlink" x="0px" y="0px" width="24px"
	 height="24px" viewBox="0 0 24 24" enable-background="new 0 0 24 24" xml:space="preserve">
<g id="_x31_6px">
</g>
<g id="_x31_6px-grid">
</g>
<g id="_x32_4px">
	<g>
		<path d="M20,3h-1.982h-0.723c-0.4,0-0.724-0.239-0.724-0.639C16.571,1.562,15.923,1,15.125,1c-0.799,0-4.987,0-5.786,0
			S7.893,1.562,7.893,2.361C7.893,2.761,7.569,3,7.169,3H6.446H4C3.447,3,3,3.447,3,4s0.447,1,1,1h16c0.553,0,1-0.447,1-1
			S20.553,3,20,3z"/>
		<path d="M6.331,7H5v1.331V10v11.669C5,22.401,5.599,23,6.331,23h11.339C18.401,23,19,22.401,19,21.669V10V8.331V7h-1.331H6.331z"
			/>
	</g>
</g>
<g id="_x32_4px-grid" display="none">
	<path display="inline" fill="none" stroke="#FF33FF" stroke-width="0.075" stroke-miterlimit="10" d="M22,12
		c0,5.522-4.473,10-10,10S2,17.522,2,12S6.473,2,12,2S22,6.478,22,12z"/>
	<circle display="inline" fill="none" stroke="#FF33FF" stroke-width="0.075" stroke-miterlimit="10" cx="12" cy="12" r="5"/>
	<line display="inline" fill="none" stroke="#FF33FF" stroke-miterlimit="10" x1="4.562" y1="22.75" x2="4.562" y2="22.75"/>
	<line display="inline" fill="none" stroke="#FF33FF" stroke-width="0.075" stroke-miterlimit="10" x1="24" y1="24" x2="0" y2="0"/>
	<line display="inline" fill="none" stroke="#FF33FF" stroke-width="0.075" stroke-miterlimit="10" x1="0" y1="24" x2="24" y2="0"/>
</g>
<g id="_x33_6px">
</g>
<g id="_x33_6px-grid">
</g>
<g id="_x34_8px">
</g>
<g id="_x34_8px-grid">
</g>
<g id="_x37_2px">
</g>
<g id="_x37_2px-grid">
</g>
<g id="_x31_60px">
</g>
<g id="_x31_60px-grid">
</g>
</svg>
