<svg xmlns="http://www.w3.org/2000/svg" width="24" height="24" viewBox="0 0 24 24"><path d="M21.417 2.583a2.018 2.018 0 0 0-2.84.002l-.236.237a1.003 1.003 0 0 0 0 1.419l1.418 1.418a1.005 1.005 0 0 0 1.419 0l.236-.236c.78-.779.782-2.06.003-2.84zM16.994 5.588a1.002 1.002 0 0 0-1.418 0l-9.928 9.929a1.001 1.001 0 0 0 0 1.419l1.418 1.417a1 1 0 0 0 1.418 0l9.929-9.928a1.003 1.003 0 0 0 0-1.419l-1.419-1.418zM4.242 18.226a1 1 0 0 0-1.418 0c-.354.354-.775 2.791-.819 3.102 0 0-.049.285.167.501.217.216.501.167.501.167.289-.04 2.632-.578 2.987-.934a1.004 1.004 0 0 0 0-1.418l-1.418-1.418z"/></svg>