<svg xmlns="http://www.w3.org/2000/svg" width="24" height="24" viewBox="0 0 24 24"><path d="M22.785 14C22 14 21 13.097 21 12s1-2 1.721-2c.274 0 .279-.222.279-.496V4.473C23 3.376 22.689 3 21.593 3H2.407C1.311 3 1 3.376 1 4.473v5.031c0 .274-.066.496.207.496C2 10 3 10.903 3 12s-1 2-1.721 2c-.274 0-.279.222-.279.496v4.716C1 20.308 1.311 21 2.408 21h19.186C22.689 21 23 20.308 23 19.212l-.007-4.716c0-.274.067-.496-.208-.496zm-5.137 2.694c-.292.146-.608.167-.925.153a4.703 4.703 0 0 1-1.303-.227c-.846-.277-1.441-1.098-1.442-2.027-.022-.4.165-.784.344-1.168.425-.902.862-1.805 1.291-2.706.074-.158.137-.32.204-.48a.722.722 0 0 0 .059-.242c.006-.153-.004-.311-.156-.396a.444.444 0 0 0-.474.016c-.169.108-.275.271-.366.445-.244.465-.486.931-.724 1.4-.517 1.015-1.03 2.031-1.545 3.047-.151.294-.345.55-.672.669a1.103 1.103 0 0 1-.833-.036c-.266-.113-.394-.402-.34-.726.03-.19.106-.363.176-.539.346-.871.697-1.739 1.042-2.61.081-.205.168-.412.186-.636.015-.209-.028-.403-.19-.55-.266-.242-.714-.118-.871.244-.154.359-.296.725-.441 1.087-.529 1.322-1.029 2.654-1.585 3.965-.167.395-.406.746-.843.878a1.794 1.794 0 0 1-1.536-.217c-.608-.389-.863-1.097-.648-1.816.479-1.608.945-3.222 1.518-4.803.123-.341.254-.68.414-1.008.36-.739 1.216-1.225 2.034-1.154.259.021.481.149.711.253.227.102.454.206.673.323.231.122.441.085.649-.045.232-.147.413-.355.627-.523.531-.418 1.187-.396 1.682.062.105.098.207.196.313.29.141.124.296.15.457.043.485-.319 1.019-.309 1.556-.21.586.11.926.49 1.076 1.059.098.373.046.736-.062 1.096-.195.66-.486 1.279-.763 1.904-.287.646-.586 1.288-.808 1.961-.121.369-.228.741-.223 1.134.005.446.19.681.63.768.268.054.537.094.805.142.09.018.177.045.261.079.243.102.357.292.368.547a.549.549 0 0 1-.326.554z"/></svg>