<svg width="20" height="20" viewBox="0 0 20 20"><path fill-rule="evenodd" d="M18 12.5c0 2.481-2.02 4.5-4.5 4.5h-7C4.02 17 2 14.98 2 12.5a.5.5 0 0 1 1 0C3 14.43 4.57 16 6.5 16h7c1.93 0 3.5-1.57 3.5-3.5a.5.5 0 0 1 1 0zM5.164 10.87a.499.499 0 1 1 .672-.74L9.5 13.37V4.5a.5.5 0 1 1 1 0v8.87l3.664-3.24a.498.498 0 0 1 .706.034.499.499 0 0 1-.034.706l-4.5 4c-.025.023-.056.035-.084.052-.023.013-.041.03-.065.04a.494.494 0 0 1-.374 0c-.024-.01-.043-.027-.065-.04-.028-.017-.059-.029-.084-.052l-4.5-4z"/></svg>