<svg width="20" height="20" viewBox="0 0 20 20"><path fill-rule="evenodd" d="M19 18.498a.5.5 0 0 1-.5.5h-17a.5.5 0 0 1 0-1h17a.5.5 0 0 1 .5.5zM2 11.82c0-.401.156-.777.439-1.061l7.263-7.262L13.5 7.296l-7.263 7.263a1.51 1.51 0 0 1-1.06.439H3.5c-.827 0-1.5-.673-1.5-1.5V11.82zM12.312 2a2.686 2.686 0 0 1 1.902 4.582l-.007.007-3.798-3.798.007-.007A2.672 2.672 0 0 1 12.312 2zM3.5 15.998h1.677c.668 0 1.295-.26 1.767-.732l7.977-7.977A3.66 3.66 0 0 0 16 4.685a3.688 3.688 0 0 0-6.291-2.608l-7.977 7.976A2.484 2.484 0 0 0 1 11.82v1.677c0 1.378 1.121 2.5 2.5 2.5z"/></svg>