<svg width="24" height="24" viewBox="0 0 24 24"><path d="M19.952 7.983c.009.173.012.349.012.522C19.964 13.845 15.837 20 8.29 20c-2.318 0-4.474-.669-6.29-1.816.322.038.648.057.978.057a8.318 8.318 0 0 0 5.096-1.728c-1.795-.034-3.311-1.2-3.833-2.805a4.258 4.258 0 0 0 1.854-.07c-1.878-.372-3.292-2.004-3.292-3.962v-.05a4.143 4.143 0 0 0 1.859.506 4.023 4.023 0 0 1-1.826-3.364c0-.74.202-1.434.556-2.03a11.709 11.709 0 0 0 8.458 4.22 4.02 4.02 0 0 1-.105-.92C11.745 5.807 13.58 4 15.847 4c1.18 0 2.246.489 2.995 1.274a8.343 8.343 0 0 0 2.606-.98 4.066 4.066 0 0 1-1.805 2.235A8.309 8.309 0 0 0 22 5.893a8.216 8.216 0 0 1-2.048 2.09z"/></svg>