<svg width="24" height="24" viewBox="0 0 24 24"><path d="M8.667 20.328c0 .421-.227.672-.549.672a.845.845 0 0 1-.374-.098l-5.19-2.606c-.305-.153-.554-.559-.554-.9V4.619c0-.337.181-.537.439-.537.092 0 .193.026.3.079l.181.091.003.001 5.719 2.872c.01.005.017.014.025.022v13.181zm5.993-15.44l.349-.568a.69.69 0 0 1 .878-.252l6.033 3.03h.001l.006.003c.004.002.004.007.008.01.03.022.043.063.022.096l-6.008 9.806-.613 1.001-3.98-7.73 3.304-5.396zM9.62 15.148v-6.16l4.277 8.308-3.847-1.932-.43-.216zM22 20.328c0 .396-.237.621-.585.621-.155 0-.334-.045-.523-.14l-.86-.432-3.846-1.932L22 8.956v11.372z"/></svg>