<svg width="24" height="24" viewBox="0 0 24 24"><path d="M14.521 6.25v-.083h6.807c.252 0 .672.333.672.833l-5.966 4h-.168l-1.345-.833V6.25zm0 5.333l1.26.834c.169.166.42 0 .42 0L22 8.583v7.167c0 .75-.504 1.083-1.092 1.083H14.52v-5.25zM2 4.25L13.765 2v20L2 19.583V4.25zm5.966 5.583c.42 0 .757.167 1.009.5.252.417.336 1 .336 1.667s-.084 1.167-.336 1.583c-.252.417-.588.584-1.009.584-.42 0-.756-.167-1.008-.584-.252-.416-.42-.916-.42-1.583 0-.667.168-1.167.42-1.583.252-.417.588-.584 1.008-.584zM9.9 14.5c.42-.667.672-1.5.756-2.5 0-1-.252-1.833-.756-2.5-.42-.583-1.092-.917-1.849-.917-.84 0-1.512.334-2.016 1-.505.667-.757 1.5-.757 2.584 0 1 .252 1.75.757 2.416.504.584 1.176.917 1.932.917.757 0 1.429-.333 1.933-1z"/></svg>