<svg width="20" height="20" viewBox="0 0 20 20"><path fill-rule="evenodd" d="M14.875 18a3.129 3.129 0 0 1-3.125-3.125 3.129 3.129 0 0 1 3.125-3.125A3.129 3.129 0 0 1 18 14.875 3.129 3.129 0 0 1 14.875 18m0-7.25a4.126 4.126 0 1 0 .002 8.252 4.126 4.126 0 0 0-.002-8.252M5.125 18A3.129 3.129 0 0 1 2 14.875a3.129 3.129 0 0 1 3.125-3.125 3.129 3.129 0 0 1 3.125 3.125A3.129 3.129 0 0 1 5.125 18m0-7.25a4.126 4.126 0 1 0 .002 8.252 4.126 4.126 0 0 0-.002-8.252M14.875 2A3.129 3.129 0 0 1 18 5.125a3.129 3.129 0 0 1-3.125 3.125 3.129 3.129 0 0 1-3.125-3.125A3.129 3.129 0 0 1 14.875 2m0 7.25a4.126 4.126 0 1 0-.002-8.252 4.126 4.126 0 0 0 .002 8.252m-9.75-1A3.129 3.129 0 0 1 2 5.125 3.129 3.129 0 0 1 5.125 2 3.129 3.129 0 0 1 8.25 5.125 3.129 3.129 0 0 1 5.125 8.25m0-7.25a4.126 4.126 0 1 0 .002 8.252A4.126 4.126 0 0 0 5.125 1"/></svg>