<svg width="28" height="28" viewBox="0 0 28 28" xmlns="http://www.w3.org/2000/svg"><title>link</title><path d="M3.59 16.716a5.45 5.45 0 0 0 0 7.694 5.45 5.45 0 0 0 7.694 0l4.526-4.526a5.447 5.447 0 0 0 .27-7.412.962.962 0 1 0-1.45 1.266 3.488 3.488 0 0 1-.177 4.788l-4.527 4.526a3.492 3.492 0 0 1-4.978 0 3.492 3.492 0 0 1 0-4.978l4.526-4.527a.96.96 0 1 0-1.358-1.357L3.59 16.716zm8.6-8.6a5.447 5.447 0 0 0-.27 7.412.962.962 0 0 0 1.45-1.266 3.488 3.488 0 0 1 .177-4.788l4.527-4.526a3.492 3.492 0 0 1 4.978 0 3.492 3.492 0 0 1 0 4.978l-4.526 4.527a.96.96 0 1 0 1.358 1.357l4.526-4.526a5.45 5.45 0 0 0 0-7.694 5.45 5.45 0 0 0-7.694 0L12.19 8.116z" fill-rule="nonzero"/></svg>