<svg width="20" height="20" viewBox="0 0 20 20" xmlns="http://www.w3.org/2000/svg"><title>link--small</title><path d="M3.06 11.81a3.633 3.633 0 0 0 0 5.13 3.633 3.633 0 0 0 5.13 0l3.017-3.017a3.632 3.632 0 0 0 .18-4.941.642.642 0 1 0-.967.844 2.325 2.325 0 0 1-.118 3.191l-3.018 3.018a2.328 2.328 0 0 1-3.319 0 2.328 2.328 0 0 1 0-3.32l3.018-3.017a.64.64 0 1 0-.906-.905L3.06 11.811zm5.733-5.733a3.632 3.632 0 0 0-.18 4.941.642.642 0 0 0 .967-.844 2.325 2.325 0 0 1 .118-3.191l3.018-3.018a2.328 2.328 0 0 1 3.319 0 2.328 2.328 0 0 1 0 3.32l-3.018 3.017a.64.64 0 1 0 .906.905l3.017-3.018a3.633 3.633 0 0 0 0-5.13 3.633 3.633 0 0 0-5.13 0L8.794 6.078z" fill-rule="nonzero"/></svg>