<svg width="28" height="28" viewBox="0 0 28 28" xmlns="http://www.w3.org/2000/svg"><title>location-pin</title><path d="M14 12c-1.103 0-2-.897-2-2s.897-2 2-2 2 .897 2 2-.897 2-2 2m0-6c-2.206 0-4 1.794-4 4s1.794 4 4 4 4-1.794 4-4-1.794-4-4-4m2.542 18.577A2.97 2.97 0 0 1 14 26a2.969 2.969 0 0 1-2.541-1.423C7.938 18.873 6 14.225 6 11.49 6 5.326 10.122 2 14 2s8 3.326 8 9.49c0 2.736-1.938 7.384-5.458 13.087M14 0C9.085 0 4 4.298 4 11.49c0 3.191 1.937 7.947 5.756 14.137A4.96 4.96 0 0 0 14 28c1.74 0 3.327-.887 4.243-2.373C20.869 21.373 24 15.466 24 11.49 24 4.298 18.916 0 14 0" fill-rule="evenodd"/></svg>