<svg width="20" height="20" viewBox="0 0 20 20" xmlns="http://www.w3.org/2000/svg"><title>mail--small</title><path d="M18 5.222v.211l-7.398 4.405a1.21 1.21 0 0 1-1.204 0L2 5.433V4.246C2 3.008 3.155 2 4.575 2h10.85C16.845 2 18 3.008 18 4.246v.976zm0 10.202A2.578 2.578 0 0 1 15.425 18H4.575A2.578 2.578 0 0 1 2 15.424V6.597l6.887 4.101C9.225 10.9 9.612 11 10 11s.775-.1 1.113-.3L18 6.596v8.827zM15.425 1H4.575C2.604 1 1 2.456 1 4.246V15.424A3.58 3.58 0 0 0 4.575 19h10.85A3.58 3.58 0 0 0 19 15.424V4.246C19 2.456 17.396 1 15.425 1z" fill-rule="evenodd"/></svg>