<svg width="24" height="24" viewBox="0 0 24 24"><path fill-rule="evenodd" d="M21.555 20.143c-.248.15-.517.235-.8.271-.244.03-.491.041-.735.06-.79-.025-1.566-.132-2.307-.394-1.26-.446-2.032-1.347-2.34-2.64a2.903 2.903 0 0 1 .15-1.839c.299-.702.612-1.398.937-2.088.543-1.152 1.104-2.298 1.653-3.448.106-.22.194-.452.279-.683a1.17 1.17 0 0 0 .053-.634c-.04-.212-.161-.35-.376-.4-.291-.068-.551-.01-.771.197a2.284 2.284 0 0 0-.448.608c-.503.975-1.011 1.95-1.51 2.927-.738 1.451-1.468 2.906-2.208 4.356-.12.234-.258.465-.42.674-.541.701-1.335.811-2.077.557-.436-.147-.648-.48-.681-.933a1.556 1.556 0 0 1 .099-.688l.903-2.288c.392-.997.788-1.994 1.177-2.993.105-.27.188-.55.167-.848-.02-.265-.092-.508-.293-.698a.751.751 0 0 0-.788-.18c-.308.101-.54.29-.665.6-.437 1.095-.88 2.19-1.316 3.284-.647 1.616-1.291 3.234-1.935 4.851-.17.426-.385.823-.694 1.165-.356.394-.803.596-1.328.647-.564.057-1.111-.006-1.63-.234-.862-.378-1.412-1.02-1.6-1.952a2.673 2.673 0 0 1 .069-1.312c.772-2.547 1.503-5.106 2.4-7.613.224-.623.467-1.24.729-1.848.549-1.273 1.566-1.936 2.902-2.152.418-.067.832-.01 1.22.171.562.26 1.128.51 1.68.79.375.19.719.16 1.053-.065.193-.129.37-.284.549-.433.214-.178.41-.377.635-.539.622-.447 1.307-.493 2.019-.265.29.094.503.31.724.508.136.123.266.252.399.378.302.281.524.318.867.101a2.582 2.582 0 0 1 1.455-.404c.354.004.706-.002 1.056.07.963.196 1.55.78 1.823 1.715.164.566.126 1.121-.022 1.68-.206.777-.512 1.518-.83 2.252-.464 1.071-.943 2.136-1.402 3.21-.304.713-.566 1.443-.725 2.206-.07.33-.106.66-.094.997.018.502.247.86.724 1.024.26.09.536.137.808.191.303.06.61.092.913.156.164.036.326.101.479.171.63.292.722 1.36.073 1.754"/></svg>