<svg width="28" height="28" viewBox="0 0 28 28"><path fill-rule="evenodd" d="M21.707 14.293a.999.999 0 0 1 0 1.414l-6 6a.999.999 0 0 1-1.332.074l-4.301-3.441-2.367 2.367a.999.999 0 1 1-1.414-1.414l3-3a.999.999 0 0 1 1.331-.074l4.302 3.441 5.367-5.367a.999.999 0 0 1 1.414 0zM24 22c0 1.103-.897 2-2 2H6c-1.103 0-2-.897-2-2V6c0-1.103.897-2 2-2h16c1.103 0 2 .897 2 2v16zM22 2H6C3.794 2 2 3.794 2 6v16c0 2.206 1.794 4 4 4h16c2.206 0 4-1.794 4-4V6c0-2.206-1.794-4-4-4zM10 8c1.103 0 2 .897 2 2s-.897 2-2 2-2-.897-2-2 .897-2 2-2zm0 6a4 4 0 1 0 0-8 4 4 0 0 0 0 8z"/></svg>