<svg width="28" height="28" viewBox="0 0 28 28"><path fill-rule="evenodd" d="M26 6.663V21.02A4.986 4.986 0 0 1 21.02 26H6.981A4.986 4.986 0 0 1 2 21.02V6.663C2 4.092 4.234 2 6.981 2H21.02C23.766 2 26 4.092 26 6.663zM4 7.009V20h20V7.01C24 5.336 22.66 4 21.006 4H6.994A3.004 3.004 0 0 0 4 7.01zM7 9c0-.552.45-1 1.007-1h11.986C20.55 8 21 8.444 21 9c0 .552-.45 1-1.007 1H8.007A1.001 1.001 0 0 1 7 9zm0 6c0-.552.45-1 1.007-1h11.986c.556 0 1.007.444 1.007 1 0 .552-.45 1-1.007 1H8.007A1.001 1.001 0 0 1 7 15z"/></svg>