<svg width="28" height="28" viewBox="0 0 28 28" xmlns="http://www.w3.org/2000/svg"><title>show</title><path d="M14.075 5a13.9 13.9 0 0 1 12.93 8.815l.145.367-.145.366a13.9 13.9 0 0 1-12.93 8.816 13.9 13.9 0 0 1-12.93-8.816L1 14.182l.144-.367A13.9 13.9 0 0 1 14.074 5zm0 2c-4.793 0-9.05 2.867-10.918 7.182a11.899 11.899 0 0 0 10.918 7.182c4.793 0 9.05-2.868 10.918-7.182A11.899 11.899 0 0 0 14.075 7zm0 2.91a4.268 4.268 0 0 1 4.273 4.272 4.268 4.268 0 0 1-4.273 4.273 4.268 4.268 0 0 1-4.273-4.273 4.268 4.268 0 0 1 4.273-4.273zm0 2a2.268 2.268 0 0 0-2.273 2.272 2.268 2.268 0 0 0 2.273 2.273 2.268 2.268 0 0 0 2.273-2.273 2.268 2.268 0 0 0-2.273-2.273z" fill-rule="nonzero"/></svg>