<svg width="24" height="24" viewBox="0 0 24 24" xmlns="http://www.w3.org/2000/svg"><title>announce</title><path d="M12.15 2c2.44 0 4.42 1.98 4.42 4.42v5.8c0 2.44-1.98 4.42-4.42 4.42s-4.42-1.98-4.42-4.42v-5.8C7.73 3.98 9.71 2 12.15 2zm0 1.25c-1.53 0-2.82 1.07-3.1 2.54h1.09c.23 0 .44.12.55.31.11.2.11.44 0 .63-.11.2-.32.32-.55.31H8.98V8.7h1.16c.23 0 .44.11.55.3.11.2.11.44 0 .64s-.32.3-.55.3H8.98v1.66h1.16c.23 0 .44.11.55.3.11.2.11.44 0 .64s-.32.31-.55.3h-1.1c.29 1.48 1.57 2.55 3.11 2.55 1.54 0 2.83-1.07 3.11-2.54h-1.1c-.21 0-.43-.1-.55-.29-.12-.19-.13-.43-.03-.62.1-.2.3-.33.53-.34h1.21V9.95h-1.15c-.22 0-.44-.1-.56-.3-.12-.18-.13-.42-.03-.62s.3-.32.53-.33h1.21V7.04h-1.15c-.22.01-.44-.1-.56-.28-.12-.2-.13-.43-.03-.63s.3-.32.53-.34H15.26c-.29-1.47-1.57-2.54-3.1-2.54zm-5.6 4.7c.13.13.2.3.2.48v3.8c0 3 2.4 5.4 5.4 5.4 3 0 5.4-2.4 5.4-5.4v-3.8c0-.22.12-.43.31-.55.2-.11.44-.11.63 0 .2.12.32.33.31.55v3.8c0 3.44-2.62 6.3-6.02 6.62v1.9h3.16c.23 0 .44.11.55.3.12.2.12.44 0 .64-.11.2-.32.31-.54.31H8.37c-.23.01-.44-.1-.56-.29-.12-.19-.13-.42-.03-.62s.3-.33.53-.34H11.53v-1.9c-3.4-.32-6.03-3.18-6.03-6.63V8.43c0-.32.23-.6.56-.63.18-.02.35.04.49.16z" fill-rule="nonzero"/></svg>