<svg width="18" height="18" viewBox="0 0 18 18" xmlns="http://www.w3.org/2000/svg"><title>announce--small</title><path d="M9.32 1c1.95 0 3.54 1.58 3.54 3.54v4.64c0 1.95-1.59 3.53-3.54 3.53S5.8 11.13 5.8 9.18V4.54C5.79 2.58 7.37 1 9.32 1zm0 1c-1.23 0-2.26.86-2.49 2.04h.88c.18 0 .35.09.44.24.1.16.1.35 0 .5-.09.16-.26.26-.44.26H6.8v1.32h.92c.18 0 .35.09.44.24.1.16.1.35 0 .5-.09.16-.26.26-.44.26H6.8v1.32h.92c.18 0 .35.1.44.25.1.15.1.34 0 .5-.09.16-.26.25-.44.25h-.88c.23 1.18 1.26 2.03 2.5 2.03 1.22 0 2.25-.85 2.48-2.03h-.87c-.18 0-.35-.08-.45-.23-.1-.15-.1-.34-.02-.5.08-.16.24-.26.42-.27H11.86V7.36h-.92c-.18 0-.35-.08-.45-.23-.1-.15-.1-.34-.02-.5.08-.16.24-.26.42-.27H11.86V5.04h-.92c-.18 0-.35-.08-.45-.23-.1-.15-.1-.35-.02-.5.08-.16.24-.27.42-.27h.92C11.58 2.86 10.55 2 9.32 2zM4.84 5.77c.1.1.16.23.16.37v3.04c0 2.4 1.92 4.32 4.32 4.32 2.4 0 4.32-1.92 4.32-4.32V6.14c0-.18.1-.34.25-.43.16-.1.35-.1.5 0 .16.09.26.25.25.43v3.04c0 2.76-2.1 5.05-4.82 5.3V16h2.53c.19 0 .35.1.44.25.1.15.1.35 0 .5-.09.16-.25.25-.43.25H6.29c-.18 0-.35-.08-.44-.23-.1-.15-.1-.34-.03-.5.09-.16.25-.26.43-.27h2.57v-1.52C6.1 14.23 4 11.94 4 9.18V6.15c0-.26.19-.48.45-.51.14-.02.28.03.39.13z" fill-rule="nonzero"/></svg>