<svg width="24" height="24" viewBox="0 0 24 24" xmlns="http://www.w3.org/2000/svg"><title>archive</title><path d="M1.71 5.14H22.3V3.43H1.7v1.71zm18.86 1.72H3.43v12c0 .94.77 1.71 1.71 1.71h13.72c.94 0 1.71-.77 1.71-1.71v-12zM24 3.43v1.71c0 .95-.77 1.72-1.71 1.72v12c0 1.89-1.54 3.43-3.43 3.43H5.14c-1.89 0-3.43-1.54-3.43-3.43v-12C.77 6.86 0 6.09 0 5.14V3.43C0 2.49.77 1.7 1.71 1.7H22.3c.94 0 1.71.78 1.71 1.72zm-18.86 6c0-.47.39-.86.86-.86h12c.47 0 .86.39.86.86s-.39.86-.86.86H6c-.47 0-.86-.39-.86-.86z" fill-rule="evenodd"/></svg>