<svg width="28" height="28" viewBox="0 0 28 28" xmlns="http://www.w3.org/2000/svg"><title>arrow-right</title><path d="M4.555 9.608h18.357V8.575c0-1.92-1.49-3.484-3.322-3.484h-1.305v.982a1.198 1.198 0 0 1-2.395 0v-.982h-4.313v.982a1.198 1.198 0 0 1-2.396 0v-.982H7.877c-1.832 0-3.322 1.564-3.322 3.484v1.033zm0 1.606v9.606c0 .47.088.927.262 1.355.523 1.291 1.724 2.126 3.06 2.126H19.59c1.336 0 2.536-.835 3.06-2.126.174-.428.262-.885.262-1.355v-9.606H4.555zM19.59 25.91H7.877c-1.966 0-3.73-1.22-4.495-3.112A5.26 5.26 0 0 1 3 20.82V8.575c0-2.808 2.188-5.09 4.877-5.09h1.304v-.288a1.2 1.2 0 0 1 2.396 0v.288h4.313v-.288a1.198 1.198 0 0 1 2.395 0v.288h1.305c2.69 0 4.876 2.282 4.876 5.09V20.82a5.24 5.24 0 0 1-.382 1.978c-.764 1.891-2.528 3.112-4.494 3.112z" fill-rule="evenodd"/></svg>