<svg width="28" height="28" viewBox="0 0 28 28" xmlns="http://www.w3.org/2000/svg"><title>audio</title><path d="M16.07 18.35c1.79-2.72 1.77-6.22-.04-8.9-.31-.47-.93-.59-1.4-.28-.45.31-.57.93-.26 1.39 1.36 2.02 1.37 4.65.03 6.69-.3.46-.18 1.08.28 1.38.17.11.36.17.55.17.33 0 .65-.16.84-.45zm3.08 1.55l.15-.47c.49-1.55 1.1-3.47 1.1-5.48 0-2.02-.61-4.01-1.1-5.61l-.13-.43c-.16-.53-.72-.82-1.25-.67-.53.16-.82.72-.66 1.25l.13.43c.47 1.55 1 3.3 1 5.03 0 1.7-.53 3.39-1 4.88l-.15.47c-.16.53.13 1.09.66 1.25.1.03.2.05.3.05.42 0 .82-.28.95-.7zm1.58 2.18c4.36-4.71 4.36-11.05 0-15.76-.38-.4-1-.43-1.41-.05-.4.37-.43 1-.06 1.41 3.67 3.96 3.67 9.08 0 13.04-.37.4-.35 1.03.06 1.41.19.18.43.27.68.27.26 0 .53-.11.73-.32zM6 14.8h2.12c.23 0 .45.08.63.22l3.05 2.48v-7.2l-3.05 2.48c-.18.14-.4.22-.63.22H6v1.8zm6.8 5.8c-.23 0-.45-.08-.63-.23l-4.4-3.57H5c-.55 0-1-.45-1-1V12c0-.55.45-1 1-1h2.76l4.4-3.58c.3-.24.72-.29 1.07-.12.35.16.57.52.57.9v11.4c0 .38-.22.73-.57.9-.14.07-.29.1-.43.1z" fill-rule="evenodd"/></svg>