<svg width="16" height="16" viewBox="0 0 16 16" xmlns="http://www.w3.org/2000/svg"><title>audio--small</title><path d="M9.24 4.38c1.25 1.87 1.27 4.29.03 6.17-.09.13-.23.2-.37.2-.08 0-.16-.02-.24-.07-.2-.14-.26-.4-.12-.6 1.04-1.6 1.03-3.64-.03-5.21-.13-.2-.08-.47.12-.6.2-.14.47-.09.6.11zm3.13 3.12c0 1.43-.41 2.75-.78 3.92l-.11.34c-.06.18-.23.3-.42.3-.04 0-.08 0-.13-.02-.23-.07-.36-.31-.29-.55l.11-.34c.35-1.1.75-2.36.75-3.65 0-1.3-.4-2.6-.75-3.75l-.1-.31c-.06-.23.07-.48.3-.55.23-.07.47.07.54.3l.1.3c.35 1.15.78 2.58.78 4.01zm.33 5.73c-.09.1-.2.14-.33.14-.1 0-.2-.03-.3-.11-.17-.17-.18-.44-.02-.62 2.75-2.96 2.75-6.94 0-9.9-.16-.18-.15-.46.03-.62.17-.17.45-.16.62.02 3.07 3.32 3.07 7.78 0 11.1zm-6.01-2.52l-2.7-2.2c-.08-.06-.18-.1-.28-.1H1.87V6.53h1.84c.1 0 .2-.03.28-.1l2.7-2.19v6.48zm.62-7.8c-.15-.07-.33-.04-.46.06l-3.3 2.68H1.45c-.24 0-.44.2-.44.43v2.77c0 .25.2.44.44.44h2.12l3.29 2.67c.08.07.18.1.27.1.07 0 .13-.01.2-.04.15-.07.24-.23.24-.4v-8.3c0-.18-.1-.33-.25-.4z" fill-rule="evenodd"/></svg>