<svg width="20" height="20" viewBox="0 0 20 20" xmlns="http://www.w3.org/2000/svg"><title>audio--small</title><path d="M11.41 5.72c1.44 2.13 1.46 4.9.04 7.06-.1.14-.26.22-.42.22-.1 0-.19-.03-.27-.08-.23-.15-.3-.46-.15-.7 1.2-1.8 1.19-4.14-.02-5.94-.16-.23-.1-.54.13-.7.23-.15.54-.09.7.14zM15 9.3c0 1.63-.48 3.14-.9 4.47l-.12.39c-.07.21-.27.35-.48.35-.05 0-.1 0-.15-.02-.26-.08-.4-.36-.33-.63l.13-.39c.4-1.26.85-2.7.85-4.17 0-1.49-.45-2.97-.86-4.29l-.1-.35c-.08-.27.07-.55.33-.63.26-.08.54.07.62.34l.11.35c.4 1.31.9 2.95.9 4.58zm.37 6.55c-.1.1-.23.16-.37.16-.12 0-.24-.04-.34-.13-.2-.19-.21-.5-.03-.71 3.14-3.38 3.14-7.93 0-11.32-.18-.2-.17-.52.03-.7.2-.2.52-.18.7.02 3.52 3.8 3.52 8.89 0 12.68zM8.5 12.95l-3.08-2.5c-.1-.08-.2-.12-.32-.12H3V8.17h2.1c.12 0 .23-.04.32-.11L8.5 5.55v7.4zm.71-8.9c-.17-.08-.37-.06-.53.06L4.93 7.17H2.5c-.28 0-.5.22-.5.5v3.16c0 .28.22.5.5.5h2.42L8.7 14.4c.09.07.2.11.31.11.07 0 .15-.01.21-.05.18-.08.29-.26.29-.45V4.5c0-.2-.11-.37-.29-.45z" fill-rule="evenodd"/></svg>