<svg width="20" height="20" viewBox="0 0 20 20" xmlns="http://www.w3.org/2000/svg"><title>bolt--small</title><path d="M5.56 10h3.7c.14 0 .28.07.37.18.1.11.14.26.11.4l-.89 5.16L14.44 9h-3.65c-.15 0-.29-.06-.39-.18-.09-.1-.13-.26-.1-.4l.86-5.17L5.56 10zm2.48 8c-.08 0-.15-.01-.21-.05-.2-.1-.33-.31-.29-.54L8.66 11H4.5c-.2 0-.37-.11-.45-.29-.09-.17-.06-.38.07-.53l7.46-9c.14-.17.39-.23.6-.13.2.09.32.31.28.53L11.38 8h4.12c.2 0 .37.11.45.29.09.17.06.38-.07.53l-7.46 9c-.1.12-.24.18-.38.18z" fill-rule="evenodd"/></svg>