<svg width="16" height="16" viewBox="0 0 16 16" xmlns="http://www.w3.org/2000/svg"><title>bolt--small</title><path d="M4.29 8.41h3.03c.13 0 .24.06.32.15.08.1.11.21.09.33l-.74 4.25 4.6-5.55h-3c-.12 0-.24-.05-.32-.15-.07-.09-.1-.21-.09-.33l.72-4.26-4.61 5.56zM6.32 15c-.06 0-.11-.01-.17-.04-.17-.08-.26-.26-.23-.44l.91-5.28H3.41c-.16 0-.3-.1-.37-.24-.07-.15-.05-.32.06-.44l6.14-7.41c.12-.14.32-.2.49-.11.17.08.27.26.24.44l-.9 5.28h3.4c.16 0 .3.1.37.24.07.15.05.32-.05.44l-6.15 7.41c-.08.1-.2.15-.32.15z" fill-rule="evenodd"/></svg>