<svg width="28" height="28" viewBox="0 0 28 28" xmlns="http://www.w3.org/2000/svg"><title>bolt</title><path d="M9 14.57h4c.3 0 .57.13.76.35.19.22.27.52.23.8l-.87 5.48 5.87-7.77H15c-.3 0-.57-.13-.76-.35-.2-.22-.27-.52-.23-.8l.87-5.48-5.87 7.77zM11.5 26c-.13 0-.26-.03-.4-.08-.41-.18-.66-.62-.59-1.08l1.32-8.27H7c-.38 0-.73-.21-.9-.55-.16-.34-.13-.75.1-1.05L15.7 2.4c.28-.37.77-.5 1.2-.32.41.18.66.62.59 1.08l-1.32 8.27H21c.38 0 .73.21.9.55.16.34.13.75-.1 1.05L12.3 25.6c-.2.26-.5.4-.8.4z" fill-rule="evenodd"/></svg>