<svg width="24" height="24" viewBox="0 0 24 24" xmlns="http://www.w3.org/2000/svg"><title>bolt</title><path d="M7.5 12.48h3.33c.25 0 .48.1.64.29.16.18.22.43.19.67L10.93 18l4.9-6.48H12.5c-.24 0-.48-.1-.63-.29-.16-.18-.23-.43-.2-.67L12.4 6l-4.9 6.48zM9.59 22c-.1 0-.22-.02-.32-.07-.35-.15-.56-.52-.5-.9l1.1-6.89H5.83c-.31 0-.6-.18-.74-.46s-.11-.62.08-.87l7.92-10.48c.23-.3.63-.41.99-.26.35.15.55.52.5.9l-1.1 6.89h4.02c.32 0 .6.18.75.46.14.28.1.62-.08.87l-7.92 10.48c-.16.21-.41.33-.67.33z" fill-rule="evenodd"/></svg>