<svg width="24" height="24" viewBox="0 0 24 24" xmlns="http://www.w3.org/2000/svg"><title>calendar-plus</title><path d="M19.7 7.66c0-1.65-1.25-3-2.79-3h-1.1v.84c0 .57-.44 1.03-1 1.03-.55 0-1-.46-1-1.03v-.84h-3.62v.84c0 .57-.45 1.03-1 1.03-.56 0-1-.46-1-1.03v-.84h-1.1c-1.54 0-2.79 1.35-2.79 3v.89h15.4v-.9zm0 2.27H4.3v8.26c0 .4.08.8.22 1.17.44 1.1 1.45 1.83 2.57 1.83h9.82c1.12 0 2.13-.72 2.57-1.83.14-.37.22-.76.22-1.17V9.93zM21 7.66v10.53c0 .6-.1 1.16-.32 1.7-.64 1.63-2.12 2.68-3.77 2.68H7.1c-1.65 0-3.13-1.05-3.77-2.68-.21-.54-.32-1.1-.32-1.7V7.66c0-2.42 1.83-4.38 4.09-4.38h1.1v-.25c0-.57.44-1.03 1-1.03.55 0 1 .46 1 1.03v.25h3.62v-.25c0-.57.45-1.03 1-1.03.56 0 1 .46 1 1.03v.25h1.1c2.26 0 4.09 1.96 4.09 4.38zM8.36 15.5c0-.35.28-.64.64-.64h2.57v-2.57c0-.36.29-.65.64-.65.36 0 .65.3.65.65v2.57h2.57c.35 0 .64.29.64.64 0 .35-.29.64-.64.64h-2.57v2.57c0 .36-.3.65-.65.65-.35 0-.64-.3-.64-.65v-2.57H9c-.36 0-.64-.29-.64-.64z" fill-rule="evenodd"/></svg>