<svg width="28" height="28" viewBox="0 0 28 28" xmlns="http://www.w3.org/2000/svg"><title>calendar</title><path d="M4.56 9.6H22.9V8.59c0-1.92-1.49-3.49-3.32-3.49h-1.3v.98c0 .66-.54 1.2-1.2 1.2-.66 0-1.2-.54-1.2-1.2V5.1h-4.31v.98c0 .66-.54 1.2-1.2 1.2-.66 0-1.2-.54-1.2-1.2V5.1h-1.3c-1.83 0-3.32 1.57-3.32 3.49V9.6zm0 1.61v9.61c0 .47.08.93.26 1.36.52 1.29 1.72 2.12 3.06 2.12h11.71c1.34 0 2.54-.83 3.06-2.12.17-.43.26-.89.26-1.36v-9.6H4.56zm15.03 14.7H7.88c-1.97 0-3.73-1.22-4.5-3.11-.25-.63-.38-1.3-.38-1.98V8.58c0-2.81 2.19-5.1 4.88-5.1h1.3V3.2c0-.66.54-1.2 1.2-1.2.66 0 1.2.54 1.2 1.2v.29h4.31v-.3c0-.65.54-1.19 1.2-1.19.66 0 1.2.54 1.2 1.2v.29h1.3c2.69 0 4.88 2.28 4.88 5.09v12.24c0 .69-.13 1.35-.39 1.98-.76 1.89-2.52 3.11-4.49 3.11z" fill-rule="evenodd"/></svg>