<svg width="24" height="24" viewBox="0 0 24 24" xmlns="http://www.w3.org/2000/svg"><title>calendar</title><path d="M3.9 8.23h15.74v-.88c0-1.65-1.28-2.99-2.85-2.99h-1.12v.85c0 .56-.46 1.02-1.02 1.02-.57 0-1.03-.46-1.03-1.02v-.85h-3.7v.85c0 .56-.46 1.02-1.02 1.02-.57 0-1.03-.46-1.03-1.02v-.85H6.75C5.18 4.36 3.9 5.7 3.9 7.35v.88zm0 1.38v8.23c0 .4.08.8.23 1.16.45 1.11 1.48 1.83 2.62 1.83H16.8c1.15 0 2.18-.72 2.62-1.83.15-.36.23-.75.23-1.16V9.61H3.9zm12.9 12.6H6.74c-1.68 0-3.2-1.05-3.85-2.67-.22-.54-.33-1.1-.33-1.7V7.34C2.57 4.95 4.45 3 6.75 3h1.12v-.25c0-.57.46-1.03 1.03-1.03.56 0 1.02.46 1.02 1.03v.25h3.7v-.25c0-.57.46-1.03 1.03-1.03.56 0 1.02.46 1.02 1.03v.25h1.12c2.3 0 4.18 1.95 4.18 4.36v10.5c0 .58-.1 1.15-.33 1.69-.65 1.62-2.16 2.66-3.85 2.66z" fill-rule="evenodd"/></svg>