<svg width="28" height="28" viewBox="0 0 28 28" xmlns="http://www.w3.org/2000/svg"><title>calendar-plus</title><path d="M22.48 8.6c0-1.93-1.46-3.5-3.25-3.5h-1.28v.99c0 .66-.52 1.2-1.17 1.2-.64 0-1.17-.54-1.17-1.2V5.1h-4.22v.99c0 .66-.52 1.2-1.17 1.2-.65 0-1.17-.54-1.17-1.2V5.1H7.77c-1.79 0-3.25 1.57-3.25 3.5v1.04h17.96V8.6zm0 2.65H4.52v9.64c0 .47.09.93.26 1.36.51 1.3 1.68 2.13 3 2.13h11.45c1.3 0 2.48-.83 3-2.13.16-.43.25-.89.25-1.36v-9.64zM24 8.6v12.3c0 .68-.12 1.35-.37 1.98-.75 1.9-2.48 3.12-4.4 3.12H7.77c-1.92 0-3.65-1.23-4.4-3.12-.24-.63-.37-1.3-.37-1.99V8.6c0-2.82 2.14-5.1 4.77-5.1h1.28v-.3c0-.66.52-1.2 1.17-1.2.65 0 1.17.54 1.17 1.2v.3h4.22v-.3c0-.66.53-1.2 1.17-1.2.65 0 1.17.54 1.17 1.2v.3h1.28C21.86 3.5 24 5.77 24 8.6zM9.25 17.75c0-.41.34-.75.75-.75h3v-3c0-.41.34-.75.75-.75s.75.34.75.75v3h3c.41 0 .75.34.75.75s-.34.75-.75.75h-3v3c0 .41-.34.75-.75.75s-.75-.34-.75-.75v-3h-3c-.41 0-.75-.34-.75-.75z" fill-rule="evenodd"/></svg>