<svg width="20" height="20" viewBox="0 0 20 20" xmlns="http://www.w3.org/2000/svg"><title>calendar--small</title><path d="M18 6H2v-.91C2 3.39 3.39 2 5.09 2H6v.5c0 .28.22.5.5.5s.5-.22.5-.5V2h6v.5c0 .28.22.5.5.5s.5-.22.5-.5V2h.91C16.61 2 18 3.38 18 5.09V6zm0 8.91c0 .42-.08.82-.24 1.2-.49 1.15-1.6 1.89-2.85 1.89H5.1c-1.25 0-2.36-.74-2.85-1.89-.16-.38-.24-.78-.24-1.2V7h16v7.91zM14.91 1H14V.5c0-.28-.22-.5-.5-.5s-.5.23-.5.5V1H7V.5c0-.28-.22-.5-.5-.5S6 .23 6 .5V1h-.91C2.84 1 1 2.83 1 5.09v9.82c0 .56.1 1.09.32 1.6C1.96 18.01 3.44 19 5.09 19h9.82c1.65 0 3.13-.98 3.77-2.5.21-.5.32-1.03.32-1.59V5.1C19 2.83 17.17 1 14.91 1z" fill-rule="evenodd"/></svg>