<svg width="18" height="18" viewBox="0 0 18 18" xmlns="http://www.w3.org/2000/svg"><title>calendar-cross--small</title><path d="M16.3 5.4H1.9v-.82c0-1.53 1.25-2.78 2.78-2.78h.82v.45c0 .25.2.45.45.45s.45-.2.45-.45V1.8h5.4v.45c0 .25.2.45.45.45s.45-.2.45-.45V1.8h.82c1.53 0 2.78 1.25 2.78 2.78v.82zm0 8.02c0 .38-.07.74-.22 1.08-.43 1.03-1.44 1.7-2.56 1.7H4.68c-1.12 0-2.13-.67-2.56-1.7-.15-.34-.22-.7-.22-1.08V6.3h14.4v7.12zM13.52.9h-.82V.45c0-.25-.2-.45-.45-.45s-.45.2-.45.45V.9H6.4V.45C6.4.2 6.2 0 5.95 0S5.5.2 5.5.45V.9h-.82C2.65.9 1 2.55 1 4.58v8.84c0 .5.1.98.29 1.43.58 1.37 1.9 2.25 3.39 2.25h8.84c1.48 0 2.82-.88 3.4-2.25.18-.45.28-.93.28-1.43V4.58C17.2 2.55 15.55.9 13.52.9zm-1.67 12.95c-.2.2-.51.2-.71 0L9 11.71l-2.14 2.14c-.2.2-.52.2-.71 0-.2-.2-.2-.51 0-.71L8.29 11 6.15 8.86c-.2-.2-.2-.52 0-.71.2-.2.51-.2.71 0L9 10.29l2.14-2.14c.2-.2.51-.2.71 0 .2.2.2.51 0 .71L9.71 11l2.14 2.14c.2.2.2.51 0 .71" fill-rule="evenodd"/></svg>