<svg width="24" height="24" viewBox="0 0 24 24" xmlns="http://www.w3.org/2000/svg"><title>calendar</title><path d="M4.3 8.1h15.4v-.87c0-1.61-1.25-2.92-2.79-2.92h-1.1v.82c0 .55-.44 1-1 1-.55 0-1-.45-1-1V4.3h-3.62v.82c0 .55-.45 1-1 1-.56 0-1-.45-1-1V4.3h-1.1C5.55 4.3 4.3 5.6 4.3 7.23v.86zm0 1.34v8.05c0 .4.08.78.22 1.14.44 1.08 1.45 1.78 2.57 1.78h9.82c1.12 0 2.13-.7 2.57-1.78.14-.36.22-.74.22-1.14V9.44H4.3zm12.61 12.32H7.1c-1.65 0-3.13-1.02-3.77-2.6-.21-.53-.32-1.1-.32-1.67V7.23c0-2.36 1.83-4.27 4.09-4.27h1.1v-.24c0-.56.44-1 1-1 .55 0 1 .44 1 1v.24h3.62v-.24c0-.56.45-1 1-1 .56 0 1 .44 1 1v.24h1.1c2.26 0 4.09 1.91 4.09 4.27v10.26c0 .58-.1 1.14-.32 1.66-.64 1.59-2.12 2.61-3.77 2.61z" fill-rule="evenodd"/></svg>