<svg width="20" height="20" viewBox="0 0 20 20" xmlns="http://www.w3.org/2000/svg"><title>calendar-plus--small</title><path d="M18 5.09C18 3.39 16.61 2 14.91 2H14v.5c0 .28-.22.5-.5.5s-.5-.22-.5-.5V2H7v.5c0 .28-.22.5-.5.5S6 2.78 6 2.5V2h-.91C3.39 2 2 3.38 2 5.09V6h16v-.91zM18 7H2v7.91c0 .42.08.82.24 1.2C2.73 17.26 3.84 18 5.1 18h9.82c1.25 0 2.36-.74 2.85-1.89.16-.38.24-.78.24-1.2V7zm1-1.91v9.82c0 .56-.1 1.09-.32 1.6-.64 1.51-2.12 2.49-3.77 2.49H5.1c-1.65 0-3.13-.98-3.77-2.5C1.11 16 1 15.47 1 14.91V5.1C1 2.83 2.83 1 5.09 1H6V.5c0-.28.22-.5.5-.5s.5.22.5.5V1h6V.5c0-.28.22-.5.5-.5s.5.22.5.5V1h.91C17.17 1 19 2.83 19 5.09zM6 12.55c0-.28.22-.5.5-.5h3v-3c0-.28.22-.5.5-.5s.5.22.5.5v3h3c.28 0 .5.22.5.5s-.22.5-.5.5h-3v3c0 .28-.22.5-.5.5s-.5-.22-.5-.5v-3h-3c-.28 0-.5-.22-.5-.5z" fill-rule="evenodd"/></svg>