<svg width="16" height="16" viewBox="0 0 16 16" xmlns="http://www.w3.org/2000/svg"><title>calendar-plus--small</title><path d="M14.41 4.01c0-1.34-1.1-2.43-2.44-2.43h-.71v.4c0 .21-.18.39-.4.39-.22 0-.4-.18-.4-.4v-.4H5.74v.4c0 .22-.17.4-.4.4-.2 0-.39-.18-.39-.4v-.4h-.71c-1.35 0-2.44 1.1-2.44 2.44v.72H14.4v-.72zm0 1.51H1.8v6.25c0 .32.06.64.19.94.38.9 1.26 1.49 2.25 1.49h7.74c.99 0 1.87-.58 2.25-1.49.13-.3.2-.62.2-.94V5.52zm.79-1.5v7.75c0 .43-.08.85-.25 1.25-.5 1.2-1.67 1.97-2.98 1.97H4.23c-1.3 0-2.47-.77-2.98-1.97-.16-.4-.25-.82-.25-1.25V4C1 2.23 2.45.8 4.23.8h.71v-.4c0-.21.18-.39.4-.39.22 0 .4.18.4.4v.39h4.73v-.4c0-.21.17-.39.4-.39.2 0 .39.18.39.4v.39h.71C13.75.79 15.2 2.23 15.2 4zM4.94 9.9c0-.22.18-.4.4-.4H7.7V7.15c0-.22.17-.4.39-.4s.4.18.4.4V9.5h2.36c.22 0 .4.17.4.4 0 .2-.18.38-.4.38H8.5v2.37c0 .22-.17.4-.39.4s-.4-.18-.4-.4V10.3H5.35c-.22 0-.4-.17-.4-.39z" fill-rule="evenodd"/></svg>