<svg width="24" height="24" viewBox="0 0 24 24" xmlns="http://www.w3.org/2000/svg"><title>calendar-cross</title><path d="M3.9 8.23h15.74v-.89c0-1.64-1.28-2.98-2.85-2.98h-1.12v.84c0 .57-.46 1.03-1.03 1.03-.56 0-1.02-.46-1.02-1.03v-.84h-3.7v.84c0 .57-.46 1.03-1.03 1.03-.56 0-1.02-.46-1.02-1.03v-.84H6.75C5.18 4.36 3.9 5.7 3.9 7.34v.89zm0 1.38v8.23c0 .4.08.8.23 1.16.45 1.1 1.48 1.82 2.62 1.82h10.04c1.15 0 2.17-.71 2.62-1.82.15-.37.23-.76.23-1.16V9.6H3.9zM16.8 22.2H6.75c-1.68 0-3.2-1.05-3.85-2.67-.22-.53-.33-1.1-.33-1.7V7.35c0-2.4 1.88-4.36 4.18-4.36h1.12v-.24c0-.57.46-1.03 1.02-1.03.57 0 1.03.46 1.03 1.03v.24h3.7v-.24c0-.57.46-1.03 1.02-1.03.57 0 1.03.46 1.03 1.03v.24h1.12c2.3 0 4.18 1.96 4.18 4.36v10.5c0 .59-.11 1.16-.33 1.7-.65 1.61-2.16 2.66-3.85 2.66zM14.86 18c-.28.28-.73.28-1.01 0l-2.03-2.03L9.79 18c-.28.28-.73.28-1.01 0s-.28-.73 0-1.01l2.03-2.03-2.03-2.03c-.28-.28-.28-.73 0-1.01s.73-.28 1.01 0l2.03 2.03 2.03-2.03c.28-.28.73-.28 1.01 0s.28.73 0 1.01l-2.03 2.03 2.03 2.03c.28.28.28.73 0 1" fill-rule="evenodd"/></svg>