<svg width="16" height="16" viewBox="0 0 16 16" xmlns="http://www.w3.org/2000/svg"><title>calendar-check--small</title><path d="M14.41 4.73H1.8v-.72c0-1.34 1.1-2.43 2.44-2.43h.71v.4c0 .21.18.39.4.39.22 0 .4-.18.4-.4v-.4h4.73v.4c0 .22.17.4.4.4.2 0 .39-.18.39-.4v-.4h.71c1.35 0 2.44 1.1 2.44 2.44v.72zm0 7.04c0 .32-.06.64-.19.94-.38.9-1.26 1.49-2.25 1.49H4.23c-.99 0-1.87-.58-2.25-1.49-.13-.3-.2-.62-.2-.94V5.52h12.63v6.25zM11.97.79h-.71v-.4c0-.21-.18-.39-.4-.39-.22 0-.4.18-.4.4v.39H5.74v-.4c0-.21-.17-.39-.4-.39-.2 0-.39.18-.39.4v.39h-.71C2.45.79 1 2.23 1 4v7.76c0 .43.09.85.25 1.25.5 1.2 1.68 1.97 2.98 1.97h7.74c1.3 0 2.47-.77 2.98-1.97.17-.4.25-.82.25-1.25V4C15.2 2.23 13.75.8 11.97.8zm-.24 6.98l-4.64 4.65c-.1.1-.25.15-.39.13-.14.02-.28-.03-.38-.13l-2.2-2.2c-.19-.18-.19-.48 0-.67.19-.18.48-.18.67 0l1.91 1.91 4.36-4.36c.19-.18.48-.18.67 0 .19.19.19.49 0 .67" fill-rule="evenodd"/></svg>