<svg width="24" height="24" viewBox="0 0 24 24" xmlns="http://www.w3.org/2000/svg"><title>camera</title><path d="M22.29 18.67c0 .92-.77 1.66-1.72 1.66H3.43c-.95 0-1.72-.74-1.72-1.66v-10c0-.92.77-1.67 1.72-1.67h17.14c.95 0 1.72.75 1.72 1.67v10zm-12.86-15h5.14c.57 0 .86 0 1.72 1.66H7.7c.86-1.66 1.15-1.66 1.72-1.66zm11.14 1.66h-1.71l-1.72-2.5c-.32-.46-.85-.83-1.71-.83H8.57c-.86 0-1.4.37-1.71.83l-1.72 2.5H3.43C1.53 5.33 0 6.83 0 8.67v10C0 20.5 1.54 22 3.43 22h17.14c1.9 0 3.43-1.5 3.43-3.33v-10c0-1.84-1.54-3.34-3.43-3.34zM12 17c-1.9 0-3.43-1.5-3.43-3.33 0-1.84 1.54-3.34 3.43-3.34 1.9 0 3.43 1.5 3.43 3.34C15.43 15.5 13.89 17 12 17zm0-8.33c-2.84 0-5.14 2.23-5.14 5 0 2.76 2.3 5 5.14 5s5.14-2.24 5.14-5c0-2.77-2.3-5-5.14-5z" fill-rule="evenodd"/></svg>