<svg width="16" height="16" viewBox="0 0 16 16" xmlns="http://www.w3.org/2000/svg"><title>camera--small</title><path d="M8 12.06c-1.54 0-2.8-1.24-2.8-2.76 0-1.53 1.26-2.77 2.8-2.77 1.54 0 2.8 1.24 2.8 2.77 0 1.52-1.26 2.76-2.8 2.76zm0-6.32c-1.99 0-3.6 1.6-3.6 3.56s1.61 3.55 3.6 3.55 3.6-1.59 3.6-3.55c0-1.97-1.61-3.56-3.6-3.56zm7.2 7.9c0 .44-.36.8-.8.8H1.6c-.44 0-.8-.36-.8-.8V4.95c0-.44.36-.79.8-.79h12.8c.44 0 .8.35.8.8v8.68zM5.16 2.06c.06-.12.3-.27.44-.27h4.8c.14 0 .38.15.44.27l.67 1.31H4.49l.67-1.31zm9.24 1.31h-2l-.84-1.66c-.2-.4-.72-.71-1.16-.71H5.6c-.44 0-.96.32-1.16.7L3.6 3.38h-2c-.88 0-1.6.71-1.6 1.58v8.7c0 .86.72 1.57 1.6 1.57h12.8c.88 0 1.6-.7 1.6-1.58V4.95c0-.87-.72-1.58-1.6-1.58z" fill-rule="evenodd"/></svg>