<svg width="28" height="28" viewBox="0 0 28 28" xmlns="http://www.w3.org/2000/svg"><title>camera</title><path d="M26 22c0 1.1-.9 2-2 2H4c-1.1 0-2-.9-2-2V10c0-1.1.9-2 2-2h20c1.1 0 2 .9 2 2v12zM11 4h6c.67 0 1 0 2 2H9c1-2 1.33-2 2-2zm13 2h-2l-2-3c-.37-.56-1-1-2-1h-8c-1 0-1.63.44-2 1L6 6H4c-2.2 0-4 1.8-4 4v12c0 2.2 1.8 4 4 4h20c2.2 0 4-1.8 4-4V10c0-2.2-1.8-4-4-4zM14 20c-2.2 0-4-1.8-4-4s1.8-4 4-4 4 1.8 4 4-1.8 4-4 4zm0-10c-3.31 0-6 2.69-6 6 0 3.32 2.69 6 6 6s6-2.68 6-6c0-3.31-2.69-6-6-6z" fill-rule="evenodd"/></svg>