<svg width="20" height="20" viewBox="0 0 20 20" xmlns="http://www.w3.org/2000/svg"><title>camera--small</title><path d="M10 15c-1.93 0-3.5-1.57-3.5-3.5S8.07 8 10 8s3.5 1.57 3.5 3.5S11.93 15 10 15zm0-8c-2.49 0-4.5 2.02-4.5 4.5S7.51 16 10 16c2.48 0 4.5-2.02 4.5-4.5S12.48 7 10 7zm9 10c0 .55-.45 1-1 1H2c-.55 0-1-.45-1-1V6c0-.55.45-1 1-1h16c.55 0 1 .45 1 1v11zM6.45 2.34C6.52 2.2 6.83 2 7 2h6c.17 0 .48.19.55.34L14.38 4H5.62l.83-1.66zM18 4h-2.5l-1.05-2.1c-.25-.5-.9-.9-1.45-.9H7c-.55 0-1.2.4-1.45.9L4.5 4H2C.9 4 0 4.9 0 6v11c0 1.1.9 2 2 2h16c1.1 0 2-.9 2-2V6c0-1.1-.9-2-2-2z" fill-rule="evenodd"/></svg>