<svg width="18" height="18" viewBox="0 0 18 18" xmlns="http://www.w3.org/2000/svg"><title>camera--small</title><path d="M9 13.44c-1.74 0-3.15-1.4-3.15-3.1 0-1.72 1.41-3.12 3.15-3.12s3.15 1.4 3.15 3.11c0 1.72-1.41 3.11-3.15 3.11zm0-7.1c-2.24 0-4.05 1.78-4.05 4 0 2.2 1.81 4 4.05 4 2.24 0 4.05-1.8 4.05-4 0-2.22-1.81-4-4.05-4zm8.1 8.88c0 .5-.4.9-.9.9H1.8c-.5 0-.9-.4-.9-.9V5.44c0-.49.4-.88.9-.88h14.4c.5 0 .9.4.9.88v9.78zM5.8 2.2c.07-.13.35-.3.5-.3h5.4c.15 0 .43.17.5.3l.74 1.48H5.06l.74-1.48zm10.4 1.48h-2.25L13 1.8c-.22-.44-.8-.8-1.3-.8H6.3c-.5 0-1.08.36-1.3.8l-.95 1.87H1.8c-.99 0-1.8.8-1.8 1.77v9.78C0 16.2.81 17 1.8 17h14.4c.99 0 1.8-.8 1.8-1.78V5.44c0-.97-.81-1.77-1.8-1.77z" fill-rule="evenodd"/></svg>