<svg width="17" height="17" viewBox="0 0 17 17" xmlns="http://www.w3.org/2000/svg"><title>clock-arrow--small</title><path d="M16.25 8.6l-1.76-1.76c-.18-.18-.48-.18-.65 0L12.07 8.6c-.17.18-.17.47 0 .65.18.17.53.17.7 0l.95-.97-.02.32c-.01 3.44-2.68 5.95-5.96 5.95-3.29 0-5.96-2.67-5.96-5.96 0-3.28 2.67-5.95 5.96-5.95 1.55 0 3.02.59 4.13 1.66.09.08.2.13.32.13.13 0 .24-.05.33-.14.09-.09.13-.2.13-.33 0-.12-.05-.23-.14-.32-1.29-1.24-2.98-1.92-4.77-1.92C3.94 1.72.86 4.81.86 8.6c0 3.8 3.09 6.88 6.88 6.88 3.8 0 6.88-3.09 6.88-6.88v-.01l-.02-.34 1 1c.17.17.47.17.65 0 .08-.1.13-.2.13-.33 0-.12-.05-.24-.13-.32m-5.48 1.43c-.06.18-.23.29-.4.29-.05 0-.1 0-.14-.02l-2.58-.86c-.18-.06-.3-.23-.3-.41V5.59c0-.24.2-.43.43-.43.24 0 .43.2.43.43v3.13l2.29.76c.22.08.35.32.27.55" fill-rule="evenodd"/></svg>