<svg width="16" height="16" viewBox="0 0 16 16" xmlns="http://www.w3.org/2000/svg"><title>clock-arrow--small</title><path d="M15.25 8.15l-1.64-1.64c-.17-.17-.45-.17-.61 0l-1.65 1.64c-.17.17-.17.44 0 .61.16.16.5.16.66 0l.88-.9-.02.3c0 3.21-2.5 5.56-5.57 5.56-3.08 0-5.58-2.5-5.58-5.57 0-3.07 2.5-5.57 5.58-5.57 1.45 0 2.82.55 3.86 1.55.08.08.19.12.3.12.12 0 .23-.04.3-.13.09-.08.13-.19.13-.3 0-.12-.05-.22-.13-.3-1.2-1.16-2.8-1.8-4.46-1.8C3.75 1.72.86 4.61.86 8.16c0 3.54 2.89 6.43 6.44 6.43 3.55 0 6.43-2.89 6.43-6.43v-.02l-.02-.31.94.93c.16.16.44.16.6 0 .08-.08.13-.19.13-.3 0-.12-.05-.23-.13-.3m-5.12 1.33c-.06.17-.21.27-.38.27-.04 0-.09 0-.13-.02l-2.41-.8c-.17-.06-.28-.2-.28-.38V5.34c0-.22.18-.4.4-.4.23 0 .4.18.4.4v2.93l2.15.71c.2.07.32.3.25.51" fill-rule="evenodd"/></svg>