<svg width="20" height="20" viewBox="0 0 20 20" xmlns="http://www.w3.org/2000/svg"><title>clock-arrow--small</title><path d="M18.9 10l-2.06-2.05c-.2-.2-.55-.2-.75 0l-2.05 2.04c-.2.21-.2.55 0 .76.2.2.62.2.82 0l1.1-1.12-.03.37c-.01 4-3.12 6.92-6.93 6.92-3.82 0-6.93-3.1-6.93-6.93 0-3.82 3.1-6.93 6.93-6.93 1.8 0 3.5.7 4.8 1.94.1.1.24.15.37.15.15 0 .29-.06.39-.16.1-.1.15-.24.15-.38 0-.15-.06-.28-.17-.38C13.04 2.8 11.08 2 9 2c-4.41 0-8 3.59-8 8s3.59 8 8 8 8-3.59 8-8v-.01l-.02-.4 1.16 1.16c.2.2.55.2.75 0 .1-.1.16-.23.16-.38 0-.14-.06-.27-.16-.38m-6.37 1.67c-.07.2-.26.34-.47.34-.05 0-.1 0-.16-.03l-3-1c-.2-.06-.34-.26-.34-.47v-4c0-.28.22-.5.5-.5.27 0 .5.22.5.5v3.64l2.66.88c.26.1.4.38.31.64" fill-rule="evenodd"/></svg>