<svg width="24" height="24" viewBox="0 0 24 24" xmlns="http://www.w3.org/2000/svg"><title>clock-arrow</title><path d="M15.39 14.36c-.15.3-.45.48-.77.48-.13 0-.26-.03-.38-.1l-3.44-1.72c-.3-.14-.48-.44-.48-.76V7.1c0-.48.38-.86.86-.86s.86.38.86.86v4.62L15 13.21c.43.2.6.72.39 1.15m7.48-2.9l-2.48-2.48c-.16-.16-.38-.25-.61-.25-.23 0-.45.09-.6.24l-2.49 2.48c-.33.34-.33.89 0 1.22.16.16.4.25.65.25s.49-.1.64-.25l.94-.95c-.08 4.6-3.57 8.04-8.17 8.04-4.5 0-8.17-3.66-8.17-8.16s3.67-8.16 8.17-8.16c2.12 0 4.13.8 5.66 2.28.16.15.37.24.6.24.24 0 .46-.1.62-.26.16-.17.24-.39.24-.61 0-.23-.1-.45-.26-.6-1.85-1.79-4.29-2.77-6.86-2.77C5.3 1.72.86 6.16.86 11.61s4.44 9.89 9.89 9.89c5.44 0 9.86-4.4 9.89-9.84l1 1.01c.16.16.39.25.62.25.23 0 .45-.1.6-.25.17-.16.26-.38.26-.6 0-.24-.1-.45-.25-.62" fill-rule="evenodd"/></svg>