<svg width="16" height="16" viewBox="0 0 16 16" xmlns="http://www.w3.org/2000/svg"><title>cog--small</title><path d="M8 9.56c-.86 0-1.56-.7-1.56-1.56 0-.86.7-1.56 1.56-1.56.86 0 1.56.7 1.56 1.56 0 .86-.7 1.56-1.56 1.56zm0-3.9C6.71 5.67 5.67 6.72 5.67 8c0 1.29 1.04 2.33 2.33 2.33S10.33 9.3 10.33 8 9.3 5.67 8 5.67zm4.27 3.45c-.1.4-.26.78-.47 1.13-.09.15-.06.35.06.47l.54.54c.32.32.32.83 0 1.15-.32.32-.83.32-1.15 0l-.54-.54c-.12-.12-.32-.15-.47-.06-.35.21-.73.37-1.13.47-.18.05-.3.2-.3.38v.76c0 .45-.36.81-.81.81-.45 0-.81-.36-.81-.81v-.76c0-.18-.12-.33-.3-.38-.4-.1-.78-.26-1.13-.47-.06-.03-.13-.05-.2-.05-.1 0-.2.04-.27.11l-.54.54c-.32.32-.83.32-1.15 0-.32-.32-.32-.83 0-1.15l.54-.54c.12-.12.15-.32.06-.47-.21-.35-.37-.73-.47-1.13-.05-.18-.2-.3-.38-.3h-.76c-.45 0-.81-.36-.81-.81 0-.45.36-.81.81-.81h.76c.18 0 .33-.12.38-.3.1-.4.26-.78.47-1.13.09-.15.06-.35-.06-.47l-.54-.54c-.32-.32-.32-.83 0-1.15.32-.32.83-.32 1.15 0l.54.54c.12.12.32.15.47.06.35-.21.74-.37 1.13-.47.18-.05.3-.2.3-.38v-.76c0-.45.36-.81.81-.81.45 0 .81.36.81.81v.76c0 .18.12.33.3.38.4.1.78.26 1.13.47.15.09.35.06.47-.06l.54-.54c.32-.32.83-.32 1.15 0 .32.32.32.83 0 1.15l-.54.54c-.12.12-.15.32-.06.47.21.35.37.74.47 1.13.05.18.2.3.38.3h.76c.45 0 .81.36.81.81 0 .45-.36.81-.81.81h-.76c-.18 0-.33.12-.38.3zm1.14.48C14.29 9.6 15 8.88 15 8c0-.88-.71-1.6-1.6-1.6h-.46c-.08-.26-.2-.52-.32-.77l.33-.33c.62-.62.62-1.63 0-2.25-.62-.62-1.63-.62-2.25 0l-.33.33c-.25-.13-.51-.24-.78-.32v-.47C9.6 1.71 8.88 1 8 1c-.88 0-1.6.71-1.6 1.6v.46c-.26.08-.52.2-.77.32l-.33-.33c-.62-.62-1.63-.62-2.25 0-.62.62-.62 1.63 0 2.25l.33.33c-.13.25-.24.51-.32.78h-.47C1.71 6.4 1 7.12 1 8c0 .88.71 1.6 1.6 1.6h.46c.08.26.2.52.32.77l-.33.33c-.62.62-.62 1.63 0 2.25.62.62 1.63.62 2.25 0l.33-.33c.25.13.51.24.78.32v.47C6.4 14.29 7.12 15 8 15c.88 0 1.6-.71 1.6-1.6v-.46c.26-.08.52-.2.77-.32l.33.33c.62.62 1.63.62 2.25 0 .62-.62.62-1.63 0-2.25l-.33-.33c.13-.25.24-.51.32-.78h.47z" fill-rule="evenodd"/></svg>