<svg width="18" height="18" viewBox="0 0 18 18" xmlns="http://www.w3.org/2000/svg"><title>cog--small</title><path d="M9 10.78c-.98 0-1.78-.8-1.78-1.78S8.02 7.22 9 7.22s1.78.8 1.78 1.78-.8 1.78-1.78 1.78zm0-4.45c-1.47 0-2.67 1.2-2.67 2.67s1.2 2.67 2.67 2.67 2.67-1.2 2.67-2.67S10.47 6.33 9 6.33zm4.88 3.93c-.11.46-.3.9-.53 1.3-.1.18-.08.4.07.54l.6.61c.37.37.37.96 0 1.32-.35.36-.94.36-1.3 0l-.62-.61c-.14-.15-.36-.18-.54-.07-.4.24-.84.42-1.3.53-.2.06-.33.23-.33.43v.87c0 .51-.42.93-.93.93s-.93-.42-.93-.93v-.87c0-.2-.14-.37-.33-.43-.46-.11-.9-.3-1.3-.53-.07-.04-.15-.06-.23-.06-.11 0-.23.04-.31.13l-.61.6c-.37.37-.96.37-1.32 0-.36-.35-.36-.94 0-1.3l.61-.62c.15-.14.18-.36.07-.54-.24-.4-.42-.84-.53-1.3-.06-.2-.23-.33-.43-.33h-.87c-.51 0-.93-.42-.93-.93s.42-.93.93-.93h.87c.2 0 .37-.14.43-.33.11-.46.3-.9.53-1.3.1-.18.08-.4-.07-.54l-.6-.61c-.37-.37-.37-.96 0-1.32.35-.36.94-.36 1.3 0l.62.61c.14.15.36.18.54.07.4-.24.84-.42 1.3-.53.2-.06.33-.23.33-.43v-.87c0-.51.42-.93.93-.93s.93.42.93.93v.87c0 .2.14.37.33.43.46.11.9.3 1.3.53.18.1.4.08.54-.07l.61-.6c.37-.37.96-.37 1.32 0 .36.35.36.94 0 1.3l-.61.62c-.15.14-.18.36-.07.54.24.4.42.84.53 1.3.06.2.23.33.43.33h.87c.51 0 .93.42.93.93s-.42.93-.93.93h-.87c-.2 0-.37.14-.43.33zm1.3.56c1 0 1.82-.82 1.82-1.82s-.82-1.82-1.82-1.82h-.53c-.1-.3-.22-.6-.37-.89l.38-.38c.7-.7.7-1.86 0-2.57-.71-.7-1.87-.7-2.57 0l-.38.38c-.29-.15-.58-.27-.9-.37v-.53c0-1-.8-1.82-1.81-1.82-1 0-1.82.82-1.82 1.82v.53c-.3.1-.6.22-.89.37l-.38-.38c-.7-.7-1.86-.7-2.57 0-.7.71-.7 1.86 0 2.57l.38.38c-.15.29-.27.58-.37.9h-.53C1.82 7.18 1 7.98 1 9c0 1 .82 1.82 1.82 1.82h.53c.1.3.22.6.37.89l-.38.38c-.7.7-.7 1.86 0 2.57.71.7 1.87.7 2.57 0l.38-.38c.29.15.58.27.9.37v.53c0 1 .8 1.82 1.81 1.82 1 0 1.82-.82 1.82-1.82v-.53c.3-.1.6-.22.89-.37l.38.38c.7.7 1.86.7 2.57 0 .7-.71.7-1.86 0-2.57l-.38-.38c.15-.29.27-.58.37-.9h.53z" fill-rule="evenodd"/></svg>