<svg width="28" height="28" viewBox="0 0 28 28" xmlns="http://www.w3.org/2000/svg"><title>cog</title><path d="M14 16c-1.1 0-2-.9-2-2s.9-2 2-2 2 .9 2 2-.9 2-2 2zm0-6c-2.2 0-4 1.8-4 4s1.8 4 4 4 4-1.8 4-4-1.8-4-4-4zm7.74 5c-.46 0-.85.3-.97.75-.16.63-.41 1.24-.75 1.8-.23.4-.16.9.16 1.21l.89.9c.39.39.39 1.02 0 1.41-.39.4-1.02.39-1.41 0l-.9-.9c-.32-.31-.82-.38-1.21-.15-.56.34-1.17.59-1.8.75-.44.12-.75.51-.75.97V23c0 .55-.45 1-1 1s-1-.45-1-1v-1.26c0-.46-.3-.85-.75-.97-.63-.16-1.24-.41-1.8-.75-.16-.09-.33-.13-.5-.13-.27 0-.52.1-.71.29l-.9.89c-.39.4-1.02.39-1.41 0-.39-.39-.39-1.02 0-1.41l.9-.9c.31-.32.38-.82.15-1.21-.34-.56-.59-1.17-.75-1.8-.12-.44-.51-.75-.97-.75H5c-.55 0-1-.45-1-1s.45-1 1-1h1.26c.46 0 .86-.3.97-.75.16-.63.41-1.24.75-1.8.23-.4.16-.9-.16-1.21l-.89-.9c-.39-.39-.39-1.02 0-1.41.39-.4 1.02-.39 1.41 0l.9.9c.32.31.82.38 1.21.15.56-.34 1.17-.59 1.8-.75.44-.12.75-.51.75-.97V5c0-.55.45-1 1-1s1 .45 1 1v1.26c0 .46.3.86.75.97.63.16 1.24.41 1.8.75.4.23.9.16 1.21-.16l.9-.89c.39-.4 1.02-.39 1.41 0 .39.39.39 1.02 0 1.41l-.9.9c-.31.32-.38.82-.15 1.21.34.56.59 1.17.75 1.8.12.44.51.75.97.75H23c.55 0 1 .45 1 1s-.45 1-1 1h-1.26zM23 17c1.65 0 3-1.35 3-3s-1.35-3-3-3h-.52c-.1-.3-.23-.59-.37-.87l.38-.37c1.16-1.17 1.16-3.08 0-4.25-1.17-1.16-3.08-1.16-4.25 0l-.37.38c-.28-.14-.57-.26-.87-.37V5c0-1.65-1.35-3-3-3s-3 1.35-3 3v.52c-.3.1-.59.23-.87.37l-.37-.38c-1.17-1.16-3.07-1.16-4.25 0-1.16 1.17-1.16 3.08 0 4.25l.38.37c-.14.28-.26.57-.37.87H5c-1.65 0-3 1.35-3 3s1.35 3 3 3h.52c.1.3.23.59.37.87l-.38.37c-1.16 1.17-1.16 3.08 0 4.25 1.17 1.16 3.08 1.16 4.25 0l.37-.37c.28.13.57.25.87.36V23c0 1.65 1.35 3 3 3s3-1.35 3-3v-.52c.3-.1.59-.23.87-.37l.37.38c1.17 1.16 3.07 1.16 4.25 0 1.16-1.17 1.16-3.08 0-4.25l-.37-.37c.13-.28.25-.57.36-.87H23z" fill-rule="evenodd"/></svg>