<svg width="24" height="24" viewBox="0 0 24 24" xmlns="http://www.w3.org/2000/svg"><title>cog</title><path d="M12 13.67c-.92 0-1.67-.75-1.67-1.67 0-.92.75-1.67 1.67-1.67.92 0 1.67.75 1.67 1.67 0 .92-.75 1.67-1.67 1.67zm0-5c-1.84 0-3.33 1.5-3.33 3.33 0 1.84 1.5 3.33 3.33 3.33 1.84 0 3.33-1.5 3.33-3.33 0-1.84-1.5-3.33-3.33-3.33zm6.45 4.16c-.38 0-.71.26-.8.63-.14.53-.35 1.03-.63 1.5-.2.32-.14.74.13 1.01l.74.74c.33.33.33.86 0 1.18-.32.33-.85.33-1.18 0l-.74-.74c-.27-.27-.68-.32-1.01-.13-.47.28-.97.48-1.5.62-.37.1-.63.43-.63.8v1.06c0 .46-.37.83-.83.83-.46 0-.83-.37-.83-.83v-1.05c0-.38-.26-.71-.63-.8-.53-.14-1.03-.35-1.5-.63-.13-.08-.28-.11-.42-.11-.22 0-.43.08-.6.24l-.73.74c-.33.33-.86.33-1.18 0-.33-.32-.33-.85 0-1.18l.74-.74c.27-.27.32-.69.13-1.01-.28-.47-.49-.97-.62-1.5-.1-.37-.43-.63-.8-.63H4.5c-.46 0-.83-.37-.83-.83 0-.46.37-.83.83-.83h1.05c.38 0 .71-.26.8-.63.15-.53.35-1.03.63-1.5.2-.32.14-.74-.13-1.01l-.74-.74c-.33-.33-.33-.86 0-1.18.32-.33.85-.33 1.18 0l.74.74c.27.27.69.32 1.01.13.47-.28.97-.49 1.5-.62.37-.1.63-.43.63-.8V4.5c0-.46.37-.83.83-.83.46 0 .83.37.83.83v1.05c0 .38.26.71.63.8.53.15 1.03.35 1.5.63.33.2.74.14 1.01-.13l.74-.74c.33-.33.86-.33 1.18 0 .33.32.33.85 0 1.18l-.74.74c-.27.27-.32.69-.13 1.01.28.47.48.97.62 1.5.1.37.43.63.8.63h1.06c.46 0 .83.37.83.83 0 .46-.37.83-.83.83h-1.05zm1.05 1.67c1.38 0 2.5-1.12 2.5-2.5s-1.12-2.5-2.5-2.5h-.43l-.3-.73.3-.3c.97-.98.97-2.57 0-3.54-.97-.97-2.56-.97-3.53 0l-.31.3-.73-.3V4.5C14.5 3.12 13.38 2 12 2S9.5 3.12 9.5 4.5v.43l-.73.3-.3-.3c-.98-.97-2.57-.97-3.54 0-.97.97-.97 2.56 0 3.53l.3.31-.3.73H4.5C3.12 9.5 2 10.62 2 12s1.12 2.5 2.5 2.5h.43l.3.73-.3.3c-.97.98-.97 2.57 0 3.54.97.98 2.56.97 3.53 0l.31-.3.73.3v.43c0 1.38 1.12 2.5 2.5 2.5s2.5-1.12 2.5-2.5v-.43l.73-.3.3.3c.98.97 2.56.97 3.54 0 .97-.97.97-2.56 0-3.53l-.3-.31.3-.73h.43z" fill-rule="evenodd"/></svg>