<svg width="28" height="28" viewBox="0 0 28 28" xmlns="http://www.w3.org/2000/svg"><title>copy</title><path d="M24 6c0-1.1-.9-2-2-2h-8.94C11.96 4 11 4.9 11 6v8.94c0 1.1.96 2.06 2.06 2.06H22c1.1 0 2-.96 2-2.06V6zm2 0v8.94c0 2.2-1.8 4.06-4 4.06h-8.94C10.86 19 9 17.14 9 14.94V6c0-2.2 1.86-4 4.06-4H22c2.2 0 4 1.8 4 4zM15 21h2v1.47c0 1.94-1.64 3.53-3.58 3.53h-7.9C3.6 26 2 24.41 2 22.47v-7.89C2 12.64 3.59 11 5.53 11H7v2H5.53C4.56 13 4 13.6 4 14.58v7.9c0 .96.56 1.52 1.53 1.52h7.89c.97 0 1.58-.56 1.58-1.53V21z" fill-rule="evenodd"/></svg>