<svg width="24" height="24" viewBox="0 0 24 24" xmlns="http://www.w3.org/2000/svg"><title>copy</title><path d="M20.33 5.33c0-.92-.74-1.66-1.66-1.66h-7.45c-.92 0-1.72.74-1.72 1.66v7.45c0 .92.8 1.72 1.72 1.72h7.45c.92 0 1.66-.8 1.66-1.72V5.33zm1.67 0v7.45c0 1.84-1.5 3.39-3.33 3.39h-7.45c-1.84 0-3.39-1.55-3.39-3.39V5.33C7.83 3.5 9.38 2 11.22 2h7.45C20.5 2 22 3.5 22 5.33zm-9.17 12.5h1.67v1.23c0 1.62-1.37 2.94-2.98 2.94H4.94C3.32 22 2 20.68 2 19.06v-6.57C2 10.86 3.32 9.5 4.94 9.5h1.23v1.67H4.94c-.81 0-1.27.5-1.27 1.31v6.58c0 .8.46 1.27 1.27 1.27h6.58c.8 0 1.31-.46 1.31-1.27v-1.23z" fill-rule="evenodd"/></svg>