<svg width="16" height="16" viewBox="0 0 16 16" xmlns="http://www.w3.org/2000/svg"><title>copy--small</title><path d="M8.63 12.67h.81C9.1 14 7.9 15 6.44 15H4.11C2.4 15 1 13.6 1 11.89V9.56c0-1.45 1-2.66 2.33-3v.8c-.9.33-1.55 1.18-1.55 2.2v2.33c0 1.29 1.04 2.33 2.33 2.33h2.33c1.02 0 1.87-.65 2.2-1.55zm5.6-4.9c0 1.29-1.05 2.56-2.34 2.56H8.23c-1.29 0-2.56-1.27-2.56-2.56V4.11c0-1.29 1.27-2.33 2.56-2.33h3.66c1.29 0 2.33 1.04 2.33 2.33v3.66zM11.88 1H8.23C6.52 1 4.89 2.4 4.89 4.11v3.66c0 1.71 1.63 3.34 3.34 3.34h3.66c1.71 0 3.11-1.63 3.11-3.34V4.11C15 2.4 13.6 1 11.89 1z" fill-rule="evenodd"/></svg>