<svg width="20" height="20" viewBox="0 0 20 20" xmlns="http://www.w3.org/2000/svg"><title>copy--small</title><path d="M10.816 16h1.04c-.448 1.718-2.003 3-3.856 3H5c-2.2 0-4-1.8-4-4v-3c0-1.854 1.283-3.408 3-3.857v1.042A2.993 2.993 0 0 0 2 12v3c0 1.654 1.346 3 3 3h3a2.997 2.997 0 0 0 2.816-2zM18 9.706C18 11.36 16.654 13 15 13h-4.706C8.64 13 7 11.36 7 9.706V5c0-1.654 1.64-3 3.294-3H15c1.654 0 3 1.346 3 3v4.706zM15 1h-4.706C8.094 1 6 2.8 6 5v4.706C6 11.906 8.094 14 10.294 14H15c2.2 0 4-2.094 4-4.294V5c0-2.2-1.8-4-4-4z" fill="#000" fill-rule="evenodd"/></svg>