<svg width="16" height="16" viewBox="0 0 16 16" xmlns="http://www.w3.org/2000/svg"><title>creditcard--small</title><path d="M3.2 10.94c0-.21.18-.38.4-.38H6c.22 0 .4.17.4.38 0 .22-.18.4-.4.4H3.6c-.22 0-.4-.18-.4-.4zM.8 5.11c0-1.29 1.08-2.33 2.4-2.33h9.6c1.32 0 2.4 1.04 2.4 2.33H.8zm0 2.33h14.4V5.9H.8v1.55zm14.4 3.9c0 1.28-1.08 2.33-2.4 2.33H3.2c-1.32 0-2.4-1.05-2.4-2.34v-3.1h14.4v3.1zM12.8 2H3.2C1.43 2 0 3.4 0 5.11v6.22c0 1.72 1.43 3.11 3.2 3.11h9.6c1.77 0 3.2-1.39 3.2-3.1V5.11C16 3.38 14.57 2 12.8 2z" fill-rule="evenodd"/></svg>