<svg width="18" height="18" viewBox="0 0 18 18" xmlns="http://www.w3.org/2000/svg"><title>creditcard--small</title><path d="M3.6 12.06c0-.24.2-.44.45-.44h2.7c.25 0 .45.2.45.44s-.2.44-.45.44h-2.7c-.25 0-.45-.2-.45-.44zM.9 5.5c0-1.45 1.21-2.63 2.7-2.63h10.8c1.49 0 2.7 1.18 2.7 2.63H.9zm0 2.63h16.2V6.37H.9v1.75zm16.2 4.37c0 1.45-1.21 2.63-2.7 2.63H3.6c-1.49 0-2.7-1.18-2.7-2.63V9h16.2v3.5zM14.4 2H3.6C1.61 2 0 3.57 0 5.5v7C0 14.43 1.61 16 3.6 16h10.8c1.99 0 3.6-1.57 3.6-3.5v-7C18 3.57 16.39 2 14.4 2z" fill-rule="evenodd"/></svg>