<svg width="24" height="24" viewBox="0 0 24 24" xmlns="http://www.w3.org/2000/svg"><title>creditcard</title><path d="M3.43 15.9c0-.47.38-.85.86-.85H6c.47 0 .86.38.86.85s-.39.85-.86.85H4.29c-.48 0-.86-.38-.86-.85zm18.86-6.8H1.7V7.4c0-.94.77-1.7 1.72-1.7h17.14c.95 0 1.72.76 1.72 1.7v1.7zm0 8.5c0 .94-.77 1.7-1.72 1.7H3.43c-.95 0-1.72-.76-1.72-1.7v-5.1H22.3v5.1zM20.57 4H3.43C1.53 4 0 5.52 0 7.4v10.2C0 19.48 1.54 21 3.43 21h17.14c1.9 0 3.43-1.52 3.43-3.4V7.4C24 5.52 22.46 4 20.57 4z" fill-rule="evenodd"/></svg>