<svg width="24" height="24" viewBox="0 0 24 24" xmlns="http://www.w3.org/2000/svg"><title>cross-circle</title><path d="M15.54 15.54c-.33.32-.86.32-1.18 0L12 13.18l-2.36 2.36c-.32.32-.85.32-1.18 0-.32-.33-.32-.86 0-1.18L10.82 12 8.46 9.64c-.32-.32-.32-.85 0-1.17.33-.33.86-.33 1.18 0L12 10.82l2.36-2.35c.32-.33.85-.33 1.18 0 .32.32.32.85 0 1.17L13.18 12l2.36 2.36c.32.32.32.85 0 1.18m3.53-10.61c-3.9-3.9-10.24-3.9-14.14 0-3.9 3.9-3.9 10.24 0 14.14 3.9 3.9 10.24 3.9 14.14 0 3.9-3.9 3.9-10.24 0-14.14" fill-rule="evenodd"/></svg>