<svg width="18" height="18" viewBox="0 0 18 18" xmlns="http://www.w3.org/2000/svg"><title>cross-circle--small</title><path d="M11.48 11.47c-.18.18-.45.17-.62 0L9 9.62l-1.86 1.85c-.17.17-.44.17-.61 0-.18-.17-.18-.44 0-.61L8.38 9 6.53 7.14c-.18-.17-.18-.44 0-.61.17-.18.44-.18.61 0L9 8.38l1.86-1.85c.17-.18.44-.18.62 0 .17.17.17.44 0 .61L9.62 9l1.86 1.86c.17.17.17.44 0 .61m2.47-7.42c-2.73-2.73-7.17-2.73-9.9 0-2.73 2.73-2.73 7.17 0 9.9 2.73 2.73 7.17 2.73 9.9 0 2.73-2.73 2.73-7.17 0-9.9" fill-rule="evenodd"/></svg>