<svg width="28" height="28" viewBox="0 0 28 28" xmlns="http://www.w3.org/2000/svg"><title>cross-circle</title><path d="M18.24 18.24c-.39.4-1.02.4-1.41 0L14 15.41l-2.83 2.83c-.39.4-1.02.4-1.41 0-.4-.39-.4-1.02 0-1.41L12.59 14l-2.83-2.83c-.4-.39-.4-1.02 0-1.41.39-.4 1.02-.4 1.41 0L14 12.59l2.83-2.83c.39-.4 1.02-.4 1.41 0 .4.39.4 1.02 0 1.41L15.41 14l2.83 2.83c.4.39.4 1.02 0 1.41M22.5 5.51C17.8.83 10.2.83 5.5 5.51.83 10.21.83 17.8 5.51 22.5c4.7 4.68 12.29 4.68 16.98 0 4.68-4.69 4.68-12.29 0-16.98" fill-rule="evenodd"/></svg>