<svg width="16" height="16" viewBox="0 0 16 16" xmlns="http://www.w3.org/2000/svg"><title>cross-circled--small</title><path d="M12.95 3.05c-2.73-2.73-7.17-2.73-9.9 0-2.73 2.73-2.73 7.17 0 9.9 2.73 2.73 7.17 2.73 9.9 0 2.73-2.73 2.73-7.17 0-9.9m-9.28 9.28c-2.39-2.39-2.39-6.27 0-8.66 2.39-2.39 6.27-2.39 8.66 0 2.39 2.39 2.39 6.27 0 8.66-2.39 2.39-6.27 2.39-8.66 0m6.8-1.86c-.17.18-.44.18-.61 0L8 8.62l-1.86 1.85c-.17.18-.44.18-.62 0-.17-.17-.17-.44 0-.61L7.38 8 5.52 6.14c-.17-.17-.17-.44 0-.62.18-.17.45-.17.62 0L8 7.38l1.86-1.86c.17-.17.44-.17.61 0 .18.18.18.45 0 .62L8.62 8l1.85 1.86c.18.17.18.44 0 .61" fill-rule="evenodd"/></svg>