<svg width="28" height="28" viewBox="0 0 28 28" xmlns="http://www.w3.org/2000/svg"><title>cross-circle</title><path d="M18.243 18.242a.999.999 0 0 1-1.414 0l-2.83-2.828-2.827 2.829a.999.999 0 1 1-1.414-1.414L12.586 14l-2.828-2.829a1 1 0 1 1 1.414-1.414L14 12.588l2.828-2.829a1 1 0 1 1 1.415 1.415L15.413 14l2.83 2.827a1 1 0 0 1 0 1.415m4.243-12.728C17.8.829 10.2.829 5.515 5.514c-4.687 4.686-4.686 12.284 0 16.97 4.686 4.688 12.284 4.688 16.97 0 4.687-4.686 4.687-12.284 0-16.97" fill="#000" fill-rule="evenodd"/></svg>