<svg width="24" height="24" viewBox="0 0 24 24" xmlns="http://www.w3.org/2000/svg"><title>cross-circled</title><path d="M6.1 17.9c-3.24-3.26-3.24-8.54 0-11.8 3.26-3.24 8.54-3.24 11.8 0 3.24 3.26 3.24 8.54 0 11.8-3.26 3.24-8.54 3.24-11.8 0M19.08 4.92c-3.9-3.9-10.24-3.9-14.14 0-3.9 3.9-3.9 10.24 0 14.14 3.9 3.9 10.24 3.9 14.14 0 3.9-3.9 3.9-10.24 0-14.14m-3.54 9.43L13.18 12l2.35-2.36c.33-.32.33-.85 0-1.18-.32-.32-.85-.32-1.17 0L12 10.82 9.64 8.46c-.32-.32-.85-.32-1.18 0-.32.33-.32.86 0 1.18L10.82 12l-2.36 2.36c-.32.32-.32.85 0 1.18.33.32.86.32 1.18 0L12 13.18l2.36 2.36c.32.32.85.32 1.17 0 .33-.33.33-.86 0-1.18" fill-rule="evenodd"/></svg>