<svg width="18" height="18" viewBox="0 0 18 18" xmlns="http://www.w3.org/2000/svg"><title>cross-circle-outlined--small</title><path d="M14.66 3.34C11.53.22 6.46.22 3.34 3.34c-3.12 3.13-3.12 8.2 0 11.32 3.13 3.12 8.2 3.12 11.32 0 3.12-3.13 3.12-8.2 0-11.32M4.05 13.95c-2.73-2.73-2.73-7.17 0-9.9 2.73-2.73 7.17-2.73 9.9 0 2.73 2.73 2.73 7.17 0 9.9-2.73 2.73-7.17 2.73-9.9 0m7.78-2.12c-.2.2-.51.2-.7 0L9 9.7l-2.12 2.12c-.2.2-.51.2-.7 0-.2-.2-.2-.51 0-.7L8.28 9 6.17 6.88c-.2-.2-.2-.51 0-.7.2-.2.51-.2.7 0L9 8.28l2.12-2.12c.2-.2.51-.2.7 0 .2.2.2.51 0 .7L9.72 9l2.12 2.12c.2.2.2.51 0 .7" fill-rule="evenodd"/></svg>