<svg width="16" height="16" viewBox="0 0 16 16" xmlns="http://www.w3.org/2000/svg"><title>cross-circle--small</title><path d="M10.12 10.12c-.15.15-.38.15-.53 0L8 8.53l-1.6 1.6c-.14.14-.37.14-.52 0-.15-.16-.15-.4 0-.54L7.47 8l-1.6-1.6c-.14-.14-.14-.37 0-.52.16-.15.4-.15.54 0L8 7.47l1.6-1.6c.14-.14.37-.14.52 0 .15.16.15.4 0 .54L8.53 8l1.6 1.6c.14.14.14.37 0 .52m2.11-6.36C9.9 1.4 6.1 1.4 3.76 3.76 1.4 6.1 1.4 9.9 3.76 12.24c2.34 2.35 6.14 2.35 8.48 0 2.35-2.34 2.35-6.14 0-8.48" fill-rule="evenodd"/></svg>