<svg width="20" height="20" viewBox="0 0 20 20" xmlns="http://www.w3.org/2000/svg"><title>description--small</title><path d="M12 14c0 .28-.22.5-.5.5h-7c-.28 0-.5-.22-.5-.5s.22-.5.5-.5h7c.28 0 .5.22.5.5zm4-8c0 .28-.22.5-.5.5h-11c-.28 0-.5-.22-.5-.5s.22-.5.5-.5h11c.28 0 .5.22.5.5zm0 4c0 .28-.22.5-.5.5h-11c-.28 0-.5-.22-.5-.5s.22-.5.5-.5h11c.28 0 .5.22.5.5zm2 5.5c0 1.38-1.12 2.5-2.5 2.5h-11C3.12 18 2 16.88 2 15.5v-11C2 3.12 3.12 2 4.5 2h11C16.88 2 18 3.12 18 4.5v11zM15.5 1h-11C2.57 1 1 2.57 1 4.5v11C1 17.43 2.57 19 4.5 19h11c1.93 0 3.5-1.57 3.5-3.5v-11C19 2.57 17.43 1 15.5 1z" fill-rule="evenodd"/></svg>