<svg width="24" height="24" viewBox="0 0 24 24" xmlns="http://www.w3.org/2000/svg"><title>download</title><path d="M21 14.59c0 2.43-1.9 4.41-4.25 4.41h-8.5C5.91 19 4 17.02 4 14.59c0-.49.38-.88.85-.88s.85.4.85.88c0 1.46 1.14 2.65 2.55 2.65h8.5c1.4 0 2.55-1.2 2.55-2.65 0-.49.38-.88.85-.88s.85.4.85.88zM7.72 12.63c-.37-.3-.43-.86-.13-1.24.29-.38.82-.44 1.2-.14l2.86 2.39V4.88c0-.48.38-.88.85-.88s.85.4.85.88v8.76l2.87-2.39c.16-.13.34-.19.53-.19.25 0 .5.11.66.33.3.38.24.94-.13 1.24l-4.25 3.53c-.3.26-.75.26-1.06 0l-4.25-3.53z" fill-rule="evenodd"/></svg>