<svg width="20" height="20" viewBox="0 0 20 20" xmlns="http://www.w3.org/2000/svg"><title>download--small</title><path d="M18 12.5c0 2.48-2.02 4.5-4.5 4.5h-7C4.02 17 2 14.98 2 12.5c0-.28.22-.5.5-.5s.5.22.5.5C3 14.43 4.57 16 6.5 16h7c1.93 0 3.5-1.57 3.5-3.5 0-.28.22-.5.5-.5s.5.22.5.5zM5.16 10.87c-.2-.18-.22-.5-.03-.7.19-.21.5-.23.7-.04l3.67 3.24V4.5c0-.28.22-.5.5-.5s.5.22.5.5v8.87l3.66-3.24c.1-.09.22-.13.34-.13.14 0 .27.05.37.16.19.2.17.53-.03.71l-4.5 4-.09.05-.06.04c-.12.05-.26.05-.38 0-.02 0-.04-.03-.06-.04l-.09-.05-4.5-4z" fill-rule="evenodd"/></svg>