<svg width="16" height="16" viewBox="0 0 16 16" xmlns="http://www.w3.org/2000/svg"><title>download--small</title><path d="M13.25 9.73H14c0 1.96-1.51 3.56-3.38 3.56H5.38C3.5 13.29 2 11.69 2 9.73c0-.22.17-.4.38-.4.2 0 .37.18.37.4 0 1.52 1.18 2.76 2.63 2.76h5.25c1.44 0 2.62-1.24 2.62-2.76 0-.22.17-.4.38-.4.2 0 .37.18.37.4 0 .21-.17.4-.38.4-.2 0-.37-.19-.37-.4zm-8.88-1.3c-.15-.14-.16-.4-.02-.55.14-.17.37-.18.53-.03l2.75 2.56V3.4c0-.22.16-.4.37-.4.2 0 .38.18.38.4v7.01l2.74-2.56c.08-.07.17-.1.26-.1.1 0 .2.04.27.13.14.16.13.4-.02.56L8.25 11.6l-.06.04c-.02.01-.03.03-.05.03-.09.04-.19.04-.28 0-.02 0-.03-.02-.05-.03l-.06-.04-3.38-3.16z" fill-rule="evenodd"/></svg>