<svg width="18" height="18" viewBox="0 0 18 18" xmlns="http://www.w3.org/2000/svg"><title>download--small</title><path d="M16 10.85c0 2.29-1.77 4.15-3.94 4.15H5.94C3.77 15 2 13.14 2 10.85c0-.26.2-.47.44-.47s.43.21.43.47c0 1.78 1.38 3.23 3.07 3.23h6.12c1.7 0 3.06-1.45 3.06-3.23 0-.26.2-.47.44-.47s.44.21.44.47zM4.77 9.35c-.18-.18-.2-.47-.03-.66.16-.2.44-.2.62-.03l3.2 2.99V3.46c0-.25.2-.46.44-.46s.44.2.44.46v8.19l3.2-3c.09-.07.2-.11.3-.11.12 0 .23.05.32.15.16.19.15.48-.03.65l-3.94 3.7-.07.04-.06.04c-.1.04-.22.04-.32 0l-.06-.04c-.02-.01-.05-.02-.07-.05L4.77 9.34z" fill-rule="evenodd"/></svg>