<svg width="24" height="24" viewBox="0 0 24 24" xmlns="http://www.w3.org/2000/svg"><title>drinks</title><path d="M13.56 9.1h-1.68V6.16c0-1.17.89-2.1 2.02-2.1.23 0 .34-.2.34-.4V2h1.68v1.66c0 1.18-.89 2.1-2.02 2.1-.24 0-.34.2-.34.4V9.1zm-6.67.01l-.05-2.94c0-1.16.93-2.1 2.07-2.1.24 0 .34-.2.34-.4V2h1.68v1.66c0 1.18-.89 2.1-2.02 2.1-.2 0-.39.14-.39.4l.05 2.92-1.68.03zm11.9 6.22h-.88l.77-3.4.47-.01c.46 0 1.17.78 1.17 1.75 0 .91-.68 1.66-1.52 1.66zm-8.25 4.99c-2.63 0-4.9-1.9-5.52-4.6l-.9-3.8h12.84l-.87 3.8c-.65 2.7-2.94 4.6-5.55 4.6zm8.6-10.09H2l1.38 5.88c.8 3.47 3.74 5.89 7.16 5.89 3.08 0 5.8-2 6.9-4.99h1.36c1.76 0 3.2-1.5 3.2-3.34 0-1.8-1.36-3.44-2.85-3.44z" fill-rule="evenodd"/></svg>