<svg width="18" height="18" viewBox="0 0 18 18" xmlns="http://www.w3.org/2000/svg"><title>drinks--small</title><path d="M6.27 6.52h-.9V4.23c0-.79.63-1.41 1.43-1.41.3 0 .53-.22.53-.53V1h.9v1.3c0 .79-.63 1.4-1.43 1.4-.3 0-.53.23-.53.53v2.29zm3.58 0h-.9V4.23c0-.79.63-1.41 1.43-1.41.3 0 .53-.22.53-.53V1h.89v1.3c0 .79-.63 1.4-1.42 1.4-.31 0-.53.23-.53.53v2.29zm4.75 5.71h-1.04l.74-3h.3c.83 0 1.5.68 1.5 1.5 0 .83-.67 1.5-1.5 1.5zm-6.84 3.88c-2.3 0-4.27-1.53-4.8-3.74l-.81-3.13h11.23l-.78 3.13c-.57 2.2-2.56 3.74-4.84 3.74zm6.84-7.76H1l1.08 4.23C2.72 15.18 5.06 17 7.76 17c2.5 0 4.68-1.57 5.52-3.88h1.32c1.32 0 2.4-1.07 2.4-2.39 0-1.31-1.08-2.38-2.4-2.38z" fill-rule="evenodd"/></svg>