<svg width="16" height="16" viewBox="0 0 16 16" xmlns="http://www.w3.org/2000/svg"><title>drinks--small</title><path d="M5.61 5.83h-.78v-2c0-.7.55-1.24 1.24-1.24.27 0 .47-.2.47-.46V1h.78v1.13c0 .7-.55 1.24-1.25 1.24-.26 0-.46.2-.46.46v2zm3.13 0h-.78v-2c0-.7.55-1.24 1.24-1.24.27 0 .47-.2.47-.46V1h.78v1.13c0 .7-.55 1.24-1.25 1.24-.26 0-.46.2-.46.46v2zm4.16 5h-.91l.65-2.62h.26c.73 0 1.32.58 1.32 1.3 0 .73-.6 1.32-1.32 1.32zm-5.98 3.4c-2 0-3.74-1.35-4.21-3.28L2 8.2h9.82l-.68 2.74c-.5 1.93-2.24 3.27-4.23 3.27zm5.98-6.8H1l.95 3.7C2.5 13.42 4.55 15 6.92 15c2.18 0 4.1-1.38 4.83-3.4h1.15c1.16 0 2.1-.93 2.1-2.08s-.94-2.09-2.1-2.09z" fill-rule="evenodd"/></svg>