<svg width="24" height="24" viewBox="0 0 24 24" xmlns="http://www.w3.org/2000/svg"><title>edit</title><path d="M4.5 12.83c0 .46.37.83.83.83h1.4c.22 0 .43-.08.6-.24l5.33-5.34L10.1 5.5l-5.35 5.34c-.15.16-.24.37-.24.6v1.4zm6.9-8.63l-.14.12 2.58 2.58.13-.13c.34-.34.53-.8.53-1.28 0-.49-.19-.95-.53-1.29-.36-.36-.83-.53-1.3-.53-.46 0-.93.17-1.28.53zm-8.57 8.63v-1.4c0-.66.26-1.3.74-1.76l6.64-6.65c1.36-1.36 3.57-1.36 4.93 0 .66.66 1.03 1.54 1.03 2.47 0 .93-.37 1.8-1.03 2.46L8.5 14.6c-.47.47-1.1.73-1.77.73h-1.4c-1.38 0-2.5-1.12-2.5-2.5zM22 21.16c0 .46-.37.84-.83.84H2.83c-.46 0-.83-.38-.83-.84 0-.46.37-.83.83-.83h18.34c.46 0 .83.37.83.83z" fill-rule="evenodd"/></svg>