<svg width="16" height="16" viewBox="0 0 16 16" xmlns="http://www.w3.org/2000/svg"><title>edit--small</title><path d="M15 14.6c0 .22-.17.4-.39.4H1.4c-.22 0-.39-.18-.39-.4 0-.2.17-.38.39-.38H14.6c.22 0 .39.17.39.39zM1.78 9.43c0-.32.12-.6.34-.83l5.65-5.65 2.95 2.96-5.65 5.65c-.21.21-.51.34-.82.34h-1.3c-.65 0-1.17-.53-1.17-1.17v-1.3zM9.8 1.78c.53 0 1.07.2 1.48.61.4.4.6.92.6 1.48 0 .55-.2 1.08-.6 1.47L8.31 2.4c.41-.4.94-.61 1.48-.61zM2.94 12.66h1.3c.53 0 1.02-.2 1.38-.56l6.2-6.2c.55-.55.85-1.27.85-2.03 0-.77-.3-1.49-.85-2.03C10.71.72 8.9.72 7.77 1.84l-6.2 6.2C1.2 8.41 1 8.9 1 9.42v1.3c0 1.07.87 1.94 1.94 1.94z" fill-rule="evenodd"/></svg>