<svg width="28" height="28" viewBox="0 0 28 28" xmlns="http://www.w3.org/2000/svg"><title>edit</title><path d="M5 15c0 .55.45 1 1 1h1.68c.26 0 .52-.1.7-.3l6.41-6.4-3.09-3.1-6.4 6.41c-.2.2-.3.44-.3.71V15zm8.27-10.36l-.15.15 3.09 3.1.15-.16c.41-.41.64-.96.64-1.55 0-.58-.23-1.13-.64-1.54-.43-.43-.99-.64-1.55-.64s-1.12.21-1.54.64zM3 15v-1.68c0-.8.31-1.55.88-2.12l7.98-7.98c1.63-1.63 4.28-1.63 5.91 0 .8.8 1.23 1.85 1.23 2.96 0 1.12-.44 2.17-1.23 2.96L9.8 17.12c-.57.57-1.32.88-2.12.88H6c-1.65 0-3-1.35-3-3zm23 10c0 .55-.45 1-1 1H3c-.55 0-1-.45-1-1s.45-1 1-1h22c.55 0 1 .45 1 1z" fill-rule="evenodd"/></svg>