<svg width="20" height="20" viewBox="0 0 20 20" xmlns="http://www.w3.org/2000/svg"><title>edit--small</title><path d="M19 18.5c0 .27-.22.5-.5.5h-17c-.28 0-.5-.23-.5-.5 0-.28.22-.5.5-.5h17c.28 0 .5.22.5.5zM2 11.82c0-.4.16-.78.44-1.06L9.7 3.5l3.8 3.8-7.26 7.26c-.28.28-.67.44-1.06.44H3.5c-.83 0-1.5-.68-1.5-1.5v-1.68zM12.31 2c.69 0 1.38.26 1.9.79.51.5.79 1.18.79 1.9 0 .71-.28 1.38-.79 1.9l-3.8-3.8c.53-.53 1.21-.79 1.9-.79zM3.5 16h1.68c.67 0 1.3-.26 1.76-.73l7.98-7.98c.7-.7 1.08-1.62 1.08-2.6 0-.99-.38-1.91-1.08-2.61-1.44-1.44-3.78-1.44-5.21 0l-7.98 7.97c-.47.47-.73 1.1-.73 1.77v1.68C1 14.88 2.12 16 3.5 16z" fill-rule="evenodd"/></svg>