<svg width="18" height="18" viewBox="0 0 18 18" xmlns="http://www.w3.org/2000/svg"><title>edit--small</title><path d="M17 16.55c0 .25-.2.45-.44.45H1.44c-.24 0-.44-.2-.44-.45 0-.24.2-.44.44-.44h15.12c.24 0 .44.2.44.44zM1.89 10.62c0-.36.14-.7.39-.94l6.46-6.46L12.1 6.6l-6.45 6.45c-.25.25-.6.4-.95.4H3.22c-.73 0-1.33-.6-1.33-1.34v-1.5zm9.17-8.73c.6 0 1.22.23 1.69.7.45.45.7 1.05.7 1.69 0 .63-.25 1.23-.7 1.68h-.01L9.36 2.6h.01c.46-.47 1.07-.7 1.69-.7zM3.22 14.33h1.5c.59 0 1.14-.23 1.56-.65l7.1-7.09c.61-.62.95-1.44.95-2.31 0-.88-.34-1.7-.96-2.32-1.28-1.28-3.35-1.28-4.63 0L1.65 9.05c-.42.42-.65.97-.65 1.57v1.49c0 1.22 1 2.22 2.22 2.22z" fill-rule="evenodd"/></svg>