<svg width="20" height="20" viewBox="0 0 20 20" xmlns="http://www.w3.org/2000/svg"><title>export--small</title><path d="M15.34 7.3c-.72 0-1.34.27-1.78.72L7.25 4.33c.08-.18.08-.45.08-.63C7.33 2.17 6.18 1 4.67 1 3.16 1 2 2.17 2 3.7c0 1.53 1.16 2.7 2.67 2.7.7 0 1.33-.27 1.78-.72l6.3 3.69c-.08.18-.08.45-.08.63s0 .45.09.63l-6.31 3.78c-.45-.45-1.07-.72-1.78-.72-1.43 0-2.58 1.17-2.58 2.61s1.15 2.61 2.58 2.61c1.42 0 2.58-1.17 2.58-2.61 0-.18 0-.36-.1-.63l6.32-3.78c.44.45 1.07.72 1.78.72 1.5 0 2.66-1.17 2.66-2.7 0-1.53-1.06-2.61-2.57-2.61z" fill-rule="evenodd"/></svg>