<svg width="20" height="20" viewBox="0 0 20 20" xmlns="http://www.w3.org/2000/svg"><title>export--small</title><path d="M15.335 7.3c-.711 0-1.333.27-1.778.72L7.245 4.33c.09-.18.09-.45.09-.63 0-1.53-1.157-2.7-2.668-2.7C3.156 1 2 2.17 2 3.7c0 1.53 1.156 2.7 2.667 2.7.711 0 1.334-.27 1.778-.72l6.312 3.69c-.089.18-.089.45-.089.63s0 .45.089.63l-6.312 3.78a2.467 2.467 0 0 0-1.778-.72c-1.422 0-2.578 1.17-2.578 2.61s1.156 2.61 2.578 2.61 2.578-1.17 2.578-2.61c0-.18 0-.36-.089-.63l6.312-3.78c.445.45 1.067.72 1.778.72 1.512 0 2.667-1.17 2.667-2.7 0-1.53-1.066-2.61-2.578-2.61z" fill-rule="evenodd"/></svg>