<svg width="28" height="28" viewBox="0 0 28 28" xmlns="http://www.w3.org/2000/svg"><title>export</title><path d="M20.78 10.4c-.95 0-1.78.36-2.37.96L9.99 6.44c.12-.24.12-.6.12-.84 0-2.04-1.54-3.6-3.55-3.6C4.54 2 3 3.56 3 5.6s1.54 3.6 3.56 3.6c.94 0 1.77-.36 2.37-.96l8.41 4.92c-.12.24-.12.6-.12.84s0 .6.12.84l-8.41 5.04c-.6-.6-1.43-.96-2.37-.96-1.9 0-3.44 1.56-3.44 3.48s1.54 3.48 3.44 3.48 3.43-1.56 3.43-3.48c0-.24 0-.48-.11-.84l8.41-5.04c.6.6 1.42.96 2.37.96 2.02 0 3.56-1.56 3.56-3.6s-1.42-3.48-3.44-3.48z" fill-rule="evenodd"/></svg>