<svg width="20" height="20" viewBox="0 0 20 20" xmlns="http://www.w3.org/2000/svg"><title>export--small</title><path d="M15 13.4c-.63 0-1.2.25-1.63.64l-5.94-3.46c.04-.19.07-.38.07-.58 0-.2-.03-.4-.08-.58l5.88-3.43c.45.42 1.04.68 1.7.68 1.38 0 2.5-1.12 2.5-2.5 0-1.39-1.12-2.5-2.5-2.5s-2.5 1.11-2.5 2.5c0 .2.03.39.07.58L6.7 8.18C6.25 7.76 5.66 7.5 5 7.5c-1.38 0-2.5 1.12-2.5 2.5s1.12 2.5 2.5 2.5c.66 0 1.25-.26 1.7-.68l5.93 3.47c-.04.18-.06.36-.06.54 0 1.35 1.09 2.44 2.43 2.44s2.43-1.1 2.43-2.44c0-1.34-1.09-2.43-2.43-2.43z" fill-rule="nonzero"/></svg>