<svg width="18" height="18" viewBox="0 0 18 18" xmlns="http://www.w3.org/2000/svg"><title>export--small</title><path d="M13.5 12.06c-.57 0-1.08.22-1.47.58L6.68 9.52c.04-.17.07-.34.07-.52s-.03-.35-.07-.53l5.29-3.08c.4.38.94.61 1.53.61 1.24 0 2.25-1 2.25-2.25s-1-2.25-2.25-2.25c-1.24 0-2.25 1-2.25 2.25 0 .18.03.35.07.53L6.03 7.36c-.4-.38-.94-.61-1.53-.61-1.25 0-2.25 1-2.25 2.25 0 1.24 1 2.25 2.25 2.25.6 0 1.13-.23 1.53-.6l5.34 3.11c-.04.16-.06.33-.06.49 0 1.2.98 2.19 2.19 2.19 1.2 0 2.19-.98 2.19-2.19 0-1.2-.98-2.19-2.19-2.19z" fill-rule="nonzero"/></svg>