<svg width="28" height="28" viewBox="0 0 28 28" xmlns="http://www.w3.org/2000/svg"><title>export</title><path d="M20.78 10.4c-.948 0-1.778.36-2.37.96L9.994 6.44c.118-.24.118-.6.118-.84 0-2.04-1.54-3.6-3.556-3.6C4.541 2 3 3.56 3 5.6s1.541 3.6 3.556 3.6c.948 0 1.778-.36 2.37-.96l8.417 4.92c-.119.24-.119.6-.119.84s0 .6.119.84l-8.416 5.04c-.593-.6-1.423-.96-2.371-.96-1.897 0-3.437 1.56-3.437 3.48s1.54 3.48 3.437 3.48c1.897 0 3.438-1.56 3.438-3.48 0-.24 0-.48-.119-.84l8.416-5.04c.593.6 1.422.96 2.37.96 2.016 0 3.557-1.56 3.557-3.6s-1.423-3.48-3.438-3.48z" fill-rule="evenodd"/></svg>