<svg width="28" height="28" viewBox="0 0 28 28" xmlns="http://www.w3.org/2000/svg"><title>export</title><path d="M21 18.76c-.89 0-1.68.35-2.29.9l-8.32-4.84c.06-.27.11-.54.11-.82 0-.28-.05-.55-.1-.82l8.22-4.8c.63.6 1.46.95 2.38.95 1.94 0 3.5-1.56 3.5-3.5 0-1.93-1.56-3.5-3.5-3.5s-3.5 1.57-3.5 3.5c0 .28.05.55.1.82l-8.22 4.8c-.63-.59-1.46-.95-2.38-.95-1.94 0-3.5 1.56-3.5 3.5s1.56 3.5 3.5 3.5c.92 0 1.75-.36 2.38-.95l8.3 4.86c-.05.24-.09.5-.09.76 0 1.88 1.53 3.4 3.41 3.4 1.88 0 3.4-1.52 3.4-3.4s-1.52-3.41-3.4-3.41z" fill-rule="nonzero"/></svg>