<svg width="24" height="24" viewBox="0 0 24 24" xmlns="http://www.w3.org/2000/svg"><title>external-messenger-outlined</title><path d="M17.92 8.94l-5.01 5.32-2.33-2.49-4.56 2.5 5.01-5.33 2.4 2.5 4.5-2.5zM12 18.98c-.82 0-1.63-.12-2.4-.33-.22-.06-.44-.03-.63.07l-1.89 1.04v-1.83c0-.26-.12-.51-.33-.67-1.96-1.46-3.08-3.63-3.08-5.94C3.67 7.1 7.4 3.67 12 3.67s8.33 3.43 8.33 7.65c0 4.22-3.74 7.66-8.33 7.66zM12 2C6.49 2 2 6.18 2 11.32c0 2.71 1.24 5.24 3.42 7.02v2.83c0 .3.15.56.4.71.14.08.28.12.43.12.14 0 .28-.04.4-.1l2.83-1.56c.82.2 1.67.3 2.52.3 5.51 0 10-4.18 10-9.32C22 6.18 17.51 2 12 2z" fill-rule="evenodd"/></svg>