<svg width="18" height="18" viewBox="0 0 18 18" xmlns="http://www.w3.org/2000/svg"><title>external-messenger-outlined--small</title><path d="M10.17 8.54l3.69-2.04-4.11 4.36L7.83 8.8 4.1 10.86 8.2 6.5l1.97 2.04zM9 14.92c-.68 0-1.37-.1-2.03-.28-.12-.03-.25-.02-.36.05l-1.84 1v-1.83c0-.15-.07-.3-.2-.39-1.65-1.23-2.6-3.07-2.6-5.03 0-3.57 3.15-6.47 7.03-6.47 3.88 0 7.03 2.9 7.03 6.47S12.88 14.92 9 14.92zM9 1C4.59 1 1 4.34 1 8.44c0 2.2 1.02 4.24 2.8 5.66v2.42c0 .17.1.32.24.41.07.05.16.07.25.07.08 0 .16-.02.23-.06l2.39-1.31c.68.17 1.39.26 2.09.26 4.41 0 8-3.34 8-7.45C17 4.34 13.41 1 9 1z" fill-rule="evenodd"/></svg>