<svg width="18" height="18" viewBox="0 0 18 18" xmlns="http://www.w3.org/2000/svg"><title>external-twitter-outlined--small</title><path d="M13.85 6.45v.33c0 3.39-2.51 7.3-7.11 7.3-1.42 0-2.73-.43-3.84-1.16.2.03.4.04.6.04 1.17 0 2.25-.41 3.1-1.1-1.09-.02-2.01-.76-2.33-1.78.15.03.3.05.47.05.23 0 .45-.03.66-.1-1.15-.23-2.01-1.26-2.01-2.5v-.04c.34.2.72.3 1.13.32-.67-.46-1.11-1.24-1.11-2.13 0-.47.12-.91.34-1.29C4.98 5.94 6.83 6.96 8.9 7.07c-.05-.19-.07-.39-.07-.59 0-1.41 1.12-2.56 2.5-2.56.72 0 1.37.31 1.83.81.57-.11 1.1-.33 1.59-.62-.19.6-.59 1.1-1.1 1.42.5-.07.99-.2 1.44-.4-.34.5-.76.96-1.25 1.32m1.77-2.08c.1-.36-.01-.75-.3-.98-.16-.13-.36-.2-.56-.2-.16 0-.32.04-.46.13-.28.17-.58.3-.89.4-.58-.46-1.32-.72-2.07-.72C9.62 3 8.2 4.32 7.97 6.02 6.6 5.72 5.35 4.94 4.45 3.8c-.17-.22-.43-.34-.7-.34h-.07c-.3.03-.56.2-.7.46-.31.53-.47 1.13-.47 1.75 0 .42.07.82.2 1.2-.14.17-.22.39-.22.61 0 .92.34 1.76.9 2.4-.04.15-.03.32.02.47.2.63.55 1.16 1 1.57-.29.07-.6.1-.91.1-.17 0-.33 0-.5-.02h-.1c-.38 0-.72.23-.85.6-.14.4.01.86.36 1.1 1.3.84 2.8 1.29 4.33 1.29 4.97 0 7.96-4.1 8.02-8.1.4-.36.76-.77 1.06-1.22.11-.15.18-.35.18-.55 0-.31-.15-.59-.38-.76" fill-rule="evenodd"/></svg>