<svg width="24" height="24" viewBox="0 0 24 24" xmlns="http://www.w3.org/2000/svg"><title>external-twitter-outlined</title><path d="M18.73 8.34l-.15.1.01.18.01.42c0 3.9-3.05 9.4-9.83 9.4-1.43 0-2.84-.29-4.12-.86 1.5-.1 2.93-.61 4.13-1.51l.74-.56-.94-.01c-1.2-.02-2.28-.68-2.82-1.68h.15c.35 0 .7-.04 1.03-.13l1.35-.35-1.37-.27c-1.35-.26-2.36-1.3-2.57-2.57.4.14.82.22 1.24.23l1.17.04-.97-.62c-.9-.58-1.44-1.54-1.44-2.58 0-.4.08-.78.23-1.14C6.44 8.4 9.06 9.6 11.85 9.74l.44.02-.1-.4c-.05-.23-.08-.47-.08-.72 0-1.7 1.45-3.1 3.24-3.1.9 0 1.75.36 2.36.98l.13.13.18-.03c.53-.1 1.04-.25 1.54-.46-.11.18-.23.33-.37.46-.13.12-.35.25-.5.34-.2.11-.48.27-.33.55.03.07.13.2.36.2.2 0 .6-.1 1.02-.21-.3.3-.64.6-1.01.84m2.73-2.51c.15-.48-.02-1-.43-1.31-.23-.18-.52-.27-.8-.27-.23 0-.45.06-.66.17-.4.23-.82.41-1.26.54-.84-.62-1.89-.96-2.96-.96-2.46 0-4.5 1.75-4.82 4.02C8.57 7.62 6.8 6.6 5.5 5.08c-.25-.29-.62-.45-1-.45h-.1c-.42.03-.8.26-1.01.6-.43.71-.66 1.52-.66 2.34 0 .56.1 1.1.3 1.6-.21.23-.33.52-.33.82 0 1.22.48 2.34 1.28 3.18-.05.21-.04.44.03.65.28.83.79 1.54 1.44 2.1-.42.08-.86.13-1.31.13-.23 0-.47-.01-.7-.04h-.15c-.54 0-1.03.31-1.21.8-.2.55 0 1.15.51 1.46C4.44 19.4 6.58 20 8.77 20c7.1 0 11.38-5.47 11.45-10.8.58-.48 1.09-1.02 1.52-1.63.16-.2.26-.46.26-.74 0-.41-.21-.78-.54-1" fill-rule="evenodd"/></svg>