<svg width="20" height="20" viewBox="0 0 20 20" xmlns="http://www.w3.org/2000/svg"><title>globe--small</title><path d="M11.33 17.88c.866-1.32 1.847-2.938 2.344-4.88h3.737a8.017 8.017 0 0 1-6.08 4.88zM2.59 13h3.524c.545 1.929 1.603 3.609 2.48 4.868A8.017 8.017 0 0 1 2.588 13zm-.327-5h3.831c-.22.883-.344 1.72-.344 2.5 0 .513.06 1.01.145 1.5H2.263A7.998 7.998 0 0 1 2 10c0-.691.098-1.36.263-2zm6.448-5.887C7.648 3.868 6.871 5.499 6.381 7H2.59a8.015 8.015 0 0 1 6.122-4.887zM17.411 7h-3.945a20.436 20.436 0 0 0-2.099-4.874A8.018 8.018 0 0 1 17.411 7zm-7.41-5c.04 0 .08.006.121.006.77 1.145 1.721 2.99 2.314 4.994H7.432c.53-1.516 1.371-3.186 2.522-4.998L10 2zM6.915 12a7.778 7.778 0 0 1-.166-1.5c0-.77.134-1.61.373-2.5h5.571c.19.835.306 1.68.306 2.5 0 .523-.059 1.018-.14 1.5H6.915zm3.142 5.997c-.02 0-.039.003-.058.003-.03 0-.062-.004-.093-.005l-.006-.008C9.055 16.8 7.81 15.035 7.168 13h5.468c-.534 1.889-1.567 3.469-2.456 4.81-.044.065-.08.123-.122.187zM17.738 12h-3.866c.075-.484.128-.98.128-1.5 0-.833-.116-1.674-.289-2.5h4.026c.165.64.263 1.309.263 2 0 .692-.098 1.359-.263 2zM19 10c0-4.75-3.68-8.63-8.344-8.967C10.65 1.023 10 1 10 1s-.606.02-.612.03C4.704 1.348 1 5.237 1 10a9 9 0 0 0 9 9c.123 0 .435.009.441 0 4.764-.231 8.56-4.178 8.56-9z" fill="#000" fill-rule="evenodd"/></svg>