<svg width="16" height="16" viewBox="0 0 16 16" xmlns="http://www.w3.org/2000/svg"><title>globe--small</title><path d="M9.03 14.13c.68-1.03 1.44-2.29 1.83-3.8h2.9c-.8 1.97-2.57 3.43-4.73 3.8zm-6.8-3.8h2.75c.42 1.5 1.24 2.8 1.93 3.79-2.13-.38-3.88-1.84-4.67-3.79zm-.25-3.89h2.98c-.17.69-.27 1.34-.27 1.95 0 .4.05.78.12 1.16H1.98c-.13-.5-.2-1.01-.2-1.55s.07-1.06.2-1.56zM7 1.87c-.83 1.36-1.43 2.63-1.81 3.8H2.24c.8-1.98 2.6-3.45 4.76-3.8zm6.76 3.8H10.7c-.42-1.48-1.06-2.83-1.64-3.8 2.14.38 3.9 1.84 4.7 3.8zM8 1.77l.1.01c.6.9 1.33 2.33 1.8 3.89H6c.41-1.18 1.07-2.48 1.96-3.9H8zM5.6 9.56c-.07-.38-.13-.76-.13-1.16 0-.6.1-1.25.3-1.95h4.33c.14.65.23 1.31.23 1.95 0 .4-.04.79-.1 1.16H5.6zm2.45 4.67H7.93v-.01c-.67-.92-1.63-2.3-2.13-3.88h4.25c-.42 1.47-1.22 2.7-1.91 3.74l-.1.15zm5.97-4.67h-3c.05-.37.1-.76.1-1.16 0-.65-.1-1.3-.23-1.95h3.13c.13.5.2 1.02.2 1.56s-.07 1.06-.2 1.55zM15 8c0-3.7-2.86-6.71-6.49-6.97L8 1l-.48.02C3.88 1.27 1 4.3 1 8c0 3.86 3.13 7 7 7h.34c3.7-.18 6.66-3.25 6.66-7z" fill-rule="evenodd"/></svg>