<svg width="24" height="24" viewBox="0 0 24 24" xmlns="http://www.w3.org/2000/svg"><title>globe</title><path d="M14.5 19.57c.67-1.13 1.4-2.66 1.83-4.52h3.02c-.92 2.1-2.68 3.75-4.86 4.52m-3.22.46c-.65-.84-1.81-2.58-2.44-4.98h5.78c-.63 2.4-1.79 4.14-2.44 4.98h-.9m-7.18-4.98H7.1c.44 1.86 1.16 3.4 1.84 4.52-2.18-.77-3.94-2.42-4.86-4.52M8.95 3.87C8.27 5 7.55 6.53 7.1 8.4H4.1C5 6.29 6.77 4.64 8.95 3.87m3.22-.46c.65.83 1.81 2.58 2.44 4.98H8.83c.63-2.4 1.79-4.15 2.44-4.98h.9M8.4 11.72c0-.58.04-1.13.1-1.67h6.46c.06.54.1 1.1.1 1.67 0 .58-.04 1.13-.1 1.67H8.5c-.07-.54-.11-1.1-.11-1.67m-5 0c0-.57.06-1.13.17-1.67h3.26c-.06.54-.1 1.1-.1 1.67 0 .58.04 1.13.1 1.67H3.56c-.11-.54-.17-1.1-.17-1.67m16.66 0c0 .57-.05 1.13-.16 1.67h-3.27c.06-.54.1-1.1.1-1.67 0-.58-.04-1.13-.1-1.67h3.27c.1.54.16 1.1.16 1.67m-.7-3.33h-3.02c-.44-1.86-1.16-3.4-1.84-4.52 2.18.77 3.94 2.42 4.86 4.52m-7.63-6.67c-5.52 0-10 4.48-10 10s4.48 10 10 10 10-4.48 10-10-4.48-10-10-10" fill-rule="evenodd"/></svg>