<svg width="18" height="18" viewBox="0 0 18 18" xmlns="http://www.w3.org/2000/svg"><title>globe--small</title><path d="M10.18 16c.77-1.17 1.64-2.61 2.09-4.34h3.32c-.92 2.25-2.95 3.93-5.4 4.34zm-7.77-4.34h3.14c.48 1.72 1.42 3.21 2.2 4.33-2.43-.43-4.43-2.1-5.34-4.33zm-.29-4.44h3.4c-.19.79-.3 1.53-.3 2.22 0 .46.06.9.13 1.34H2.12C1.98 10.2 1.9 9.6 1.9 9c0-.62.09-1.21.23-1.78zM7.85 2c-.94 1.56-1.63 3-2.07 4.34H2.41C3.33 4.07 5.38 2.4 7.85 2zm7.74 4.34h-3.5C11.6 4.64 10.87 3.1 10.21 2c2.44.42 4.46 2.1 5.37 4.33zM9 1.9h.1c.7 1.02 1.54 2.66 2.07 4.44H6.72C7.19 4.98 7.94 3.5 8.96 1.9H9zm-2.74 8.89c-.09-.44-.15-.88-.15-1.34 0-.68.12-1.43.33-2.22h4.95c.17.74.28 1.5.28 2.22 0 .47-.06.9-.13 1.34H6.26zm2.8 5.33h-.14v-.01c-.76-1.06-1.87-2.63-2.44-4.44h4.86c-.47 1.68-1.39 3.09-2.18 4.28l-.1.17zm6.82-5.33h-3.44c.07-.43.12-.87.12-1.34 0-.74-.1-1.49-.26-2.22h3.58c.14.57.23 1.16.23 1.78 0 .61-.09 1.2-.23 1.78zM17 9c0-4.22-3.27-7.67-7.42-7.97L9 1l-.54.03C4.29 1.3 1 4.76 1 9c0 4.42 3.58 8 8 8h.4c4.23-.2 7.6-3.72 7.6-8z" fill-rule="evenodd"/></svg>