<svg width="20" height="20" viewBox="0 0 20 20" xmlns="http://www.w3.org/2000/svg"><title>globe--small</title><path d="M11.33 17.88c.87-1.32 1.85-2.94 2.34-4.88h3.74c-1.03 2.53-3.31 4.41-6.08 4.88zM2.59 13H6.1c.55 1.93 1.6 3.6 2.48 4.87-2.73-.49-4.98-2.36-6-4.87zm-.33-5H6.1c-.22.88-.34 1.72-.34 2.5 0 .51.06 1.01.15 1.5H2.26C2.1 11.36 2 10.7 2 10s.1-1.36.26-2zm6.45-5.89C7.65 3.87 6.87 5.5 6.38 7h-3.8c1.04-2.54 3.35-4.43 6.13-4.89zM17.41 7h-3.94c-.53-1.9-1.36-3.64-2.1-4.87 2.75.47 5.02 2.35 6.04 4.87zM10 2h.12c.77 1.15 1.72 3 2.32 5h-5c.52-1.52 1.36-3.19 2.51-5H10zM6.92 12c-.1-.49-.17-.99-.17-1.5 0-.77.13-1.6.37-2.5h5.57c.2.83.31 1.68.31 2.5 0 .52-.06 1.02-.14 1.5H6.92zm3.14 6H9.9v-.01C9.06 16.8 7.8 15.03 7.17 13h5.47c-.54 1.89-1.57 3.47-2.46 4.81l-.12.19zm7.68-6h-3.87c.08-.48.13-.98.13-1.5 0-.83-.12-1.67-.29-2.5h4.03c.16.64.26 1.3.26 2s-.1 1.36-.26 2zM19 10c0-4.75-3.68-8.63-8.34-8.97L10 1l-.61.03C4.7 1.35 1 5.23 1 10c0 4.97 4.03 9 9 9h.44c4.77-.23 8.56-4.18 8.56-9z" fill-rule="evenodd"/></svg>