<svg width="28" height="28" viewBox="0 0 28 28" xmlns="http://www.w3.org/2000/svg"><title>globe</title><path d="M17.328 23.418A19.08 19.08 0 0 0 19.531 18h3.628a10.038 10.038 0 0 1-5.83 5.418m-3.872.555A17.05 17.05 0 0 1 10.527 18h6.946a17.05 17.05 0 0 1-2.93 5.973c-.18.009-.905.009-1.086 0M4.841 18H8.47a19.08 19.08 0 0 0 2.203 5.418A10.036 10.036 0 0 1 4.842 18m5.83-13.418A19.08 19.08 0 0 0 8.47 10H4.841a10.039 10.039 0 0 1 5.831-5.418m3.871-.555A17.05 17.05 0 0 1 17.473 10h-6.946a17.05 17.05 0 0 1 2.93-5.973c.181-.009.905-.009 1.086 0M10 14c0-.693.047-1.36.13-2h7.74a15.533 15.533 0 0 1 0 4h-7.74c-.083-.64-.13-1.307-.13-2m-6 0c0-.685.07-1.353.202-2H8.12A17.46 17.46 0 0 0 8 14c0 .691.046 1.356.12 2H4.202A9.983 9.983 0 0 1 4 14m20 0c0 .685-.07 1.354-.202 2H19.88c.074-.644.121-1.309.121-2 0-.691-.047-1.356-.12-2h3.918A9.99 9.99 0 0 1 24 14m-.84-4H19.53a19.08 19.08 0 0 0-2.203-5.418A10.042 10.042 0 0 1 23.16 10M14 2C7.372 2 2 7.373 2 14s5.372 12 12 12c6.627 0 12-5.373 12-12S20.627 2 14 2" fill="#000" fill-rule="evenodd"/></svg>