<svg width="28" height="28" viewBox="0 0 28 28" xmlns="http://www.w3.org/2000/svg"><title>globe</title><path d="M17.33 23.42c.8-1.35 1.68-3.19 2.2-5.42h3.63c-1.1 2.52-3.22 4.5-5.83 5.42m-3.87.55c-.78-1-2.17-3.1-2.93-5.97h6.94c-.76 2.88-2.15 4.97-2.93 5.97h-1.08M4.84 18h3.63c.52 2.23 1.4 4.07 2.2 5.42-2.6-.93-4.72-2.9-5.83-5.42m5.83-13.42C9.87 5.93 9 7.77 8.47 10H4.84c1.1-2.52 3.22-4.5 5.83-5.42m3.87-.55c.78 1 2.17 3.1 2.93 5.97h-6.94c.76-2.88 2.15-4.97 2.93-5.97h1.08M10 14c0-.7.05-1.36.13-2h7.74c.08.64.13 1.3.13 2s-.05 1.36-.13 2h-7.74c-.08-.64-.13-1.3-.13-2m-6 0c0-.69.07-1.35.2-2h3.92c-.07.64-.12 1.3-.12 2s.05 1.36.12 2H4.2c-.13-.65-.2-1.31-.2-2m20 0c0 .69-.07 1.35-.2 2h-3.92c.07-.64.12-1.3.12-2s-.05-1.36-.12-2h3.92c.13.65.2 1.31.2 2m-.84-4h-3.63c-.52-2.23-1.4-4.07-2.2-5.42 2.6.93 4.72 2.9 5.83 5.42M14 2C7.37 2 2 7.37 2 14s5.37 12 12 12 12-5.37 12-12S20.63 2 14 2" fill-rule="evenodd"/></svg>