<svg width="16" height="16" viewBox="0 0 16 16" xmlns="http://www.w3.org/2000/svg" xmlns:xlink="http://www.w3.org/1999/xlink"><title>grid--small</title><defs><path id="a" d="M0 0h6.12v6.13H0z"/><path id="c" d="M0 0h6.12v6.13H0z"/></defs><g fill-rule="evenodd"><g transform="translate(1 1)"><mask id="b"><use xlink:href="#a"/></mask><path d="M5.18 0H.94C.42 0 0 .42 0 .94v4.24c0 .52.42.95.94.95h4.24c.52 0 .94-.43.94-.95V.94C6.12.42 5.7 0 5.18 0" mask="url(#b)"/></g><path d="M14.06 1H9.82c-.52 0-.95.42-.95.94v4.24c0 .52.43.95.95.95h4.24c.52 0 .94-.43.94-.95V1.94c0-.52-.42-.94-.94-.94"/><g transform="translate(1 8.875)"><mask id="d"><use xlink:href="#c"/></mask><path d="M5.18 0H.94C.42 0 0 .42 0 .94v4.24c0 .52.42.95.94.95h4.24c.52 0 .94-.43.94-.95V.94C6.12.42 5.7 0 5.18 0" mask="url(#d)"/></g><path d="M14.06 8.88H9.82c-.52 0-.95.42-.95.94v4.24c0 .52.43.94.95.94h4.24c.52 0 .94-.42.94-.94V9.82c0-.52-.42-.95-.94-.95"/></g></svg>