<svg width="18" height="18" viewBox="0 0 18 18" xmlns="http://www.w3.org/2000/svg" xmlns:xlink="http://www.w3.org/1999/xlink"><title>grid--small</title><defs><path id="a" d="M0 0h7v7H0z"/><path id="c" d="M0 0h7v7H0z"/></defs><g fill-rule="evenodd"><g transform="translate(1 1)"><mask id="b"><use xlink:href="#a"/></mask><path d="M5.92 0H1.08C.48 0 0 .48 0 1.08v4.84C0 6.52.48 7 1.08 7h4.84C6.52 7 7 6.52 7 5.92V1.08C7 .48 6.52 0 5.92 0" mask="url(#b)"/></g><path d="M15.92 1h-4.84c-.6 0-1.08.48-1.08 1.08v4.84c0 .6.48 1.08 1.08 1.08h4.84c.6 0 1.08-.48 1.08-1.08V2.08c0-.6-.48-1.08-1.08-1.08"/><g transform="translate(1 10)"><mask id="d"><use xlink:href="#c"/></mask><path d="M5.92 0H1.08C.48 0 0 .48 0 1.08v4.84C0 6.52.48 7 1.08 7h4.84C6.52 7 7 6.52 7 5.92V1.08C7 .48 6.52 0 5.92 0" mask="url(#d)"/></g><path d="M15.92 10h-4.84c-.6 0-1.08.48-1.08 1.08v4.84c0 .6.48 1.08 1.08 1.08h4.84c.6 0 1.08-.48 1.08-1.08v-4.84c0-.6-.48-1.08-1.08-1.08"/></g></svg>