<svg width="24" height="24" viewBox="0 0 24 24" xmlns="http://www.w3.org/2000/svg" xmlns:xlink="http://www.w3.org/1999/xlink"><title>grid</title><defs><path id="a" d="M0 0h8v8H0z"/><path id="c" d="M0 0h8v8H0z"/></defs><g fill-rule="evenodd"><path d="M8.77 2H3.23C2.55 2 2 2.55 2 3.23v5.54C2 9.45 2.55 10 3.23 10h5.54C9.45 10 10 9.45 10 8.77V3.23C10 2.55 9.45 2 8.77 2"/><g transform="translate(14 2)"><mask id="b"><use xlink:href="#a"/></mask><path d="M6.77 0H1.23C.55 0 0 .55 0 1.23v5.54C0 7.45.55 8 1.23 8h5.54C7.45 8 8 7.45 8 6.77V1.23C8 .55 7.45 0 6.77 0" mask="url(#b)"/></g><path d="M8.77 14H3.23C2.55 14 2 14.55 2 15.23v5.54c0 .68.55 1.23 1.23 1.23h5.54c.68 0 1.23-.55 1.23-1.23v-5.54c0-.68-.55-1.23-1.23-1.23"/><g transform="translate(14 14)"><mask id="d"><use xlink:href="#c"/></mask><path d="M6.77 0H1.23C.55 0 0 .55 0 1.23v5.54C0 7.45.55 8 1.23 8h5.54C7.45 8 8 7.45 8 6.77V1.23C8 .55 7.45 0 6.77 0" mask="url(#d)"/></g></g></svg>