<svg width="18" height="18" viewBox="0 0 18 18" xmlns="http://www.w3.org/2000/svg"><title>groups--small</title><path d="M13.23 16.01c-1.53 0-2.77-1.25-2.77-2.78 0-1.53 1.24-2.77 2.77-2.77s2.78 1.24 2.78 2.77-1.25 2.78-2.78 2.78m0-6.44c-2.02 0-3.66 1.64-3.66 3.66 0 2.03 1.64 3.67 3.66 3.67 2.03 0 3.67-1.64 3.67-3.67 0-2.02-1.64-3.66-3.67-3.66M4.57 16c-1.53 0-2.78-1.25-2.78-2.78 0-1.53 1.25-2.77 2.78-2.77 1.53 0 2.77 1.24 2.77 2.77s-1.24 2.78-2.77 2.78m0-6.44C2.54 9.57.9 11.2.9 13.23c0 2.03 1.64 3.67 3.67 3.67 2.02 0 3.66-1.64 3.66-3.67 0-2.02-1.64-3.66-3.66-3.66m8.66-7.78c1.53 0 2.78 1.25 2.78 2.78 0 1.53-1.25 2.77-2.78 2.77-1.53 0-2.77-1.24-2.77-2.77s1.24-2.78 2.77-2.78m0 6.44c2.03 0 3.67-1.64 3.67-3.66C16.9 2.54 15.26.9 13.23.9c-2.02 0-3.66 1.64-3.66 3.67 0 2.02 1.64 3.66 3.66 3.66m-8.66-.89c-1.53 0-2.78-1.24-2.78-2.77s1.25-2.78 2.78-2.78c1.53 0 2.77 1.25 2.77 2.78 0 1.53-1.24 2.77-2.77 2.77m0-6.44C2.54.9.9 2.54.9 4.57c0 2.02 1.64 3.66 3.67 3.66 2.02 0 3.66-1.64 3.66-3.66C8.23 2.54 6.6.9 4.57.9" fill-rule="evenodd"/></svg>