<svg width="24" height="24" viewBox="0 0 24 24" xmlns="http://www.w3.org/2000/svg"><title>groups</title><path d="M17.42 20.33c-1.61 0-2.92-1.3-2.92-2.91s1.3-2.92 2.92-2.92c1.6 0 2.91 1.3 2.91 2.92 0 1.6-1.3 2.91-2.91 2.91m0-7.5c-2.54 0-4.59 2.06-4.59 4.59S14.88 22 17.42 22c2.53 0 4.58-2.05 4.58-4.58 0-2.53-2.05-4.59-4.58-4.59m-10.84 7.5c-1.6 0-2.91-1.3-2.91-2.91s1.3-2.92 2.91-2.92 2.92 1.3 2.92 2.92c0 1.6-1.3 2.91-2.92 2.91m0-7.5C4.05 12.83 2 14.9 2 17.42S4.05 22 6.58 22c2.54 0 4.59-2.05 4.59-4.58 0-2.53-2.05-4.59-4.59-4.59m10.84-9.16c1.6 0 2.91 1.3 2.91 2.91s-1.3 2.92-2.91 2.92-2.92-1.3-2.92-2.92c0-1.6 1.3-2.91 2.92-2.91m0 7.5c2.53 0 4.58-2.06 4.58-4.59S19.95 2 17.42 2c-2.54 0-4.59 2.05-4.59 4.58 0 2.53 2.05 4.59 4.59 4.59M6.58 9.5c-1.6 0-2.91-1.3-2.91-2.92 0-1.6 1.3-2.91 2.91-2.91S9.5 4.97 9.5 6.58 8.2 9.5 6.58 9.5m0-7.5C4.05 2 2 4.05 2 6.58c0 2.53 2.05 4.59 4.58 4.59 2.54 0 4.59-2.06 4.59-4.59S9.12 2 6.58 2" fill-rule="evenodd"/></svg>