<svg width="28" height="28" viewBox="0 0 28 28" xmlns="http://www.w3.org/2000/svg"><title>groups</title><path d="M20.5 24c-1.93 0-3.5-1.57-3.5-3.5s1.57-3.5 3.5-3.5 3.5 1.57 3.5 3.5-1.57 3.5-3.5 3.5m0-9c-3.04 0-5.5 2.46-5.5 5.5s2.46 5.5 5.5 5.5 5.5-2.46 5.5-5.5-2.46-5.5-5.5-5.5m-13 9C5.57 24 4 22.43 4 20.5S5.57 17 7.5 17s3.5 1.57 3.5 3.5S9.43 24 7.5 24m0-9C4.46 15 2 17.46 2 20.5S4.46 26 7.5 26s5.5-2.46 5.5-5.5S10.54 15 7.5 15m13-11C22.43 4 24 5.57 24 7.5S22.43 11 20.5 11 17 9.43 17 7.5 18.57 4 20.5 4m0 9c3.04 0 5.5-2.46 5.5-5.5S23.54 2 20.5 2 15 4.46 15 7.5s2.46 5.5 5.5 5.5m-13-2C5.57 11 4 9.43 4 7.5S5.57 4 7.5 4 11 5.57 11 7.5 9.43 11 7.5 11m0-9C4.46 2 2 4.46 2 7.5S4.46 13 7.5 13 13 10.54 13 7.5 10.54 2 7.5 2" fill-rule="evenodd"/></svg>