<svg width="16" height="16" viewBox="0 0 16 16" xmlns="http://www.w3.org/2000/svg"><title>groups--small</title><path d="M11.7 14.12c-1.35 0-2.44-1.09-2.44-2.43s1.1-2.43 2.43-2.43c1.34 0 2.43 1.1 2.43 2.43 0 1.34-1.09 2.43-2.43 2.43m0-5.64c-1.77 0-3.2 1.44-3.2 3.21s1.43 3.21 3.2 3.21c1.77 0 3.21-1.44 3.21-3.2 0-1.78-1.44-3.22-3.2-3.22m-7.6 5.64c-1.33 0-2.42-1.09-2.42-2.43S2.77 9.26 4.1 9.26s2.43 1.1 2.43 2.43c0 1.34-1.1 2.43-2.43 2.43m0-5.64C2.34 8.48.9 9.92.9 11.7s1.44 3.21 3.2 3.21c1.78 0 3.22-1.44 3.22-3.2 0-1.78-1.44-3.22-3.21-3.22m7.58-6.8c1.34 0 2.43 1.09 2.43 2.43s-1.09 2.43-2.43 2.43-2.43-1.1-2.43-2.43c0-1.34 1.1-2.43 2.43-2.43m0 5.64c1.77 0 3.21-1.44 3.21-3.21S13.46.9 11.7.9C9.91.9 8.47 2.34 8.47 4.1c0 1.78 1.44 3.22 3.21 3.22m-7.58-.78c-1.34 0-2.43-1.1-2.43-2.43 0-1.34 1.09-2.43 2.43-2.43S6.54 2.77 6.54 4.1 5.44 6.54 4.1 6.54M4.1.9C2.34.9.9 2.34.9 4.1c0 1.78 1.44 3.22 3.2 3.22 1.78 0 3.22-1.44 3.22-3.21S5.88.9 4.1.9" fill-rule="evenodd"/></svg>