<svg width="28" height="28" viewBox="0 0 28 28" xmlns="http://www.w3.org/2000/svg"><title>heart-outline</title><path d="M20.22 3c-1.89 0-3.8.79-5.21 2.27L14 6.32l-1.01-1.05C11.58 3.79 9.67 3 7.78 3c-1.52 0-3.02.5-4.26 1.57-3.18 2.75-3.35 7.68-.5 10.66l8.22 8.58C12 24.6 13 25 14 25c1 0 2-.4 2.76-1.2l8.22-8.57c2.85-2.98 2.68-7.91-.5-10.66C23.24 3.51 21.74 3 20.22 3m0 2c1.1 0 2.13.38 2.95 1.09 1.1.95 1.75 2.3 1.82 3.78.07 1.49-.46 2.94-1.45 3.98l-8.23 8.57c-.35.38-.82.58-1.31.58-.5 0-.96-.2-1.31-.58l-8.22-8.57c-1-1.04-1.53-2.5-1.46-3.98.07-1.49.71-2.83 1.82-3.78C5.65 5.38 6.67 5 7.78 5c1.39 0 2.76.6 3.77 1.65l1 1.05c.38.4.9.62 1.45.62.55 0 1.07-.22 1.44-.62l1.01-1.05C17.45 5.6 18.83 5 20.22 5" fill-rule="evenodd"/></svg>