<svg width="18" height="18" viewBox="0 0 18 18" xmlns="http://www.w3.org/2000/svg"><title>heart-outline--small</title><path d="M12.83 2c-1.17 0-2.34.5-3.2 1.44L9 4.11l-.62-.67C7.5 2.5 6.33 2 5.18 2c-.94 0-1.87.32-2.63 1C.6 4.75.5 7.89 2.25 9.78l5.05 5.46c.47.5 1.09.76 1.7.76.61 0 1.23-.25 1.7-.76l5.06-5.46c1.75-1.9 1.65-5.03-.31-6.78-.76-.68-1.69-1-2.62-1m0 .88c.8 0 1.52.27 2.11.8.76.68 1.21 1.63 1.26 2.69.04 1.04-.32 2.05-1 2.79l-5.06 5.46c-.3.32-.71.5-1.14.5-.43 0-.83-.18-1.14-.5L2.81 9.16c-.69-.74-1.05-1.75-1-2.8.04-1.05.49-2 1.25-2.68.59-.53 1.32-.8 2.11-.8.98 0 1.95.43 2.65 1.19l.62.67c.15.16.36.25.56.25.2 0 .4-.09.56-.25l.62-.67c.7-.76 1.67-1.2 2.65-1.2" fill-rule="evenodd"/></svg>