<svg width="16" height="16" viewBox="0 0 16 16" xmlns="http://www.w3.org/2000/svg"><title>heart-outline--small</title><path d="M11.35 2c-1.02 0-2.04.44-2.8 1.26L8 3.85l-.54-.59C6.69 2.44 5.66 2 4.65 2c-.82 0-1.63.28-2.3.88C.66 4.4.56 7.15 2.1 8.8l4.43 4.78c.4.44.94.66 1.48.66s1.08-.22 1.48-.66l4.43-4.78c1.54-1.66 1.45-4.4-.27-5.93-.66-.6-1.47-.88-2.29-.88m0 .77c.7 0 1.33.24 1.85.7.67.6 1.06 1.43 1.1 2.35.04.91-.28 1.8-.88 2.45l-4.43 4.77c-.26.29-.61.44-.99.44s-.73-.15-1-.44L2.59 8.27c-.6-.65-.92-1.54-.88-2.45.04-.92.43-1.76 1.1-2.35.52-.46 1.16-.7 1.85-.7.86 0 1.7.38 2.31 1.04l.55.58c.13.15.31.22.49.22s.36-.07.5-.22l.54-.58c.6-.66 1.45-1.04 2.31-1.04" fill-rule="evenodd"/></svg>