<svg width="24" height="24" viewBox="0 0 24 24" xmlns="http://www.w3.org/2000/svg"><title>heart-outline</title><path d="M17.26 2.5c-1.6 0-3.2.68-4.4 1.96l-.86.9-.85-.9C9.95 3.18 8.34 2.5 6.74 2.5c-1.29 0-2.56.44-3.6 1.36-2.7 2.37-2.84 6.63-.43 9.2l6.96 7.41c.64.69 1.49 1.03 2.33 1.03.84 0 1.69-.34 2.33-1.03l6.96-7.4c2.41-2.58 2.27-6.84-.43-9.21-1.04-.92-2.31-1.36-3.6-1.36m0 1.73c.94 0 1.8.32 2.5.94.93.82 1.48 1.98 1.54 3.27.06 1.28-.39 2.53-1.23 3.43l-6.96 7.4c-.3.33-.7.5-1.11.5-.42 0-.81-.17-1.11-.5l-6.96-7.4c-.84-.9-1.3-2.15-1.23-3.43.06-1.3.6-2.45 1.54-3.27.7-.62 1.56-.94 2.5-.94 1.17 0 2.33.52 3.18 1.42l.86.91c.32.34.76.53 1.22.53.46 0 .9-.19 1.22-.53l.86-.9c.85-.91 2-1.43 3.18-1.43" fill-rule="evenodd"/></svg>