<svg width="20" height="20" viewBox="0 0 20 20" xmlns="http://www.w3.org/2000/svg"><title>heart-outline--small</title><path d="M14.786 2c-1.455 0-2.92.574-4.009 1.648L10 4.415l-.777-.767A5.743 5.743 0 0 0 5.214 2a5.142 5.142 0 0 0-3.273 1.143 5.19 5.19 0 0 0-.386 7.752l6.324 6.238A3.009 3.009 0 0 0 10 18a3.01 3.01 0 0 0 2.121-.867l6.324-6.238a5.19 5.19 0 0 0-.386-7.752A5.144 5.144 0 0 0 14.786 2m0 1c.991 0 1.904.317 2.641.918a4.181 4.181 0 0 1 1.568 3.074 4.21 4.21 0 0 1-1.252 3.191l-6.324 6.238A2.01 2.01 0 0 1 10 17a2.007 2.007 0 0 1-1.419-.579l-6.324-6.238a4.21 4.21 0 0 1-1.252-3.191 4.181 4.181 0 0 1 1.568-3.074C3.31 3.317 4.223 3 5.214 3a4.75 4.75 0 0 1 3.307 1.36l.777.766a.996.996 0 0 0 1.404 0l.777-.766A4.747 4.747 0 0 1 14.786 3" fill="#000" fill-rule="evenodd"/></svg>