<svg width="20" height="20" viewBox="0 0 20 20" xmlns="http://www.w3.org/2000/svg"><title>heart-outline--small</title><path d="M14.79 2c-1.46 0-2.92.57-4.01 1.65l-.78.77-.78-.77C8.13 2.57 6.67 2 5.22 2c-1.17 0-2.33.37-3.28 1.14-2.45 2-2.58 5.59-.38 7.75l6.32 6.24c.58.58 1.35.87 2.12.87s1.54-.29 2.12-.87l6.33-6.23c2.19-2.17 2.06-5.76-.4-7.76C17.12 2.37 15.96 2 14.8 2m0 1c.99 0 1.9.32 2.64.92.95.78 1.5 1.87 1.57 3.07.05 1.19-.4 2.35-1.26 3.2l-6.32 6.23c-.38.37-.88.58-1.42.58-.54 0-1.04-.2-1.42-.58l-6.32-6.24C1.4 9.34.95 8.18 1 7c.05-1.2.6-2.3 1.56-3.07.74-.6 1.65-.92 2.64-.92 1.23 0 2.43.5 3.31 1.36l.78.77c.2.19.45.29.7.29.25 0 .5-.1.7-.3l.78-.76C12.36 3.5 13.56 3 14.78 3" fill-rule="evenodd"/></svg>