<svg width="20" height="20" viewBox="0 0 20 20" xmlns="http://www.w3.org/2000/svg"><title>hide--small</title><path d="M12.68 14.25l-6.52-8.5c-1.81.83-3.28 2.3-4.08 4.2 1.25 2.97 4.17 4.95 7.46 4.95 1.1 0 2.17-.24 3.14-.65zm4.26 3.97c.15.22.12.52-.08.69-.2.17-.49.14-.66-.07l-2.9-3.8c-1.16.55-2.43.86-3.76.86-3.77 0-7.1-2.31-8.47-5.77L1 9.95l.07-.18c.85-2.15 2.46-3.86 4.46-4.84L3.14 1.8c-.16-.21-.13-.52.07-.7.2-.17.5-.14.66.08l13.07 17.03zM7.46 4.26c.67-.17 1.36-.27 2.08-.27 3.77 0 7.05 2.25 8.4 5.7l.08.18-.07.19c-.64 1.6-1.7 2.94-3.02 3.95l-.57-.75c1.13-.84 2.07-1.96 2.64-3.31-1.26-2.97-4.18-4.96-7.46-4.96-.48 0-.95.06-1.4.14l-.68-.87z" fill-rule="evenodd"/></svg>