<svg width="20" height="20" viewBox="0 0 20 20" xmlns="http://www.w3.org/2000/svg"><title>hide--small</title><path d="M13.36 14.23l-6.9-8.5c-1.92.84-3.48 2.32-4.32 4.2 1.33 2.98 4.41 4.96 7.9 4.96 1.16 0 2.29-.25 3.32-.66zm4.5 3.97c.16.21.13.52-.08.69-.21.17-.52.14-.7-.07l-3.07-3.8c-1.22.55-2.57.87-3.98.87-3.99 0-7.51-2.32-8.95-5.77L1 9.94l.08-.18c.9-2.15 2.6-3.85 4.71-4.84l-2.52-3.1c-.18-.22-.15-.53.07-.7.2-.18.52-.15.7.07L17.85 18.2zM7.83 4.25C8.54 4.1 9.28 4 10.03 4c3.99 0 7.45 2.24 8.9 5.69l.07.18-.08.19c-.66 1.6-1.8 2.93-3.2 3.94l-.6-.74c1.21-.85 2.2-1.96 2.8-3.31-1.33-2.97-4.41-4.95-7.89-4.95-.5 0-1 .05-1.49.14l-.7-.88z" fill-rule="evenodd"/></svg>