<svg width="16" height="16" viewBox="0 0 16 16" xmlns="http://www.w3.org/2000/svg"><title>hide--small</title><path d="M10.61 11.3L5.24 4.67c-1.48.65-2.7 1.8-3.35 3.27 1.03 2.31 3.43 3.85 6.13 3.85.92 0 1.79-.19 2.6-.5zm3.5 3.08c.13.16.1.4-.06.53-.16.14-.4.11-.54-.05l-2.4-2.95c-.94.42-1.99.67-3.09.67-3.1 0-5.84-1.8-6.96-4.49L1 7.95l.06-.14c.7-1.67 2.02-3 3.67-3.76L2.76 1.63c-.13-.16-.1-.4.06-.54s.4-.11.54.05l10.75 13.24zM6.31 3.53c.56-.13 1.13-.2 1.71-.2 3.1 0 5.8 1.74 6.92 4.42l.06.14-.06.15c-.52 1.24-1.4 2.28-2.48 3.06l-.47-.57c.93-.66 1.7-1.53 2.17-2.58-1.03-2.3-3.43-3.85-6.14-3.85-.4 0-.78.04-1.15.1l-.55-.67z" fill-rule="evenodd"/></svg>