<svg width="24" height="24" viewBox="0 0 24 24" xmlns="http://www.w3.org/2000/svg"><title>hide</title><path d="M15.03 17.22l-7.49-9.2c-1.74.94-3.05 2.46-3.87 4.35 1.42 3.27 4.53 5.44 8.15 5.44 1.13 0 2.21-.2 3.21-.6zm5.05 3.77c.14.34.06.58-.23.82-.36.3-.88.24-1.17-.12l-2.52-3.1c-1.35.58-2.82.9-4.34.9-4.42 0-8.1-2.64-9.7-6.72l-.12-.3.12-.3c.9-2.28 2.44-4.17 4.4-5.4L3.68 3.3c-.3-.36-.24-.84.11-1.14.36-.3.89-.16 1.18.2l3.08 3.93L20.08 21zM9.78 5.46c.65-.14 1.34-.21 2.04-.21 4.43 0 8.46 2.83 10.06 6.9l.12.31-.12.31c-.63 1.6-1.64 2.98-2.9 4.07l-1.12-1.4c.93-.84 1.7-1.88 2.23-3.07-1.43-3.28-4.64-5.45-8.27-5.45-.28 0-.55.02-.83.04l-1.22-1.5z" fill-rule="evenodd"/></svg>