<svg width="28" height="28" viewBox="0 0 28 28" xmlns="http://www.w3.org/2000/svg"><title>hide</title><path d="M17.64 20.16L8.65 9.18c-2.1 1.13-3.67 2.94-4.65 5.2 1.7 3.9 5.44 6.5 9.79 6.5 1.35 0 2.65-.25 3.85-.72zm6.05 4.51c.17.4.08.69-.27.98-.43.35-1.06.29-1.4-.14l-3.03-3.7c-1.61.69-3.38 1.07-5.2 1.07-5.31 0-9.73-3.15-11.65-8.02L2 14.5l.14-.36C3.22 11.4 5.07 9.17 7.43 7.7L4 3.55c-.35-.42-.28-1 .14-1.36.43-.35 1.06-.2 1.41.24l3.7 4.7 14.43 17.54zM11.33 6.13c.8-.16 1.61-.25 2.46-.25 5.3 0 10.15 3.38 12.07 8.25l.14.36-.14.37c-.76 1.91-1.97 3.56-3.48 4.85l-1.35-1.66c1.12-1.01 2.05-2.25 2.67-3.67-1.7-3.91-5.56-6.5-9.91-6.5-.34 0-.67.02-1 .05l-1.46-1.8z" fill-rule="evenodd"/></svg>