<svg width="20" height="20" viewBox="0 0 20 20" xmlns="http://www.w3.org/2000/svg"><title>home--small</title><path d="M9.5 12.05h1c1.38 0 2.5 1.12 2.5 2.5v.95c0 1.38 1.12 2.5 2.5 2.5s2.5-1.12 2.5-2.5V9.75c0-.95-.4-1.88-1.1-2.54l-4.5-4.26c-1.34-1.27-3.46-1.27-4.8 0L3.1 7.21C2.4 7.87 2 8.8 2 9.75v5.75C2 16.88 3.12 18 4.5 18S7 16.88 7 15.5v-.95c0-1.38 1.12-2.5 2.5-2.5m6 6.95c-1.93 0-3.5-1.57-3.5-3.5v-.95c0-.83-.67-1.5-1.5-1.5h-1c-.83 0-1.5.67-1.5 1.5v.95C8 17.43 6.43 19 4.5 19S1 17.43 1 15.5V9.75c0-1.23.51-2.42 1.4-3.26l4.5-4.27C8.65.6 11.37.6 13.1 2.22l4.5 4.27c.89.84 1.4 2.03 1.4 3.26v5.75c0 1.93-1.57 3.5-3.5 3.5" fill-rule="evenodd"/></svg>