<svg width="16" height="16" viewBox="0 0 16 16" xmlns="http://www.w3.org/2000/svg"><title>home--small</title><path d="M7.61 9.6h.78c1.07 0 1.94.86 1.94 1.94v.74c0 1.07.88 1.94 1.95 1.94 1.07 0 1.94-.87 1.94-1.94V7.8c0-.75-.3-1.47-.85-1.98l-3.5-3.31c-1.05-.99-2.7-.99-3.74 0l-3.5 3.31c-.54.51-.85 1.23-.85 1.98v4.47c0 1.07.87 1.94 1.94 1.94 1.07 0 1.95-.87 1.95-1.94v-.74c0-1.08.87-1.95 1.94-1.95M12.28 15c-1.5 0-2.72-1.22-2.72-2.72v-.74c0-.65-.53-1.17-1.17-1.17H7.6c-.64 0-1.17.52-1.17 1.17v.74c0 1.5-1.22 2.72-2.72 2.72C2.22 15 1 13.78 1 12.28V7.8c0-.96.4-1.88 1.1-2.54l3.5-3.32c1.34-1.27 3.46-1.27 4.8 0l3.5 3.32c.7.66 1.1 1.58 1.1 2.54v4.47c0 1.5-1.22 2.72-2.72 2.72" fill-rule="evenodd"/></svg>