<svg width="28" height="28" viewBox="0 0 28 28" xmlns="http://www.w3.org/2000/svg"><title>home</title><path d="M11.349 3.963h.01-.01zM13 15.993h2c1.654 0 3 1.335 3 2.976v2.003c0 1.667 1.346 3.022 3 3.022s3-1.355 3-3.022v-8.27c0-.86-.369-1.681-1.013-2.251l-6.971-5.715c-1.105-.978-2.926-.98-4.004-.024l-.029.024-7 5.74A2.994 2.994 0 0 0 4 12.703v8.269c0 1.667 1.346 3.022 3 3.022s3-1.355 3-3.022v-2.003c0-1.641 1.346-2.975 3-2.975zm8 10c-2.757 0-5-2.252-5-5.021v-2.003c0-.547-.44-.975-1-.975h-2c-.561 0-1 .428-1 .975v2.003c0 2.769-2.243 5.022-5 5.022s-5-2.253-5-5.022v-8.27a5.01 5.01 0 0 1 1.686-3.748L10.701 3.2c1.828-1.606 4.789-1.6 6.612.013l6.971 5.715A5.025 5.025 0 0 1 26 12.703v8.269c0 2.769-2.243 5.022-5 5.022z" fill="#000" fill-rule="evenodd"/></svg>