<svg width="20" height="20" viewBox="0 0 20 20" xmlns="http://www.w3.org/2000/svg"><title>home--small</title><path d="M9.5 12.046h1c1.379 0 2.5 1.121 2.5 2.5v.953c0 1.379 1.121 2.5 2.5 2.5s2.5-1.121 2.5-2.5V9.754a3.51 3.51 0 0 0-1.094-2.541L12.405 2.95a3.516 3.516 0 0 0-4.809 0L3.094 7.213A3.51 3.51 0 0 0 2 9.754v5.745c0 1.379 1.121 2.5 2.5 2.5s2.5-1.121 2.5-2.5v-.953c0-1.379 1.121-2.5 2.5-2.5m6 6.953c-1.93 0-3.5-1.57-3.5-3.5v-.953c0-.827-.673-1.5-1.5-1.5h-1c-.827 0-1.5.673-1.5 1.5v.953c0 1.93-1.57 3.5-3.5 3.5s-3.5-1.57-3.5-3.5V9.754c0-1.23.513-2.421 1.406-3.268l4.503-4.263a4.52 4.52 0 0 1 6.183 0l4.502 4.264A4.52 4.52 0 0 1 19 9.754v5.745c0 1.93-1.57 3.5-3.5 3.5" fill="#000" fill-rule="evenodd"/></svg>