<svg width="18" height="18" viewBox="0 0 18 18" xmlns="http://www.w3.org/2000/svg"><title>home--small</title><path d="M8.56 10.82h.88c1.23 0 2.23 1 2.23 2.22v.85c0 1.22 1 2.22 2.22 2.22 1.23 0 2.22-1 2.22-2.22v-5.1c0-.86-.35-1.68-.97-2.27l-4-3.79c-1.2-1.12-3.08-1.12-4.28 0l-4 3.8c-.62.58-.97 1.4-.97 2.25v5.1c0 1.23 1 2.23 2.22 2.23 1.23 0 2.22-1 2.22-2.22v-.85c0-1.22 1-2.22 2.23-2.22M13.89 17c-1.72 0-3.11-1.4-3.11-3.11v-.85c0-.73-.6-1.33-1.34-1.33h-.88c-.74 0-1.34.6-1.34 1.33v.85c0 1.71-1.4 3.11-3.1 3.11C2.4 17 1 15.6 1 13.89v-5.1c0-1.1.46-2.16 1.25-2.91l4-3.8c1.54-1.44 3.96-1.44 5.5 0l4 3.8c.8.75 1.25 1.8 1.25 2.9v5.1C17 15.6 15.6 17 13.9 17" fill-rule="evenodd"/></svg>