<svg width="24" height="24" viewBox="0 0 24 24" xmlns="http://www.w3.org/2000/svg"><title>home</title><path d="M9.8 3.64zm1.37 10.02h1.66c1.38 0 2.5 1.12 2.5 2.48v1.67c0 1.4 1.12 2.52 2.5 2.52s2.5-1.13 2.5-2.52v-6.89c0-.72-.3-1.4-.84-1.88l-5.81-4.76c-.92-.81-2.44-.82-3.34-.02l-.02.02-5.83 4.78c-.52.46-.82 1.14-.82 1.86v6.9c0 1.38 1.12 2.51 2.5 2.51s2.5-1.13 2.5-2.52v-1.67c0-1.36 1.12-2.48 2.5-2.48zM17.83 22c-2.3 0-4.16-1.88-4.16-4.19v-1.67c0-.45-.37-.8-.84-.8h-1.66c-.47 0-.84.35-.84.8v1.67c0 2.31-1.87 4.19-4.16 4.19C3.87 22 2 20.12 2 17.81v-6.89c0-1.2.51-2.33 1.4-3.12L9.25 3c1.52-1.34 4-1.33 5.51.01l5.81 4.77c.92.8 1.43 1.95 1.43 3.14v6.9c0 2.3-1.87 4.18-4.17 4.18z" fill-rule="evenodd"/></svg>