<svg width="20" height="20" viewBox="0 0 20 20" xmlns="http://www.w3.org/2000/svg"><title>invite--small</title><path d="M11.08 2.573c0-.52.636-.77.99-.39l5.777 6.211a.571.571 0 0 1 0 .778l-5.777 6.211a.571.571 0 0 1-.99-.39v-3.056c-3.648.125-6.18 1.475-8.031 4.26-.345.518-1.152.191-1.038-.42C3.014 10.387 5.978 6.62 11.08 5.64V2.573zm1.143 1.453V6.12a.571.571 0 0 1-.485.565c-4.045.621-6.658 3.104-7.97 6.874 1.996-1.883 4.569-2.775 7.883-2.775.316 0 .572.256.572.571v2.185l4.425-4.758-4.425-4.757z" fill-rule="nonzero" fill="#000"/></svg>