<svg width="28" height="28" viewBox="0 0 28 28" xmlns="http://www.w3.org/2000/svg"><title>invite</title><path d="M15.222 8.94V5c0-.908 1.114-1.346 1.732-.681l7.778 8.361a1 1 0 0 1 0 1.362l-7.778 8.361c-.618.665-1.732.228-1.732-.68v-3.876c-4.71.216-7.98 1.998-10.39 5.623-.602.907-2.014.334-1.815-.736 1.353-7.275 5.347-12.4 12.205-13.794zm2-1.397v2.235a1 1 0 0 1-.848.988c-5.038.774-8.396 3.726-10.223 8.242 2.625-2.155 5.927-3.183 10.071-3.183a1 1 0 0 1 1 1v2.354l5.412-5.818-5.412-5.818z" fill-rule="nonzero" fill="#000"/></svg>