<svg width="20" height="20" viewBox="0 0 20 20" xmlns="http://www.w3.org/2000/svg"><title>launch-new-window--small</title><path d="M18.5 12c-.277 0-.5.223-.5.5v.5c0 2.757-2.243 5-5 5H7c-2.757 0-5-2.243-5-5V7c0-2.757 2.243-5 5-5h.5a.5.5 0 0 0 0-1H6c-3 .255-5 2.855-5 6v6a6 6 0 0 0 6 6h6a6 6 0 0 0 6-6v-.5a.5.5 0 0 0-.5-.5M19 1.502V9.5a.499.499 0 0 1-.5.5.5.5 0 0 1-.5-.5V2.708L6.854 13.854a.5.5 0 0 1-.707-.708L17.293 2H10.5a.5.5 0 1 1 0-1l7.999.002a.503.503 0 0 1 .501.5" fill="#000" fill-rule="evenodd"/></svg>