<svg width="24" height="24" viewBox="0 0 24 24" xmlns="http://www.w3.org/2000/svg"><title>launch-new-window</title><path d="M21.17 14.5c-.46 0-.84.37-.84.83 0 2.76-2.24 5-5 5H8.67c-2.76 0-5-2.24-5-5V8.67c0-2.76 2.24-5 5-5 .46 0 .83-.38.83-.84 0-.46-.37-.83-.83-.83C4.99 2 2 4.99 2 8.67v6.66C2 19.02 4.99 22 8.67 22h6.66c3.69 0 6.67-2.98 6.67-6.67 0-.46-.37-.83-.83-.83m-10-11.67c0-.46.37-.83.83-.83h9.16c.11 0 .22.02.33.06.2.09.36.25.45.46.04.1.06.2.06.32V12c0 .23-.1.44-.24.59-.16.15-.36.24-.6.24-.45 0-.83-.37-.83-.83V4.85L8.8 16.39c-.32.32-.85.32-1.18 0-.32-.33-.32-.86 0-1.18L19.16 3.67H12c-.46 0-.83-.38-.83-.84" fill-rule="evenodd"/></svg>