<svg width="28" height="28" viewBox="0 0 28 28" xmlns="http://www.w3.org/2000/svg"><title>launch-new-window</title><path d="M25 17c-.55 0-1 .45-1 1 0 3.3-2.7 6-6 6h-8c-3.3 0-6-2.7-6-6v-8c0-3.3 2.7-6 6-6 .55 0 1-.45 1-1s-.45-1-1-1c-4.42 0-8 3.58-8 8v8c0 4.42 3.58 8 8 8h8c4.42 0 8-3.58 8-8 0-.55-.45-1-1-1M13 3c0-.55.45-1 1-1h11c.13 0 .26.03.38.08.25.1.44.3.54.54.05.12.08.25.08.38v11c0 .28-.11.53-.3.7-.17.19-.42.3-.7.3-.55 0-1-.45-1-1V5.41L10.15 19.27c-.39.4-1.02.4-1.41 0-.4-.39-.4-1.02 0-1.41L22.59 4H14c-.55 0-1-.45-1-1" fill-rule="evenodd"/></svg>