<svg width="18" height="18" viewBox="0 0 18 18" xmlns="http://www.w3.org/2000/svg"><title>launch-new-window--small</title><path d="M16.56 10.78c-.25 0-.45.2-.45.44v.45c0 2.45-2 4.44-4.44 4.44H6.33c-2.45 0-4.44-2-4.44-4.44V6.33c0-2.45 2-4.44 4.44-4.44h.45c.24 0 .44-.2.44-.45 0-.24-.2-.44-.44-.44H5.44C2.78 1.23 1 3.54 1 6.33v5.34C1 14.6 3.39 17 6.33 17h5.34C14.6 17 17 14.61 17 11.67v-.45c0-.24-.2-.44-.44-.44M17 1.45v7.1c0 .13-.05.24-.13.32-.08.08-.2.13-.31.13-.25 0-.45-.2-.45-.44V2.52l-9.9 9.9c-.18.18-.46.18-.63 0-.18-.17-.18-.45 0-.62l9.9-9.91H9.44c-.24 0-.44-.2-.44-.45 0-.24.2-.44.44-.44h7.11l.18.03c.1.05.2.14.24.25.02.05.03.1.03.17" fill-rule="evenodd"/></svg>