<svg width="16" height="16" viewBox="0 0 16 16" xmlns="http://www.w3.org/2000/svg"><title>launch-new-window--small</title><path d="M14.61 9.56c-.21 0-.39.17-.39.38v.4c0 2.14-1.74 3.88-3.89 3.88H5.67c-2.15 0-3.9-1.74-3.9-3.89V5.67c0-2.15 1.75-3.9 3.9-3.9h.39c.21 0 .38-.17.38-.38 0-.22-.17-.39-.38-.39H4.89C2.56 1.2 1 3.22 1 5.67v4.66C1 12.91 3.09 15 5.67 15h4.66c2.58 0 4.67-2.09 4.67-4.67v-.39c0-.21-.18-.38-.39-.38M15 1.39v6.22c0 .1-.04.2-.11.28-.07.07-.17.11-.28.11-.21 0-.39-.17-.39-.39V2.33L5.55 11c-.15.15-.4.15-.55 0-.15-.15-.15-.4 0-.55l8.67-8.67H8.4c-.22 0-.39-.18-.39-.4 0-.2.17-.38.39-.38h6.22l.15.03c.1.04.17.12.21.21l.03.15" fill-rule="evenodd"/></svg>