<svg width="28" height="28" viewBox="0 0 28 28" xmlns="http://www.w3.org/2000/svg"><title>link</title><path d="M3.59 16.72c-2.12 2.12-2.12 5.57 0 7.69s5.57 2.12 7.7 0l4.52-4.53c2.03-2.02 2.13-5.27.27-7.4-.23-.27-.57-.39-.91-.32-.34.07-.62.3-.73.63-.1.33-.04.69.19.95 1.2 1.39 1.15 3.46-.18 4.79l-4.52 4.52c-1.4 1.4-3.6 1.4-4.98 0-1.4-1.39-1.4-3.59 0-4.98l4.52-4.52c.25-.24.35-.6.26-.94-.08-.33-.35-.6-.68-.68-.34-.09-.7.01-.93.26l-4.53 4.53zm8.6-8.6c-2.03 2.02-2.13 5.27-.27 7.4.35.4.96.45 1.36.1.4-.35.44-.96.1-1.36-1.22-1.39-1.16-3.46.17-4.79l4.52-4.52c1.4-1.4 3.6-1.4 4.98 0 1.4 1.39 1.4 3.59 0 4.98l-4.52 4.52c-.25.24-.35.6-.26.94.09.33.35.6.68.68.34.09.7-.01.93-.26l4.53-4.53c2.12-2.12 2.12-5.57 0-7.69s-5.57-2.12-7.7 0L12.2 8.12z" fill-rule="nonzero"/></svg>