<svg width="20" height="20" viewBox="0 0 20 20" xmlns="http://www.w3.org/2000/svg"><title>link--small</title><path d="M3.06 11.81c-1.41 1.41-1.41 3.72 0 5.13 1.41 1.41 3.72 1.41 5.13 0l3.02-3.02c1.35-1.35 1.41-3.51.18-4.94-.15-.17-.39-.25-.61-.2-.23.04-.41.2-.49.42-.07.21-.02.45.13.63.8.92.77 2.3-.12 3.19l-3.02 3.01c-.92.93-2.39.93-3.31 0-.93-.92-.93-2.39 0-3.31L6.98 9.7c.17-.16.23-.4.18-.62-.06-.23-.24-.4-.46-.46-.22-.06-.46 0-.62.17l-3.02 3.02zm5.73-5.73c-1.35 1.35-1.41 3.51-.18 4.94.24.27.64.3.9.06.28-.23.3-.64.07-.9-.8-.93-.77-2.31.12-3.2l3.02-3.01c.92-.93 2.39-.93 3.31 0 .93.92.93 2.39 0 3.31l-3.01 3.02c-.17.16-.23.4-.18.62.06.23.24.4.46.46.22.06.46 0 .62-.17l3.02-3.02c1.41-1.41 1.41-3.72 0-5.13-1.41-1.41-3.72-1.41-5.13 0L8.8 6.08z" fill-rule="nonzero"/></svg>