<svg width="24" height="24" viewBox="0 0 24 24" xmlns="http://www.w3.org/2000/svg"><title>link</title><path d="M3.04 13.98c-1.76 1.77-1.76 4.65 0 6.42 1.77 1.76 4.65 1.76 6.42 0l3.77-3.78c1.69-1.69 1.77-4.4.22-6.17-.19-.22-.48-.32-.76-.26-.28.05-.5.25-.6.52-.1.28-.03.58.15.8 1.01 1.15.97 2.87-.14 3.98l-3.77 3.77c-1.16 1.16-3 1.16-4.15 0-1.16-1.16-1.16-2.99 0-4.15l3.77-3.77c.2-.2.29-.5.21-.77-.07-.28-.29-.5-.57-.57-.28-.08-.57 0-.77.21l-3.78 3.77zm7.17-7.16c-1.69 1.69-1.77 4.4-.22 6.17.29.34.8.37 1.13.08.33-.3.37-.8.08-1.13-1.01-1.16-.97-2.88.14-4l3.77-3.76c1.16-1.16 3-1.16 4.15 0 1.16 1.16 1.16 2.99 0 4.15L15.5 12.1c-.2.2-.29.5-.21.77.07.28.29.5.57.57.28.08.57 0 .77-.21l3.78-3.77c1.76-1.77 1.76-4.65 0-6.42-1.77-1.76-4.65-1.76-6.42 0l-3.77 3.78z" fill-rule="nonzero"/></svg>