<svg width="18" height="18" viewBox="0 0 18 18" xmlns="http://www.w3.org/2000/svg"><title>link--small</title><path d="M2.93 10.58c-1.24 1.24-1.24 3.26 0 4.5 1.23 1.23 3.25 1.23 4.49 0l2.64-2.65c1.18-1.18 1.24-3.07.15-4.32-.13-.15-.33-.22-.53-.18-.2.03-.36.18-.42.37-.07.19-.03.4.1.55.71.8.68 2.01-.1 2.79l-2.64 2.64c-.8.81-2.09.81-2.9 0s-.81-2.1 0-2.9l2.64-2.64c.14-.14.2-.35.15-.55-.05-.2-.2-.35-.4-.4-.2-.05-.4 0-.54.15l-2.64 2.64zm5.01-5.01C6.76 6.75 6.7 8.64 7.8 9.89c.2.23.56.26.79.05.23-.2.26-.55.05-.79-.7-.8-.67-2.01.1-2.79l2.65-2.64c.8-.81 2.09-.81 2.9 0s.81 2.1 0 2.9l-2.64 2.64c-.14.14-.2.35-.15.55.05.2.2.35.4.4.2.05.4 0 .54-.15l2.64-2.64c1.24-1.24 1.24-3.26 0-4.5-1.23-1.23-3.25-1.23-4.49 0L7.94 5.58z" fill-rule="nonzero"/></svg>