<svg width="16" height="16" viewBox="0 0 16 16" xmlns="http://www.w3.org/2000/svg"><title>link--small</title><path d="M2.8 9.36c-1.06 1.06-1.06 2.79 0 3.85 1.05 1.05 2.78 1.05 3.84 0l2.27-2.27c1-1.01 1.06-2.64.13-3.7-.11-.13-.29-.2-.46-.16-.17.03-.3.15-.36.32-.05.16-.02.34.1.47.6.7.57 1.73-.1 2.4l-2.26 2.26c-.7.7-1.8.7-2.49 0-.7-.7-.7-1.8 0-2.5l2.27-2.26c.12-.12.17-.3.13-.46-.05-.17-.18-.3-.35-.34-.16-.05-.34 0-.46.12L2.79 9.36zm4.3-4.3c-1.02 1.01-1.07 2.64-.14 3.7.18.2.48.22.68.05.2-.18.22-.48.05-.68-.61-.7-.58-1.73.08-2.4l2.27-2.26c.7-.7 1.8-.7 2.49 0 .7.7.7 1.8 0 2.5l-2.27 2.26c-.12.12-.17.3-.13.46.05.17.18.3.35.34.16.05.34 0 .46-.12l2.27-2.27c1.05-1.06 1.05-2.79 0-3.85-1.06-1.05-2.8-1.05-3.85 0L7.09 5.06z" fill-rule="nonzero"/></svg>