<svg width="18" height="18" viewBox="0 0 18 18" xmlns="http://www.w3.org/2000/svg"><title>location-pin--small</title><path d="M9 8.56c-.48 0-.88-.4-.88-.9s.4-.9.88-.9.88.4.88.9-.4.9-.88.9m0-2.7c-.97 0-1.75.8-1.75 1.8 0 .99.78 1.8 1.75 1.8s1.75-.81 1.75-1.8c0-1-.78-1.8-1.75-1.8m2.5 9.92c-.59.84-1.5 1.32-2.5 1.32s-1.91-.48-2.5-1.32C4.14 12.3 2.88 9.49 2.88 7.66 2.88 3.26 6.04.9 9 .9c2.97 0 6.13 2.37 6.13 6.76 0 1.83-1.26 4.64-3.64 8.12M9 0C5.56 0 2 2.86 2 7.66c0 2.05 1.28 4.95 3.8 8.63C6.53 17.38 7.7 18 9 18c1.3 0 2.46-.62 3.2-1.7C14.73 12.6 16 9.7 16 7.65 16 2.86 12.44 0 9 0" fill-rule="evenodd"/></svg>