<svg width="18" height="18" viewBox="0 0 18 18" xmlns="http://www.w3.org/2000/svg"><title>location-services--small</title><path d="M12.56 9c0 1.96-1.6 3.56-3.56 3.56S5.44 10.96 5.44 9 7.04 5.44 9 5.44s3.56 1.6 3.56 3.56M9 14.33c-2.94 0-5.33-2.39-5.33-5.33S6.06 3.67 9 3.67 14.33 6.06 14.33 9 11.94 14.33 9 14.33m7.56-5.77H15.2c-.22-3.09-2.67-5.54-5.76-5.76V1.44C9.44 1.2 9.24 1 9 1c-.25 0-.44.2-.44.44V2.8c-3.09.22-5.54 2.67-5.76 5.76H1.44c-.24 0-.44.2-.44.44 0 .25.2.44.44.44H2.8c.22 3.09 2.67 5.54 5.76 5.76v1.36c0 .24.2.44.44.44.25 0 .44-.2.44-.44V15.2c3.09-.22 5.54-2.67 5.76-5.76h1.36c.24 0 .44-.2.44-.44 0-.25-.2-.44-.44-.44" fill-rule="evenodd"/></svg>