<svg width="20" height="20" viewBox="0 0 20 20" xmlns="http://www.w3.org/2000/svg"><title>location-pin-slashed--small</title><path d="M11 8.5c0-.54-.45-1-1-1-.35 0-.64.2-.82.46l-.63-.82c.37-.39.88-.63 1.45-.63 1.1 0 2 .9 2 2 0 .76-.43 1.41-1.05 1.75l-.63-.82c.4-.13.68-.5.68-.93zM5.28 2.89L4.7 2.1C6.2.75 8.1 0 10 0c3.93 0 8 3.18 8 8.5 0 1.83-.95 4.28-2.81 7.29l-.65-.85C16.15 12.27 17 10.07 17 8.51 17 3.63 13.4 1 10 1c-1.67 0-3.4.64-4.72 1.88zm7.57 14.65c-.66.93-1.7 1.47-2.85 1.47-1.15 0-2.19-.54-2.85-1.47C4.44 13.67 3 10.55 3 8.5c0-1.64.41-3.01 1.08-4.12l9.39 12.23c-.2.3-.4.6-.62.9zM2.83 1.19c-.16-.22-.46-.25-.66-.08-.2.18-.23.49-.06.7l1.34 1.75C2.55 4.9 2 6.55 2 8.51c0 2.28 1.46 5.5 4.33 9.6C7.18 19.3 8.53 20 10 20s2.82-.7 3.66-1.9l.45-.65 1.06 1.39c.16.21.46.24.66.07.2-.17.22-.47.07-.68L2.83 1.19z" fill-rule="evenodd"/></svg>