<svg width="28" height="28" viewBox="0 0 28 28" xmlns="http://www.w3.org/2000/svg"><title>location-services</title><path d="M18 14c0 2.2-1.8 4-4 4s-4-1.8-4-4 1.8-4 4-4 4 1.8 4 4m-4 7c-3.86 0-7-3.14-7-7s3.14-7 7-7 7 3.14 7 7-3.14 7-7 7m11-8h-2.06c-.46-4.17-3.77-7.48-7.94-7.94V3c0-.55-.45-1-1-1s-1 .45-1 1v2.06C8.83 5.52 5.52 8.83 5.06 13H3c-.55 0-1 .45-1 1s.45 1 1 1h2.06c.46 4.17 3.77 7.48 7.94 7.94V25c0 .55.45 1 1 1s1-.45 1-1v-2.06c4.17-.46 7.48-3.77 7.94-7.94H25c.55 0 1-.45 1-1s-.45-1-1-1" fill-rule="evenodd"/></svg>