<svg width="18" height="18" viewBox="0 0 18 18" xmlns="http://www.w3.org/2000/svg"><title>location-pin-slashed--small</title><path d="M9.88 7.66c0-.5-.4-.9-.88-.9-.3 0-.56.17-.71.4l-.56-.74c.32-.34.77-.56 1.27-.56.97 0 1.75.8 1.75 1.8 0 .68-.38 1.27-.92 1.57l-.55-.73c.34-.12.6-.45.6-.84zm-5-5.07l-.52-.7C5.66.68 7.34 0 9 0c3.44 0 7 2.86 7 7.66 0 1.64-.84 3.85-2.46 6.55l-.57-.76c1.41-2.41 2.15-4.39 2.15-5.8C15.13 3.28 11.97.9 9 .9c-1.46 0-2.97.58-4.13 1.69zm6.61 13.19c-.58.84-1.48 1.32-2.49 1.32-1 0-1.91-.48-2.5-1.32-2.37-3.48-3.63-6.29-3.63-8.12 0-1.48.37-2.71.95-3.71l8.21 11c-.17.28-.35.55-.54.83zM2.73 1.07c-.15-.2-.4-.23-.58-.07-.17.16-.2.44-.06.63L3.27 3.2C2.49 4.4 2 5.9 2 7.66c0 2.05 1.28 4.95 3.8 8.63C6.53 17.38 7.7 18 9 18c1.3 0 2.46-.62 3.2-1.7l.4-.6.92 1.25c.15.2.4.22.58.07.17-.16.2-.43.07-.62L2.73 1.07z" fill-rule="evenodd"/></svg>