<svg width="16" height="16" viewBox="0 0 16 16" xmlns="http://www.w3.org/2000/svg"><title>location-pin-slashed--small</title><path d="M9 6.8c0-.44-.35-.8-.78-.8-.27 0-.5.16-.63.37l-.5-.66c.29-.3.69-.5 1.13-.5.86 0 1.56.71 1.56 1.6 0 .6-.34 1.13-.82 1.4l-.49-.66c.3-.1.53-.4.53-.74zM4.55 2.3L4.1 1.7C5.25.59 6.75 0 8.22 0c3.06 0 6.22 2.55 6.22 6.8 0 1.47-.74 3.43-2.18 5.83l-.5-.68c1.25-2.14 1.9-3.9 1.9-5.15 0-3.9-2.8-6-5.44-6-1.3 0-2.64.51-3.67 1.5zm5.89 11.72c-.52.75-1.32 1.18-2.22 1.18-.9 0-1.7-.43-2.21-1.18C3.9 10.93 2.78 8.44 2.78 6.8c0-1.3.32-2.4.84-3.3l7.3 9.8-.48.72zM2.64.95c-.12-.17-.35-.2-.5-.06-.16.14-.19.39-.06.56l1.05 1.4C2.43 3.9 2 5.24 2 6.8c0 1.83 1.13 4.41 3.37 7.68.66.97 1.7 1.52 2.85 1.52 1.15 0 2.2-.55 2.85-1.52l.34-.52.83 1.11c.13.17.36.2.52.06.15-.14.17-.38.05-.55L2.65.95z" fill-rule="evenodd"/></svg>