<svg width="24" height="24" viewBox="0 0 24 24" xmlns="http://www.w3.org/2000/svg"><title>location-pin</title><path d="M12 10.29c-1 0-1.8-.77-1.8-1.72 0-.94.8-1.71 1.8-1.71s1.8.77 1.8 1.71c0 .95-.8 1.72-1.8 1.72m0-5.15c-1.99 0-3.6 1.54-3.6 3.43 0 1.9 1.61 3.43 3.6 3.43s3.6-1.54 3.6-3.43c0-1.89-1.61-3.43-3.6-3.43m2.29 15.93c-.5.76-1.35 1.22-2.29 1.22s-1.8-.46-2.29-1.22C6.54 16.17 4.8 12.19 4.8 9.85 4.8 4.57 8.51 1.7 12 1.7s7.2 2.86 7.2 8.14c0 2.34-1.74 6.33-4.91 11.22M12 0C7.58 0 3 3.68 3 9.85c0 2.73 1.74 6.81 5.18 12.12C9.01 23.24 10.43 24 12 24c1.57 0 3-.76 3.82-2.03C18.18 18.32 21 13.26 21 9.85 21 3.68 16.42 0 12 0" fill-rule="evenodd"/></svg>