<svg width="28" height="28" viewBox="0 0 28 28" xmlns="http://www.w3.org/2000/svg"><title>location-pin-slashed</title><path d="M16 10c0-1.1-.9-2-2-2-.52 0-.98.2-1.34.52l-1.25-1.54C12.1 6.38 13 6 14 6c2.2 0 4 1.8 4 4 0 1.29-.62 2.42-1.56 3.15l-1.26-1.54c.5-.37.82-.95.82-1.61zM8.99 4.01L7.75 2.5C9.55.88 11.79 0 14 0c4.92 0 10 4.3 10 11.49 0 2.27-1.02 5.16-2.38 8.02l-1.41-1.73c1.16-2.6 1.79-4.75 1.79-6.29C22 5.33 17.88 2 14 2c-1.76 0-3.56.69-5.01 2.01zm7.55 20.57C16 25.47 15.04 26 14 26s-2-.53-2.54-1.42C7.94 18.88 6 14.23 6 11.49c0-1.61.29-3.02.78-4.24l11.6 14.16c-.55 1.01-1.16 2.07-1.84 3.17zm4.16-3.25l.02-.02-1.4-1.69v.02L5.77 3c-.35-.42-.98-.58-1.4-.23-.43.35-.5.94-.14 1.36l1.15 1.41C4.52 7.21 4 9.2 4 11.5c0 3.2 1.94 7.95 5.76 14.14C10.67 27.1 12.26 28 14 28c1.74 0 3.33-.89 4.24-2.37.5-.8 1-1.66 1.51-2.55l2.48 3.02c.35.42.98.49 1.4.14.36-.3.45-.58.27-.98l-3.2-3.93z" fill-rule="evenodd"/></svg>