<svg width="16" height="16" viewBox="0 0 16 16" xmlns="http://www.w3.org/2000/svg"><title>location-pin--small</title><path d="M7.97 7.6c-.43 0-.78-.35-.78-.8 0-.44.35-.8.78-.8.43 0 .78.36.78.8 0 .45-.35.8-.78.8m0-2.4c-.86 0-1.55.72-1.55 1.6 0 .89.7 1.6 1.55 1.6.86 0 1.56-.71 1.56-1.6 0-.88-.7-1.6-1.56-1.6m2.22 8.82c-.52.75-1.32 1.18-2.22 1.18-.9 0-1.7-.43-2.21-1.18-2.11-3.09-3.23-5.58-3.23-7.22 0-3.9 2.8-6 5.44-6 2.64 0 5.45 2.1 5.45 6 0 1.64-1.12 4.13-3.23 7.22M7.97 0C4.91 0 1.75 2.55 1.75 6.8c0 1.83 1.13 4.41 3.37 7.68.66.97 1.7 1.52 2.85 1.52 1.15 0 2.2-.55 2.85-1.52 2.24-3.27 3.37-5.85 3.37-7.68 0-4.25-3.16-6.8-6.22-6.8" fill-rule="evenodd"/></svg>