<svg width="20" height="20" viewBox="0 0 20 20" xmlns="http://www.w3.org/2000/svg"><title>location-pin--small</title><path d="M10 9.507a1.001 1.001 0 0 1 0-2 1.001 1.001 0 0 1 0 2m0-3c-1.103 0-2 .897-2 2s.897 2 2 2 2-.897 2-2-.897-2-2-2m2.847 11.02A3.438 3.438 0 0 1 10 19a3.438 3.438 0 0 1-2.847-1.472C4.437 13.666 3 10.546 3 8.506 3 3.63 6.606 1 10 1s7 2.63 7 7.506c0 2.04-1.437 5.16-4.153 9.022M10 0C6.067 0 2 3.182 2 8.506c0 2.279 1.459 5.508 4.335 9.597A4.426 4.426 0 0 0 10 20c1.48 0 2.816-.691 3.665-1.897C16.541 14.013 18 10.785 18 8.506 18 3.182 13.933 0 10 0" fill="#000" fill-rule="evenodd"/></svg>