<svg width="24" height="24" viewBox="0 0 24 24" xmlns="http://www.w3.org/2000/svg"><title>location-services</title><path d="M15.33 12c0 1.84-1.49 3.33-3.33 3.33S8.67 13.84 8.67 12 10.16 8.67 12 8.67s3.33 1.49 3.33 3.33M12 17.83c-3.22 0-5.83-2.61-5.83-5.83S8.78 6.17 12 6.17s5.83 2.61 5.83 5.83-2.61 5.83-5.83 5.83m9.17-6.66h-1.72c-.38-3.48-3.14-6.24-6.62-6.62V2.83c0-.46-.37-.83-.83-.83-.46 0-.83.37-.83.83v1.72c-3.48.38-6.24 3.14-6.62 6.62H2.83c-.46 0-.83.37-.83.83 0 .46.37.83.83.83h1.72c.38 3.48 3.14 6.24 6.62 6.62v1.72c0 .46.37.83.83.83.46 0 .83-.37.83-.83v-1.72c3.48-.38 6.24-3.14 6.62-6.62h1.72c.46 0 .83-.37.83-.83 0-.46-.37-.83-.83-.83" fill-rule="evenodd"/></svg>