<svg width="20" height="20" viewBox="0 0 20 20" xmlns="http://www.w3.org/2000/svg"><title>location-services--small</title><path d="M14 10c0 2.2-1.8 4-4 4s-4-1.8-4-4 1.8-4 4-4 4 1.8 4 4m-4 6c-3.3 0-6-2.7-6-6s2.7-6 6-6 6 2.7 6 6-2.7 6-6 6m8.5-6.5h-1.52c-.25-3.47-3.01-6.23-6.48-6.47V1.5c0-.28-.22-.5-.5-.5s-.5.22-.5.5v1.52c-3.47.25-6.23 3.01-6.47 6.48H1.5c-.28 0-.5.22-.5.5s.22.5.5.5h1.52c.25 3.47 3.01 6.23 6.48 6.48v1.52c0 .28.22.5.5.5s.5-.22.5-.5v-1.52c3.47-.25 6.23-3.01 6.48-6.48h1.52c.28 0 .5-.22.5-.5s-.22-.5-.5-.5" fill-rule="evenodd"/></svg>