<svg width="20" height="20" viewBox="0 0 20 20" xmlns="http://www.w3.org/2000/svg"><title>location-pin--small</title><path d="M10 9.5c-.55 0-1-.44-1-1 0-.54.45-1 1-1s1 .46 1 1c0 .56-.45 1-1 1m0-3c-1.1 0-2 .9-2 2 0 1.11.9 2 2 2s2-.89 2-2c0-1.1-.9-2-2-2m2.85 11.03c-.66.93-1.7 1.47-2.85 1.47-1.15 0-2.19-.54-2.85-1.47C4.44 13.67 3 10.55 3 8.5 3 3.63 6.6 1 10 1s7 2.63 7 7.5c0 2.05-1.44 5.17-4.15 9.03M10 0C6.07 0 2 3.18 2 8.5c0 2.28 1.46 5.51 4.33 9.6C7.18 19.3 8.53 20 10 20s2.82-.7 3.66-1.9C16.54 14.01 18 10.78 18 8.5 18 3.19 13.93 0 10 0" fill-rule="evenodd"/></svg>