<svg width="24" height="24" viewBox="0 0 24 24" xmlns="http://www.w3.org/2000/svg"><title>location-pin-slashed</title><path d="M13.8 8.57c0-.94-.8-1.71-1.8-1.71-.46 0-.88.17-1.2.44L9.67 5.98c.63-.51 1.44-.84 2.33-.84 1.99 0 3.6 1.54 3.6 3.43 0 1.1-.56 2.07-1.4 2.7l-1.14-1.32c.45-.31.74-.81.74-1.38zM7.49 3.44l-1.12-1.3C8 .74 10.01 0 12 0c4.42 0 9 3.68 9 9.85 0 1.94-.92 4.42-2.14 6.87l-1.27-1.48c1.04-2.22 1.61-4.07 1.61-5.4 0-5.27-3.71-8.13-7.2-8.13-1.58 0-3.2.6-4.51 1.73zm6.8 17.63c-.5.76-1.35 1.22-2.29 1.22s-1.8-.46-2.29-1.22C6.54 16.17 4.8 12.19 4.8 9.85c0-1.38.26-2.6.7-3.63l10.44 12.13c-.5.87-1.04 1.77-1.65 2.72zm3.74-2.78l.01-.02-1.25-1.45v.01L4.59 2.58c-.3-.36-.88-.5-1.26-.2s-.44.8-.13 1.17l1.04 1.2C3.47 6.19 3 7.9 3 9.86c0 2.73 1.74 6.81 5.18 12.12C9.01 23.24 10.44 24 12 24c1.57 0 3-.76 3.82-2.03.44-.69.9-1.43 1.36-2.2l2.22 2.6c.32.36.89.42 1.27.12.32-.25.4-.5.24-.84l-2.88-3.36z" fill-rule="evenodd"/></svg>