<svg width="28" height="28" viewBox="0 0 28 28" xmlns="http://www.w3.org/2000/svg"><title>location-pin</title><path d="M14 12c-1.1 0-2-.9-2-2s.9-2 2-2 2 .9 2 2-.9 2-2 2m0-6c-2.2 0-4 1.8-4 4s1.8 4 4 4 4-1.8 4-4-1.8-4-4-4m2.54 18.58C16 25.47 15.04 26 14 26s-2-.53-2.54-1.42C7.94 18.88 6 14.23 6 11.49 6 5.33 10.12 2 14 2s8 3.33 8 9.49c0 2.74-1.94 7.38-5.46 13.09M14 0C9.09 0 4 4.3 4 11.49c0 3.2 1.94 7.95 5.76 14.14C10.67 27.1 12.26 28 14 28c1.74 0 3.33-.89 4.24-2.37C20.87 21.37 24 15.47 24 11.49 24 4.29 18.92 0 14 0" fill-rule="evenodd"/></svg>