<svg width="20" height="20" viewBox="0 0 20 20" xmlns="http://www.w3.org/2000/svg"><title>lock--small</title><path d="M10 19c-3.3 0-6-2.7-6-6s2.7-6 6-6 6 2.7 6 6-2.7 6-6 6zM7 4c0-1.89 1.11-3 3-3s3 1.11 3 3.06v2.62c-.91-.43-1.93-.68-3-.68s-2.09.25-3 .68V4zm7 3.26V4c0-2.45-1.55-4-4-4S6 1.55 6 4v3.26C4.19 8.53 3 10.62 3 13c0 3.87 3.13 7 7 7s7-3.13 7-7c0-2.38-1.19-4.47-3-5.74zM10 14c-.83 0-1.5-.67-1.5-1.5S9.17 11 10 11s1.5.67 1.5 1.5S10.83 14 10 14zm0-4c-1.38 0-2.5 1.12-2.5 2.5 0 1.21.86 2.22 2 2.45v1.55c0 .28.22.5.5.5s.5-.22.5-.5v-1.55c1.14-.23 2-1.24 2-2.45 0-1.38-1.12-2.5-2.5-2.5z" fill-rule="evenodd"/></svg>