<svg width="28" height="28" viewBox="0 0 28 28" xmlns="http://www.w3.org/2000/svg"><title>lock</title><path d="M14 18c-1.103 0-2-.897-2-2s.897-2 2-2 2 .897 2 2-.897 2-2 2zm0-6c-2.206 0-4 1.794-4 4 0 1.858 1.28 3.411 3 3.858V23a1 1 0 1 0 2 0v-3.142c1.721-.447 3-2 3-3.858 0-2.206-1.794-4-4-4zm0 14c-4.411 0-8-3.589-8-8s3.589-8 8-8 8 3.589 8 8-3.589 8-8 8zM10 6c0-2.243 1.757-4 4-4 2.243 0 4 1.757 4 4v2.841a9.93 9.93 0 0 0-8 0V6zm10 4.02V6c0-3.364-2.636-6-6-6S8 2.636 8 6v4.02C5.577 11.846 4 14.738 4 18c0 5.514 4.486 10 10 10s10-4.486 10-10c0-3.261-1.577-6.154-4-7.98z" fill="#000" fill-rule="evenodd"/></svg>