<svg width="16" height="16" viewBox="0 0 16 16" xmlns="http://www.w3.org/2000/svg"><title>lock--small</title><path d="M8.06 15.2c-2.63 0-4.77-2.15-4.77-4.8s2.14-4.8 4.77-4.8c2.62 0 4.76 2.15 4.76 4.8s-2.14 4.8-4.76 4.8zm-2.39-12c0-1.5.89-2.4 2.39-2.4s2.38.9 2.38 2.45v2.1C9.7 5 8.9 4.8 8.06 4.8c-.86 0-1.66.2-2.39.55V3.2zm5.56 2.6V3.2C11.23 1.24 10 0 8.06 0 6.1 0 4.88 1.24 4.88 3.2v2.6C3.44 6.83 2.5 8.5 2.5 10.4c0 3.1 2.49 5.6 5.56 5.6 3.06 0 5.55-2.5 5.55-5.6 0-1.9-.94-3.58-2.38-4.6zm-3.17 5.4c-.66 0-1.2-.54-1.2-1.2 0-.66.54-1.2 1.2-1.2.65 0 1.19.54 1.19 1.2 0 .66-.54 1.2-1.2 1.2zm0-3.2c-1.1 0-1.99.9-1.99 2 0 .97.68 1.77 1.59 1.96v1.24c0 .22.18.4.4.4.21 0 .4-.18.4-.4v-1.24c.9-.19 1.58-1 1.58-1.96 0-1.1-.89-2-1.98-2z" fill-rule="evenodd"/></svg>