<svg width="18" height="18" viewBox="0 0 18 18" xmlns="http://www.w3.org/2000/svg"><title>lock--small</title><path d="M8.95 17.1c-2.95 0-5.36-2.42-5.36-5.4 0-2.98 2.4-5.4 5.36-5.4 2.95 0 5.36 2.42 5.36 5.4 0 2.98-2.4 5.4-5.36 5.4zM6.27 3.6c0-1.7 1-2.7 2.68-2.7 1.68 0 2.68 1 2.68 2.76V6c-.81-.38-1.72-.61-2.68-.61-.96 0-1.87.22-2.68.61V3.6zm6.25 2.93V3.6c0-2.2-1.39-3.6-3.57-3.6-2.18 0-3.57 1.4-3.57 3.6v2.93C3.76 7.67 2.7 9.56 2.7 11.7c0 3.48 2.8 6.3 6.25 6.3s6.25-2.82 6.25-6.3c0-2.14-1.06-4.03-2.68-5.17zM8.95 12.6c-.74 0-1.34-.6-1.34-1.35 0-.74.6-1.35 1.34-1.35.74 0 1.34.6 1.34 1.35 0 .74-.6 1.35-1.34 1.35zm0-3.6c-1.23 0-2.23 1-2.23 2.25 0 1.09.76 2 1.78 2.2v1.4c0 .25.2.45.45.45s.45-.2.45-.45v-1.4c1.02-.2 1.78-1.11 1.78-2.2 0-1.24-1-2.25-2.23-2.25z" fill-rule="evenodd"/></svg>