<svg width="24" height="24" viewBox="0 0 24 24" xmlns="http://www.w3.org/2000/svg"><title>lock</title><path d="M12 15.43c-.94 0-1.7-.77-1.7-1.72 0-.94.76-1.71 1.7-1.71s1.7.77 1.7 1.71c0 .95-.76 1.72-1.7 1.72zm0-5.14c-1.88 0-3.4 1.53-3.4 3.42 0 1.6 1.09 2.93 2.55 3.31v2.7c0 .47.38.85.85.85s.85-.38.85-.86v-2.69c1.46-.38 2.55-1.71 2.55-3.3 0-1.9-1.52-3.43-3.4-3.43zm0 12c-3.75 0-6.8-3.08-6.8-6.86 0-3.78 3.05-6.86 6.8-6.86s6.8 3.08 6.8 6.86c0 3.78-3.05 6.86-6.8 6.86zM8.6 5.14c0-1.92 1.5-3.43 3.4-3.43s3.4 1.51 3.4 3.43v2.44c-1.04-.46-2.19-.72-3.4-.72-1.2 0-2.36.26-3.4.72V5.14zm8.5 3.45V5.14C17.1 2.26 14.86 0 12 0 9.14 0 6.9 2.26 6.9 5.14V8.6c-2.06 1.56-3.4 4.04-3.4 6.84C3.5 20.15 7.31 24 12 24c4.69 0 8.5-3.85 8.5-8.57 0-2.8-1.34-5.28-3.4-6.84z" fill-rule="evenodd"/></svg>