<svg width="24" height="24" viewBox="0 0 24 24" xmlns="http://www.w3.org/2000/svg"><title>mail</title><path d="M6.15 19.33c-1.37 0-2.48-1.11-2.48-2.48v-6.84l6.97 4.28c.41.25.89.38 1.36.38.47 0 .95-.13 1.36-.38L20.33 10v6.84c0 1.37-1.11 2.48-2.48 2.48H6.15zM3.67 6.9c0-1.23 1.11-2.22 2.48-2.22h11.7c1.37 0 2.48 1 2.48 2.22v1.16l-7.84 4.81c-.3.19-.69.19-.98 0l-7.84-4.8V6.88zm18.33 0C22 4.74 20.14 3 17.85 3H6.15C3.86 3 2 4.74 2 6.89v9.96C2 19.14 3.86 21 6.15 21h11.7c1.14 0 2.18-.47 2.93-1.22S22 18 22 16.85V6.89z" fill-rule="evenodd"/></svg>