<svg width="18" height="18" viewBox="0 0 18 18" xmlns="http://www.w3.org/2000/svg"><title>mail--small</title><path d="M16.11 4.75v.19L9.54 8.86c-.32.19-.76.19-1.08 0L1.9 4.94V3.89c0-1.1 1.03-2 2.29-2h9.64c1.26 0 2.3.9 2.3 2v.86zm0 9.07c0 1.26-1.03 2.3-2.29 2.3H4.18c-1.26 0-2.3-1.04-2.3-2.3V5.98l6.13 3.64c.3.18.65.27.99.27.34 0 .69-.1.99-.27l6.12-3.64v7.84zM13.82 1H4.18C2.43 1 1 2.3 1 3.89V13.82C1 15.57 2.43 17 4.18 17h9.64c1.75 0 3.18-1.43 3.18-3.18V3.9C17 2.29 15.57 1 13.82 1z" fill-rule="evenodd"/></svg>