<svg width="24" height="24" viewBox="0 0 24 24" xmlns="http://www.w3.org/2000/svg"><title>mail</title><path d="M17.85 20.33H6.15c-1.37 0-2.48-1.11-2.48-2.48V9.01l6.97 4.28c.41.25.89.38 1.36.38.47 0 .95-.13 1.36-.38L20.33 9v8.84c0 1.37-1.11 2.48-2.48 2.48zM3.67 5.9c0-1.23 1.11-2.22 2.48-2.22h11.7c1.37 0 2.48 1 2.48 2.22v1.16l-7.84 4.82c-.3.18-.69.18-.98 0L3.67 7.04V5.9zm18.33 0C22 3.74 20.14 2 17.85 2H6.15C3.86 2 2 3.74 2 5.89v11.96C2 20.14 3.86 22 6.15 22h11.7c2.29 0 4.15-1.86 4.15-4.15V5.89z" fill-rule="evenodd"/></svg>