<svg width="28" height="28" viewBox="0 0 28 28" xmlns="http://www.w3.org/2000/svg"><title>mail</title><path d="M21.02 24H6.98C5.34 24 4 22.66 4 21.02V10.41l8.37 5.13c.5.3 1.06.46 1.63.46.57 0 1.14-.15 1.63-.46L24 10.41v10.61c0 1.64-1.34 2.98-2.98 2.98zM4 6.66C4 5.2 5.34 4 6.98 4h14.04C22.66 4 24 5.2 24 6.66v1.4l-9.41 5.78c-.35.21-.83.21-1.18 0L4 8.06v-1.4zm22 0C26 4.1 23.77 2 21.02 2H6.98C4.23 2 2 4.1 2 6.66v14.36C2 23.77 4.23 26 6.98 26h14.04c2.75 0 4.98-2.23 4.98-4.98V6.66z" fill-rule="evenodd"/></svg>