<svg width="18" height="18" viewBox="0 0 18 18" xmlns="http://www.w3.org/2000/svg"><title>meetup-m--small</title><path d="M16.64 15.73c-.2.12-.41.2-.64.22-.2.03-.39.04-.58.05-.64-.02-1.26-.1-1.85-.32-1-.37-1.63-1.1-1.87-2.17-.12-.5-.08-1.02.12-1.5.24-.58.49-1.15.75-1.71.43-.95.88-1.89 1.32-2.83.09-.18.16-.37.22-.56.06-.17.08-.34.05-.52-.04-.17-.13-.29-.3-.33-.24-.05-.45 0-.62.16-.15.15-.27.32-.36.5l-1.2 2.4L9.9 12.7c-.1.2-.21.38-.34.55-.43.58-1.07.67-1.66.46-.35-.12-.52-.4-.55-.76-.01-.2.01-.39.08-.57l.72-1.87.95-2.46c.08-.22.15-.45.13-.7-.02-.2-.07-.4-.23-.56-.19-.18-.4-.23-.63-.15-.25.08-.44.24-.54.5L6.8 9.8 5.24 13.8c-.13.35-.3.67-.55.95-.29.33-.65.5-1.07.53-.45.05-.88 0-1.3-.19-.69-.3-1.13-.84-1.28-1.6-.07-.36-.05-.72.06-1.07.61-2.1 1.2-4.19 1.92-6.24.17-.51.37-1.02.58-1.52.44-1.04 1.25-1.58 2.32-1.76.34-.06.67 0 .98.14.45.21.9.42 1.34.65.3.15.58.13.84-.06.16-.1.3-.23.44-.35.17-.15.33-.31.51-.44.5-.37 1.05-.4 1.62-.22.23.08.4.25.57.42l.32.3c.25.24.42.27.7.09.36-.24.74-.34 1.16-.33.28 0 .57 0 .85.06.77.16 1.24.63 1.45 1.4.14.46.1.92-.01 1.38-.17.63-.41 1.24-.67 1.84L14.9 10.4c-.24.59-.45 1.19-.58 1.81-.05.27-.08.54-.07.82.01.41.2.7.58.84.2.07.42.11.64.15l.73.13c.13.03.26.08.39.14.5.24.57 1.12.05 1.44" fill-rule="evenodd"/></svg>