<svg width="20" height="20" viewBox="0 0 20 20" xmlns="http://www.w3.org/2000/svg"><title>meetup-m--small</title><path d="M18.6 17.53c-.22.13-.47.21-.72.24l-.66.06c-.71-.03-1.41-.12-2.08-.36-1.13-.4-1.83-1.21-2.1-2.37-.14-.57-.1-1.13.13-1.66.27-.63.55-1.26.84-1.88l1.5-3.1c.09-.2.17-.4.24-.62.07-.18.09-.37.05-.57-.04-.19-.14-.31-.34-.36-.26-.06-.5 0-.7.18-.16.16-.29.34-.4.55l-1.35 2.63-2 3.92c-.1.21-.22.42-.37.6-.49.64-1.2.74-1.87.51-.4-.13-.58-.43-.61-.84-.02-.21 0-.42.09-.62l.81-2.06 1.06-2.7c.1-.23.17-.49.15-.75-.02-.24-.08-.46-.26-.63-.2-.2-.45-.25-.71-.16-.28.09-.49.26-.6.54L7.5 11.03 5.77 15.4c-.15.38-.34.74-.62 1.05-.32.35-.72.53-1.2.58-.5.05-1 0-1.46-.21-.78-.34-1.28-.92-1.44-1.76-.08-.4-.06-.8.06-1.18.7-2.3 1.35-4.6 2.16-6.85.2-.56.42-1.12.65-1.67.5-1.14 1.41-1.74 2.62-1.93.37-.06.74-.01 1.1.15.5.24 1 .46 1.5.71.34.17.65.15.95-.06.18-.11.34-.25.5-.39.19-.16.37-.33.57-.48.56-.4 1.18-.44 1.82-.24.26.09.45.28.65.46l.36.34c.27.25.47.28.78.09.4-.26.84-.37 1.3-.36.33 0 .64 0 .96.06.86.17 1.4.7 1.64 1.54.15.51.11 1.01-.02 1.51-.19.7-.46 1.37-.75 2.03-.42.96-.85 1.92-1.26 2.89-.27.64-.51 1.3-.65 1.99-.07.3-.1.59-.09.9.02.44.22.77.65.91.24.08.49.13.73.18.27.05.55.08.82.14.15.03.3.09.43.15.57.26.65 1.22.07 1.58" fill-rule="evenodd"/></svg>