<svg width="24" height="24" viewBox="0 0 24 24" xmlns="http://www.w3.org/2000/svg"><title>meetup-m</title><path d="M21.55 20.16c-.24.15-.51.24-.8.28-.24.03-.49.04-.73.06-.79-.02-1.57-.14-2.3-.4-1.27-.47-2.04-1.4-2.35-2.73-.14-.64-.1-1.29.15-1.9.3-.72.61-1.44.94-2.15.54-1.2 1.1-2.37 1.65-3.56.1-.23.2-.47.28-.7.08-.22.1-.44.05-.66-.04-.22-.16-.36-.37-.41-.3-.07-.55-.01-.77.2-.19.18-.33.4-.45.63-.5 1-1.01 2-1.5 3.02l-2.22 4.5c-.12.24-.26.47-.42.69-.54.72-1.33.84-2.08.57-.43-.15-.64-.5-.68-.96-.01-.24.02-.48.1-.7l.9-2.37c.4-1.03.8-2.06 1.18-3.09.1-.28.2-.57.17-.87-.02-.28-.1-.53-.3-.72-.22-.22-.49-.29-.78-.19-.3.1-.54.3-.67.62l-1.31 3.39-1.94 5c-.17.44-.38.85-.7 1.2-.35.41-.8.62-1.32.67-.56.06-1.11 0-1.63-.24-.86-.39-1.41-1.05-1.6-2.01-.09-.46-.06-.91.07-1.36.77-2.62 1.5-5.26 2.4-7.85.22-.64.47-1.28.73-1.9.55-1.32 1.56-2 2.9-2.23.42-.07.83-.01 1.22.18.56.27 1.13.52 1.68.81.38.2.72.17 1.05-.06.2-.14.37-.3.55-.45.22-.19.41-.4.64-.56.62-.46 1.3-.5 2.02-.27.29.1.5.32.72.52l.4.4c.3.28.52.32.87.1.44-.3.93-.42 1.45-.42.36 0 .7 0 1.06.07.96.2 1.55.8 1.82 1.77.16.59.13 1.16-.02 1.74-.2.8-.51 1.56-.83 2.32l-1.4 3.31c-.3.74-.57 1.5-.73 2.28-.07.34-.1.68-.1 1.03.03.52.25.88.73 1.05.26.1.54.15.81.2l.91.16c.17.04.33.1.48.18.63.3.72 1.4.07 1.8" fill-rule="evenodd"/></svg>