<svg width="20" height="20" viewBox="0 0 20 20" xmlns="http://www.w3.org/2000/svg"><title>meetup-m--small</title><path d="M18.6 17.53a1.816 1.816 0 0 1-.72.243c-.22.027-.443.037-.662.053-.71-.022-1.41-.118-2.076-.354-1.134-.401-1.83-1.212-2.106-2.376a2.613 2.613 0 0 1 .135-1.655c.269-.632.55-1.258.843-1.879.489-1.037.993-2.068 1.488-3.103.095-.2.174-.407.25-.615.07-.184.085-.376.048-.57-.036-.191-.145-.316-.338-.36a.715.715 0 0 0-.694.177c-.166.16-.298.344-.403.547-.453.877-.91 1.754-1.358 2.634-.665 1.306-1.322 2.616-1.988 3.92-.108.211-.233.42-.377.607-.488.631-1.203.73-1.87.502-.393-.133-.584-.433-.614-.84a1.4 1.4 0 0 1 .09-.62l.812-2.058c.353-.898.71-1.795 1.06-2.694.094-.243.169-.495.15-.763-.017-.239-.083-.458-.264-.629a.676.676 0 0 0-.71-.162c-.276.091-.485.26-.598.54-.393.986-.79 1.97-1.184 2.956-.582 1.454-1.162 2.91-1.742 4.366-.152.383-.346.74-.624 1.048-.32.355-.723.537-1.195.583-.508.051-1-.006-1.467-.21-.776-.341-1.271-.92-1.44-1.758-.08-.4-.054-.796.062-1.18.695-2.293 1.352-4.596 2.16-6.852.201-.56.42-1.116.656-1.663.494-1.146 1.41-1.743 2.612-1.937.376-.06.748-.01 1.099.154.504.234 1.014.459 1.51.71a.871.871 0 0 0 .948-.058c.174-.116.333-.255.495-.39.192-.16.369-.339.571-.485.56-.402 1.176-.443 1.817-.238.261.084.453.279.652.457.122.11.24.227.359.34.272.253.471.286.78.091a2.324 2.324 0 0 1 1.31-.363c.318.003.635-.002.95.063.867.176 1.396.702 1.64 1.543.148.51.114 1.009-.019 1.512-.185.7-.46 1.366-.747 2.027-.418.964-.849 1.922-1.262 2.888-.273.643-.51 1.3-.652 1.986a3.71 3.71 0 0 0-.085.898c.016.451.222.773.652.921.234.08.482.124.727.172.273.054.55.083.822.14.147.033.293.091.43.154.568.263.65 1.224.066 1.58" fill="#000" fill-rule="evenodd"/></svg>