<svg width="18" height="18" viewBox="0 0 18 18" xmlns="http://www.w3.org/2000/svg"><title>messages--small</title><path d="M13.44 1H4.56C2.59 1 1 2.6 1 4.56v5.32c0 1.96 1.6 3.55 3.56 3.55h.82c.32 0 .6.17.77.44l1.26 2.15c.33.65.96.98 1.59.98.63 0 1.26-.33 1.59-.98l1.26-2.15c.16-.27.45-.44.77-.44h.82c1.97 0 3.56-1.59 3.56-3.55V4.56C17 2.59 15.4 1 13.44 1m0 .89c1.47 0 2.67 1.2 2.67 2.67v5.32c0 1.47-1.2 2.66-2.67 2.66h-.82c-.63 0-1.21.34-1.53.88l-1.27 2.15-.02.05c-.16.3-.46.5-.8.5s-.64-.2-.8-.5l-.02-.05-1.27-2.15c-.32-.54-.9-.88-1.53-.88h-.82c-1.47 0-2.67-1.2-2.67-2.66V4.56c0-1.47 1.2-2.67 2.67-2.67h8.88" fill-rule="evenodd"/></svg>