<svg width="20" height="20" viewBox="0 0 20 20" xmlns="http://www.w3.org/2000/svg"><title>messages--small</title><path d="M15 1H5C2.8 1 1 2.8 1 5v5.99c0 2.2 1.8 4 4 4h.93c.35 0 .68.18.86.49l1.42 2.42C8.58 18.63 9.3 19 10 19s1.42-.37 1.79-1.1l1.42-2.42c.18-.3.5-.5.86-.5H15c2.2 0 4-1.79 4-4V5c0-2.2-1.8-4-4-4m0 1c1.65 0 3 1.35 3 3v5.99c0 1.65-1.35 3-3 3h-.93c-.7 0-1.36.37-1.72.98l-1.42 2.42-.04.06c-.17.34-.5.55-.89.55s-.72-.2-.9-.55l-.03-.06-1.42-2.42c-.36-.6-1.02-.98-1.72-.98H5c-1.65 0-3-1.35-3-3V5c0-1.65 1.35-3 3-3h10" fill-rule="evenodd"/></svg>