<svg width="20" height="20" viewBox="0 0 20 20" xmlns="http://www.w3.org/2000/svg"><title>messages--small</title><path d="M15 1H5a4 4 0 0 0-4 4v5.986a4 4 0 0 0 4 4h.928c.354 0 .682.188.862.493l1.421 2.417A1.978 1.978 0 0 0 10 19c.71 0 1.42-.368 1.789-1.104l1.421-2.417c.18-.305.508-.493.862-.493H15a4 4 0 0 0 4-4V5a4 4 0 0 0-4-4m0 1c1.654 0 3 1.346 3 3v5.986c0 1.654-1.346 3-3 3h-.928c-.706 0-1.366.378-1.724.986l-1.421 2.417-.032.059A.982.982 0 0 1 10 18a.982.982 0 0 1-.895-.552l-.032-.059-1.421-2.417a2.008 2.008 0 0 0-1.724-.986H5c-1.654 0-3-1.346-3-3V5c0-1.654 1.346-3 3-3h10" fill="#000" fill-rule="evenodd"/></svg>