<svg width="16" height="16" viewBox="0 0 16 16" xmlns="http://www.w3.org/2000/svg"><title>messages--small</title><path d="M11.89 1H4.1C2.4 1 1 2.4 1 4.11v4.66c0 1.71 1.4 3.1 3.11 3.1h.72c.28 0 .53.15.67.4l1.1 1.87c.3.57.85.86 1.4.86.55 0 1.1-.29 1.4-.86l1.1-1.88c.14-.24.4-.38.67-.38h.72c1.72 0 3.11-1.4 3.11-3.11V4.1C15 2.4 13.6 1 11.89 1m0 .78c1.29 0 2.33 1.04 2.33 2.33v4.66c0 1.28-1.04 2.33-2.33 2.33h-.72c-.55 0-1.07.3-1.34.77l-1.1 1.88-.03.04c-.14.27-.4.43-.7.43-.3 0-.56-.16-.7-.43l-.02-.04-1.1-1.88c-.28-.48-.8-.77-1.35-.77h-.72c-1.29 0-2.33-1.05-2.33-2.33V4.1c0-1.29 1.04-2.33 2.33-2.33h7.78" fill-rule="evenodd"/></svg>