<svg width="24" height="24" viewBox="0 0 24 24" xmlns="http://www.w3.org/2000/svg"><title>messages</title><path d="M18.39 1.72H5.05c-1.84 0-3.33 1.5-3.33 3.33v8.34c0 1.84 1.5 3.33 3.33 3.33H7.1c.28 0 .55.14.7.38l2.5 3.84c.33.52.88.78 1.42.78.54 0 1.09-.26 1.41-.78l2.51-3.84c.15-.24.42-.38.7-.38h2.05c1.84 0 3.33-1.5 3.33-3.33V5.05c0-1.84-1.5-3.33-3.33-3.33m0 1.67c.92 0 1.66.74 1.66 1.66v8.34c0 .92-.74 1.66-1.66 1.66h-2.05c-.85 0-1.63.43-2.1 1.14l-2.54 3.84-2.5-3.84c-.47-.71-1.25-1.14-2.1-1.14H5.05c-.92 0-1.66-.74-1.66-1.66V5.05c0-.92.74-1.66 1.66-1.66H18.4" fill-rule="evenodd"/></svg>