<svg width="20" height="20" viewBox="0 0 20 20" xmlns="http://www.w3.org/2000/svg"><title>microphone--small</title><path d="M7.61 9.48c0 1.23.95 2.23 2.12 2.23 1.16 0 2.11-1 2.11-2.23V5.23c0-1.25-.93-2.23-2.11-2.23-1.19 0-2.12.98-2.12 2.23v4.25zm-1 0V5.23C6.61 3.45 8.01 2 9.73 2c1.71 0 3.11 1.45 3.11 3.23v4.25c0 1.78-1.4 3.23-3.11 3.23C8 12.7 6.6 11.26 6.6 9.48zm8.84-.98v1.03c0 2.89-2.17 5.28-4.97 5.64v2.33c0 .28-.23.5-.5.5-.28 0-.5-.22-.5-.5v-2.29C6.43 15.08 4 12.6 4 9.53V8.5c0-.28.22-.5.5-.5s.5.22.5.5v1.03c0 2.59 2.12 4.7 4.73 4.7 2.6 0 4.72-2.11 4.72-4.7V8.5c0-.28.23-.5.5-.5.28 0 .5.22.5.5z" fill-rule="evenodd"/></svg>