<svg width="16" height="16" viewBox="0 0 16 16" xmlns="http://www.w3.org/2000/svg"><title>microphone--small</title><path d="M6.16 7.54c0 1.08.83 1.95 1.85 1.95s1.85-.87 1.85-1.95V3.83c0-1.1-.81-1.96-1.85-1.96s-1.85.86-1.85 1.96v3.71zm-.87 0V3.83C5.29 2.27 6.5 1 8 1c1.5 0 2.73 1.27 2.73 2.83v3.71c0 1.56-1.23 2.83-2.73 2.83S5.3 9.1 5.3 7.54zm7.73-.85v.9c0 2.52-1.9 4.61-4.35 4.94v2.03c0 .24-.2.44-.44.44s-.44-.2-.44-.44v-2C5.13 12.45 3 10.26 3 7.6v-.9c0-.24.2-.44.44-.44s.44.2.44.44v.9c0 2.26 1.85 4.1 4.13 4.1s4.14-1.84 4.14-4.1v-.9c0-.24.2-.44.43-.44.25 0 .44.2.44.44z" fill-rule="evenodd"/></svg>