<svg width="28" height="28" viewBox="0 0 28 28" xmlns="http://www.w3.org/2000/svg"><title>microphone</title><path d="M12.14 13.37c0 1.28.93 2.28 2.13 2.28 1.2 0 2.14-1 2.14-2.28v-5.1C16.4 7 15.47 6 14.27 6c-1.2 0-2.13 1-2.13 2.28v5.1zm-2 0v-5.1c0-2.35 1.85-4.27 4.13-4.27s4.14 1.92 4.14 4.28v5.1c0 2.35-1.86 4.27-4.14 4.27-2.28 0-4.13-1.92-4.13-4.28zm11.4-1.17v1.23c0 3.55-2.58 6.5-5.97 7.12V23c0 .55-.45 1-1 1s-1-.45-1-1v-2.36C9.9 20.28 7 17.19 7 13.44V12.2c0-.55.45-1 1-1s1 .45 1 1v1.23c0 2.9 2.37 5.24 5.27 5.24 2.91 0 5.28-2.35 5.28-5.24V12.2c0-.55.44-1 1-1 .55 0 1 .45 1 1z" fill-rule="evenodd"/></svg>