<svg width="24" height="24" viewBox="0 0 24 24" xmlns="http://www.w3.org/2000/svg"><title>native-nav-notifications</title><path d="M12.07 18.86c.85 0 1.53.7 1.53 1.57 0 .87-.68 1.57-1.53 1.57-.84 0-1.53-.7-1.53-1.57 0-.86.69-1.57 1.53-1.57zm-6.54-4.38c.6-.06 1.14-.55 1.14-1.18V9c0-2.38 1.54-4.4 3.63-5.03.13-.04.22-.16.22-.29v-.13c0-.85.63-1.54 1.46-1.54h.13c.83 0 1.52.69 1.52 1.54v.13c0 .13.1.25.22.29 2.09.64 3.63 2.65 3.63 5.03v4.31c0 .63.46 1.12 1.07 1.18.84.09 1.45.82 1.45 1.71v.07c0 .92-.78 1.7-1.68 1.7H5.7c-.9 0-1.69-.78-1.69-1.7v-.07c0-.89.68-1.62 1.53-1.7z" fill-rule="nonzero"/></svg>