<svg width="24" height="24" viewBox="0 0 24 24" xmlns="http://www.w3.org/2000/svg"><title>native-nav-notifications</title><path d="M14 22c0 1.1-.9 2-2 2s-2-.9-2-2 .9-2 2-2 2 .9 2 2m6-6H4c-.55 0-1-.45-1-1 0-.56.45-1 1-1 1.65 0 3-1.35 3-3V7c0-2.76 2.24-5 5-5h.15C14.83 2.08 17 4.44 17 7.25V11c0 1.65 1.35 3 3 3 .55 0 1 .44 1 1 0 .55-.45 1-1 1m0-4c-.55 0-1-.45-1-1V7.25C19 3.37 15.96.12 12.21 0H12C8.14 0 5 3.14 5 7v4c0 .55-.45 1-1 1-1.65 0-3 1.34-3 3 0 1.65 1.35 3 3 3h16c1.65 0 3-1.35 3-3 0-1.66-1.35-3-3-3" fill-rule="evenodd"/></svg>