<svg width="24" height="24" viewBox="0 0 24 24" xmlns="http://www.w3.org/2000/svg"><title>native-nav-profile</title><path d="M18.4 16.93c-.28-2.63 3.63-8.29 3.32-10.48-.28-1.98-1.61-2.4-2.77-2.41-1.13-.02-1.42.15-1.8.38-.22.12-.54.38-.98-.04-.29-.28-.48-.47-.79-.72-.15-.12-.4-.28-.82-.34-.42-.06-.96 0-1.3.14-.35.15-.62.41-.9.66-.3.24-1.01 1.05-1.68.75-.29-.13-1.27-.62-1.98-.93-1.37-.59-3.35.37-4.06 1.64-1.06 1.88-3.15 9.28-3.47 10.25-.71 2.2.9 3.98 3.07 3.88.92-.05 1.53-.38 2.11-1.44.34-.6 3.48-8.83 3.72-9.23.17-.28.73-.66 1.21-.41.48.24.58.76.5 1.24-.1.78-2.33 5.8-2.41 6.37-.15.96.31 1.5 1.31 1.55.7.04 1.37-.2 1.92-1.23.3-.57 3.8-7.59 4.11-8.06.34-.5.62-.68.96-.66.27.01.7.08.6.89-.11.79-2.92 5.94-3.22 7.2-.4 1.68.53 3.39 2.05 4.13.97.48 5.22 1.3 4.88-.9-.26-1.69-3.39-.38-3.58-2.23z" fill-rule="nonzero"/></svg>