<svg width="20" height="20" viewBox="0 0 20 20" xmlns="http://www.w3.org/2000/svg"><title>notifications-mute--small</title><path d="M10.086 12.5a.5.5 0 0 0-.5-.5H4c-.551 0-1-.449-1-1 0-.551.449-1 1-1 .974 0 1.785-.701 1.962-1.624L6 7.5a.5.5 0 0 0-1 0V8a1 1 0 0 1-1 1 2 2 0 0 0 0 4h5.586a.5.5 0 0 0 .5-.5zM10 15A2 2 0 1 0 10 19.001 2 2 0 0 0 10 15zm0-13c2.206 0 4 1.794 4 4v2c0 1.103.898 2 2 2 .55 0 1 .449 1 1 0 .551-.45 1-1 1h-2.293L6.295 4.588C6.865 3.083 8.295 2 10 2zm4.707 11H16a2 2 0 0 0 0-4 1 1 0 0 1-1-1V6a5 5 0 0 0-5-5C8.024 1 6.338 2.157 5.529 3.822L2.854 1.146a.5.5 0 0 0-.707.708l15 15a.498.498 0 0 0 .707 0 .502.502 0 0 0 0-.708L14.707 13z" fill="#000" fill-rule="evenodd"/></svg>