<svg width="28" height="28" viewBox="0 0 28 28" xmlns="http://www.w3.org/2000/svg"><title>notifications-mute</title><path d="M13 19c0-.55-.45-1-1-1H5c-.55 0-1-.45-1-1 0-.56.45-1 1-1 1.65 0 3-1.35 3-3v-1c0-.55-.45-1-1-1s-1 .45-1 1v1c0 .56-.46 1-1.02 1-.88-.02-1.77.23-2.28.94C.99 17.37 2.7 20 5 20h7c.55 0 1-.45 1-1zm0 3c-1.1 0-2 .9-2 2s.9 2 2 2 2-.9 2-2-.9-2-2-2zm6.41-4l-11-11c.26-.58.63-1.13 1.1-1.59C10.47 4.5 11.7 4 13 4h.15C15.83 4.08 18 6.44 18 9.25V13c0 1.65 1.35 3 3 3 .55 0 1 .44 1 1 0 .55-.45 1-1 1h-1.59zm6.3 6.3l-4.33-4.34C22.85 19.77 24 18.53 24 17c0-1.66-1.35-3-3-3-.55 0-1-.45-1-1V9.25c0-3.88-3.04-7.13-6.79-7.25-1.9-.05-3.72.65-5.08 1.98-.48.46-.87.98-1.2 1.54L3.72 2.3c-.4-.39-1.03-.39-1.42 0-.39.4-.39 1.03 0 1.42l3.87 3.86.29.29L16.59 18l2 2 5.7 5.7c.2.2.45.3.71.3.26 0 .51-.1.7-.3.4-.38.4-1.02 0-1.4z" fill-rule="evenodd"/></svg>