<svg width="24" height="24" viewBox="0 0 24 24" xmlns="http://www.w3.org/2000/svg"><title>notifications</title><path d="M19.78 14.62c0-.48-.39-.86-.86-.86-1.42 0-2.58-1.16-2.58-2.58V7.96c0-2.42-1.87-4.45-4.17-4.52h-.13c-1.13 0-2.18.43-3 1.21-.84.82-1.3 1.92-1.3 3.09v3.44c0 1.42-1.16 2.58-2.58 2.58-.47 0-.86.38-.86.86s.39.86.86.86h13.76c.47 0 .86-.38.86-.86m1.72 0c0 1.42-1.16 2.58-2.58 2.58H5.16c-1.42 0-2.58-1.16-2.58-2.58 0-1.43 1.16-2.58 2.58-2.58.47 0 .86-.39.86-.86V7.74c0-1.64.65-3.18 1.83-4.32 1.18-1.14 2.73-1.75 4.37-1.7 3.22.1 5.84 2.9 5.84 6.24v3.22c0 .47.39.86.86.86 1.42 0 2.58 1.15 2.58 2.58m-7.74 6.02c0 .95-.77 1.72-1.72 1.72s-1.72-.77-1.72-1.72.77-1.72 1.72-1.72 1.72.77 1.72 1.72" fill-rule="evenodd"/></svg>