<svg width="16" height="16" viewBox="0 0 16 16" xmlns="http://www.w3.org/2000/svg"><title>notifications--small</title><path d="M13.63 8.79c0-.44-.35-.79-.79-.79-.87 0-1.57-.7-1.57-1.58V4.84c0-1.74-1.42-3.15-3.16-3.15-1.74 0-3.15 1.41-3.15 3.15v1.58C4.96 7.3 4.25 8 3.38 8c-.44 0-.8.35-.8.79 0 .43.36.79.8.79h9.46c.44 0 .8-.36.8-.8m.78 0c0 .88-.7 1.59-1.58 1.59H3.38c-.87 0-1.58-.71-1.58-1.58 0-.87.7-1.58 1.58-1.58.43 0 .79-.35.79-.79V4.84C4.17 2.67 5.93.9 8.1.9c2.18 0 3.95 1.77 3.95 3.94v1.58c0 .44.35.8.78.8.88 0 1.58.7 1.58 1.57M9.7 13.52c0 .87-.7 1.58-1.58 1.58-.87 0-1.58-.7-1.58-1.58 0-.87.71-1.58 1.58-1.58.87 0 1.58.71 1.58 1.58" fill-rule="evenodd"/></svg>