<svg width="18" height="18" viewBox="0 0 18 18" xmlns="http://www.w3.org/2000/svg"><title>notifications--small</title><path d="M15.3 9.9c0-.5-.4-.9-.9-.9-1 0-1.8-.8-1.8-1.8V5.4c0-1.99-1.61-3.6-3.6-3.6S5.4 3.41 5.4 5.4v1.8c0 1-.8 1.8-1.8 1.8-.5 0-.9.4-.9.9s.4.9.9.9h10.8c.5 0 .9-.4.9-.9m.9 0c0 1-.8 1.8-1.8 1.8H3.6c-1 0-1.8-.8-1.8-1.8s.8-1.8 1.8-1.8c.5 0 .9-.4.9-.9V5.4C4.5 2.92 6.52.9 9 .9s4.5 2.02 4.5 4.5v1.8c0 .5.4.9.9.9 1 0 1.8.8 1.8 1.8m-5.4 5.4c0 1-.8 1.8-1.8 1.8s-1.8-.8-1.8-1.8.8-1.8 1.8-1.8 1.8.8 1.8 1.8" fill-rule="evenodd"/></svg>