<svg width="28" height="28" viewBox="0 0 28 28" xmlns="http://www.w3.org/2000/svg"><title>notifications</title><path d="M23 17c0-.56-.45-1-1-1-1.65 0-3-1.35-3-3V9.25c0-2.81-2.17-5.17-4.85-5.25H14c-1.31 0-2.54.5-3.48 1.41C9.54 6.36 9 7.64 9 9.01V13c0 1.65-1.35 3-3 3-.55 0-1 .44-1 1 0 .55.45 1 1 1h16c.55 0 1-.45 1-1m2 0c0 1.65-1.35 3-3 3H6c-1.65 0-3-1.35-3-3 0-1.66 1.35-3 3-3 .55 0 1-.45 1-1V9c0-1.91.75-3.7 2.13-5.02C10.49 2.65 12.3 1.95 14.2 2 17.96 2.12 21 5.37 21 9.25V13c0 .55.45 1 1 1 1.65 0 3 1.34 3 3m-9 7c0 1.1-.9 2-2 2s-2-.9-2-2 .9-2 2-2 2 .9 2 2" fill-rule="evenodd"/></svg>