<svg width="20" height="20" viewBox="0 0 20 20" xmlns="http://www.w3.org/2000/svg"><title>notifications-mute--small</title><path d="M10.09 12.5c0-.28-.23-.5-.5-.5H4c-.55 0-1-.45-1-1s.45-1 1-1c.97 0 1.78-.7 1.96-1.62L6 7.5c0-.28-.22-.5-.5-.5s-.5.22-.5.5V8c0 .55-.45 1-1 1-1.1 0-2 .9-2 2s.9 2 2 2h5.59c.27 0 .5-.22.5-.5zM10 15c-1.1 0-2 .9-2 2s.9 2 2 2 2-.9 2-2-.9-2-2-2zm0-13c2.2 0 4 1.8 4 4v2c0 1.1.9 2 2 2 .55 0 1 .45 1 1s-.45 1-1 1h-2.3L6.3 4.59C6.86 3.09 8.3 2 10 2zm4.7 11H16c1.1 0 2-.9 2-2s-.9-2-2-2c-.55 0-1-.45-1-1V6c0-2.76-2.24-5-5-5-1.98 0-3.66 1.16-4.47 2.82L2.85 1.15c-.2-.2-.5-.2-.7 0-.2.2-.2.5 0 .7l15 15c.1.1.22.15.35.15.13 0 .26-.05.35-.15.2-.2.2-.5 0-.7L14.71 13z" fill-rule="evenodd"/></svg>