<svg width="24" height="24" viewBox="0 0 24 24" xmlns="http://www.w3.org/2000/svg"><title>notifications-mute</title><path d="M11.17 16.17c0-.46-.38-.84-.84-.84H4.5c-.46 0-.83-.37-.83-.83 0-.46.37-.84.83-.84 1.38 0 2.5-1.12 2.5-2.5v-.83c0-.46-.37-.83-.83-.83-.46 0-.84.37-.84.83v.83c0 .47-.38.85-.85.84-.73-.02-1.47.2-1.9.79C1.16 14.8 2.59 17 4.5 17h5.83c.46 0 .84-.37.84-.83zm0 2.5c-.92 0-1.67.74-1.67 1.66 0 .92.75 1.67 1.67 1.67.92 0 1.66-.75 1.66-1.67 0-.92-.74-1.66-1.66-1.66zm5.34-3.34L7.35 6.17c.21-.49.52-.94.92-1.33.78-.76 1.8-1.17 2.9-1.17h.12c2.23.07 4.04 2.03 4.04 4.37v3.12c0 1.38 1.12 2.5 2.5 2.5.46 0 .84.38.84.84 0 .46-.38.83-.84.83h-1.32zm5.25 5.25l-3.61-3.61c1.23-.16 2.18-1.2 2.18-2.47 0-1.38-1.12-2.5-2.5-2.5-.46 0-.83-.38-.83-.84V8.04C17 4.81 14.46 2.1 11.35 2c-1.6-.05-3.1.54-4.25 1.65-.4.38-.72.82-.99 1.29l-2.69-2.7c-.32-.32-.85-.32-1.18 0-.32.33-.32.86 0 1.18l3.23 3.22.23.24 8.45 8.45L15.82 17l4.76 4.76c.16.16.37.24.59.24.21 0 .42-.08.59-.24.32-.33.32-.86 0-1.18z" fill-rule="evenodd"/></svg>