<svg width="16" height="16" viewBox="0 0 16 16" xmlns="http://www.w3.org/2000/svg"><title>notifications-mute--small</title><path d="M8.29 9.94c0-.21-.18-.38-.39-.38H3.56c-.43 0-.78-.35-.78-.78 0-.43.35-.78.78-.78.75 0 1.38-.55 1.52-1.26l.03-.68c0-.22-.17-.4-.39-.4-.21 0-.39.18-.39.4v.38c0 .43-.35.78-.77.78-.86 0-1.56.7-1.56 1.56 0 .86.7 1.55 1.56 1.55H7.9c.21 0 .39-.17.39-.39zm-.07 1.95c-.86 0-1.55.7-1.55 1.55 0 .86.7 1.56 1.55 1.56.86 0 1.56-.7 1.56-1.56 0-.85-.7-1.55-1.56-1.55zm0-10.11c1.72 0 3.11 1.4 3.11 3.1v1.56c0 .86.7 1.56 1.56 1.56.43 0 .78.35.78.78 0 .43-.35.78-.78.78H11.1L5.34 3.79c.44-1.17 1.56-2.01 2.88-2.01zm3.66 8.55h1c.87 0 1.56-.7 1.56-1.55 0-.86-.7-1.56-1.55-1.56-.43 0-.78-.35-.78-.78V4.9C12.11 2.74 10.37 1 8.22 1c-1.53 0-2.85.9-3.48 2.2L2.66 1.1c-.15-.15-.4-.15-.55 0-.15.16-.15.4 0 .55l11.67 11.67c.08.08.18.11.28.11.1 0 .2-.03.27-.1.15-.16.15-.4 0-.56l-2.45-2.45z" fill-rule="evenodd"/></svg>