<svg width="24" height="24" viewBox="0 0 24 24" xmlns="http://www.w3.org/2000/svg"><title>photo-album</title><path d="M18.42 12.24c.33.33.33.86 0 1.18l-5 5c-.16.16-.37.25-.59.25-.18 0-.36-.06-.52-.19l-3.58-2.86-1.97 1.97c-.33.32-.86.32-1.18 0-.33-.33-.33-.85 0-1.18l2.5-2.5c.3-.3.78-.33 1.1-.06l3.6 2.87 4.46-4.48c.33-.32.86-.32 1.18 0zm1.91 6.43c0 .92-.74 1.66-1.66 1.66H5.33c-.92 0-1.66-.74-1.66-1.66V5.33c0-.92.74-1.66 1.66-1.66h13.34c.92 0 1.66.74 1.66 1.66v13.34zM18.67 2H5.33C3.5 2 2 3.5 2 5.33v13.34C2 20.5 3.5 22 5.33 22h13.34C20.5 22 22 20.5 22 18.67V5.33C22 3.5 20.5 2 18.67 2zm-10 5c.92 0 1.66.75 1.66 1.67 0 .92-.74 1.66-1.66 1.66C7.75 10.33 7 9.6 7 8.67 7 7.75 7.75 7 8.67 7zm0 5C10.5 12 12 10.5 12 8.67c0-1.84-1.5-3.34-3.33-3.34-1.84 0-3.34 1.5-3.34 3.34 0 1.84 1.5 3.33 3.34 3.33z" fill-rule="evenodd"/></svg>