<svg width="28" height="28" viewBox="0 0 28 28" xmlns="http://www.w3.org/2000/svg"><title>photo-album</title><path d="M21.7 14.3c.4.38.4 1.02 0 1.4l-6 6c-.19.2-.44.3-.7.3-.22 0-.44-.07-.63-.22l-4.3-3.44-2.36 2.37c-.4.39-1.03.39-1.42 0-.39-.4-.39-1.03 0-1.42l3-3c.36-.36.94-.39 1.33-.07l4.3 3.44 5.37-5.37c.4-.39 1.03-.39 1.42 0zM24 22c0 1.1-.9 2-2 2H6c-1.1 0-2-.9-2-2V6c0-1.1.9-2 2-2h16c1.1 0 2 .9 2 2v16zM22 2H6C3.8 2 2 3.8 2 6v16c0 2.2 1.8 4 4 4h16c2.2 0 4-1.8 4-4V6c0-2.2-1.8-4-4-4zM10 8c1.1 0 2 .9 2 2s-.9 2-2 2-2-.9-2-2 .9-2 2-2zm0 6c2.2 0 4-1.8 4-4s-1.8-4-4-4-4 1.8-4 4 1.8 4 4 4z" fill-rule="evenodd"/></svg>