<svg width="16" height="16" viewBox="0 0 16 16" xmlns="http://www.w3.org/2000/svg"><title>photo-album-add--small</title><path d="M3.37 4.55c0-.65.53-1.18 1.18-1.18.66 0 1.19.53 1.19 1.18 0 .66-.53 1.19-1.19 1.19-.65 0-1.18-.53-1.18-1.19m7.79 1.85l-3.3 3.95c-.08.08-.18.12-.29.12-.09 0-.18-.03-.25-.09L5.26 8.25l-1.2 1.31c-.16.16-.4.17-.57.02-.16-.15-.16-.4-.02-.56l1.48-1.58c.14-.15.38-.17.54-.03l2.05 2.13 3.04-3.68c.15-.16.4-.17.56-.02.16.15.16.4.02.56m1.68 8.81c-1.3 0-2.37-1.06-2.37-2.37 0-1.3 1.07-2.37 2.37-2.37s2.37 1.07 2.37 2.37-1.06 2.37-2.37 2.37m-3.16-2.37H3.76c-1.09 0-1.97-.88-1.97-1.97v-7.1c0-1.1.88-1.98 1.97-1.98h7.1c1.1 0 1.98.88 1.98 1.97v5.92c-1.74 0-3.16 1.42-3.16 3.16 0 0 0 .17 0 0m3.95-3.04V3.76C13.63 2.24 12.4 1 10.87 1h-7.1C2.23 1 1 2.24 1 3.76v7.1c0 1.53 1.24 2.77 2.76 2.77H9.8C10.15 15 11.38 16 12.84 16c1.74 0 3.16-1.42 3.16-3.16 0-1.46-1.01-2.7-2.37-3.04m.4 2.65h-.8v-.8c0-.2-.17-.39-.39-.39s-.4.18-.4.4v.79h-.78c-.22 0-.4.18-.4.4 0 .2.18.39.4.39h.79v.79c0 .21.17.4.4.4.21 0 .39-.19.39-.4v-.8h.79c.21 0 .4-.17.4-.39 0-.21-.19-.4-.4-.4" fill-rule="evenodd"/></svg>