<svg width="24" height="24" viewBox="0 0 24 24" xmlns="http://www.w3.org/2000/svg"><title>photo-album-add</title><path d="M15.34 9.38L11.24 14l-2.5-2.9c-.18-.2-.43-.3-.7-.3-.25.02-.5.14-.66.34l-2.51 2.52c-.3.38-.24.93.14 1.23.39.3.94.23 1.25-.15L8.12 13l2.51 2.86c.17.19.41.21.66.21h.03c.27 0 .51-.05.67-.26l4.75-5.36c.3-.38.23-.94-.16-1.24-.38-.3-.94-.22-1.24.16m6.9 9.34c0-1.94-1.6-3.52-3.55-3.52-1.95 0-3.54 1.58-3.54 3.52s1.59 3.52 3.54 3.52 3.54-1.58 3.54-3.52m-3.54-5.28V5.52c0-.97-.8-1.76-1.77-1.76H4.54c-.98 0-1.77.79-1.77 1.76v12.32c0 .97.8 1.76 1.77 1.76h8.92c-.04-.29-.08-.58-.08-.88 0-2.91 2.39-5.28 5.31-5.28M24 18.57c0 2.9-2.38 5.43-5.3 5.43-1.97 0-3.68-1.06-4.6-2.64H4.54C2.59 21.36 1 19.78 1 17.84V5.52C1 3.58 2.6 2 4.54 2h12.38c1.95 0 3.54 1.58 3.54 3.52v7.92c2.06.88 3.54 2.83 3.54 5.13M6.3 9.04c.98 0 1.78-.79 1.78-1.76s-.8-1.76-1.77-1.76c-.98 0-1.77.79-1.77 1.76s.79 1.76 1.77 1.76m15.04 9.68c0 .49-.4.88-.89.88h-.88v.88c0 .49-.4.88-.89.88s-.88-.4-.88-.88v-.88h-.89c-.49 0-.88-.4-.88-.88s.4-.88.88-.88h.89v-.88c0-.48.4-.88.88-.88.49 0 .89.4.89.88v.88h.88c.49 0 .89.4.89.88" fill-rule="evenodd"/></svg>