<svg width="20" height="20" viewBox="0 0 20 20" xmlns="http://www.w3.org/2000/svg"><title>photo-album--small</title><path d="M11.15 14.84l4.71-5c.2-.2.18-.51-.02-.7-.2-.2-.51-.18-.7.02l-4.4 4.65-3.56-3.03c-.2-.17-.5-.15-.69.04l-2.35 2.5c-.2.2-.18.52.02.71.2.19.51.18.7-.02l2.04-2.16 3.56 3.03c.1.08.21.12.33.12.13 0 .26-.05.36-.16zM5 6.91c0 1.1.9 2 2 2s2-.9 2-2-.9-2-2-2-2 .9-2 2zM4.5 2C3.12 2 2 3.12 2 4.5v11C2 16.88 3.12 18 4.5 18h11c1.38 0 2.5-1.12 2.5-2.5v-11C18 3.12 16.88 2 15.5 2h-11zm11 17h-11C2.57 19 1 17.43 1 15.5v-11C1 2.57 2.57 1 4.5 1h11C17.43 1 19 2.57 19 4.5v11c0 1.93-1.57 3.5-3.5 3.5z" fill-rule="evenodd"/></svg>