<svg width="20" height="20" viewBox="0 0 20 20" xmlns="http://www.w3.org/2000/svg"><title>photo-album--small</title><path d="M11.15 14.843l4.714-5a.5.5 0 1 0-.729-.686l-4.387 4.655-3.568-3.027a.501.501 0 0 0-.687.038l-2.358 2.5a.5.5 0 1 0 .729.687l2.031-2.155 3.568 3.027a.497.497 0 0 0 .687-.04zM5 6.909a2 2 0 1 0 4 0 2 2 0 0 0-4 0zm-.5-4.91A2.502 2.502 0 0 0 2 4.5v11C2 16.88 3.121 18 4.5 18h11c1.38 0 2.5-1.12 2.5-2.5v-11C18 3.122 16.88 2 15.5 2h-11zm11 17h-11C2.57 19 1 17.43 1 15.5v-11C1 2.572 2.57 1 4.5 1h11C17.43 1 19 2.572 19 4.5v11c0 1.93-1.57 3.5-3.5 3.5z" fill="#000" fill-rule="evenodd"/></svg>