<svg width="18" height="18" viewBox="0 0 18 18" xmlns="http://www.w3.org/2000/svg"><title>photo-album--small</title><path d="M10.02 13.3l4.2-4.44c.16-.18.15-.46-.03-.63-.18-.17-.46-.16-.63.02l-3.9 4.14-3.17-2.7c-.18-.14-.44-.13-.6.04l-2.1 2.22c-.17.18-.16.46.02.63.17.17.46.16.62-.02l1.81-1.91 3.17 2.69c.08.07.19.1.29.1.12 0 .23-.04.32-.14zM4.56 6.25c0 .98.8 1.78 1.77 1.78.98 0 1.78-.8 1.78-1.78s-.8-1.78-1.78-1.78-1.77.8-1.77 1.78zM4.1 1.9c-1.22 0-2.22 1-2.22 2.22v9.78c0 1.22 1 2.22 2.22 2.22h9.78c1.22 0 2.22-1 2.22-2.22V4.1c0-1.22-1-2.22-2.22-2.22H4.1zM13.9 17H4.1C2.4 17 1 15.6 1 13.89V4.1C1 2.4 2.4 1 4.11 1h9.78C15.6 1 17 2.4 17 4.11v9.78C17 15.6 15.6 17 13.89 17z" fill-rule="evenodd"/></svg>