<svg width="18" height="18" viewBox="0 0 18 18" xmlns="http://www.w3.org/2000/svg"><title>photo-album-add--small</title><path d="M3.68 5.03c0-.74.6-1.35 1.35-1.35.74 0 1.34.6 1.34 1.35 0 .74-.6 1.34-1.34 1.34-.75 0-1.35-.6-1.35-1.34m8.83 2.1L8.77 11.6c-.09.09-.2.14-.32.14-.1 0-.2-.04-.3-.1L5.84 9.21 4.46 10.7c-.17.18-.46.19-.64.02s-.18-.45-.01-.63l1.66-1.8c.17-.16.44-.18.62-.03l2.32 2.41 3.45-4.16c.17-.18.45-.19.63-.02s.19.45.02.63m1.91 9.99c-1.48 0-2.68-1.2-2.68-2.69 0-1.48 1.2-2.68 2.68-2.68 1.48 0 2.69 1.2 2.69 2.68 0 1.48-1.2 2.69-2.69 2.69m-3.58-2.69h-6.7c-1.24 0-2.25-1-2.25-2.24V4.13c0-1.23 1-2.24 2.24-2.24h8.05c1.24 0 2.24 1 2.24 2.24v6.71c-1.97 0-3.58 1.6-3.58 3.58 0 0 0 .2 0 0m4.48-3.45V4.13C15.32 2.4 13.9 1 12.18 1H4.13C2.4 1 1 2.4 1 4.13v8.05c0 1.73 1.4 3.14 3.13 3.14h6.84c.4 1.54 1.79 2.68 3.45 2.68C16.4 18 18 16.4 18 14.42c0-1.66-1.15-3.05-2.68-3.45m.44 3h-.9v-.9c0-.24-.2-.44-.44-.44-.25 0-.45.2-.45.45v.9h-.9c-.24 0-.44.2-.44.44 0 .25.2.45.45.45h.9v.9c0 .24.2.44.44.44.25 0 .45-.2.45-.45v-.9h.9c.24 0 .44-.2.44-.44s-.2-.45-.45-.45" fill-rule="evenodd"/></svg>