<svg width="16" height="16" viewBox="0 0 16 16" xmlns="http://www.w3.org/2000/svg"><title>photo-album--small</title><path d="M8.9 11.77l3.66-3.9c.15-.15.14-.4-.02-.54-.15-.15-.4-.14-.55.01l-3.4 3.62L5.8 8.61c-.16-.13-.4-.12-.54.03l-1.83 1.94c-.15.16-.14.4.02.56.15.14.4.14.55-.02l1.58-1.68 2.77 2.36c.07.06.16.09.25.09.1 0 .2-.04.28-.12zM4.1 5.6c0 .86.7 1.55 1.56 1.55.86 0 1.55-.7 1.55-1.55 0-.86-.7-1.56-1.55-1.56-.86 0-1.56.7-1.56 1.56zm-.39-3.82c-1.07 0-1.94.87-1.94 1.94v8.56c0 1.07.87 1.94 1.94 1.94h8.56c1.07 0 1.94-.87 1.94-1.94V3.72c0-1.07-.87-1.94-1.94-1.94H3.72zM12.28 15H3.72C2.22 15 1 13.78 1 12.28V3.72C1 2.22 2.22 1 3.72 1h8.56C13.78 1 15 2.22 15 3.72v8.56c0 1.5-1.22 2.72-2.72 2.72z" fill-rule="evenodd"/></svg>