<svg width="24" height="24" viewBox="0 0 24 24" xmlns="http://www.w3.org/2000/svg"><title>plus-circle</title><path d="M16.17 11.17h-3.34V7.83c0-.46-.37-.83-.83-.83-.46 0-.83.37-.83.83v3.34H7.83c-.46 0-.83.37-.83.83 0 .46.37.83.83.83h3.34v3.34c0 .46.37.83.83.83.46 0 .83-.37.83-.83v-3.34h3.34c.46 0 .83-.37.83-.83 0-.46-.37-.83-.83-.83M12 2C6.48 2 2 6.48 2 12s4.48 10 10 10 10-4.48 10-10S17.52 2 12 2m0 18.33c-4.6 0-8.33-3.73-8.33-8.33S7.4 3.67 12 3.67c4.6 0 8.33 3.74 8.33 8.33 0 4.6-3.73 8.33-8.33 8.33" fill-rule="evenodd"/></svg>