<svg width="24" height="24" viewBox="0 0 24 24" xmlns="http://www.w3.org/2000/svg"><title>profile</title><path d="M12 1.71c1.88 0 3.4 1.54 3.4 3.43 0 1.9-1.52 3.43-3.4 3.43S8.6 7.03 8.6 5.14c0-1.89 1.52-3.43 3.4-3.43zm0 8.58c2.82 0 5.1-2.3 5.1-5.15C17.1 2.3 14.82 0 12 0S6.9 2.3 6.9 5.14 9.18 10.3 12 10.3zm6.8 10.28c0 .95-.76 1.72-1.7 1.72H6.9c-.94 0-1.7-.77-1.7-1.72v-1.71c0-2.84 2.29-5.15 5.1-5.15h3.4c2.81 0 5.1 2.31 5.1 5.15v1.71zM13.7 12h-3.4c-3.76 0-6.8 3.07-6.8 6.86v1.71c0 1.9 1.52 3.43 3.4 3.43h10.2c1.88 0 3.4-1.54 3.4-3.43v-1.71c0-3.79-3.04-6.86-6.8-6.86z" fill-rule="evenodd"/></svg>