<svg width="16" height="16" viewBox="0 0 16 16" xmlns="http://www.w3.org/2000/svg"><title>profiles--small</title><path d="M11.82 9.09c.2.26.37.54.51.85 1.2.27 2.1 1.37 2.1 2.7 0 .86-.69 1.57-1.52 1.57h-.7c-.2.3-.45.56-.74.79h1.44c1.27 0 2.3-1.06 2.3-2.37 0-1.94-1.52-3.51-3.4-3.54m-3.9-1.2H5.14C2.86 7.9 1 9.8 1 12.16 1 13.73 2.24 15 3.76 15H9.3c1.53 0 2.76-1.27 2.76-2.84 0-2.36-1.85-4.27-4.14-4.27m2.56-4.73c-.17 0-.35.02-.51.06.01.14.04.27.04.41 0 .14-.03.27-.04.41.16-.06.33-.1.51-.1.87 0 1.58.72 1.58 1.59 0 .87-.7 1.58-1.58 1.58-.66 0-1.23-.42-1.46-1-.19.2-.39.38-.61.53.4.74 1.17 1.25 2.07 1.25 1.31 0 2.37-1.06 2.37-2.36 0-1.31-1.06-2.37-2.37-2.37M6.37.79C4.8.79 3.53 2.06 3.53 3.63c0 1.57 1.27 2.84 2.84 2.84 1.57 0 2.84-1.27 2.84-2.84C9.21 2.06 7.94.8 6.37.8m1.54 7.9c1.85 0 3.35 1.55 3.35 3.47 0 1.13-.88 2.05-1.97 2.05H3.76c-1.08 0-1.97-.92-1.97-2.05 0-1.92 1.5-3.48 3.35-3.48h2.77m-1.54-7.1c1.13 0 2.05.92 2.05 2.05S7.5 5.68 6.37 5.68s-2.05-.92-2.05-2.05.92-2.05 2.05-2.05" fill-rule="evenodd"/></svg>