<svg width="20" height="20" viewBox="0 0 20 20" xmlns="http://www.w3.org/2000/svg"><title>profiles--small</title><path d="M14.7 11.5c.25.34.47.7.66 1.09 1.5.35 2.64 1.74 2.64 3.41 0 1.1-.86 2-1.92 2h-.87c-.26.38-.59.71-.94 1h1.81C17.7 19 19 17.66 19 16c0-2.46-1.92-4.45-4.3-4.5M9.75 10h-3.5C3.35 10 1 12.42 1 15.4 1 17.4 2.57 19 4.5 19h7c1.93 0 3.5-1.61 3.5-3.6 0-2.98-2.35-5.4-5.25-5.4M13 4c-.22 0-.44.03-.65.08.02.17.05.34.05.52s-.03.35-.05.52c.2-.07.42-.12.65-.12 1.1 0 2 .9 2 2s-.9 2-2 2c-.84 0-1.56-.52-1.86-1.26-.23.25-.48.48-.77.67.5.94 1.49 1.59 2.63 1.59 1.66 0 3-1.34 3-3s-1.34-3-3-3M7.8 1C5.81 1 4.2 2.61 4.2 4.6s1.61 3.6 3.6 3.6 3.6-1.61 3.6-3.6S9.79 1 7.8 1m1.95 10c2.34 0 4.25 1.97 4.25 4.4 0 1.43-1.12 2.6-2.5 2.6h-7C3.12 18 2 16.83 2 15.4 2 12.97 3.9 11 6.25 11h3.5M7.8 2c1.43 0 2.6 1.17 2.6 2.6 0 1.43-1.17 2.6-2.6 2.6-1.43 0-2.6-1.17-2.6-2.6C5.2 3.17 6.37 2 7.8 2" fill-rule="evenodd"/></svg>