<svg width="24" height="24" viewBox="0 0 24 24" xmlns="http://www.w3.org/2000/svg"><title>profiles</title><path d="M22 18.43v1.19c0 1.31-1.06 2.38-2.36 2.38h-3.38c.4-.41.7-.9.9-1.46h2.48c.5 0 .9-.41.9-.92v-1.2c0-.98-1.07-3.3-3.26-3.3h-.37c-.2-.52-.47-1-.8-1.45h1.17c2.6 0 4.72 2.13 4.72 4.76zm-7.3.71c0 .77-.6 1.4-1.37 1.4h-8.5c-.75 0-1.37-.63-1.37-1.4v-1.43c0-2.34 1.89-4.25 4.2-4.25h2.84c2.32 0 4.2 1.9 4.2 4.25v1.43zM10.5 12H7.67C4.54 12 2 14.56 2 17.71v1.43C2 20.72 3.27 22 4.83 22h8.5c1.57 0 2.84-1.28 2.84-2.86v-1.43c0-3.15-2.54-5.71-5.67-5.71zm2.95-2.37c.3.8 1.06 1.39 1.95 1.39 1.15 0 2.09-.95 2.09-2.12 0-1.16-.94-2.1-2.09-2.1-.3 0-.6.07-.87.19.03-.23.05-.46.05-.7 0-.29-.02-.56-.06-.83.28-.07.57-.13.88-.13 1.96 0 3.54 1.6 3.54 3.57 0 1.98-1.58 3.58-3.54 3.58-1.3 0-2.42-.71-3.03-1.76.4-.31.77-.68 1.08-1.09zM9.08 3.46c1.54 0 2.8 1.27 2.8 2.83 0 1.55-1.26 2.82-2.8 2.82-1.54 0-2.79-1.26-2.79-2.82 0-1.56 1.25-2.83 2.8-2.83zm0 7.11c2.35 0 4.25-1.92 4.25-4.28 0-2.37-1.9-4.29-4.25-4.29-2.34 0-4.25 1.92-4.25 4.29 0 2.36 1.9 4.28 4.25 4.28z" fill-rule="evenodd"/></svg>