<svg width="28" height="28" viewBox="0 0 28 28" xmlns="http://www.w3.org/2000/svg"><title>profiles</title><path d="M26 21.71v1.43c0 1.58-1.27 2.86-2.83 2.86H19.1c.48-.5.84-1.1 1.08-1.75h2.98c.6 0 1.08-.5 1.08-1.1V21.7c0-1.19-1.28-3.96-3.92-3.96h-.43c-.25-.63-.57-1.21-.96-1.75h1.4c3.12 0 5.66 2.56 5.66 5.71zm-8.75.86c0 .93-.74 1.68-1.65 1.68H5.4c-.91 0-1.65-.75-1.65-1.68v-1.71c0-2.82 2.27-5.11 5.05-5.11h3.4c2.78 0 5.05 2.3 5.05 5.1v1.72zM12.2 14H8.8C5.04 14 2 17.07 2 20.86v1.71C2 24.47 3.52 26 5.4 26h10.2c1.88 0 3.4-1.54 3.4-3.43v-1.71c0-3.79-3.04-6.86-6.8-6.86zm3.54-2.84c.36.97 1.27 1.66 2.34 1.66 1.38 0 2.5-1.14 2.5-2.53 0-1.4-1.12-2.54-2.5-2.54-.37 0-.72.09-1.04.24.04-.28.06-.56.06-.85 0-.33-.03-.66-.08-.99.34-.09.7-.15 1.06-.15 2.35 0 4.25 1.92 4.25 4.29 0 2.36-1.9 4.28-4.25 4.28-1.55 0-2.9-.85-3.64-2.11.5-.37.93-.8 1.3-1.3zM10.5 3.75c1.85 0 3.35 1.52 3.35 3.4 0 1.86-1.5 3.39-3.35 3.39S7.15 9 7.15 7.14c0-1.87 1.5-3.39 3.35-3.39zm0 8.54c2.82 0 5.1-2.3 5.1-5.15C15.6 4.3 13.32 2 10.5 2S5.4 4.3 5.4 7.14s2.28 5.15 5.1 5.15z" fill-rule="evenodd"/></svg>