<svg width="24" height="24" viewBox="0 0 24 24" xmlns="http://www.w3.org/2000/svg"><title>projector</title><path d="M13.96 18.28L12 15l-1.96 3.27h3.92zm2.62.48c.19.31.2.7.01 1-.17.32-.5.52-.87.52H8.28c-.36 0-.7-.2-.87-.51-.18-.32-.18-.7 0-1.01l3.73-6.2c.36-.6 1.36-.6 1.72 0l3.72 6.2zM22 5v8.44c0 1.72-1.5 3.11-3.35 3.11H17c-.55 0-1-.45-1-1s.45-1 1-1h1.65c.73 0 1.35-.5 1.35-1.1V6H4v7.44c0 .6.62 1.11 1.35 1.11H7c.55 0 1 .45 1 1s-.45 1-1 1H5.35c-1.85 0-3.35-1.4-3.35-3.1V5c0-.55.45-1 1-1h18c.55 0 1 .45 1 1z" fill-rule="evenodd"/></svg>