<svg width="20" height="20" viewBox="0 0 20 20" xmlns="http://www.w3.org/2000/svg"><title>projector--small</title><path d="M10 11.83l2.22 3.7H7.78l2.22-3.7zm3.54 4.44c.09-.15.09-.35 0-.5l-3.11-5.17c-.18-.3-.68-.3-.86 0l-3.1 5.17c-.1.15-.1.35 0 .5.08.16.25.26.43.26h6.2c.18 0 .35-.1.44-.26zm2-3.48H13.5c-.28 0-.5-.22-.5-.5 0-.27.22-.5.5-.5h2.04c.8 0 1.46-.56 1.46-1.26V4H3v6.53c0 .7.65 1.26 1.46 1.26H6.5c.28 0 .5.23.5.5 0 .28-.22.5-.5.5H4.46C3.1 12.8 2 11.78 2 10.53V3.5c0-.28.22-.5.5-.5h15c.28 0 .5.22.5.5v7.03c0 1.25-1.1 2.26-2.46 2.26z" fill-rule="evenodd"/></svg>