<svg width="16" height="16" viewBox="0 0 16 16" xmlns="http://www.w3.org/2000/svg"><title>projector--small</title><path d="M8 9.72l1.94 3.24H6.06L8 9.72zm3.1 3.9c.07-.14.07-.31 0-.45L8.37 8.65c-.16-.27-.6-.27-.76 0l-2.71 4.52c-.08.14-.08.3 0 .44.07.14.22.23.37.23h5.44c.15 0 .3-.09.38-.23zm1.75-3.05h-1.79c-.24 0-.44-.2-.44-.44s.2-.44.44-.44h1.79c.7 0 1.28-.49 1.28-1.1V2.88H1.87v5.71c0 .61.58 1.1 1.28 1.1h1.79c.24 0 .43.2.43.44s-.2.44-.43.44H3.15C1.96 10.57 1 9.68 1 8.59V2.44c0-.24.2-.44.44-.44h13.12c.24 0 .44.2.44.44v6.15c0 1.1-.96 1.98-2.15 1.98z" fill-rule="evenodd"/></svg>