<svg width="20" height="20" viewBox="0 0 20 20" xmlns="http://www.w3.org/2000/svg"><title>pulse--small</title><path d="M18.58 11.53c-.02.15-.14.27-.29.28l-2 .2c-.21.01-.4-.13-.46-.32l-.02-.05-2.47-8.25-3.56 14.23c-.07.27-.34.43-.6.37-.2-.05-.34-.21-.38-.4L7.11 8.3l-1.35 3.39-.01.02c-.08.2-.27.3-.46.3l-3-.2c-.17 0-.3-.16-.29-.33.01-.16.14-.28.3-.3l2.65-.16 1.88-4.7c.1-.26.4-.39.65-.28.16.06.27.2.3.37l1.6 8.72L12.8 1.38c.07-.27.34-.43.6-.37.18.05.31.18.36.35l2.9 9.68 1.62.15c.18.01.3.17.29.34" fill-rule="evenodd"/></svg>