<svg width="28" height="28" viewBox="0 0 28 28" xmlns="http://www.w3.org/2000/svg"><title>pulse</title><path d="M25.12 16.745a.631.631 0 0 1-.547.547l-3 .375a.856.856 0 0 1-.928-.609l-.032-.11L17.664 6.87l-4.453 18.366a1 1 0 0 1-1.956-.06L9.202 13.622l-1.367 3.416-.03.075a.887.887 0 0 1-.898.554l-4.334-.375a.628.628 0 0 1 0-1.25l3.632-.315 2.44-6.098a1.001 1.001 0 0 1 1.3-.558c.332.133.553.426.612.754l1.834 10.31 4.21-17.37a1 1 0 0 1 1.932-.046l3.817 13.045 2.223.278a.63.63 0 0 1 .547.703" fill="#000" fill-rule="evenodd"/></svg>