<svg width="24" height="24" viewBox="0 0 24 24" xmlns="http://www.w3.org/2000/svg"><title>pulse</title><path d="M21.72 14c-.04.25-.24.43-.48.46l-2.6.32c-.36.04-.7-.18-.8-.51l-.02-.1-2.55-8.4-3.85 15.31c-.12.45-.58.72-1.05.62-.34-.08-.59-.35-.65-.67l-1.77-9.62-1.18 2.84-.03.06c-.13.31-.45.5-.78.47l-3.74-.32c-.3-.02-.52-.27-.5-.56.03-.26.24-.46.5-.48l3.14-.26 2.1-5.08c.18-.43.69-.64 1.13-.47.29.11.48.36.53.63l1.59 8.6 3.64-14.48c.11-.45.58-.72 1.04-.62.31.08.54.3.63.58l3.3 10.87 1.92.23c.3.04.51.3.48.59" fill-rule="evenodd"/></svg>