<svg width="16" height="16" viewBox="0 0 16 16" xmlns="http://www.w3.org/2000/svg"><title>pulse--small</title><path d="M15 9.67c-.01.13-.12.22-.24.23l-1.69.16c-.18.02-.34-.1-.4-.26v-.03l-2.1-6.8-3 11.72c-.06.22-.29.35-.51.3-.17-.04-.29-.17-.32-.33L5.32 7.01 4.17 9.8v.02c-.07.16-.23.25-.39.24L1.25 9.9c-.15 0-.26-.13-.25-.27 0-.13.12-.23.25-.24l2.24-.14 1.59-3.87c.08-.21.33-.32.55-.23.14.05.23.17.26.3l1.33 7.19 2.9-11.33c.06-.22.3-.35.52-.3.15.04.26.15.3.28l2.45 7.98 1.37.12c.15.01.25.14.24.28" fill-rule="evenodd"/></svg>