<svg width="18" height="18" viewBox="0 0 18 18" xmlns="http://www.w3.org/2000/svg"><title>pulse--small</title><path d="M17 10.91c-.01.14-.13.25-.27.27l-1.93.17c-.21.02-.4-.1-.46-.3v-.03l-2.4-7.77-3.43 13.4c-.07.24-.33.4-.59.34-.19-.05-.32-.2-.36-.38L5.93 7.87l-1.3 3.19-.01.02c-.08.18-.26.28-.44.27l-2.9-.17c-.16-.01-.29-.15-.28-.32.01-.15.13-.26.28-.27l2.56-.16L5.66 6c.1-.24.38-.36.63-.26.16.06.26.2.3.35l1.52 8.2 3.32-12.93c.07-.25.33-.4.59-.35.17.05.3.17.34.33l2.8 9.1 1.57.15c.16.01.28.16.27.32" fill-rule="evenodd"/></svg>