<svg width="28" height="28" viewBox="0 0 28 28" xmlns="http://www.w3.org/2000/svg"><title>pulse</title><path d="M25.12 16.75c-.04.29-.27.5-.55.54l-3 .38c-.42.05-.8-.21-.92-.61l-.04-.11-2.95-10.08-4.45 18.37c-.13.53-.67.86-1.2.73-.4-.1-.69-.42-.75-.8L9.2 13.63l-1.36 3.42-.03.07c-.15.37-.52.59-.9.56l-4.34-.38c-.34-.03-.6-.33-.57-.68.03-.3.28-.54.57-.57l3.64-.31 2.43-6.1c.2-.51.8-.76 1.3-.56.34.13.56.43.62.76l1.83 10.3L16.6 2.78c.13-.54.67-.87 1.2-.74.37.09.64.36.73.69l3.82 13.04 2.22.28c.35.05.6.36.55.7" fill-rule="evenodd"/></svg>