<svg width="18" height="18" viewBox="0 0 18 18" xmlns="http://www.w3.org/2000/svg"><title>refresh--small</title><path d="M15.84 1.63c-.1-.1-.23-.16-.38-.16-.28 0-.53.25-.53.53v1.64l-.26-.29-.01-.01C11.54.22 6.46.22 3.34 3.34c-3.12 3.12-3.12 8.2 0 11.32 3.12 3.12 8.2 3.12 11.32 0 1.47-1.47 2.3-3.43 2.34-5.5 0-.15-.05-.28-.15-.38-.1-.1-.23-.16-.37-.17-.15 0-.29.06-.39.16-.1.1-.15.23-.16.37-.03 1.8-.75 3.5-2.03 4.76-2.7 2.7-7.1 2.71-9.8 0-2.7-2.7-2.7-7.1 0-9.8 2.7-2.7 6.96-2.83 9.8 0l.28.24-1.57-.02c-.28 0-.58.3-.58.58 0 .3.24.54.54.54h2.9c.28 0 .53-.25.53-.54V2c0-.14-.06-.27-.16-.37" fill-rule="evenodd"/></svg>