<svg width="16" height="16" viewBox="0 0 16 16" xmlns="http://www.w3.org/2000/svg"><title>refresh--small</title><path d="M13.99 1.55c-.1-.1-.2-.14-.33-.14-.25 0-.47.22-.47.47V3.3l-.23-.25v-.01C10.21.32 5.77.32 3.04 3.05c-2.73 2.73-2.73 7.17 0 9.9 2.73 2.73 7.17 2.73 9.9 0 1.29-1.29 2.01-3 2.05-4.81 0-.13-.04-.25-.13-.34-.09-.09-.2-.14-.33-.14s-.25.05-.34.14c-.08.08-.13.2-.13.32-.03 1.58-.66 3.06-1.78 4.17-2.36 2.37-6.21 2.37-8.58 0-2.36-2.36-2.36-6.2 0-8.57 2.37-2.37 6.1-2.48 8.58-.01l.24.21-1.37-.01c-.25 0-.5.25-.5.5 0 .26.2.47.46.47h2.54c.25 0 .46-.22.46-.47V1.88c0-.13-.04-.24-.13-.33" fill-rule="evenodd"/></svg>