<svg width="24" height="24" viewBox="0 0 24 24" xmlns="http://www.w3.org/2000/svg"><title>refresh</title><path d="M20.52 2.83c-.16-.16-.38-.25-.62-.26-.22 0-.44.1-.6.26-.17.17-.27.4-.27.62v1.44c-3.9-3.87-10.22-3.85-14.1.04-3.9 3.9-3.9 10.24 0 14.14 3.9 3.9 10.24 3.9 14.14 0 1.84-1.84 2.88-4.28 2.93-6.88 0-.23-.08-.45-.24-.62-.17-.16-.38-.25-.61-.26-.24 0-.46.08-.63.25-.16.16-.26.38-.26.6-.04 2.15-.9 4.17-2.42 5.68-3.22 3.23-8.46 3.23-11.68 0-3.22-3.21-3.21-8.45 0-11.67 3.3-3.3 8.26-3.33 11.6-.1h-1.35c-.22 0-.45.1-.63.28-.18.18-.29.42-.29.64 0 .48.4.87.87.87h3.55c.22 0 .44-.1.6-.26.17-.16.27-.39.27-.61V3.45c0-.24-.1-.46-.26-.62" fill-rule="evenodd"/></svg>