<svg width="28" height="28" viewBox="0 0 28 28" xmlns="http://www.w3.org/2000/svg"><title>refresh</title><path d="M24.22 3c-.19-.2-.45-.3-.74-.31-.26 0-.53.11-.73.31-.2.2-.3.47-.3.73v1.74C17.74.83 10.17.84 5.5 5.5.83 10.2.83 17.81 5.51 22.5s12.3 4.68 16.98 0c2.2-2.21 3.45-5.14 3.51-8.26 0-.28-.1-.54-.3-.74-.19-.2-.45-.31-.72-.32-.29 0-.56.1-.76.3-.2.2-.3.46-.3.73-.06 2.57-1.09 5-2.9 6.81-3.87 3.87-10.16 3.87-14.03 0-3.86-3.86-3.86-10.14.01-14 3.95-3.96 9.9-4 13.91-.12l-1.61-.01c-.27 0-.55.12-.77.34-.21.22-.34.5-.34.77 0 .57.47 1.04 1.05 1.04h4.25c.27 0 .53-.11.73-.3.2-.2.31-.47.31-.74V3.74c0-.28-.1-.55-.3-.74" fill-rule="evenodd"/></svg>