<svg width="20" height="20" viewBox="0 0 20 20" xmlns="http://www.w3.org/2000/svg"><title>refresh--small</title><path d="M16.84 2.63c-.1-.1-.24-.16-.38-.16-.29 0-.54.25-.53.53v1.64l-.27-.29v-.01c-3.13-3.12-8.2-3.12-11.32 0-3.12 3.12-3.12 8.2 0 11.31 3.12 3.12 8.2 3.12 11.31 0 1.47-1.47 2.3-3.42 2.34-5.5 0-.14-.05-.27-.15-.38-.1-.1-.23-.16-.37-.16-.15 0-.28.05-.39.16-.1.1-.15.23-.15.36-.04 1.8-.76 3.5-2.03 4.77-2.7 2.7-7.1 2.7-9.8 0-2.7-2.7-2.7-7.1 0-9.8 2.7-2.7 6.96-2.83 9.8 0l.27.24-1.56-.02c-.29 0-.58.3-.58.58 0 .3.24.54.53.54h2.9c.29 0 .53-.25.53-.54V3c0-.14-.05-.27-.15-.37" fill-rule="evenodd"/></svg>