<svg width="20" height="20" viewBox="0 0 20 20" xmlns="http://www.w3.org/2000/svg"><title>reply--small</title><path d="M16 11.182V18.5a.5.5 0 1 1-1 0v-7.318c0-2.03-1.57-3.682-3.5-3.682H5.63l4.24 4.664a.499.499 0 1 1-.74.672l-5-5.5c-.021-.022-.03-.05-.046-.075-.016-.025-.035-.048-.047-.076a.507.507 0 0 1-.035-.172L4 7l.002-.012a.502.502 0 0 1 .035-.172c.011-.029.031-.051.047-.076.016-.026.025-.053.046-.076l5-5.5a.5.5 0 0 1 .74.672L5.63 6.5h5.87c2.481 0 4.5 2.101 4.5 4.682" fill-rule="evenodd"/></svg>