<svg width="18" height="18" viewBox="0 0 18 18" xmlns="http://www.w3.org/2000/svg"><title>search--small</title><path d="M7.12.9C3.7.9.9 3.69.9 7.12c0 3.44 2.79 6.22 6.22 6.22 1.56 0 2.98-.57 4.07-1.52l4.95 4.95c.09.09.2.13.32.13.1 0 .22-.04.31-.13.17-.17.17-.46 0-.63l-4.95-4.95c.95-1.09 1.52-2.51 1.52-4.07C13.34 3.7 10.56.9 7.12.9m0 .89c2.94 0 5.34 2.4 5.34 5.33 0 1.28-.47 2.52-1.31 3.49l-.25.29-.29.25c-.97.84-2.21 1.3-3.49 1.3-2.94 0-5.33-2.39-5.33-5.33S4.19 1.8 7.12 1.8" fill-rule="evenodd"/></svg>