<svg width="28" height="28" viewBox="0 0 28 28" xmlns="http://www.w3.org/2000/svg"><title>send</title><path d="M4.01 16.54l.07 6.88c0 .1-.01.2-.04.3-.03.08 0 .17.06.23.07.06.12.05.16.03l19.67-9.84c.04-.02.07-.08.07-.15 0-.06-.03-.12-.08-.15L4.26 4.01c-.08-.02-.12-.01-.16.02-.06.06-.09.15-.06.24.03.1.04.2.04.3L4 11.42l10.47.83c.9.1 1.56.83 1.56 1.72 0 .9-.66 1.64-1.54 1.72L4 16.54zm.19 9.45c-.52 0-1.03-.2-1.43-.54-.6-.53-.86-1.36-.7-2.14L2 15.62c0-.52.4-.96.92-1l7.98-.64-7.98-.62C2.4 13.3 2 12.87 2 12.35l.08-7.68c-.17-.78.1-1.6.7-2.14.64-.56 1.6-.7 2.38-.31l19.66 9.84c.73.37 1.18 1.1 1.18 1.93 0 .82-.45 1.57-1.17 1.93L5.16 25.77c-.3.14-.63.22-.96.22z" fill-rule="evenodd"/></svg>