<svg width="20" height="20" viewBox="0 0 20 20" xmlns="http://www.w3.org/2000/svg"><title>send--small</title><path d="M2 11.71l.06 5.57c0 .05 0 .1-.02.15-.05.17 0 .35.13.47.12.1.29.12.43.05l15.2-7.6c.12-.06.2-.2.2-.35 0-.16-.08-.3-.21-.36l-15.2-7.6c-.13-.07-.3-.05-.42.05-.13.12-.18.3-.13.47.02.05.02.1.02.15l-.05 5.56 8.34.66c.55.05.95.51.95 1.06s-.4 1-.94 1.06L2 11.7zM2.44 19c-.34 0-.67-.12-.92-.35-.4-.35-.57-.9-.45-1.42L1 11.25c0-.26.2-.48.46-.5l8.81-.7.04-.62-.04.5-8.8-.7C1.2 9.21 1 9 1 8.73l.06-5.97c-.12-.51.05-1.06.45-1.41.41-.37 1.04-.46 1.53-.2l15.2 7.6c.47.23.76.71.76 1.25 0 .53-.3 1-.76 1.25l-15.2 7.6c-.19.1-.4.14-.61.14z" fill-rule="evenodd"/></svg>