<svg width="24" height="24" viewBox="0 0 24 24" xmlns="http://www.w3.org/2000/svg"><title>send</title><path d="M3.68 14.12l.05 5.74c0 .08 0 .16-.03.24-.02.07 0 .15.05.2.06.05.1.04.13.02l16.4-8.2c.03-.02.05-.07.05-.12 0-.06-.02-.1-.06-.13L3.89 3.67c-.08-.01-.1 0-.14.02-.05.05-.07.13-.05.2.02.08.03.17.03.25l-.05 5.73 8.72.68c.75.08 1.3.7 1.3 1.44 0 .75-.55 1.36-1.28 1.43l-8.74.7zM3.83 22c-.43 0-.86-.16-1.18-.45-.5-.45-.72-1.13-.58-1.78L2 13.36c0-.44.33-.8.77-.84l6.65-.53-6.65-.52c-.44-.04-.77-.4-.77-.84l.07-6.4c-.14-.65.08-1.34.58-1.78.53-.48 1.34-.59 1.98-.27l16.39 8.2c.6.31.98.93.98 1.62 0 .68-.37 1.3-.98 1.6L4.63 21.82c-.25.12-.52.19-.8.19z" fill-rule="evenodd"/></svg>