<svg width="20" height="20" viewBox="0 0 20 20" xmlns="http://www.w3.org/2000/svg"><title>sent-messages--small</title><path d="M5 10.5c0-.28.23-.5.51-.5h8.98c.28 0 .51.23.51.5 0 .28-.23.5-.51.5H5.51c-.28 0-.51-.23-.51-.5m0-4c0-.28.23-.5.51-.5h8.98c.28 0 .51.23.51.5 0 .28-.23.5-.51.5H5.51C5.23 7 5 6.77 5 6.5M2 5v10h16V5c0-1.66-1.35-3-3.01-3H5.01C3.34 2 2 3.34 2 5m17-.5v10.77c0 2.05-1.68 3.73-3.73 3.73H4.74C2.67 19 1 17.32 1 15.27V4.5C1 2.57 2.67 1 4.74 1h10.53C17.32 1 19 2.57 19 4.5" fill-rule="evenodd"/></svg>