<svg width="16" height="16" viewBox="0 0 16 16" xmlns="http://www.w3.org/2000/svg"><title>sent-messages--small</title><path d="M4.11 8.39c0-.22.18-.39.4-.39h6.98c.22 0 .4.18.4.39 0 .21-.18.39-.4.39H4.51c-.22 0-.4-.18-.4-.4m0-3.1c0-.22.18-.4.4-.4h6.98c.22 0 .4.19.4.4 0 .21-.18.39-.4.39H4.51c-.22 0-.4-.18-.4-.4M1.78 4.12v7.78h12.44V4.1c0-1.29-1.05-2.33-2.34-2.33H4.12c-1.3 0-2.34 1.04-2.34 2.33M15 3.72v8.38c0 1.6-1.3 2.9-2.9 2.9H3.9C2.3 15 1 13.7 1 12.1V3.72C1 2.22 2.3 1 3.9 1h8.2C13.7 1 15 2.22 15 3.72" fill-rule="evenodd"/></svg>