<svg width="18" height="18" viewBox="0 0 18 18" xmlns="http://www.w3.org/2000/svg"><title>sent-messages--small</title><path d="M4.56 9.44c0-.24.2-.44.45-.44h7.98c.25 0 .45.2.45.44 0 .25-.2.45-.45.45H5.01c-.25 0-.45-.2-.45-.45m0-3.55c0-.25.2-.45.45-.45h7.98c.25 0 .45.21.45.45 0 .24-.2.44-.45.44H5.01c-.25 0-.45-.2-.45-.44M1.89 4.55v8.9H16.1v-8.9c0-1.47-1.2-2.66-2.67-2.66H4.56c-1.48 0-2.67 1.2-2.67 2.66M17 4.11v9.57c0 1.83-1.49 3.32-3.32 3.32H4.32C2.5 17 1 15.51 1 13.68V4.11C1 2.39 2.49 1 4.32 1h9.36C15.51 1 17 2.4 17 4.1" fill-rule="evenodd"/></svg>