<svg width="24" height="24" viewBox="0 0 24 24" xmlns="http://www.w3.org/2000/svg"><title>sent-messages</title><path d="M6.17 12.83c0-.46.37-.83.84-.83h9.98c.47 0 .84.37.84.83 0 .46-.37.84-.84.84H7.01c-.47 0-.84-.37-.84-.84m0-5c0-.46.37-.83.84-.83h9.98c.47 0 .84.37.84.83 0 .46-.37.84-.84.84H7.01c-.47 0-.84-.37-.84-.84m-2.5-1.66V17h16.66V6.17c0-1.39-1.11-2.5-2.5-2.5H6.17c-1.37 0-2.5 1.12-2.5 2.5M22 5.9v11.96c0 2.29-1.86 4.15-4.15 4.15H6.15C3.86 22 2 20.14 2 17.85V5.89C2 3.74 3.86 2 6.15 2h11.7C20.14 2 22 3.74 22 5.89" fill-rule="evenodd"/></svg>