<svg width="16" height="16" viewBox="0 0 16 16" xmlns="http://www.w3.org/2000/svg"><title>show--small</title><path d="M8 3c3.09 0 5.82 1.87 6.94 4.66l.06.15-.06.15c-1.12 2.8-3.85 4.67-6.94 4.67-3.09 0-5.82-1.88-6.94-4.67L1 7.81l.06-.15C2.18 4.87 4.9 3 8 3zm0 .8c-2.74 0-5.17 1.6-6.22 4.01 1.05 2.4 3.48 4.01 6.22 4.01 2.74 0 5.17-1.6 6.22-4C13.17 5.4 10.74 3.8 8 3.8zm0 1.6c1.3 0 2.33 1.08 2.33 2.41S9.3 10.21 8 10.21c-1.3 0-2.33-1.07-2.33-2.4 0-1.33 1.04-2.4 2.33-2.4zm0 .8c-.86 0-1.56.72-1.56 1.61 0 .9.7 1.6 1.56 1.6.86 0 1.56-.7 1.56-1.6 0-.89-.7-1.6-1.56-1.6z" fill-rule="nonzero"/></svg>