<svg width="18" height="18" viewBox="0 0 18 18" xmlns="http://www.w3.org/2000/svg"><title>show--small</title><path d="M9 3.5c3.53 0 6.66 2.14 7.93 5.33L17 9l-.07.17c-1.27 3.19-4.4 5.33-7.93 5.33-3.53 0-6.66-2.14-7.93-5.33L1 9l.07-.17C2.34 5.64 5.47 3.5 9 3.5zm0 .92C5.87 4.42 3.09 6.25 1.89 9c1.2 2.75 3.98 4.58 7.11 4.58 3.13 0 5.91-1.83 7.11-4.58-1.2-2.75-3.98-4.58-7.11-4.58zm0 1.83c1.48 0 2.67 1.23 2.67 2.75s-1.2 2.75-2.67 2.75c-1.48 0-2.67-1.23-2.67-2.75S7.53 6.25 9 6.25zm0 .92c-.98 0-1.78.81-1.78 1.83s.8 1.83 1.78 1.83 1.78-.81 1.78-1.83S9.98 7.17 9 7.17z" fill-rule="nonzero"/></svg>