<svg width="28" height="28" viewBox="0 0 28 28" xmlns="http://www.w3.org/2000/svg"><title>show</title><path d="M14.07 5c5.76 0 10.86 3.54 12.94 8.82l.14.36-.14.37c-2.08 5.27-7.18 8.81-12.94 8.81-5.75 0-10.85-3.54-12.93-8.81L1 14.18l.14-.36C3.22 8.54 8.32 5 14.07 5zm0 2C9.28 7 5.02 9.87 3.16 14.18c1.86 4.32 6.12 7.18 10.91 7.18 4.8 0 9.06-2.86 10.92-7.18C23.13 9.87 18.87 7 14.07 7zm0 2.9c2.37 0 4.28 1.92 4.28 4.28 0 2.37-1.91 4.27-4.28 4.27-2.36 0-4.27-1.9-4.27-4.27 0-2.36 1.91-4.27 4.27-4.27zm0 2c-1.25 0-2.27 1.02-2.27 2.28 0 1.26 1.02 2.27 2.27 2.27 1.26 0 2.28-1.01 2.28-2.27s-1.02-2.27-2.28-2.27z" fill-rule="nonzero"/></svg>