<svg width="24" height="24" viewBox="0 0 24 24" xmlns="http://www.w3.org/2000/svg"><title>show</title><path d="M12 4c4.84 0 9.13 2.99 10.88 7.44l.12.31-.12.3C21.13 16.52 16.84 19.5 12 19.5c-4.84 0-9.13-2.99-10.88-7.44L1 11.75l.12-.3C2.87 6.98 7.16 4 12 4zm0 1.69c-4.03 0-7.61 2.42-9.19 6.06 1.58 3.64 5.16 6.06 9.19 6.06 4.03 0 7.61-2.42 9.19-6.06C19.6 8.11 16.03 5.69 12 5.69zm0 2.45c1.99 0 3.6 1.62 3.6 3.61 0 2-1.61 3.6-3.6 3.6s-3.6-1.6-3.6-3.6 1.61-3.6 3.6-3.6zm0 1.7c-1.06 0-1.91.85-1.91 1.91s.85 1.92 1.91 1.92 1.91-.86 1.91-1.92-.85-1.92-1.91-1.92z" fill-rule="nonzero"/></svg>