<svg width="24" height="24" viewBox="0 0 24 24" xmlns="http://www.w3.org/2000/svg"><title>sort-direction</title><path d="M7.29 4.77v12.37c0 .48-.39.86-.86.86s-.86-.38-.86-.86V4.77L2.35 8.3c-.32.35-.87.38-1.21.06-.35-.32-.38-.87-.06-1.21L5.8 1.99c.34-.37.92-.37 1.26 0l4.71 5.15c.32.34.3.89-.05 1.2-.35.33-.89.3-1.2-.05L7.28 4.77zM18.2 22.01c-.15.17-.38.28-.63.28s-.47-.11-.63-.28l-4.71-5.15c-.32-.34-.3-.89.05-1.2.35-.33.89-.3 1.2.05l3.23 3.52V8.57c0-.47.39-.86.86-.86s.86.39.86.86v10.66l3.22-3.52c.32-.35.87-.38 1.21-.06.35.32.38.87.06 1.21l-4.72 5.15z" fill-rule="nonzero"/></svg>