<svg width="16" height="16" viewBox="0 0 16 16" xmlns="http://www.w3.org/2000/svg"><title>sort-direction--small</title><path d="M4.87 1.9v9.6c0 .2-.16.35-.36.35-.2 0-.36-.16-.36-.36V1.9L1.28 4.78c-.15.14-.38.14-.52 0-.14-.15-.14-.38 0-.52L4.26.76c.13-.14.36-.14.5 0l3.5 3.5c.14.13.14.36 0 .5-.14.15-.38.15-.52 0L4.87 1.9zm6.98 12.2l2.87-2.87c.15-.14.38-.14.52 0 .14.15.14.38 0 .52l-3.5 3.49c-.13.14-.36.14-.5 0l-3.5-3.5c-.14-.13-.14-.36 0-.5.14-.15.38-.15.52 0l2.87 2.86V4.5c0-.2.16-.35.36-.35.2 0 .36.16.36.36v9.6z" fill-rule="nonzero"/></svg>