<svg width="16" height="16" viewBox="0 0 16 16" xmlns="http://www.w3.org/2000/svg"><title>star--small</title><path d="M8 1c-.13 0-.56.04-.72.55L5.67 5.63H1.75c-.47 0-.65.37-.7.52-.05.13-.16.57.26.9L4.5 9.76l-.99 4.22c-.1.32 0 .56.11.7.15.2.38.32.62.32.15 0 .3-.05.44-.16L8 12.67l3.32 2.17c.13.11.29.16.44.16.24 0 .47-.12.62-.32.1-.14.2-.38.1-.7l-.98-4.23 3.2-2.7c.4-.33.3-.77.25-.9-.05-.15-.23-.52-.7-.52h-3.92L8.72 1.55C8.56 1.04 8.12 1 8 1m0 .85l1.61 4.07.2.5h4.42l-.04.03-3.2 2.7-.36.31.11.47.99 4.22v.04l-3.3-2.17-.43-.28-.43.28-3.3 2.17v-.04l.99-4.21.1-.46L5 9.17 1.78 6.44v-.03H6.2l.19-.5L8 1.86" fill-rule="evenodd"/></svg>