<svg width="28" height="28" viewBox="0 0 28 28" xmlns="http://www.w3.org/2000/svg"><title>star</title><path d="M14 2c-.22 0-.97.07-1.23.94l-2.77 7H3.3c-.82 0-1.13.62-1.22.9-.07.21-.27.97.44 1.53L8 17.02l-1.69 7.23c-.17.56 0 .96.18 1.2.27.35.66.55 1.06.55.26 0 .52-.09.76-.27L14 22l5.69 3.73c.23.18.5.27.76.27.4 0 .8-.2 1.05-.55.18-.24.36-.64.19-1.2L20 17l5.48-4.63c.7-.56.51-1.32.44-1.54-.1-.27-.4-.89-1.21-.89H18l-2.77-7c-.27-.87-1-.94-1.23-.94m0 3.27l2.14 5.4.5 1.27h6.24l-4.17 3.53-.94.8.28 1.18 1.32 5.69-4.27-2.81-1.1-.72-1.1.72-4.28 2.8 1.33-5.65.28-1.2-.94-.78-4.18-3.56h6.25l.5-1.26L14 5.27" fill-rule="evenodd"/></svg>