<svg width="20" height="20" viewBox="0 0 20 20" xmlns="http://www.w3.org/2000/svg"><title>star--small</title><path d="M10 1a.937.937 0 0 0-.922.705L7 6.957H1.97c-.613 0-.84.467-.909.666-.057.166-.2.737.333 1.152L5.5 12.266l-1.268 5.419c-.127.42.006.723.14.904a.991.991 0 0 0 .789.411.917.917 0 0 0 .57-.201L10 16l4.266 2.799a.921.921 0 0 0 .571.199.99.99 0 0 0 .79-.41c.135-.18.267-.484.14-.901L14.5 12.25l4.107-3.475c.532-.415.389-.985.332-1.15-.068-.201-.295-.668-.91-.668H13l-2.079-5.252A.937.937 0 0 0 10 1m0 1.093l2.07 5.232.25.632H13l5.005.001.007.011-.051.043-4.107 3.474-.467.396.139.595 1.266 5.436.009.04-4.253-2.789-.548-.36-.548.36-4.256 2.79.003-.011.007-.031 1.268-5.419.139-.594-.466-.395L2 7.997a.14.14 0 0 1 .007-.04H7.68l.25-.632L10 2.093" fill="#000" fill-rule="evenodd"/></svg>