<svg width="24" height="24" viewBox="0 0 24 24" xmlns="http://www.w3.org/2000/svg"><title>star</title><path d="M12 2c-.19 0-.8.06-1.03.78l-2.3 5.84h-5.6c-.67 0-.93.52-1 .74-.07.18-.22.82.37 1.28L7 14.52l-1.4 6.02c-.15.47 0 .8.15 1 .21.3.54.46.87.46.22 0 .44-.07.64-.22L12 18.67l4.74 3.1c.2.16.42.23.63.23.34 0 .67-.17.88-.46.15-.2.3-.54.16-1L17 14.5l4.56-3.86c.6-.46.44-1.1.37-1.28-.07-.22-.33-.74-1-.74h-5.6l-2.3-5.84C12.8 2.06 12.17 2 12 2m0 2.72l1.78 4.51.42 1.05h5.2l-3.48 2.95-.77.66.23.99 1.1 4.73-3.57-2.34-.91-.6-.91.6-3.57 2.34 1.1-4.71.23-1-.77-.65-3.49-2.97H9.8l.42-1.05L12 4.73" fill-rule="evenodd"/></svg>