<svg width="20" height="20" viewBox="0 0 20 20" xmlns="http://www.w3.org/2000/svg"><title>star--small</title><path d="M10 1c-.17 0-.72.05-.92.7L7 6.96H1.97c-.61 0-.84.46-.9.66-.07.17-.2.74.32 1.16l4.11 3.49-1.27 5.41c-.13.43 0 .73.14.9.2.27.5.42.8.42.19 0 .38-.06.56-.2L10 16l4.27 2.8c.17.14.37.2.57.2.3 0 .6-.15.79-.41.13-.18.26-.49.14-.9l-1.27-5.44 4.1-3.47c.54-.42.4-.99.34-1.15-.07-.2-.3-.67-.91-.67H13L10.92 1.7c-.2-.66-.75-.71-.92-.71m0 1.1l2.07 5.22.25.64H18.01l-.05.05-4.1 3.48-.47.4.14.59 1.26 5.43.01.04-4.25-2.79-.55-.36-.55.36-4.25 2.8v-.05l1.27-5.42.14-.6-.46-.39L2 8v-.04h5.68l.25-.63L10 2.08" fill-rule="evenodd"/></svg>