<svg width="18" height="18" viewBox="0 0 18 18" xmlns="http://www.w3.org/2000/svg"><title>star--small</title><path d="M9 1c-.15 0-.64.05-.82.63L6.33 6.3H1.86c-.54 0-.74.41-.8.59-.06.14-.18.65.29 1.02L5 11.01l-1.13 4.82c-.11.37 0 .64.13.8.17.24.43.37.7.37.17 0 .35-.06.5-.18L9 14.33l3.8 2.5c.15.11.33.17.5.17.27 0 .53-.13.7-.37.12-.16.24-.43.13-.8L13 11l3.65-3.09c.47-.37.35-.87.3-1.02-.06-.18-.27-.6-.81-.6h-4.47L9.82 1.64C9.64 1.05 9.15 1 9 1m0 .97l1.84 4.65.22.56h5.06v.01l-.04.04-3.65 3.1-.42.34.12.53 1.13 4.83v.04L9.5 13.59 9 13.27l-.49.32-3.78 2.48v-.04l1.14-4.81.12-.53-.41-.35-3.7-3.12.02-.04H6.93l.23-.56L9 1.97" fill-rule="evenodd"/></svg>