<svg width="24" height="24" viewBox="0 0 24 24" xmlns="http://www.w3.org/2000/svg"><title>textblock</title><path d="M14.5 16.17c0 .46-.37.83-.83.83h-7.5c-.46 0-.84-.37-.84-.83 0-.46.38-.84.84-.84h7.5c.46 0 .83.38.83.84zm4.17-8.34c0 .46-.38.84-.84.84H6.17c-.46 0-.84-.38-.84-.84 0-.46.38-.83.84-.83h11.66c.46 0 .84.37.84.83zm0 4.17c0 .46-.38.83-.84.83H6.17c-.46 0-.84-.37-.84-.83 0-.46.38-.83.84-.83h11.66c.46 0 .84.37.84.83zm1.66 6.67c0 .92-.74 1.66-1.66 1.66H5.33c-.92 0-1.66-.74-1.66-1.66V5.33c0-.92.74-1.66 1.66-1.66h13.34c.92 0 1.66.74 1.66 1.66v13.34zM18.67 2H5.33C3.5 2 2 3.5 2 5.33v13.34C2 20.5 3.5 22 5.33 22h13.34C20.5 22 22 20.5 22 18.67V5.33C22 3.5 20.5 2 18.67 2z" fill-rule="evenodd"/></svg>