<svg width="16" height="16" viewBox="0 0 16 16" xmlns="http://www.w3.org/2000/svg"><title>textblock--small</title><path d="M9.56 11.11c0 .22-.18.39-.4.39H3.73c-.21 0-.39-.17-.39-.39 0-.21.18-.39.4-.39h5.44c.21 0 .39.18.39.4zm3.1-6.22c0 .21-.17.39-.38.39H3.72c-.21 0-.39-.18-.39-.4 0-.2.18-.38.4-.38h8.55c.21 0 .39.17.39.39zm0 3.11c0 .21-.17.39-.38.39H3.72c-.21 0-.39-.18-.39-.39 0-.21.18-.39.4-.39h8.55c.21 0 .39.18.39.39zm1.56 4.28c0 1.07-.87 1.94-1.94 1.94H3.72c-1.07 0-1.94-.87-1.94-1.94V3.72c0-1.07.87-1.94 1.94-1.94h8.56c1.07 0 1.94.87 1.94 1.94v8.56zM12.28 1H3.72C2.22 1 1 2.22 1 3.72v8.56C1 13.78 2.22 15 3.72 15h8.56c1.5 0 2.72-1.22 2.72-2.72V3.72C15 2.22 13.78 1 12.28 1z" fill-rule="evenodd"/></svg>