<svg width="18" height="18" viewBox="0 0 18 18" xmlns="http://www.w3.org/2000/svg"><title>textblock--small</title><path d="M10.78 12.56c0 .24-.2.44-.45.44H4.11c-.24 0-.44-.2-.44-.44 0-.25.2-.45.44-.45h6.22c.25 0 .45.2.45.45zm3.55-7.12c0 .25-.2.45-.44.45H4.1c-.24 0-.44-.2-.44-.45 0-.24.2-.44.44-.44h9.78c.24 0 .44.2.44.44zm0 3.56c0 .25-.2.44-.44.44H4.1c-.24 0-.44-.2-.44-.44 0-.25.2-.44.44-.44h9.78c.24 0 .44.2.44.44zm1.78 4.89c0 1.22-1 2.22-2.22 2.22H4.1c-1.22 0-2.22-1-2.22-2.22V4.1c0-1.22 1-2.22 2.22-2.22h9.78c1.22 0 2.22 1 2.22 2.22v9.78zM13.9 1H4.1C2.4 1 1 2.4 1 4.11v9.78C1 15.6 2.4 17 4.11 17h9.78C15.6 17 17 15.6 17 13.89V4.1C17 2.4 15.6 1 13.89 1z" fill-rule="evenodd"/></svg>