<svg width="16" height="16" viewBox="0 0 16 16" xmlns="http://www.w3.org/2000/svg"><title>ticket--small</title><path d="M10.67 8.67c0-.25-.18-.45-.4-.45H3.95c-.22 0-.4.2-.4.45 0 .24.18.44.4.44h6.32c.22 0 .4-.2.4-.44m0-2.67c0-.25-.18-.44-.4-.44H3.95c-.22 0-.4.2-.4.44 0 .25.18.44.4.44h6.32c.22 0 .4-.2.4-.44m4.53.88V5.11c0-1.29-1.08-2.33-2.4-2.33H3.2C1.88 2.78.8 3.82.8 5.1v1.77c.48.27.8.77.8 1.34 0 .58-.32 1.07-.8 1.34v1.77c0 1.29 1.08 2.34 2.4 2.34h9.6c1.32 0 2.4-1.05 2.4-2.34V9.56c-.48-.27-.8-.76-.8-1.34 0-.57.32-1.07.8-1.34m.8.56c-.44 0-.8.35-.8.78 0 .43.36.78.8.78v2.33c0 1.71-1.44 3.11-3.2 3.11H3.2c-1.76 0-3.2-1.4-3.2-3.1V9c.44 0 .8-.35.8-.78 0-.43-.36-.78-.8-.78V5.11C0 3.4 1.44 2 3.2 2h9.6C14.56 2 16 3.4 16 5.11v2.33zm-4 4.28c0 .22.18.4.4.4.22 0 .4-.18.4-.4 0-.21-.18-.39-.4-.39-.22 0-.4.18-.4.4m0-2.34c0 .21.18.39.4.39.22 0 .4-.18.4-.4 0-.2-.18-.38-.4-.38-.22 0-.4.17-.4.39m0-2.33c0 .21.18.38.4.38.22 0 .4-.17.4-.38 0-.22-.18-.4-.4-.4-.22 0-.4.18-.4.4m.4-2.73c.22 0 .4.18.4.4 0 .2-.18.38-.4.38-.22 0-.4-.17-.4-.39 0-.21.18-.39.4-.39" fill-rule="evenodd"/></svg>