<svg width="24" height="24" viewBox="0 0 24 24" xmlns="http://www.w3.org/2000/svg"><title>ticket</title><path d="M15.95 13c0-.57-.41-1.04-.92-1.04H5.9c-.5 0-.92.47-.92 1.04 0 .58.41 1.05.92 1.05h9.13c.5 0 .92-.47.92-1.05zm0-4.18c0-.58-.41-1.05-.92-1.05H5.9c-.5 0-.92.47-.92 1.05 0 .58.41 1.05.92 1.05h9.13c.5 0 .92-.47.92-1.05zm6.34-2.22c0-1-.77-1.8-1.72-1.8H3.43c-.95 0-1.72.8-1.72 1.8V10c.53.5.86 1.2.86 2s-.33 1.5-.86 2v3.4c0 1 .77 1.8 1.72 1.8h17.14c.95 0 1.72-.8 1.72-1.8V14c-.53-.5-.86-1.2-.86-2s.33-1.5.86-2V6.6zm1.71 0v4.5c-.47 0-.86.4-.86.9s.39.9.86.9v4.5c0 1.98-1.54 3.6-3.43 3.6H3.43C1.54 21 0 19.38 0 17.4v-4.5c.47 0 .86-.4.86-.9s-.39-.9-.86-.9V6.6C0 4.62 1.54 3 3.43 3h17.14C22.46 3 24 4.62 24 6.6zm-6 9.9c-.55 0-1 .45-1 1s.45 1 1 1 1-.45 1-1-.45-1-1-1zm0-3.67c-.55 0-1 .45-1 1 0 .56.45 1 1 1s1-.44 1-1c0-.55-.45-1-1-1zm0-3.66c-.55 0-1 .44-1 1 0 .55.45 1 1 1s1-.45 1-1c0-.56-.45-1-1-1zm1-2.67c0 .55-.45 1-1 1s-1-.45-1-1 .45-1 1-1 1 .45 1 1z" fill-rule="evenodd"/></svg>