<svg width="18" height="18" viewBox="0 0 18 18" xmlns="http://www.w3.org/2000/svg"><title>ticket--small</title><path d="M12 9.5c0-.28-.2-.5-.44-.5H4.44C4.2 9 4 9.22 4 9.5s.2.5.44.5h7.12c.24 0 .44-.22.44-.5m0-3c0-.28-.2-.5-.44-.5H4.44C4.2 6 4 6.22 4 6.5s.2.5.44.5h7.12c.24 0 .44-.22.44-.5m5.1 1v-2c0-1.45-1.21-2.63-2.7-2.63H3.6C2.11 2.88.9 4.05.9 5.5v2c.54.3.9.85.9 1.5s-.36 1.2-.9 1.5v2c0 1.45 1.21 2.63 2.7 2.63h10.8c1.49 0 2.7-1.18 2.7-2.63v-2c-.54-.3-.9-.85-.9-1.5s.36-1.2.9-1.5m.9.63c-.5 0-.9.39-.9.87s.4.88.9.88v2.62c0 1.93-1.62 3.5-3.6 3.5H3.6C1.62 16 0 14.43 0 12.5V9.87c.5 0 .9-.39.9-.87s-.4-.88-.9-.88V5.5C0 3.58 1.62 2 3.6 2h10.8C16.38 2 18 3.58 18 5.5v2.63zm-4.5 4.8c0 .25.2.45.45.45s.45-.2.45-.44-.2-.44-.45-.44-.45.2-.45.44m0-2.63c0 .24.2.44.45.44s.45-.2.45-.44-.2-.44-.45-.44-.45.2-.45.44m0-2.62c0 .24.2.43.45.43s.45-.2.45-.43c0-.24-.2-.44-.45-.44s-.45.2-.45.44m.45-3.07c.25 0 .45.2.45.44s-.2.44-.45.44-.45-.2-.45-.44.2-.43.45-.43" fill-rule="evenodd"/></svg>