<svg width="28" height="28" viewBox="0 0 28 28" xmlns="http://www.w3.org/2000/svg"><title>ticket</title><path d="M18 14c0-.55-.45-1-1-1H7c-.55 0-1 .45-1 1s.45 1 1 1h10c.55 0 1-.45 1-1zm0-4c0-.55-.45-1-1-1H7c-.55 0-1 .45-1 1s.45 1 1 1h10c.55 0 1-.45 1-1zm8-2c0-1.1-.9-2-2-2H4c-1.1 0-2 .9-2 2v3.78c.6.55 1 1.34 1 2.22 0 .88-.4 1.67-1 2.22V20c0 1.1.9 2 2 2h20c1.1 0 2-.9 2-2v-3.78c-.6-.55-1-1.34-1-2.22 0-.88.4-1.67 1-2.22V8zm2 0v5c-.55 0-1 .45-1 1s.45 1 1 1v5c0 2.2-1.8 4-4 4H4c-2.2 0-4-1.8-4-4v-5c.55 0 1-.45 1-1s-.45-1-1-1V8c0-2.2 1.8-4 4-4h20c2.2 0 4 1.8 4 4zm-7 11c-.55 0-1 .45-1 1s.45 1 1 1 1-.45 1-1-.45-1-1-1zm0-4c-.55 0-1 .45-1 1s.45 1 1 1 1-.45 1-1-.45-1-1-1zm0-4c-.55 0-1 .45-1 1s.45 1 1 1 1-.45 1-1-.45-1-1-1zm1-3c0 .55-.45 1-1 1s-1-.45-1-1 .45-1 1-1 1 .45 1 1z" fill-rule="evenodd"/></svg>