<svg width="20" height="20" viewBox="0 0 20 20" xmlns="http://www.w3.org/2000/svg"><title>ticket--small</title><path d="M13.5 10.5a.5.5 0 0 0-.5-.5H5a.5.5 0 0 0 0 1h8a.5.5 0 0 0 .5-.5m0-3A.5.5 0 0 0 13 7H5a.5.5 0 0 0 0 1h8a.5.5 0 0 0 .5-.5m5.5.777V6c0-1.654-1.346-3-3-3H4C2.346 3 1 4.346 1 6v2.277c.595.347 1 .985 1 1.723 0 .738-.405 1.376-1 1.723V14c0 1.654 1.346 3 3 3h12c1.654 0 3-1.346 3-3v-2.277c-.595-.347-1-.985-1-1.723 0-.738.405-1.376 1-1.723M20 6v3a1.001 1.001 0 0 0 0 2v3c0 2.2-1.8 4-4 4H4c-2.2 0-4-1.8-4-4v-3a1.001 1.001 0 0 0 0-2V6c0-2.2 1.8-4 4-4h12c2.2 0 4 1.8 4 4m-5 8.5a.5.5 0 1 0 1 0 .5.5 0 0 0-1 0m0-3a.5.5 0 1 0 1 0 .5.5 0 0 0-1 0m0-3a.5.5 0 1 0 1 0 .5.5 0 0 0-1 0m.5-3.5a.5.5 0 1 1 0 1 .5.5 0 0 1 0-1" fill="#000" fill-rule="evenodd"/></svg>