<svg width="20" height="20" viewBox="0 0 20 20" xmlns="http://www.w3.org/2000/svg"><title>ticket--small</title><path d="M13.5 10.5c0-.28-.22-.5-.5-.5H5c-.28 0-.5.22-.5.5s.22.5.5.5h8c.28 0 .5-.22.5-.5m0-3c0-.28-.22-.5-.5-.5H5c-.28 0-.5.22-.5.5s.22.5.5.5h8c.28 0 .5-.22.5-.5m5.5.78V6c0-1.65-1.35-3-3-3H4C2.35 3 1 4.35 1 6v2.28c.6.34 1 .98 1 1.72s-.4 1.38-1 1.72V14c0 1.65 1.35 3 3 3h12c1.65 0 3-1.35 3-3v-2.28c-.6-.34-1-.98-1-1.72s.4-1.38 1-1.72M20 6v3c-.55 0-1 .45-1 1s.45 1 1 1v3c0 2.2-1.8 4-4 4H4c-2.2 0-4-1.8-4-4v-3c.55 0 1-.45 1-1S.55 9 0 9V6c0-2.2 1.8-4 4-4h12c2.2 0 4 1.8 4 4m-5 8.5c0 .28.22.5.5.5s.5-.22.5-.5-.22-.5-.5-.5-.5.22-.5.5m0-3c0 .28.22.5.5.5s.5-.22.5-.5-.22-.5-.5-.5-.5.22-.5.5m0-3c0 .28.22.5.5.5s.5-.22.5-.5-.22-.5-.5-.5-.5.22-.5.5m.5-3.5c.28 0 .5.22.5.5s-.22.5-.5.5-.5-.22-.5-.5.22-.5.5-.5" fill-rule="evenodd"/></svg>