<svg width="16" height="16" viewBox="0 0 16 16" xmlns="http://www.w3.org/2000/svg"><title>trash--small</title><path d="M12.17 2.4H3.73l.92 12.74v.06h6.64v-.03l-.02-.03.9-12.74zm-7.42-.8h6.44l-.27-.53C10.86.95 10.6.8 10.46.8H5.48c-.14 0-.4.15-.46.27l-.27.53zm9.44.4c0 .22-.18.4-.41.4h-.73l-.93 12.8c0 .55-.31.8-.88.8H4.7c-.57 0-.89-.25-.89-.8L2.9 2.4h-.73c-.22 0-.41-.18-.41-.4 0-.22.19-.4.41-.4H3.82l.46-.88c.2-.4.75-.72 1.2-.72h4.98c.46 0 1 .32 1.2.72l.46.88H13.78c.23 0 .41.18.41.4zm-3.55 1.95c0-.22-.2-.4-.45-.4-.24 0-.44.18-.44.4v9.88c0 .22.2.4.44.4.25 0 .45-.18.45-.4V3.95zm-4.45 0c0-.22-.2-.4-.44-.4-.25 0-.44.18-.44.4v9.88c0 .22.2.4.44.4.25 0 .44-.18.44-.4V3.95zm2.23 9.88c0 .22-.2.4-.45.4-.24 0-.44-.18-.44-.4V3.95c0-.22.2-.4.44-.4.25 0 .45.18.45.4v9.88z" fill-rule="evenodd"/></svg>