<svg width="18" height="18" viewBox="0 0 18 18" xmlns="http://www.w3.org/2000/svg"><title>trash--small</title><path d="M13.72 2.7h-9.5l1.04 14.34v.06h7.47v-.03l-.02-.03L13.72 2.7zm-8.34-.9h7.24l-.3-.6c-.07-.13-.36-.3-.52-.3H6.2c-.16 0-.44.17-.52.3l-.3.6zM16 2.25c0 .25-.2.45-.47.45h-.82l-1.04 14.4c0 .62-.36.9-1 .9H5.34c-.64 0-1-.28-1-.9L3.3 2.7h-.82C2.2 2.7 2 2.5 2 2.25s.2-.45.47-.45h1.86l.52-1C5.08.37 5.69 0 6.2 0h5.6c.51 0 1.12.36 1.35.8l.52 1h1.86c.26 0 .47.2.47.45zm-4 2.2c0-.25-.22-.45-.5-.45s-.5.2-.5.44v11.12c0 .24.22.44.5.44s.5-.2.5-.44V4.44zm-5 0C7 4.2 6.78 4 6.5 4s-.5.2-.5.44v11.12c0 .24.22.44.5.44s.5-.2.5-.44V4.44zm2.5 11.1c0 .25-.22.45-.5.45s-.5-.2-.5-.44V4.44c0-.24.22-.44.5-.44s.5.2.5.44v11.12z" fill-rule="evenodd"/></svg>