<svg width="28" height="28" viewBox="0 0 28 28" xmlns="http://www.w3.org/2000/svg"><title>trash</title><path d="M13 23V7c0-.55.45-1 1-1s1 .45 1 1v16c0 .55-.45 1-1 1s-1-.45-1-1zm4-.06l1-16c.04-.55.51-.96 1.06-.94.55.04.97.51.94 1.06l-1 16c-.04.53-.48.94-1 .94h-.06c-.55-.04-.97-.51-.94-1.06zm-8 .12l-1-16c-.03-.55.39-1.02.94-1.06.56-.03 1.02.39 1.06.94l1 16c.03.55-.39 1.02-.94 1.06H10c-.53 0-.96-.4-1-.94zm11.05 2.26l-.05.1v.08c0 .15-.09.37-.18.5H8.25c-.12-.12-.25-.37-.25-.5v-.18L6.18 5H21.9l-1.86 20.32zM11 2h6c.53 0 .85.02 1.45 1h-8.9c.6-.98.92-1 1.45-1zm14 1h-3.67L20 1c-.37-.56-1-1-2-1h-8C9 0 8.37.44 8 1L6.67 3H3c-.55 0-1 .45-1 1s.45 1 1 1h1.18L6 25.5c0 1.1.96 2.5 2.06 2.5h12c1.1 0 1.94-1.4 1.94-2.5L23.82 5H25c.55 0 1-.45 1-1s-.45-1-1-1z" fill-rule="evenodd"/></svg>