<svg width="20" height="20" viewBox="0 0 20 20" xmlns="http://www.w3.org/2000/svg"><title>trash--small</title><path d="M14.56 3H4.38L5.5 18.93V19H13.5v-.04l-.03-.03L14.56 3zM5.62 2h7.76l-.33-.66c-.07-.15-.38-.34-.55-.34h-6c-.17 0-.48.19-.55.34L5.62 2zM17 2.5c0 .28-.22.5-.5.5h-.88L14.5 19c0 .68-.38 1-1.06 1H5.56c-.68 0-1.06-.32-1.06-1L3.38 3H2.5c-.28 0-.5-.22-.5-.5s.22-.5.5-.5h2L5.05.9C5.3.4 5.95 0 6.5 0h6c.55 0 1.2.4 1.45.9L14.5 2h2c.28 0 .5.22.5.5zm-4.5 2c0-.28-.22-.5-.5-.5s-.5.22-.5.5V17c0 .28.22.5.5.5s.5-.22.5-.5V4.5zm-5 0c0-.28-.22-.5-.5-.5s-.5.22-.5.5V17c0 .28.22.5.5.5s.5-.22.5-.5V4.5zM10 17c0 .28-.22.5-.5.5S9 17.28 9 17V4.5c0-.28.22-.5.5-.5s.5.22.5.5V17z" fill-rule="evenodd"/></svg>