<svg width="24" height="24" viewBox="0 0 24 24" xmlns="http://www.w3.org/2000/svg"><title>tune</title><path d="M6 13H3c-.55 0-1-.45-1-1s.45-1 1-1h3v-1c0-.55.45-1 1-1s1 .45 1 1v4c0 .55-.45 1-1 1s-1-.45-1-1v-1zm8 5h7c.55 0 1 .45 1 1s-.45 1-1 1h-7v1c0 .55-.45 1-1 1s-1-.45-1-1v-4c0-.55.45-1 1-1s1 .45 1 1v1zm4-14h3c.55 0 1 .45 1 1s-.45 1-1 1h-3v1c0 .55-.45 1-1 1s-1-.45-1-1V3c0-.55.45-1 1-1s1 .45 1 1v1zM3 4h10c.55 0 1 .45 1 1s-.45 1-1 1H3c-.55 0-1-.45-1-1s.45-1 1-1zm0 14h6c.55 0 1 .45 1 1s-.45 1-1 1H3c-.55 0-1-.45-1-1s.45-1 1-1zm18-7c.55 0 1 .45 1 1s-.45 1-1 1H11c-.55 0-1-.45-1-1s.45-1 1-1h10z" fill-rule="evenodd"/></svg>