<svg width="18" height="18" viewBox="0 0 18 18" xmlns="http://www.w3.org/2000/svg"><title>tune--small</title><path d="M4 8.5H1.5c-.28 0-.5.22-.5.5s.22.5.5.5H4v1.67c0 .27.22.5.5.5s.5-.23.5-.5V6.83c0-.27-.22-.5-.5-.5s-.5.23-.5.5V8.5zM7 14h9.5c.28 0 .5.22.5.5s-.22.5-.5.5H7v1.5c0 .28-.22.5-.5.5s-.5-.22-.5-.5v-4.33c0-.28.22-.5.5-.5s.5.22.5.5V14zm5-11h4.5c.28 0 .5.22.5.5s-.22.5-.5.5H12v1.83c0 .28-.22.5-.5.5s-.5-.22-.5-.5V1.5c0-.28.22-.5.5-.5s.5.22.5.5V3zM1.5 3h8c.28 0 .5.22.5.5s-.22.5-.5.5h-8c-.28 0-.5-.22-.5-.5s.22-.5.5-.5zm5 5.5h10c.28 0 .5.22.5.5s-.22.5-.5.5h-10c-.28 0-.5-.22-.5-.5s.22-.5.5-.5zm-5 5.5h3c.28 0 .5.22.5.5s-.22.5-.5.5h-3c-.28 0-.5-.22-.5-.5s.22-.5.5-.5z" fill-rule="evenodd"/></svg>