<svg width="18" height="18" viewBox="0 0 18 18" xmlns="http://www.w3.org/2000/svg"><title>tune--small</title><path d="M4 8.5H1.49c-.27 0-.49.22-.49.5 0 .27.22.5.49.5H4v1.67c0 .27.22.5.5.5.27 0 .5-.22.5-.5V6.83c0-.27-.22-.5-.5-.5-.27 0-.5.22-.5.5V8.5zM7 14h9.5c.28 0 .5.23.5.5 0 .28-.23.5-.5.5H7v1.5c0 .28-.23.5-.5.5-.28 0-.5-.23-.5-.5v-4.34c0-.27.23-.5.5-.5.28 0 .5.24.5.5V14zm5-11h4.5c.28 0 .5.23.5.5 0 .28-.23.5-.5.5H12v1.84c0 .27-.23.5-.5.5-.28 0-.5-.24-.5-.5V1.5c0-.27.23-.49.5-.49.28 0 .5.23.5.5V3zM1 3.5c0-.28.22-.5.51-.5h7.98c.28 0 .51.23.51.5 0 .28-.22.5-.51.5H1.51C1.23 4 1 3.77 1 3.5zM6 9c0-.28.23-.5.5-.5h10c.28 0 .5.23.5.5 0 .28-.23.5-.5.5h-10c-.28 0-.5-.23-.5-.5zm-5 5.5c0-.28.22-.5.49-.5h3.02c.27 0 .49.23.49.5 0 .28-.22.5-.49.5H1.49c-.27 0-.49-.23-.49-.5z" fill-rule="evenodd"/></svg>