<svg width="24" height="24" viewBox="0 0 24 24" xmlns="http://www.w3.org/2000/svg"><title>tune</title><path d="M6 13H3c-.55 0-1-.45-1-1 0-.56.44-1 1-1h3v-1c0-.55.45-1 1-1 .56 0 1 .44 1 1v4c0 .55-.45 1-1 1-.56 0-1-.44-1-1v-1zm8 5h7c.55 0 1 .44 1 1 0 .55-.46 1-1 1h-7v1c0 .56-.44 1-1 1-.55 0-1-.45-1-1v-4c0-.56.44-1 1-1 .55 0 1 .45 1 1v1zm4-14h3c.56 0 1 .44 1 1 0 .55-.45 1-1 1h-3v1c0 .56-.44 1-1 1-.55 0-1-.45-1-1V3c0-.56.44-1 1-1 .55 0 1 .45 1 1v1zM2 5c0-.55.46-1 1-1h10c.55 0 1 .44 1 1 0 .55-.46 1-1 1H3c-.55 0-1-.44-1-1zm0 14c0-.55.45-1 1-1h6c.55 0 1 .44 1 1 0 .55-.45 1-1 1H3c-.55 0-1-.44-1-1zm20-7c0 .56-.45 1-1 1H11c-.54 0-1-.45-1-1 0-.56.45-1 1-1h10c.54 0 1 .45 1 1z" fill-rule="evenodd"/></svg>