<svg width="16" height="16" viewBox="0 0 16 16" xmlns="http://www.w3.org/2000/svg"><title>tune--small</title><path d="M3.63 7.56V6.1c0-.24.2-.43.43-.43.24 0 .44.2.44.43v3.8c0 .24-.2.43-.44.43s-.43-.2-.43-.43V8.44h-2.2C1.2 8.44 1 8.24 1 8s.2-.44.44-.44h2.19zm2.62 4.82h8.31c.24 0 .44.2.44.43 0 .24-.2.44-.44.44H6.25v1.31c0 .24-.2.44-.44.44s-.43-.2-.43-.44v-3.79c0-.24.2-.44.43-.44.24 0 .44.2.44.44v1.6zm4.38-9.63h3.93c.24 0 .44.2.44.44s-.2.44-.44.44h-3.94v1.6c0 .24-.2.44-.43.44-.24 0-.44-.2-.44-.44v-3.8c0-.23.2-.43.44-.43s.44.2.44.44v1.31zm-9.2 0h7c.25 0 .45.2.45.44s-.2.44-.44.44h-7c-.24 0-.44-.2-.44-.44s.2-.44.44-.44zm4.38 4.81h8.75c.24 0 .44.2.44.44s-.2.44-.44.44H5.81c-.24 0-.43-.2-.43-.44s.2-.44.43-.44zm-4.37 4.82h2.62c.24 0 .44.2.44.43 0 .24-.2.44-.44.44H1.44c-.24 0-.44-.2-.44-.44s.2-.44.44-.44z" fill-rule="evenodd"/></svg>