<svg width="24" height="24" viewBox="0 0 24 24" xmlns="http://www.w3.org/2000/svg"><title>wifi</title><path d="M15.79 2c-2.27 0-4.4.89-6.01 2.5l1.13 1.13c1.3-1.31 3.04-2.03 4.88-2.03 1.82 0 3.52.7 4.84 2.02l.57-.56.53-.6C20.14 2.87 18.03 2 15.79 2zm2.46 5.06l.54-.6.48-.64c-1.98-1.72-5.14-1.7-7.06.05l1.08 1.18c1.34-1.22 3.55-1.23 4.96 0zm1.35 8.2h-16v3.03c0 .98.72 1.77 1.6 1.77H18c.88 0 1.6-.8 1.6-1.77v-3.03zm-3.2-1.6h4.8v4.63c0 1.86-1.44 3.37-3.2 3.37H5.2c-1.76 0-3.2-1.51-3.2-3.37v-4.63h12.8v-6h1.6v6zm-11.2 4c0-.66.54-1.2 1.2-1.2.66 0 1.2.54 1.2 1.2 0 .66-.54 1.2-1.2 1.2-.66 0-1.2-.54-1.2-1.2z" fill-rule="evenodd"/></svg>