<svg width="18" height="18" viewBox="0 0 18 18" xmlns="http://www.w3.org/2000/svg"><title>wifi--small</title><path d="M16.18 11.94H1.9v2.56c0 .87.68 1.58 1.53 1.58h11.22c.84 0 1.53-.7 1.53-1.58v-2.56zm-2.66-.89h3.56v3.45c0 1.36-1.1 2.47-2.43 2.47H3.43C2.09 16.97 1 15.87 1 14.5v-3.45h11.64V5.6h.88v5.46zM13.1 1c-1.82 0-3.53.72-4.81 2.02l.63.61c1.12-1.13 2.6-1.75 4.17-1.75 1.56 0 3.02.61 4.15 1.75l.6-.64C16.57 1.7 14.89 1 13.1 1zm2.17 3.6l.3-.33.26-.36c-1.56-1.37-4.04-1.36-5.54.04l.6.64c1.18-1.1 3.13-1.1 4.38 0zM2.97 14c0-.55.45-1 1-1 .57 0 1.02.45 1.02 1 0 .56-.45 1.01-1.01 1.01s-1.01-.45-1.01-1z" fill-rule="evenodd"/></svg>