<svg width="18" height="18" viewBox="0 0 18 18" xmlns="http://www.w3.org/2000/svg"><title>announce--small</title><path d="M9.321 1a3.536 3.536 0 0 1 3.536 3.536v4.642a3.536 3.536 0 0 1-7.071 0V4.536A3.536 3.536 0 0 1 9.32 1zm0 1c-1.228 0-2.256.86-2.488 2.036h.88a.5.5 0 1 1 .001 1h-.928v1.321h.926a.5.5 0 1 1 .002 1h-.928v1.321h.926a.5.5 0 1 1 .002 1h-.881a2.518 2.518 0 0 0 2.488 2.036c1.232 0 2.26-.858 2.489-2.036h-.875a.5.5 0 1 1-.047-1H11.857V7.357h-.922a.5.5 0 1 1-.047-1H11.857V5.036h-.922a.5.5 0 1 1-.047-1h.921A2.523 2.523 0 0 0 9.321 2zM4.838 5.766A.498.498 0 0 1 5 6.143v3.035c0 2.4 1.921 4.322 4.321 4.322 2.4 0 4.322-1.921 4.322-4.322V6.145a.5.5 0 1 1 1-.002v3.035a5.319 5.319 0 0 1-4.822 5.3V16h2.534a.5.5 0 1 1 .002 1H6.292a.5.5 0 1 1-.046-1H8.82v-1.523a5.319 5.319 0 0 1-4.82-5.299V6.146a.5.5 0 0 1 .837-.38z" fill-rule="nonzero"/></svg>