<svg width="24" height="24" viewBox="0 0 24 24" xmlns="http://www.w3.org/2000/svg"><title>announce</title><path d="M12.152 2a4.42 4.42 0 0 1 4.42 4.42v5.803a4.42 4.42 0 0 1-8.84 0V6.42A4.42 4.42 0 0 1 12.152 2zm0 1.25a3.154 3.154 0 0 0-3.11 2.545h1.098a.625.625 0 1 1 .003 1.25h-1.16v1.651h1.157a.625.625 0 1 1 .003 1.25h-1.16v1.652h1.157a.625.625 0 1 1 .003 1.25H9.04a3.148 3.148 0 0 0 3.11 2.545 3.148 3.148 0 0 0 3.111-2.545H14.17a.625.625 0 1 1-.059-1.25h1.211V9.946H14.17a.625.625 0 1 1-.059-1.25h1.211V7.044H14.17a.625.625 0 1 1-.059-1.25H15.262a3.154 3.154 0 0 0-3.11-2.544zM6.547 7.958a.623.623 0 0 1 .203.47v3.795c0 3 2.401 5.402 5.402 5.402 3 0 5.401-2.401 5.401-5.402V8.431a.625.625 0 1 1 1.25-.003v3.795a6.648 6.648 0 0 1-6.026 6.624v1.903h3.167a.625.625 0 1 1 .002 1.25h-7.58a.625.625 0 1 1-.059-1.25H11.527v-1.903A6.648 6.648 0 0 1 5.5 12.223v-3.79a.625.625 0 0 1 1.047-.475z" fill-rule="nonzero"/></svg>