<svg width="24" height="24" viewBox="0 0 24 24" xmlns="http://www.w3.org/2000/svg"><title>archive</title><path d="M1.714 5.143h20.572V3.429H1.714v1.714zm18.857 1.714H3.43v12c0 .946.768 1.714 1.714 1.714h13.714c.946 0 1.714-.768 1.714-1.714v-12zM24 3.43v1.714a1.72 1.72 0 0 1-1.714 1.714v12a3.432 3.432 0 0 1-3.429 3.429H5.143a3.432 3.432 0 0 1-3.429-3.429v-12A1.72 1.72 0 0 1 0 5.143V3.429a1.72 1.72 0 0 1 1.714-1.715h20.572A1.72 1.72 0 0 1 24 3.43zm-18.857 6c0-.474.384-.858.857-.858h12a.857.857 0 1 1 0 1.715H6a.857.857 0 0 1-.857-.857z" fill-rule="evenodd"/></svg>