<svg width="20" height="20" viewBox="0 0 20 20" xmlns="http://www.w3.org/2000/svg"><title>audio--small</title><path d="M11.415 5.721a6.349 6.349 0 0 1 .034 7.054.5.5 0 0 1-.835-.549 5.353 5.353 0 0 0-.028-5.946.501.501 0 0 1 .135-.695.501.501 0 0 1 .694.136zM15 9.291c0 1.624-.479 3.138-.901 4.473l-.121.386a.5.5 0 0 1-.955-.299l.123-.389c.4-1.266.854-2.7.854-4.172 0-1.486-.454-2.974-.856-4.288l-.108-.357a.5.5 0 1 1 .957-.289l.108.354c.4 1.312.899 2.945.899 4.58zm.367 6.55a.498.498 0 0 1-.706.027.5.5 0 0 1-.027-.708c3.135-3.385 3.135-7.934 0-11.32a.5.5 0 1 1 .733-.68c3.512 3.792 3.512 8.888 0 12.68zM8.5 12.95l-3.084-2.505a.493.493 0 0 0-.315-.113H3V8.167h2.101a.497.497 0 0 0 .315-.112L8.5 5.55v7.4zm.715-8.902a.497.497 0 0 0-.53.064L4.923 7.167H2.5a.5.5 0 0 0-.5.5v3.166a.5.5 0 0 0 .5.5h2.423l3.762 3.055A.5.5 0 0 0 9.5 14V4.5a.499.499 0 0 0-.285-.45z" fill-rule="evenodd"/></svg>