<svg width="28" height="28" viewBox="0 0 28 28" xmlns="http://www.w3.org/2000/svg"><title>audio</title><path d="M16.07 18.347a8.016 8.016 0 0 0-.044-8.905 1 1 0 0 0-1.658 1.117 6.018 6.018 0 0 1 .03 6.688.999.999 0 1 0 1.671 1.1zm3.08 1.548l.147-.465c.49-1.548 1.098-3.474 1.098-5.483 0-2.021-.607-4.01-1.096-5.608l-.129-.427a1 1 0 0 0-1.914.578l.132.434c.473 1.546 1.008 3.3 1.008 5.023 0 1.7-.534 3.39-1.005 4.88l-.15.473a1 1 0 1 0 1.91.595zm1.579 2.18c4.361-4.71 4.361-11.042 0-15.753A1 1 0 0 0 19.26 7.68c3.667 3.959 3.667 9.076 0 13.036a1 1 0 0 0 1.468 1.359zm-14.73-7.277h2.12c.23 0 .453.079.63.224l3.049 2.475V10.3L8.75 12.776c-.178.144-.401.223-.631.223h-2.12v1.799zm6.798 5.8a.995.995 0 0 1-.63-.225l-4.403-3.576H5a1 1 0 0 1-1-1V12a1 1 0 0 1 1-1h2.764l4.403-3.575c.3-.243.713-.29 1.06-.127.348.166.57.518.57.904v11.396a1 1 0 0 1-1 1z" fill-rule="evenodd"/></svg>