<svg width="16" height="16" viewBox="0 0 16 16" xmlns="http://www.w3.org/2000/svg"><title>audio--small</title><path d="M9.238 4.38a5.555 5.555 0 0 1 .03 6.173.437.437 0 0 1-.731-.48 4.684 4.684 0 0 0-.025-5.203.439.439 0 0 1 .118-.608.439.439 0 0 1 .608.119zm3.136 3.123c0 1.422-.419 2.747-.788 3.915l-.106.338a.438.438 0 0 1-.835-.262l.107-.34c.35-1.108.747-2.363.747-3.65 0-1.3-.397-2.603-.749-3.752l-.094-.313a.437.437 0 1 1 .837-.252l.095.31c.35 1.147.786 2.576.786 4.006zm.321 5.731a.435.435 0 0 1-.618.024.437.437 0 0 1-.023-.619c2.743-2.961 2.743-6.941 0-9.904a.437.437 0 1 1 .641-.595c3.073 3.318 3.073 7.777 0 11.094zm-6.008-2.528L3.99 8.515a.431.431 0 0 0-.276-.099H1.875V6.521h1.838c.1 0 .198-.034.276-.098L6.687 4.23v6.475zm.626-7.788a.435.435 0 0 0-.464.056L3.557 5.646h-2.12A.438.438 0 0 0 1 6.083v2.77c0 .243.196.438.437.438h2.12l3.292 2.673a.437.437 0 0 0 .713-.34V3.313a.436.436 0 0 0-.25-.395z" fill-rule="evenodd"/></svg>