<svg xmlns="http://www.w3.org/2000/svg" width="300" height="300" viewBox="0 0 300 300"><path fill-rule="evenodd" clip-rule="evenodd" d="M205.677 166.92c12.446 0 22.571 10.125 22.571 22.571 0 12.447-10.125 22.571-22.571 22.571-12.445 0-22.571-10.124-22.571-22.571-.001-12.446 10.125-22.571 22.571-22.571zm45.185-38.289c0-3.113-.878-5.926-3.992-5.926H53.889c-3.114 0-5.307 2.813-5.307 5.926v84.239c0 12.498 9.8 21.734 22.296 21.734h159.276c12.348 0 20.708-9.113 20.708-21.459v-84.514zm15.066-66.18c12.498 0 23.669 9.505 23.669 22.001v135.433c0 30.342-25.638 55.605-55.978 55.605H66.05c-30.342 0-54.05-25.264-54.05-55.605V84.452c0-12.496 9.243-22.001 21.741-22.001l21.616-.603c2.438 0 4.146-2.309 4.146-4.745 0 0-.454-6.673-.454-7.532 0-12.393 9.44-22.483 21.808-22.571 12.089-.083 21.523 10.1 21.523 22.189v7.725c0 2.701 2.694 5.537 5.395 5.537h81.934c2.71 0 5.203-2.826 5.203-5.537v-7.26c0-12.124 9.383-22.352 21.505-22.608 12.67-.269 22.759 9.998 22.759 22.605 0 .856-.312 7.607-.312 7.607 0 2.438 1.89 4.59 4.33 4.59l22.734.603z"/></svg>