<svg width="16" height="16" viewBox="0 0 16 16" xmlns="http://www.w3.org/2000/svg"><title>calendar-cross--small</title><path d="M14.411 4.733H1.79v-.72a2.439 2.439 0 0 1 2.437-2.435h.718v.394a.395.395 0 0 0 .79 0v-.394h4.733v.394a.395.395 0 0 0 .789 0v-.394h.718a2.439 2.439 0 0 1 2.437 2.434v.721zm0 7.032a2.432 2.432 0 0 1-2.437 2.435H4.226a2.433 2.433 0 0 1-2.437-2.435V5.522H14.41v6.243zM11.974.79h-.718V.394a.395.395 0 0 0-.79 0V.79H5.734V.394a.395.395 0 0 0-.789 0V.79h-.718A3.228 3.228 0 0 0 1 4.012v7.753a3.221 3.221 0 0 0 3.226 3.223h7.748a3.22 3.22 0 0 0 3.226-3.223V4.012A3.228 3.228 0 0 0 11.974.79zM10.513 12.14a.441.441 0 0 1-.625 0l-1.876-1.874-1.874 1.874a.442.442 0 0 1-.625-.624l1.874-1.875-1.874-1.875a.44.44 0 0 1 0-.625.44.44 0 0 1 .625 0l1.874 1.875 1.875-1.875a.442.442 0 1 1 .626.625L8.637 9.642l1.876 1.875a.442.442 0 0 1 0 .624" fill-rule="evenodd"/></svg>