<svg width="18" height="18" viewBox="0 0 18 18" xmlns="http://www.w3.org/2000/svg"><title>calendar-cross--small</title><path d="M16.3 5.4H1.9v-.823A2.782 2.782 0 0 1 4.68 1.8h.82v.45a.45.45 0 0 0 .9 0V1.8h5.4v.45a.45.45 0 0 0 .9 0V1.8h.82a2.782 2.782 0 0 1 2.78 2.777V5.4zm0 8.023a2.774 2.774 0 0 1-2.78 2.777H4.68a2.776 2.776 0 0 1-2.78-2.777V6.3h14.4v7.123zM13.52.9h-.82V.45a.45.45 0 0 0-.9 0V.9H6.4V.45a.45.45 0 0 0-.9 0V.9h-.82A3.683 3.683 0 0 0 1 4.577v8.846A3.675 3.675 0 0 0 4.68 17.1h8.84a3.673 3.673 0 0 0 3.68-3.677V4.577A3.682 3.682 0 0 0 13.52.9zm-1.667 12.952a.504.504 0 0 1-.713 0L9 11.712l-2.139 2.14a.505.505 0 0 1-.713-.713l2.139-2.14-2.139-2.138a.503.503 0 0 1 0-.713.503.503 0 0 1 .713 0L9 10.287l2.139-2.139a.504.504 0 1 1 .714.713L9.713 11l2.14 2.139a.505.505 0 0 1 0 .713" fill-rule="evenodd"/></svg>