<svg width="20" height="20" viewBox="0 0 20 20" xmlns="http://www.w3.org/2000/svg"><title>calendar-plus--small</title><path d="M18 5.086A3.092 3.092 0 0 0 14.911 2H14v.5a.5.5 0 0 1-1 0V2H7v.5a.5.5 0 0 1-1 0V2h-.911A3.092 3.092 0 0 0 2 5.086V6h16v-.914zM18 7H2v7.914A3.082 3.082 0 0 0 5.089 18h9.822A3.082 3.082 0 0 0 18 14.914V7zm1-1.914v9.828A4.08 4.08 0 0 1 14.911 19H5.089A4.082 4.082 0 0 1 1 14.914V5.086A4.092 4.092 0 0 1 5.089 1H6V.5a.5.5 0 0 1 1 0V1h6V.5a.5.5 0 0 1 1 0V1h.911A4.091 4.091 0 0 1 19 5.086zM6 12.55a.5.5 0 0 1 .5-.5h3v-3a.5.5 0 0 1 1 0v3h3a.5.5 0 1 1 0 1h-3v3a.5.5 0 0 1-1 0v-3h-3a.5.5 0 0 1-.5-.5z" fill-rule="evenodd"/></svg>