<svg width="24" height="24" viewBox="0 0 24 24" xmlns="http://www.w3.org/2000/svg"><title>calendar-check</title><path d="M3.903 8.23h15.734v-.885c0-1.646-1.277-2.986-2.847-2.986h-1.119V5.2a1.027 1.027 0 0 1-2.052 0V4.36H9.922V5.2a1.027 1.027 0 0 1-2.054 0V4.36H6.75c-1.57 0-2.847 1.34-2.847 2.986v.885zm0 1.376v8.232c0 .403.075.794.224 1.161.449 1.107 1.478 1.822 2.623 1.822h10.04c1.145 0 2.174-.715 2.623-1.822a3.07 3.07 0 0 0 .224-1.16V9.605H3.903zM16.79 22.2H6.75c-1.685 0-3.197-1.046-3.853-2.667a4.507 4.507 0 0 1-.327-1.695V7.345c0-2.407 1.875-4.362 4.18-4.362h1.118v-.247a1.028 1.028 0 0 1 2.054 0v.247h3.697v-.247a1.027 1.027 0 0 1 2.052 0v.247h1.119c2.305 0 4.18 1.955 4.18 4.362v10.493a4.49 4.49 0 0 1-.328 1.695c-.655 1.62-2.167 2.667-3.852 2.667zm-6.162-3.5v.2a.637.637 0 0 1-.46-.197l-2.681-2.786a.677.677 0 0 1 0-.934.635.635 0 0 1 .92 0l2.221 2.308 4.902-5.094a.635.635 0 0 1 .92 0c.25.26.25.675 0 .934l-5.362 5.572a.637.637 0 0 1-.46.197v-.2z" fill-rule="evenodd"/></svg>