<svg width="28" height="28" viewBox="0 0 28 28" xmlns="http://www.w3.org/2000/svg"><title>calendar-plus</title><path d="M22.48 8.6c0-1.927-1.457-3.497-3.25-3.497h-1.277v.986c0 .662-.526 1.2-1.171 1.2-.646 0-1.171-.538-1.171-1.2v-.986h-4.22v.986c0 .662-.525 1.2-1.172 1.2-.646 0-1.172-.538-1.172-1.2v-.986H7.77c-1.792 0-3.25 1.57-3.25 3.497v1.037H22.48V8.6zm0 2.649H4.52v9.642c0 .472.087.93.256 1.36.513 1.296 1.686 2.134 2.994 2.134H19.23c1.308 0 2.48-.838 2.994-2.134a3.68 3.68 0 0 0 .256-1.36v-9.642zM24 8.599v12.292a5.35 5.35 0 0 1-.375 1.985C22.878 24.775 21.154 26 19.23 26H7.77c-1.923 0-3.649-1.225-4.397-3.124A5.388 5.388 0 0 1 3 20.89V8.6c0-2.818 2.14-5.11 4.77-5.11h1.276v-.288c0-.663.526-1.202 1.171-1.202.648 0 1.172.539 1.172 1.202v.289h4.22V3.2c0-.662.526-1.201 1.172-1.201.645 0 1.171.539 1.171 1.202v.289h1.277C21.86 3.49 24 5.78 24 8.6zM9.25 17.75A.75.75 0 0 1 10 17h3v-3a.75.75 0 1 1 1.5 0v3h3a.75.75 0 0 1 0 1.5h-3v3a.75.75 0 0 1-1.5 0v-3h-3a.75.75 0 0 1-.75-.75z" fill-rule="evenodd"/></svg>