<svg width="24" height="24" viewBox="0 0 24 24" xmlns="http://www.w3.org/2000/svg"><title>calendar-plus</title><path d="M19.696 7.657c0-1.652-1.249-2.997-2.785-2.997h-1.094v.845c0 .567-.451 1.028-1.005 1.028a1.017 1.017 0 0 1-1.003-1.028V4.66H10.19v.845c0 .567-.45 1.028-1.004 1.028a1.018 1.018 0 0 1-1.005-1.028V4.66H7.09c-1.536 0-2.785 1.345-2.785 2.997v.889h15.392v-.889zm0 2.27H4.304v8.265c0 .405.073.798.22 1.166.438 1.11 1.444 1.83 2.565 1.83h9.822c1.12 0 2.126-.72 2.566-1.83.146-.368.22-.761.22-1.166V9.928zM21 7.658v10.535c0 .59-.107 1.163-.321 1.702-.64 1.627-2.12 2.677-3.768 2.677H7.089c-1.649 0-3.127-1.05-3.77-2.677A4.618 4.618 0 0 1 3 18.192V7.657c0-2.415 1.834-4.379 4.09-4.379h1.092V3.03c0-.568.452-1.03 1.005-1.03.554 0 1.004.462 1.004 1.03v.248h3.618V3.03c0-.568.45-1.03 1.003-1.03.554 0 1.005.462 1.005 1.03v.248h1.094c2.255 0 4.089 1.964 4.089 4.38zM8.357 15.5c0-.355.287-.643.643-.643h2.571v-2.571a.643.643 0 1 1 1.286 0v2.571h2.572a.643.643 0 0 1 0 1.286h-2.572v2.571a.643.643 0 0 1-1.286 0v-2.571H9a.643.643 0 0 1-.643-.643z" fill-rule="evenodd"/></svg>