<svg width="24" height="24" viewBox="0 0 24 24" xmlns="http://www.w3.org/2000/svg"><title>camera</title><path d="M22.286 18.667c0 .92-.768 1.666-1.715 1.666H3.43c-.947 0-1.715-.746-1.715-1.666v-10C1.714 7.747 2.482 7 3.43 7H20.57c.947 0 1.715.747 1.715 1.667v10zm-12.857-15h5.142c.571 0 .858 0 1.715 1.666H7.714c.857-1.666 1.144-1.666 1.715-1.666zM20.57 5.333h-1.714l-1.714-2.5C16.825 2.37 16.286 2 15.429 2H8.57c-.857 0-1.396.37-1.714.833l-1.714 2.5H3.429C1.535 5.333 0 6.826 0 8.667v10C0 20.507 1.535 22 3.429 22H20.57C22.465 22 24 20.508 24 18.667v-10c0-1.841-1.535-3.334-3.429-3.334zM12 17c-1.89 0-3.429-1.495-3.429-3.332 0-1.839 1.538-3.335 3.429-3.335 1.89 0 3.429 1.496 3.429 3.335C15.429 15.505 13.89 17 12 17zm0-8.333c-2.839 0-5.143 2.237-5.143 5 0 2.764 2.304 5 5.143 5s5.143-2.236 5.143-5c0-2.763-2.304-5-5.143-5z" fill-rule="evenodd"/></svg>