<svg width="16" height="16" viewBox="0 0 16 16" xmlns="http://www.w3.org/2000/svg"><title>camera--small</title><path d="M8 12.062c-1.544 0-2.8-1.24-2.8-2.766 0-1.525 1.256-2.765 2.8-2.765 1.544 0 2.8 1.24 2.8 2.765 0 1.525-1.256 2.766-2.8 2.766zM8 5.74c-1.988 0-3.6 1.592-3.6 3.555 0 1.964 1.612 3.556 3.6 3.556s3.6-1.592 3.6-3.556c0-1.963-1.612-3.555-3.6-3.555zm7.2 7.901c0 .436-.36.79-.8.79H1.6c-.44 0-.8-.354-.8-.79V4.951c0-.437.36-.79.8-.79h12.8c.44 0 .8.353.8.79v8.691zM5.158 2.06c.061-.121.305-.27.442-.27h4.8c.137 0 .38.149.442.27l.664 1.31H4.494l.664-1.31zM14.4 3.37h-2l-.842-1.663C11.36 1.317 10.84 1 10.4 1H5.6c-.44 0-.96.318-1.158.707L3.6 3.37h-2c-.88 0-1.6.711-1.6 1.58v8.692c0 .87.72 1.58 1.6 1.58h12.8c.88 0 1.6-.71 1.6-1.58V4.951c0-.87-.72-1.58-1.6-1.58z" fill-rule="evenodd"/></svg>