<svg width="24" height="24" viewBox="0 0 24 24"><path fill-rule="evenodd" d="M7.05 16.95c-2.728-2.729-2.728-7.171 0-9.9 2.729-2.728 7.171-2.728 9.9 0 2.728 2.729 2.728 7.171 0 9.9-2.729 2.728-7.171 2.728-9.9 0M18.364 5.636a9 9 0 0 0-12.728 0 9 9 0 0 0 0 12.728 9 9 0 0 0 12.728 0 9 9 0 0 0 0-12.728M10.441 16c-.279 0-.545-.114-.736-.315l-2.432-2.57a.993.993 0 0 1 .046-1.413 1.013 1.013 0 0 1 1.425.045l1.682 1.776 3.817-4.193a1.016 1.016 0 0 1 1.424-.073.995.995 0 0 1 .073 1.413l-4.55 5c-.19.208-.457.327-.74.33h-.01z"/></svg>