<svg width="20" height="20" viewBox="0 0 20 20" xmlns="http://www.w3.org/2000/svg"><title>clock-arrow--small</title><path d="M18.892 9.995l-2.048-2.047a.546.546 0 0 0-.755-.001L14.04 9.995a.536.536 0 0 0 0 .756c.203.201.616.202.817.001l1.098-1.121-.022.369c-.014 4-3.118 6.92-6.933 6.92-3.823 0-6.933-3.105-6.933-6.927 0-3.821 3.11-6.929 6.933-6.929 1.802 0 3.508.689 4.804 1.937a.533.533 0 0 0 .74-.768A7.958 7.958 0 0 0 9 2C4.589 2 1 5.588 1 9.999 1 14.411 4.589 18 9 18c4.412 0 8.001-3.589 8.001-8.001 0-.005-.003-.009-.003-.013l-.02-.394 1.159 1.159a.546.546 0 0 0 .755.001.534.534 0 0 0 0-.757m-6.369 1.663a.501.501 0 0 1-.632.316l-3-1a.5.5 0 0 1-.342-.474v-4a.5.5 0 0 1 1 0v3.641l2.658.884a.5.5 0 0 1 .316.633" fill-rule="evenodd"/></svg>