<svg width="24" height="24" viewBox="0 0 24 24" xmlns="http://www.w3.org/2000/svg"><title>clock</title><path d="M16.08 14.04a.833.833 0 0 1-1.12.372l-3.333-1.667a.833.833 0 0 1-.46-.745V7a.833.833 0 1 1 1.666 0v4.485l2.874 1.436a.834.834 0 0 1 .372 1.118M12 20.333c-4.595 0-8.333-3.738-8.333-8.333 0-4.595 3.738-8.333 8.333-8.333 4.596 0 8.333 3.738 8.333 8.333 0 4.595-3.737 8.333-8.333 8.333M12 2C6.478 2 2 6.477 2 12s4.478 10 10 10c5.523 0 10-4.477 10-10S17.523 2 12 2" fill-rule="evenodd"/></svg>