<svg width="28" height="28" viewBox="0 0 28 28" xmlns="http://www.w3.org/2000/svg"><title>clock-arrow</title><path d="M17.9 16.7c-.18.35-.53.55-.9.55-.15 0-.3-.03-.45-.1l-4-2c-.34-.18-.55-.52-.55-.9v-6c0-.55.45-1 1-1s1 .45 1 1v5.38l3.45 1.73c.5.24.7.84.44 1.34m8.7-3.38l-2.88-2.88c-.18-.19-.44-.3-.71-.3-.27 0-.52.11-.7.3l-2.89 2.88c-.39.39-.39 1.02 0 1.41.18.19.46.29.75.29.3 0 .57-.1.75-.28L22 13.63c-.09 5.35-4.15 9.35-9.5 9.35-5.24 0-9.5-4.26-9.5-9.5C3 8.27 7.26 4 12.5 4c2.47 0 4.8.94 6.58 2.65.19.18.44.28.7.28.27 0 .53-.1.72-.3.18-.2.28-.45.28-.72 0-.26-.12-.51-.3-.7C18.31 3.14 15.48 2 12.5 2 6.16 2 1 7.16 1 13.5S6.16 25 12.5 25c6.32 0 11.47-5.13 11.5-11.44l1.17 1.17c.18.19.44.29.71.29.27 0 .53-.1.7-.28.2-.2.3-.45.3-.71 0-.27-.1-.52-.3-.71" fill-rule="evenodd"/></svg>