<svg width="24" height="24" viewBox="0 0 24 24" xmlns="http://www.w3.org/2000/svg"><title>clock-arrow</title><path d="M15.39 14.36a.857.857 0 0 1-1.155.384l-3.44-1.72a.86.86 0 0 1-.475-.769v-5.16a.86.86 0 1 1 1.72 0v4.63l2.965 1.48a.86.86 0 0 1 .384 1.155m7.477-2.908l-2.478-2.477a.861.861 0 0 0-.608-.247c-.23 0-.451.09-.608.246l-2.478 2.477a.867.867 0 0 0 0 1.22.917.917 0 0 0 .647.245.912.912 0 0 0 .644-.243l.934-.954c-.077 4.6-3.568 8.044-8.17 8.044-4.503 0-8.169-3.662-8.169-8.162 0-4.501 3.666-8.163 8.17-8.163 2.121 0 4.132.81 5.66 2.28.162.156.373.241.597.241.239 0 .46-.093.62-.262a.86.86 0 0 0-.022-1.214A9.832 9.832 0 0 0 10.75 1.72C5.296 1.72.86 6.156.86 11.61c0 5.454 4.436 9.891 9.89 9.891 5.436 0 9.862-4.408 9.89-9.839l1.008 1.01a.86.86 0 0 0 .61.246c.229 0 .45-.089.606-.245a.86.86 0 0 0 .002-1.22" fill-rule="evenodd"/></svg>