<svg width="16" height="16" viewBox="0 0 16 16" xmlns="http://www.w3.org/2000/svg"><title>clock-arrow--small</title><path d="M15.254 8.152l-1.648-1.647a.44.44 0 0 0-.607 0L11.35 8.151a.431.431 0 0 0 0 .608c.164.162.496.162.658 0l.883-.901-.018.297c-.011 3.218-2.508 5.567-5.577 5.567A5.58 5.58 0 0 1 1.718 8.15a5.582 5.582 0 0 1 5.578-5.574c1.45 0 2.822.554 3.865 1.558a.429.429 0 0 0 .595-.618 6.402 6.402 0 0 0-4.46-1.796A6.443 6.443 0 0 0 .86 8.155a6.443 6.443 0 0 0 6.436 6.437 6.444 6.444 0 0 0 6.436-6.437l-.002-.01-.016-.317.932.932a.44.44 0 0 0 .608 0 .43.43 0 0 0 0-.608M10.13 9.49a.403.403 0 0 1-.508.254l-2.414-.805a.402.402 0 0 1-.275-.38V5.34a.402.402 0 0 1 .804 0v2.93l2.139.71c.21.071.325.299.254.51" fill-rule="evenodd"/></svg>