<svg width="16" height="16" viewBox="0 0 16 16" xmlns="http://www.w3.org/2000/svg"><title>cog--small</title><path d="M8 9.556A1.557 1.557 0 0 1 6.444 8c0-.858.698-1.556 1.556-1.556.858 0 1.556.698 1.556 1.556 0 .858-.698 1.556-1.556 1.556zm0-3.89A2.336 2.336 0 0 0 5.667 8 2.336 2.336 0 0 0 8 10.333 2.336 2.336 0 0 0 10.333 8 2.336 2.336 0 0 0 8 5.667zm4.274 3.44c-.104.4-.262.782-.47 1.136a.387.387 0 0 0 .06.472l.536.536a.813.813 0 0 1-1.15 1.15l-.536-.536a.385.385 0 0 0-.472-.06 4.432 4.432 0 0 1-1.137.47.39.39 0 0 0-.291.376v.759a.814.814 0 0 1-1.628 0v-.759a.39.39 0 0 0-.291-.376 4.425 4.425 0 0 1-1.137-.47.386.386 0 0 0-.472.06l-.536.536a.813.813 0 0 1-1.15-1.15l.536-.536a.387.387 0 0 0 .06-.472 4.432 4.432 0 0 1-.47-1.137.39.39 0 0 0-.376-.291H2.59a.814.814 0 0 1 0-1.628h.759a.39.39 0 0 0 .376-.291c.104-.4.261-.782.47-1.137a.387.387 0 0 0-.06-.472L3.6 4.75A.813.813 0 0 1 4.75 3.6l.536.536c.126.126.32.15.472.06a4.432 4.432 0 0 1 1.137-.47.39.39 0 0 0 .291-.376V2.59a.814.814 0 0 1 1.628 0v.759c0 .176.12.331.291.376.4.104.782.261 1.137.47a.384.384 0 0 0 .472-.06l.536-.536a.813.813 0 0 1 1.15 1.15l-.536.536a.387.387 0 0 0-.06.472c.209.355.366.737.47 1.137a.39.39 0 0 0 .376.291h.759a.814.814 0 0 1 0 1.628h-.759a.39.39 0 0 0-.376.291zm1.135.485C14.286 9.591 15 8.877 15 8s-.714-1.591-1.591-1.591h-.467a5.12 5.12 0 0 0-.322-.78l.33-.33A1.591 1.591 0 0 0 10.7 3.05l-.33.33a5.12 5.12 0 0 0-.779-.322v-.467C9.591 1.714 8.877 1 8 1s-1.591.714-1.591 1.591v.467a5.12 5.12 0 0 0-.78.322l-.33-.33A1.591 1.591 0 0 0 3.05 5.3l.331.33a5.12 5.12 0 0 0-.322.779h-.467C1.714 6.409 1 7.123 1 8s.714 1.591 1.591 1.591h.467c.086.269.194.53.322.78l-.33.33A1.591 1.591 0 0 0 5.3 12.95l.33-.33c.249.128.51.236.779.322v.467C6.409 14.286 7.123 15 8 15s1.591-.714 1.591-1.591v-.467a5.12 5.12 0 0 0 .78-.322l.33.33a1.591 1.591 0 0 0 2.25-2.25l-.331-.33c.128-.249.236-.51.322-.779h.467z" fill-rule="evenodd"/></svg>