<svg width="20" height="20" viewBox="0 0 20 20"><path fill-rule="evenodd" d="M10 12c-1.103 0-2-.897-2-2s.897-2 2-2 2 .897 2 2-.897 2-2 2zm0-5c-1.654 0-3 1.346-3 3s1.346 3 3 3 3-1.346 3-3-1.346-3-3-3zm5.495 4.421a5.69 5.69 0 0 1-.604 1.461.498.498 0 0 0 .077.607l.689.69a1.045 1.045 0 0 1-1.478 1.478l-.69-.689a.495.495 0 0 0-.607-.077 5.698 5.698 0 0 1-1.461.604.501.501 0 0 0-.375.484v.975a1.047 1.047 0 0 1-2.092 0v-.975a.501.501 0 0 0-.375-.484 5.69 5.69 0 0 1-1.461-.604.497.497 0 0 0-.607.077l-.69.689a1.045 1.045 0 0 1-1.478-1.478l.689-.69a.498.498 0 0 0 .077-.607 5.698 5.698 0 0 1-.604-1.461.501.501 0 0 0-.484-.375h-.975a1.047 1.047 0 0 1 0-2.092h.975a.501.501 0 0 0 .484-.375 5.698 5.698 0 0 1 .604-1.461.498.498 0 0 0-.077-.607l-.689-.69a1.045 1.045 0 0 1 1.478-1.478l.69.689c.161.162.41.194.607.077a5.698 5.698 0 0 1 1.461-.604.501.501 0 0 0 .375-.484v-.975a1.047 1.047 0 0 1 2.092 0v.975c0 .227.154.426.375.484a5.698 5.698 0 0 1 1.461.604.494.494 0 0 0 .607-.077l.69-.689a1.045 1.045 0 0 1 1.478 1.478l-.689.69a.498.498 0 0 0-.077.607c.268.456.471.947.604 1.461a.501.501 0 0 0 .484.375h.975a1.047 1.047 0 0 1 0 2.092h-.975a.501.501 0 0 0-.484.375zm1.459.625A2.049 2.049 0 0 0 19 10a2.049 2.049 0 0 0-2.046-2.046h-.6a6.583 6.583 0 0 0-.414-1.002l.424-.424a2.046 2.046 0 0 0-2.892-2.892l-.424.424a6.583 6.583 0 0 0-1.002-.414v-.6A2.049 2.049 0 0 0 10 1a2.049 2.049 0 0 0-2.046 2.046v.6c-.345.11-.68.249-1.002.414l-.424-.424a2.046 2.046 0 0 0-2.892 2.892l.424.424a6.583 6.583 0 0 0-.414 1.002h-.6A2.049 2.049 0 0 0 1 10c0 1.128.918 2.046 2.046 2.046h.6c.11.345.249.68.414 1.002l-.424.424a2.046 2.046 0 0 0 2.892 2.892l.424-.424a6.5 6.5 0 0 0 1.002.414v.6C7.954 18.082 8.872 19 10 19a2.049 2.049 0 0 0 2.046-2.046v-.6c.345-.11.68-.249 1.002-.414l.424.424a2.046 2.046 0 0 0 2.892-2.892l-.424-.424a6.5 6.5 0 0 0 .414-1.002h.6z"/></svg>