<svg width="20" height="20" viewBox="0 0 20 20" xmlns="http://www.w3.org/2000/svg"><title>cog--small</title><path d="M10 8c1.1 0 2 .9 2 2s-.9 2-2 2-2-.9-2-2 .9-2 2-2zm0 5c1.65 0 3-1.35 3-3s-1.35-3-3-3-3 1.35-3 3 1.35 3 3 3zM4.5 8.58c.14-.52.34-1 .6-1.46.13-.2.1-.45-.07-.6l-.69-.7c-.4-.4-.4-1.07 0-1.48.41-.4 1.07-.4 1.48 0l.7.7c.15.15.4.19.6.07.45-.27.94-.47 1.46-.6.22-.06.37-.26.37-.49v-.97C8.95 2.47 9.42 2 10 2c.58 0 1.05.47 1.05 1.05v.97c0 .23.15.43.37.49.52.13 1 .33 1.46.6.08.05.17.07.26.07.12 0 .25-.05.35-.15l.69-.69c.4-.4 1.07-.4 1.48 0 .4.41.4 1.07 0 1.48l-.7.7c-.15.15-.19.4-.07.6.27.45.47.95.6 1.46.06.22.26.37.49.37h.97c.58 0 1.05.47 1.05 1.05 0 .58-.47 1.05-1.05 1.05h-.97c-.23 0-.43.15-.49.37-.13.52-.33 1-.6 1.46-.12.2-.08.45.08.6l.69.7c.4.4.4 1.07 0 1.48-.41.4-1.07.4-1.48 0l-.7-.7c-.15-.15-.4-.19-.6-.07-.45.27-.95.47-1.46.6-.22.06-.37.26-.37.49v.97c0 .58-.47 1.05-1.05 1.05-.58 0-1.05-.47-1.05-1.05v-.97c0-.23-.15-.43-.37-.48-.52-.14-1-.34-1.46-.6-.2-.13-.45-.1-.6.07l-.7.69c-.4.4-1.07.4-1.48 0-.4-.41-.4-1.07 0-1.48l.7-.7c.15-.15.19-.4.07-.6-.27-.45-.47-.94-.6-1.46-.06-.22-.26-.37-.49-.37h-.97C2.47 11.05 2 10.58 2 10c0-.58.47-1.05 1.05-1.05h.97c.23 0 .43-.15.48-.37zm-1.45-.63C1.92 7.95 1 8.87 1 10s.92 2.05 2.05 2.05h.6c.1.34.24.68.41 1l-.42.42c-.8.8-.8 2.1 0 2.9.8.8 2.1.8 2.89 0l.42-.43c.32.17.66.3 1 .41v.6c0 1.13.92 2.05 2.05 2.05s2.05-.92 2.05-2.05v-.6c.34-.1.68-.24 1-.41l.42.42c.8.8 2.1.8 2.9 0 .8-.8.8-2.09 0-2.89l-.43-.42c.16-.32.3-.66.41-1h.6c1.13 0 2.05-.92 2.05-2.05s-.92-2.05-2.05-2.05h-.6c-.1-.34-.25-.68-.41-1l.42-.42c.8-.8.8-2.1 0-2.9-.8-.8-2.1-.8-2.89 0l-.42.43c-.32-.16-.66-.3-1-.41v-.6C12.05 1.92 11.13 1 10 1s-2.05.92-2.05 2.05v.6c-.34.1-.68.25-1 .41l-.42-.42c-.8-.8-2.1-.8-2.9 0-.8.8-.8 2.09 0 2.89l.43.42c-.17.32-.3.66-.41 1h-.6z" fill-rule="evenodd"/></svg>