<svg width="28" height="28" viewBox="0 0 28 28"><path fill-rule="evenodd" d="M14 16c-1.103 0-2-.897-2-2s.897-2 2-2 2 .897 2 2-.897 2-2 2zm0-6c-2.206 0-4 1.794-4 4s1.794 4 4 4 4-1.794 4-4-1.794-4-4-4zm7.738 5a1 1 0 0 0-.967.75 6.995 6.995 0 0 1-.747 1.799c-.231.392-.168.893.155 1.216l.891.892a1 1 0 0 1-1.413 1.414l-.892-.892a1.004 1.004 0 0 0-1.215-.155 7.046 7.046 0 0 1-1.8.747 1 1 0 0 0-.75.967V23a1 1 0 0 1-2 0v-1.262a1 1 0 0 0-.75-.967 6.995 6.995 0 0 1-1.799-.747.999.999 0 0 0-1.216.155l-.892.891a1 1 0 1 1-1.414-1.413l.892-.892a1 1 0 0 0 .155-1.215 7.046 7.046 0 0 1-.747-1.8 1 1 0 0 0-.967-.75H5a1 1 0 0 1 0-2h1.262a1 1 0 0 0 .967-.75 7.046 7.046 0 0 1 .747-1.8 1 1 0 0 0-.155-1.215l-.891-.892a1 1 0 0 1 1.413-1.414l.892.892c.324.323.824.385 1.215.155a7.046 7.046 0 0 1 1.8-.747 1 1 0 0 0 .75-.967V5a1 1 0 0 1 2 0v1.262a1 1 0 0 0 .75.967 7.046 7.046 0 0 1 1.8.747c.393.23.893.168 1.215-.155l.892-.891a1 1 0 1 1 1.414 1.413l-.892.892a1 1 0 0 0-.155 1.215c.331.562.582 1.167.747 1.8a1 1 0 0 0 .967.75H23a1 1 0 0 1 0 2h-1.262zM23 17c1.654 0 3-1.346 3-3s-1.346-3-3-3h-.522a9.015 9.015 0 0 0-.363-.873l.371-.37a3.008 3.008 0 0 0-.001-4.243 3.006 3.006 0 0 0-4.242.001l-.37.37A9.015 9.015 0 0 0 17 5.522V5c0-1.654-1.346-3-3-3s-3 1.346-3 3v.522a9.015 9.015 0 0 0-.873.363l-.37-.371a3.009 3.009 0 0 0-4.243.001 3.007 3.007 0 0 0 .001 4.242l.37.37a9.015 9.015 0 0 0-.363.873H5c-1.654 0-3 1.346-3 3s1.346 3 3 3h.522c.106.298.227.589.363.873l-.371.37a3.008 3.008 0 0 0 .001 4.243 3.006 3.006 0 0 0 4.242-.001l.37-.369c.284.136.575.256.873.362V23c0 1.654 1.346 3 3 3s3-1.346 3-3v-.522c.298-.106.589-.227.873-.363l.37.371a3.009 3.009 0 0 0 4.243-.001 3.007 3.007 0 0 0-.001-4.242l-.369-.37c.136-.284.256-.575.362-.873H23z"/></svg>