<svg width="24" height="24" viewBox="0 0 24 24" xmlns="http://www.w3.org/2000/svg"><title>cog</title><path d="M12 13.667c-.92 0-1.667-.748-1.667-1.667 0-.92.748-1.667 1.667-1.667.92 0 1.667.748 1.667 1.667 0 .92-.748 1.667-1.667 1.667zm0-5A3.337 3.337 0 0 0 8.667 12 3.337 3.337 0 0 0 12 15.333 3.337 3.337 0 0 0 15.333 12 3.337 3.337 0 0 0 12 8.667zm6.448 4.166c-.38 0-.71.258-.806.625a5.83 5.83 0 0 1-.622 1.5.835.835 0 0 0 .13 1.013l.742.743a.834.834 0 0 1-1.178 1.178l-.743-.743a.837.837 0 0 0-1.013-.129 5.872 5.872 0 0 1-1.5.622.833.833 0 0 0-.625.806V19.5a.834.834 0 0 1-1.666 0v-1.052c0-.38-.258-.71-.625-.806a5.83 5.83 0 0 1-1.5-.622.832.832 0 0 0-1.013.13l-.743.742a.833.833 0 1 1-1.178-1.178l.743-.743a.834.834 0 0 0 .129-1.013 5.872 5.872 0 0 1-.623-1.5.833.833 0 0 0-.805-.625H4.5a.834.834 0 0 1 0-1.666h1.052c.38 0 .71-.258.806-.625a5.872 5.872 0 0 1 .622-1.5.834.834 0 0 0-.13-1.013l-.742-.743a.834.834 0 0 1 1.178-1.178l.743.743c.27.269.687.32 1.013.129a5.872 5.872 0 0 1 1.5-.623.833.833 0 0 0 .625-.805V4.5a.834.834 0 0 1 1.666 0v1.052c0 .38.258.71.625.806a5.872 5.872 0 0 1 1.5.622.835.835 0 0 0 1.013-.13l.743-.742a.833.833 0 1 1 1.178 1.178l-.743.743a.834.834 0 0 0-.129 1.013c.276.468.485.972.622 1.5a.833.833 0 0 0 .806.625H19.5a.834.834 0 0 1 0 1.666h-1.052zM19.5 14.5c1.378 0 2.5-1.122 2.5-2.5s-1.122-2.5-2.5-2.5h-.435a7.512 7.512 0 0 0-.303-.727l.31-.309a2.507 2.507 0 0 0-.001-3.536 2.505 2.505 0 0 0-3.535.001l-.309.308a7.512 7.512 0 0 0-.727-.302V4.5C14.5 3.122 13.378 2 12 2a2.503 2.503 0 0 0-2.5 2.5v.435c-.248.088-.49.19-.727.303l-.309-.31a2.507 2.507 0 0 0-3.536.001 2.506 2.506 0 0 0 .001 3.535l.308.309c-.113.236-.214.479-.302.727H4.5A2.503 2.503 0 0 0 2 12c0 1.378 1.122 2.5 2.5 2.5h.435c.088.248.19.49.303.727l-.31.309a2.507 2.507 0 0 0 .001 3.536c.975.973 2.56.972 3.535-.001l.309-.308c.236.114.479.214.727.302v.435c0 1.378 1.122 2.5 2.5 2.5s2.5-1.122 2.5-2.5v-.435c.248-.088.49-.19.727-.303l.309.31a2.507 2.507 0 0 0 3.536-.001 2.506 2.506 0 0 0-.001-3.535l-.308-.309c.114-.236.214-.479.302-.727h.435z" fill-rule="evenodd"/></svg>