<svg width="24" height="24" viewBox="0 0 24 24"><path fill-rule="evenodd" d="M18.86 12.511l-2.957 4.97c-.19.32-.553.519-.947.519h-5.91a1.1 1.1 0 0 1-.95-.519L5.142 12.51a.997.997 0 0 1 0-1.02l2.956-4.97A1.1 1.1 0 0 1 9.046 6h5.91c.394 0 .758.199.947.519l2.957 4.971a1 1 0 0 1 0 1.021m1.718-2.043c.563.944.563 2.12 0 3.065l-2.956 4.97A3.108 3.108 0 0 1 14.956 20h-5.91a3.107 3.107 0 0 1-2.667-1.496v-.001l-2.957-4.971a2.997 2.997 0 0 1 0-3.065l2.956-4.97A3.108 3.108 0 0 1 9.046 4h5.91c1.095 0 2.117.574 2.666 1.496l2.956 4.972zM12 14c-1.103 0-2-.897-2-2s.897-2 2-2 2 .897 2 2-.897 2-2 2zm0-6c-2.206 0-4 1.794-4 4s1.794 4 4 4 4-1.794 4-4-1.794-4-4-4z"/></svg>