<svg width="24" height="24" viewBox="0 0 24 24" xmlns="http://www.w3.org/2000/svg"><title>copy</title><path d="M20.333 5.333c0-.919-.747-1.666-1.666-1.666h-7.451c-.92 0-1.716.747-1.716 1.666v7.451c0 .92.797 1.716 1.716 1.716h7.45c.92 0 1.667-.797 1.667-1.716v-7.45zm1.667 0v7.451c0 1.834-1.5 3.383-3.333 3.383h-7.451c-1.834 0-3.383-1.549-3.383-3.383v-7.45C7.833 3.5 9.382 2 11.216 2h7.45C20.5 2 22 3.5 22 5.333zm-9.167 12.5H14.5v1.226c0 1.617-1.367 2.941-2.984 2.941H4.94A2.95 2.95 0 0 1 2 19.06v-6.575C2 10.867 3.323 9.5 4.94 9.5h1.227v1.667H4.94c-.811 0-1.274.506-1.274 1.318v6.574c0 .81.463 1.274 1.274 1.274h6.575c.81 0 1.317-.464 1.317-1.274v-1.226z" fill-rule="evenodd"/></svg>