<svg width="16" height="16" viewBox="0 0 16 16" xmlns="http://www.w3.org/2000/svg"><title>copy--small</title><path d="M8.635 12.667h.81c-.35 1.336-1.56 2.333-3 2.333H4.11A3.12 3.12 0 0 1 1 11.889V9.556c0-1.442.998-2.651 2.333-3v.81a2.328 2.328 0 0 0-1.555 2.19v2.333a2.336 2.336 0 0 0 2.333 2.333h2.333a2.33 2.33 0 0 0 2.19-1.555zm5.587-4.896c0 1.287-1.047 2.562-2.333 2.562h-3.66c-1.287 0-2.562-1.275-2.562-2.562v-3.66c0-1.286 1.275-2.333 2.562-2.333h3.66a2.336 2.336 0 0 1 2.333 2.333v3.66zM11.89 1h-3.66c-1.712 0-3.34 1.4-3.34 3.111v3.66c0 1.711 1.628 3.34 3.34 3.34h3.66c1.71 0 3.11-1.629 3.11-3.34v-3.66A3.12 3.12 0 0 0 11.89 1z" fill-rule="evenodd"/></svg>