<svg width="28" height="28" viewBox="0 0 28 28"><path fill-rule="evenodd" d="M24 6c0-1.103-.897-2-2-2h-8.941C11.956 4 11 4.897 11 6v8.941c0 1.103.956 2.059 2.059 2.059H22c1.103 0 2-.956 2-2.059V6zm2 0v8.941C26 17.142 24.2 19 22 19h-8.941C10.858 19 9 17.142 9 14.941V6c0-2.2 1.858-4 4.059-4H22c2.2 0 4 1.8 4 4zM15 21h2v1.471C17 24.411 15.36 26 13.419 26h-7.89A3.54 3.54 0 0 1 2 22.471v-7.889C2 12.64 3.588 11 5.529 11H7v2H5.529C4.556 13 4 13.608 4 14.582v7.889C4 23.443 4.556 24 5.529 24h7.89c.973 0 1.581-.557 1.581-1.529V21z"/></svg>