<svg width="16" height="16" viewBox="0 0 16 16" xmlns="http://www.w3.org/2000/svg"><title>creditcard--small</title><path d="M3.2 10.944c0-.214.18-.388.4-.388H6c.22 0 .4.174.4.388 0 .215-.18.39-.4.39H3.6c-.22 0-.4-.175-.4-.39zM.8 5.111c0-1.286 1.077-2.333 2.4-2.333h9.6c1.323 0 2.4 1.047 2.4 2.333H.8zm0 2.333h14.4V5.89H.8v1.555zm14.4 3.89c0 1.286-1.077 2.333-2.4 2.333H3.2c-1.323 0-2.4-1.047-2.4-2.334v-3.11h14.4v3.11zM12.8 2H3.2C1.433 2 0 3.393 0 5.111v6.222c0 1.718 1.433 3.111 3.2 3.111h9.6c1.767 0 3.2-1.393 3.2-3.11V5.111C16 3.392 14.567 2 12.8 2z" fill-rule="evenodd"/></svg>