<svg width="24" height="24" viewBox="0 0 24 24" xmlns="http://www.w3.org/2000/svg"><title>creditcard</title><path d="M3.429 15.9c0-.47.384-.85.857-.85H6c.473 0 .857.38.857.85s-.384.85-.857.85H4.286a.853.853 0 0 1-.857-.85zm18.857-6.8H1.714V7.4c0-.938.77-1.7 1.715-1.7H20.57c.946 0 1.715.762 1.715 1.7v1.7zm0 8.5c0 .938-.77 1.7-1.715 1.7H3.43a1.709 1.709 0 0 1-1.715-1.7v-5.1h20.572v5.1zM20.57 4H3.43C1.535 4 0 5.522 0 7.4v10.2C0 19.478 1.535 21 3.429 21H20.57C22.465 21 24 19.478 24 17.6V7.4C24 5.522 22.465 4 20.571 4z" fill-rule="evenodd"/></svg>