<svg width="24" height="24" viewBox="0 0 24 24" xmlns="http://www.w3.org/2000/svg"><title>cross-circled</title><path d="M6.107 17.893c-3.25-3.25-3.25-8.536 0-11.786s8.536-3.25 11.786 0c3.249 3.25 3.249 8.537 0 11.786-3.25 3.248-8.537 3.248-11.786 0M19.072 4.928c-3.906-3.905-10.238-3.905-14.143 0-3.905 3.906-3.905 10.238 0 14.143 3.905 3.905 10.237 3.905 14.143 0 3.904-3.905 3.904-10.237 0-14.143m-3.537 9.429L13.178 12l2.357-2.357a.832.832 0 1 0-1.179-1.179L12 10.822 9.643 8.464a.834.834 0 0 0-1.178 1.179L10.82 12l-2.356 2.357a.832.832 0 1 0 1.178 1.178L12 13.18l2.356 2.356a.832.832 0 1 0 1.179-1.178" fill-rule="evenodd"/></svg>