<svg width="18" height="18" viewBox="0 0 18 18" xmlns="http://www.w3.org/2000/svg"><title>cross-circled--small</title><path d="M14.657 3.343A8 8 0 1 0 3.343 14.66 8 8 0 0 0 14.657 3.343M4.05 13.95a7.01 7.01 0 0 1 0-9.9 7.01 7.01 0 0 1 9.9 0c2.728 2.73 2.728 7.17 0 9.9-2.73 2.728-7.17 2.728-9.9 0m7.778-2.122a.5.5 0 0 1-.707 0l-2.12-2.12-2.122 2.12a.5.5 0 0 1-.708-.707l2.122-2.12-2.122-2.122a.502.502 0 0 1 .708-.708L9 8.293l2.121-2.122a.5.5 0 0 1 .707.708L9.708 9l2.12 2.121a.5.5 0 0 1 0 .707" fill-rule="evenodd"/></svg>