<svg width="24" height="24" viewBox="0 0 24 24" xmlns="http://www.w3.org/2000/svg"><title>cross-circle</title><path d="M15.536 15.535a.832.832 0 0 1-1.179 0L12 13.18l-2.357 2.356a.832.832 0 1 1-1.178-1.178L10.82 12 8.465 9.644a.833.833 0 1 1 1.178-1.179L12 10.822l2.356-2.357a.833.833 0 1 1 1.18 1.179L13.178 12l2.358 2.357a.833.833 0 0 1 0 1.178M19.07 4.93c-3.905-3.905-10.237-3.905-14.142 0-3.906 3.905-3.905 10.237 0 14.142 3.905 3.906 10.237 3.906 14.142 0 3.905-3.905 3.905-10.237 0-14.142" fill-rule="evenodd"/></svg>