<svg width="16" height="16" viewBox="0 0 16 16" xmlns="http://www.w3.org/2000/svg"><title>cross-circled--small</title><path d="M12.95 3.05a7 7 0 1 0-9.9 9.901 7 7 0 0 0 9.9-9.9m-9.281 9.28a6.133 6.133 0 0 1 0-8.662 6.133 6.133 0 0 1 8.662 0 6.135 6.135 0 0 1 0 8.662 6.135 6.135 0 0 1-8.662 0m6.806-1.856a.438.438 0 0 1-.619 0L8 8.619l-1.856 1.856a.438.438 0 0 1-.62-.619L7.382 8 5.525 6.144a.439.439 0 0 1 .62-.62L8 7.382l1.856-1.856a.438.438 0 0 1 .619.62L8.619 8l1.856 1.856c.17.17.17.448 0 .619" fill-rule="evenodd"/></svg>