<svg width="24" height="24" viewBox="0 0 24 24" xmlns="http://www.w3.org/2000/svg"><title>clean</title><g fill-rule="nonzero"><path d="M6.588 14.474a9.645 9.645 0 0 1-2.12 1.595c.786.457 1.494.999 2.12 1.626.616.616 1.14 1.3 1.57 2.048a10.81 10.81 0 0 1 3.69-3.672 10.096 10.096 0 0 1-2.082-1.597 10.57 10.57 0 0 1-1.61-2.086 9.379 9.379 0 0 1-1.568 2.086zM8.028 8c.553 2.296 1.486 4.1 2.798 5.414 1.313 1.312 3.056 2.183 5.228 2.613-2.137.471-3.88 1.38-5.228 2.728-1.347 1.348-2.28 3.114-2.799 5.3-.298-2.165-1.131-3.931-2.5-5.3C4.16 17.387 2.318 16.478 0 16.027c2.362-.42 4.205-1.29 5.528-2.613C6.85 12.09 7.684 10.286 8.028 8zM16.437 4.418c-.42.42-.899.782-1.437 1.084.533.311 1.012.68 1.437 1.106.417.418.771.883 1.063 1.392A7.327 7.327 0 0 1 20 5.503a6.842 6.842 0 0 1-1.41-1.085A7.183 7.183 0 0 1 17.498 3c-.293.527-.646 1-1.062 1.418zM17.5 0c.38 1.573 1.019 2.81 1.918 3.71.9.899 2.093 1.496 3.582 1.79-1.465.323-2.659.946-3.582 1.87-.923.923-1.563 2.133-1.918 3.63-.204-1.483-.775-2.693-1.713-3.63-.937-.938-2.2-1.561-3.787-1.87 1.619-.288 2.881-.884 3.787-1.79.907-.907 1.478-2.144 1.713-3.71z"/></g></svg>