<svg width="16" height="16" viewBox="0 0 16 16" xmlns="http://www.w3.org/2000/svg"><title>download--small</title><path d="M13.25 9.725H14c0 1.963-1.514 3.56-3.375 3.56h-5.25C3.515 13.286 2 11.689 2 9.726c0-.218.168-.395.375-.395s.375.177.375.395c0 1.527 1.178 2.77 2.625 2.77h5.25c1.447 0 2.625-1.243 2.625-2.77 0-.218.168-.395.375-.395s.375.177.375.395a.386.386 0 0 1-.375.396.386.386 0 0 1-.375-.396zm-8.877-1.29a.41.41 0 0 1-.026-.558.36.36 0 0 1 .53-.027l2.748 2.564V3.396c0-.22.168-.396.375-.396s.375.176.375.396v7.018l2.748-2.564a.363.363 0 0 1 .53.027.41.41 0 0 1-.026.559L8.252 11.6c-.019.018-.042.027-.063.04-.017.011-.03.024-.049.032a.353.353 0 0 1-.28 0c-.018-.008-.033-.021-.049-.031-.021-.014-.044-.023-.063-.041L4.373 8.436z" fill-rule="evenodd"/></svg>