<svg width="24" height="24" viewBox="0 0 24 24" xmlns="http://www.w3.org/2000/svg"><title>download</title><path d="M21 14.588C21 17.021 19.093 19 16.75 19h-8.5C5.907 19 4 17.02 4 14.588c0-.487.38-.882.85-.882s.85.395.85.882c0 1.46 1.144 2.647 2.55 2.647h8.5c1.406 0 2.55-1.187 2.55-2.647 0-.487.38-.882.85-.882s.85.395.85.882zM7.719 12.631a.906.906 0 0 1-.133-1.24.83.83 0 0 1 1.195-.139l2.869 2.383V4.882c0-.487.38-.882.85-.882s.85.395.85.882v8.753l2.869-2.383a.83.83 0 0 1 1.195.138.906.906 0 0 1-.133 1.241l-4.25 3.53a.83.83 0 0 1-1.062 0l-4.25-3.53z" fill-rule="evenodd"/></svg>