<svg width="24" height="24" viewBox="0 0 24 24" xmlns="http://www.w3.org/2000/svg"><title>drinks</title><path d="M13.558 9.098h-1.68V6.16c0-1.172.888-2.09 2.021-2.09.235 0 .34-.204.34-.405V2h1.68v1.664c0 1.171-.888 2.09-2.02 2.09-.236 0-.34.204-.34.405V9.1zm-6.667.014l-.05-2.94c0-1.165.928-2.103 2.07-2.103.234 0 .34-.204.34-.405V2h1.68v1.664c0 1.171-.888 2.09-2.02 2.09a.394.394 0 0 0-.391.405l.05 2.925-1.68.028zm11.908 6.214h-.892l.773-3.398c.121-.005.267-.01.47-.01.461 0 1.17.785 1.17 1.754 0 .912-.682 1.654-1.521 1.654zm-8.262 4.99c-2.626 0-4.895-1.887-5.517-4.591l-.897-3.808h12.836l-.864 3.802c-.658 2.706-2.943 4.597-5.558 4.597zm8.612-10.083l-.084.001H2l1.384 5.873C4.182 19.577 7.124 22 10.537 22c3.087 0 5.81-2.008 6.91-4.99h1.352c1.765 0 3.201-1.498 3.201-3.338 0-1.8-1.359-3.439-2.85-3.439z" fill-rule="evenodd"/></svg>