<svg width="18" height="18" viewBox="0 0 18 18" xmlns="http://www.w3.org/2000/svg"><title>drinks--small</title><path d="M6.27 6.52h-.895V4.235C5.375 3.441 6 2.82 6.8 2.82a.51.51 0 0 0 .53-.527V1h.894v1.293c0 .794-.626 1.415-1.424 1.415a.51.51 0 0 0-.53.527V6.52zm3.576 0h-.894V4.235c0-.794.625-1.415 1.424-1.415a.51.51 0 0 0 .53-.527V1h.894v1.293c0 .794-.626 1.415-1.424 1.415a.51.51 0 0 0-.53.527V6.52zm4.753 5.71h-1.04l.74-2.992h.3c.83 0 1.507.67 1.507 1.495 0 .826-.676 1.497-1.507 1.497zm-6.838 3.882c-2.292 0-4.269-1.537-4.808-3.742L2.15 9.238h11.228l-.775 3.132a4.997 4.997 0 0 1-4.842 3.742zM14.6 8.349H1l1.085 4.236C2.72 15.185 5.055 17 7.76 17a5.878 5.878 0 0 0 5.523-3.882h1.315c1.324 0 2.401-1.07 2.401-2.385a2.395 2.395 0 0 0-2.4-2.384z" fill-rule="evenodd"/></svg>