<svg width="16" height="16" viewBox="0 0 16 16" xmlns="http://www.w3.org/2000/svg"><title>edit--small</title><path d="M15 14.61a.389.389 0 0 1-.389.388H1.39a.389.389 0 0 1 0-.778H14.61c.215 0 .389.175.389.39zM1.778 9.415c0-.312.121-.604.341-.825l5.65-5.648 2.953 2.954-5.649 5.649a1.175 1.175 0 0 1-.824.341H2.944a1.168 1.168 0 0 1-1.166-1.167V9.416zm8.02-7.639a2.09 2.09 0 0 1 1.48 3.564l-.006.006-2.954-2.954.006-.006c.406-.406.94-.61 1.474-.61zM2.944 12.665H4.25a1.93 1.93 0 0 0 1.374-.57l6.204-6.204c.541-.54.84-1.26.84-2.025a2.869 2.869 0 0 0-4.893-2.028L1.569 8.04C1.202 8.408 1 8.896 1 9.416v1.304c0 1.072.872 1.945 1.944 1.945z" fill-rule="evenodd"/></svg>