<svg width="24" height="24" viewBox="0 0 24 24" xmlns="http://www.w3.org/2000/svg"><title>edit</title><path d="M4.5 12.831c0 .46.373.834.833.834h1.398a.832.832 0 0 0 .59-.244l5.34-5.341-2.576-2.576-5.34 5.34a.828.828 0 0 0-.245.59v1.397zm6.892-8.634l-.129.128L13.84 6.9l.128-.128c.343-.343.533-.8.533-1.286s-.19-.942-.533-1.286a1.816 1.816 0 0 0-2.575-.004zm-8.559 8.634v-1.397c0-.668.26-1.296.733-1.768l6.646-6.647a3.49 3.49 0 0 1 5.955 2.468c0 .931-.364 1.807-1.022 2.465L8.498 14.6c-.472.472-1.1.732-1.767.732H5.333a2.503 2.503 0 0 1-2.5-2.5zM22 21.165c0 .46-.372.833-.833.833H2.833a.834.834 0 0 1 0-1.667h18.334c.46 0 .833.374.833.834z" fill-rule="evenodd"/></svg>