<svg width="28" height="28" viewBox="0 0 28 28"><path fill-rule="evenodd" d="M5 14.998c0 .55.448 1 1 1h1.677a.999.999 0 0 0 .708-.293l6.408-6.41-3.091-3.09-6.409 6.409A.993.993 0 0 0 5 13.32v1.677zm8.27-10.361l-.154.153 3.091 3.092.153-.154c.412-.412.64-.96.64-1.543s-.228-1.131-.64-1.543a2.18 2.18 0 0 0-1.549-.643 2.17 2.17 0 0 0-1.541.638zM3 14.997v-1.676c0-.801.312-1.555.879-2.121l7.976-7.977A4.189 4.189 0 0 1 19 6.185a4.158 4.158 0 0 1-1.226 2.958l-7.976 7.976a2.98 2.98 0 0 1-2.121.879H6c-1.654 0-3-1.346-3-3zm23 10a1 1 0 0 1-1 1H3a1 1 0 0 1 0-2h22a1 1 0 0 1 1 1z"/></svg>