<svg width="24" height="24" viewBox="0 0 24 24" xmlns="http://www.w3.org/2000/svg"><title>export</title><path d="M16.355 10.284h-.857a.857.857 0 1 0 0 1.714h.857a2.574 2.574 0 0 1 2.571 2.571v5.142a2.574 2.574 0 0 1-2.571 2.571h-8.57a2.574 2.574 0 0 1-2.571-2.57v-5.143A2.574 2.574 0 0 1 7.785 12h.857a.857.857 0 0 0 0-1.715h-.857A4.29 4.29 0 0 0 3.5 14.57v5.142a4.29 4.29 0 0 0 4.285 4.285h8.57a4.29 4.29 0 0 0 4.285-4.285V14.57a4.29 4.29 0 0 0-4.285-4.285m-9.24-5.463a.859.859 0 0 1 .134-1.206L11.534.187a.86.86 0 0 1 1.072 0l4.285 3.428a.859.859 0 0 1-1.072 1.34L12.927 2.64v13.643a.857.857 0 1 1-1.714 0V2.64L8.321 4.955a.859.859 0 0 1-1.205-.134" fill-rule="evenodd"/></svg>