<svg width="28" height="28" viewBox="0 0 28 28" xmlns="http://www.w3.org/2000/svg"><title>export</title><path d="M19 12h-1c-.55 0-1 .45-1 1s.45 1 1 1h1c1.65 0 3 1.35 3 3v6c0 1.65-1.35 3-3 3H9c-1.65 0-3-1.35-3-3v-6c0-1.65 1.35-3 3-3h1c.55 0 1-.45 1-1s-.45-1-1-1H9c-2.76 0-5 2.24-5 5v6c0 2.76 2.24 5 5 5h10c2.76 0 5-2.24 5-5v-6c0-2.76-2.24-5-5-5M8.22 5.62c-.35-.43-.28-1.06.15-1.4l5-4c.37-.3.89-.3 1.26 0l5 4c.43.34.5.97.15 1.4-.2.25-.49.38-.78.38-.22 0-.44-.07-.63-.22L15 3.08V19c0 .55-.45 1-1 1s-1-.45-1-1V3.08l-3.38 2.7c-.43.34-1.06.27-1.4-.16" fill-rule="evenodd"/></svg>