<svg width="20" height="20" viewBox="0 0 20 20" xmlns="http://www.w3.org/2000/svg"><title>export--small</title><path d="M13.5 8c-.28 0-.5.22-.5.5s.22.5.5.5c1.93 0 3.5 1.57 3.5 3.5v3c0 1.93-1.57 3.5-3.5 3.5h-7C4.57 19 3 17.43 3 15.5v-3C3 10.57 4.57 9 6.5 9c.28 0 .5-.22.5-.5S6.78 8 6.5 8C4.02 8 2 10.02 2 12.5v3C2 17.98 4.02 20 6.5 20h7c2.48 0 4.5-2.02 4.5-4.5v-3c0-2.48-2.02-4.5-4.5-4.5M4.13 5.83c-.19-.2-.17-.52.03-.7l5.5-5 .09-.05.06-.04c.12-.05.26-.05.38 0 .02 0 .04.02.06.04l.09.05 5.5 5c.2.18.22.5.03.7-.1.11-.23.17-.37.17-.12 0-.24-.04-.34-.13L10.5 1.63V12.5c0 .28-.22.5-.5.5s-.5-.22-.5-.5V1.63L4.84 5.87c-.2.18-.52.17-.71-.04" fill-rule="evenodd"/></svg>