<svg width="16" height="16" viewBox="0 0 16 16" xmlns="http://www.w3.org/2000/svg"><title>export--small</title><path d="M10.7 6.4a.4.4 0 0 0 0 .8c1.544 0 2.8 1.256 2.8 2.8v2.4c0 1.544-1.256 2.8-2.8 2.8H5.1a2.803 2.803 0 0 1-2.8-2.8V10c0-1.544 1.256-2.8 2.8-2.8a.4.4 0 0 0 0-.8A3.604 3.604 0 0 0 1.5 10v2.4c0 1.984 1.615 3.6 3.6 3.6h5.6c1.985 0 3.6-1.616 3.6-3.6V10c0-1.985-1.615-3.6-3.6-3.6M3.204 4.668a.399.399 0 0 1 .027-.565l4.4-4c.02-.019.045-.028.067-.042.019-.01.033-.024.052-.032a.395.395 0 0 1 .3 0c.019.008.033.022.052.032.022.014.047.023.067.042l4.4 4a.399.399 0 1 1-.538.592L8.3 1.303V10a.4.4 0 0 1-.8 0V1.303L3.769 4.695a.398.398 0 0 1-.565-.027" fill-rule="evenodd"/></svg>