<svg width="20" height="20" viewBox="0 0 20 20" xmlns="http://www.w3.org/2000/svg"><title>export--small</title><path d="M13.5 8a.5.5 0 0 0 0 1c1.93 0 3.5 1.57 3.5 3.5v3c0 1.93-1.57 3.5-3.5 3.5h-7C4.57 19 3 17.43 3 15.5v-3C3 10.57 4.57 9 6.5 9a.5.5 0 0 0 0-1A4.505 4.505 0 0 0 2 12.5v3C2 17.98 4.019 20 6.5 20h7c2.481 0 4.5-2.02 4.5-4.5v-3c0-2.482-2.019-4.5-4.5-4.5M4.13 5.835a.499.499 0 0 1 .034-.707l5.5-5c.025-.023.056-.035.084-.052.023-.012.041-.03.065-.04a.494.494 0 0 1 .374 0c.024.01.042.028.065.04.028.018.059.03.084.053l5.5 5a.499.499 0 1 1-.672.74L10.5 1.628v10.87a.5.5 0 0 1-1 0V1.63l-4.664 4.24a.497.497 0 0 1-.706-.034" fill-rule="evenodd"/></svg>