<svg width="28" height="28" viewBox="0 0 28 28" xmlns="http://www.w3.org/2000/svg"><title>external-twitter-outlined</title><path d="M22.076 9.453l-.177.128.012.218c.01.175.012.352.012.532 0 4.901-3.662 11.803-11.804 11.803-1.717 0-3.398-.372-4.943-1.086a8.933 8.933 0 0 0 4.965-1.904l.887-.695-1.127-.019a3.886 3.886 0 0 1-3.387-2.104c.06.002.118.004.177.004.421 0 .838-.056 1.238-.166l1.62-.446-1.648-.332a3.903 3.903 0 0 1-3.076-3.226c.475.177.98.276 1.485.293l1.401.047-1.164-.778A3.893 3.893 0 0 1 5.09 7.049a12.616 12.616 0 0 0 8.728 4.159l.532.026-.122-.517a3.895 3.895 0 0 1-.098-.887 3.891 3.891 0 0 1 6.727-2.661l.151.16.216-.042a8.851 8.851 0 0 0 1.843-.572 2.825 2.825 0 0 1-.44.575c-.15.148-.423.312-.604.422-.24.143-.568.341-.396.691.045.092.162.246.441.246.228 0 .708-.111 1.215-.261a8.341 8.341 0 0 1-1.207 1.065m3.278-3.156a1.543 1.543 0 0 0-2.267-1.767c-.484.284-.99.513-1.52.674A5.854 5.854 0 0 0 18.018 4a5.842 5.842 0 0 0-5.78 5.048 10.688 10.688 0 0 1-6.04-3.694 1.543 1.543 0 0 0-1.197-.569 1.536 1.536 0 0 0-1.334.768 5.809 5.809 0 0 0-.79 2.932c0 .697.122 1.377.351 2.01a1.552 1.552 0 0 0-.389 1.026c0 1.532.577 2.938 1.54 3.994-.059.263-.05.543.036.81a5.818 5.818 0 0 0 1.73 2.625 7.203 7.203 0 0 1-2.423.126 1.538 1.538 0 0 0-1.631 1.014 1.543 1.543 0 0 0 .618 1.82 13.723 13.723 0 0 0 7.41 2.173c8.53 0 13.656-6.866 13.748-13.567a10.214 10.214 0 0 0 1.821-2.031 1.55 1.55 0 0 0-.334-2.188" fill-rule="evenodd"/></svg>