<svg width="28" height="28" viewBox="0 0 28 28" xmlns="http://www.w3.org/2000/svg"><title>external-outlook</title><path d="M17.03 7.1V7h8.16c.3 0 .81.4.81 1l-7.16 4.8h-.2l-1.61-1V7.1zm0 6.4l1.5 1c.2.2.51 0 .51 0L26 9.9v8.6c0 .9-.6 1.3-1.31 1.3h-7.66v-6.3zM2 4.7L16.12 2v24L2 23.1V4.7zm7.16 6.7c.5 0 .9.2 1.21.6.3.5.4 1.2.4 2s-.1 1.4-.4 1.9c-.3.5-.7.7-1.21.7-.5 0-.9-.2-1.21-.7-.3-.5-.5-1.1-.5-1.9 0-.8.2-1.4.5-1.9s.7-.7 1.21-.7zm2.32 5.6c.5-.8.8-1.8.9-3 0-1.2-.3-2.2-.9-3-.5-.7-1.31-1.1-2.22-1.1-1 0-1.81.4-2.42 1.2-.6.8-.9 1.8-.9 3.1 0 1.2.3 2.1.9 2.9.6.7 1.41 1.1 2.32 1.1.9 0 1.71-.4 2.32-1.2z" fill-rule="nonzero"/></svg>