<svg width="28" height="28" viewBox="0 0 28 28" xmlns="http://www.w3.org/2000/svg"><title>external-twitter</title><path d="M23.543 8.78c.01.207.014.418.014.626 0 6.408-4.953 13.794-14.009 13.794-2.782 0-5.368-.803-7.548-2.18.386.046.777.069 1.174.069 2.309 0 4.43-.776 6.115-2.074-2.154-.04-3.973-1.44-4.6-3.366a5.11 5.11 0 0 0 2.224-.083c-2.252-.447-3.95-2.405-3.95-4.755v-.06a4.971 4.971 0 0 0 2.231.607 4.828 4.828 0 0 1-2.191-4.036c0-.887.243-1.72.668-2.437A14.05 14.05 0 0 0 13.82 9.95a4.824 4.824 0 0 1-.127-1.106C13.693 6.169 15.897 4 18.616 4c1.417 0 2.696.587 3.595 1.53a10.011 10.011 0 0 0 3.126-1.177 4.88 4.88 0 0 1-2.165 2.681A9.97 9.97 0 0 0 26 6.272a9.86 9.86 0 0 1-2.457 2.507z" fill-rule="nonzero"/></svg>