<svg width="24" height="24" viewBox="0 0 24 24" xmlns="http://www.w3.org/2000/svg"><title>external-instagram</title><path d="M20.151 16.046c-.043.978-.207 1.509-.344 1.86-.182.468-.398.801-.75 1.151a3.08 3.08 0 0 1-1.15.75c-.353.138-.884.301-1.86.346-1.056.047-1.373.057-4.047.057-2.675 0-2.991-.01-4.047-.057-.977-.045-1.507-.208-1.86-.346a3.076 3.076 0 0 1-1.151-.75 3.102 3.102 0 0 1-.75-1.15c-.137-.352-.3-.883-.344-1.86-.049-1.057-.059-1.372-.059-4.046 0-2.675.01-2.992.059-4.048.045-.977.207-1.507.345-1.86.181-.468.399-.8.749-1.15.35-.352.684-.568 1.152-.75.352-.137.882-.3 1.859-.345C9.009 3.8 9.326 3.79 12 3.79c2.674 0 2.99.01 4.046.058.977.045 1.508.208 1.861.344.467.183.8.4 1.15.75.352.35.568.683.75 1.152.137.352.3.882.344 1.859.05 1.056.058 1.373.058 4.048 0 2.674-.009 2.989-.058 4.045m1.788-8.169c-.047-1.065-.217-1.792-.465-2.427a4.894 4.894 0 0 0-1.153-1.771 4.894 4.894 0 0 0-1.77-1.153c-.637-.248-1.365-.417-2.428-.465C15.057 2.012 14.716 2 12 2s-3.056.011-4.123.06c-1.064.048-1.79.217-2.428.465a4.894 4.894 0 0 0-1.77 1.153 4.883 4.883 0 0 0-1.154 1.77c-.247.636-.416 1.363-.465 2.428C2.011 8.944 2 9.284 2 12.001c0 2.715.011 3.055.06 4.123.049 1.063.218 1.79.465 2.427a4.89 4.89 0 0 0 1.154 1.77 4.908 4.908 0 0 0 1.77 1.154c.637.248 1.364.417 2.428.465 1.067.049 1.407.06 4.123.06s3.057-.011 4.123-.06c1.063-.048 1.79-.217 2.427-.465a4.908 4.908 0 0 0 1.771-1.154 4.901 4.901 0 0 0 1.153-1.77c.248-.637.418-1.364.465-2.427.05-1.068.061-1.408.061-4.123 0-2.717-.011-3.057-.06-4.124m-3.413-1.206a1.198 1.198 0 1 1-2.397-.001 1.198 1.198 0 0 1 2.397.001M12 15.342a3.342 3.342 0 1 1 0-6.684 3.342 3.342 0 0 1 0 6.684m0-8.474a5.132 5.132 0 1 0 0 10.264 5.132 5.132 0 0 0 0-10.264" fill-rule="evenodd"/></svg>