<svg width="20" height="20" viewBox="0 0 20 20" xmlns="http://www.w3.org/2000/svg"><title>external-messenger-outlined--small</title><path d="M11.45 9.77l3.8-2.1-4.23 4.5-1.97-2.11-3.86 2.1 4.24-4.5 2.02 2.11zm-1.2 6.58c-.7 0-1.41-.1-2.1-.28-.12-.04-.25-.02-.36.04l-1.9 1.05v-1.9c0-.15-.08-.3-.2-.4C3.98 13.6 3 11.7 3 9.68 3 5.99 6.25 3 10.25 3s7.25 3 7.25 6.68c0 3.68-3.25 6.67-7.25 6.67zm0-14.35C5.7 2 2 5.44 2 9.68c0 2.26 1.05 4.37 2.89 5.83V18c0 .18.1.34.24.43.08.05.17.07.26.07.08 0 .16-.02.24-.06l2.46-1.36c.7.18 1.43.27 2.16.27 4.55 0 8.25-3.44 8.25-7.68C18.5 5.45 14.8 2 10.25 2z" fill-rule="evenodd"/></svg>