<svg width="20" height="20" viewBox="0 0 20 20" xmlns="http://www.w3.org/2000/svg"><title>external-messenger-outlined--small</title><path d="M11.453 9.771l3.804-2.104-4.237 4.496-1.973-2.104-3.852 2.104 4.237-4.496 2.021 2.104zm-1.203 6.58a7.9 7.9 0 0 1-2.091-.282.5.5 0 0 0-.373.044l-1.898 1.042v-1.892a.5.5 0 0 0-.201-.4C3.979 13.587 3 11.697 3 9.675 3 5.994 6.252 3 10.25 3s7.25 2.994 7.25 6.675c0 3.681-3.252 6.676-7.25 6.676zM10.25 2C5.701 2 2 5.443 2 9.675c0 2.26 1.049 4.372 2.888 5.834V18a.501.501 0 0 0 .741.438l2.464-1.353a8.86 8.86 0 0 0 2.157.266c4.549 0 8.25-3.443 8.25-7.676C18.5 5.443 14.799 2 10.25 2z" fill-rule="evenodd"/></svg>