<svg width="28" height="28" viewBox="0 0 28 28" xmlns="http://www.w3.org/2000/svg"><title>external-medium</title><path d="M10 23.6c0 .5-.27.8-.66.8-.14 0-.29-.04-.45-.12l-6.23-3.13c-.36-.18-.66-.67-.66-1.08V4.74c0-.4.22-.64.53-.64.1 0 .23.03.36.1l.21.1 6.87 3.45.03.03v15.81zm7.2-18.53l.41-.69c.15-.24.43-.38.7-.38.07 0 .14.01.2.03.05 0 .1.02.15.05l7.24 3.64h.01l.01.01c.04.03.05.08.03.12l-7.21 11.77-.74 1.2-4.77-9.28 3.96-6.47zm-6.06 12.3V10l5.14 9.97-4.62-2.32-.52-.26zM26 23.6c0 .48-.28.75-.7.75-.19 0-.4-.06-.63-.17l-1.03-.52-4.62-2.32L26 9.95v13.64z" fill-rule="nonzero"/></svg>