<svg width="28" height="28" viewBox="0 0 28 28" xmlns="http://www.w3.org/2000/svg"><title>external-messenger-outlined</title><path d="M21.105 10.334l-6.013 6.381-2.8-2.986-5.466 2.986 6.013-6.381 2.868 2.986 5.398-2.986zM14.002 22.37c-.98 0-1.951-.133-2.89-.39a.996.996 0 0 0-.748.086L8.1 23.311v-2.195a1 1 0 0 0-.402-.8C5.348 18.56 4 15.962 4 13.186 4 8.12 8.486 4 14 4s10 4.12 10 9.184c0 5.065-4.486 9.185-10 9.185zM14 2C7.384 2 2 7.017 2 13.184c0 3.251 1.486 6.292 4.098 8.42V25a1 1 0 0 0 1.481.877l3.399-1.865c.987.238 2.002.358 3.022.358 6.617 0 12-5.018 12-11.185 0-6.168-5.384-11.184-12-11.184z" fill-rule="evenodd"/></svg>