<svg width="28" height="28" viewBox="0 0 28 28" xmlns="http://www.w3.org/2000/svg"><title>external-outlook</title><path d="M17.025 7.1V7h8.168c.303 0 .807.4.807 1l-7.16 4.8h-.201l-1.614-1V7.1zm0 6.4l1.513 1c.201.2.504 0 .504 0L26 9.9v8.6c0 .9-.605 1.3-1.31 1.3h-7.665v-6.3zM2 4.7L16.118 2v24L2 23.1V4.7zm7.16 6.7c.504 0 .907.2 1.21.6.302.5.403 1.2.403 2s-.1 1.4-.403 1.9c-.303.5-.706.7-1.21.7-.505 0-.908-.2-1.21-.7-.303-.5-.505-1.1-.505-1.9 0-.8.202-1.4.505-1.9.302-.5.705-.7 1.21-.7zm2.319 5.6c.504-.8.807-1.8.908-3 0-1.2-.303-2.2-.908-3-.504-.7-1.31-1.1-2.218-1.1-1.009 0-1.816.4-2.42 1.2-.606.8-.908 1.8-.908 3.1 0 1.2.302 2.1.907 2.9.605.7 1.412 1.1 2.32 1.1.907 0 1.714-.4 2.319-1.2z" fill-rule="nonzero"/></svg>