<svg width="28" height="28" viewBox="0 0 28 28" xmlns="http://www.w3.org/2000/svg"><title>external-twitter-outlined</title><path d="M22.08 9.45l-.18.13.01.22.01.53c0 4.9-3.66 11.8-11.8 11.8-1.72 0-3.4-.37-4.94-1.08 1.81-.12 3.52-.77 4.96-1.9l.89-.7-1.13-.02c-1.44-.02-2.74-.85-3.39-2.1h.18c.42 0 .84-.06 1.24-.17l1.62-.44-1.65-.33c-1.61-.33-2.83-1.64-3.07-3.23.47.18.97.28 1.48.3l1.4.04-1.16-.78C5.46 11 4.82 9.8 4.82 8.48c0-.5.09-.98.27-1.43 2.24 2.48 5.38 3.99 8.73 4.16l.53.02-.12-.51c-.07-.28-.1-.58-.1-.89 0-2.14 1.74-3.89 3.89-3.89 1.07 0 2.1.45 2.84 1.23l.15.16.21-.04c.64-.13 1.26-.32 1.85-.58-.13.23-.28.42-.44.58-.15.15-.43.31-.6.42-.25.15-.57.34-.4.7.04.08.16.24.44.24.23 0 .7-.11 1.21-.26-.36.39-.77.75-1.2 1.06m3.27-3.15c.18-.6-.02-1.26-.51-1.65-.28-.22-.62-.34-.97-.34-.27 0-.54.08-.78.22-.49.28-1 .51-1.52.67C20.56 4.43 19.3 4 18.02 4c-2.95 0-5.4 2.2-5.78 5.05-2.35-.5-4.5-1.8-6.04-3.7C5.9 5 5.46 4.8 5 4.8h-.12c-.5.04-.96.32-1.21.76-.52.89-.8 1.9-.8 2.93 0 .7.13 1.38.36 2.01-.25.29-.4.65-.4 1.03 0 1.53.59 2.94 1.55 4-.06.26-.05.54.04.8.33 1.05.94 1.95 1.73 2.63-.52.12-1.05.18-1.58.18-.28 0-.56-.02-.85-.05l-.18-.02c-.64 0-1.23.4-1.45 1.03-.24.68.02 1.43.62 1.82 2.22 1.42 4.78 2.17 7.4 2.17 8.54 0 13.67-6.86 13.76-13.56.7-.6 1.3-1.28 1.82-2.04.2-.25.31-.57.31-.93 0-.51-.25-.97-.65-1.25" fill-rule="evenodd"/></svg>