<svg width="24" height="24" viewBox="0 0 24 24" xmlns="http://www.w3.org/2000/svg"><title>external-linkedin</title><path d="M19.043 19.043h-2.966V14.4c0-1.107-.019-2.53-1.541-2.53-1.544 0-1.779 1.206-1.779 2.451v4.72H9.794V9.499h2.844v1.305h.04c.396-.75 1.363-1.542 2.807-1.542 3.003 0 3.558 1.976 3.558 4.547v5.235zM6.45 8.194a1.72 1.72 0 1 1-.003-3.44 1.72 1.72 0 0 1 .003 3.44zM4.963 19.043h2.97V9.498h-2.97v9.545zM20.521 2H3.476C2.662 2 2 2.646 2 3.442v17.116C2 21.354 2.662 22 3.476 22H20.52c.815 0 1.479-.647 1.479-1.443V3.442C22 2.646 21.336 2 20.52 2z" fill-rule="evenodd"/></svg>