<svg width="24" height="24" viewBox="0 0 24 24" xmlns="http://www.w3.org/2000/svg"><title>external-tumblr</title><path d="M17.797 20.764c-.677.723-2.246 1.213-3.65 1.236h-.155c-4.719 0-5.744-3.468-5.744-5.492v-5.625H6.39a.39.39 0 0 1-.39-.39V7.835c0-.28.178-.53.44-.623 2.423-.854 3.183-2.967 3.296-4.574.03-.43.254-.638.627-.638h2.771a.39.39 0 0 1 .39.39v4.5h3.243c.216 0 .39.173.39.388v3.193a.39.39 0 0 1-.39.389h-3.259v5.203c0 1.306.862 1.667 1.394 1.667a3.895 3.895 0 0 0 1.265-.27c.185-.074.35-.123.497-.087.136.034.226.131.287.307l.859 2.512c.07.2.13.419-.013.572" fill-rule="evenodd"/></svg>