<svg width="28" height="28" viewBox="0 0 28 28" xmlns="http://www.w3.org/2000/svg"><title>external-messenger-outlined</title><path d="M21.1 10.33l-6 6.39-2.8-3-5.47 3 6-6.39 2.88 2.99 5.4-2.99zM14 22.37c-.98 0-1.95-.13-2.89-.39-.25-.07-.52-.04-.75.09L8.1 23.3v-2.2c0-.3-.15-.6-.4-.8C5.35 18.57 4 15.97 4 13.2 4 8.12 8.5 4 14 4s10 4.12 10 9.19c0 5.06-4.49 9.18-10 9.18zM14 2C7.38 2 2 7.02 2 13.19c0 3.25 1.49 6.29 4.1 8.41V25c0 .35.19.68.49.86.16.1.33.14.51.14.17 0 .33-.04.48-.12l3.4-1.87c.99.24 2 .36 3.02.36 6.62 0 12-5.02 12-11.18C26 7.02 20.62 2 14 2z" fill-rule="evenodd"/></svg>