<svg width="28" height="28" viewBox="0 0 28 28" xmlns="http://www.w3.org/2000/svg"><title>external-instagram</title><path d="M23.781 18.855c-.052 1.174-.248 1.81-.413 2.232a3.71 3.71 0 0 1-.899 1.381c-.42.422-.82.683-1.38.9-.425.166-1.062.362-2.234.416-1.266.056-1.646.068-4.855.068-3.21 0-3.59-.012-4.857-.069-1.172-.053-1.808-.25-2.23-.415a3.692 3.692 0 0 1-1.383-.9c-.42-.42-.68-.82-.899-1.38-.165-.422-.36-1.06-.414-2.233-.058-1.268-.07-1.646-.07-4.854 0-3.21.012-3.59.07-4.857.054-1.173.25-1.809.414-2.232.218-.561.48-.962.9-1.381.42-.421.82-.681 1.381-.9.423-.165 1.06-.36 2.231-.413 1.267-.058 1.648-.07 4.857-.07 3.21 0 3.588.012 4.855.07 1.172.053 1.81.248 2.233.412.56.22.961.48 1.381.9.421.42.681.82.9 1.382.164.423.36 1.06.412 2.231.06 1.268.07 1.648.07 4.857 0 3.21-.01 3.587-.07 4.855m2.146-9.803c-.057-1.277-.26-2.15-.558-2.912a5.873 5.873 0 0 0-1.384-2.125A5.873 5.873 0 0 0 21.86 2.63c-.764-.297-1.637-.5-2.913-.558C17.668 2.014 17.26 2 14 2c-3.26 0-3.668.014-4.948.071-1.277.058-2.149.261-2.913.558a5.873 5.873 0 0 0-2.125 1.385A5.86 5.86 0 0 0 2.63 6.14c-.297.763-.5 1.635-.558 2.913C2.013 10.332 2 10.74 2 14c0 3.259.013 3.668.072 4.948.058 1.276.261 2.148.558 2.912a5.868 5.868 0 0 0 1.384 2.125 5.889 5.889 0 0 0 2.125 1.386c.764.297 1.636.5 2.913.556 1.28.06 1.688.073 4.948.073 3.26 0 3.668-.014 4.947-.073 1.276-.056 2.15-.26 2.913-.556a5.889 5.889 0 0 0 2.125-1.386 5.881 5.881 0 0 0 1.384-2.125c.297-.764.501-1.636.558-2.912.06-1.28.073-1.69.073-4.947 0-3.26-.014-3.668-.073-4.948m-4.095-1.448a1.438 1.438 0 1 1-2.876-.002 1.438 1.438 0 0 1 2.876.003M14 18.01a4.01 4.01 0 1 1 0-8.021 4.01 4.01 0 0 1 0 8.02m0-10.169a6.158 6.158 0 1 0 0 12.317 6.158 6.158 0 0 0 0-12.317" fill-rule="evenodd"/></svg>