<svg width="24" height="24" viewBox="0 0 24 24" xmlns="http://www.w3.org/2000/svg"><title>external-instagram</title><path d="M19.778 2H4.222C3 2 2 3 2 4.222v15.556C2 21 3 22 4.222 22h15.556A2.228 2.228 0 0 0 22 19.778V4.222C22 3 21 2 19.778 2zm-7.796 16.137a6.154 6.154 0 0 0 6.154-6.155c0-.375-.048-.738-.115-1.093h1.757v8.018a.767.767 0 0 1-.77.766H4.992a.767.767 0 0 1-.77-.766v-8.018h1.721a5.81 5.81 0 0 0-.115 1.093 6.155 6.155 0 0 0 6.154 6.155zm-3.845-6.155a3.846 3.846 0 1 1 7.694.002 3.846 3.846 0 0 1-7.694-.002zm10.87-4.426h-1.794a.77.77 0 0 1-.769-.77V4.99c0-.424.345-.768.768-.768h1.795c.426 0 .77.344.77.768v1.796c0 .423-.344.77-.77.77z" fill-rule="nonzero"/></svg>