<svg width="28" height="28" viewBox="0 0 28 28" xmlns="http://www.w3.org/2000/svg"><title>external-twitter</title><path d="M23.54 8.78l.02.63c0 6.4-4.96 13.79-14.01 13.79-2.78 0-5.37-.8-7.55-2.18.39.05.78.07 1.17.07 2.31 0 4.43-.78 6.12-2.07-2.15-.04-3.97-1.44-4.6-3.37.3.05.6.08.93.08.45 0 .88-.05 1.3-.16-2.26-.45-3.96-2.4-3.96-4.76v-.06c.67.36 1.43.58 2.23.6C3.87 10.5 3 9.02 3 7.33c0-.89.25-1.72.67-2.44C6.1 7.82 9.73 9.75 13.82 9.95c-.08-.36-.13-.72-.13-1.1C13.7 6.16 15.9 4 18.62 4c1.41 0 2.7.59 3.6 1.53 1.11-.22 2.17-.62 3.12-1.18-.37 1.13-1.15 2.08-2.17 2.68 1-.11 1.95-.37 2.83-.76-.66.97-1.5 1.83-2.46 2.5z" fill-rule="nonzero"/></svg>