<svg width="28" height="28" viewBox="0 0 28 28" xmlns="http://www.w3.org/2000/svg"><title>external-tumblr</title><path d="M20.156 24.517c-.812.867-2.695 1.456-4.38 1.483h-.185c-5.663 0-6.893-4.161-6.893-6.591v-6.75h-2.23A.469.469 0 0 1 6 12.19V9c0-.335.213-.634.529-.747 2.907-1.024 3.819-3.56 3.954-5.488.037-.516.305-.766.753-.766h3.325c.259 0 .468.21.468.469v5.399h3.892c.258 0 .467.208.467.465v3.832a.467.467 0 0 1-.467.467H15.01v6.243c0 1.568 1.034 2 1.672 2a4.674 4.674 0 0 0 1.518-.323c.223-.09.42-.148.597-.104.163.04.27.157.344.368l1.03 3.014c.086.24.157.503-.015.687" fill-rule="evenodd"/></svg>