<svg width="28" height="28" viewBox="0 0 28 28" xmlns="http://www.w3.org/2000/svg"><title>external-linkedin</title><path d="M22.45 22.45H18.9v-5.57c0-1.33-.02-3.04-1.85-3.04-1.85 0-2.13 1.45-2.13 2.95v5.66h-3.56V11h3.41v1.56h.05c.48-.9 1.64-1.85 3.37-1.85 3.6 0 4.27 2.37 4.27 5.46v6.28zM7.34 9.43c-1.14 0-2.07-.92-2.07-2.06 0-1.14.93-2.07 2.07-2.07 1.14 0 2.06.93 2.06 2.07 0 1.14-.92 2.06-2.06 2.06zM5.56 22.45h3.56V11H5.56v11.45zM24.22 2H3.77C2.8 2 2 2.77 2 3.73v20.54c0 .95.8 1.73 1.77 1.73h20.45c.98 0 1.78-.78 1.78-1.73V3.73C26 2.77 25.2 2 24.22 2z" fill-rule="evenodd"/></svg>