<svg width="28" height="28" viewBox="0 0 28 28" xmlns="http://www.w3.org/2000/svg"><title>external-instagram</title><path d="M23.333 2H4.667A2.675 2.675 0 0 0 2 4.667v18.666C2 24.801 3.2 26 4.667 26h18.666A2.674 2.674 0 0 0 26 23.333V4.667C26 3.2 24.8 2 23.333 2zM13.98 21.364a7.385 7.385 0 0 0 7.384-7.385c0-.451-.058-.886-.138-1.312h2.108v9.621c0 .51-.413.92-.924.92H5.591a.921.921 0 0 1-.924-.92v-9.621h2.065a6.971 6.971 0 0 0-.139 1.312 7.386 7.386 0 0 0 7.386 7.385zm-4.615-7.385a4.616 4.616 0 1 1 9.233.002 4.616 4.616 0 0 1-9.233-.002zm13.045-5.312h-2.153a.925.925 0 0 1-.923-.923V5.588c0-.51.414-.921.922-.921h2.153c.512 0 .925.412.925.921v2.155a.925.925 0 0 1-.924.924z" fill-rule="nonzero"/></svg>