<svg width="28" height="28" viewBox="0 0 28 28" xmlns="http://www.w3.org/2000/svg"><title>external-tumblr</title><path d="M20.16 24.52c-.82.86-2.7 1.45-4.38 1.48h-.19c-5.66 0-6.9-4.16-6.9-6.6v-6.74H6.48c-.26 0-.47-.21-.47-.47V9c0-.33.21-.63.53-.75 2.9-1.02 3.82-3.56 3.95-5.48.04-.52.3-.77.76-.77h3.32c.26 0 .47.21.47.47v5.4h3.9c.25 0 .46.2.46.46v3.83c0 .26-.21.47-.47.47h-3.91v6.24c0 1.57 1.03 2 1.67 2 .61 0 1.22-.2 1.52-.32.22-.09.42-.15.6-.1.16.04.27.15.34.37l1.03 3.01c.09.24.16.5-.01.69" fill-rule="evenodd"/></svg>