<svg width="28" height="28" viewBox="0 0 28 28" xmlns="http://www.w3.org/2000/svg"><title>external-instagram</title><path d="M23.78 18.86c-.05 1.17-.25 1.8-.41 2.23-.22.56-.48.96-.9 1.38-.42.42-.82.68-1.38.9-.43.16-1.06.36-2.23.41-1.27.06-1.65.07-4.86.07-3.21 0-3.59-.01-4.86-.07-1.17-.05-1.8-.25-2.23-.41-.56-.22-.96-.48-1.38-.9-.42-.42-.68-.82-.9-1.38-.16-.42-.36-1.06-.41-2.23-.06-1.27-.07-1.65-.07-4.86 0-3.2 0-3.59.07-4.86.05-1.17.25-1.8.41-2.23.22-.56.48-.96.9-1.38.42-.42.82-.68 1.38-.9.43-.16 1.06-.36 2.23-.41 1.27-.06 1.65-.07 4.86-.07 3.2 0 3.59.01 4.86.07 1.17.05 1.8.25 2.23.41.56.22.96.48 1.38.9.42.42.68.82.9 1.38.16.43.36 1.06.41 2.23.06 1.27.07 1.65.07 4.86 0 3.2-.01 3.59-.07 4.86m2.15-9.8c-.06-1.29-.26-2.16-.56-2.92-.3-.79-.72-1.46-1.38-2.13-.67-.66-1.34-1.07-2.13-1.38-.76-.3-1.64-.5-2.91-.56C17.67 2.01 17.25 2 14 2c-3.26 0-3.67.01-4.95.07-1.27.06-2.15.26-2.91.56-.79.3-1.46.72-2.13 1.38-.66.67-1.07 1.34-1.38 2.13-.3.76-.5 1.63-.56 2.91C2.01 10.33 2 10.75 2 14c0 3.26.01 3.67.07 4.95.06 1.27.26 2.15.56 2.91.3.79.72 1.46 1.38 2.13.67.66 1.34 1.07 2.13 1.38.76.3 1.64.5 2.91.56 1.28.06 1.69.07 4.95.07 3.26 0 3.67-.01 4.95-.07 1.27-.06 2.15-.26 2.91-.56.79-.3 1.46-.72 2.13-1.38.66-.67 1.07-1.34 1.38-2.13.3-.76.5-1.64.56-2.91.06-1.28.07-1.7.07-4.95 0-3.26-.01-3.67-.07-4.95m-4.1-1.44c0 .79-.64 1.43-1.44 1.43-.79 0-1.43-.64-1.43-1.43 0-.8.64-1.44 1.43-1.44.8 0 1.44.64 1.44 1.44M14 18c-2.22 0-4.01-1.8-4.01-4.01 0-2.22 1.8-4.01 4.01-4.01 2.22 0 4.01 1.8 4.01 4.01s-1.8 4.01-4.01 4.01m0-10.17c-3.4 0-6.16 2.76-6.16 6.16 0 3.4 2.76 6.16 6.16 6.16 3.4 0 6.16-2.76 6.16-6.16 0-3.4-2.76-6.16-6.16-6.16" fill-rule="evenodd"/></svg>