<svg width="20" height="20" viewBox="0 0 20 20" xmlns="http://www.w3.org/2000/svg"><title>external-twitter-outlined--small</title><path d="M15.54 6.85v.37c0 3.78-2.87 8.14-8.13 8.14-1.61 0-3.12-.48-4.38-1.29.22.03.45.04.68.04 1.34 0 2.57-.46 3.55-1.22-1.25-.02-2.3-.85-2.67-1.99.18.04.36.05.54.05.26 0 .51-.03.75-.1-1.3-.26-2.3-1.42-2.3-2.8V8c.4.22.83.34 1.3.36-.76-.51-1.27-1.39-1.27-2.38 0-.53.14-1.02.39-1.44 1.4 1.73 3.52 2.87 5.9 2.99-.06-.2-.08-.43-.08-.65 0-1.58 1.28-2.86 2.86-2.86.82 0 1.56.34 2.09.9.65-.13 1.26-.37 1.81-.7-.21.67-.67 1.23-1.26 1.59.58-.07 1.13-.22 1.65-.45-.39.57-.87 1.08-1.43 1.48m2.03-2.32c.12-.4-.02-.83-.35-1.1-.18-.14-.4-.22-.64-.22-.18 0-.36.05-.52.14-.32.2-.66.35-1.01.45-.68-.51-1.51-.8-2.37-.8-1.97 0-3.6 1.47-3.86 3.37-1.56-.34-3-1.2-4.02-2.47-.2-.24-.5-.38-.8-.38h-.08c-.34.03-.64.22-.8.52-.35.59-.54 1.26-.54 1.95 0 .47.09.92.24 1.34-.17.19-.26.43-.26.68 0 1.03.38 1.96 1.03 2.67-.04.17-.04.36.02.54.22.7.63 1.29 1.15 1.75-.34.07-.7.11-1.05.11-.19 0-.37 0-.56-.03h-.12c-.43 0-.82.26-.97.68-.16.45.01.95.41 1.21 1.48.95 3.19 1.45 4.94 1.45 5.69 0 9.1-4.58 9.17-9.05.46-.39.87-.84 1.21-1.35.13-.17.21-.39.21-.62 0-.34-.17-.65-.43-.84" fill-rule="evenodd"/></svg>