<svg width="28" height="28" viewBox="0 0 28 28" xmlns="http://www.w3.org/2000/svg"><title>external-medium</title><path d="M10 23.594c0 .505-.271.806-.658.806-.137 0-.29-.038-.45-.118l-6.227-3.127c-.366-.184-.665-.67-.665-1.08V4.743c0-.404.217-.644.527-.644.11 0 .232.03.36.094l.218.11h.002L9.97 7.75c.013.006.02.017.03.027v15.817zm7.193-18.528l.418-.682a.829.829 0 0 1 1.054-.302l7.24 3.635.008.004c.004.003.005.008.009.012.036.027.051.076.027.116l-7.21 11.767-.736 1.201-4.777-9.277 3.967-6.474zm-6.05 12.311v-7.39l5.132 9.968-4.616-2.318-.516-.26zM26 23.594c0 .475-.284.745-.702.745-.187 0-.4-.054-.627-.168l-1.032-.518-4.616-2.319L26 9.947v13.647z" fill-rule="nonzero"/></svg>