<svg width="28" height="28" viewBox="0 0 28 28" xmlns="http://www.w3.org/2000/svg"><title>external-linkedin</title><path d="M22.451 22.45h-3.559v-5.569c0-1.328-.023-3.037-1.85-3.037-1.852 0-2.134 1.448-2.134 2.942v5.665h-3.555V10.997h3.412v1.566h.048c.475-.9 1.636-1.85 3.368-1.85 3.604 0 4.27 2.372 4.27 5.456v6.282zM7.34 9.434a2.063 2.063 0 1 1 0-4.129 2.065 2.065 0 0 1 0 4.129zM5.556 22.45h3.563V10.997H5.556v11.454zM24.224 2H3.771C2.794 2 2 2.775 2 3.73V24.27C2 25.224 2.794 26 3.77 26h20.454c.979 0 1.775-.776 1.775-1.731V3.73C26 2.775 25.203 2 24.224 2z" fill-rule="evenodd"/></svg>