<svg width="20" height="20" viewBox="0 0 20 20" xmlns="http://www.w3.org/2000/svg"><title>external-twitter-outlined--small</title><path d="M15.54 6.852c.007.12.009.245.009.369 0 3.779-2.876 8.136-8.136 8.136a8.11 8.11 0 0 1-4.384-1.284 5.735 5.735 0 0 0 4.234-1.186 2.86 2.86 0 0 1-2.672-1.985 2.81 2.81 0 0 0 1.291-.05 2.862 2.862 0 0 1-2.295-2.804v-.036c.386.214.827.342 1.296.358a2.86 2.86 0 0 1-.884-3.82A8.111 8.111 0 0 0 9.893 7.54a2.859 2.859 0 0 1 2.785-3.51c.823 0 1.566.346 2.088.9a5.69 5.69 0 0 0 1.815-.692 2.87 2.87 0 0 1-1.257 1.582 5.708 5.708 0 0 0 1.642-.451 5.735 5.735 0 0 1-1.426 1.484m2.029-2.32a1.029 1.029 0 0 0-1.511-1.178 4.736 4.736 0 0 1-1.013.449A3.906 3.906 0 0 0 12.679 3a3.896 3.896 0 0 0-3.854 3.366 7.13 7.13 0 0 1-4.026-2.462 1.03 1.03 0 0 0-1.688.132 3.88 3.88 0 0 0-.527 1.955c0 .465.082.918.235 1.34a1.031 1.031 0 0 0-.259.684c0 1.02.384 1.958 1.026 2.662-.039.176-.033.362.024.54a3.873 3.873 0 0 0 1.154 1.75 4.787 4.787 0 0 1-1.616.084 1.026 1.026 0 0 0-1.087.676c-.163.45.009.955.412 1.214a9.151 9.151 0 0 0 4.94 1.448c5.687 0 9.104-4.577 9.165-9.044a6.81 6.81 0 0 0 1.214-1.354 1.033 1.033 0 0 0-.223-1.459" fill-rule="evenodd"/></svg>