<svg width="16" height="16" viewBox="0 0 16 16" xmlns="http://www.w3.org/2000/svg"><title>folder--small</title><path d="M15.2 4.294v7.647c0 1.265-1.077 2.294-2.4 2.294H3.2c-1.323 0-2.4-1.029-2.4-2.294V6.588c0-1.265 1.077-2.294 2.4-2.294H10c.22 0 .4-.171.4-.382v-.383c0-.422.36-.764.8-.764h3.2c.44 0 .8.342.8.764v.765zM14.4 2h-3.2c-.883 0-1.6.684-1.6 1.53H3.2C1.44 3.53 0 4.905 0 6.587v5.353C0 13.624 1.44 15 3.2 15h9.6c1.76 0 3.2-1.376 3.2-3.059V3.53C16 2.684 15.283 2 14.4 2z" fill-rule="evenodd"/></svg>