<svg width="16" height="16" viewBox="0 0 16 16" xmlns="http://www.w3.org/2000/svg"><title>globe--small</title><path d="M9.034 14.126c.674-1.026 1.437-2.285 1.824-3.795h2.906a6.235 6.235 0 0 1-4.73 3.795zm-6.798-3.795h2.742c.423 1.5 1.246 2.807 1.928 3.786a6.235 6.235 0 0 1-4.67-3.786zm-.254-3.888h2.98c-.171.687-.268 1.338-.268 1.944 0 .4.047.786.113 1.167H1.982a6.218 6.218 0 0 1-.204-1.556c0-.537.076-1.056.204-1.555zm5.015-4.578c-.826 1.365-1.43 2.633-1.812 3.8h-2.95a6.233 6.233 0 0 1 4.762-3.8zm6.767 3.8h-3.068a15.889 15.889 0 0 0-1.633-3.79 6.236 6.236 0 0 1 4.701 3.79zM8 1.779c.032 0 .063.004.095.004.598.89 1.338 2.326 1.8 3.884H6.003c.411-1.18 1.066-2.478 1.961-3.887L8 1.778zM5.601 9.554a6.047 6.047 0 0 1-.129-1.167c0-.599.104-1.25.29-1.944h4.333a8.88 8.88 0 0 1 .238 1.944c0 .407-.046.792-.11 1.167H5.602zm2.444 4.663L8 14.219c-.024 0-.048-.003-.072-.004l-.005-.006c-.658-.922-1.627-2.295-2.126-3.878h4.253c-.415 1.47-1.219 2.698-1.91 3.74l-.095.146zm5.973-4.663h-3.006c.058-.377.1-.762.1-1.167 0-.647-.091-1.301-.226-1.944h3.132c.128.499.204 1.018.204 1.555 0 .539-.076 1.057-.204 1.556zM15 7.998c0-3.692-2.863-6.71-6.49-6.972C8.505 1.019 8 1 8 1s-.471.016-.476.024C3.881 1.27 1 4.294 1 7.998a6.999 6.999 0 0 0 7 6.999c.096 0 .338.007.343 0A7.009 7.009 0 0 0 15 7.998z" fill-rule="evenodd"/></svg>