<svg width="24" height="24" viewBox="0 0 24 24" xmlns="http://www.w3.org/2000/svg"><title>globe</title><path d="M14.493 19.568a15.9 15.9 0 0 0 1.836-4.515h3.024a8.365 8.365 0 0 1-4.86 4.515m-3.225.463a14.209 14.209 0 0 1-2.442-4.978h5.788a14.209 14.209 0 0 1-2.441 4.978c-.151.007-.755.007-.905 0m-7.18-4.978H7.11a15.9 15.9 0 0 0 1.836 4.515 8.363 8.363 0 0 1-4.86-4.515m4.86-11.181A15.9 15.9 0 0 0 7.11 8.387H4.088a8.366 8.366 0 0 1 4.859-4.515m3.226-.463c.648.836 1.809 2.58 2.441 4.978H8.826a14.209 14.209 0 0 1 2.442-4.978c.15-.007.754-.007.905 0M8.387 11.72c0-.578.039-1.133.108-1.667h6.45a12.944 12.944 0 0 1 0 3.334h-6.45c-.07-.534-.108-1.09-.108-1.667m-5 0c0-.57.058-1.128.168-1.667H6.82c-.062.537-.1 1.091-.1 1.667 0 .576.038 1.13.1 1.667H3.555a8.32 8.32 0 0 1-.168-1.667m16.666 0a8.32 8.32 0 0 1-.168 1.667H16.62c.062-.537.101-1.091.101-1.667 0-.576-.04-1.13-.1-1.667h3.265c.11.54.168 1.096.168 1.667m-.7-3.333h-3.024a15.9 15.9 0 0 0-1.836-4.515 8.368 8.368 0 0 1 4.86 4.515M11.72 1.72c-5.523 0-10 4.478-10 10s4.477 10 10 10 10-4.477 10-10-4.477-10-10-10" fill-rule="evenodd"/></svg>