<svg width="16" height="16" viewBox="0 0 16 16" xmlns="http://www.w3.org/2000/svg" xmlns:xlink="http://www.w3.org/1999/xlink"><title>grid--small</title><defs><path id="a" d="M0 0h6.125v6.125H0z"/><path id="c" d="M0 0h6.125v6.125H0z"/></defs><g fill-rule="evenodd"><g transform="translate(1 1)"><mask id="b"><use xlink:href="#a"/></mask><path d="M5.183 0H.943A.943.943 0 0 0 0 .942v4.24c0 .521.423.943.942.943h4.24c.521 0 .943-.422.943-.942V.943A.942.942 0 0 0 5.183 0" mask="url(#b)"/></g><path d="M14.058 1h-4.24a.943.943 0 0 0-.943.942v4.24c0 .521.423.943.942.943h4.24c.521 0 .943-.422.943-.942v-4.24A.942.942 0 0 0 14.058 1"/><g transform="translate(1 8.875)"><mask id="d"><use xlink:href="#c"/></mask><path d="M5.183 0H.943A.943.943 0 0 0 0 .942v4.24c0 .521.423.943.942.943h4.24c.521 0 .943-.422.943-.942V.943A.942.942 0 0 0 5.183 0" mask="url(#d)"/></g><path d="M14.058 8.875h-4.24a.943.943 0 0 0-.943.942v4.24c0 .521.423.943.942.943h4.24c.521 0 .943-.422.943-.942v-4.24a.942.942 0 0 0-.942-.943"/></g></svg>