<svg width="18" height="18" viewBox="0 0 18 18" xmlns="http://www.w3.org/2000/svg" xmlns:xlink="http://www.w3.org/1999/xlink"><title>grid--small</title><defs><path id="a" d="M0 0h7v7H0z"/><path id="c" d="M0 0h7v7H0z"/></defs><g fill-rule="evenodd"><g transform="translate(1 1)"><mask id="b"><use xlink:href="#a"/></mask><path d="M5.923 0H1.077C.483 0 0 .482 0 1.077v4.846C0 6.518.483 7 1.077 7h4.846C6.518 7 7 6.518 7 5.923V1.077C7 .482 6.518 0 5.923 0" mask="url(#b)"/></g><path d="M15.923 1h-4.846C10.483 1 10 1.482 10 2.077v4.846C10 7.518 10.483 8 11.077 8h4.846C16.518 8 17 7.518 17 6.923V2.077C17 1.482 16.518 1 15.923 1"/><g transform="translate(1 10)"><mask id="d"><use xlink:href="#c"/></mask><path d="M5.923 0H1.077C.483 0 0 .482 0 1.077v4.846C0 6.518.483 7 1.077 7h4.846C6.518 7 7 6.518 7 5.923V1.077C7 .482 6.518 0 5.923 0" mask="url(#d)"/></g><path d="M15.923 10h-4.846c-.594 0-1.077.482-1.077 1.077v4.846c0 .595.483 1.077 1.077 1.077h4.846c.595 0 1.077-.482 1.077-1.077v-4.846c0-.595-.482-1.077-1.077-1.077"/></g></svg>