<svg width="24" height="24" viewBox="0 0 24 24" xmlns="http://www.w3.org/2000/svg" xmlns:xlink="http://www.w3.org/1999/xlink"><title>grid</title><defs><path id="a" d="M0 0h8v8H0z"/><path id="c" d="M0 0h8v8H0z"/></defs><g fill-rule="evenodd"><path d="M8.769 2H3.231A1.23 1.23 0 0 0 2 3.23v5.54C2 9.449 2.551 10 3.231 10h5.538A1.23 1.23 0 0 0 10 8.77V3.23A1.23 1.23 0 0 0 8.769 2"/><g transform="translate(14 2)"><mask id="b"><use xlink:href="#a"/></mask><path d="M6.769 0H1.231A1.23 1.23 0 0 0 0 1.23v5.54C0 7.449.551 8 1.231 8h5.538A1.23 1.23 0 0 0 8 6.77V1.23A1.23 1.23 0 0 0 6.769 0" mask="url(#b)"/></g><path d="M8.769 14H3.231A1.23 1.23 0 0 0 2 15.23v5.54c0 .679.551 1.23 1.231 1.23h5.538A1.23 1.23 0 0 0 10 20.77v-5.54A1.23 1.23 0 0 0 8.769 14"/><g transform="translate(14 14)"><mask id="d"><use xlink:href="#c"/></mask><path d="M6.769 0H1.231A1.23 1.23 0 0 0 0 1.23v5.54C0 7.449.551 8 1.231 8h5.538A1.23 1.23 0 0 0 8 6.77V1.23A1.23 1.23 0 0 0 6.769 0" mask="url(#d)"/></g></g></svg>