<svg width="24" height="24" viewBox="0 0 24 24" xmlns="http://www.w3.org/2000/svg"><title>groups</title><path d="M17.417 20.333a2.92 2.92 0 0 1-2.917-2.916 2.92 2.92 0 0 1 2.917-2.917 2.92 2.92 0 0 1 2.916 2.917 2.92 2.92 0 0 1-2.916 2.916m0-7.5a4.583 4.583 0 1 0 0 9.167 4.583 4.583 0 0 0 0-9.167m-10.834 7.5a2.92 2.92 0 0 1-2.916-2.916A2.92 2.92 0 0 1 6.583 14.5 2.92 2.92 0 0 1 9.5 17.417a2.92 2.92 0 0 1-2.917 2.916m0-7.5a4.583 4.583 0 1 0 0 9.167 4.583 4.583 0 0 0 0-9.167m10.834-9.166a2.92 2.92 0 0 1 2.916 2.916A2.92 2.92 0 0 1 17.417 9.5 2.92 2.92 0 0 1 14.5 6.583a2.92 2.92 0 0 1 2.917-2.916m0 7.5a4.583 4.583 0 1 0 0-9.167 4.583 4.583 0 0 0 0 9.167M6.583 9.5a2.92 2.92 0 0 1-2.916-2.917 2.92 2.92 0 0 1 2.916-2.916A2.92 2.92 0 0 1 9.5 6.583 2.92 2.92 0 0 1 6.583 9.5m0-7.5a4.583 4.583 0 1 0 0 9.167 4.583 4.583 0 0 0 0-9.167" fill-rule="evenodd"/></svg>