<svg width="24" height="24" viewBox="0 0 24 24"><path fill-rule="evenodd" d="M12.5 10a1.5 1.5 0 1 1 0-3 1.5 1.5 0 0 1 0 3m-3 1a2.5 2.5 0 1 0 0 5.001A2.5 2.5 0 0 0 9.5 11M8 17a2 2 0 1 0 0 4 2 2 0 0 0 0-4m6-11a2 2 0 1 0 0-4 2 2 0 0 0 0 4m1 6a2 2 0 1 0 0 4.001A2 2 0 0 0 15 12m3 4a2 2 0 1 0 0 4 2 2 0 0 0 0-4m-4.5 3a1.5 1.5 0 1 0 0 3 1.5 1.5 0 0 0 0-3M4 14a1.5 1.5 0 1 0 0 3 1.5 1.5 0 0 0 0-3m.032-2.001c1.122 0 2.032-.895 2.032-1.999s-.91-2-2.032-2C2.909 8 2 8.896 2 10s.91 1.999 2.032 1.999M20.5 12a1.5 1.5 0 1 0 0 3 1.5 1.5 0 0 0 0-3m-2-2a2.5 2.5 0 1 0 0-5 2.5 2.5 0 0 0 0 5M8.104 8.327a2.62 2.62 0 1 0 .001-5.24 2.62 2.62 0 0 0-.002 5.24"/></svg>