<svg width="16" height="16" viewBox="0 0 16 16" xmlns="http://www.w3.org/2000/svg"><title>groups--small</title><path d="M11.692 14.122c-1.34 0-2.43-1.09-2.43-2.43s1.09-2.43 2.43-2.43 2.43 1.09 2.43 2.43-1.09 2.43-2.43 2.43m0-5.639a3.209 3.209 0 1 0 .001 6.418 3.209 3.209 0 0 0-.001-6.418m-7.584 5.64c-1.34 0-2.43-1.091-2.43-2.431s1.09-2.43 2.43-2.43 2.43 1.09 2.43 2.43-1.09 2.43-2.43 2.43m0-5.639a3.209 3.209 0 1 0 .002 6.418 3.209 3.209 0 0 0-.002-6.418m7.584-6.805c1.34 0 2.43 1.09 2.43 2.43s-1.09 2.43-2.43 2.43-2.43-1.09-2.43-2.43 1.09-2.43 2.43-2.43m0 5.639A3.209 3.209 0 1 0 11.69.899a3.209 3.209 0 0 0 .002 6.418m-7.584-.778c-1.34 0-2.43-1.09-2.43-2.43s1.09-2.431 2.43-2.431 2.43 1.09 2.43 2.43-1.09 2.43-2.43 2.43m0-5.638a3.209 3.209 0 1 0 .002 6.418A3.209 3.209 0 0 0 4.108.9" fill-rule="evenodd"/></svg>