<svg xmlns="http://www.w3.org/2000/svg" xmlns:xlink="http://www.w3.org/1999/xlink" width="24" height="24" viewBox="0 0 24 24"><defs><path id="a" d="M8.104 8.327a2.62 2.62 0 1 0 0-5.24 2.62 2.62 0 0 0 0 5.24M18.5 10a2.5 2.5 0 1 0 0-5 2.5 2.5 0 0 0 0 5m2 2a1.5 1.5 0 1 0-.001 2.999A1.5 1.5 0 0 0 20.5 12m-16.468-.001c1.123 0 2.032-.895 2.032-1.999s-.91-2-2.032-2C2.91 8 2 8.896 2 10s.91 1.999 2.032 1.999M4 14a1.5 1.5 0 1 0 0 3 1.5 1.5 0 0 0 0-3m9.5 5a1.5 1.5 0 1 0 0 3 1.5 1.5 0 0 0 0-3m4.499-3A2 2 0 0 0 16 18.001a2 2 0 1 0 4 0A2.001 2.001 0 0 0 17.999 16M15 12a2 2 0 1 0 0 4 2 2 0 0 0 0-4m-1-6a2 2 0 1 0 0-4 2 2 0 0 0 0 4M8 17a2 2 0 1 0 0 4 2 2 0 0 0 0-4m1.5-6a2.5 2.5 0 1 0 0 5 2.5 2.5 0 0 0 0-5m3-1a1.5 1.5 0 1 1-.001-2.999A1.5 1.5 0 0 1 12.5 10"/></defs><use xlink:href="#a" overflow="visible" fill-rule="evenodd" clip-rule="evenodd"/></svg>