<svg xmlns="http://www.w3.org/2000/svg" width="300" height="300" viewBox="0 0 300 300"><path fill-rule="evenodd" clip-rule="evenodd" d="M102.274 105.204c18.087 0 32.75-14.663 32.75-32.752 0-18.087-14.663-32.75-32.75-32.75-18.089 0-32.75 14.663-32.75 32.75 0 18.089 14.662 32.752 32.75 32.752m122.655 31.971c18.09 0 32.753-14.663 32.753-32.75 0-18.089-14.663-32.75-32.753-32.75-18.086 0-32.75 14.661-32.75 32.75 0 18.087 14.664 32.75 32.75 32.75m21.791 9.21c-12.277 0-22.231 9.953-22.231 22.231 0 12.279 9.954 22.231 22.231 22.231 12.278 0 22.231-9.952 22.231-22.231 0-12.278-9.953-22.231-22.231-22.231M55.231 149.8c12.279 0 22.231-9.952 22.231-22.231 0-12.276-9.953-22.229-22.231-22.229S33 115.292 33 127.568c0 12.28 9.953 22.232 22.231 22.232m0 17.157C42.953 166.957 33 176.91 33 189.188c0 12.279 9.953 22.231 22.231 22.231s22.231-9.952 22.231-22.231c.001-12.278-9.952-22.231-22.231-22.231m111.031 55.806c-12.279 0-22.231 9.953-22.231 22.231 0 12.279 9.952 22.231 22.231 22.231s22.231-9.952 22.231-22.231c0-12.278-9.952-22.231-22.231-22.231m55.805-22.67c-12.279 0-22.231 9.952-22.231 22.231 0 12.276 9.952 22.231 22.231 22.231 12.278 0 22.231-9.955 22.231-22.231.001-12.279-9.952-22.231-22.231-22.231m-43.598-41.274c-12.278 0-22.23 9.952-22.23 22.231 0 12.278 9.952 22.23 22.23 22.23 12.279 0 22.232-9.952 22.232-22.23 0-12.279-9.953-22.231-22.232-22.231m-8.139-79.356c12.277 0 22.232-9.953 22.232-22.231S182.607 35 170.33 35c-12.278 0-22.23 9.953-22.23 22.231s9.952 22.232 22.23 22.232M103.479 205.21c-14.588 0-26.413 11.827-26.413 26.415 0 14.587 11.825 26.414 26.413 26.414s26.415-11.827 26.415-26.414c0-14.588-11.827-26.415-26.415-26.415m9.884-70.919c-14.59 0-26.415 11.825-26.415 26.413s11.825 26.415 26.415 26.415c14.588 0 26.413-11.827 26.413-26.415s-11.825-26.413-26.413-26.413m44.76 5.047c-12.279 0-22.231-9.953-22.231-22.231 0-12.277 9.953-22.231 22.231-22.231 12.279 0 22.231 9.955 22.231 22.231 0 12.278-9.952 22.231-22.231 22.231"/></svg>