<svg width="16" height="16" viewBox="0 0 16 16" xmlns="http://www.w3.org/2000/svg"><title>heart-outline--small</title><path d="M11.829 2c-1.164 0-2.336.46-3.207 1.318L8 3.932l-.621-.614A4.595 4.595 0 0 0 4.17 2c-.932 0-1.858.294-2.618.914a4.152 4.152 0 0 0-.309 6.202l5.06 4.99A2.407 2.407 0 0 0 8 14.8c.614 0 1.229-.231 1.697-.694l5.06-4.99a4.152 4.152 0 0 0-.31-6.202A4.115 4.115 0 0 0 11.83 2m0 .8a3.3 3.3 0 0 1 2.113.734 3.345 3.345 0 0 1 1.254 2.46c.046.95-.32 1.88-1.001 2.552l-5.06 4.99A1.608 1.608 0 0 1 8 14c-.43 0-.833-.165-1.135-.463l-5.06-4.99a3.368 3.368 0 0 1-1-2.553 3.345 3.345 0 0 1 1.254-2.46A3.298 3.298 0 0 1 4.17 2.8a3.8 3.8 0 0 1 2.646 1.088l.622.613a.797.797 0 0 0 1.123 0l.621-.613A3.797 3.797 0 0 1 11.83 2.8" fill-rule="evenodd"/></svg>