<svg width="24" height="24" viewBox="0 0 24 24"><path fill-rule="evenodd" d="M16.786 4c-1.454 0-2.92.574-4.009 1.648L12 6.415l-.777-.767A5.743 5.743 0 0 0 7.214 4a5.148 5.148 0 0 0-3.273 1.142 5.192 5.192 0 0 0-.386 7.753l.939.925 5.385 5.312a3.008 3.008 0 0 0 2.12.868c.769 0 1.537-.289 2.122-.868l5.386-5.312.938-.925a5.192 5.192 0 0 0-.385-7.753A5.15 5.15 0 0 0 16.786 4m0 1.778c.793 0 1.523.252 2.11.73a3.423 3.423 0 0 1 1.28 2.515 3.447 3.447 0 0 1-1.023 2.62l-.938.926-5.385 5.313c-.223.22-.517.34-.83.34-.312 0-.607-.12-.83-.34l-5.386-5.313-.938-.925a3.45 3.45 0 0 1-1.023-2.62 3.43 3.43 0 0 1 1.281-2.516 3.298 3.298 0 0 1 2.11-.73c1.004 0 1.995.409 2.718 1.122l.776.766a1.842 1.842 0 0 0 2.584 0l.777-.766a3.903 3.903 0 0 1 2.717-1.122"/></svg>