<svg xmlns="http://www.w3.org/2000/svg" width="24" height="24" viewBox="0 0 24 24"><path d="M17.029 2C15.113 2 13.2 2.973 12 4.42 10.8 2.973 9.044 2 7.129 2 3.754 2 1 4.742 1 8.291c0 4.676 2.1 6.326 7.912 11.793l1.475 1.432c.348.329 1.063.484 1.505.484.44 0 1.134-.158 1.48-.484l1.613-1.451C20.781 14.602 23 13.121 23 8.451 23 4.742 20.403 2 17.029 2z"/><g fill="none" stroke="#F3F" stroke-miterlimit="10"><path stroke-width=".075" d="M22 12c0 5.522-4.473 10-10 10S2 17.522 2 12 6.473 2 12 2s10 4.478 10 10z"/><circle stroke-width=".075" cx="12" cy="12" r="5"/><path d="M4.562 22.75"/><path stroke-width=".075" d="M24 24L0 0M0 24L24 0"/></g></svg>