<svg width="24" height="24" viewBox="0 0 24 24" xmlns="http://www.w3.org/2000/svg"><title>heart-outline</title><path d="M17.265 3c-1.6 0-3.213.668-4.41 1.917L12 5.81l-.855-.892C9.948 3.668 8.335 3 6.735 3a5.47 5.47 0 0 0-3.6 1.33C.437 6.653.296 10.83 2.71 13.347l6.956 7.259A3.221 3.221 0 0 0 12 21.615c.845 0 1.689-.336 2.334-1.008l6.956-7.259c2.414-2.519 2.272-6.694-.426-9.019A5.466 5.466 0 0 0 17.264 3m0 1.692c.935 0 1.799.318 2.496.92.934.805 1.482 1.943 1.542 3.204.06 1.255-.39 2.48-1.234 3.361l-6.956 7.259a1.536 1.536 0 0 1-1.112.487c-.415 0-.81-.174-1.112-.487l-6.956-7.259c-.844-.88-1.295-2.106-1.234-3.36.06-1.262.607-2.4 1.542-3.206a3.767 3.767 0 0 1 2.495-.919c1.176 0 2.338.51 3.189 1.396l.854.892a1.69 1.69 0 0 0 2.444 0l.855-.892c.85-.886 2.012-1.396 3.188-1.396" fill-rule="evenodd"/></svg>