<svg width="28" height="28" viewBox="0 0 28 28" xmlns="http://www.w3.org/2000/svg"><title>heart-outline</title><path d="M20.222 3c-1.89 0-3.797.79-5.212 2.266L14 6.32l-1.01-1.054C11.575 3.79 9.67 3 7.778 3a6.464 6.464 0 0 0-4.255 1.571C.335 7.318.168 12.253 3.021 15.23l8.221 8.578A3.807 3.807 0 0 0 14 25c.998 0 1.996-.397 2.758-1.192l8.221-8.578c2.853-2.977 2.685-7.912-.503-10.659A6.46 6.46 0 0 0 20.222 3m0 2c1.104 0 2.125.375 2.95 1.086 1.103.952 1.75 2.297 1.821 3.788.071 1.483-.46 2.931-1.458 3.972l-8.22 8.578A1.815 1.815 0 0 1 14 23c-.49 0-.958-.205-1.314-.576l-8.22-8.578c-.999-1.041-1.53-2.489-1.46-3.972.071-1.491.718-2.836 1.823-3.788A4.452 4.452 0 0 1 7.78 5c1.388 0 2.762.602 3.767 1.65l1.01 1.054a1.997 1.997 0 0 0 2.888 0l1.01-1.054C17.46 5.602 18.832 5 20.222 5" fill-rule="evenodd"/></svg>