<svg xmlns="http://www.w3.org/2000/svg" width="24" height="24" viewBox="0 0 24 24"><path d="M17 2c-1.916 0-3.8.973-5 2.42C10.8 2.973 8.916 2 7 2 3.625 2 1 4.451 1 8c0 4.676 2.1 6.617 7.912 12.084l1.475 1.432c.348.329 1.063.484 1.505.484.44 0 1.134-.158 1.48-.484l1.613-1.451C20.781 14.602 23 12.67 23 8c0-3.709-2.625-6-6-6zm-4.528 15.645l-.472.484-.471-.484C6.5 12.807 5 11.615 5 9c0-2 1-3 2.5-3s2.3.678 2.771 1.322c.34.466 1.025.969 1.729.969.706 0 1.257-.323 1.729-.969C14.2 6.678 15 6 16.5 6S19 7 19 9c0 2.801-1.657 3.967-6.528 8.645z"/></svg>