<svg width="24" height="24" viewBox="0 0 24 24"><path fill-rule="evenodd" d="M11.786 8.7l2.843 2.982c.002-.053.015-.103.015-.157 0-1.57-1.213-2.842-2.71-2.842-.05 0-.098.014-.148.016zm-3.89.744l1.398 1.465a2.949 2.949 0 0 0-.069.616c0 1.57 1.213 2.842 2.71 2.842.203 0 .399-.027.588-.07l1.397 1.464c-.602.31-1.27.501-1.985.501-2.494 0-4.516-2.12-4.516-4.737 0-.75.181-1.45.478-2.081zM2.904 4.205l2.058 2.16.411.431A11.231 11.231 0 0 0 2 11.526c1.56 4.157 5.417 7.105 9.935 7.105 1.4 0 2.735-.284 3.959-.798l.383.4L18.913 21l1.15-1.206L4.053 3l-1.15 1.205zm9.032 2.584c2.493 0 4.515 2.12 4.515 4.736 0 .612-.119 1.193-.32 1.73l2.639 2.768a11.233 11.233 0 0 0 3.1-4.498c-1.56-4.158-5.416-7.105-9.934-7.105-1.265 0-2.474.238-3.599.661l1.95 2.045a4.309 4.309 0 0 1 1.649-.337z"/></svg>