<svg width="16" height="16" viewBox="0 0 16 16" xmlns="http://www.w3.org/2000/svg"><title>hide--small</title><path d="M10.612 11.291L5.244 4.683c-1.489.648-2.7 1.801-3.357 3.268 1.032 2.31 3.432 3.85 6.137 3.85a6.95 6.95 0 0 0 2.588-.51zm3.501 3.09c.124.164.099.399-.062.531a.384.384 0 0 1-.542-.054l-2.394-2.946a7.58 7.58 0 0 1-3.091.666c-3.102 0-5.845-1.8-6.965-4.484L1 7.951l.06-.14c.695-1.67 2.021-2.995 3.67-3.76l-1.967-2.42a.385.385 0 1 1 .597-.487l10.753 13.237zM6.316 3.53a7.563 7.563 0 0 1 1.708-.205c3.1 0 5.797 1.741 6.917 4.424l.059.142-.06.143c-.52 1.246-1.4 2.286-2.484 3.07l-.47-.578c.938-.657 1.705-1.525 2.174-2.576-1.032-2.308-3.432-3.848-6.136-3.848-.395 0-.78.042-1.158.106l-.55-.679z" fill-rule="evenodd"/></svg>