<svg width="24" height="24" viewBox="0 0 24 24" xmlns="http://www.w3.org/2000/svg"><title>hide</title><path d="M15.034 17.216l-7.49-9.203c-1.747.95-3.058 2.467-3.877 4.354 1.421 3.272 4.532 5.445 8.155 5.445 1.124 0 2.208-.21 3.212-.596zm5.042 3.776c.142.334.068.577-.226.819a.83.83 0 0 1-1.173-.118l-2.52-3.097a11.02 11.02 0 0 1-4.335.892c-4.425 0-8.104-2.638-9.702-6.715L2 12.469l.12-.302c.895-2.282 2.44-4.162 4.404-5.388L3.678 3.302a.795.795 0 0 1 .117-1.141c.356-.292.88-.163 1.173.196l3.078 3.936h.003l12.027 14.7zM9.774 5.462a9.972 9.972 0 0 1 2.049-.216c4.426 0 8.457 2.834 10.056 6.911l.121.307-.12.306a10.354 10.354 0 0 1-2.896 4.066l-1.124-1.388a9.032 9.032 0 0 0 2.227-3.081c-1.422-3.272-4.641-5.445-8.264-5.445-.28 0-.557.016-.831.042L9.774 5.462z" fill-rule="evenodd"/></svg>