<svg width="28" height="28" viewBox="0 0 28 28" xmlns="http://www.w3.org/2000/svg"><title>hide</title><path d="M17.641 20.164L8.652 9.178C6.556 10.311 4.983 12.123 4 14.375c1.706 3.906 5.439 6.5 9.787 6.5 1.348 0 2.649-.25 3.854-.71zm6.05 4.508c.171.398.082.688-.271.977a1 1 0 0 1-1.407-.14l-3.025-3.698a13.284 13.284 0 0 1-5.201 1.065c-5.311 0-9.725-3.149-11.643-8.016L2 14.497l.144-.36c1.074-2.724 2.929-4.969 5.285-6.432l-3.416-4.15a.946.946 0 0 1 .141-1.363c.427-.349 1.057-.194 1.407.234l3.694 4.7h.004l14.432 17.546zM11.329 6.132a12.026 12.026 0 0 1 2.458-.257c5.312 0 10.149 3.383 12.068 8.25l.145.366-.145.366a12.362 12.362 0 0 1-3.474 4.853l-1.349-1.657a10.785 10.785 0 0 0 2.672-3.678 10.823 10.823 0 0 0-9.917-6.5c-.336 0-.668.02-.997.051l-1.461-1.794z" fill-rule="evenodd"/></svg>