<svg width="16" height="16" viewBox="0 0 16 16" xmlns="http://www.w3.org/2000/svg"><title>home--small</title><path d="M7.611 9.592h.778c1.073 0 1.945.872 1.945 1.944v.742c0 1.072.872 1.944 1.944 1.944a1.946 1.946 0 0 0 1.945-1.944V7.809a2.73 2.73 0 0 0-.851-1.976L9.871 2.517a2.735 2.735 0 0 0-3.74 0L2.629 5.833a2.73 2.73 0 0 0-.851 1.976v4.469c0 1.072.872 1.944 1.944 1.944a1.946 1.946 0 0 0 1.945-1.944v-.742c0-1.072.872-1.944 1.944-1.944M12.278 15a2.725 2.725 0 0 1-2.722-2.722v-.742c0-.643-.523-1.166-1.167-1.166h-.778c-.643 0-1.166.523-1.166 1.166v.742A2.725 2.725 0 0 1 3.722 15 2.725 2.725 0 0 1 1 12.278V7.809c0-.957.399-1.883 1.094-2.542l3.502-3.316a3.516 3.516 0 0 1 4.81 0l3.501 3.317a3.516 3.516 0 0 1 1.094 2.541v4.469A2.725 2.725 0 0 1 12.278 15" fill-rule="evenodd"/></svg>