<svg width="24" height="24" viewBox="0 0 24 24"><path fill-rule="evenodd" d="M12 12c1.626 0 3 1.374 3 3v2.115c0 1.039.897 1.885 2 1.885s2-.846 2-1.885v-5.211c0-.577-.289-1.133-.773-1.488a1.088 1.088 0 0 1-.121-.104l-4.64-4.709c-.766-.778-2.166-.778-2.932 0l-4.64 4.709a1.088 1.088 0 0 1-.121.104A1.862 1.862 0 0 0 5 11.904v5.211C5 18.154 5.897 19 7 19s2-.846 2-1.885V15c0-1.626 1.374-3 3-3m5 9c-2.206 0-4-1.743-4-3.885V15c0-.532-.468-1-1-1s-1 .468-1 1v2.115C11 19.257 9.206 21 7 21s-4-1.743-4-3.885v-5.211a3.87 3.87 0 0 1 1.521-3.05L9.11 4.198A4.026 4.026 0 0 1 12 3c1.102 0 2.128.426 2.89 1.198l4.589 4.656A3.87 3.87 0 0 1 21 11.904v5.211C21 19.257 19.206 21 17 21"/></svg>