<svg width="28" height="28" viewBox="0 0 28 28" xmlns="http://www.w3.org/2000/svg"><title>home</title><path d="M11.35 3.96zM13 16h2c1.65 0 3 1.34 3 2.98v2c0 1.67 1.35 3.02 3 3.02s3-1.35 3-3.02V12.7c0-.86-.37-1.68-1.01-2.25l-6.97-5.71c-1.1-.98-2.93-.98-4-.03l-.04.03-7 5.74c-.61.54-.98 1.36-.98 2.22v8.27C4 22.64 5.35 24 7 24s3-1.35 3-3.02v-2c0-1.64 1.35-2.98 3-2.98zm8 10c-2.76 0-5-2.25-5-5.02v-2c0-.55-.44-.98-1-.98h-2c-.56 0-1 .43-1 .98v2C12 23.74 9.76 26 7 26s-5-2.25-5-5.02V12.7c0-1.43.61-2.8 1.69-3.75L10.7 3.2c1.83-1.6 4.79-1.6 6.61.01l6.97 5.72c1.1.97 1.72 2.34 1.72 3.77v8.27c0 2.77-2.24 5.02-5 5.02z" fill-rule="evenodd"/></svg>