<svg width="24" height="24" viewBox="0 0 24 24" xmlns="http://www.w3.org/2000/svg"><title>home</title><path d="M9.79 3.636h.01-.01zm1.377 10.028h1.666c1.379 0 2.5 1.112 2.5 2.48v1.67a2.512 2.512 0 0 0 2.5 2.519c1.379 0 2.5-1.13 2.5-2.52v-6.892c0-.717-.307-1.402-.844-1.877L13.68 4.28c-.92-.815-2.438-.816-3.337-.02-.008.007-.015.014-.024.02L4.486 9.065a2.496 2.496 0 0 0-.82 1.856v6.893a2.512 2.512 0 0 0 2.5 2.519c1.379 0 2.5-1.13 2.5-2.52v-1.669c0-1.368 1.122-2.48 2.5-2.48zM17.833 22c-2.297 0-4.166-1.878-4.166-4.186v-1.67a.815.815 0 0 0-.834-.812h-1.666a.814.814 0 0 0-.834.812v1.67c0 2.308-1.869 4.186-4.166 4.186C3.869 22 2 20.122 2 17.814V10.92c0-1.194.512-2.333 1.405-3.125l5.846-4.795c1.523-1.339 3.99-1.334 5.51.01l5.809 4.764A4.19 4.19 0 0 1 22 10.921v6.893C22 20.122 20.13 22 17.833 22z" fill-rule="evenodd"/></svg>