<svg width="16" height="16" viewBox="0 0 16 16" xmlns="http://www.w3.org/2000/svg"><title>invite--small</title><path d="M8.945 2.485c0-.44.557-.652.866-.33l5.055 5.264a.473.473 0 0 1 0 .66l-5.055 5.263c-.31.322-.866.11-.866-.33v-2.59c-3.192.106-5.408 1.25-7.028 3.61-.3.439-1.007.162-.907-.357.877-4.567 3.47-7.76 7.935-8.59v-2.6zm1 1.232v1.776a.49.49 0 0 1-.424.478c-3.54.527-5.826 2.63-6.973 5.826C4.294 10.2 6.545 9.445 9.445 9.445c.276 0 .5.217.5.484v1.851l3.872-4.031-3.872-4.032z" fill-rule="nonzero"/></svg>