<svg width="24" height="24" viewBox="0 0 24 24" xmlns="http://www.w3.org/2000/svg"><title>invite</title><path d="M13.112 7.97V4.804c0-.73 1.012-1.081 1.575-.547l7.07 6.715a.736.736 0 0 1 0 1.094l-7.07 6.714c-.563.535-1.575.183-1.575-.547v-3.111c-4.281.173-7.255 1.604-9.444 4.515-.548.728-1.832.268-1.65-.591 1.23-5.843 4.86-9.958 11.094-11.078zm1.818-1.123v1.795c0 .396-.327.733-.771.794-4.58.62-7.632 2.992-9.293 6.619 2.386-1.731 5.388-2.557 9.155-2.557.502 0 .909.36.909.803v1.891l4.92-4.672-4.92-4.673z" fill-rule="nonzero"/></svg>