<svg width="20" height="20" viewBox="0 0 20 20" xmlns="http://www.w3.org/2000/svg"><title>launch-new-window--small</title><path d="M18.5 12c-.28 0-.5.22-.5.5v.5c0 2.76-2.24 5-5 5H7c-2.76 0-5-2.24-5-5V7c0-2.76 2.24-5 5-5h.5c.28 0 .5-.22.5-.5S7.78 1 7.5 1H6c-3 .25-5 2.85-5 6v6c0 3.31 2.69 6 6 6h6c3.31 0 6-2.69 6-6v-.5c0-.28-.23-.5-.5-.5M19 1.5v8c0 .14-.06.26-.15.35-.09.1-.21.15-.35.15-.28 0-.5-.22-.5-.5V2.7L6.85 13.86c-.2.2-.5.2-.7 0-.2-.2-.2-.5 0-.7L17.29 2H10.5c-.28 0-.5-.22-.5-.5 0-.27.22-.5.5-.5h8c.06 0 .13.01.2.04.11.05.21.15.26.27.03.06.04.13.04.2" fill-rule="evenodd"/></svg>