<svg width="16" height="16" viewBox="0 0 16 16" xmlns="http://www.w3.org/2000/svg"><title>launch-new-window--small</title><path d="M14.611 9.556a.388.388 0 0 0-.389.388v.39a3.893 3.893 0 0 1-3.889 3.888H5.667a3.893 3.893 0 0 1-3.89-3.889V5.667a3.893 3.893 0 0 1 3.89-3.89h.389a.389.389 0 0 0 0-.777H4.889C2.556 1.198 1 3.22 1 5.667v4.666A4.667 4.667 0 0 0 5.667 15h4.666A4.667 4.667 0 0 0 15 10.333v-.389a.389.389 0 0 0-.389-.388M15 1.39v6.221a.388.388 0 0 1-.389.389.389.389 0 0 1-.389-.389V2.328l-8.669 8.67a.39.39 0 0 1-.55-.551l8.67-8.67H8.388a.389.389 0 1 1 0-.777l6.221.002a.391.391 0 0 1 .39.389" fill-rule="evenodd"/></svg>