<svg width="16" height="16" viewBox="0 0 16 16" xmlns="http://www.w3.org/2000/svg"><title>link--small</title><path d="M2.795 9.358a2.725 2.725 0 0 0 0 3.847 2.725 2.725 0 0 0 3.847 0l2.263-2.263a2.724 2.724 0 0 0 .135-3.706.481.481 0 1 0-.725.633 1.744 1.744 0 0 1-.089 2.394l-2.263 2.263a1.746 1.746 0 0 1-2.49 0 1.746 1.746 0 0 1 0-2.49l2.264-2.262a.48.48 0 1 0-.679-.68L2.795 9.359zm4.3-4.3a2.724 2.724 0 0 0-.135 3.706.481.481 0 0 0 .725-.633 1.744 1.744 0 0 1 .089-2.394l2.263-2.263a1.746 1.746 0 0 1 2.49 0 1.746 1.746 0 0 1 0 2.49l-2.264 2.262a.48.48 0 1 0 .679.68l2.263-2.264a2.725 2.725 0 0 0 0-3.847 2.725 2.725 0 0 0-3.847 0L7.095 5.058z" fill-rule="nonzero"/></svg>