<svg width="24" height="24" viewBox="0 0 24 24" xmlns="http://www.w3.org/2000/svg"><title>link</title><path d="M3.045 13.983a4.542 4.542 0 0 0 0 6.412 4.542 4.542 0 0 0 6.412 0l3.772-3.772a4.54 4.54 0 0 0 .224-6.176.802.802 0 1 0-1.208 1.055 2.907 2.907 0 0 1-.148 3.99l-3.772 3.772a2.91 2.91 0 0 1-4.149 0 2.91 2.91 0 0 1 0-4.15l3.772-3.771a.8.8 0 1 0-1.131-1.132l-3.772 3.772zm7.166-7.166a4.54 4.54 0 0 0-.224 6.176.802.802 0 0 0 1.208-1.055 2.907 2.907 0 0 1 .148-3.99l3.772-3.772a2.91 2.91 0 0 1 4.149 0 2.91 2.91 0 0 1 0 4.15l-3.772 3.771a.8.8 0 1 0 1.131 1.132l3.772-3.772a4.542 4.542 0 0 0 0-6.412 4.542 4.542 0 0 0-6.412 0l-3.772 3.772z" fill-rule="nonzero"/></svg>