<svg xmlns="http://www.w3.org/2000/svg" width="24" height="24" viewBox="0 0 24 24"><circle cx="12" cy="12" r="2"/><path d="M10.352 16.604l-.707.707a2 2 0 0 1-2.828-2.828l.707-.707a2 2 0 1 0-2.829-2.829l-1.414 1.414c-2.122 2.122-1.415 5.657.707 7.779 1.936 1.936 5.046 2.684 7.726.654l1.467-1.361a2 2 0 1 0-2.829-2.829zM20.012 3.86c-1.936-1.936-5.046-2.685-7.726-.654L10.82 4.567a2 2 0 1 0 2.828 2.828l.708-.707a2 2 0 1 1 2.828 2.828l-.708.707a2 2 0 0 0 2.829 2.829l1.414-1.415c2.121-2.12 1.414-5.656-.707-7.777z"/></svg>