<svg width="28" height="28" viewBox="0 0 28 28" xmlns="http://www.w3.org/2000/svg"><title>location-pin-slashed</title><path d="M16 10c0-1.104-.897-2-2-2-.516 0-.981.201-1.336.522l-1.257-1.543A3.968 3.968 0 0 1 14 6c2.206 0 4 1.794 4 4 0 1.285-.62 2.418-1.564 3.15l-1.257-1.543c.495-.364.821-.946.821-1.607zM8.987 4.011L7.746 2.488C9.548.877 11.789 0 14 0c4.916 0 10 4.298 10 11.49 0 2.267-1.019 5.161-2.381 8.02l-1.412-1.733C21.368 15.186 22 13.027 22 11.49 22 5.326 17.878 2 14 2c-1.758 0-3.562.689-5.013 2.011zm7.555 20.566A2.97 2.97 0 0 1 14 26a2.969 2.969 0 0 1-2.541-1.423C7.938 18.873 6 14.225 6 11.49c0-1.613.289-3.024.777-4.237l11.606 14.156a68.711 68.711 0 0 1-1.841 3.168zm4.163-3.243a.186.186 0 0 1 .01-.02l-1.388-1.692-.007.013L5.774 3.014c-.35-.428-.98-.583-1.407-.235-.428.352-.491.936-.141 1.363l1.156 1.409C4.52 7.208 4 9.2 4 11.49c0 3.191 1.937 7.948 5.756 14.137A4.96 4.96 0 0 0 14 28c1.74 0 3.327-.887 4.243-2.373a78.374 78.374 0 0 0 1.507-2.551l2.476 3.02a1 1 0 0 0 1.407.14c.353-.289.442-.578.271-.976l-3.199-3.926z" fill-rule="evenodd"/></svg>