<svg width="16" height="16" viewBox="0 0 16 16" xmlns="http://www.w3.org/2000/svg"><title>location-pin-slashed--small</title><path d="M9 6.806a.79.79 0 0 0-.778-.8.76.76 0 0 0-.634.364l-.493-.66a1.526 1.526 0 0 1 1.127-.504c.858 0 1.556.717 1.556 1.6 0 .607-.335 1.13-.82 1.401l-.488-.653c.307-.108.53-.399.53-.748zM4.553 2.302l-.458-.615C5.252.597 6.748 0 8.222 0c3.06 0 6.222 2.546 6.222 6.805 0 1.462-.742 3.422-2.187 5.826l-.505-.677c1.254-2.141 1.915-3.9 1.915-5.15 0-3.9-2.805-6.004-5.445-6.004a5.333 5.333 0 0 0-3.669 1.502zm5.884 11.72A2.652 2.652 0 0 1 8.222 15.2a2.652 2.652 0 0 1-2.214-1.178c-2.113-3.09-3.23-5.585-3.23-7.217 0-1.307.321-2.406.84-3.296l7.3 9.788c-.153.237-.313.479-.481.725zM2.647.95a.345.345 0 0 0-.513-.06.426.426 0 0 0-.052.561L3.125 2.85C2.432 3.909 2 5.239 2 6.805c0 1.823 1.135 4.406 3.372 7.677.66.965 1.7 1.518 2.85 1.518 1.151 0 2.19-.553 2.85-1.518.122-.177.229-.346.343-.52l.827 1.108a.343.343 0 0 0 .513.056.423.423 0 0 0 .058-.546L2.647.949z" fill-rule="evenodd"/></svg>