<svg width="24" height="24" viewBox="0 0 24 24"><path fill-rule="evenodd" d="M16.58 14.087l-.04.049-.036.05-3.978 5.535a.636.636 0 0 1-1.054 0L7.52 14.219l-.036-.051-.039-.048a6.285 6.285 0 0 1-1.069-6.136c.72-2.023 2.394-3.471 4.476-3.874a6.093 6.093 0 0 1 2.295 0c2.085.403 3.76 1.851 4.48 3.873.746 2.106.354 4.388-1.048 6.104m2.933-6.772c.981 2.767.465 5.775-1.384 8.038l-3.978 5.535a2.634 2.634 0 0 1-4.302 0l-3.952-5.502c-1.877-2.296-2.39-5.304-1.405-8.071.96-2.699 3.201-4.631 5.984-5.168a8.057 8.057 0 0 1 3.052 0c2.783.537 5.025 2.469 5.985 5.168zM12 7a3.001 3.001 0 0 0 0 6 3.001 3.001 0 0 0 0-6z"/></svg>