<svg width="16" height="16" viewBox="0 0 16 16" xmlns="http://www.w3.org/2000/svg"><title>location-services--small</title><path d="M14.222 1c-.468 0-6.015 2.249-9.333 3.889C1.57 6.529 1 6.469 1 7.223c0 .43.376.779.79.779C1.793 8 5.561 8 7.221 8c.429 0 .776.347.778.775v5.447c0 .412.347.778.776.778h.002c.765 0 1.394-1.832 1.944-3.111C11.002 11.238 15 2.063 15 1.778A.778.778 0 0 0 14.222 1M8.77 14.222l.009-5.45a1.559 1.559 0 0 0-1.556-1.55c-3.681 0-5.387.014-5.387.014l12.387-5.458" fill-rule="evenodd"/></svg>