<svg width="24" height="24" viewBox="0 0 24 24" xmlns="http://www.w3.org/2000/svg"><title>location-pin-slashed</title><path d="M13.8 8.571c0-.946-.807-1.714-1.8-1.714-.464 0-.883.172-1.202.448L9.666 5.982c.63-.515 1.44-.84 2.334-.84 1.985 0 3.6 1.539 3.6 3.43 0 1.1-.558 2.072-1.408 2.7l-1.13-1.323c.445-.312.738-.811.738-1.378zM7.488 3.438L6.372 2.133C7.993.752 10.01 0 12 0c4.424 0 9 3.684 9 9.849 0 1.943-.917 4.423-2.143 6.874l-1.27-1.486c1.044-2.22 1.613-4.071 1.613-5.388 0-5.284-3.71-8.135-7.2-8.135-1.582 0-3.206.59-4.512 1.724zm6.8 17.628A2.705 2.705 0 0 1 12 22.286a2.703 2.703 0 0 1-2.287-1.22C6.544 16.176 4.8 12.193 4.8 9.849c0-1.383.26-2.592.7-3.632L15.944 18.35a58.28 58.28 0 0 1-1.657 2.715zm3.747-2.78a.157.157 0 0 1 .009-.017l-1.25-1.45c-.001.004-.004.008-.006.011L4.597 2.583c-.315-.366-.882-.5-1.266-.201-.386.302-.442.802-.127 1.168l1.04 1.208C3.468 6.178 3 7.886 3 9.848c0 2.736 1.744 6.813 5.18 12.118C9.007 23.24 10.436 24 12 24c1.566 0 2.994-.76 3.819-2.034.443-.685.902-1.423 1.356-2.187l2.228 2.589a.931.931 0 0 0 1.267.12c.317-.248.397-.495.244-.837l-2.88-3.365z" fill-rule="evenodd"/></svg>