<svg width="24" height="24" viewBox="0 0 24 24" xmlns="http://www.w3.org/2000/svg"><title>location-services</title><path d="M20.333 2c-.963 0-14.07 5.433-15 5.833C3.505 8.62 2 8.693 2 10.333 2 11.167 2.782 12 3.667 12H10.333c.919 0 1.663.743 1.666 1.66.001 2.43.003 6.668.001 6.673 0 .834.78 1.667 1.667 1.667 1.692 0 2.847-4.445 3.75-6.667C17.827 14.323 22 4.761 22 3.667 22 2.572 21.297 2 20.333 2zm-.028 1.667l-6.638 16.666v-6.679c0-1.83-1.503-3.32-3.334-3.32H3.667l16.638-6.667z" fill-rule="evenodd"/></svg>