<svg width="16" height="16" viewBox="0 0 16 16" xmlns="http://www.w3.org/2000/svg"><title>location-pin--small</title><path d="M7.972 7.606a.79.79 0 0 1-.778-.8c0-.441.349-.8.778-.8.43 0 .778.359.778.8 0 .44-.348.8-.778.8m0-2.4c-.858 0-1.555.717-1.555 1.6 0 .882.697 1.6 1.555 1.6s1.556-.718 1.556-1.6c0-.883-.698-1.6-1.556-1.6m2.215 8.816A2.652 2.652 0 0 1 7.972 15.2a2.652 2.652 0 0 1-2.214-1.178c-2.113-3.09-3.23-5.585-3.23-7.217C2.528 2.905 5.332.8 7.972.8s5.445 2.105 5.445 6.005c0 1.632-1.118 4.128-3.23 7.217M7.972 0C4.913 0 1.75 2.546 1.75 6.805c0 1.823 1.135 4.406 3.372 7.677.66.965 1.7 1.518 2.85 1.518 1.151 0 2.19-.553 2.85-1.518 2.238-3.27 3.372-5.854 3.372-7.677C14.194 2.545 11.031 0 7.972 0" fill-rule="evenodd"/></svg>