<svg width="24" height="24" viewBox="0 0 24 24" xmlns="http://www.w3.org/2000/svg"><title>location-pin</title><path d="M12 10.286c-.993 0-1.8-.77-1.8-1.715 0-.945.807-1.714 1.8-1.714s1.8.769 1.8 1.714c0 .946-.807 1.715-1.8 1.715m0-5.143c-1.985 0-3.6 1.538-3.6 3.428C8.4 10.462 10.015 12 12 12s3.6-1.538 3.6-3.429c0-1.89-1.615-3.428-3.6-3.428m2.288 15.923A2.705 2.705 0 0 1 12 22.286a2.703 2.703 0 0 1-2.287-1.22C6.544 16.176 4.8 12.193 4.8 9.849c0-5.284 3.71-8.135 7.2-8.135s7.2 2.851 7.2 8.135c0 2.345-1.744 6.329-4.912 11.217M12 0C7.577 0 3 3.684 3 9.849c0 2.735 1.743 6.811 5.18 12.117C9.006 23.24 10.435 24 12 24c1.566 0 2.994-.76 3.819-2.034C18.182 18.32 21 13.256 21 9.849 21 3.684 16.424 0 12 0" fill-rule="evenodd"/></svg>