<svg width="20" height="20" viewBox="0 0 20 20" xmlns="http://www.w3.org/2000/svg"><title>location-pin-slashed--small</title><path d="M11 8.507c0-.55-.448-1-1-1a.984.984 0 0 0-.816.455l-.633-.825c.365-.386.877-.63 1.449-.63 1.103 0 2 .897 2 2 0 .76-.43 1.413-1.055 1.752l-.626-.816A.993.993 0 0 0 11 8.507zm-5.717-5.63l-.59-.768C6.181.746 8.104 0 10 0c3.933 0 8 3.182 8 8.506 0 1.828-.955 4.278-2.812 7.283l-.65-.847C16.151 12.266 17 10.068 17 8.506 17 3.631 13.394 1 10 1a6.96 6.96 0 0 0-4.717 1.877zm7.564 14.651A3.438 3.438 0 0 1 10 19a3.438 3.438 0 0 1-2.847-1.472C4.437 13.666 3 10.546 3 8.506c0-1.634.413-3.007 1.08-4.12l9.387 12.235c-.198.297-.403.6-.62.907zM2.832 1.186a.451.451 0 0 0-.66-.075.521.521 0 0 0-.066.702l1.341 1.748C2.556 4.887 2 6.55 2 8.506c0 2.28 1.459 5.508 4.335 9.597A4.426 4.426 0 0 0 10 20c1.48 0 2.816-.69 3.665-1.897.156-.222.293-.433.44-.65l1.063 1.385c.165.215.46.245.66.07a.518.518 0 0 0 .075-.683L2.832 1.186z" fill-rule="evenodd"/></svg>