<svg width="20" height="20" viewBox="0 0 20 20"><path fill-rule="evenodd" d="M10 19c-3.309 0-6-2.691-6-6s2.691-6 6-6 6 2.691 6 6-2.691 6-6 6zM7 4c0-1.886 1.114-3 3-3s3 1.114 3 3.062v2.621A6.962 6.962 0 0 0 10 6c-1.075 0-2.09.25-3 .683V4zm7 3.26V4c0-2.446-1.554-4-4-4-2.446 0-4 1.554-4 4v3.26A6.987 6.987 0 0 0 3 13a7 7 0 1 0 14 0 6.987 6.987 0 0 0-3-5.74zM10 14c-.827 0-1.5-.673-1.5-1.499C8.5 11.674 9.173 11 10 11s1.5.674 1.5 1.501c0 .826-.673 1.499-1.5 1.499zm0-4a2.5 2.5 0 0 0-.5 4.949V16.5a.5.5 0 0 0 1 0v-1.551A2.5 2.5 0 0 0 10 10z"/></svg>