<svg width="16" height="16" viewBox="0 0 16 16" xmlns="http://www.w3.org/2000/svg"><title>lock--small</title><path d="M8.056 15.2c-2.627 0-4.762-2.153-4.762-4.8s2.135-4.8 4.762-4.8c2.626 0 4.761 2.153 4.761 4.8s-2.135 4.8-4.761 4.8zm-2.381-12c0-1.509.884-2.4 2.38-2.4 1.497 0 2.382.891 2.382 2.45v2.096A5.489 5.489 0 0 0 8.056 4.8c-.854 0-1.66.2-2.381.546V3.2zm5.555 2.608V3.2c0-1.957-1.233-3.2-3.174-3.2C6.114 0 4.88 1.243 4.88 3.2v2.608A5.603 5.603 0 0 0 2.5 10.4c0 3.093 2.487 5.6 5.556 5.6 3.068 0 5.555-2.507 5.555-5.6 0-1.902-.943-3.58-2.38-4.592zM8.056 11.2c-.657 0-1.19-.538-1.19-1.2 0-.66.533-1.2 1.19-1.2.656 0 1.19.54 1.19 1.2 0 .662-.534 1.2-1.19 1.2zm0-3.2a1.993 1.993 0 0 0-1.985 2c0 .968.681 1.774 1.588 1.96v1.24c0 .22.178.4.397.4.219 0 .396-.18.396-.4v-1.24A1.994 1.994 0 0 0 10.04 10c0-1.104-.888-2-1.984-2z" fill-rule="evenodd"/></svg>