<svg width="24" height="24" viewBox="0 0 24 24"><path fill-rule="evenodd" d="M12 22c-3.859 0-7-3.141-7-7s3.141-7 7-7 7 3.141 7 7-3.141 7-7 7zM8 6c0-2.243 1.757-4 4-4 2.243 0 4 1.757 4 4v.949A8.95 8.95 0 0 0 12 6a8.95 8.95 0 0 0-4 .949V6zm9.964 2.278C19.821 9.928 21 12.326 21 15c0 4.963-4.037 9-9 9s-9-4.037-9-9c0-2.674 1.179-5.072 3.036-6.722C6.024 8.218 6 8.163 6 8.1V6c0-3.364 2.636-6 6-6s6 2.636 6 6v2.1c0 .063-.024.118-.036.178zM12 10a3 3 0 0 0-3 3 2.99 2.99 0 0 0 2.035 2.827c-.011.059-.035.111-.035.173v3a1 1 0 1 0 2 0v-3c0-.062-.024-.114-.035-.173A2.99 2.99 0 0 0 15 13a3 3 0 0 0-3-3z"/></svg>