<svg width="24" height="24" viewBox="0 0 24 24" xmlns="http://www.w3.org/2000/svg"><title>lock</title><path d="M12 15.429c-.938 0-1.7-.77-1.7-1.715 0-.945.762-1.714 1.7-1.714s1.7.769 1.7 1.714c0 .946-.762 1.715-1.7 1.715zm0-5.143c-1.875 0-3.4 1.537-3.4 3.428a3.42 3.42 0 0 0 2.55 3.307v2.693c0 .474.38.857.85.857s.85-.383.85-.857v-2.693a3.42 3.42 0 0 0 2.55-3.307c0-1.89-1.525-3.428-3.4-3.428zm0 12c-3.75 0-6.8-3.077-6.8-6.857 0-3.781 3.05-6.858 6.8-6.858s6.8 3.077 6.8 6.858c0 3.78-3.05 6.857-6.8 6.857zM8.6 5.143c0-1.923 1.493-3.429 3.4-3.429 1.907 0 3.4 1.506 3.4 3.429v2.435a8.38 8.38 0 0 0-6.8 0V5.143zm8.5 3.446V5.143C17.1 2.259 14.86 0 12 0 9.14 0 6.9 2.26 6.9 5.143v3.446a8.576 8.576 0 0 0-3.4 6.84C3.5 20.155 7.313 24 12 24c4.687 0 8.5-3.845 8.5-8.571a8.578 8.578 0 0 0-3.4-6.84z" fill-rule="evenodd"/></svg>