<svg width="28" height="28" viewBox="0 0 28 28" xmlns="http://www.w3.org/2000/svg"><title>lock</title><path d="M14 18c-1.1 0-2-.9-2-2s.9-2 2-2 2 .9 2 2-.9 2-2 2zm0-6c-2.2 0-4 1.8-4 4 0 1.86 1.28 3.41 3 3.86V23c0 .55.45 1 1 1s1-.45 1-1v-3.14c1.72-.45 3-2 3-3.86 0-2.2-1.8-4-4-4zm0 14c-4.41 0-8-3.59-8-8s3.59-8 8-8 8 3.59 8 8-3.59 8-8 8zM10 6c0-2.24 1.76-4 4-4s4 1.76 4 4v2.84C16.77 8.3 15.42 8 14 8s-2.77.3-4 .84V6zm10 4.02V6c0-3.36-2.64-6-6-6S8 2.64 8 6v4.02C5.58 11.85 4 14.74 4 18c0 5.51 4.49 10 10 10s10-4.49 10-10c0-3.26-1.58-6.15-4-7.98z" fill-rule="evenodd"/></svg>