<svg width="24" height="24" viewBox="0 0 24 24" xmlns="http://www.w3.org/2000/svg"><title>mail</title><path d="M6.15 19.333a2.487 2.487 0 0 1-2.483-2.483v-6.842l6.974 4.278c.413.254.886.38 1.359.38.474 0 .947-.126 1.36-.38l6.973-4.278v6.842a2.486 2.486 0 0 1-2.483 2.483H6.15zM3.668 6.886c0-1.224 1.114-2.22 2.484-2.22H17.85c1.37 0 2.483.996 2.483 2.22v1.167l-7.845 4.812a.95.95 0 0 1-.976 0L3.667 8.053V6.886zm18.333 0C22 4.743 20.138 3 17.85 3H6.15C3.863 3 2 4.743 2 6.886v9.964A4.155 4.155 0 0 0 6.15 21h11.7a4.137 4.137 0 0 0 2.933-1.217A4.137 4.137 0 0 0 22 16.85V6.886z" fill-rule="evenodd"/></svg>