<svg width="16" height="16" viewBox="0 0 16 16" xmlns="http://www.w3.org/2000/svg"><title>mail--small</title><path d="M14.222 5.284v.164L8.468 8.874a.94.94 0 0 1-.936 0L1.778 5.448v-.924c0-.962.898-1.746 2.003-1.746h8.438c1.105 0 2.003.784 2.003 1.747v.759zm0 6.185a2.005 2.005 0 0 1-2.003 2.003H3.781a2.005 2.005 0 0 1-2.003-2.003V6.353l5.356 3.19c.263.156.564.234.866.234.302 0 .603-.078.866-.234l5.356-3.19v5.116zM3.781 2C2.248 2 1 3.132 1 4.525V11.469a2.784 2.784 0 0 0 2.78 2.781h8.44A2.784 2.784 0 0 0 15 11.469V4.524C15 3.133 13.752 2 12.22 2H3.78z" fill-rule="evenodd"/></svg>