<svg width="18" height="18" viewBox="0 0 18 18" xmlns="http://www.w3.org/2000/svg"><title>mail--small</title><path d="M16.111 5.753v.187L9.535 9.856c-.32.19-.75.19-1.07 0L1.889 5.94V4.885c0-1.1 1.027-1.996 2.289-1.996h9.644c1.262 0 2.29.896 2.29 1.996v.868zm0 7.068a2.292 2.292 0 0 1-2.289 2.29H4.178a2.292 2.292 0 0 1-2.29-2.29V6.975l6.123 3.645c.3.18.644.268.989.268s.689-.089.99-.268l6.121-3.645v5.846zM4.178 2C2.426 2 1 3.294 1 4.885v7.936A3.182 3.182 0 0 0 4.178 16h9.644A3.182 3.182 0 0 0 17 12.821V4.885C17 3.295 15.574 2 13.822 2H4.178z" fill-rule="evenodd"/></svg>