<svg width="28" height="28" viewBox="0 0 28 28" xmlns="http://www.w3.org/2000/svg"><title>meetup-m</title><path d="M25.47 23.37c-.3.18-.62.28-.96.33l-.89.07c-.94-.03-1.88-.16-2.76-.47-1.52-.54-2.44-1.62-2.81-3.17-.18-.75-.12-1.5.18-2.2.36-.85.73-1.69 1.12-2.51.65-1.39 1.33-2.76 1.99-4.14.12-.27.23-.54.33-.82.1-.25.11-.5.06-.76-.04-.26-.19-.42-.45-.48-.35-.08-.66-.02-.92.23-.22.22-.4.46-.54.73l-1.81 3.52-2.65 5.22c-.15.28-.31.56-.5.81-.66.84-1.6.98-2.5.67-.52-.18-.78-.58-.82-1.12-.02-.28.02-.56.12-.82l1.09-2.75 1.4-3.6c.14-.32.23-.65.21-1-.02-.33-.11-.62-.35-.85-.27-.25-.6-.33-.95-.21-.37.12-.65.34-.8.72L10.7 14.7l-2.33 5.82c-.2.51-.46.99-.83 1.4-.43.47-.96.71-1.6.77-.67.07-1.33 0-1.95-.28-1.03-.45-1.7-1.22-1.92-2.34-.1-.53-.07-1.06.08-1.57.93-3.06 1.8-6.13 2.88-9.14.27-.75.56-1.49.88-2.22.66-1.52 1.88-2.32 3.48-2.58.5-.08 1-.01 1.47.2.67.32 1.35.62 2.01.95.45.23.86.2 1.26-.07.24-.16.45-.35.66-.52.26-.22.5-.46.77-.65.74-.54 1.56-.6 2.42-.32.35.11.6.37.87.61l.48.45c.36.34.62.39 1.04.13.53-.35 1.11-.5 1.74-.49.43 0 .85 0 1.27.08 1.16.24 1.86.94 2.19 2.06.2.68.15 1.35-.03 2.02-.25.93-.61 1.82-1 2.7-.55 1.29-1.13 2.56-1.68 3.85-.36.86-.68 1.73-.87 2.65-.08.4-.12.8-.11 1.2.02.6.3 1.03.87 1.23.31.1.64.16.97.22.36.08.73.12 1.1.2.19.04.38.11.57.2.75.35.86 1.63.09 2.1" fill-rule="evenodd"/></svg>