<svg width="28" height="28" viewBox="0 0 28 28" xmlns="http://www.w3.org/2000/svg"><title>meetup-m</title><path d="M25.466 23.372a2.42 2.42 0 0 1-.96.325c-.293.036-.59.05-.882.071-.947-.029-1.88-.157-2.769-.472-1.512-.535-2.438-1.616-2.806-3.168a3.484 3.484 0 0 1 .18-2.206 70.89 70.89 0 0 1 1.123-2.506c.651-1.382 1.325-2.758 1.983-4.138.128-.265.233-.542.335-.82.091-.244.113-.5.064-.76-.048-.254-.193-.421-.451-.48-.35-.082-.662-.013-.926.236a2.741 2.741 0 0 0-.537.73c-.604 1.17-1.213 2.339-1.811 3.512-.887 1.742-1.763 3.488-2.65 5.228-.145.28-.31.558-.504.808-.65.842-1.603.974-2.493.669-.523-.177-.778-.577-.817-1.12-.02-.282.014-.559.118-.825l1.084-2.746c.47-1.196.946-2.393 1.412-3.592.126-.324.226-.66.2-1.017-.022-.318-.11-.61-.35-.838a.901.901 0 0 0-.946-.216c-.37.121-.648.347-.798.72-.525 1.314-1.055 2.627-1.58 3.941-.776 1.94-1.549 3.88-2.322 5.821-.203.511-.462.988-.833 1.398-.427.473-.963.715-1.593.777-.677.068-1.333-.008-1.956-.281-1.035-.454-1.695-1.225-1.919-2.343a3.208 3.208 0 0 1 .082-1.574c.926-3.056 1.803-6.127 2.88-9.136.268-.747.56-1.488.874-2.217.66-1.528 1.88-2.323 3.483-2.583.502-.08.998-.012 1.465.206.673.312 1.353.612 2.015.946.45.23.863.192 1.264-.076.231-.155.444-.341.658-.52.257-.214.492-.452.762-.647.747-.536 1.569-.591 2.423-.318.348.113.604.372.869.61.163.147.32.302.479.453.362.338.629.382 1.04.122a3.098 3.098 0 0 1 1.746-.485c.425.005.847-.003 1.267.084 1.156.235 1.862.936 2.188 2.058.197.679.151 1.345-.026 2.016-.248.932-.615 1.821-.996 2.702-.557 1.285-1.132 2.563-1.683 3.851-.365.857-.679 1.733-.87 2.648a4.947 4.947 0 0 0-.113 1.197c.022.602.297 1.03.87 1.229.311.106.642.164.969.229.363.072.733.11 1.095.187.197.043.392.121.575.205.756.35.867 1.631.088 2.105" fill-rule="evenodd"/></svg>