<svg xmlns="http://www.w3.org/2000/svg" width="300" height="300" viewBox="0 0 300 300"><path d="M39.496 240.6c12.259 0 22.231 9.975 22.231 22.231s-9.972 22.231-22.231 22.231c-12.259 0-22.231-9.976-22.231-22.231 0-12.258 9.972-22.231 22.231-22.231M213.579 87.013c7.567 0 13.706-6.417 13.706-13.987 0-7.571-6.139-13.988-13.706-13.988H87.447c-7.568 0-13.706 6.417-13.706 13.988 0 7.57 6.137 13.987 13.706 13.987h126.132m0 60.254c7.567 0 13.706-6.417 13.706-13.987s-6.139-13.987-13.706-13.987H87.447c-7.568 0-13.706 6.417-13.706 13.987s6.137 13.987 13.706 13.987h126.132M261.062 16c12.498 0 22.774 9.369 22.774 21.868v129.511c0 12.498-10.276 22.926-22.774 22.926h-138.34c-18.046 0-35.515 7.432-47.161 21.219-6.071 7.187-15.149 11.676-25.298 11.676-18.255 0-33.056-13.527-33.092-32.896H17V37.868C17 25.369 27.299 16 39.795 16h221.267"/></svg>