<svg width="24" height="24" viewBox="0 0 24 24" xmlns="http://www.w3.org/2000/svg"><title>messages</title><path d="M18.387 1.72H5.053A3.333 3.333 0 0 0 1.72 5.053v8.334a3.333 3.333 0 0 0 3.333 3.333h2.049c.281 0 .544.142.698.378l2.507 3.839c.326.522.87.783 1.413.783s1.087-.26 1.413-.783l2.507-3.84a.834.834 0 0 1 .698-.377h2.049a3.333 3.333 0 0 0 3.333-3.333V5.053a3.333 3.333 0 0 0-3.333-3.333m0 1.667c.919 0 1.666.747 1.666 1.666v8.334c0 .919-.747 1.666-1.666 1.666h-2.049c-.848 0-1.63.424-2.094 1.134l-2.541 3.839-2.507-3.84a2.492 2.492 0 0 0-2.094-1.133H5.053c-.919 0-1.666-.747-1.666-1.666V5.053c0-.919.747-1.666 1.666-1.666h13.334" fill-rule="evenodd"/></svg>