<svg width="28" height="28" viewBox="0 0 28 28" xmlns="http://www.w3.org/2000/svg"><title>messages</title><path d="M22 2H6a4 4 0 0 0-4 4v10a4 4 0 0 0 4 4h2.458a1 1 0 0 1 .838.453l3.008 4.607c.392.627 1.044.94 1.696.94.652 0 1.305-.313 1.696-.94l3.008-4.607a1 1 0 0 1 .838-.453H22a4 4 0 0 0 4-4V6a4 4 0 0 0-4-4m0 2c1.103 0 2 .897 2 2v10c0 1.103-.897 2-2 2h-2.458a2.99 2.99 0 0 0-2.513 1.36l-3.05 4.607-3.008-4.607A2.99 2.99 0 0 0 8.458 18H6c-1.103 0-2-.897-2-2V6c0-1.103.897-2 2-2h16" fill-rule="evenodd"/></svg>