<svg width="16" height="16" viewBox="0 0 16 16" xmlns="http://www.w3.org/2000/svg"><title>messages--small</title><path d="M11.889 1H4.11A3.111 3.111 0 0 0 1 4.111v4.656a3.111 3.111 0 0 0 3.111 3.111h.722a.78.78 0 0 1 .67.383l1.106 1.88c.287.573.839.859 1.391.859s1.104-.286 1.391-.859l1.106-1.88a.78.78 0 0 1 .67-.383h.722A3.111 3.111 0 0 0 15 8.767V4.11A3.111 3.111 0 0 0 11.889 1m0 .778a2.336 2.336 0 0 1 2.333 2.333v4.656A2.336 2.336 0 0 1 11.89 11.1h-.722c-.549 0-1.062.294-1.34.767l-1.106 1.88-.025.046a.764.764 0 0 1-.696.43.764.764 0 0 1-.696-.43l-.025-.046-1.105-1.88a1.562 1.562 0 0 0-1.341-.767H4.11a2.336 2.336 0 0 1-2.333-2.333V4.11A2.336 2.336 0 0 1 4.11 1.778h7.778" fill-rule="evenodd"/></svg>