<svg width="20" height="20" viewBox="0 0 20 20" xmlns="http://www.w3.org/2000/svg"><title>microphone--small</title><path d="M7.613 9.477c0 1.229.948 2.229 2.114 2.229 1.165 0 2.114-1 2.114-2.229V5.23c0-1.25-.929-2.23-2.114-2.23-1.185 0-2.114.98-2.114 2.23v4.247zm-1 0V5.23C6.613 3.45 8.01 2 9.727 2c1.717 0 3.114 1.45 3.114 3.23v4.247c0 1.78-1.397 3.229-3.114 3.229-1.717 0-3.114-1.449-3.114-3.229zm8.841-.977v1.028c0 2.889-2.174 5.277-4.978 5.644V17.5a.5.5 0 1 1-1 0v-2.286C6.435 15.082 4 12.586 4 9.528V8.5a.5.5 0 1 1 1 0v1.028c0 2.591 2.12 4.699 4.727 4.699 2.606 0 4.727-2.108 4.727-4.699V8.5a.5.5 0 1 1 1 0z" fill-rule="evenodd"/></svg>