<svg width="28" height="28" viewBox="0 0 28 28" xmlns="http://www.w3.org/2000/svg"><title>microphone</title><path d="M12.137 13.371c0 1.276.938 2.276 2.136 2.276 1.198 0 2.136-1 2.136-2.276V8.275c0-1.276-.938-2.275-2.136-2.275-1.198 0-2.136.999-2.136 2.275v5.096zm-2 0V8.275C10.137 5.918 11.992 4 14.273 4s4.136 1.918 4.136 4.275v5.096c0 2.358-1.855 4.276-4.136 4.276s-4.136-1.918-4.136-4.276zM21.546 12.2v1.233c0 3.549-2.582 6.504-5.974 7.117V23a1 1 0 1 1-2 0v-2.363C9.89 20.284 7 17.189 7 13.433V12.2a1 1 0 1 1 2 0v1.233c0 2.888 2.366 5.239 5.273 5.239 2.908 0 5.273-2.351 5.273-5.239V12.2a1 1 0 1 1 2 0z" fill-rule="evenodd"/></svg>