<svg width="16" height="16" viewBox="0 0 16 16" xmlns="http://www.w3.org/2000/svg"><title>microphone--small</title><path d="M6.161 7.542c0 1.076.83 1.95 1.85 1.95s1.85-.874 1.85-1.95V3.826c0-1.094-.813-1.951-1.85-1.951-1.037 0-1.85.857-1.85 1.951v3.716zm-.875 0V3.826C5.286 2.27 6.51 1 8.011 1c1.503 0 2.725 1.269 2.725 2.826v3.716c0 1.558-1.223 2.826-2.725 2.826S5.286 9.1 5.286 7.542zm7.736-.854v.899c0 2.528-1.902 4.617-4.356 4.938v2.037a.437.437 0 1 1-.875 0v-2C5.131 12.447 3 10.262 3 7.587v-.9a.437.437 0 1 1 .875 0v.9c0 2.267 1.855 4.112 4.136 4.112 2.28 0 4.136-1.845 4.136-4.112v-.9a.437.437 0 1 1 .875 0z" fill-rule="evenodd"/></svg>