<svg width="18" height="18" viewBox="0 0 18 18" xmlns="http://www.w3.org/2000/svg"><path fill-rule="evenodd" clip-rule="evenodd" d="M10.125 3.75a1.125 1.125 0 1 1-2.25 0 1.125 1.125 0 0 1 2.25 0zm.961.844a2.25 2.25 0 0 1-4.172 0 4.875 4.875 0 0 0-1.48 1.081.563.563 0 0 1-.822-.767 6 6 0 0 1 2.16-1.48 2.25 2.25 0 0 1 4.455 0l.137.057a6 6 0 0 1 1.995 1.392.562.562 0 1 1-.817.773 4.876 4.876 0 0 0-1.456-1.056zM3.893 7.049c.3.08.479.39.398.69a4.875 4.875 0 0 0-.105 2.033 2.25 2.25 0 0 1 2.25 3.375c.404.249.842.439 1.302.562a.562.562 0 1 1-.29 1.087 6.002 6.002 0 0 1-1.832-.842 2.25 2.25 0 0 1-2.49-3.736 5.992 5.992 0 0 1 .078-2.77c.08-.301.39-.48.69-.399zm10.214 0c.3-.08.608.098.689.398a6.001 6.001 0 0 1 .079 2.772 2.25 2.25 0 1 1-2.49 3.736 6.003 6.003 0 0 1-1.832.84.562.562 0 0 1-.291-1.086c.46-.123.898-.313 1.302-.563a2.25 2.25 0 0 1 2.25-3.375l.02-.135a4.874 4.874 0 0 0-.125-1.898.563.563 0 0 1 .398-.689zM14.625 12a1.125 1.125 0 1 1-2.25 0 1.125 1.125 0 0 1 2.25 0zM4.5 13.125a1.125 1.125 0 1 0 0-2.25 1.125 1.125 0 0 0 0 2.25z"/></svg>