<svg width="28" height="28" viewBox="0 0 28 28" xmlns="http://www.w3.org/2000/svg"><title>notifications-mute</title><path d="M13 19a1 1 0 0 0-1-1H5a1.001 1.001 0 0 1 0-2.004 3.003 3.003 0 0 0 3-2.995v-1a1 1 0 0 0-2 0v.995a1 1 0 0 1-1.021 1c-.879-.018-1.765.233-2.274.948C.978 17.372 2.687 20 5 20h7a1 1 0 0 0 1-1zm0 3c-1.103 0-2 .898-2 2 0 1.104.897 2 2 2s2-.896 2-2c0-1.102-.897-2-2-2zm6.414-4L8.417 7.003a5.005 5.005 0 0 1 1.102-1.591 4.959 4.959 0 0 1 3.635-1.409C15.826 4.083 18 6.438 18 9.253v3.743c0 1.654 1.346 3 3 3A1.001 1.001 0 0 1 21 18h-1.586zm6.293 6.294l-4.331-4.332A2.995 2.995 0 0 0 24 16.997c0-1.655-1.346-3-3-3a1 1 0 0 1-1-1V9.252c0-3.885-3.044-7.136-6.785-7.249a6.95 6.95 0 0 0-5.089 1.974 6.946 6.946 0 0 0-1.189 1.547l-3.23-3.23a.999.999 0 1 0-1.414 1.413l3.866 3.867.286.285L16.586 18l2 2 5.707 5.707a.997.997 0 0 0 1.414 0 .999.999 0 0 0 0-1.413z" fill-rule="evenodd"/></svg>