<svg width="24" height="24" viewBox="0 0 24 24" xmlns="http://www.w3.org/2000/svg"><title>notifications-mute</title><path d="M11.166 16.167a.834.834 0 0 0-.833-.833H4.5a.834.834 0 0 1 0-1.67A2.503 2.503 0 0 0 7 11.167v-.833a.834.834 0 0 0-1.667 0v.83a.834.834 0 0 1-.85.833c-.733-.015-1.471.194-1.896.79C1.148 14.809 2.572 17 4.5 17h5.833c.46 0 .833-.373.833-.833zm0 2.5c-.919 0-1.666.747-1.666 1.667 0 .919.747 1.666 1.666 1.666.92 0 1.667-.747 1.667-1.666 0-.92-.747-1.667-1.667-1.667zm5.345-3.333L7.347 6.17c.215-.49.521-.941.919-1.327a4.132 4.132 0 0 1 3.029-1.173c2.226.066 4.038 2.028 4.038 4.374v3.12c0 1.378 1.122 2.5 2.5 2.5a.834.834 0 0 1 0 1.67h-1.322zm5.245 5.244l-3.61-3.61a2.496 2.496 0 0 0 2.187-2.471c0-1.378-1.122-2.5-2.5-2.5a.834.834 0 0 1-.833-.833v-3.12c0-3.238-2.537-5.947-5.654-6.041a5.791 5.791 0 0 0-5.232 2.933L3.422 2.245a.832.832 0 1 0-1.178 1.178l3.222 3.222.238.238 8.45 8.45L15.822 17l4.756 4.756a.831.831 0 0 0 1.179 0 .832.832 0 0 0 0-1.178z" fill-rule="evenodd"/></svg>