<svg width="16" height="16" viewBox="0 0 16 16" xmlns="http://www.w3.org/2000/svg"><title>notifications-mute--small</title><path d="M8.289 9.944a.389.389 0 0 0-.389-.389H3.555a.779.779 0 0 1-.777-.777c0-.429.349-.778.777-.778.758 0 1.389-.545 1.526-1.263l.03-.682a.389.389 0 0 0-.778 0v.39c0 .429-.348.777-.778.777a1.556 1.556 0 0 0 0 3.111H7.9a.389.389 0 0 0 .389-.389zm-.067 1.945A1.556 1.556 0 1 0 8.223 15a1.556 1.556 0 0 0-.001-3.112zm0-10.111a3.114 3.114 0 0 1 3.111 3.11v1.556c0 .858.699 1.556 1.556 1.556a.779.779 0 0 1 0 1.556h-1.784L5.34 3.79c.445-1.171 1.557-2.013 2.882-2.013zm3.661 8.555h1.006a1.556 1.556 0 0 0 0-3.11.778.778 0 0 1-.778-.779V4.89A3.89 3.89 0 0 0 8.222.999c-1.537 0-2.848.9-3.477 2.196l-2.08-2.082a.39.39 0 0 0-.55.551L13.78 13.331a.387.387 0 0 0 .55 0 .39.39 0 0 0 0-.551l-2.448-2.447z" fill-rule="evenodd"/></svg>