<svg width="24" height="24" viewBox="0 0 24 24" xmlns="http://www.w3.org/2000/svg"><title>notifications</title><path d="M19.78 14.62a.861.861 0 0 0-.86-.863 2.583 2.583 0 0 1-2.58-2.58v-3.22c0-2.42-1.87-4.445-4.168-4.514a4.265 4.265 0 0 0-3.126 1.21A4.264 4.264 0 0 0 7.74 7.74v3.437a2.583 2.583 0 0 1-2.58 2.58.861.861 0 1 0 0 1.723h13.76a.86.86 0 0 0 .86-.86m1.72-.003a2.584 2.584 0 0 1-2.58 2.583H5.16a2.583 2.583 0 0 1-2.58-2.58 2.584 2.584 0 0 1 2.58-2.583.86.86 0 0 0 .86-.86V7.74c0-1.642.65-3.176 1.828-4.32a5.977 5.977 0 0 1 4.377-1.697c3.217.097 5.835 2.893 5.835 6.234v3.22c0 .475.385.86.86.86a2.583 2.583 0 0 1 2.58 2.58m-7.74 6.023c0 .949-.771 1.72-1.72 1.72s-1.72-.771-1.72-1.72c0-.948.771-1.72 1.72-1.72s1.72.772 1.72 1.72" fill-rule="evenodd"/></svg>