<svg width="24" height="24" viewBox="0 0 24 24"><path fill-rule="evenodd" d="M12 19.003c1.103 0 2 .897 2 2s-.897 2-2 2-2-.897-2-2 .897-2 2-2zm6.649-2.025l2.099 2.36a.999.999 0 1 1-1.495 1.328l-16-18a.999.999 0 1 1 1.495-1.328L7.015 3.89c.269-.43.569-.843.938-1.199 1.175-1.139 2.69-1.76 4.228-1.684 3.19.106 5.786 2.947 5.786 6.333v3.304c0 .54.263.944.434.944 1.434 0 2.6 1.241 2.6 2.765 0 1.4-1.016 2.5-2.352 2.626zM12 16.003a1 1 0 0 1-1 1H5.6c-1.458 0-2.6-1.163-2.6-2.647 0-1.528 1.166-2.768 2.6-2.768.395 0 .4-.733.4-.765v.18a1 1 0 1 1 2 0c0 .068-.025.127-.039.19-.146 1.404-1.084 2.395-2.36 2.395-.327 0-.6.35-.6.765 0 .39.24.65.6.65H11a1 1 0 0 1 1 1z"/></svg>