<svg xmlns:xlink="http://www.w3.org/1999/xlink" width="20" height="20" viewBox="0 0 20 20"><defs><path id="a" d="M0 18h16V0H0z"/></defs><g fill="none" fill-rule="evenodd" transform="translate(2 1)"><mask id="b" fill="#fff"><use xlink:href="#a"/></mask><path fill="#000" d="M8.086 11.5a.5.5 0 0 0-.5-.5H2c-.551 0-1-.449-1-1 0-.551.449-1 1-1 .974 0 1.785-.701 1.962-1.624L4 6.5a.5.5 0 0 0-1 0V7a1 1 0 0 1-1 1 2 2 0 0 0 0 4h5.586a.5.5 0 0 0 .5-.5zM8 14A2 2 0 1 0 8 18.001 2 2 0 0 0 8 14zM8 1c2.206 0 4 1.794 4 4v2c0 1.103.898 2 2 2 .55 0 1 .449 1 1 0 .551-.45 1-1 1h-2.293L4.295 3.588C4.865 2.083 6.295 1 8 1zm4.707 11H14a2 2 0 0 0 0-4 1 1 0 0 1-1-1V5a5 5 0 0 0-5-5C6.024 0 4.338 1.157 3.529 2.822L.854.146a.5.5 0 0 0-.707.708l15 15a.498.498 0 0 0 .707 0 .502.502 0 0 0 0-.708L12.707 12z" mask="url(#b)"/></g></svg>