<svg width="28" height="28" viewBox="0 0 28 28" xmlns="http://www.w3.org/2000/svg"><title>notifications</title><path d="M23 17c0-.555-.448-1.004-1-1.004-1.654 0-3-1.346-3-3V9.252c0-2.815-2.174-5.169-4.846-5.249a4.959 4.959 0 0 0-3.635 1.408A4.958 4.958 0 0 0 9 9.002v3.995c0 1.654-1.346 3-3 3A1.001 1.001 0 1 0 6 18h16a1 1 0 0 0 1-1m2-.003A3.005 3.005 0 0 1 22 20H6c-1.654 0-3-1.346-3-3a3.005 3.005 0 0 1 3-3.004 1 1 0 0 0 1-1V9.002c0-1.91.755-3.694 2.126-5.024a6.95 6.95 0 0 1 5.089-1.974C17.956 2.116 21 5.367 21 9.253v3.743a1 1 0 0 0 1 1c1.654 0 3 1.346 3 3m-9 7.005c0 1.102-.897 2-2 2s-2-.898-2-2c0-1.104.897-2 2-2s2 .896 2 2" fill-rule="evenodd"/></svg>