<svg width="24" height="24" viewBox="0 0 24 24"><path fill-rule="evenodd" d="M12 19.002c1.103 0 2 .897 2 2s-.897 2-2 2-2-.897-2-2 .897-2 2-2zm6.4-7.415c1.434 0 2.6 1.24 2.6 2.765 0 1.487-1.142 2.65-2.6 2.65H5.599C4.141 17.002 3 15.84 3 14.355c0-1.528 1.166-2.768 2.599-2.768.396 0 .401-.733.401-.765V7.296c0-1.728.712-3.407 1.952-4.607 1.176-1.138 2.69-1.76 4.228-1.683 3.191.105 5.786 2.946 5.786 6.333v3.304c0 .54.263.944.434.944zm0 3.415c.358 0 .6-.26.6-.647 0-.417-.275-.768-.6-.768-1.364 0-2.434-1.293-2.434-2.944V7.34c0-2.319-1.728-4.265-3.852-4.335l-.117-.002c-.964 0-1.903.396-2.655 1.125A4.43 4.43 0 0 0 8 7.297v3.525c0 1.602-1.01 2.765-2.401 2.765-.325 0-.599.351-.599.765 0 .39.241.65.599.65H18.4z"/></svg>