<svg xmlns="http://www.w3.org/2000/svg" width="300" height="300" viewBox="0 0 300 300"><path d="M266.406 210.645c0 14.521-11.318 24.65-24.363 24.65H58.515C45.47 235.295 34 223.959 34 210.916c0-13.994 9.946-23.768 22.158-24.975 8.821-.873 16.576-7.859 16.576-16.724v-61.181c0-33.628 22.404-62.208 52.823-71.289 1.779-.532 3.126-2.214 3.126-4.074C128.684 18.583 137.851 9 150.203 9c16.678 0 23.672 10.39 23.672 23.675 0 1.859 1.346 3.542 3.129 4.074 30.417 9.081 52.82 37.661 52.82 71.289v61.181c0 8.863 6.68 15.852 15.5 16.723 12.215 1.206 21.082 10.442 21.082 24.703m-116.203 37.421c-12.259 0-22.231 9.975-22.231 22.23 0 12.26 9.972 22.23 22.231 22.23 12.26 0 22.23-9.971 22.23-22.23.003-12.255-9.97-22.23-22.23-22.23"/></svg>