<svg width="24" height="24" viewBox="0 0 24 24" xmlns="http://www.w3.org/2000/svg"><title>photo-album-add</title><path d="M15.34 9.38l-4.094 4.612-2.51-2.899a.912.912 0 0 0-.687-.295.89.89 0 0 0-.666.334L4.867 13.65a.87.87 0 0 0 .145 1.23.889.889 0 0 0 1.242-.154l1.863-1.72 2.516 2.863c.168.187.408.211.66.211h.03c.262 0 .507-.051.668-.258l4.744-5.362a.878.878 0 0 0-.155-1.235.886.886 0 0 0-1.241.156m6.89 9.339c0-1.94-1.586-3.52-3.538-3.52-1.952 0-3.538 1.58-3.538 3.52s1.586 3.52 3.538 3.52c1.952 0 3.539-1.58 3.539-3.52m-3.539-5.28V5.52c0-.97-.793-1.76-1.769-1.76H4.538c-.975 0-1.769.79-1.769 1.76v12.32c0 .97.794 1.76 1.77 1.76h8.925a5.243 5.243 0 0 1-.08-.88c0-2.91 2.381-5.28 5.308-5.28M24 18.567C24 21.477 21.619 24 18.692 24a5.311 5.311 0 0 1-4.59-2.64H4.539C2.591 21.36 1 19.776 1 17.84V5.52C1 3.584 2.591 2 4.538 2h12.385c1.946 0 3.539 1.584 3.539 3.52v7.92h-.005c2.06.88 3.543 2.833 3.543 5.127M6.308 9.04c.976 0 1.769-.788 1.769-1.76s-.793-1.76-1.77-1.76-1.769.788-1.769 1.76.792 1.76 1.77 1.76m15.038 9.68c0 .486-.396.88-.884.88h-.885v.88c0 .487-.397.88-.885.88a.882.882 0 0 1-.884-.88v-.88h-.885a.883.883 0 0 1-.885-.88c0-.485.397-.88.885-.88h.885v-.88a.884.884 0 1 1 1.77 0l-.001.88h.885c.488 0 .884.395.884.88" fill-rule="evenodd"/></svg>