<svg width="24" height="24" viewBox="0 0 24 24"><path fill-rule="evenodd" d="M19 17c0 1.103-.897 2-2 2H7c-1.103 0-2-.897-2-2V7c0-1.103.897-2 2-2h10c1.103 0 2 .897 2 2v10zM17 3c2.206 0 4 1.794 4 4v10c0 2.206-1.794 4-4 4H7c-2.206 0-4-1.794-4-4V7c0-2.206 1.794-4 4-4h10zm-1.759 8.35l-2.81 3.276-1.794-1.392a1.002 1.002 0 0 0-1.313.074l-2.023 1.977a1.001 1.001 0 0 0 1.398 1.43l1.4-1.367 1.86 1.442a.996.996 0 0 0 1.372-.139l3.428-4a.998.998 0 0 0-.109-1.41.998.998 0 0 0-1.409.109zM9 11a2 2 0 1 0-.001-4.001A2 2 0 0 0 9 11z"/></svg>