<svg width="20" height="20" viewBox="0 0 20 20" xmlns="http://www.w3.org/2000/svg"><title>photo-album-add--small</title><path d="M4 5.5C4 4.67 4.67 4 5.5 4S7 4.67 7 5.5 6.33 7 5.5 7 4 6.33 4 5.5m9.86 2.34l-4.17 5c-.1.1-.23.16-.37.16-.11 0-.23-.04-.32-.12l-2.6-2.7-1.54 1.66c-.19.2-.5.21-.7.02-.2-.19-.21-.5-.03-.7l1.87-2c.18-.2.49-.21.69-.04l2.6 2.7 3.85-4.66c.18-.2.5-.21.7-.02.2.19.21.5.02.7M16 19c-1.65 0-3-1.35-3-3s1.35-3 3-3 3 1.35 3 3-1.35 3-3 3m-4-3H4.5C3.12 16 2 14.88 2 13.5v-9C2 3.12 3.12 2 4.5 2h9C14.88 2 16 3.12 16 4.5V12c-2.2 0-4 1.8-4 4 0 0 0 .21 0 0m5-3.86V4.5C17 2.57 15.43 1 13.5 1h-9C2.57 1 1 2.57 1 4.5v9C1 15.43 2.57 17 4.5 17h7.64c.45 1.72 2 3 3.86 3 2.2 0 4-1.8 4-4 0-1.86-1.28-3.41-3-3.86m.5 3.36h-1v-1c0-.28-.22-.5-.5-.5s-.5.22-.5.5v1h-1c-.28 0-.5.22-.5.5 0 .27.22.5.5.5h1v1c0 .28.22.5.5.5s.5-.22.5-.5v-1h1c.28 0 .5-.23.5-.5 0-.28-.22-.5-.5-.5" fill-rule="evenodd"/></svg>