<svg width="28" height="28" viewBox="0 0 28 28" xmlns="http://www.w3.org/2000/svg"><title>photo-album-add</title><path d="M17.21 10.387l-4.627 5.24-2.838-3.294a1.028 1.028 0 0 0-.776-.335c-.295.01-.57.148-.754.379l-2.843 2.862a.992.992 0 0 0 .164 1.398 1 1 0 0 0 1.405-.176l2.106-1.954 2.844 3.253c.19.213.461.24.745.24h.034c.297 0 .574-.058.756-.293l5.363-6.093a1.001 1.001 0 0 0-1.579-1.227M25 21c0-2.205-1.794-4-4-4-2.207 0-4 1.795-4 4s1.793 4 4 4c2.206 0 4-1.795 4-4m-4-6V6c0-1.102-.897-2-2-2H5c-1.103 0-2 .898-2 2v14c0 1.103.897 2 2 2h10.09a5.988 5.988 0 0 1-.09-1c0-3.307 2.691-6 6-6m6 5.826C27 24.133 24.308 27 21 27a5.999 5.999 0 0 1-5.188-3H5c-2.2 0-4-1.8-4-4V6c0-2.2 1.8-4 4-4h14c2.2 0 4 1.8 4 4v9h-.005C25.325 16 27 18.219 27 20.826M7 10a2 2 0 1 0 0-4 2 2 0 0 0 0 4m17 11a1 1 0 0 1-1 1h-1v1a1 1 0 0 1-2 0v-1h-1a1 1 0 0 1 0-2h1v-1a1.001 1.001 0 0 1 2 0v1h1c.552 0 1 .449 1 1" fill-rule="evenodd"/></svg>