<svg width="24" height="24" viewBox="0 0 24 24" xmlns="http://www.w3.org/2000/svg"><title>photo-album</title><path d="M18.422 12.244a.832.832 0 0 1 0 1.178l-5 5a.832.832 0 0 1-1.11.062l-3.584-2.867-1.972 1.972a.832.832 0 1 1-1.179-1.178l2.5-2.5c.3-.3.78-.328 1.11-.062l3.585 2.868 4.472-4.473a.832.832 0 0 1 1.178 0zm1.911 6.423c0 .919-.747 1.666-1.666 1.666H5.333c-.919 0-1.666-.747-1.666-1.666V5.333c0-.919.747-1.666 1.666-1.666h13.334c.919 0 1.666.747 1.666 1.666v13.334zM18.667 2H5.333A3.337 3.337 0 0 0 2 5.333v13.334A3.337 3.337 0 0 0 5.333 22h13.334A3.337 3.337 0 0 0 22 18.667V5.333A3.337 3.337 0 0 0 18.667 2zm-10 5c.919 0 1.666.747 1.666 1.667 0 .919-.747 1.666-1.666 1.666-.92 0-1.667-.747-1.667-1.666C7 7.747 7.747 7 8.667 7zm0 5a3.333 3.333 0 1 0 0-6.667 3.333 3.333 0 0 0 0 6.667z" fill-rule="evenodd"/></svg>