<svg width="16" height="16" viewBox="0 0 16 16" xmlns="http://www.w3.org/2000/svg"><title>photo-album-add--small</title><path d="M3.368 4.553a1.184 1.184 0 1 1 2.369 0 1.184 1.184 0 0 1-2.369 0m7.788 1.85L7.858 10.35a.395.395 0 0 1-.542.03L5.265 8.255 4.05 9.56a.395.395 0 0 1-.576-.543L4.947 7.44a.396.396 0 0 1 .543-.03l2.05 2.127 3.04-3.676a.396.396 0 0 1 .576.542m1.686 8.809a2.371 2.371 0 0 1-2.368-2.369 2.371 2.371 0 0 1 2.368-2.368 2.371 2.371 0 0 1 2.369 2.368 2.371 2.371 0 0 1-2.369 2.369m-3.158-2.369h-5.92a1.975 1.975 0 0 1-1.975-1.974V3.763c0-1.089.885-1.974 1.974-1.974h7.105c1.088 0 1.974.885 1.974 1.974v5.921a3.161 3.161 0 0 0-3.158 3.158s0 .168 0 0m3.948-3.046V3.763A2.767 2.767 0 0 0 10.868 1H3.763A2.766 2.766 0 0 0 1 3.763v7.105a2.766 2.766 0 0 0 2.763 2.764h6.033A3.154 3.154 0 0 0 12.842 16 3.161 3.161 0 0 0 16 12.842a3.155 3.155 0 0 0-2.368-3.046m.394 2.651h-.79v-.79a.395.395 0 0 0-.789 0v.79h-.79a.395.395 0 0 0 0 .79h.79v.79a.395.395 0 0 0 .79 0v-.79h.79a.395.395 0 0 0 0-.79" fill-rule="evenodd"/></svg>