<svg width="28" height="28" viewBox="0 0 28 28" xmlns="http://www.w3.org/2000/svg"><title>photo-album-add</title><path d="M17.21 10.39l-4.63 5.24-2.83-3.3c-.2-.22-.49-.33-.78-.33-.3 0-.57.15-.75.38l-2.85 2.86c-.34.43-.27 1.05.17 1.4.43.34 1.06.25 1.4-.18l2.1-1.95 2.85 3.25c.2.21.46.24.75.24h.03c.3 0 .57-.06.76-.3l5.36-6.09c.34-.43.26-1.06-.18-1.4-.43-.34-1.06-.26-1.4.18M25 21c0-2.2-1.8-4-4-4s-4 1.8-4 4 1.8 4 4 4 4-1.8 4-4m-4-6V6c0-1.1-.9-2-2-2H5c-1.1 0-2 .9-2 2v14c0 1.1.9 2 2 2h10.09c-.05-.33-.09-.66-.09-1 0-3.3 2.7-6 6-6m6 5.83c0 3.3-2.7 6.17-6 6.17-2.21 0-4.15-1.21-5.19-3H5c-2.2 0-4-1.8-4-4V6c0-2.2 1.8-4 4-4h14c2.2 0 4 1.8 4 4v9c2.32 1 4 3.22 4 5.83M7 10c1.1 0 2-.9 2-2s-.9-2-2-2-2 .9-2 2 .9 2 2 2m17 11c0 .55-.45 1-1 1h-1v1c0 .55-.45 1-1 1s-1-.45-1-1v-1h-1c-.55 0-1-.45-1-1s.45-1 1-1h1v-1c0-.55.45-1 1-1s1 .45 1 1v1h1c.55 0 1 .45 1 1" fill-rule="evenodd"/></svg>