<svg width="20" height="20" viewBox="0 0 20 20" xmlns="http://www.w3.org/2000/svg"><title>photo-album-add--small</title><path d="M4 5.5a1.5 1.5 0 1 1 3 0 1.5 1.5 0 0 1-3 0m9.864 2.343l-4.177 5a.5.5 0 0 1-.687.039l-2.598-2.693-1.538 1.654a.5.5 0 0 1-.729-.688L6 9.156a.501.501 0 0 1 .687-.037l2.598 2.693 3.85-4.656a.501.501 0 0 1 .729.687M16 19c-1.654 0-3-1.346-3-3s1.346-3 3-3 3 1.346 3 3-1.346 3-3 3m-4-3H4.5A2.502 2.502 0 0 1 2 13.5v-9C2 3.121 3.121 2 4.5 2h9C14.878 2 16 3.121 16 4.5V12c-2.206 0-4 1.794-4 4 0 0 0 .213 0 0m5-3.858V4.5C17 2.57 15.429 1 13.5 1h-9C2.57 1 1 2.57 1 4.5v9C1 15.43 2.57 17 4.5 17h7.642c.447 1.721 2 3 3.858 3 2.206 0 4-1.794 4-4 0-1.858-1.28-3.411-3-3.858m.5 3.358h-1v-1a.5.5 0 0 0-1 0v1h-1a.5.5 0 0 0 0 1h1v1a.5.5 0 0 0 1 0v-1h1a.5.5 0 0 0 0-1" fill-rule="evenodd"/></svg>