<svg width="16" height="16" viewBox="0 0 16 16" xmlns="http://www.w3.org/2000/svg"><title>photo-album--small</title><path d="M8.894 11.767l3.667-3.89a.389.389 0 1 0-.567-.533l-3.412 3.62-2.775-2.353a.39.39 0 0 0-.535.03l-1.834 1.944a.39.39 0 1 0 .567.534l1.58-1.676 2.775 2.354a.387.387 0 0 0 .534-.03zM4.111 5.596a1.555 1.555 0 1 0 3.11 0 1.555 1.555 0 0 0-3.11 0zm-.389-3.818a1.946 1.946 0 0 0-1.944 1.944v8.556c0 1.072.872 1.944 1.944 1.944h8.556a1.946 1.946 0 0 0 1.944-1.944V3.722a1.946 1.946 0 0 0-1.944-1.944H3.722zM12.278 15H3.722A2.725 2.725 0 0 1 1 12.278V3.722C1 2.222 2.221 1 3.722 1h8.556C13.778 1 15 2.222 15 3.722v8.556A2.726 2.726 0 0 1 12.278 15z" fill-rule="evenodd"/></svg>