<svg width="24" height="24" viewBox="0 0 24 24" xmlns="http://www.w3.org/2000/svg"><title>plus-circle</title><path d="M16.167 11.167h-3.334V7.833a.834.834 0 0 0-1.666 0v3.334H7.833a.834.834 0 0 0 0 1.666h3.334v3.334a.833.833 0 1 0 1.666 0v-3.334h3.334a.833.833 0 1 0 0-1.666M12 2C6.478 2 2 6.478 2 12c0 5.523 4.478 10 10 10 5.523 0 10-4.477 10-10 0-5.522-4.477-10-10-10m0 18.333c-4.595 0-8.333-3.738-8.333-8.333 0-4.595 3.738-8.333 8.333-8.333 4.595 0 8.333 3.738 8.333 8.333 0 4.595-3.738 8.333-8.333 8.333" fill-rule="evenodd"/></svg>