<svg width="16" height="16" viewBox="0 0 16 16" xmlns="http://www.w3.org/2000/svg"><title>profiles--small</title><path d="M11.816 9.085c.199.266.372.55.518.853 1.192.275 2.087 1.376 2.087 2.694 0 .87-.679 1.579-1.513 1.579h-.692c-.204.303-.46.562-.742.789h1.434c1.271 0 2.303-1.061 2.303-2.368 0-1.94-1.516-3.514-3.395-3.547m-3.908-1.19H5.145C2.856 7.895 1 9.804 1 12.159 1 13.727 2.238 15 3.763 15H9.29c1.527 0 2.764-1.273 2.764-2.841 0-2.355-1.856-4.264-4.145-4.264m2.566-4.737c-.178 0-.35.023-.516.06.016.137.042.271.042.414 0 .14-.026.273-.041.409a1.57 1.57 0 0 1 .515-.094 1.58 1.58 0 0 1 0 3.158 1.578 1.578 0 0 1-1.465-.997 3.595 3.595 0 0 1-.612.535 2.36 2.36 0 0 0 4.445-1.117 2.368 2.368 0 0 0-2.368-2.368M6.368.789a2.842 2.842 0 1 0 0 5.685 2.842 2.842 0 0 0 0-5.685m1.54 7.895c1.85 0 3.355 1.559 3.355 3.475 0 1.131-.885 2.052-1.974 2.052H3.763c-1.088 0-1.974-.921-1.974-2.052 0-1.916 1.506-3.475 3.356-3.475h2.763M6.368 1.58c1.133 0 2.053.92 2.053 2.053 0 1.13-.92 2.052-2.053 2.052a2.056 2.056 0 0 1-2.052-2.052c0-1.133.921-2.053 2.052-2.053" fill-rule="evenodd"/></svg>