<svg width="20" height="20" viewBox="0 0 20 20" xmlns="http://www.w3.org/2000/svg"><title>profiles--small</title><path d="M14.7 11.508c.252.336.472.696.656 1.08C16.866 12.936 18 14.331 18 16c0 1.103-.86 2-1.916 2h-.877a4.556 4.556 0 0 1-.94 1h1.817C17.694 19 19 17.656 19 16c0-2.458-1.92-4.45-4.3-4.492M9.75 10h-3.5C3.351 10 1 12.418 1 15.401 1 17.388 2.568 19 4.5 19h7c1.933 0 3.5-1.612 3.5-3.599C15 12.418 12.649 10 9.75 10M13 4c-.225 0-.442.029-.653.076.02.174.053.344.053.524 0 .178-.033.346-.052.518C12.554 5.047 12.77 5 13 5c1.103 0 2 .898 2 2 0 1.103-.897 2-2 2a2 2 0 0 1-1.855-1.263 4.553 4.553 0 0 1-.776.677A2.989 2.989 0 0 0 13 10a3 3 0 1 0 0-6M7.8 1a3.6 3.6 0 1 0 0 7.2 3.6 3.6 0 0 0 0-7.2m1.95 10c2.344 0 4.25 1.974 4.25 4.401C14 16.834 12.879 18 11.5 18h-7C3.122 18 2 16.834 2 15.401 2 12.974 3.907 11 6.25 11h3.5M7.8 2c1.434 0 2.6 1.166 2.6 2.6 0 1.433-1.166 2.6-2.6 2.6a2.604 2.604 0 0 1-2.6-2.6C5.2 3.166 6.367 2 7.8 2" fill-rule="evenodd"/></svg>