<svg width="24" height="24" viewBox="0 0 24 24" xmlns="http://www.w3.org/2000/svg"><title>profiles-filled</title><path d="M11.996 12.5c1.962 0 3.713.992 4.858 2.544l.146.206v.679a.5.5 0 0 1-.41.492l-.09.008h-9a.5.5 0 0 1-.492-.41L7 15.928v-.69c1.14-1.664 2.953-2.739 4.996-2.739zm-6-3a5.75 5.75 0 0 1 2.286.473 3.998 3.998 0 0 0 1.553 1.89c-.95.327-1.82.864-2.57 1.565H1.5a.5.5 0 0 1-.492-.41L1 12.928v-.69C2.14 10.575 3.953 9.5 5.996 9.5zM12 5.5a3 3 0 1 1 0 6 3 3 0 0 1 0-6zm-6-3a3 3 0 0 1 2.976 3.384c-.432.496-.741 1.1-.885 1.765A3 3 0 1 1 6 2.5z" fill-rule="evenodd"/></svg>