<svg width="28" height="28" viewBox="0 0 28 28" xmlns="http://www.w3.org/2000/svg"><title>profiles</title><path d="M26 21.714v1.429C26 24.721 24.731 26 23.167 26h-4.059a4.928 4.928 0 0 0 1.08-1.75h2.979c.597 0 1.083-.497 1.083-1.107v-1.429c0-1.191-1.284-3.964-3.917-3.964h-.435a8.313 8.313 0 0 0-.957-1.75h1.392C23.463 16 26 18.559 26 21.714zm-8.75.857c0 .926-.74 1.679-1.65 1.679H5.4c-.91 0-1.65-.753-1.65-1.679v-1.713c0-2.817 2.266-5.108 5.05-5.108h3.4c2.784 0 5.05 2.291 5.05 5.108v1.713zM12.2 14H8.8C5.045 14 2 17.07 2 20.858v1.713C2 24.465 3.522 26 5.4 26h10.2c1.878 0 3.4-1.535 3.4-3.429v-1.713C19 17.07 15.955 14 12.2 14zm3.545-2.842c.353.968 1.263 1.663 2.338 1.663 1.379 0 2.5-1.137 2.5-2.535 0-1.398-1.121-2.536-2.5-2.536-.373 0-.724.089-1.042.238.035-.277.059-.558.059-.845a6.76 6.76 0 0 0-.081-.991A4.2 4.2 0 0 1 18.083 6c2.347 0 4.25 1.919 4.25 4.286 0 2.366-1.903 4.285-4.25 4.285-1.556 0-2.903-.852-3.643-2.111a6.652 6.652 0 0 0 1.305-1.302zM10.5 3.75c1.847 0 3.35 1.523 3.35 3.393 0 1.871-1.503 3.393-3.35 3.393-1.847 0-3.35-1.522-3.35-3.393 0-1.87 1.503-3.393 3.35-3.393zm0 8.536c2.816 0 5.1-2.303 5.1-5.143S13.316 2 10.5 2 5.4 4.303 5.4 7.143s2.284 5.143 5.1 5.143z" fill-rule="evenodd"/></svg>