<svg width="24" height="24" viewBox="0 0 24 24" xmlns="http://www.w3.org/2000/svg"><title>profiles</title><path d="M22 18.428v1.191A2.371 2.371 0 0 1 19.64 22h-3.383c.397-.412.7-.91.9-1.458h2.482a.914.914 0 0 0 .903-.923v-1.19c0-.993-1.07-3.304-3.265-3.304h-.362a6.927 6.927 0 0 0-.797-1.458h1.16c2.608 0 4.722 2.132 4.722 4.761zm-7.292.714c0 .772-.616 1.4-1.375 1.4h-8.5a1.389 1.389 0 0 1-1.375-1.4v-1.427c0-2.348 1.889-4.257 4.209-4.257H10.5c2.32 0 4.208 1.91 4.208 4.257v1.427zM10.5 12H7.667C4.537 12 2 14.558 2 17.715v1.427C2 20.721 3.268 22 4.833 22h8.5c1.565 0 2.834-1.28 2.834-2.858v-1.427c0-3.157-2.538-5.715-5.667-5.715zm2.954-2.368a2.083 2.083 0 0 0 1.948 1.386c1.15 0 2.084-.948 2.084-2.113s-.934-2.113-2.084-2.113c-.31 0-.603.074-.868.198.03-.23.05-.465.05-.704 0-.281-.028-.555-.068-.826a3.5 3.5 0 0 1 .886-.127c1.956 0 3.542 1.6 3.542 3.572s-1.586 3.57-3.541 3.57c-1.297 0-2.42-.71-3.036-1.758.41-.31.776-.675 1.087-1.085zm-4.37-6.174c1.539 0 2.791 1.27 2.791 2.828 0 1.559-1.252 2.827-2.792 2.827-1.539 0-2.791-1.268-2.791-2.827 0-1.558 1.252-2.828 2.791-2.828zm0 7.114c2.346 0 4.25-1.92 4.25-4.286C13.333 3.919 11.43 2 9.083 2c-2.347 0-4.25 1.92-4.25 4.286 0 2.367 1.903 4.286 4.25 4.286z" fill-rule="evenodd"/></svg>