<svg width="24" height="24" viewBox="0 0 24 24" xmlns="http://www.w3.org/2000/svg"><title>projector</title><path d="M13.958 18.275L12 15.011l-1.958 3.264h3.916zm2.624.485a1.001 1.001 0 0 1-.858 1.515H8.276a1.001 1.001 0 0 1-.858-1.515l3.725-6.207c.361-.6 1.353-.6 1.714 0l3.725 6.207zM22 5v8.441c0 1.715-1.502 3.11-3.348 3.11H17a1 1 0 1 1 0-2h1.652c.731 0 1.348-.508 1.348-1.11v-7.44H4v7.44c0 .602.617 1.11 1.348 1.11H7a1 1 0 0 1 0 2H5.348C3.502 16.551 2 15.156 2 13.441v-8.44a1 1 0 0 1 1-1h18a1 1 0 0 1 1 1z" fill-rule="evenodd"/></svg>