<svg width="28" height="28" viewBox="0 0 28 28" xmlns="http://www.w3.org/2000/svg"><title>projector</title><path d="M15.958 20.275L14 17.011l-1.958 3.264h3.916zm2.624.485a1.001 1.001 0 0 1-.858 1.515h-7.448a1.001 1.001 0 0 1-.858-1.515l3.725-6.207c.361-.6 1.353-.6 1.714 0l3.725 6.207zM24 7v8.441c0 1.715-1.502 3.11-3.348 3.11H19a1 1 0 1 1 0-2h1.652c.731 0 1.348-.508 1.348-1.11v-7.44H6v7.44c0 .602.617 1.11 1.348 1.11H9a1 1 0 0 1 0 2H7.348C5.502 18.551 4 17.156 4 15.441v-8.44a1 1 0 0 1 1-1h18a1 1 0 0 1 1 1z" fill-rule="evenodd"/></svg>