<svg width="20" height="20" viewBox="0 0 20 20" xmlns="http://www.w3.org/2000/svg"><title>projector--small</title><path d="M10 11.826l2.22 3.7H7.78l2.22-3.7zm3.539 4.447a.5.5 0 0 0-.007-.503l-3.103-5.173c-.181-.302-.677-.302-.858 0L6.468 15.77a.5.5 0 0 0 .428.757h6.208a.5.5 0 0 0 .435-.254zm2.004-3.48H13.5a.5.5 0 0 1 0-1h2.043c.804 0 1.457-.564 1.457-1.258V4H3v6.534c0 .694.653 1.259 1.457 1.259H6.5a.5.5 0 1 1 0 1H4.457C3.102 12.794 2 11.78 2 10.534V3.502a.5.5 0 0 1 .5-.5h15a.5.5 0 0 1 .5.5v7.034c0 1.245-1.102 2.259-2.457 2.259z" fill-rule="evenodd"/></svg>