<svg width="16" height="16" viewBox="0 0 16 16" xmlns="http://www.w3.org/2000/svg"><title>projector--small</title><path d="M8 9.722l1.943 3.239H6.058L8 9.722zm3.097 3.892a.437.437 0 0 0-.006-.44L8.375 8.646c-.158-.264-.592-.264-.75 0L4.91 13.173a.437.437 0 0 0 .374.663h5.432a.438.438 0 0 0 .38-.222zm1.753-3.045h-1.787a.438.438 0 0 1 0-.875h1.787c.704 0 1.275-.494 1.275-1.101V2.876H1.875v5.717c0 .607.571 1.101 1.275 1.101h1.788a.437.437 0 1 1 0 .875H3.15C1.964 10.57 1 9.682 1 8.593V2.438c0-.242.196-.437.438-.437h13.124c.242 0 .438.195.438.437v6.155c0 1.09-.964 1.976-2.15 1.976z" fill-rule="evenodd"/></svg>