<svg width="24" height="24" viewBox="0 0 24 24" xmlns="http://www.w3.org/2000/svg"><title>pulse</title><path d="M21.716 14.008a.537.537 0 0 1-.473.455l-2.595.313a.74.74 0 0 1-.802-.508l-.028-.091-2.55-8.4-3.852 15.306c-.112.447-.58.721-1.044.614a.85.85 0 0 1-.648-.664L7.95 11.405l-1.182 2.847-.026.062a.77.77 0 0 1-.777.462l-3.748-.313a.53.53 0 0 1-.494-.565.534.534 0 0 1 .494-.476l3.14-.263 2.11-5.081a.877.877 0 0 1 1.126-.465c.287.11.478.355.529.628l1.586 8.592 3.641-14.475c.112-.449.58-.723 1.045-.614.31.072.541.3.626.575L19.32 13.19l1.923.232a.53.53 0 0 1 .473.586" fill-rule="evenodd"/></svg>