<svg width="16" height="16" viewBox="0 0 16 16" xmlns="http://www.w3.org/2000/svg"><title>pulse--small</title><path d="M14.999 9.671a.262.262 0 0 1-.24.233l-1.688.155a.376.376 0 0 1-.395-.26l-.01-.034-2.091-6.8-3.006 11.723a.424.424 0 0 1-.825-.025L5.318 7.01 4.173 9.8l-.009.023a.389.389 0 0 1-.383.236l-2.533-.155a.26.26 0 0 1-.247-.273.262.262 0 0 1 .247-.241l2.24-.137 1.59-3.876a.425.425 0 0 1 .808.079l1.338 7.18 2.904-11.323a.424.424 0 0 1 .814-.02l2.452 7.972 1.366.125c.145.014.252.139.239.281" fill-rule="evenodd"/></svg>