<svg width="16" height="16" viewBox="0 0 16 16" xmlns="http://www.w3.org/2000/svg"><title>refresh--small</title><path d="M13.987 1.548a.465.465 0 0 0-.33-.137.478.478 0 0 0-.467.468v1.435l-.232-.256-.006-.01c-2.731-2.731-7.174-2.73-9.905 0a7.01 7.01 0 0 0 .001 9.902 7.008 7.008 0 0 0 9.903 0A6.962 6.962 0 0 0 15 8.136a.463.463 0 0 0-.457-.474.467.467 0 0 0-.476.459 6.03 6.03 0 0 1-1.775 4.17 6.073 6.073 0 0 1-8.58.004 6.07 6.07 0 0 1 .004-8.578c2.362-2.363 6.09-2.477 8.574-.008l.242.214-1.373-.015c-.25 0-.504.257-.505.506 0 .258.21.469.468.469h2.535a.477.477 0 0 0 .467-.47V1.88a.463.463 0 0 0-.137-.33" fill-rule="evenodd"/></svg>