<svg width="28" height="28" viewBox="0 0 28 28" xmlns="http://www.w3.org/2000/svg"><title>refresh</title><path d="M24.225 2.996a1.049 1.049 0 0 0-.74-.307c-.267 0-.534.115-.732.312a1.049 1.049 0 0 0-.311.734l.002 1.731C17.759.83 10.176.845 5.51 5.511c-4.681 4.68-4.68 12.297.002 16.978 4.679 4.679 12.295 4.679 16.975-.002A11.938 11.938 0 0 0 26 14.232a1.045 1.045 0 0 0-.293-.744 1.062 1.062 0 0 0-.73-.317 1.027 1.027 0 0 0-.758.307 1.04 1.04 0 0 0-.306.719 9.869 9.869 0 0 1-2.9 6.817c-3.866 3.866-10.154 3.868-14.018.004C3.132 17.155 3.135 10.867 7 7.001c3.949-3.949 9.9-3.989 13.914-.107l-1.62-.017c-.265.001-.543.127-.76.344a1.114 1.114 0 0 0-.346.766 1.054 1.054 0 0 0 1.047 1.047l4.253-.002c.269 0 .536-.113.733-.309.197-.199.31-.466.31-.735V3.735a1.045 1.045 0 0 0-.307-.739" fill-rule="evenodd"/></svg>