<svg width="24" height="24" viewBox="0 0 24 24" xmlns="http://www.w3.org/2000/svg"><title>refresh</title><path d="M20.52 2.83a.874.874 0 0 0-.616-.256.877.877 0 0 0-.61.26.874.874 0 0 0-.26.612l.003 1.442c-3.905-3.863-10.224-3.85-14.112.038-3.901 3.9-3.9 10.247.001 14.148 3.9 3.9 10.246 3.9 14.146-.002A9.948 9.948 0 0 0 22 12.193a.87.87 0 0 0-.853-.884.856.856 0 0 0-.631.256.867.867 0 0 0-.255.599 8.224 8.224 0 0 1-2.417 5.68c-3.222 3.223-8.462 3.224-11.682.004-3.219-3.219-3.216-8.459.005-11.68 3.291-3.292 8.251-3.325 11.595-.09l-1.349-.014a.925.925 0 0 0-.634.287.928.928 0 0 0-.288.638c.001.478.392.87.872.873l3.544-.002a.875.875 0 0 0 .611-.258.876.876 0 0 0 .259-.612V3.446a.871.871 0 0 0-.256-.616" fill-rule="evenodd"/></svg>