<svg width="20" height="20" viewBox="0 0 20 20" xmlns="http://www.w3.org/2000/svg"><title>refresh--small</title><path d="M16.837 2.627a.531.531 0 0 0-.378-.157.546.546 0 0 0-.533.535v1.639l-.265-.293-.007-.011c-3.12-3.12-8.195-3.12-11.315 0-3.12 3.119-3.12 8.194 0 11.313 3.12 3.12 8.195 3.12 11.314 0a7.954 7.954 0 0 0 2.34-5.5.529.529 0 0 0-.521-.542.534.534 0 0 0-.544.524A6.89 6.89 0 0 1 14.9 14.9c-2.703 2.704-7.1 2.706-9.802.004-2.702-2.703-2.7-7.097.005-9.8 2.698-2.7 6.957-2.83 9.795-.01l.277.246-1.57-.017c-.284 0-.575.293-.576.578a.535.535 0 0 0 .535.535h2.896a.545.545 0 0 0 .533-.536V3.005a.529.529 0 0 0-.156-.378" fill-rule="evenodd"/></svg>