<svg width="24" height="24" viewBox="0 0 24 24" xmlns="http://www.w3.org/2000/svg"><title>reply</title><path d="M13.67 7.833H7.777l4.012-4.458a.804.804 0 0 0-.095-1.174.904.904 0 0 0-1.233.09L5.21 8.126c-.034.038-.05.082-.077.124-.024.038-.053.073-.07.114a.804.804 0 0 0-.062.295L5 8.667l.002.008c0 .1.023.2.062.295.017.042.046.075.07.113.026.043.043.087.077.125l5.25 5.834a.888.888 0 0 0 .664.291.895.895 0 0 0 .569-.2c.367-.3.41-.826.095-1.175L7.777 9.5h5.893c1.974 0 3.58 1.53 3.58 3.41v8.257c0 .46.391.833.875.833s.875-.373.875-.833v-8.258c0-2.799-2.391-5.076-5.33-5.076" fill-rule="evenodd"/></svg>