<svg width="16" height="16" viewBox="0 0 16 16" xmlns="http://www.w3.org/2000/svg"><title>reply--small</title><path d="M12.625 8.92v5.691c0 .216-.18.389-.401.389a.395.395 0 0 1-.401-.389V8.92c0-1.579-1.26-2.863-2.807-2.863H4.307l3.401 3.627a.38.38 0 0 1-.027.55.407.407 0 0 1-.566-.027l-4.01-4.278c-.018-.017-.025-.039-.038-.058-.012-.02-.028-.038-.037-.06a.384.384 0 0 1-.028-.133L3 5.667l.002-.01a.38.38 0 0 1 .028-.133c.009-.023.025-.04.037-.06.013-.02.02-.04.037-.059l4.01-4.277a.41.41 0 0 1 .567-.027.38.38 0 0 1 .027.55l-3.4 3.627h4.708c1.99 0 3.609 1.634 3.609 3.641" fill-rule="evenodd"/></svg>