<svg width="16" height="16" viewBox="0 0 16 16" xmlns="http://www.w3.org/2000/svg"><title>search--small</title><path d="M6.444 1a5.444 5.444 0 1 0 0 10.889 5.42 5.42 0 0 0 3.562-1.333l4.33 4.33a.39.39 0 0 0 .55 0 .39.39 0 0 0 0-.55l-4.33-4.33a5.42 5.42 0 0 0 1.333-3.562A5.444 5.444 0 0 0 6.444 1m0 .778a4.671 4.671 0 0 1 4.667 4.666 4.661 4.661 0 0 1-1.143 3.052l-.219.253-.253.22a4.661 4.661 0 0 1-3.052 1.142 4.671 4.671 0 0 1-4.666-4.667 4.671 4.671 0 0 1 4.666-4.666" fill-rule="evenodd"/></svg>