<svg width="24" height="24" viewBox="0 0 24 24"><path fill-rule="evenodd" d="M18.743 18.744a.892.892 0 0 1-1.232 0l-3.53-3.529a.874.874 0 0 1 0-1.233.876.876 0 0 1 1.234 0l3.528 3.53a.867.867 0 0 1 0 1.232M5 8.364A3.367 3.367 0 0 1 8.363 5a3.367 3.367 0 0 1 3.363 3.364 3.35 3.35 0 0 1-.968 2.355c-.008.007-.018.009-.026.017-.007.008-.01.017-.016.025a3.35 3.35 0 0 1-2.353.966A3.367 3.367 0 0 1 5 8.364m15.157 7.733l-3.528-3.53a2.872 2.872 0 0 0-3.223-.571l-.614-.614a5.333 5.333 0 0 0 .934-3.018A5.37 5.37 0 0 0 8.363 3 5.37 5.37 0 0 0 3 8.364a5.37 5.37 0 0 0 5.363 5.363 5.328 5.328 0 0 0 3.014-.932l.616.616a2.871 2.871 0 0 0 .574 3.218l3.53 3.529a2.847 2.847 0 0 0 2.03.841c.767 0 1.488-.298 2.03-.84a2.854 2.854 0 0 0 .842-2.032 2.85 2.85 0 0 0-.842-2.03"/></svg>