<svg width="28" height="28" viewBox="0 0 28 28" xmlns="http://www.w3.org/2000/svg"><title>send</title><path d="M4.012 16.537l.067 6.882a1 1 0 0 1-.04.292.237.237 0 0 0 .061.24c.071.064.119.047.161.026l19.664-9.837c.042-.022.075-.082.075-.147 0-.065-.031-.124-.081-.15L4.262 4.008c-.087-.016-.123-.008-.16.025a.236.236 0 0 0-.063.24 1 1 0 0 1 .04.293l-.069 6.87 10.471.825a1.721 1.721 0 0 1 1.558 1.724c0 .896-.662 1.636-1.54 1.72l-10.487.833zm.188 9.455a2.147 2.147 0 0 1-1.426-.544 2.238 2.238 0 0 1-.696-2.137l-.075-7.687a1 1 0 0 1 .921-1.007l7.98-.633-7.982-.628A1 1 0 0 1 2 12.35l.078-7.678a2.24 2.24 0 0 1 .697-2.137 2.184 2.184 0 0 1 2.381-.317l19.664 9.84A2.154 2.154 0 0 1 26 13.993c0 .822-.449 1.563-1.174 1.932l-19.669 9.84a2.164 2.164 0 0 1-.957.227z" fill-rule="evenodd"/></svg>