<svg width="20" height="20" viewBox="0 0 20 20" xmlns="http://www.w3.org/2000/svg"><title>send--small</title><path d="M2.006 11.71l.055 5.572c.001.05-.006.1-.02.148a.452.452 0 0 0 .128.466.393.393 0 0 0 .429.059l15.193-7.601A.403.403 0 0 0 18 9.996a.4.4 0 0 0-.211-.358L2.597 2.035a.391.391 0 0 0-.427.06.45.45 0 0 0-.129.467.477.477 0 0 1 .02.146l-.056 5.564 8.344.657c.549.056.953.51.953 1.059 0 .55-.405 1.007-.943 1.06l-8.353.663zm.421 7.285a1.39 1.39 0 0 1-.921-.351 1.455 1.455 0 0 1-.445-1.42l-.059-5.97a.499.499 0 0 1 .46-.503l8.809-.7.039-.624-.039.498-8.81-.693A.5.5 0 0 1 1 8.729l.061-5.964a1.453 1.453 0 0 1 .445-1.418 1.407 1.407 0 0 1 1.537-.206l15.195 7.603c.471.238.762.718.762 1.252 0 .533-.291 1.012-.759 1.25L3.044 18.85a1.391 1.391 0 0 1-.617.145z" fill-rule="evenodd"/></svg>