<svg width="16" height="16" viewBox="0 0 16 16" xmlns="http://www.w3.org/2000/svg"><title>sent-messages--small</title><path d="M4.111 8.389c0-.215.177-.389.397-.389h6.984c.219 0 .397.18.397.389a.393.393 0 0 1-.397.389H4.508a.397.397 0 0 1-.397-.39m0-3.11c0-.215.177-.39.397-.39h6.984c.219 0 .397.181.397.39a.393.393 0 0 1-.397.389H4.508a.397.397 0 0 1-.397-.39M1.778 4.11v7.779h12.444V4.11a2.337 2.337 0 0 0-2.34-2.332H4.117a2.331 2.331 0 0 0-2.34 2.332M15 3.72v8.376c0 1.6-1.304 2.904-2.904 2.904h-8.19A2.908 2.908 0 0 1 1 12.096V3.72C1 2.22 2.303 1 3.906 1h8.19C13.696 1 15 2.22 15 3.72" fill-rule="evenodd"/></svg>