<svg width="20" height="20" viewBox="0 0 20 20" xmlns="http://www.w3.org/2000/svg"><title>sent-messages--small</title><path d="M5 10.5c0-.276.228-.5.51-.5h8.98a.51.51 0 0 1 .51.5c0 .276-.228.5-.51.5H5.51a.51.51 0 0 1-.51-.5m0-4c0-.276.228-.5.51-.5h8.98a.51.51 0 0 1 .51.5c0 .276-.228.5-.51.5H5.51A.51.51 0 0 1 5 6.5M2 4.999V15h16V4.999A3.004 3.004 0 0 0 14.99 2H5.009A2.997 2.997 0 0 0 2 4.999m17-.502v10.769A3.74 3.74 0 0 1 15.266 19H4.736A3.74 3.74 0 0 1 1 15.266V4.497C1 2.569 2.675 1 4.736 1h10.53C17.324 1 19 2.569 19 4.497" fill-rule="evenodd"/></svg>