<svg width="24" height="24" viewBox="0 0 24 24" xmlns="http://www.w3.org/2000/svg"><title>sent-messages</title><path d="M6.167 12.833c0-.46.375-.833.839-.833h9.988c.463 0 .84.37.84.833 0 .461-.376.834-.84.834H7.006a.834.834 0 0 1-.84-.834m0-5c0-.46.376-.833.84-.833h9.988c.463 0 .84.37.84.833 0 .46-.376.834-.84.834H7.006a.834.834 0 0 1-.84-.834m-2.5-1.659V17h16.667V6.174a2.495 2.495 0 0 0-2.495-2.507H6.162a2.503 2.503 0 0 0-2.495 2.507M22 5.886V17.85A4.155 4.155 0 0 1 17.85 22H6.15A4.155 4.155 0 0 1 2 17.85V5.886C2 3.743 3.862 2 6.15 2h11.7C20.138 2 22 3.743 22 5.886" fill-rule="evenodd"/></svg>