<svg width="16" height="16" viewBox="0 0 16 16" xmlns="http://www.w3.org/2000/svg"><title>show--small</title><path d="M8 3c3.09 0 5.825 1.873 6.94 4.664l.06.149-.06.148c-1.115 2.791-3.85 4.664-6.94 4.664-3.09 0-5.825-1.873-6.94-4.664L1 7.812l.06-.148C2.174 4.873 4.91 3 8 3zm0 .802c-2.742 0-5.175 1.604-6.222 4.01 1.047 2.407 3.48 4.01 6.222 4.01 2.742 0 5.175-1.603 6.222-4.01-1.047-2.406-3.48-4.01-6.222-4.01zm0 1.604c1.29 0 2.333 1.076 2.333 2.407 0 1.33-1.042 2.406-2.333 2.406-1.29 0-2.333-1.076-2.333-2.406 0-1.331 1.042-2.407 2.333-2.407zm0 .802c-.861 0-1.556.716-1.556 1.604 0 .889.695 1.605 1.556 1.605.861 0 1.556-.716 1.556-1.604 0-.889-.695-1.605-1.556-1.605z" fill-rule="nonzero"/></svg>