<svg width="24" height="24" viewBox="0 0 24 24" xmlns="http://www.w3.org/2000/svg"><title>show</title><path d="M12 4c4.843 0 9.13 2.988 10.878 7.44l.122.31-.122.31C21.13 16.511 16.843 19.5 12 19.5s-9.13-2.988-10.878-7.44L1 11.75l.122-.31C2.87 6.989 7.157 4 12 4zm0 1.688c-4.032 0-7.614 2.42-9.186 6.062 1.572 3.642 5.154 6.062 9.186 6.062s7.614-2.42 9.186-6.062C19.614 8.108 16.032 5.688 12 5.688zm0 2.456a3.597 3.597 0 0 1 3.595 3.606A3.597 3.597 0 0 1 12 15.356a3.597 3.597 0 0 1-3.595-3.606A3.597 3.597 0 0 1 12 8.144zm0 1.688a1.912 1.912 0 0 0-1.912 1.918 1.912 1.912 0 1 0 3.824 0A1.912 1.912 0 0 0 12 9.832z" fill-rule="nonzero"/></svg>