<svg width="24" height="24" viewBox="0 0 24 24" xmlns="http://www.w3.org/2000/svg"><title>sort-direction</title><path d="M7.286 4.775v12.368a.857.857 0 1 1-1.715 0V4.775L2.346 8.293a.857.857 0 1 1-1.264-1.158l4.715-5.143a.857.857 0 0 1 1.263 0l4.715 5.143a.857.857 0 1 1-1.264 1.158L7.286 4.775zm10.919 17.231a.855.855 0 0 1-1.267 0l-4.713-5.141a.857.857 0 1 1 1.264-1.158l3.225 3.518V8.571a.857.857 0 1 1 1.715 0v10.654l3.225-3.518a.857.857 0 1 1 1.264 1.158l-4.713 5.141z" fill-rule="nonzero"/></svg>