<svg width="28" height="28" viewBox="0 0 28 28" xmlns="http://www.w3.org/2000/svg"><title>star</title><path d="M14 2c-.222 0-.965.068-1.23.94L10 9.942H3.293c-.817 0-1.12.622-1.212.889-.075.221-.266.982.444 1.536L8 17.021l-1.69 7.225c-.17.561.007.965.185 1.205.26.349.652.549 1.053.549.26 0 .525-.085.76-.269L14 22l5.688 3.731c.235.182.5.266.76.266.404 0 .797-.199 1.055-.547.179-.239.355-.644.185-1.202L20 17l5.476-4.633c.71-.554.519-1.313.443-1.534-.092-.269-.394-.891-1.213-.891H18l-2.771-7.003C14.965 2.068 14.22 2 13.999 2m0 3.27l2.14 5.409.502 1.263h6.239l-4.172 3.532-.933.789.277 1.191 1.323 5.681-4.278-2.807-1.097-.72-1.097.719-4.278 2.806 1.322-5.657.279-1.189-.931-.791-4.182-3.554H11.359l.5-1.264L14 5.27" fill-rule="evenodd"/></svg>