<svg width="24" height="24" viewBox="0 0 24 24"><path d="M18.213 2.5a3.282 3.282 0 0 1 3.276 3.278v12.444a3.282 3.282 0 0 1-3.276 3.278H5.777A3.277 3.277 0 0 1 2.5 18.222V5.778A3.277 3.277 0 0 1 5.777 2.5h12.436zm0 3H5.777a.277.277 0 0 0-.277.278v12.444c0 .154.123.278.277.278h12.436a.283.283 0 0 0 .276-.278V5.778a.283.283 0 0 0-.276-.278z"/><path d="M16 10.7a.5.5 0 0 1 .5.5v1.6a.5.5 0 0 1-.5.5h-2.7V16a.5.5 0 0 1-.5.5h-1.6a.5.5 0 0 1-.5-.5v-2.7H8a.5.5 0 0 1-.5-.5v-1.6a.5.5 0 0 1 .5-.5h2.7V8a.5.5 0 0 1 .5-.5h1.6a.5.5 0 0 1 .5.5v2.7H16z"/></svg>