<svg width="24" height="24" viewBox="0 0 24 24"><path fill-rule="evenodd" d="M11.002 16.253l3.317 2.585c.348.269.81.17 1.06-.164a.759.759 0 0 0 .107-.701l-1.277-4.214 3.486-2.714c.415-.322.303-.766.26-.895-.054-.156-.23-.52-.708-.52h-4.29l-1.239-4.082A.73.73 0 0 0 11.003 5a.73.73 0 0 0-.718.549L9.046 9.63h-4.29c-.477 0-.652.363-.707.518-.044.129-.155.574.26.896l3.486 2.714-1.279 4.213a.763.763 0 0 0 .109.703c.25.336.71.434 1.056.163l3.32-2.585zM14.76 21a2.707 2.707 0 0 1-1.668-.583l-2.09-1.63-2.091 1.629c-1.197.932-3 .653-3.893-.551a2.764 2.764 0 0 1-.415-2.474l.878-2.898-2.401-1.87A2.768 2.768 0 0 1 2.159 9.5c.389-1.135 1.409-1.87 2.598-1.87h2.807l.806-2.662C8.735 3.773 9.768 3 11.002 3c1.236 0 2.268.773 2.63 1.968l.809 2.663h2.806c1.189 0 2.21.734 2.599 1.87a2.764 2.764 0 0 1-.922 3.122l-2.402 1.87.879 2.899c.262.862.11 1.763-.416 2.473A2.789 2.789 0 0 1 14.761 21z"/></svg>