<svg width="24" height="24" viewBox="0 0 24 24" xmlns="http://www.w3.org/2000/svg"><title>star</title><path d="M12 2c-.185 0-.804.057-1.025.783L8.666 8.618H3.077c-.68 0-.933.519-1.01.741-.062.184-.221.818.37 1.28L7 14.517 5.59 20.538c-.141.468.006.804.155 1.004.217.291.543.458.877.458.218 0 .438-.07.633-.224L12 18.666l4.74 3.11c.195.151.416.221.634.221.336 0 .663-.165.878-.455.15-.2.296-.537.154-1.002L17 14.5l4.563-3.86c.592-.463.432-1.095.37-1.28-.078-.223-.33-.742-1.012-.742h-5.588l-2.31-5.836A1.042 1.042 0 0 0 12 2m0 2.725l1.783 4.507.417 1.053h5.2l-3.477 2.943-.778.658.231.992 1.103 4.734-3.565-2.339-.914-.6-.914.6L7.52 19.61l1.101-4.714.233-.991-.776-.66-3.485-2.961h5.205l.417-1.053L12 4.725" fill-rule="evenodd"/></svg>