<svg width="16" height="16" viewBox="0 0 16 16" xmlns="http://www.w3.org/2000/svg"><title>star--small</title><path d="M8 1a.73.73 0 0 0-.717.548L5.667 5.633H1.754c-.476 0-.653.363-.707.518-.044.13-.155.573.26.896L4.5 9.762l-.986 4.215a.763.763 0 0 0 .109.703c.151.204.38.32.613.32a.713.713 0 0 0 .444-.156L8 12.667l3.318 2.177a.716.716 0 0 0 .444.154.77.77 0 0 0 .615-.318.757.757 0 0 0 .108-.701L11.5 9.75l3.194-2.703c.414-.323.303-.766.259-.894-.053-.157-.23-.52-.708-.52h-3.912L8.716 1.548A.728.728 0 0 0 8 1m0 .85l1.61 4.07.194.491h4.422l.006.01-.04.033-3.194 2.702-.364.308.108.463.985 4.228.007.03-3.308-2.169-.426-.28-.426.28-3.31 2.17.002-.008.005-.024.987-4.215.108-.462-.363-.307-3.225-2.728c0-.005 0-.015.005-.031h4.413l.194-.492L8 1.85" fill-rule="evenodd"/></svg>