<svg width="24" height="24" viewBox="0 0 24 24" xmlns="http://www.w3.org/2000/svg"><title>textblock</title><path d="M14.5 16.167c0 .46-.373.833-.833.833h-7.5a.834.834 0 0 1 0-1.667h7.5c.46 0 .833.374.833.834zm4.167-8.334c0 .46-.373.834-.834.834H6.167a.834.834 0 0 1 0-1.667h11.666c.461 0 .834.373.834.833zm0 4.167c0 .46-.373.833-.834.833H6.167a.834.834 0 0 1 0-1.666h11.666c.461 0 .834.373.834.833zm1.666 6.667c0 .919-.747 1.666-1.666 1.666H5.333c-.919 0-1.666-.747-1.666-1.666V5.333c0-.92.747-1.666 1.666-1.666h13.334c.919 0 1.666.746 1.666 1.666v13.334zM18.667 2H5.333A3.337 3.337 0 0 0 2 5.333v13.334A3.337 3.337 0 0 0 5.333 22h13.334A3.337 3.337 0 0 0 22 18.667V5.333A3.337 3.337 0 0 0 18.667 2z" fill-rule="evenodd"/></svg>