<svg width="20" height="20" viewBox="0 0 20 20" xmlns="http://www.w3.org/2000/svg"><title>textblock--small</title><path d="M12 14a.5.5 0 0 1-.5.5h-7a.5.5 0 0 1 0-1h7a.5.5 0 0 1 .5.5zm4-8a.5.5 0 0 1-.5.5h-11a.5.5 0 0 1 0-1h11a.5.5 0 0 1 .5.5zm0 4a.5.5 0 0 1-.5.5h-11a.5.5 0 0 1 0-1h11a.5.5 0 0 1 .5.5zm2 5.5c0 1.38-1.121 2.5-2.5 2.5h-11A2.503 2.503 0 0 1 2 15.5v-11C2 3.121 3.122 2 4.5 2h11C16.879 2 18 3.121 18 4.5v11zM15.5 1h-11C2.57 1 1 2.57 1 4.5v11C1 17.43 2.57 19 4.5 19h11c1.929 0 3.5-1.57 3.5-3.5v-11C19 2.57 17.429 1 15.5 1z" fill-rule="evenodd"/></svg>