<svg width="16" height="16" viewBox="0 0 16 16" xmlns="http://www.w3.org/2000/svg"><title>textblock--small</title><path d="M9.556 11.111a.389.389 0 0 1-.39.389H3.723a.389.389 0 0 1 0-.778h5.445c.214 0 .389.174.389.39zm3.11-6.222a.389.389 0 0 1-.388.389H3.722a.389.389 0 0 1 0-.778h8.556c.214 0 .389.174.389.389zm0 3.111a.389.389 0 0 1-.388.389H3.722a.389.389 0 0 1 0-.778h8.556c.214 0 .389.174.389.389zm1.556 4.278a1.946 1.946 0 0 1-1.944 1.944H3.722a1.947 1.947 0 0 1-1.944-1.944V3.722c0-1.072.872-1.944 1.944-1.944h8.556c1.072 0 1.944.872 1.944 1.944v8.556zM12.278 1H3.722A2.725 2.725 0 0 0 1 3.722v8.556A2.725 2.725 0 0 0 3.722 15h8.556c1.5 0 2.722-1.221 2.722-2.722V3.722A2.726 2.726 0 0 0 12.278 1z" fill-rule="evenodd"/></svg>