<svg width="16" height="16" viewBox="0 0 16 16" xmlns="http://www.w3.org/2000/svg"><title>ticket--small</title><path d="M10.667 8.667c0-.246-.177-.445-.395-.445H3.95c-.218 0-.395.2-.395.445s.177.444.395.444h6.32c.219 0 .396-.199.396-.444m0-2.667c0-.245-.177-.444-.395-.444H3.95c-.218 0-.395.199-.395.444s.177.444.395.444h6.32c.219 0 .396-.199.396-.444m4.533.882v-1.77c0-1.287-1.077-2.334-2.4-2.334H3.2C1.877 2.778.8 3.825.8 5.11v1.771c.476.27.8.766.8 1.34 0 .574-.324 1.07-.8 1.34v1.771c0 1.287 1.077 2.334 2.4 2.334h9.6c1.323 0 2.4-1.047 2.4-2.334v-1.77c-.476-.27-.8-.767-.8-1.34 0-.575.324-1.071.8-1.34m.8.561a.79.79 0 0 0-.8.778c0 .43.36.778.8.778v2.333c0 1.711-1.44 3.111-3.2 3.111H3.2c-1.76 0-3.2-1.4-3.2-3.11V9c.44 0 .8-.348.8-.778a.79.79 0 0 0-.8-.778V5.111C0 3.4 1.44 2 3.2 2h9.6C14.56 2 16 3.4 16 5.111v2.333zm-4 4.278c0 .215.18.39.4.39.22 0 .4-.175.4-.39a.395.395 0 0 0-.4-.389c-.22 0-.4.175-.4.39m0-2.334c0 .215.18.389.4.389.22 0 .4-.174.4-.39A.395.395 0 0 0 12.4 9c-.22 0-.4.174-.4.389m0-2.333c0 .214.18.388.4.388.22 0 .4-.174.4-.388a.395.395 0 0 0-.4-.39c-.22 0-.4.175-.4.39m.4-2.723c.22 0 .4.175.4.39 0 .214-.18.388-.4.388-.22 0-.4-.174-.4-.389 0-.214.18-.389.4-.389" fill-rule="evenodd"/></svg>