<svg width="24" height="24" viewBox="0 0 24 24" xmlns="http://www.w3.org/2000/svg"><title>ticket</title><path d="M15.947 13.005c0-.58-.41-1.047-.914-1.047H5.897c-.504 0-.914.468-.914 1.047 0 .578.41 1.046.914 1.046h9.136c.505 0 .914-.468.914-1.046zm0-4.186c0-.58-.41-1.047-.914-1.047H5.897c-.504 0-.914.468-.914 1.047 0 .578.41 1.046.914 1.046h9.136c.505 0 .914-.468.914-1.046zM22.286 6.6c0-.993-.77-1.8-1.715-1.8H3.43c-.946 0-1.715.807-1.715 1.8v3.402c.522.495.857 1.203.857 1.998 0 .795-.335 1.503-.857 1.998V17.4c0 .993.77 1.8 1.715 1.8H20.57c.946 0 1.715-.807 1.715-1.8v-3.402A2.746 2.746 0 0 1 21.429 12c0-.795.335-1.503.857-1.998V6.6zM24 6.6v4.5c-.472 0-.857.403-.857.9s.385.9.857.9v4.5c0 1.98-1.543 3.6-3.429 3.6H3.43C1.543 21 0 19.38 0 17.4v-4.5c.472 0 .857-.403.857-.9s-.385-.9-.857-.9V6.6C0 4.62 1.543 3 3.429 3H20.57C22.457 3 24 4.62 24 6.6zm-6 9.9a1 1 0 1 0 0 2 1 1 0 0 0 0-2zm0-3.667a1 1 0 1 0 0 2 1 1 0 0 0 0-2zm0-3.666a1 1 0 1 0 0 2 1 1 0 0 0 0-2zM19 6.5a1 1 0 1 1-2 0 1 1 0 0 1 2 0z" fill-rule="evenodd"/></svg>