<svg width="20" height="20" viewBox="0 0 20 20"><path fill-rule="evenodd" d="M14.56 3H4.38l1.117 15.93.002.035v.033l.063.002h7.875l.062-.002v-.033l-.027-.035L14.56 3zM5.618 2h7.765l-.33-.658C12.978 1.188 12.672 1 12.5 1h-6c-.17 0-.476.188-.553.342L5.617 2zM17 2.5a.5.5 0 0 1-.5.5h-.878L14.5 19c0 .684-.377 1-1.062 1H5.563c-.684 0-1.063-.316-1.063-1L3.378 3H2.5a.5.5 0 0 1 0-1h2L5.054.895C5.299.402 5.95 0 6.5 0h6c.55 0 1.202.402 1.447.895L14.5 2h2a.5.5 0 0 1 .5.5zm-4.5 2a.5.5 0 1 0-1 0V17a.5.5 0 0 0 1 0V4.5zm-5 0a.5.5 0 1 0-1 0V17a.5.5 0 0 0 1 0V4.5zM10 17a.5.5 0 1 1-1 0V4.5a.5.5 0 0 1 1 0V17z"/></svg>