<svg width="16" height="16" viewBox="0 0 16 16" xmlns="http://www.w3.org/2000/svg"><title>trash--small</title><path d="M12.17 2.4H3.725l.927 12.744.002.028v.026l.052.002h6.533c.02 0 .037 0 .052-.002v-.026l-.023-.028L12.17 2.4zm-7.418-.8h6.442l-.273-.526C10.857.95 10.603.8 10.46.8H5.483c-.14 0-.395.15-.458.274l-.273.526zm9.442.4c0 .22-.185.4-.414.4h-.729l-.93 12.8c0 .547-.313.8-.882.8H4.706c-.567 0-.882-.253-.882-.8l-.93-12.8h-.73A.408.408 0 0 1 1.75 2c0-.22.186-.4.415-.4H3.825l.459-.884C4.487.322 5.028 0 5.484 0h4.977c.456 0 .997.322 1.2.716l.46.884h1.659c.23 0 .414.18.414.4zM10.64 3.95c0-.217-.198-.394-.445-.394-.245 0-.444.177-.444.395v9.876c0 .218.2.395.444.395.247 0 .445-.177.445-.395V3.951zm-4.445 0c0-.217-.198-.394-.444-.394-.245 0-.444.177-.444.395v9.876c0 .218.199.395.444.395.246 0 .444-.177.444-.395V3.951zm2.223 9.877c0 .218-.199.395-.445.395-.245 0-.444-.177-.444-.395V3.951c0-.218.199-.395.444-.395.246 0 .445.177.445.395v9.876z" fill-rule="evenodd"/></svg>