<svg width="24" height="24" viewBox="0 0 24 24" xmlns="http://www.w3.org/2000/svg"><title>trash</title><path d="M11.167 19.714V6c0-.474.373-.857.833-.857.46 0 .833.383.833.857v13.714a.845.845 0 0 1-.833.857.845.845 0 0 1-.833-.857zm3.335-.053l.833-13.714a.848.848 0 0 1 .883-.802c.46.029.81.436.78.908l-.833 13.714a.843.843 0 0 1-.83.804l-.054-.001a.848.848 0 0 1-.78-.909zm-6.667.106L7.002 6.053a.848.848 0 0 1 .78-.908.839.839 0 0 1 .883.802l.833 13.714c.03.472-.32.88-.78.909l-.052.001a.843.843 0 0 1-.831-.804zm9.21 1.938l-.045.076v.076a.931.931 0 0 1-.15.429H7.207c-.097-.105-.203-.317-.206-.429v-.076l-.007-.076-1.505-17.42H18.59l-1.544 17.42zM9.5 1.715h5c.438 0 .708.014 1.21.856H8.29c.502-.842.772-.857 1.21-.857zm11.667.856H18.11L17 .857C16.69.38 16.167 0 15.333 0H8.667C7.833 0 7.309.38 7 .857L5.89 2.571H2.832A.845.845 0 0 0 2 3.43c0 .474.373.857.833.857h.982l1.518 17.571c0 .946.799 2.143 1.72 2.143h9.999c.92 0 1.615-1.197 1.615-2.143l1.518-17.571h.982c.46 0 .833-.383.833-.857a.845.845 0 0 0-.833-.858z" fill-rule="evenodd"/></svg>