<svg width="28" height="28" viewBox="0 0 28 28" xmlns="http://www.w3.org/2000/svg"><title>tune</title><path d="M16 22h8.998a.999.999 0 1 1 0 2H16v1.01c0 .546-.444.99-1 .99a1 1 0 0 1-1-.99v-4.02c0-.546.444-.99 1-.99a1 1 0 0 1 1 .99V22zm-6-9H2.998A.999.999 0 0 0 2 14c0 .556.447 1 .998 1H10v1.01a1 1 0 0 0 1 .99c.556 0 1-.444 1-.99v-4.02a1 1 0 0 0-1-.99c-.556 0-1 .444-1 .99V13zm10-9h5.003c.55 0 .997.444.997 1 0 .552-.453 1-.997 1H20v1.01c0 .546-.444.99-1 .99a1 1 0 0 1-1-.99V2.99c0-.546.444-.99 1-.99a1 1 0 0 1 1 .99V4zM2 23c0-.552.456-1 .995-1h8.01c.55 0 .995.444.995 1 0 .552-.456 1-.995 1h-8.01A.995.995 0 0 1 2 23zm12-9c0-.552.456-1 1.002-1h9.996a.999.999 0 1 1 0 2h-9.996A.999.999 0 0 1 14 14zM2 5c0-.552.45-1 1.007-1h11.986C15.55 4 16 4.444 16 5c0 .552-.45 1-1.007 1H3.007A1.001 1.001 0 0 1 2 5z" fill-rule="evenodd"/></svg>