<svg width="16" height="16" viewBox="0 0 16 16" xmlns="http://www.w3.org/2000/svg"><title>tune--small</title><path d="M3.625 7.563H1.437a.437.437 0 1 0 0 .875h2.188v1.458a.437.437 0 0 0 .875 0V6.104a.437.437 0 1 0-.875 0v1.458zm2.625 4.812h8.313a.437.437 0 1 1 0 .875H6.25v1.313a.437.437 0 1 1-.875 0V10.77a.438.438 0 0 1 .875 0v1.604zm4.375-9.625h3.938a.437.437 0 1 1 0 .875h-3.938v1.604a.437.437 0 1 1-.875 0V1.437a.437.437 0 1 1 .875 0V2.75zm-9.188 0h7a.437.437 0 1 1 0 .875h-7a.437.437 0 1 1 0-.875zm4.375 4.813h8.75a.437.437 0 1 1 0 .875h-8.75a.437.437 0 1 1 0-.876zm-4.375 4.812h2.625a.437.437 0 1 1 0 .875H1.438a.437.437 0 1 1 0-.875z" fill-rule="evenodd"/></svg>