<svg width="20" height="20" viewBox="0 0 20 20" xmlns="http://www.w3.org/2000/svg"><title>tune--small</title><path d="M5 9.5H1.498A.494.494 0 0 0 1 10c0 .268.223.5.498.5H5v1.674c0 .264.224.493.5.493.268 0 .5-.22.5-.493V7.826a.502.502 0 0 0-.5-.493c-.268 0-.5.22-.5.493V9.5zM9 16h9.499c.277 0 .501.232.501.5 0 .276-.23.5-.501.5H9v1.508a.501.501 0 0 1-.5.492c-.276 0-.5-.23-.5-.492v-4.35c0-.271.232-.491.5-.491.276 0 .5.229.5.492V16zm5-13h4.509a.5.5 0 0 1 0 1H14v1.841a.501.501 0 0 1-.5.492c-.276 0-.5-.229-.5-.492V1.492c0-.272.232-.492.5-.492.276 0 .5.23.5.492V3zM1 3.5c0-.276.228-.5.51-.5h8.98a.51.51 0 0 1 .51.5c0 .276-.228.5-.51.5H1.51A.51.51 0 0 1 1 3.5zM8 10c0-.276.23-.5.501-.5H18.5c.277 0 .501.232.501.5 0 .276-.23.5-.501.5H8.5A.506.506 0 0 1 8 10zm-7 6.5c0-.276.215-.5.498-.5h4.004c.275 0 .498.232.498.5 0 .276-.215.5-.498.5H1.498A.504.504 0 0 1 1 16.5z" fill-rule="evenodd"/></svg>