<svg width="160" height="160" viewBox="0 0 160 160" xmlns="http://www.w3.org/2000/svg"><title>Web-xxxlarge</title><path d="M106 56c0-3.316-2.684-6-6-6H86V36c0-3.316-2.684-6-6-6s-6 2.684-6 6v14H60c-3.316 0-6 2.684-6 6s2.684 6 6 6h14v14c0 3.316 2.684 6 6 6s6-2.684 6-6V62h14c3.316 0 6-2.684 6-6m34-24v48c0 6.625-5.375 12-12 12H56c-12 0-12 12-24 12-6 0-12-5.375-12-12V32c0-6.633 5.371-12 12-12h96c6.625 0 12 5.367 12 12m-96 96c0 6.625-5.375 12-12 12-6.629 0-12-5.375-12-12 0-6.633 5.371-12 12-12 6.625 0 12 5.367 12 12" fill-rule="evenodd"/></svg>