<svg width="24" height="24" viewBox="0 0 24 24" xmlns="http://www.w3.org/2000/svg"><title>wifi</title><path d="M15.789 2c-2.27 0-4.406.887-6.014 2.497l1.132 1.131A6.853 6.853 0 0 1 15.789 3.6c1.818 0 3.525.706 4.843 2.025l.568-.563.527-.604A8.336 8.336 0 0 0 15.789 2zm2.462 5.056l.536-.594.486-.638c-1.979-1.729-5.145-1.707-7.06.049l1.081 1.179c1.333-1.222 3.543-1.232 4.957.004zm1.349 8.206h-16v3.03c0 .976.719 1.77 1.602 1.77h12.796c.883 0 1.602-.794 1.602-1.77v-3.03zm-3.2-1.6h4.8v4.63c0 1.858-1.436 3.37-3.202 3.37H5.202C3.437 21.662 2 20.15 2 18.292v-4.63h12.8v-6h1.6v6zm-11.2 4a1.2 1.2 0 1 1 2.4.001 1.2 1.2 0 0 1-2.4 0z" fill-rule="evenodd"/></svg>