<svg width="16" height="16" viewBox="0 0 16 16" xmlns="http://www.w3.org/2000/svg"><title>wifi--small</title><path d="M14.311 10.592H1.785v2.247c0 .762.602 1.381 1.344 1.381h9.838c.74 0 1.344-.62 1.344-1.38v-2.248zm-2.332-.78h3.117v3.027c0 1.191-.955 2.16-2.129 2.16H3.13C1.955 15 1 14.03 1 12.84V9.813h10.202v-4.79h.777v4.79zM11.605 1A5.882 5.882 0 0 0 7.39 2.769l.555.54a5.113 5.113 0 0 1 3.658-1.536h.001c1.363 0 2.642.535 3.632 1.537l.526-.57A5.8 5.8 0 0 0 11.605 1zM13.51 4.15l.261-.286.23-.314c-1.36-1.204-3.539-1.188-4.853.032l.53.565c1.03-.957 2.737-.965 3.832.003zM2.723 12.406c0-.486.398-.882.888-.882s.887.396.887.882a.885.885 0 0 1-.887.882.885.885 0 0 1-.888-.882z" fill-rule="evenodd"/></svg>