<svg width="18" height="18" viewBox="0 0 18 18" xmlns="http://www.w3.org/2000/svg"><title>wifi--small</title><path d="M16.181 11.94H1.895v2.563c0 .868.687 1.575 1.533 1.575h11.22c.845 0 1.533-.707 1.533-1.575V11.94zm-2.659-.889h3.554v3.452c0 1.358-1.089 2.464-2.427 2.464H3.428C2.089 16.967 1 15.86 1 14.503V11.05h11.635V5.588h.887v5.463zM13.095 1c-1.815 0-3.521.716-4.806 2.017l.632.616a5.831 5.831 0 0 1 4.173-1.752h.001c1.554 0 3.014.611 4.142 1.753l.6-.649A6.615 6.615 0 0 0 13.095 1zm2.172 3.594l.298-.326.262-.358c-1.552-1.373-4.036-1.356-5.536.036l.605.644c1.174-1.09 3.122-1.1 4.37.004zM2.965 14.01a1.01 1.01 0 0 1 1.013-1.006c.558 0 1.012.45 1.012 1.006a1.01 1.01 0 0 1-1.012 1.006 1.01 1.01 0 0 1-1.013-1.006z" fill-rule="evenodd"/></svg>