<?xml version="1.0" encoding="utf-8"?>
<!-- Generator: Adobe Illustrator 16.0.0, SVG Export Plug-In . SVG Version: 6.00 Build 0)  -->
<!DOCTYPE svg PUBLIC "-//W3C//DTD SVG 1.1//EN" "http://www.w3.org/Graphics/SVG/1.1/DTD/svg11.dtd">
<svg version="1.1" xmlns="http://www.w3.org/2000/svg" xmlns:xlink="http://www.w3.org/1999/xlink" x="0px" y="0px" width="24px"
	 height="24px" viewBox="0 0 24 24" enable-background="new 0 0 24 24" xml:space="preserve">
<g id="_x31_6px">
</g>
<g id="_x31_6px-grid" display="none">
</g>
<g id="_x32_4px">
	<path d="M12,2C6.477,2,2,6.478,2,12s4.477,10,10,10s10-4.478,10-10S17.523,2,12,2z M16.367,16.238
		c-0.352,0.352-0.992,0.422-1.344,0.07l-2.995-2.995l-2.888,2.888c-0.352,0.352-0.992,0.281-1.344-0.07s-0.422-0.992-0.071-1.343
		l2.889-2.889L7.811,9.096C7.46,8.745,7.53,8.105,7.882,7.753c0.352-0.352,0.992-0.423,1.344-0.07l2.803,2.803l2.91-2.91
		c0.352-0.352,0.992-0.281,1.344,0.07s0.422,0.992,0.07,1.344l-2.91,2.91l2.995,2.995C16.79,15.246,16.719,15.887,16.367,16.238z"/>
</g>
<g id="_x32_4px-grid" display="none">
	<path display="inline" fill="none" stroke="#FF33FF" stroke-width="0.075" stroke-miterlimit="10" d="M22,12
		c0,5.522-4.473,10-10,10S2,17.522,2,12S6.473,2,12,2S22,6.478,22,12z"/>
	<circle display="inline" fill="none" stroke="#FF33FF" stroke-width="0.075" stroke-miterlimit="10" cx="12" cy="12" r="5"/>
	<line display="inline" fill="none" stroke="#FF33FF" stroke-miterlimit="10" x1="4.312" y1="22.5" x2="4.312" y2="22.5"/>
	<line display="inline" fill="none" stroke="#FF33FF" stroke-width="0.075" stroke-miterlimit="10" x1="24" y1="0" x2="0" y2="24"/>
	<line display="inline" fill="none" stroke="#FF33FF" stroke-width="0.075" stroke-miterlimit="10" x1="0" y1="0" x2="24" y2="24"/>
</g>
<g id="_x34_8px">
</g>
<g id="_x34_8px-grid" display="none">
</g>
<g id="_x31_60px">
</g>
<g id="_x31_60px-grid" display="none">
</g>
</svg>
