<?xml version="1.0" encoding="utf-8"?>
<!-- Generator: Adobe Illustrator 16.0.0, SVG Export Plug-In . SVG Version: 6.00 Build 0)  -->
<!DOCTYPE svg PUBLIC "-//W3C//DTD SVG 1.1//EN" "http://www.w3.org/Graphics/SVG/1.1/DTD/svg11.dtd">
<svg version="1.1" xmlns="http://www.w3.org/2000/svg" xmlns:xlink="http://www.w3.org/1999/xlink" x="0px" y="0px" width="24px"
	 height="24px" viewBox="0 0 24 24" enable-background="new 0 0 24 24" xml:space="preserve">
<g id="_x31_6px">
</g>
<g id="_x31_6px-grid" display="none">
</g>
<g id="_x32_4px">
	<g>
		<path d="M21.417,2.583c-0.78-0.779-2.06-0.777-2.84,0.002l-0.236,0.237c-0.392,0.392-0.392,1.026,0,1.419l1.418,1.418
			c0.392,0.391,1.026,0.391,1.419,0l0.236-0.236C22.194,4.644,22.196,3.363,21.417,2.583z"/>
		<path d="M16.994,5.588c-0.392-0.392-1.026-0.392-1.418,0l-9.928,9.929c-0.393,0.392-0.393,1.027,0,1.419l1.418,1.417
			c0.392,0.393,1.027,0.393,1.418,0l9.929-9.928c0.392-0.393,0.392-1.027,0-1.419L16.994,5.588z"/>
		<path d="M4.242,18.226c-0.392-0.393-1.026-0.393-1.418,0c-0.354,0.354-0.775,2.791-0.819,3.102c0,0-0.049,0.285,0.167,0.501
			c0.217,0.216,0.501,0.167,0.501,0.167c0.289-0.04,2.632-0.578,2.987-0.934c0.391-0.392,0.391-1.027,0-1.418L4.242,18.226z"/>
	</g>
</g>
<g id="_x32_4px-grid" display="none">
	<path display="inline" fill="none" stroke="#FF33FF" stroke-width="0.075" stroke-miterlimit="10" d="M22,12
		c0,5.522-4.473,10-10,10S2,17.522,2,12S6.473,2,12,2S22,6.478,22,12z"/>
	<circle display="inline" fill="none" stroke="#FF33FF" stroke-width="0.075" stroke-miterlimit="10" cx="12" cy="12" r="5"/>
	<line display="inline" fill="none" stroke="#FF33FF" stroke-miterlimit="10" x1="4.562" y1="22.75" x2="4.562" y2="22.75"/>
	<line display="inline" fill="none" stroke="#FF33FF" stroke-width="0.075" stroke-miterlimit="10" x1="24" y1="24" x2="0" y2="0"/>
	<line display="inline" fill="none" stroke="#FF33FF" stroke-width="0.075" stroke-miterlimit="10" x1="0" y1="24" x2="24" y2="0"/>
</g>
<g id="_x33_6px">
</g>
<g id="_x33_6px-grid" display="none">
</g>
<g id="_x34_8px">
</g>
<g id="_x34_8px-grid" display="none">
</g>
<g id="_x37_2px">
</g>
<g id="_x37_2px-grid" display="none">
</g>
<g id="_x31_60px">
</g>
<g id="_x31_60px-grid" display="none">
</g>
</svg>
