<?xml version="1.0" encoding="utf-8"?>
<!-- Generator: Adobe Illustrator 16.0.0, SVG Export Plug-In . SVG Version: 6.00 Build 0)  -->
<!DOCTYPE svg PUBLIC "-//W3C//DTD SVG 1.1//EN" "http://www.w3.org/Graphics/SVG/1.1/DTD/svg11.dtd">
<svg version="1.1" id="Layer_1" xmlns="http://www.w3.org/2000/svg" xmlns:xlink="http://www.w3.org/1999/xlink" x="0px" y="0px"
	 width="24px" height="24px" viewBox="0 0 24 24" enable-background="new 0 0 24 24" xml:space="preserve">
<g id="_x31_6px">
</g>
<g id="_x31_6px-grid">
</g>
<g id="_x32_4px">
	<path d="M22,11c-0.044-0.097-2.585-4.236-2.585-4.236c-0.683-0.868-1.942-1.02-2.812-0.335C15.734,7.111,15.582,8.133,16.266,9
		L17,10H7c-0.552,0-1-0.447-1-1V7c0-0.553,0.448-1,1-1h3c1.104,0,2-0.896,2-2s-0.896-2-2-2H4.236C3.006,2,2,3.006,2,4.236v15.528
		C2,20.994,3.006,22,4.236,22H10c1.104,0,2-0.896,2-2s-0.896-2-2-2H7c-0.552,0-1-0.447-1-1v-2c0-0.553,0.448-1,1-1h10l-0.734,1
		c-0.684,0.867-0.531,1.889,0.336,2.57c0.871,0.686,2.131,0.533,2.812-0.334L22,13C22.484,12.385,22.342,11.586,22,11z"/>
</g>
<g id="_x33_6px">
</g>
<g id="_x33_6px-grid">
</g>
<g id="_x34_8px">
</g>
<g id="_x34_8px-grid">
</g>
<g id="_x37_2px">
</g>
<g id="_x37_2px-grid">
</g>
<g id="_x31_60px">
</g>
<g id="_x31_60px-grid">
</g>
</svg>
