<?xml version="1.0" encoding="utf-8"?>
<!-- Generator: Adobe Illustrator 16.0.0, SVG Export Plug-In . SVG Version: 6.00 Build 0)  -->
<!DOCTYPE svg PUBLIC "-//W3C//DTD SVG 1.1//EN" "http://www.w3.org/Graphics/SVG/1.1/DTD/svg11.dtd">
<svg version="1.1" id="Layer_1" xmlns="http://www.w3.org/2000/svg" xmlns:xlink="http://www.w3.org/1999/xlink" x="0px" y="0px"
	 width="300px" height="300px" viewBox="0 0 300 300" enable-background="new 0 0 300 300" xml:space="preserve">
<path fill-rule="evenodd" clip-rule="evenodd" d="M102.274,105.204c18.087,0,32.75-14.663,32.75-32.752
	c0-18.087-14.663-32.75-32.75-32.75c-18.089,0-32.75,14.663-32.75,32.75C69.524,90.541,84.186,105.204,102.274,105.204
	 M224.929,137.175c18.09,0,32.753-14.663,32.753-32.75c0-18.089-14.663-32.75-32.753-32.75c-18.086,0-32.75,14.661-32.75,32.75
	C192.179,122.512,206.843,137.175,224.929,137.175 M246.72,146.385c-12.277,0-22.231,9.953-22.231,22.231
	c0,12.279,9.954,22.231,22.231,22.231c12.278,0,22.231-9.952,22.231-22.231C268.951,156.338,258.998,146.385,246.72,146.385
	 M55.231,149.8c12.279,0,22.231-9.952,22.231-22.231c0-12.276-9.953-22.229-22.231-22.229S33,115.292,33,127.568
	C33,139.848,42.953,149.8,55.231,149.8 M55.231,166.957C42.953,166.957,33,176.91,33,189.188c0,12.279,9.953,22.231,22.231,22.231
	s22.231-9.952,22.231-22.231C77.463,176.91,67.51,166.957,55.231,166.957 M166.262,222.763c-12.279,0-22.231,9.953-22.231,22.231
	c0,12.279,9.952,22.231,22.231,22.231s22.231-9.952,22.231-22.231C188.493,232.716,178.541,222.763,166.262,222.763
	 M222.067,200.093c-12.279,0-22.231,9.952-22.231,22.231c0,12.276,9.952,22.231,22.231,22.231c12.278,0,22.231-9.955,22.231-22.231
	C244.299,210.045,234.346,200.093,222.067,200.093 M178.469,158.819c-12.278,0-22.23,9.952-22.23,22.231
	c0,12.278,9.952,22.23,22.23,22.23c12.279,0,22.232-9.952,22.232-22.23C200.701,168.771,190.748,158.819,178.469,158.819
	 M170.33,79.463c12.277,0,22.232-9.953,22.232-22.231S182.607,35,170.33,35c-12.278,0-22.23,9.953-22.23,22.231
	S158.052,79.463,170.33,79.463 M103.479,205.21c-14.588,0-26.413,11.827-26.413,26.415c0,14.587,11.825,26.414,26.413,26.414
	s26.415-11.827,26.415-26.414C129.894,217.037,118.067,205.21,103.479,205.21 M113.363,134.291
	c-14.59,0-26.415,11.825-26.415,26.413s11.825,26.415,26.415,26.415c14.588,0,26.413-11.827,26.413-26.415
	S127.951,134.291,113.363,134.291 M158.123,139.338c-12.279,0-22.231-9.953-22.231-22.231c0-12.277,9.953-22.231,22.231-22.231
	c12.279,0,22.231,9.955,22.231,22.231C180.354,129.385,170.402,139.338,158.123,139.338"/>
</svg>
