<?xml version="1.0" encoding="utf-8"?>
<!-- Generator: Adobe Illustrator 16.0.0, SVG Export Plug-In . SVG Version: 6.00 Build 0)  -->
<!DOCTYPE svg PUBLIC "-//W3C//DTD SVG 1.1//EN" "http://www.w3.org/Graphics/SVG/1.1/DTD/svg11.dtd">
<svg version="1.1" xmlns="http://www.w3.org/2000/svg" xmlns:xlink="http://www.w3.org/1999/xlink" x="0px" y="0px" width="24px"
	 height="24px" viewBox="0 0 24 24" enable-background="new 0 0 24 24" xml:space="preserve">
<g id="_x31_6px">
</g>
<g id="_x31_6px-grid">
</g>
<g id="_x32_4px">
	<path d="M17.029,2C15.113,2,13.2,2.973,12,4.42C10.8,2.973,9.044,2,7.129,2C3.754,2,1,4.742,1,8.291
		c0,4.676,2.1,6.326,7.912,11.793l1.475,1.432C10.735,21.845,11.45,22,11.892,22c0.44,0,1.134-0.158,1.48-0.484l1.613-1.451
		C20.781,14.602,23,13.121,23,8.451C23,4.742,20.403,2,17.029,2z"/>
</g>
<g id="_x32_4px-grid">
	<path fill="none" stroke="#FF33FF" stroke-width="0.075" stroke-miterlimit="10" d="M22,12c0,5.522-4.473,10-10,10S2,17.522,2,12
		S6.473,2,12,2S22,6.478,22,12z"/>
	<circle fill="none" stroke="#FF33FF" stroke-width="0.075" stroke-miterlimit="10" cx="12" cy="12" r="5"/>
	<line fill="none" stroke="#FF33FF" stroke-miterlimit="10" x1="4.562" y1="22.75" x2="4.562" y2="22.75"/>
	<line fill="none" stroke="#FF33FF" stroke-width="0.075" stroke-miterlimit="10" x1="24" y1="24" x2="0" y2="0"/>
	<line fill="none" stroke="#FF33FF" stroke-width="0.075" stroke-miterlimit="10" x1="0" y1="24" x2="24" y2="0"/>
</g>
<g id="_x33_6px">
</g>
<g id="_x33_6px-grid">
</g>
<g id="_x34_8px">
</g>
<g id="_x34_8px-grid">
</g>
<g id="_x37_2px">
</g>
<g id="_x37_2px-grid">
</g>
<g id="_x31_60px">
</g>
<g id="_x31_60px-grid">
</g>
</svg>
