<?xml version="1.0" encoding="utf-8"?>
<!-- Generator: Adobe Illustrator 16.0.0, SVG Export Plug-In . SVG Version: 6.00 Build 0)  -->
<!DOCTYPE svg PUBLIC "-//W3C//DTD SVG 1.1//EN" "http://www.w3.org/Graphics/SVG/1.1/DTD/svg11.dtd">
<svg version="1.1" xmlns="http://www.w3.org/2000/svg" xmlns:xlink="http://www.w3.org/1999/xlink" x="0px" y="0px" width="24px"
	 height="24px" viewBox="0 0 24 24" enable-background="new 0 0 24 24" xml:space="preserve">
<g id="_x31_6px">
</g>
<g id="_x31_6px-grid" display="none">
</g>
<g id="_x32_4px">
	<path d="M12,1C7.858,1,4.5,4.333,4.5,8.5c0,3.896,4.281,11.562,5.781,13.562c0,0,0.609,0.938,1.719,0.938s1.75-0.984,1.75-0.984
		c1.5-2,5.75-9.749,5.75-13.516C19.5,4.333,16.142,1,12,1z M12,12c-1.933,0-3.5-1.568-3.5-3.5C8.5,6.567,10.067,5,12,5
		s3.5,1.567,3.5,3.5C15.5,10.432,13.933,12,12,12z"/>
</g>
<g id="_x32_4px-grid" display="none">
	<path display="inline" fill="none" stroke="#FF33FF" stroke-width="0.075" stroke-miterlimit="10" d="M22,12
		c0,5.522-4.473,10-10,10S2,17.522,2,12S6.473,2,12,2S22,6.478,22,12z"/>
	<circle display="inline" fill="none" stroke="#FF33FF" stroke-width="0.075" stroke-miterlimit="10" cx="12" cy="12" r="5"/>
	<line display="inline" fill="none" stroke="#FF33FF" stroke-miterlimit="10" x1="4.562" y1="22.75" x2="4.562" y2="22.75"/>
	<line display="inline" fill="none" stroke="#FF33FF" stroke-width="0.075" stroke-miterlimit="10" x1="24" y1="24" x2="0" y2="0"/>
	<line display="inline" fill="none" stroke="#FF33FF" stroke-width="0.075" stroke-miterlimit="10" x1="0" y1="24" x2="24" y2="0"/>
</g>
<g id="_x33_6px">
</g>
<g id="_x33_6px-grid" display="none">
</g>
<g id="_x34_8px">
</g>
<g id="_x34_8px-grid" display="none">
</g>
<g id="_x37_2px">
</g>
<g id="_x37_2px-grid" display="none">
</g>
<g id="_x31_60px">
</g>
<g id="_x31_60px-grid" display="none">
</g>
</svg>
