<?xml version="1.0" encoding="utf-8"?>
<!-- Generator: Adobe Illustrator 16.0.0, SVG Export Plug-In . SVG Version: 6.00 Build 0)  -->
<!DOCTYPE svg PUBLIC "-//W3C//DTD SVG 1.1//EN" "http://www.w3.org/Graphics/SVG/1.1/DTD/svg11.dtd">
<svg version="1.1" id="Layer_1" xmlns="http://www.w3.org/2000/svg" xmlns:xlink="http://www.w3.org/1999/xlink" x="0px" y="0px"
	 width="300px" height="300px" viewBox="0 0 300 300" enable-background="new 0 0 300 300" xml:space="preserve">
<path d="M39.496,240.6c12.259,0,22.231,9.975,22.231,22.231s-9.972,22.231-22.231,22.231c-12.259,0-22.231-9.976-22.231-22.231
	C17.265,250.573,27.237,240.6,39.496,240.6 M213.579,87.013c7.567,0,13.706-6.417,13.706-13.987c0-7.571-6.139-13.988-13.706-13.988
	H87.447c-7.568,0-13.706,6.417-13.706,13.988c0,7.57,6.137,13.987,13.706,13.987H213.579 M213.579,147.267
	c7.567,0,13.706-6.417,13.706-13.987c0-7.57-6.139-13.987-13.706-13.987H87.447c-7.568,0-13.706,6.417-13.706,13.987
	c0,7.57,6.137,13.987,13.706,13.987H213.579 M261.062,16c12.498,0,22.774,9.369,22.774,21.868v129.511
	c0,12.498-10.276,22.926-22.774,22.926h-138.34c-18.046,0-35.515,7.432-47.161,21.219C69.49,218.711,60.412,223.2,50.263,223.2
	c-18.255,0-33.056-13.527-33.092-32.896H17V37.868C17,25.369,27.299,16,39.795,16H261.062"/>
</svg>
