<?xml version="1.0" encoding="utf-8"?>
<!DOCTYPE svg PUBLIC "-//W3C//DTD SVG 1.1//EN" "http://www.w3.org/Graphics/SVG/1.1/DTD/svg11.dtd">
<svg version="1.1" id="Layer_1" xmlns="http://www.w3.org/2000/svg" xmlns:xlink="http://www.w3.org/1999/xlink" x="0px" y="0px"
width="300px" height="300px" viewBox="0 0 300 300" enable-background="new 0 0 300 300" xml:space="preserve">
<path d="M266.406,210.645c0,14.521-11.318,24.65-24.363,24.65H58.515C45.47,235.295,34,223.959,34,210.916
c0-13.994,9.946-23.768,22.158-24.975c8.821-0.873,16.576-7.859,16.576-16.724v-61.181c0-33.628,22.404-62.208,52.823-71.289
c1.779-0.532,3.126-2.214,3.126-4.074C128.684,18.583,137.851,9,150.203,9c16.678,0,23.672,10.39,23.672,23.675
c0,1.859,1.346,3.542,3.129,4.074c30.417,9.081,52.82,37.661,52.82,71.289v61.181c0,8.863,6.68,15.852,15.5,16.723
C257.539,187.148,266.406,196.384,266.406,210.645 M150.203,248.066c-12.259,0-22.231,9.975-22.231,22.23
c0,12.26,9.972,22.23,22.231,22.23c12.26,0,22.23-9.971,22.23-22.23C172.436,258.041,162.463,248.066,150.203,248.066"/>
</svg>
