<svg width="24" height="24" viewBox="0 0 24 24">
  <path fill-rule="evenodd" d="M20,10.9999 L6.117,10.9999 L10.531,5.6349 C10.881,5.2089 10.82,4.5789 10.394,4.2279 C9.968,3.8769 9.337,3.9379 8.986,4.3649 L3.228,11.3649 C3.189,11.4119 3.17,11.4669 3.141,11.5179 C3.118,11.5589 3.09,11.5949 3.073,11.6389 C3.029,11.7509 3.004,11.8689 3.002,11.9869 C3.002,11.9919 3,11.9959 3,11.9999 L3,12.0009 C3,12.1249 3.028,12.2459 3.073,12.3629 C3.091,12.4069 3.119,12.4419 3.142,12.4829 C3.171,12.5359 3.191,12.5919 3.231,12.6389 L9.049,19.6389 C9.247,19.8769 9.532,19.9999 9.819,19.9999 C10.044,19.9999 10.271,19.9239 10.458,19.7689 C10.882,19.4159 10.94,18.7859 10.587,18.3609 L6.131,12.9999 L20,12.9999 C20.552,12.9999 21,12.5519 21,11.9999 C21,11.4479 20.552,10.9999 20,10.9999" transform="matrix(-1 0 0 1 24 0)"/>
</svg>
