<?xml version="1.0" encoding="UTF-8"?>
<svg width="28px" height="28px" viewBox="0 0 28 28" version="1.1" xmlns="http://www.w3.org/2000/svg" xmlns:xlink="http://www.w3.org/1999/xlink">
    <!-- Generator: sketchtool 46.2 (44496) - http://www.bohemiancoding.com/sketch -->
    <title>audio</title>
    <desc>Created with sketchtool.</desc>
    <defs></defs>
    <g id="Web" stroke="none" stroke-width="1" fill="none" fill-rule="evenodd">
        <g id="audio" fill="#000000">
            <path d="M16.0692284,18.3468688 C17.8566698,15.629718 17.8396751,12.1348101 16.0262418,9.44165173 C15.7173383,8.98379481 15.0965323,8.86383229 14.6386754,9.17073639 C14.1808185,9.47963985 14.0598563,10.1004459 14.3677601,10.5583028 C15.7303343,12.5806708 15.7423305,15.2058504 14.3987504,17.2472125 C14.0948454,17.7080685 14.2228054,18.3278748 14.684661,18.6317798 C14.8536082,18.7437448 15.0445486,18.7967283 15.2334895,18.7967283 C15.558388,18.7967283 15.8772883,18.6387776 16.0692284,18.3468688 L16.0692284,18.3468688 Z M19.1502655,19.8953849 L19.2972196,19.4295305 C19.7860669,17.8820141 20.3948766,15.9556161 20.3948766,13.9472437 C20.3948766,11.9258754 19.7880662,9.93749677 19.299219,8.33899631 L19.1702593,7.9121297 C19.0103093,7.38229528 18.4524836,7.08538806 17.9236489,7.24433839 C17.3948141,7.40328871 17.0959075,7.96111439 17.2558575,8.48994913 L17.3878163,8.92381355 C17.8606685,10.4703303 18.3955014,12.2237823 18.3955014,13.9472437 C18.3955014,15.6477123 17.8616682,17.3361847 17.3908154,18.8267189 L17.2418619,19.2995711 C17.0769135,19.8264065 17.3708216,20.3872312 17.8986567,20.5521797 C17.9976257,20.5821703 18.0975945,20.5971656 18.1965636,20.5971656 C18.6224305,20.5971656 19.0173071,20.3232512 19.1502655,19.8953849 L19.1502655,19.8953849 Z M20.7287723,22.0757036 C25.0904092,17.3651756 25.0904092,11.0331544 20.7287723,6.32162673 C20.35189,5.91475388 19.7210872,5.89076138 19.3162137,6.2676436 C18.9113402,6.64252645 18.886348,7.2753287 19.2612309,7.68020218 C22.928085,11.6399648 22.928085,16.7573656 19.2612309,20.7171281 C18.886348,21.1220016 18.9113402,21.7548039 19.3162137,22.1296867 C19.5081537,22.3086308 19.7520775,22.3966033 19.9950016,22.3966033 C20.2639175,22.3966033 20.5318338,22.288637 20.7287723,22.0757036 L20.7287723,22.0757036 Z M5.9993752,14.7979779 L8.1187129,14.7979779 C8.34864105,14.7979779 8.57157138,14.8769532 8.74951578,15.0219079 L11.7975633,17.4971344 L11.7975633,10.3003834 L8.74951578,12.7756099 C8.57157138,12.9195649 8.34864105,12.9985402 8.1187129,12.9985402 L5.9993752,12.9985402 L5.9993752,14.7979779 Z M12.7972509,20.5971656 C12.5723211,20.5971656 12.3483911,20.5211894 12.1674477,20.3732356 L7.76382381,16.7973531 L4.9996876,16.7973531 C4.44786004,16.7973531 4,16.3504927 4,15.7976655 L4,11.9988526 C4,11.447025 4.44786004,10.999165 4.9996876,10.999165 L7.76382381,10.999165 L12.1674477,7.42428215 C12.4663543,7.18135807 12.8802249,7.13337306 13.2271165,7.29732183 C13.5750078,7.46326997 13.7969385,7.81516 13.7969385,8.20103942 L13.7969385,19.597478 C13.7969385,19.9833574 13.5750078,20.3342478 13.2271165,20.5001959 C13.0901593,20.5651756 12.9432052,20.5971656 12.7972509,20.5971656 L12.7972509,20.5971656 Z" id="Fill-1"></path>
        </g>
    </g>
</svg>