<svg width="24" height="24" viewBox="0 0 24 24">
  <path fill-rule="evenodd" d="M19,18 C19,18.552 18.552,19 18,19 L6,19 C5.448,19 5,18.552 5,18 L5,9 L19,9 L19,18 Z M18,3 C19.657,3 21,4.343 21,6 L21,18 C21,19.657 19.657,21 18,21 L6,21 C4.343,21 3,19.657 3,18 L3,8.833 L3,6 C3,4.343 4.343,3 6,3 L18,3 Z M10,15 C9.447,15 9,15.447 9,16 C9,16.553 9.447,17 10,17 L14,17 C14.553,17 15,16.553 15,16 C15,15.447 14.553,15 14,15 L13,15 L13,12 C13,11.447 12.553,11 12,11 L10,11 C9.447,11 9,11.447 9,12 C9,12.553 9.447,13 10,13 L11,13 L11,15 L10,15 Z"/>
</svg>
