<svg width="28" height="28" viewBox="0 0 28 28">
  <path fill-rule="evenodd" d="M24,6 C24,4.897 23.103,4 22,4 L6,4 C4.897,4 4,4.897 4,6 L4,8 L24,8 L24,6 Z M24,10 L4,10 L4,22 C4,23.103 4.897,24 6,24 L22,24 C23.103,24 24,23.103 24,22 L24,10 Z M26,6 L26,8 L26,10 L26,22 C26,24.209 24.209,26 22,26 L6,26 C3.791,26 2,24.209 2,22 L2,10 L2,8 L2,6 C2,3.791 3.791,2 6,2 L22,2 C24.209,2 26,3.791 26,6 L26,6 Z M13,19 L13,15 L12,15 C11.447,15 11,14.553 11,14 C11,13.447 11.447,13 12,13 L14,13 C14.553,13 15,13.447 15,14 L15,19 L16,19 C16.553,19 17,19.447 17,20 C17,20.553 16.553,21 16,21 L12,21 C11.447,21 11,20.553 11,20 C11,19.447 11.447,19 12,19 L13,19 Z"/>
</svg>
