<svg width="24" height="24" viewBox="0 0 24 24">
  <path fill-rule="evenodd" d="M14,12 C14,13.104 13.105,14 12,14 C10.895,14 10,13.104 10,12 C10,10.896 10.895,10 12,10 C13.105,10 14,10.896 14,12 Z M23,6 L23,19 C23,20.1 22.1,21 21,21 L3,21 C1.9,21 1,20.1 1,19 L1,6 C1,4.896 1.895,4 3,4 L3,4 L5,4 C5.552,4 6,3.553 6,3 C6,1.896 6.895,1 8,1 L16,1 C17.104,1 18,1.896 18,3 C18,3.553 18.448,4 19,4 L21,4 C22.104,4 23,4.896 23,6 Z M12,17 C14.762,17 17,14.762 17,12 C17,9.238 14.762,7 12,7 C9.238,7 7,9.238 7,12 C7,14.762 9.238,17 12,17 Z"/>
</svg>
