<?xml version="1.0" encoding="utf-8"?>
<!-- Generator: Adobe Illustrator 16.0.0, SVG Export Plug-In . SVG Version: 6.00 Build 0)  -->
<!DOCTYPE svg PUBLIC "-//W3C//DTD SVG 1.1//EN" "http://www.w3.org/Graphics/SVG/1.1/DTD/svg11.dtd">
<svg version="1.1" xmlns="http://www.w3.org/2000/svg" xmlns:xlink="http://www.w3.org/1999/xlink" x="0px" y="0px" width="24px"
	 height="24px" viewBox="0 0 24 24" enable-background="new 0 0 24 24" xml:space="preserve">
<g id="_x31_6px">
</g>
<g id="_x31_6px-grid" display="none">
</g>
<g id="_x32_4px">
	<path d="M10.286,18.737L21.228,7.44c0.877-0.69,1.03-1.96,0.338-2.84c-0.69-0.877-2.044-1.029-2.921-0.338l-9.776,9.77
		l-3.681-3.626c-0.887-0.679-2.113-0.511-2.792,0.376C2.115,11.149,2,11.581,2,12.01c0,0.608,0.283,1.208,0.803,1.607l4.999,5.137
		C8.536,19.316,9.56,19.309,10.286,18.737z"/>
</g>
<g id="_x32_4px-grid" display="none">
	<path display="inline" fill="none" stroke="#FF33FF" stroke-width="0.075" stroke-miterlimit="10" d="M22,12
		c0,5.522-4.473,10-10,10S2,17.522,2,12S6.473,2,12,2S22,6.478,22,12z"/>
	<circle display="inline" fill="none" stroke="#FF33FF" stroke-width="0.075" stroke-miterlimit="10" cx="12" cy="12" r="5"/>
	<line display="inline" fill="none" stroke="#FF33FF" stroke-miterlimit="10" x1="4.562" y1="22.75" x2="4.562" y2="22.75"/>
	<line display="inline" fill="none" stroke="#FF33FF" stroke-width="0.075" stroke-miterlimit="10" x1="24" y1="24" x2="0" y2="0"/>
	<line display="inline" fill="none" stroke="#FF33FF" stroke-width="0.075" stroke-miterlimit="10" x1="0" y1="24" x2="24" y2="0"/>
</g>
<g id="_x33_6px">
</g>
<g id="_x33_6px-grid" display="none">
</g>
<g id="_x34_8px">
</g>
<g id="_x34_8px-grid" display="none">
</g>
<g id="_x37_2px">
</g>
<g id="_x37_2px-grid" display="none">
</g>
<g id="_x31_60px">
</g>
<g id="_x31_60px-grid" display="none">
</g>
</svg>
