<svg width="24" height="24" viewBox="0 0 24 24">
  <path fill-rule="evenodd" d="M12,19 C8.141,19 5,15.859 5,12 C5,8.141 8.141,5 12,5 C15.859,5 19,8.141 19,12 C19,15.859 15.859,19 12,19 M12,3 C7.029,3 3,7.029 3,12 C3,16.971 7.029,21 12,21 C16.971,21 21,16.971 21,12 C21,7.029 16.971,3 12,3 M13.7259235,15.9309308 C13.5290488,16.1278055 13.2601226,16.2355091 12.9831757,16.228195 L9.44608532,16.1307052 C8.89148453,16.1153699 8.45885301,15.6542058 8.47902846,15.0994501 C8.49849059,14.5454076 8.96345364,14.107315 9.51876155,14.1233575 L11.9636955,14.1901022 L11.6979355,8.52598104 C11.6712368,7.97142983 12.1008378,7.49940181 12.6535155,7.467162 C13.2076075,7.43633642 13.6780385,7.86111528 13.7040301,8.41495937 L14.0225673,15.1675898 C14.0355446,15.4487732 13.9306632,15.7219483 13.7330566,15.9237976 L13.7259235,15.9309308 Z" transform="rotate(45 12 12)"/>
</svg>
