<svg width="24" height="24" viewBox="0 0 24 24">
  <path fill-rule="evenodd" d="M12,19 C8.14,19 5,15.859 5,12 C5,8.141 8.14,5 12,5 C15.86,5 19,8.141 19,12 C19,15.859 15.86,19 12,19 M12,3 C16.971,3 21,7.029 21,12 C21,16.971 16.971,21 12,21 C7.029,21 3,16.971 3,12 C3,7.029 7.029,3 12,3 Z M13,11.586 L13,9 C13,8.447 12.553,8 12,8 C11.447,8 11,8.447 11,9 L11,12 C11,12.266 11.105,12.52 11.293,12.707 L13.293,14.707 C13.488,14.902 13.744,15 14,15 C14.256,15 14.512,14.902 14.707,14.707 C15.098,14.316 15.098,13.684 14.707,13.293 L13,11.586 Z"/>
</svg>
