<svg width="24" height="24" viewBox="0 0 24 24">
  <path fill-rule="evenodd" d="M18.8595,12.511 L15.9035,17.481 C15.7135,17.801 15.3495,18 14.9555,18 L9.0455,18 C8.6505,18 8.2875,17.801 8.0965,17.481 L5.1405,12.51 C4.9535,12.196 4.9535,11.805 5.1405,11.49 L8.0965,6.52 C8.2875,6.199 8.6505,6 9.0455,6 L14.9555,6 C15.3495,6 15.7135,6.199 15.9035,6.519 L18.8595,11.49 C19.0465,11.805 19.0465,12.196 18.8595,12.511 M20.5785,10.468 C21.1405,11.412 21.1405,12.588 20.5785,13.533 L17.6225,18.503 C17.0725,19.427 16.0505,20 14.9555,20 L9.0455,20 C7.9495,20 6.9275,19.427 6.3785,18.504 L6.3785,18.503 L3.4215,13.532 C2.8595,12.588 2.8595,11.412 3.4215,10.467 L6.3785,5.497 C6.9275,4.574 7.9495,4 9.0455,4 L14.9555,4 C16.0505,4 17.0725,4.574 17.6225,5.496 L20.5785,10.468 Z M12.0001,14.0003 C10.8971,14.0003 10.0001,13.1033 10.0001,12.0003 C10.0001,10.8973 10.8971,10.0003 12.0001,10.0003 C13.1031,10.0003 14.0001,10.8973 14.0001,12.0003 C14.0001,13.1033 13.1031,14.0003 12.0001,14.0003 Z M12.0001,8.0003 C9.7941,8.0003 8.0001,9.7943 8.0001,12.0003 C8.0001,14.2063 9.7941,16.0003 12.0001,16.0003 C14.2061,16.0003 16.0001,14.2063 16.0001,12.0003 C16.0001,9.7943 14.2061,8.0003 12.0001,8.0003 Z"/>
</svg>
