<svg width="24" height="24" viewBox="0 0 24 24">
  <path fill-rule="evenodd" d="M4,8 L4,7 C4,6.448 4.448,6 5,6 L19,6 C19.552,6 20,6.448 20,7 L20,8 L4,8 Z M20,17 C20,17.552 19.552,18 19,18 L5,18 C4.448,18 4,17.552 4,17 L4,12 L20,12 L20,17 Z M19,4 C20.657,4 22,5.343 22,7 L22,8 L22,12 L22,17 C22,18.657 20.657,20 19,20 L5,20 C3.343,20 2,18.657 2,17 L2,12 L2,8 L2,7 C2,5.343 3.343,4 5,4 L19,4 Z M7,16 L9,16 C9.553,16 10,15.553 10,15 C10,14.447 9.553,14 9,14 L7,14 C6.447,14 6,14.447 6,15 C6,15.553 6.447,16 7,16 Z"/>
</svg>
