<?xml version="1.0" encoding="utf-8"?>
<!-- Generator: Adobe Illustrator 16.0.0, SVG Export Plug-In . SVG Version: 6.00 Build 0)  -->
<!DOCTYPE svg PUBLIC "-//W3C//DTD SVG 1.1//EN" "http://www.w3.org/Graphics/SVG/1.1/DTD/svg11.dtd">
<svg version="1.1" id="Layer_2" xmlns="http://www.w3.org/2000/svg" xmlns:xlink="http://www.w3.org/1999/xlink" x="0px" y="0px"
	 width="24px" height="24px" viewBox="0 0 24 24" enable-background="new 0 0 24 24" xml:space="preserve">
<path id="_x32_4px" d="M22,17H2c-0.552,0-1,0.447-1,1v1c0,1.104,0.895,2,2,2c0.003,0,17.997,0,18,0c1.105,0,2-0.896,2-2v-1
	C23,17.447,22.552,17,22,17z M21,3H3l0,0C1.895,3,1,3.896,1,5v7c0,1.104,0.895,2,2,2c0.003,0,0.006,0,0.01,0c0,0,17.987,0,17.991,0
	c1.104,0,2-0.896,2-2V5C23,3.896,22.105,3,21,3z M19,9.001c-1.104,0-2-0.896-2-2.001c0-1.104,0.895-2,2-2s2,0.896,2,2
	S20.105,9.001,19,9.001z"/>
</svg>
