<svg width="24" height="24" viewBox="0 0 24 24">
  <path fill-rule="evenodd" d="M13.41425,12.00025 L20.70725,4.70725 C21.09825,4.31625 21.09825,3.68425 20.70725,3.29325 C20.31625,2.90225 19.68425,2.90225 19.29325,3.29325 L12.00025,10.58625 L4.70725,3.29325 C4.31625,2.90225 3.68425,2.90225 3.29325,3.29325 C3.09825,3.48825 3.00025,3.74425 3.00025,4.00025 C3.00025,4.25625 3.09825,4.51225 3.29325,4.70725 L10.58625,12.00025 L3.29325,19.29325 C2.90225,19.68425 2.90225,20.31625 3.29325,20.70725 C3.48825,20.90225 3.74425,21.00025 4.00025,21.00025 C4.25625,21.00025 4.51225,20.90225 4.70725,20.70725 L12.00025,13.41425 L19.29325,20.70725 C19.68425,21.09825 20.31625,21.09825 20.70725,20.70725 C21.09825,20.31625 21.09825,19.68425 20.70725,19.29325 L13.41425,12.00025 Z"/>
</svg>
