<svg width="24" height="24" viewBox="0 0 24 24">
  <path fill-rule="evenodd" d="M12,19 C8.141,19 5,15.859 5,12 C5,8.141 8.141,5 12,5 C15.859,5 19,8.141 19,12 C19,15.859 15.859,19 12,19 M12,3 C16.971,3 21,7.029 21,12 C21,16.971 16.971,21 12,21 C7.029,21 3,16.971 3,12 C3,7.029 7.029,3 12,3 Z M16,11 L13,11 L13,8 C13,7.447 12.553,7 12,7 C11.447,7 11,7.447 11,8 L11,11 L8,11 C7.447,11 7,11.447 7,12 C7,12.553 7.447,13 8,13 L11,13 L11,16 C11,16.553 11.447,17 12,17 C12.553,17 13,16.553 13,16 L13,13 L16,13 C16.553,13 17,12.553 17,12 C17,11.447 16.553,11 16,11 Z" transform="rotate(45 12 12)"/>
</svg>
