<?xml version="1.0" encoding="UTF-8"?>
<svg width="20px" height="20px" viewBox="0 0 20 20" version="1.1" xmlns="http://www.w3.org/2000/svg" xmlns:xlink="http://www.w3.org/1999/xlink">
    <!-- Generator: sketchtool 46.2 (44496) - http://www.bohemiancoding.com/sketch -->
    <title>download--small</title>
    <desc>Created with sketchtool.</desc>
    <defs></defs>
    <g id="Web" stroke="none" stroke-width="1" fill="none" fill-rule="evenodd">
        <g id="download--small" fill="#000000">
            <path d="M18,12.5001254 C17.9997963,14.9809537 15.9808749,16.99975 13.5,16.99975 L6.5,16.99975 C4.01904167,16.99975 2.00006782,14.9808178 2,12.499875 C2.00000001,12.4999167 2,12.4999583 2,12.5 C2,12.7761424 2.22385763,13 2.5,13 C2.77614237,13 3,12.7761424 3,12.5 C3,12.4999583 2.99999999,12.4999167 2.99999998,12.499875 C3.00006779,14.4298178 4.57004167,15.99975 6.5,15.99975 L13.5,15.99975 C15.4299583,15.99975 16.9999322,14.4298178 17,12.499875 C17.0000676,12.2237901 17.2238993,12 17.5,12 C17.7761424,12 18,12.2238576 18,12.5 C18,12.5000418 18,12.5000836 18,12.5001254 Z M5.164,10.87 C4.959,10.685 4.944,10.368 5.13,10.164 C5.316,9.957 5.633,9.944 5.836,10.13 L9.5,13.37 L9.5,4.5 C9.5,4.223 9.724,4 10,4 C10.276,4 10.5,4.223 10.5,4.5 L10.5,13.37 L14.164,10.13 C14.26,10.043 14.38,10 14.5,10 C14.636,10 14.771,10.055 14.87,10.164 C15.056,10.368 15.041,10.685 14.836,10.87 L10.336,14.87 C10.311,14.893 10.28,14.905 10.252,14.922 C10.229,14.935 10.211,14.952 10.187,14.962 C10.067,15.011 9.933,15.011 9.813,14.962 C9.789,14.952 9.77,14.935 9.748,14.922 C9.72,14.905 9.689,14.893 9.664,14.87 L5.164,10.87 Z" id="Fill-11-Copy"></path>
        </g>
    </g>
</svg>