<svg width="24" height="24" viewBox="0 0 24 24">
  <path fill-rule="evenodd" d="M18,9.9997 C19.657,9.9997 21,11.3427 21,12.9997 L21,18.9997 C21,20.6567 19.657,21.9997 18,21.9997 L6,21.9997 C4.343,21.9997 3,20.6567 3,18.9997 L3,12.9997 C3,11.3427 4.343,9.9997 6,9.9997 L7,9.9997 C7.553,9.9997 8,10.4467 8,10.9997 C8,11.5527 7.553,11.9997 7,11.9997 L6,11.9997 C5.447,11.9997 5,12.4467 5,12.9997 L5,18.9997 C5,19.5527 5.447,19.9997 6,19.9997 L18,19.9997 C18.553,19.9997 19,19.5527 19,18.9997 L19,12.9997 C19,12.4467 18.553,11.9997 18,11.9997 L17,11.9997 C16.447,11.9997 16,11.5527 16,10.9997 C16,10.4467 16.447,9.9997 17,9.9997 L18,9.9997 Z M7.625,7.781 C7.192,8.126 6.564,8.055 6.219,7.625 C5.874,7.193 5.944,6.564 6.375,6.219 L11.375,2.219 C11.74,1.927 12.26,1.927 12.625,2.219 L17.625,6.219 C18.056,6.564 18.126,7.193 17.781,7.625 C17.583,7.871 17.293,8 16.999,8 C16.78,8 16.56,7.928 16.375,7.781 L13,5.08 L13,13 C13,13.552 12.553,14 12,14 C11.447,14 11,13.552 11,13 L11,5.08 L7.625,7.781 Z"/>
</svg>
