<?xml version="1.0" encoding="UTF-8"?>
<svg width="16px" height="16px" viewBox="0 0 16 16" version="1.1" xmlns="http://www.w3.org/2000/svg" xmlns:xlink="http://www.w3.org/1999/xlink">
    <!-- Generator: sketchtool 46.2 (44496) - http://www.bohemiancoding.com/sketch -->
    <title>export--small</title>
    <desc>Created with sketchtool.</desc>
    <defs></defs>
    <g id="Web" stroke="none" stroke-width="1" fill="none" fill-rule="evenodd">
        <g id="export--small" fill="#000000">
            <path d="M10.7000001,6.3996001 C10.4792001,6.3996001 10.3000001,6.5788001 10.3000001,6.7996001 C10.3000001,7.0204001 10.4792001,7.19960011 10.7000001,7.19960011 C12.2440002,7.19960011 13.5000002,8.45560013 13.5000002,9.99960015 L13.5000002,12.3996002 C13.5000002,13.9436002 12.2440002,15.1996002 10.7000001,15.1996002 L5.10000005,15.1996002 C3.55600003,15.1996002 2.30000001,13.9436002 2.30000001,12.3996002 L2.30000001,9.99960015 C2.30000001,8.45560013 3.55600003,7.19960011 5.10000005,7.19960011 C5.32080006,7.19960011 5.50000006,7.0204001 5.50000006,6.7996001 C5.50000006,6.5788001 5.32080006,6.3996001 5.10000005,6.3996001 C3.11520002,6.3996001 1.5,8.01480012 1.5,9.99960015 L1.5,12.3996002 C1.5,14.3844002 3.11520002,15.9996002 5.10000005,15.9996002 L10.7000001,15.9996002 C12.6848002,15.9996002 14.3000002,14.3844002 14.3000002,12.3996002 L14.3000002,9.99960015 C14.3000002,8.01480012 12.6848002,6.3996001 10.7000001,6.3996001 M3.20400003,4.66760007 C3.05520002,4.50440007 3.06720002,4.25080006 3.23120003,4.10280006 L7.63120009,0.102800002 C7.65120009,0.0844000013 7.67600009,0.0748000011 7.69840009,0.0612000009 C7.71680009,0.0508000008 7.73120009,0.0372000006 7.75040009,0.0292000004 C7.84640009,-0.0100000001 7.9536001,-0.0100000001 8.0496001,0.0292000004 C8.0688001,0.0372000006 8.0832001,0.0508000008 8.1016001,0.0612000009 C8.1240001,0.0748000011 8.1488001,0.0844000013 8.1688001,0.102800002 L12.5688002,4.10280006 C12.7328002,4.25080006 12.7448002,4.50440007 12.5960002,4.66760007 C12.5168002,4.75480007 12.4088002,4.79880007 12.3000002,4.79880007 C12.2040002,4.79880007 12.1080002,4.76440007 12.0312002,4.69480007 L8.3000001,1.30280002 L8.3000001,9.99960015 C8.3000001,10.2204002 8.1208001,10.3996002 7.9000001,10.3996002 C7.67920009,10.3996002 7.50000009,10.2204002 7.50000009,9.99960015 L7.50000009,1.30280002 L3.76880003,4.69480007 C3.60640003,4.84360007 3.35280003,4.83320007 3.20400003,4.66760007" id="Page-1"></path>
        </g>
    </g>
</svg>