<?xml version="1.0" encoding="utf-8"?>
<!-- Generator: Adobe Illustrator 19.1.0, SVG Export Plug-In . SVG Version: 6.00 Build 0)  -->
<svg version="1.1" id="Layer_1" xmlns="http://www.w3.org/2000/svg" xmlns:xlink="http://www.w3.org/1999/xlink" x="0px" y="0px"
	 viewBox="-399 383 36 36" xml:space="preserve">
<path class="st0" d="M-367.3,383.7C-367.3,383.7-367.3,383.7-367.3,383.7L-367.3,383.7c-1.7,0.4-3.1,0.4-4.6,0
	c-1.3,2.4-6.1,10.3-9.1,15.3c-3.1-5.1-6.8-11-9.1-15.3c-1.9,0.4-2.7,0.4-4.6,0c3.7,5.6,9.8,16.4,11.8,19.9l-0.3,14.7
	c0,0,1.3-0.2,2.2-0.2c1,0,2.2,0.2,2.2,0.2l-0.3-14.7C-375.3,396.9-369,386-367.3,383.7z"/>
</svg>
