<?xml version="1.0" encoding="UTF-8"?>
<svg width="28px" height="28px" viewBox="0 0 28 28" version="1.1" xmlns="http://www.w3.org/2000/svg" xmlns:xlink="http://www.w3.org/1999/xlink">
    <!-- Generator: sketchtool 46.2 (44496) - http://www.bohemiancoding.com/sketch -->
    <title>external-twitter</title>
    <desc>Created with sketchtool.</desc>
    <defs></defs>
    <g id="Web" stroke="none" stroke-width="1" fill="none" fill-rule="evenodd">
        <g id="external-twitter" fill-rule="nonzero" fill="#000000">
            <path d="M23.5426087,8.77945425 C23.5530435,8.98747994 23.5569565,9.19807384 23.5569565,9.40609952 C23.5569565,15.8138042 18.6043478,23.2 9.54826087,23.2 C6.76608696,23.2 4.17956522,22.3974318 2,21.0208668 C2.38608696,21.0658106 2.7773913,21.0889246 3.17391304,21.0889246 C5.4826087,21.0889246 7.60478261,20.3133226 9.28869565,19.0150883 C7.13521739,18.9752809 5.31565217,17.5756019 4.68956522,15.6494382 C4.98956522,15.7046549 5.29869565,15.7341894 5.61565217,15.7341894 C6.06565217,15.7341894 6.50130435,15.6764045 6.91347826,15.5659711 C4.66086957,15.1191011 2.96391304,13.1608347 2.96391304,10.8109149 L2.96391304,10.7505618 C3.62782609,11.1139647 4.38826087,11.3322632 5.19434783,11.3579454 C3.87304348,10.4873194 3.00304348,9.00545746 3.00304348,7.32199037 C3.00304348,6.43467095 3.24565217,5.60128411 3.67086957,4.8847512 C6.09826087,7.81894061 9.72826087,9.74767255 13.82,9.9505618 C13.7365217,9.59486356 13.6934783,9.22632424 13.6934783,8.84494382 C13.6934783,6.16886035 15.8965217,4 18.616087,4 C20.0326087,4 21.3121739,4.58683788 22.2108696,5.529374 C23.3313043,5.31107544 24.3852174,4.90786517 25.3373913,4.35313002 C24.9695652,5.48443018 24.1882609,6.43467095 23.1721739,7.03434992 C24.1686957,6.91621188 25.1156522,6.65810594 26,6.27158909 C25.34,7.24494382 24.5052174,8.0975923 23.5426087,8.77945425 Z" id="Shape"></path>
        </g>
    </g>
</svg>