<?xml version="1.0" encoding="UTF-8"?>
<svg width="16px" height="16px" viewBox="0 0 16 16" version="1.1" xmlns="http://www.w3.org/2000/svg" xmlns:xlink="http://www.w3.org/1999/xlink">
    <!-- Generator: sketchtool 46.2 (44496) - http://www.bohemiancoding.com/sketch -->
    <title>globe--small</title>
    <desc>Created with sketchtool.</desc>
    <defs></defs>
    <g id="Web" stroke="none" stroke-width="1" fill="none" fill-rule="evenodd">
        <g id="globe--small" fill="#000000">
            <path d="M9.03444444,14.125972 C9.708,13.100311 10.471,11.8413686 10.8575556,10.3312597 L13.7641111,10.3312597 C12.9637778,12.2993779 11.1857778,13.7636081 9.03444444,14.125972 L9.03444444,14.125972 Z M2.23588889,10.3312597 L4.97755556,10.3312597 C5.40144444,11.8312597 6.22433333,13.1376361 6.90566667,14.1166407 C4.78155556,13.7379471 3.02844444,12.281493 2.23588889,10.3312597 L2.23588889,10.3312597 Z M1.98233333,6.44323484 L4.962,6.44323484 C4.79088889,7.12986003 4.69444444,7.781493 4.69444444,8.38724728 C4.69444444,8.78615863 4.74111111,9.17340591 4.80722222,9.55365474 L1.98233333,9.55365474 C1.854,9.05520995 1.77777778,8.53654743 1.77777778,7.99844479 C1.77777778,7.46111975 1.854,6.94167963 1.98233333,6.44323484 L1.98233333,6.44323484 Z M6.99744444,1.86547434 C6.17066667,3.23017107 5.56633333,4.49844479 5.18522222,5.66562986 L2.23588889,5.66562986 C3.03933333,3.6874028 4.83211111,2.218507 6.99744444,1.86547434 L6.99744444,1.86547434 Z M13.7641111,5.66562986 L10.6957778,5.66562986 C10.2843333,4.18662519 9.64111111,2.83903577 9.06322222,1.8755832 C11.2013333,2.24572317 12.9676667,3.70684292 13.7641111,5.66562986 L13.7641111,5.66562986 Z M8,1.77760498 C8.03188889,1.77760498 8.063,1.78227061 8.09488889,1.78227061 C8.693,2.6726283 9.43344444,4.10808709 9.89466667,5.66562986 L6.00266667,5.66562986 C6.41411111,4.48678072 7.069,3.1881804 7.96422222,1.77916019 C7.97588889,1.77916019 7.98755556,1.77760498 8,1.77760498 L8,1.77760498 Z M5.60133333,9.55365474 C5.52666667,9.1726283 5.47222222,8.78538103 5.47222222,8.38724728 C5.47222222,7.78849145 5.57644444,7.13608087 5.76233333,6.44323484 L10.0953333,6.44323484 C10.2423333,7.09253499 10.3333333,7.7503888 10.3333333,8.38724728 C10.3333333,8.79393468 10.2874444,9.17884914 10.2236667,9.55365474 L5.60133333,9.55365474 Z M8.04511111,14.2169518 C8.02955556,14.2169518 8.01477778,14.2192846 8,14.2192846 C7.97588889,14.2192846 7.95177778,14.2161742 7.92766667,14.2153966 C7.92611111,14.2130638 7.92455556,14.2115086 7.923,14.2091757 C7.265,13.2869362 6.29588889,11.9136858 5.79733333,10.3312597 L10.0502222,10.3312597 C9.63488889,11.8001555 8.83144444,13.0287714 8.14,14.0715397 C8.10577778,14.122084 8.07777778,14.1671851 8.04511111,14.2169518 L8.04511111,14.2169518 Z M14.0176667,9.55365474 L11.0115556,9.55365474 C11.0698889,9.17729393 11.1111111,8.79237947 11.1111111,8.38724728 C11.1111111,7.73950233 11.0208889,7.08553655 10.8863333,6.44323484 L14.0176667,6.44323484 C14.146,6.94167963 14.2222222,7.46111975 14.2222222,7.99844479 C14.2222222,8.53654743 14.146,9.05520995 14.0176667,9.55365474 L14.0176667,9.55365474 Z M15,7.99844479 C15,4.30559876 12.137,1.28771384 8.51022222,1.02566096 C8.50477778,1.01866252 8,1 8,1 C8,1 7.52866667,1.0163297 7.524,1.02410575 C3.88088889,1.26982893 1,4.29393468 1,7.99844479 C1,11.8639191 4.13366667,14.9968896 8,14.9968896 C8.09566667,14.9968896 8.33833333,15.003888 8.343,14.9968896 C12.0483333,14.8172628 15,11.748056 15,7.99844479 L15,7.99844479 Z" id="Fill-1"></path>
        </g>
    </g>
</svg>