<?xml version="1.0" encoding="UTF-8"?>
<svg width="28px" height="28px" viewBox="0 0 28 28" version="1.1" xmlns="http://www.w3.org/2000/svg" xmlns:xlink="http://www.w3.org/1999/xlink">
    <!-- Generator: sketchtool 46.2 (44496) - http://www.bohemiancoding.com/sketch -->
    <title>groups</title>
    <desc>Created with sketchtool.</desc>
    <defs></defs>
    <g id="Web" stroke="none" stroke-width="1" fill="none" fill-rule="evenodd">
        <g id="groups" fill="#000000">
            <path d="M20.5,24 C18.57,24 17,22.43 17,20.5 C17,18.57 18.57,17 20.5,17 C22.43,17 24,18.57 24,20.5 C24,22.43 22.43,24 20.5,24 M20.5,15 C17.462,15 15,17.463 15,20.5 C15,23.537 17.462,26 20.5,26 C23.538,26 26,23.537 26,20.5 C26,17.463 23.538,15 20.5,15 M7.5,24 C5.57,24 4,22.43 4,20.5 C4,18.57 5.57,17 7.5,17 C9.43,17 11,18.57 11,20.5 C11,22.43 9.43,24 7.5,24 M7.5,15 C4.462,15 2,17.463 2,20.5 C2,23.537 4.462,26 7.5,26 C10.538,26 13,23.537 13,20.5 C13,17.463 10.538,15 7.5,15 M20.5,4 C22.43,4 24,5.57 24,7.5 C24,9.43 22.43,11 20.5,11 C18.57,11 17,9.43 17,7.5 C17,5.57 18.57,4 20.5,4 M20.5,13 C23.538,13 26,10.537 26,7.5 C26,4.463 23.538,2 20.5,2 C17.462,2 15,4.463 15,7.5 C15,10.537 17.462,13 20.5,13 M7.5,11 C5.57,11 4,9.43 4,7.5 C4,5.57 5.57,4 7.5,4 C9.43,4 11,5.57 11,7.5 C11,9.43 9.43,11 7.5,11 M7.5,2 C4.462,2 2,4.463 2,7.5 C2,10.537 4.462,13 7.5,13 C10.538,13 13,10.537 13,7.5 C13,4.463 10.538,2 7.5,2" id="Page-1"></path>
        </g>
    </g>
</svg>