<svg width="24" height="24" viewBox="0 0 24 24">
  <path fill-rule="evenodd" d="M16.7860459,4 C15.3315337,4 13.8661126,4.57422222 12.7770466,5.648 L11.9997916,6.41511111 L11.2234457,5.648 C10.1352887,4.57422222 8.6680495,4 7.21444634,4 C6.04901841,4 4.89177212,4.368 3.94088475,5.14222222 C1.48912256,7.14044444 1.3600346,10.7288889 3.55452993,12.8951111 L4.49359939,13.8204444 L9.87893094,19.1324444 C10.4643721,19.7111111 11.2325364,20 11.9997916,20 C12.7679559,20 13.5361201,19.7111111 14.1206522,19.1324444 L19.5068929,13.8204444 L20.4450532,12.8951111 C22.6395486,10.7288889 22.5113697,7.14044444 20.0596075,5.14222222 C19.1087201,4.368 17.9505648,4 16.7860459,4"/>
</svg>
