<svg width="24" height="24" viewBox="0 0 24 24">
  <path fill-rule="evenodd" d="M16.7860459,4 C15.3315337,4 13.8661126,4.57422222 12.7770466,5.648 L11.9997916,6.41511111 L11.2234457,5.648 C10.1352887,4.57422222 8.6680495,4 7.21444634,4 C6.04901841,4 4.89177212,4.368 3.94088475,5.14222222 C1.48912256,7.14044444 1.3600346,10.7288889 3.55452993,12.8951111 L4.49359939,13.8204444 L9.87893094,19.1324444 C10.4643721,19.7111111 11.2325364,20 11.9997916,20 C12.7679559,20 13.5361201,19.7111111 14.1206522,19.1324444 L19.5068929,13.8204444 L20.4450532,12.8951111 C22.6395486,10.7288889 22.5113697,7.14044444 20.0596075,5.14222222 C19.1087201,4.368 17.9505648,4 16.7860459,4 M16.7860459,5.77777778 C17.5787551,5.77777778 18.3087384,6.03022222 18.8950886,6.50844444 C19.6741618,7.14311111 20.1296059,8.03644444 20.1768776,9.02311111 C20.2250583,9.99911111 19.8523395,10.9537778 19.1532646,11.6435556 L18.2151042,12.5688889 L12.8297726,17.8817778 C12.6070504,18.1013333 12.3125117,18.2222222 11.9997916,18.2222222 C11.6879805,18.2222222 11.3925327,18.1013333 11.1698105,17.8817778 L5.784479,12.5688889 L4.84631861,11.6435556 C4.14815274,10.9537778 3.77452491,9.99911111 3.82270563,9.02311111 C3.87088635,8.03644444 4.32633049,7.14311111 5.10449453,6.50844444 C5.69175385,6.03022222 6.42173717,5.77777778 7.21444634,5.77777778 C8.21805978,5.77777778 9.20894624,6.18666667 9.93165701,6.89955556 L10.7080029,7.66577778 C11.0498133,8.00266667 11.5152572,8.19288889 11.9997916,8.19288889 C12.485235,8.19288889 12.9497699,8.00266667 13.2915803,7.66577778 L14.0688352,6.89955556 C14.791546,6.18666667 15.7824325,5.77777778 16.7860459,5.77777778"/>
</svg>
