<svg width="24" height="24" viewBox="0 0 24 24">
  <path fill-rule="evenodd" d="M11.7855555,8.69942179 L14.6286474,11.6816744 C14.6313568,11.6287165 14.6440008,11.5793585 14.6440008,11.5253584 C14.6440008,9.95566206 13.4310807,8.68328809 11.934574,8.68328809 C11.8830949,8.68328809 11.8361315,8.69653231 11.7855555,8.69942179 L11.7855555,8.69942179 Z M7.89660684,9.44400678 L9.29376793,10.908621 C9.25132025,11.1076633 9.22513815,11.3131477 9.22513815,11.5253584 C9.22513815,13.0951496 10.4380673,14.3674667 11.934574,14.3674667 C12.137781,14.3674667 12.3337629,14.3400877 12.5225196,14.296414 L13.9196807,15.7611419 C13.3181879,16.071879 12.6498627,16.2622055 11.934574,16.2622055 C9.44099819,16.2622055 7.41885361,14.1420875 7.41885361,11.5253584 C7.41885361,10.7750419 7.60037618,10.0749359 7.89660684,9.44400678 L7.89660684,9.44400678 Z M2.90314227,4.20508232 L4.96139447,6.36505617 L5.37234226,6.79612821 C3.88215752,8.02012002 2.70536314,9.64767226 2,11.5253584 C3.56062984,15.6833628 7.4170383,18.6306291 11.934574,18.6306291 C13.3344445,18.6306291 14.6701919,18.346513 15.8939497,17.8330388 L16.276882,18.2336813 L18.9131543,21 L20.0628544,19.7940935 L4.05285141,3 L2.90314227,4.20508232 Z M11.934574,6.78854925 C14.4281498,6.78854925 16.4502853,8.90972833 16.4502853,11.5253584 C16.4502853,12.1373591 16.3310706,12.7181913 16.1296698,13.255255 L18.7686515,16.0234684 C20.1305901,14.8288356 21.2080388,13.2874656 21.8691389,11.5253584 C20.3085091,7.36741091 16.4529948,4.42012571 11.934574,4.42012571 C10.6701748,4.42012571 9.46084925,4.65789648 8.33643713,5.08138956 L10.2854362,7.12583171 C10.7975179,6.91454938 11.3511441,6.78854925 11.934574,6.78854925 L11.934574,6.78854925 Z"/>
</svg>
