<?xml version="1.0" encoding="utf-8"?>
<!-- Generator: Adobe Illustrator 16.0.0, SVG Export Plug-In . SVG Version: 6.00 Build 0)  -->
<!DOCTYPE svg PUBLIC "-//W3C//DTD SVG 1.1//EN" "http://www.w3.org/Graphics/SVG/1.1/DTD/svg11.dtd">
<svg version="1.1" xmlns="http://www.w3.org/2000/svg" xmlns:xlink="http://www.w3.org/1999/xlink" x="0px" y="0px" width="24px"
	 height="24px" viewBox="0 0 24 24" enable-background="new 0 0 24 24" xml:space="preserve">
<g id="_x31_6px">
</g>
<g id="_x31_6px-grid" display="none">
</g>
<g id="_x32_4px">
	<g>
		<path fill-rule="evenodd" clip-rule="evenodd" d="M22.652,10.256l-9.928-9.078C12.542,0.984,12.287,0.93,12,0.93
			c-0.291,0-0.547,0.163-0.729,0.361L1.3,10.282C1.089,10.466,1,10.689,1,10.99C1,11.544,1.448,12,2,12c1.104,0,2,0.896,2,2.001V20
			c0,1.106,0.896,2,2,2s2-0.894,2-2v-6c0-1.105,0.896-2,2-2h4c1.104,0,2,0.895,2,2v6c0,1.106,0.896,2,2,2s2-0.894,2-2v-5.999
			C20,12.896,20.896,12,22,12c0.552,0,1-0.447,1-1.001C23,10.7,22.861,10.439,22.652,10.256z"/>
		<circle fill-rule="evenodd" clip-rule="evenodd" cx="12" cy="16" r="2"/>
	</g>
</g>
<g id="_x32_4px-grid" display="none">
	<path display="inline" fill="none" stroke="#FF33FF" stroke-width="0.075" stroke-miterlimit="10" d="M22,12
		c0,5.522-4.473,10-10,10S2,17.522,2,12S6.473,2,12,2S22,6.478,22,12z"/>
	<circle display="inline" fill="none" stroke="#FF33FF" stroke-width="0.075" stroke-miterlimit="10" cx="12" cy="12" r="5"/>
	<line display="inline" fill="none" stroke="#FF33FF" stroke-miterlimit="10" x1="4.562" y1="22.75" x2="4.562" y2="22.75"/>
	<line display="inline" fill="none" stroke="#FF33FF" stroke-width="0.075" stroke-miterlimit="10" x1="24" y1="24" x2="0" y2="0"/>
	<line display="inline" fill="none" stroke="#FF33FF" stroke-width="0.075" stroke-miterlimit="10" x1="0" y1="24" x2="24" y2="0"/>
</g>
<g id="_x33_6px">
</g>
<g id="_x33_6px-grid" display="none">
</g>
<g id="_x34_8px">
</g>
<g id="_x34_8px-grid" display="none">
</g>
<g id="_x37_2px">
</g>
<g id="_x37_2px-grid" display="none">
</g>
<g id="_x31_60px">
</g>
<g id="_x31_60px-grid" display="none">
</g>
</svg>
