<svg width="24" height="24" viewBox="0 0 24 24">
  <path fill-rule="evenodd" d="M12,12 C13.626,12 15,13.374 15,15 L15,17.115 C15,18.154 15.897,19 17,19 C18.103,19 19,18.154 19,17.115 L19,11.904 C19,11.327 18.711,10.771 18.227,10.416 C18.184,10.384 18.144,10.35 18.106,10.312 L13.466,5.603 C12.7,4.825 11.3,4.825 10.534,5.603 L5.894,10.312 C5.856,10.35 5.816,10.384 5.773,10.416 C5.289,10.771 5,11.327 5,11.904 L5,17.115 C5,18.154 5.897,19 7,19 C8.103,19 9,18.154 9,17.115 L9,15 C9,13.374 10.374,12 12,12 M17,21 C14.794,21 13,19.257 13,17.115 L13,15 C13,14.468 12.532,14 12,14 C11.468,14 11,14.468 11,15 L11,17.115 C11,19.257 9.206,21 7,21 C4.794,21 3,19.257 3,17.115 L3,11.904 C3,10.721 3.567,9.587 4.521,8.854 L9.11,4.198 C9.872,3.426 10.898,3 12,3 C13.102,3 14.128,3.426 14.89,4.198 L19.479,8.854 C20.433,9.587 21,10.721 21,11.904 L21,17.115 C21,19.257 19.206,21 17,21"/>
</svg>
