<?xml version="1.0" encoding="UTF-8"?>
<svg width="20px" height="20px" viewBox="0 0 20 20" version="1.1" xmlns="http://www.w3.org/2000/svg" xmlns:xlink="http://www.w3.org/1999/xlink">
    <!-- Generator: sketchtool 46.2 (44496) - http://www.bohemiancoding.com/sketch -->
    <title>link--small</title>
    <desc>Created with sketchtool.</desc>
    <defs></defs>
    <g id="Web" stroke="none" stroke-width="1" fill="none" fill-rule="evenodd">
        <g id="link--small" fill-rule="nonzero" fill="#000000">
            <path d="M3.05983953,11.8105384 C1.64673968,13.2236536 1.64671365,15.527111 3.05980049,16.9402048 C4.47286727,18.3532774 6.77636413,18.3532561 8.18947103,16.9401622 L11.2069496,13.92269 C12.5587329,12.5708967 12.6237736,10.4057658 11.3861489,8.98159389 C11.2355834,8.80824404 11.0038552,8.72857615 10.7785217,8.77269235 C10.5531882,8.81680856 10.3686083,8.97798204 10.2945246,9.19531413 C10.2204408,9.41264622 10.2681496,9.65299817 10.4196243,9.82555411 C11.2260414,10.7535344 11.1885949,12.1305904 10.3017223,13.0174547 L7.2842379,16.0349269 C6.35698199,16.9621818 4.89228056,16.9622031 3.96504514,16.0349696 C3.03780352,15.1077147 3.03781227,13.6430071 3.96506903,12.7157736 L6.98254701,9.69828008 C7.14808228,9.53735581 7.21414927,9.29976904 7.15545016,9.07649441 C7.09675106,8.85321978 6.92237988,8.67884836 6.69910534,8.62014894 C6.47583079,8.56144952 6.23824392,8.62751617 6.07731942,8.79305122 L3.05983953,11.8105384 L3.05983953,11.8105384 Z M8.79305146,6.07731982 C7.4412676,7.42910453 7.37621809,9.59422048 8.61385857,11.0184308 C8.84691175,11.2853245 9.25220211,11.3127539 9.51909992,11.079696 C9.78599772,10.8466381 9.81343421,10.4413472 9.58038103,10.1744535 C8.77396184,9.24647324 8.8114073,7.86942149 9.69827882,6.98254655 L12.7157587,3.96506794 C13.6430129,3.03781096 15.1077192,3.03780029 16.0349624,3.96504447 C16.9622029,4.89228225 16.9621905,6.35699199 16.034928,7.28423403 L13.0174509,10.3017276 C12.852044,10.4626798 12.7860754,10.7002039 12.8447913,10.9233991 C12.9035073,11.1465943 13.077817,11.3209045 13.3010121,11.3796209 C13.5242071,11.4383374 13.7617314,11.3723693 13.922684,11.2069628 L16.9401626,8.18947569 C18.3532667,6.77637328 18.3532772,4.47287108 16.9402055,3.05979854 C15.5271247,1.64671746 13.2236333,1.64673667 11.8105313,3.05983908 L8.79305146,6.07731982 L8.79305146,6.07731982 Z" id="Shape-Copy-4"></path>
        </g>
    </g>
</svg>