<svg width="28" height="28" viewBox="0 0 28 28">
  <path d="M3.5897593,16.7158075 C1.47010952,18.8354804 1.47007047,22.2906665 3.58970073,24.4103073 C5.7093009,26.5299161 9.1645462,26.5298841 11.2842065,24.4102433 L15.8104245,19.8840349 C17.8380993,17.8563451 17.9356604,14.6086488 16.0792234,12.4723908 C15.8533751,12.2123661 15.5057828,12.0928642 15.1677825,12.1590385 C14.8297823,12.2252128 14.5529124,12.4669731 14.4417868,12.7929712 C14.3306613,13.1189693 14.4022244,13.4794973 14.6294365,13.7383312 C15.8390621,15.1303016 15.7828923,17.1958856 14.4525834,18.5261821 L9.92635685,23.0523904 C8.53547298,24.4432726 6.33842085,24.4433046 4.94756771,23.0524544 C3.55670528,21.6615721 3.5567184,19.4645107 4.94760355,18.0736604 L9.47382051,13.5474201 C9.72212343,13.3060337 9.8212239,12.9496536 9.73317524,12.6147416 C9.64512659,12.2798297 9.38356983,12.0182725 9.04865801,11.9302234 C8.71374619,11.8421743 8.35736588,11.9412742 8.11597914,12.1895768 L3.5897593,16.7158075 L3.5897593,16.7158075 Z M12.1895772,8.11597974 C10.1619014,10.1436568 10.0643271,13.3913307 11.9207879,15.5276463 C12.2703676,15.9279868 12.8783032,15.9691308 13.2786499,15.6195439 C13.6789966,15.2699571 13.7201513,14.6620208 13.3705715,14.2616803 C12.1609428,12.8697099 12.2171109,10.8041322 13.5474182,9.47381983 L18.0736381,4.94760191 C19.4645194,3.55671644 21.6615789,3.55670044 23.0524435,4.94756671 C24.4433044,6.33842337 24.4432858,8.53548798 23.052392,9.92635105 L18.5261763,14.4525914 C18.2780661,14.6940197 18.1791131,15.0503059 18.267187,15.3850987 C18.3552609,15.7198914 18.6167255,15.9813567 18.9515181,16.0694314 C19.2863107,16.157506 19.6425971,16.058554 19.884026,15.8104443 L24.4102439,11.2842135 C26.5299001,9.16455992 26.5299158,5.70930662 24.4103083,3.58969781 C22.290687,1.47007619 18.83545,1.470105 16.715797,3.58975862 L12.1895772,8.11597974 L12.1895772,8.11597974 Z"/>
</svg>
