<?xml version="1.0" encoding="UTF-8"?>
<svg width="28px" height="28px" viewBox="0 0 28 28" version="1.1" xmlns="http://www.w3.org/2000/svg" xmlns:xlink="http://www.w3.org/1999/xlink">
    <!-- Generator: sketchtool 46.2 (44496) - http://www.bohemiancoding.com/sketch -->
    <title>location-pin</title>
    <desc>Created with sketchtool.</desc>
    <defs></defs>
    <g id="Web" stroke="none" stroke-width="1" fill="none" fill-rule="evenodd">
        <g id="location-pin" fill="#000000">
            <path d="M14,12 C12.897,12 12,11.103 12,10 C12,8.897 12.897,8 14,8 C15.103,8 16,8.897 16,10 C16,11.103 15.103,12 14,12 M14,6 C11.794,6 10,7.794 10,10 C10,12.206 11.794,14 14,14 C16.206,14 18,12.206 18,10 C18,7.794 16.206,6 14,6 M16.542,24.577 C15.992,25.468 15.042,26 14,26 C12.959,26 12.008,25.468 11.459,24.577 C7.938,18.873 6,14.225 6,11.49 C6,5.326 10.122,2 14,2 C17.878,2 22,5.326 22,11.49 C22,14.226 20.062,18.874 16.542,24.577 M14,0 C9.085,0 4,4.298 4,11.49 C4,14.681 5.937,19.437 9.756,25.627 C10.673,27.113 12.261,28 14,28 C15.74,28 17.327,27.113 18.243,25.627 C20.869,21.373 24,15.466 24,11.49 C24,4.298 18.916,0 14,0" id="Page-1"></path>
        </g>
    </g>
</svg>