<svg width="24" height="24" viewBox="0 0 24 24">
  <path fill-rule="evenodd" d="M16.5790748,14.087 L16.5400748,14.136 L16.5040748,14.186 L12.5260748,19.721 C12.3520748,19.964 12.1210748,20 11.9990748,20 C11.8770748,20 11.6460748,19.964 11.4720748,19.721 L7.52007484,14.219 L7.48407484,14.168 L7.44507484,14.12 C6.02507484,12.383 5.62507484,10.09 6.37607484,7.984 C7.09607484,5.961 8.77007484,4.513 10.8520748,4.11 C11.2350748,4.037 11.6220748,4 12.0010748,4 C12.3810748,4 12.7670748,4.037 13.1470748,4.11 C15.2320748,4.513 16.9070748,5.961 17.6260748,7.983 C18.3730748,10.089 17.9810748,12.371 16.5790748,14.087 M19.5120748,7.315 C20.4930748,10.082 19.9770748,13.09 18.1280748,15.353 L14.1500748,20.888 C13.6180748,21.629 12.8080748,22 11.9990748,22 C11.1890748,22 10.3800748,21.629 9.84807484,20.888 L5.89607484,15.386 C4.01907484,13.09 3.50507484,10.082 4.49107484,7.315 C5.45107484,4.616 7.69207484,2.684 10.4750748,2.147 C10.9850748,2.049 11.4930748,2 12.0010748,2 C12.5100748,2 13.0170748,2.049 13.5270748,2.147 C16.3100748,2.684 18.5520748,4.616 19.5120748,7.315 Z M11.9999748,7.00005 C10.3439472,7.00005 8.99992484,8.3440724 8.99992484,10.0001 C8.99992484,11.6561276 10.3439472,13.00015 11.9999748,13.00015 C13.6560024,13.00015 15.0000248,11.6561276 15.0000248,10.0001 C15.0000248,8.3440724 13.6560024,7.00005 11.9999748,7.00005 Z"/>
</svg>
