<?xml version="1.0" encoding="UTF-8"?>
<svg width="16px" height="16px" viewBox="0 0 16 16" version="1.1" xmlns="http://www.w3.org/2000/svg" xmlns:xlink="http://www.w3.org/1999/xlink">
    <!-- Generator: sketchtool 46.2 (44496) - http://www.bohemiancoding.com/sketch -->
    <title>lock--small</title>
    <desc>Created with sketchtool.</desc>
    <defs></defs>
    <g id="Web" stroke="none" stroke-width="1" fill="none" fill-rule="evenodd">
        <g id="lock--small" fill="#000000">
            <path d="M8.05555556,15.2 C5.42936508,15.2 3.29365079,13.0472 3.29365079,10.4 C3.29365079,7.7528 5.42936508,5.6 8.05555556,5.6 C10.681746,5.6 12.8174603,7.7528 12.8174603,10.4 C12.8174603,13.0472 10.681746,15.2 8.05555556,15.2 L8.05555556,15.2 Z M5.67460317,3.2 C5.67460317,1.6912 6.55873016,0.8 8.05555556,0.8 C9.55238095,0.8 10.4365079,1.6912 10.4365079,3.2496 L10.4365079,5.3464 C9.71428571,5 8.90873016,4.8 8.05555556,4.8 C7.20238095,4.8 6.3968254,5 5.67460317,5.3464 L5.67460317,3.2 Z M11.2301587,5.808 L11.2301587,3.2 C11.2301587,1.2432 9.9968254,0 8.05555556,0 C6.11428571,0 4.88095238,1.2432 4.88095238,3.2 L4.88095238,5.808 C3.44285714,6.82 2.5,8.4976 2.5,10.4 C2.5,13.4928 4.98730159,16 8.05555556,16 C11.1238095,16 13.6111111,13.4928 13.6111111,10.4 C13.6111111,8.4976 12.668254,6.82 11.2301587,5.808 L11.2301587,5.808 Z M8.05555556,11.2 C7.39920635,11.2 6.86507937,10.6616 6.86507937,10.0008 C6.86507937,9.3392 7.39920635,8.8 8.05555556,8.8 C8.71190476,8.8 9.24603175,9.3392 9.24603175,10.0008 C9.24603175,10.6616 8.71190476,11.2 8.05555556,11.2 L8.05555556,11.2 Z M8.05555556,8 C6.95952381,8 6.07142857,8.896 6.07142857,10.0008 C6.07142857,10.968 6.75238095,11.7744 7.65873016,11.9592 L7.65873016,13.2 C7.65873016,13.4208 7.83650794,13.6 8.05555556,13.6 C8.27460317,13.6 8.45238095,13.4208 8.45238095,13.2 L8.45238095,11.9592 C9.35873016,11.7744 10.0396825,10.968 10.0396825,10.0008 C10.0396825,8.896 9.15238095,8 8.05555556,8 L8.05555556,8 Z" id="Page-1"></path>
        </g>
    </g>
</svg>