<?xml version="1.0" encoding="UTF-8"?>
<svg width="28px" height="28px" viewBox="0 0 28 28" version="1.1" xmlns="http://www.w3.org/2000/svg" xmlns:xlink="http://www.w3.org/1999/xlink">
    <!-- Generator: sketchtool 46.2 (44496) - http://www.bohemiancoding.com/sketch -->
    <title>lock</title>
    <desc>Created with sketchtool.</desc>
    <defs></defs>
    <g id="Web" stroke="none" stroke-width="1" fill="none" fill-rule="evenodd">
        <g id="lock" fill="#000000">
            <path d="M14,18 C12.897,18 12,17.103 12,16 C12,14.897 12.897,14 14,14 C15.103,14 16,14.897 16,16 C16,17.103 15.103,18 14,18 L14,18 Z M14,12 C11.794,12 10,13.794 10,16 C10,17.858 11.28,19.411 13,19.858 L13,23 C13,23.553 13.448,24 14,24 C14.552,24 15,23.553 15,23 L15,19.858 C16.721,19.411 18,17.858 18,16 C18,13.794 16.206,12 14,12 L14,12 Z M14,26 C9.589,26 6,22.411 6,18 C6,13.589 9.589,10 14,10 C18.411,10 22,13.589 22,18 C22,22.411 18.411,26 14,26 L14,26 Z M10,6 C10,3.757 11.757,2 14,2 C16.243,2 18,3.757 18,6 L18,8.841 C16.773,8.303 15.423,8 14,8 C12.578,8 11.226,8.303 10,8.841 L10,6 Z M20,10.02 L20,6 C20,2.636 17.364,0 14,0 C10.636,0 8,2.636 8,6 L8,10.02 C5.577,11.846 4,14.738 4,18 C4,23.514 8.486,28 14,28 C19.514,28 24,23.514 24,18 C24,14.739 22.423,11.846 20,10.02 L20,10.02 Z" id="Page-1"></path>
        </g>
    </g>
</svg>