<svg width="20" height="20" viewBox="0 0 20 20">
  <path fill-rule="evenodd" d="M10,19 C6.691,19 4,16.309 4,13 C4,9.691 6.691,7 10,7 C13.309,7 16,9.691 16,13 C16,16.309 13.309,19 10,19 L10,19 Z M7,4 C7,2.114 8.114,1 10,1 C11.886,1 13,2.114 13,4.062 L13,6.683 C12.09,6.25 11.075,6 10,6 C8.925,6 7.91,6.25 7,6.683 L7,4 Z M14,7.26 L14,4 C14,1.554 12.446,0 10,0 C7.554,0 6,1.554 6,4 L6,7.26 C4.188,8.525 3,10.622 3,13 C3,16.866 6.134,20 10,20 C13.866,20 17,16.866 17,13 C17,10.622 15.812,8.525 14,7.26 L14,7.26 Z M10,14 C9.173,14 8.5,13.327 8.5,12.501 C8.5,11.674 9.173,11 10,11 C10.827,11 11.5,11.674 11.5,12.501 C11.5,13.327 10.827,14 10,14 L10,14 Z M10,10 C8.619,10 7.5,11.12 7.5,12.501 C7.5,13.71 8.358,14.718 9.5,14.949 L9.5,16.5 C9.5,16.776 9.724,17 10,17 C10.276,17 10.5,16.776 10.5,16.5 L10.5,14.949 C11.642,14.718 12.5,13.71 12.5,12.501 C12.5,11.12 11.382,10 10,10 L10,10 Z"/>
</svg>
