<svg width="24" height="24" viewBox="0 0 24 24">
  <path fill-rule="evenodd" d="M12,22 C8.141,22 5,18.859 5,15 C5,11.141 8.141,8 12,8 C15.859,8 19,11.141 19,15 C19,18.859 15.859,22 12,22 L12,22 Z M8,6 C8,3.757 9.757,2 12,2 C14.243,2 16,3.757 16,6 L16,6.949 C14.793,6.348 13.437,6 12,6 C10.563,6 9.207,6.348 8,6.949 L8,6 Z M17.964,8.278 C19.821,9.928 21,12.326 21,15 C21,19.963 16.963,24 12,24 C7.037,24 3,19.963 3,15 C3,12.326 4.179,9.928 6.036,8.278 C6.024,8.218 6,8.163 6,8.1 L6,6 C6,2.636 8.636,0 12,0 C15.364,0 18,2.636 18,6 L18,8.1 C18,8.163 17.976,8.218 17.964,8.278 Z M12,10 C10.343,10 9,11.343 9,13 C9,14.317 9.854,15.424 11.035,15.827 C11.024,15.886 11,15.938 11,16 L11,19 C11,19.553 11.447,20 12,20 C12.553,20 13,19.553 13,19 L13,16 C13,15.938 12.976,15.886 12.965,15.827 C14.146,15.424 15,14.317 15,13 C15,11.343 13.657,10 12,10 Z"/>
</svg>
