<svg width="24" height="24" viewBox="0 0 24 24">
  <path fill-rule="evenodd" d="M21.5546922,20.1432592 C21.3066922,20.2932592 21.0376922,20.3782592 20.7546922,20.4142592 C20.5106922,20.4442592 20.2636922,20.4552592 20.0196922,20.4732592 C19.2306922,20.4492592 18.4536922,20.3422592 17.7126922,20.0802592 C16.4526922,19.6342592 15.6806922,18.7332592 15.3736922,17.4402592 C15.2256922,16.8162592 15.2716922,16.1932592 15.5236922,15.6012592 C15.8216922,14.8992592 16.1346922,14.2032592 16.4596922,13.5132592 C17.0026922,12.3612592 17.5636922,11.2152592 18.1126922,10.0652592 C18.2186922,9.84425916 18.3066922,9.61325916 18.3916922,9.38225916 C18.4676922,9.17825916 18.4856922,8.96425916 18.4446922,8.74825916 C18.4046922,8.53625916 18.2836922,8.39725916 18.0686922,8.34825916 C17.7776922,8.28025916 17.5176922,8.33725916 17.2976922,8.54525916 C17.1126922,8.72225916 16.9666922,8.92725916 16.8496922,9.15325916 C16.3466922,10.1282592 15.8386922,11.1022592 15.3406922,12.0802592 C14.6016922,13.5312592 13.8716922,14.9862592 13.1316922,16.4362592 C13.0116922,16.6702592 12.8736922,16.9012592 12.7126922,17.1102592 C12.1706922,17.8112592 11.3766922,17.9212592 10.6346922,17.6672592 C10.1986922,17.5202592 9.98669221,17.1862592 9.95369221,16.7342592 C9.93669221,16.4992592 9.96569221,16.2682592 10.0526922,16.0462592 C10.3536922,15.2842592 10.6546922,14.5222592 10.9556922,13.7582592 C11.3476922,12.7612592 11.7436922,11.7642592 12.1326922,10.7652592 C12.2376922,10.4952592 12.3206922,10.2152592 12.2996922,9.91725916 C12.2806922,9.65225916 12.2076922,9.40925916 12.0066922,9.21925916 C11.7796922,9.00725916 11.5146922,8.94425916 11.2186922,9.03925916 C10.9106922,9.14025916 10.6786922,9.32825916 10.5536922,9.63925916 C10.1166922,10.7342592 9.67469221,11.8282592 9.23769221,12.9232592 C8.59069221,14.5392592 7.94669221,16.1572592 7.30269221,17.7742592 C7.13369221,18.2002592 6.91769221,18.5972592 6.60869221,18.9392592 C6.25269221,19.3332592 5.80569221,19.5352592 5.28069221,19.5862592 C4.71669221,19.6432592 4.16969221,19.5802592 3.65069221,19.3522592 C2.78869221,18.9742592 2.23869221,18.3312592 2.05169221,17.4002592 C1.96269221,16.9562592 1.99069221,16.5152592 2.11969221,16.0882592 C2.89169221,13.5412592 3.62269221,10.9822592 4.52069221,8.47525916 C4.74369221,7.85225916 4.98669221,7.23525916 5.24869221,6.62725916 C5.79769221,5.35425916 6.81469221,4.69125916 8.15069221,4.47525916 C8.56869221,4.40825916 8.98269221,4.46525916 9.37169221,4.64625916 C9.93269221,4.90625916 10.4986922,5.15625916 11.0506922,5.43525916 C11.4256922,5.62625916 11.7696922,5.59525916 12.1036922,5.37125916 C12.2966922,5.24225916 12.4736922,5.08725916 12.6526922,4.93825916 C12.8666922,4.76025916 13.0626922,4.56125916 13.2876922,4.39925916 C13.9096922,3.95225916 14.5946922,3.90625916 15.3066922,4.13425916 C15.5966922,4.22825916 15.8096922,4.44425916 16.0306922,4.64225916 C16.1666922,4.76525916 16.2966922,4.89425916 16.4296922,5.02025916 C16.7316922,5.30125916 16.9536922,5.33825916 17.2966922,5.12125916 C17.7436922,4.83525916 18.2276922,4.71225916 18.7516922,4.71725916 C19.1056922,4.72125916 19.4576922,4.71525916 19.8076922,4.78725916 C20.7706922,4.98325916 21.3586922,5.56725916 21.6306922,6.50225916 C21.7946922,7.06825916 21.7566922,7.62325916 21.6086922,8.18225916 C21.4026922,8.95925916 21.0966922,9.70025916 20.7786922,10.4342592 C20.3146922,11.5052592 19.8356922,12.5702592 19.3766922,13.6432592 C19.0726922,14.3572592 18.8106922,15.0872592 18.6516922,15.8502592 C18.5826922,16.1792592 18.5456922,16.5102592 18.5576922,16.8472592 C18.5756922,17.3492592 18.8046922,17.7062592 19.2816922,17.8712592 C19.5416922,17.9602592 19.8176922,18.0082592 20.0896922,18.0622592 C20.3926922,18.1222592 20.7006922,18.1542592 21.0026922,18.2182592 C21.1666922,18.2542592 21.3286922,18.3192592 21.4816922,18.3892592 C22.1116922,18.6812592 22.2036922,19.7482592 21.5546922,20.1432592"/>
</svg>
