<?xml version="1.0" encoding="UTF-8"?>
<svg width="20px" height="20px" viewBox="0 0 20 20" version="1.1" xmlns="http://www.w3.org/2000/svg" xmlns:xlink="http://www.w3.org/1999/xlink">
    <!-- Generator: sketchtool 46.2 (44496) - http://www.bohemiancoding.com/sketch -->
    <title>meetup-m--small</title>
    <desc>Created with sketchtool.</desc>
    <defs></defs>
    <g id="Web" stroke="none" stroke-width="1" fill="none" fill-rule="evenodd">
        <g id="meetup-m--small" fill="#000000">
            <path d="M18.5993937,17.5290742 C18.3761915,17.6640755 18.1340892,17.7405762 17.8793867,17.7729765 C17.6597846,17.7999768 17.4374824,17.8098769 17.2178803,17.826077 C16.5077734,17.8044768 15.8084666,17.7081759 15.1415601,17.4723736 C14.0075491,17.0709697 13.3127424,16.2600618 13.0364397,15.0963506 C12.9032384,14.5347451 12.9446388,13.9740397 13.171441,13.4412345 C13.4396436,12.8094284 13.7213464,12.1830223 14.0138492,11.5620163 C14.5025539,10.5252062 15.0074588,9.49379622 15.5015636,8.45878618 C15.5969646,8.25988425 15.6761653,8.05198224 15.7526661,7.84408022 C15.8210667,7.66047844 15.8372669,7.46787657 15.8003665,7.27347469 C15.7643662,7.08267284 15.6554651,6.95757162 15.4619632,6.9134712 C15.2000607,6.8522706 14.9660584,6.9035711 14.7680565,7.09077291 C14.6015549,7.25007446 14.4701536,7.43457625 14.3648526,7.63797822 C13.9121482,8.51548673 13.4549438,9.39209523 13.0067394,10.2723038 C12.341633,11.5782164 11.6846266,12.8877291 11.0186202,14.1927418 C10.9106191,14.4033438 10.7864179,14.6112459 10.6415165,14.7993477 C10.1537118,15.4302538 9.43910484,15.5292548 8.77129836,15.3006525 C8.37889455,15.1683513 8.1880927,14.8677483 8.15839241,14.4609444 C8.14309227,14.2494423 8.16919252,14.0415403 8.24749328,13.8417384 C8.51839591,13.1559317 8.78929853,12.4701251 9.06020116,11.7825184 C9.41300458,10.8852097 9.76940804,9.98790101 10.1195114,9.08879229 C10.2140124,8.84578994 10.2887131,8.59378749 10.2698129,8.32558489 C10.2527127,8.08708258 10.1870121,7.86838046 10.0061103,7.6973788 C9.80180835,7.50657695 9.56330604,7.4498764 9.29690346,7.53537723 C9.01970077,7.62627811 8.81089874,7.79547975 8.69839765,8.07538246 C8.30509384,9.06089202 7.90728998,10.0455016 7.51398616,11.0310111 C6.93168052,12.4854252 6.3520749,13.9416394 5.77246927,15.3969535 C5.6203678,15.7803572 5.42596591,16.1376607 5.14786322,16.4454636 C4.82746011,16.8000671 4.42515621,16.9818688 3.95265162,17.0277693 C3.4450467,17.0790698 2.95274193,17.0223692 2.4856374,16.8171672 C1.70982987,16.4769639 1.21482507,15.8982583 1.04652344,15.0603502 C0.966422662,14.6607463 0.991622906,14.2638425 1.10772403,13.8795388 C1.80253077,11.5872165 2.46043715,9.28409419 3.26864499,7.0277723 C3.46934694,6.46706687 3.68804906,5.91176148 3.92385134,5.36455617 C4.41795614,4.21884506 5.33326501,3.62213927 6.53567668,3.42773739 C6.91188032,3.3674368 7.28448394,3.4187373 7.63458733,3.58163888 C8.13949223,3.81564115 8.64889717,4.04064333 9.14570199,4.29174577 C9.48320526,4.46364744 9.79280827,4.43574716 10.0934112,4.23414521 C10.2671129,4.11804408 10.4264144,3.97854273 10.587516,3.84444143 C10.7801178,3.68423988 10.9565196,3.50513814 11.1590215,3.35933672 C11.7188269,2.95703282 12.3353329,2.91563242 12.9761391,3.12083441 C13.2371417,3.20543523 13.4288435,3.39983712 13.6277455,3.57803885 C13.7501466,3.68873992 13.8671478,3.80484105 13.9868489,3.91824215 C14.2586516,4.1711446 14.4584535,4.20444492 14.7671565,4.00914303 C15.1694604,3.75174053 15.6050646,3.64103946 16.0766692,3.6455395 C16.3952723,3.64913954 16.7120754,3.64373948 17.0270784,3.70854011 C17.8937868,3.88494182 18.422992,4.41054692 18.6677943,5.25205508 C18.8153958,5.76146002 18.7811954,6.26096487 18.6479941,6.76406975 C18.4625924,7.46337653 18.1871897,8.130283 17.9009869,8.7908894 C17.4833829,9.75479875 17.0522787,10.713308 16.6391747,11.6790174 C16.365572,12.3216236 16.1297697,12.97863 15.9866683,13.6653367 C15.9245677,13.9614396 15.8912674,14.2593424 15.9020675,14.5626454 C15.9182677,15.0144498 16.1243697,15.3357529 16.5536738,15.4842543 C16.7876761,15.5643551 17.0360785,15.6075555 17.2808809,15.656156 C17.5535835,15.7101565 17.8307862,15.7389568 18.1025889,15.7965573 C18.2501903,15.8289577 18.3959917,15.8874582 18.533693,15.9504588 C19.1006985,16.2132614 19.1834993,17.1735707 18.5993937,17.5290742" id="Fill-1"></path>
        </g>
    </g>
</svg>