<svg width="24" height="24" viewBox="0 0 24 24">
  <path fill-rule="evenodd" d="M18,3 L6,3 C4.343,3 3,4.343 3,6 L3,14 C3,15.657 4.343,17 6,17 L8.5,17 L9.773,19.548 C10.101,20.201 10.668,20.736 11.376,20.92 C11.585,20.974 11.795,21 12,21 C12.919,21 13.76,20.48 14.171,19.658 L15.5,17 L18,17 C19.657,17 21,15.657 21,14 L21,6 C21,4.343 19.657,3 18,3 M18,5 C18.552,5 19,5.448 19,6 L19,14 C19,14.552 18.552,15 18,15 L15.5,15 C14.742,15 14.05,15.428 13.711,16.105 L12.382,18.764 C12.31,18.909 12.163,19 12,19 C11.96,19 11.919,18.994 11.878,18.983 C11.792,18.962 11.656,18.841 11.563,18.653 L10.289,16.105 C9.95,15.428 9.258,15 8.5,15 L6,15 C5.448,15 5,14.552 5,14 L5,6 C5,5.448 5.448,5 6,5 L18,5"/>
</svg>
