<?xml version="1.0" encoding="utf-8"?>
<!-- Generator: Adobe Illustrator 16.0.0, SVG Export Plug-In . SVG Version: 6.00 Build 0)  -->
<!DOCTYPE svg PUBLIC "-//W3C//DTD SVG 1.1//EN" "http://www.w3.org/Graphics/SVG/1.1/DTD/svg11.dtd">
<svg version="1.1" xmlns="http://www.w3.org/2000/svg" xmlns:xlink="http://www.w3.org/1999/xlink" x="0px" y="0px" width="24px"
	 height="24px" viewBox="0 0 24 24" enable-background="new 0 0 24 24" xml:space="preserve">
<g id="_x31_6px">
</g>
<g id="_x31_6px-grid" display="none">
</g>
<g id="_x32_4px">
	<g>
		<circle cx="4" cy="20" r="2"/>
		<path d="M20,2H4C2.896,2,2,2.895,2,4v10c0,1.104,1,2,2,2c2,0,2-2,4-2h12c1.104,0,2-0.896,2-2V4C22,2.895,21.104,2,20,2z M15,9h-2
			v2c0,0.553-0.447,1-1,1s-1-0.447-1-1V9H9C8.447,9,8,8.553,8,8s0.447-1,1-1h2V5c0-0.553,0.447-1,1-1s1,0.447,1,1v2h2
			c0.553,0,1,0.447,1,1S15.553,9,15,9z"/>
	</g>
</g>
<g id="_x32_4px-grid" display="none">
	<path display="inline" fill="none" stroke="#FF33FF" stroke-width="0.075" stroke-miterlimit="10" d="M21.875,12
		c0,5.522-4.473,10-10,10s-10-4.478-10-10s4.473-10,10-10S21.875,6.478,21.875,12z"/>
	<circle display="inline" fill="none" stroke="#FF33FF" stroke-width="0.075" stroke-miterlimit="10" cx="11.875" cy="12" r="5"/>
	<line display="inline" fill="none" stroke="#FF33FF" stroke-miterlimit="10" x1="4.438" y1="22.75" x2="4.438" y2="22.75"/>
	
		<line display="inline" fill="none" stroke="#FF33FF" stroke-width="0.075" stroke-miterlimit="10" x1="23.875" y1="24" x2="-0.125" y2="0"/>
	
		<line display="inline" fill="none" stroke="#FF33FF" stroke-width="0.075" stroke-miterlimit="10" x1="-0.125" y1="24" x2="23.875" y2="0"/>
</g>
<g id="_x33_6px">
</g>
<g id="_x33_6px-grid" display="none">
</g>
<g id="_x34_8px">
</g>
<g id="_x34_8px-grid" display="none">
</g>
<g id="_x37_2px">
</g>
<g id="_x37_2px-grid" display="none">
</g>
<g id="_x31_60px">
</g>
<g id="_x31_60px-grid" display="none">
</g>
</svg>
