<svg width="24" height="24" viewBox="0 0 24 24">
  <path fill-rule="evenodd" d="M19,11 L19,12.991 C18.985,12.991 18.966,12.988 18.944,12.984 L16.853,11.404 L16.318,11 L15.647,11 L11.5,11 C11.224,11 11,10.776 11,10.5 L11,5.5 C11,5.224 11.224,5 11.5,5 L18.5,5 C18.776,5 19,5.224 19,5.5 L19,11 Z M13,16.5 C13,16.776 12.776,17 12.5,17 L8.353,17 L7.682,17 L7.147,17.404 L5.01,19 L5,19 L5,17 L5,11.5 C5,11.224 5.224,11 5.5,11 L9,11 C9,12.104 9.896,13 11,13 L13,13 L13,16.5 Z M19,3 L11,3 C9.896,3 9,3.896 9,5 L9,9 L5,9 C3.896,9 3,9.896 3,11 L3,17 L3,19 L3,19.137 C3,20.243 3.976,21 5.01,21 C5.439,21 5.878,20.869 6.261,20.58 L8.353,19 L13,19 C14.104,19 15,18.104 15,17 L15,13 L15.647,13 L17.739,14.58 C18.122,14.869 18.561,15 18.99,15 C20.024,15 21,14.243 21,13.137 L21,13 L21,11 L21,5 C21,3.896 20.104,3 19,3 L19,3 Z"/>
</svg>
