<svg width="24" height="24" viewBox="0 0 24 24">
  <path fill-rule="evenodd" d="M11.9996,19.0023925 C13.1026,19.0023925 13.9996,19.8993925 13.9996,21.0023925 C13.9996,22.1053925 13.1026,23.0023925 11.9996,23.0023925 C10.8966,23.0023925 9.9996,22.1053925 9.9996,21.0023925 C9.9996,19.8993925 10.8966,19.0023925 11.9996,19.0023925 Z M18.4,11.5873925 C19.834,11.5873925 21,12.8273925 21,14.3523925 C21,15.8393925 19.858,17.0023925 18.4,17.0023925 L5.599,17.0023925 C4.141,17.0023925 3,15.8393925 3,14.3553925 C3,12.8273925 4.166,11.5873925 5.599,11.5873925 C5.995,11.5873925 6,10.8543925 6,10.8223925 L6,7.2963925 C6,5.5683925 6.712,3.8893925 7.952,2.6893925 C9.128,1.5513925 10.642,0.929392501 12.18,1.0063925 C15.371,1.1113925 17.966,3.9523925 17.966,7.3393925 L17.966,10.6433925 C17.966,11.1823925 18.229,11.5873925 18.4,11.5873925 Z M18.4,15.0023925 C18.758,15.0023925 19,14.7423925 19,14.3553925 C19,13.9383925 18.725,13.5873925 18.4,13.5873925 C17.036,13.5873925 15.966,12.2943925 15.966,10.6433925 L15.966,7.3393925 C15.966,5.0203925 14.238,3.0743925 12.114,3.0043925 C12.075,3.0033925 12.036,3.0023925 11.997,3.0023925 C11.033,3.0023925 10.094,3.3983925 9.342,4.1273925 C8.489,4.9523925 8,6.1073925 8,7.2963925 L8,10.8223925 C8,12.4243925 6.99,13.5873925 5.599,13.5873925 C5.274,13.5873925 5,13.9383925 5,14.3523925 C5,14.7423925 5.241,15.0023925 5.599,15.0023925 L18.4,15.0023925 Z"/>
</svg>
