<svg width="24" height="24" viewBox="0 0 24 24">
  <path fill-rule="evenodd" d="M12.0003292,19.0027923 C13.1033292,19.0027923 14.0003292,19.8997923 14.0003292,21.0027923 C14.0003292,22.1057923 13.1033292,23.0027923 12.0003292,23.0027923 C10.8973292,23.0027923 10.0003292,22.1057923 10.0003292,21.0027923 C10.0003292,19.8997923 10.8973292,19.0027923 12.0003292,19.0027923 Z M18.6487292,16.9783923 L20.7477292,19.3383923 C21.1147292,19.7503923 21.0777292,20.3833923 20.6647292,20.7493923 C20.4737292,20.9193923 20.2367292,21.0023923 20.0007292,21.0023923 C19.7247292,21.0023923 19.4507292,20.8893923 19.2527292,20.6663923 L3.25272918,2.66639233 C2.88572918,2.25439233 2.92272918,1.62239233 3.33572918,1.25539233 C3.74872918,0.88739233 4.37972918,0.92439233 4.74772918,1.33839233 L7.01472918,3.88939233 C7.28372918,3.45839233 7.58372918,3.04639233 7.95272918,2.69039233 C9.12772918,1.55139233 10.6427292,0.92939233 12.1807292,1.00639233 C15.3717292,1.11239233 17.9667292,3.95339233 17.9667292,7.33939233 L17.9667292,10.6433923 C17.9667292,11.1823923 18.2297292,11.5873923 18.4007292,11.5873923 C19.8347292,11.5873923 21.0007292,12.8283923 21.0007292,14.3523923 C21.0007292,15.7523923 19.9847292,16.8523923 18.6487292,16.9783923 Z M12.0003292,16.0027923 C12.0003292,16.5557923 11.5533292,17.0027923 11.0003292,17.0027923 L5.60032918,17.0027923 C4.14232918,17.0027923 3.00032918,15.8397923 3.00032918,14.3557923 C3.00032918,12.8277923 4.16632918,11.5877923 5.60032918,11.5877923 C5.99532918,11.5877923 6.00032918,10.8547923 6.00032918,10.8227923 L6.00032918,11.0027923 C6.00032918,10.4497923 6.44732918,10.0027923 7.00032918,10.0027923 C7.55332918,10.0027923 8.00032918,10.4497923 8.00032918,11.0027923 C8.00032918,11.0707923 7.97532918,11.1297923 7.96132918,11.1937923 C7.81532918,12.5967923 6.87732918,13.5877923 5.60032918,13.5877923 C5.27432918,13.5877923 5.00032918,13.9387923 5.00032918,14.3527923 C5.00032918,14.7427923 5.24132918,15.0027923 5.60032918,15.0027923 L11.0003292,15.0027923 C11.5533292,15.0027923 12.0003292,15.4497923 12.0003292,16.0027923 Z"/>
</svg>
