<?xml version="1.0" encoding="UTF-8"?>
<svg width="28px" height="28px" viewBox="0 0 28 28" version="1.1" xmlns="http://www.w3.org/2000/svg" xmlns:xlink="http://www.w3.org/1999/xlink">
    <!-- Generator: sketchtool 46.2 (44496) - http://www.bohemiancoding.com/sketch -->
    <title>photo-album-add</title>
    <desc>Created with sketchtool.</desc>
    <defs></defs>
    <g id="Web" stroke="none" stroke-width="1" fill="none" fill-rule="evenodd">
        <g id="photo-album-add" fill="#000000">
            <path d="M17.2104,10.3867 L12.5834,15.6267 L9.7454,12.3327 C9.5484,12.1127 9.2634,11.9957 8.9694,11.9977 C8.6744,12.0077 8.3984,12.1457 8.2154,12.3767 L5.3724,15.2387 C5.0294,15.6717 5.1034,16.2947 5.5364,16.6367 C5.9704,16.9797 6.5994,16.8947 6.9414,16.4607 L9.0474,14.5067 L11.8914,17.7597 C12.0814,17.9727 12.3524,17.9997 12.6364,17.9997 L12.6704,17.9997 C12.9674,17.9997 13.2444,17.9417 13.4264,17.7067 L18.7894,11.6137 C19.1284,11.1777 19.0494,10.5497 18.6134,10.2097 C18.1774,9.8707 17.5504,9.9487 17.2104,10.3867 M25.0004,20.9997 C25.0004,18.7947 23.2064,16.9997 21.0004,16.9997 C18.7934,16.9997 17.0004,18.7947 17.0004,20.9997 C17.0004,23.2047 18.7934,24.9997 21.0004,24.9997 C23.2064,24.9997 25.0004,23.2047 25.0004,20.9997 M21.0004,14.9997 L21.0004,5.9997 C21.0004,4.8977 20.1034,3.9997 19.0004,3.9997 L5.0004,3.9997 C3.8974,3.9997 3.0004,4.8977 3.0004,5.9997 L3.0004,19.9997 C3.0004,21.1027 3.8974,21.9997 5.0004,21.9997 L15.0904,21.9997 C15.0354,21.6737 15.0004,21.3417 15.0004,20.9997 C15.0004,17.6927 17.6914,14.9997 21.0004,14.9997 M27.0004,20.8257 C27.0004,24.1327 24.3084,26.9997 21.0004,26.9997 C18.7854,26.9997 16.8514,25.7897 15.8124,23.9997 L5.0004,23.9997 C2.7994,23.9997 1.0004,22.1997 1.0004,19.9997 L1.0004,5.9997 C1.0004,3.7997 2.7994,1.9997 5.0004,1.9997 L19.0004,1.9997 C21.2004,1.9997 23.0004,3.7997 23.0004,5.9997 L23.0004,14.9997 L22.9954,14.9997 C25.3244,15.9997 27.0004,18.2187 27.0004,20.8257 M7.0004,9.9997 C8.1044,9.9997 9.0004,9.1047 9.0004,7.9997 C9.0004,6.8957 8.1044,5.9997 7.0004,5.9997 C5.8954,5.9997 5.0004,6.8957 5.0004,7.9997 C5.0004,9.1047 5.8954,9.9997 7.0004,9.9997 M24.0004,20.9997 C24.0004,21.5517 23.5524,21.9997 23.0004,21.9997 L22.0004,21.9997 L22.0004,22.9997 C22.0004,23.5527 21.5514,23.9997 21.0004,23.9997 C20.4484,23.9997 20.0004,23.5527 20.0004,22.9997 L20.0004,21.9997 L19.0004,21.9997 C18.4484,21.9997 18.0004,21.5517 18.0004,20.9997 C18.0004,20.4487 18.4484,19.9997 19.0004,19.9997 L20.0004,19.9997 L20.0004,18.9997 C20.0004,18.4487 20.4484,17.9997 21.0004,17.9997 C21.5514,17.9997 22.0004,18.4487 22.0004,18.9997 L22.0004,19.9997 L23.0004,19.9997 C23.5524,19.9997 24.0004,20.4487 24.0004,20.9997" id="Fill-1"></path>
        </g>
    </g>
</svg>