<svg width="24" height="24" viewBox="0 0 24 24">
  <path fill-rule="evenodd" d="M19,17 C19,18.103 18.103,19 17,19 L7,19 C5.897,19 5,18.103 5,17 L5,7 C5,5.897 5.897,5 7,5 L17,5 C18.103,5 19,5.897 19,7 L19,17 Z M17,3 C19.206,3 21,4.794 21,7 L21,17 C21,19.206 19.206,21 17,21 L7,21 C4.794,21 3,19.206 3,17 L3,7 C3,4.794 4.794,3 7,3 L17,3 Z M15.2412,11.3496 L12.4312,14.6256 L10.6372,13.2336 C10.2432,12.9286 9.6822,12.9576 9.3242,13.3076 L7.3012,15.2846 C6.9062,15.6706 6.8982,16.3036 7.2842,16.6996 C7.6722,17.0936 8.3042,17.1006 8.6992,16.7156 L10.0982,15.3476 L11.9582,16.7896 C12.1402,16.9316 12.3562,16.9996 12.5702,16.9996 C12.8532,16.9996 13.1342,16.8806 13.3302,16.6506 L16.7592,12.6506 C17.1192,12.2316 17.0702,11.6006 16.6502,11.2416 C16.2322,10.8816 15.6002,10.9296 15.2412,11.3496 Z M9,11 C10.104,11 11,10.104 11,9 C11,7.896 10.104,7 9,7 C7.896,7 7,7.896 7,9 C7,10.104 7.896,11 9,11 Z"/>
</svg>
