<svg width="28" height="28" viewBox="0 0 28 28">
  <g fill-rule="evenodd" transform="translate(2 2)">
    <path d="M12,22 C6.486,22 2,17.514 2,12 C2,6.486 6.486,2 12,2 C17.514,2 22,6.486 22,12 C22,17.514 17.514,22 12,22 M12,0 C5.373,0 0,5.373 0,12 C0,18.627 5.373,24 12,24 C18.627,24 24,18.627 24,12 C24,5.373 18.627,0 12,0"/>
    <path d="M17,11 L13,11 L13,7 C13,6.448 12.552,6 12,6 C11.448,6 11,6.448 11,7 L11,11 L7,11 C6.448,11 6,11.448 6,12 C6,12.552 6.448,13 7,13 L11,13 L11,17 C11,17.553 11.448,18 12,18 C12.552,18 13,17.553 13,17 L13,13 L17,13 C17.553,13 18,12.552 18,12 C18,11.448 17.553,11 17,11"/>
  </g>
</svg>
