<?xml version="1.0" encoding="UTF-8"?>
<svg width="28px" height="28px" viewBox="0 0 28 28" version="1.1" xmlns="http://www.w3.org/2000/svg" xmlns:xlink="http://www.w3.org/1999/xlink">
    <!-- Generator: sketchtool 46.2 (44496) - http://www.bohemiancoding.com/sketch -->
    <title>plus-circle</title>
    <desc>Created with sketchtool.</desc>
    <defs></defs>
    <g id="Web" stroke="none" stroke-width="1" fill="none" fill-rule="evenodd">
        <g id="plus-circle" fill="#000000">
            <path d="M19,13 L15,13 L15,9 C15,8.448 14.552,8 14,8 C13.448,8 13,8.448 13,9 L13,13 L9,13 C8.448,13 8,13.448 8,14 C8,14.552 8.448,15 9,15 L13,15 L13,19 C13,19.553 13.448,20 14,20 C14.552,20 15,19.553 15,19 L15,15 L19,15 C19.553,15 20,14.552 20,14 C20,13.448 19.553,13 19,13 M14,2 C7.373,2 2,7.373 2,14 C2,20.627 7.373,26 14,26 C20.627,26 26,20.627 26,14 C26,7.373 20.627,2 14,2 M14,24 C8.486,24 4,19.514 4,14 C4,8.486 8.486,4 14,4 C19.514,4 24,8.486 24,14 C24,19.514 19.514,24 14,24" id="Page-1"></path>
        </g>
    </g>
</svg>