<svg width="24" height="24" viewBox="0 0 24 24">
  <path fill-rule="evenodd" d="M12.0004,11 C9.7914,11 8.0004,9.209 8.0004,7 C8.0004,4.791 9.7914,3 12.0004,3 C14.2094,3 16.0004,4.791 16.0004,7 C16.0004,9.209 14.2094,11 12.0004,11 Z M16.401,13 C18.937,13 21,15.063 21,17.6 C21,19.475 19.475,21 17.6,21 L6.401,21 C4.526,21 3,19.475 3,17.6 C3,15.063 5.064,13 7.6,13 L16.401,13 Z M17.6,19 C18.372,19 19,18.372 19,17.6 C19,16.166 17.834,15 16.401,15 L7.6,15 C6.166,15 5,16.166 5,17.6 C5,18.372 5.628,19 6.401,19 L17.6,19 Z"/>
</svg>
