<?xml version="1.0" encoding="UTF-8"?>
<svg width="24px" height="24px" viewBox="0 0 24 24" fill="none" xmlns="http://www.w3.org/2000/svg">
    <title>profiles-filled</title>
    <g id="Web" stroke="none" stroke-width="1" fill="none" fill-rule="evenodd">
        <g id="location-pin-filled" fill="#000000">
            <path d="M11.9959 12.5C13.958 12.5 15.7088 13.4923 16.8541 15.0444L17 15.25V15.9286C17 16.174 16.8231 16.3782 16.5899 16.4205L16.5 16.4286H7.5C7.25454 16.4286 7.05039 16.2517 7.00806 16.0184L7 15.9286V15.2381C8.13981 13.5753 9.95339 12.5 11.9959 12.5ZM5.99593 9.5C6.80293 9.5 7.5742 9.66786 8.28228 9.9735C8.59021 10.7549 9.13821 11.4146 9.8347 11.8638C8.8845 12.1899 8.01411 12.7274 7.26414 13.428L1.5 13.4286C1.25454 13.4286 1.05039 13.2517 1.00806 13.0184L1 12.9286V12.2381C2.13981 10.5753 3.95339 9.5 5.99593 9.5ZM12 5.5C13.6569 5.5 15 6.84315 15 8.5C15 10.1569 13.6569 11.5 12 11.5C10.3431 11.5 9 10.1569 9 8.5C9 6.84315 10.3431 5.5 12 5.5ZM6 2.5C7.65685 2.5 9 3.84315 9 5.5C9 5.63011 8.99172 5.75829 8.97565 5.88403C8.54446 6.3802 8.23481 6.98383 8.09069 7.64913C7.55162 8.1761 6.81363 8.5 6 8.5C4.34315 8.5 3 7.15685 3 5.5C3 3.84315 4.34315 2.5 6 2.5Z" fill="#A2A2A2"/>
        </g>
    </g>
</svg>
