<svg width="24" height="24" viewBox="0 0 24 24">
  <path fill-rule="evenodd" d="M19.89825,13.00025 C19.43425,10.72125 17.41425,9.00025 15.00025,9.00025 L7.41425,9.00025 L11.70725,4.70725 C12.09725,4.31625 12.09725,3.68425 11.70725,3.29325 C11.31625,2.90225 10.68325,2.90225 10.29325,3.29325 L4.29325,9.29325 C3.90225,9.68425 3.90225,10.31625 4.29325,10.70725 L10.29325,16.70725 C10.48825,16.90225 10.74425,17.00025 11.00025,17.00025 C11.25525,17.00025 11.51125,16.90225 11.70725,16.70725 C12.09725,16.31625 12.09725,15.68425 11.70725,15.29325 L7.41425,11.00025 L15.00025,11.00025 C16.65425,11.00025 18.00025,12.34625 18.00025,14.00025 L18.00025,20.00025 C18.00025,20.55325 18.44725,21.00025 19.00025,21.00025 C19.55225,21.00025 20.00025,20.55325 20.00025,20.00025 L20.00025,13.00025 L19.89825,13.00025 Z"/>
</svg>
