<svg width="24" height="24" viewBox="0 0 24 24">
  <path fill-rule="evenodd" d="M18.743,18.744 C18.413,19.073 17.841,19.073 17.511,18.744 L13.981,15.215 C13.642,14.875 13.641,14.322 13.981,13.982 C14.321,13.644 14.875,13.642 15.215,13.982 L18.743,17.512 C18.908,17.676 18.999,17.895 18.999,18.127 C18.999,18.36 18.908,18.579 18.743,18.744 M5,8.364 C5,6.509 6.509,5 8.363,5 C10.218,5 11.726,6.509 11.726,8.364 C11.726,9.281 11.355,10.112 10.758,10.719 C10.75,10.726 10.74,10.728 10.732,10.736 C10.725,10.744 10.722,10.753 10.716,10.761 C10.109,11.357 9.279,11.727 8.363,11.727 C6.509,11.727 5,10.218 5,8.364 M20.157,16.097 L16.629,12.567 C15.756,11.697 14.465,11.513 13.406,11.996 L12.792,11.382 C13.38,10.521 13.726,9.483 13.726,8.364 C13.726,5.406 11.32,3 8.363,3 C5.406,3 3,5.406 3,8.364 C3,11.321 5.406,13.727 8.363,13.727 C9.48,13.727 10.517,13.382 11.377,12.795 L11.993,13.411 C11.513,14.47 11.698,15.76 12.567,16.629 L16.097,20.158 C16.639,20.701 17.359,20.999 18.127,20.999 C18.894,20.999 19.615,20.701 20.157,20.159 C20.7,19.616 20.999,18.895 20.999,18.127 C20.999,17.36 20.7,16.639 20.157,16.097"/>
</svg>
