<svg width="24" height="24" viewBox="0 0 24 24">
  <path fill-rule="evenodd" d="M18.2222222,4 L5.76888889,4 C4.78222222,4 4.00888889,4.79111111 4.00888889,5.77777778 L4,18.2222222 C4,19.2 4.78222222,20 5.76888889,20 L18.2222222,20 C19.2,20 20,19.2 20,18.2222222 L20,5.77777778 C20,4.79111111 19.2,4 18.2222222,4 Z M18.2222222,14.6666667 L14.6666667,14.6666667 C14.6666667,16.1422222 13.4666667,17.3333333 12,17.3333333 C10.5333333,17.3333333 9.33333333,16.1422222 9.33333333,14.6666667 L5.76888889,14.6666667 L5.76888889,5.77777778 L18.2222222,5.77777778 L18.2222222,14.6666667 Z"/>
</svg>
