<?xml version="1.0" encoding="UTF-8"?>
<svg width="20px" height="20px" viewBox="0 0 20 20" version="1.1" xmlns="http://www.w3.org/2000/svg" xmlns:xlink="http://www.w3.org/1999/xlink">
    <!-- Generator: sketchtool 46.2 (44496) - http://www.bohemiancoding.com/sketch -->
    <title>show--small</title>
    <desc>Created with sketchtool.</desc>
    <defs></defs>
    <g id="Web" stroke="none" stroke-width="1" fill="none" fill-rule="evenodd">
        <g id="show--small" fill-rule="nonzero" fill="#000000">
            <path d="M10,4 C13.9729829,4 17.4890638,6.33518972 18.9238444,9.81528278 L19,10 L18.9238444,10.1847172 C17.4890638,13.6648103 13.9729829,16 10,16 C6.02701708,16 2.51093617,13.6648103 1.07615563,10.1847172 L1,10 L1.07615563,9.81528278 C2.51093617,6.33518972 6.02701708,4 10,4 Z M10,5 C6.47498518,5 3.34682323,6.99930203 2,10 C3.34682323,13.000698 6.47498518,15 10,15 C13.5250148,15 16.6531768,13.000698 18,10 C16.6531768,6.99930203 13.5250148,5 10,5 Z M10,7 C11.6594135,7 13,8.3405865 13,10 C13,11.6594135 11.6594135,13 10,13 C8.3405865,13 7,11.6594135 7,10 C7,8.3405865 8.3405865,7 10,7 Z M10,8 C8.89270985,8 8,8.89270985 8,10 C8,11.1072901 8.89270985,12 10,12 C11.1072901,12 12,11.1072901 12,10 C12,8.89270985 11.1072901,8 10,8 Z" id="Shape-Copy-2"></path>
        </g>
    </g>
</svg>