<?xml version="1.0" encoding="UTF-8"?>
<svg width="28px" height="28px" viewBox="0 0 28 28" version="1.1" xmlns="http://www.w3.org/2000/svg" xmlns:xlink="http://www.w3.org/1999/xlink">
    <!-- Generator: Sketch 52.3 (67297) - http://www.bohemiancoding.com/sketch -->
    <title>sort-direction</title>
    <desc>Created with Sketch.</desc>
    <g id="sort-direction" stroke="none" stroke-width="1" fill="none" fill-rule="evenodd">
        <rect id="Rectangle" fill="#FFFFFF" fill-rule="nonzero" opacity="0" x="0" y="0" width="28" height="28"></rect>
        <path d="M8.5,5.57080187 L8.5,20 C8.5,20.5522847 8.05228475,21 7.5,21 C6.94771525,21 6.5,20.5522847 6.5,20 L6.5,5.57080187 L2.73715414,9.67572463 C2.36396173,10.0828436 1.73139436,10.1103465 1.32427537,9.73715414 C0.917156382,9.36396173 0.889653452,8.73139436 1.26284586,8.32427537 L6.76284586,2.32427537 C7.15918242,1.89190821 7.84081758,1.89190821 8.23715414,2.32427537 L13.7371541,8.32427537 C14.1103465,8.73139436 14.0828436,9.36396173 13.6757246,9.73715414 C13.2686056,10.1103465 12.6360383,10.0828436 12.2628459,9.67572463 L8.5,5.57080187 Z M21.2386638,25.6740836 C21.055797,25.8743567 20.7925713,26 20.5,26 C20.2074287,26 19.944203,25.8743567 19.7613362,25.6740836 L14.2628459,19.6757305 C13.8896535,19.2686115 13.9171564,18.6360442 14.3242754,18.2628518 C14.7313944,17.8896593 15.3639617,17.9171623 15.7371541,18.3242813 L19.5,22.429204 L19.5,10 C19.5,9.44771525 19.9477153,9 20.5,9 C21.0522847,9 21.5,9.44771525 21.5,10 L21.5,22.429204 L25.2628459,18.3242813 C25.6360383,17.9171623 26.2686056,17.8896593 26.6757246,18.2628518 C27.0828436,18.6360442 27.1103465,19.2686115 26.7371541,19.6757305 L21.2386638,25.6740836 Z" id="Combined-Shape" fill="#000000" fill-rule="nonzero"></path>
    </g>
</svg>