<?xml version="1.0" encoding="UTF-8"?>
<svg width="24px" height="24px" viewBox="0 0 24 24" version="1.1" xmlns="http://www.w3.org/2000/svg" xmlns:xlink="http://www.w3.org/1999/xlink">
    <!-- Generator: Sketch 52.3 (67297) - http://www.bohemiancoding.com/sketch -->
    <title>sort-direction--small</title>
    <desc>Created with Sketch.</desc>
    <g id="sort-direction--small" stroke="none" stroke-width="1" fill="none" fill-rule="evenodd">
        <rect id="Rectangle" fill="#FFFFFF" fill-rule="nonzero" opacity="0" x="0" y="0" width="24" height="24"></rect>
        <path d="M17.3,20.3928932 L21.2464466,16.4464466 C21.4417088,16.2511845 21.7582912,16.2511845 21.9535534,16.4464466 C22.1488155,16.6417088 22.1488155,16.9582912 21.9535534,17.1535534 L17.1535534,21.9535534 C16.9582912,22.1488155 16.6417088,22.1488155 16.4464466,21.9535534 L11.6464466,17.1535534 C11.4511845,16.9582912 11.4511845,16.6417088 11.6464466,16.4464466 C11.8417088,16.2511845 12.1582912,16.2511845 12.3535534,16.4464466 L16.3,20.3928932 L16.3,7.2 C16.3,6.92385763 16.5238576,6.7 16.8,6.7 C17.0761424,6.7 17.3,6.92385763 17.3,7.2 L17.3,20.3928932 Z M7.7,3.60710678 L7.7,16.8 C7.7,17.0761424 7.47614237,17.3 7.2,17.3 C6.92385763,17.3 6.7,17.0761424 6.7,16.8 L6.7,3.60710678 L2.75355339,7.55355339 C2.55829124,7.74881554 2.24170876,7.74881554 2.04644661,7.55355339 C1.85118446,7.35829124 1.85118446,7.04170876 2.04644661,6.84644661 L6.84644661,2.04644661 C7.04170876,1.85118446 7.35829124,1.85118446 7.55355339,2.04644661 L12.3535534,6.84644661 C12.5488155,7.04170876 12.5488155,7.35829124 12.3535534,7.55355339 C12.1582912,7.74881554 11.8417088,7.74881554 11.6464466,7.55355339 L7.7,3.60710678 Z" id="Combined-Shape" fill="#000000" fill-rule="nonzero"></path>
    </g>
</svg>