<svg width="24" height="24" viewBox="0 0 24 24">
  <g>
    <path d="M18.2125996,2.5 C20.0183703,2.5 21.4891746,3.97180006 21.4891746,5.77777778 L21.4891746,18.2222222 C21.4891746,20.0281999 20.0183703,21.5 18.2125996,21.5 L5.77657495,21.5 C3.96382148,21.5 2.5,20.0301189 2.5,18.2222222 L2.5,5.77777778 C2.5,3.96988111 3.96382148,2.5 5.77657495,2.5 L18.2125996,2.5 Z M18.2125996,5.5 L5.77657495,5.5 C5.62345635,5.5 5.5,5.62396741 5.5,5.77777778 L5.5,18.2222222 C5.5,18.3760326 5.62345635,18.5 5.77657495,18.5 L18.2125996,18.5 C18.3610614,18.5 18.4891746,18.3718001 18.4891746,18.2222222 L18.4891746,5.77777778 C18.4891746,5.62819994 18.3610614,5.5 18.2125996,5.5 Z"/>
    <path d="M16,10.7 C16.2761424,10.7 16.5,10.9238576 16.5,11.2 L16.5,12.8 C16.5,13.0761424 16.2761424,13.3 16,13.3 L13.3,13.3 L13.3,16 C13.3,16.2761424 13.0761424,16.5 12.8,16.5 L11.2,16.5 C10.9238576,16.5 10.7,16.2761424 10.7,16 L10.7,13.3 L8,13.3 C7.72385763,13.3 7.5,13.0761424 7.5,12.8 L7.5,11.2 C7.5,10.9238576 7.72385763,10.7 8,10.7 L10.7,10.7 L10.7,8 C10.7,7.72385763 10.9238576,7.5 11.2,7.5 L12.8,7.5 C13.0761424,7.5 13.3,7.72385763 13.3,8 L13.3,10.7 L16,10.7 Z"/>
  </g>
</svg>
