<svg width="24" height="24" viewBox="0 0 24 24">
  <path fill-rule="evenodd" d="M11.0015,16.2529 L14.3195,18.8379 C14.6675,19.1069 15.1295,19.0089 15.3785,18.6739 C15.4825,18.5339 15.5855,18.2979 15.4865,17.9729 L14.2095,13.7589 L17.6955,11.0449 C18.1095,10.7229 17.9985,10.2789 17.9545,10.1499 C17.9005,9.9939 17.7245,9.6309 17.2465,9.6309 L12.9565,9.6309 L11.7185,5.5479 C11.5645,5.0399 11.1305,4.9999 11.0015,4.9999 C10.8725,4.9999 10.4385,5.0399 10.2845,5.5489 L9.0465,9.6309 L4.7565,9.6309 C4.2795,9.6309 4.1035,9.9939 4.0495,10.1489 C4.0055,10.2779 3.8945,10.7229 4.3085,11.0449 L7.7945,13.7589 L6.5165,17.9719 C6.4175,18.2989 6.5205,18.5339 6.6245,18.6749 C6.8755,19.0109 7.3345,19.1089 7.6815,18.8379 L11.0015,16.2529 Z M14.7605,20.9999 C14.1615,20.9999 13.5845,20.7989 13.0915,20.4169 L11.0015,18.7879 L8.9105,20.4159 C7.7135,21.3479 5.9105,21.0689 5.0175,19.8649 C4.4915,19.1559 4.3405,18.2539 4.6025,17.3909 L5.4815,14.4929 L3.0795,12.6229 C2.1245,11.8789 1.7625,10.6529 2.1585,9.4999 C2.5475,8.3649 3.5675,7.6309 4.7565,7.6309 L7.5635,7.6309 L8.3705,4.9679 C8.7335,3.7729 9.7665,2.9999 11.0015,2.9999 C12.2375,2.9999 13.2695,3.7729 13.6325,4.9679 L14.4405,7.6309 L17.2465,7.6309 C18.4355,7.6309 19.4565,8.3649 19.8455,9.5019 C20.2415,10.6539 19.8795,11.8799 18.9235,12.6229 L16.5215,14.4929 L17.4005,17.3919 C17.6625,18.2539 17.5105,19.1549 16.9855,19.8649 C16.4585,20.5759 15.6265,20.9999 14.7605,20.9999 L14.7605,20.9999 Z"/>
</svg>
