<svg width="20" height="20" viewBox="0 0 20 20">
  <path fill-rule="evenodd" d="M13.5,10.5 C13.5,10.224 13.276,10 13,10 L5,10 C4.724,10 4.5,10.224 4.5,10.5 C4.5,10.776 4.724,11 5,11 L13,11 C13.276,11 13.5,10.776 13.5,10.5 M13.5,7.5 C13.5,7.224 13.276,7 13,7 L5,7 C4.724,7 4.5,7.224 4.5,7.5 C4.5,7.776 4.724,8 5,8 L13,8 C13.276,8 13.5,7.776 13.5,7.5 M19,8.277 L19,6 C19,4.346 17.654,3 16,3 L4,3 C2.346,3 1,4.346 1,6 L1,8.277 C1.595,8.624 2,9.262 2,10 C2,10.738 1.595,11.376 1,11.723 L1,14 C1,15.654 2.346,17 4,17 L16,17 C17.654,17 19,15.654 19,14 L19,11.723 C18.405,11.376 18,10.738 18,10 C18,9.262 18.405,8.624 19,8.277 M20,6 L20,9 C19.449,9 19,9.448 19,10 C19,10.552 19.449,11 20,11 L20,12 L20,14 C20,16.2 18.2,18 16,18 L4,18 C1.8,18 0,16.2 0,14 L0,11 C0.551,11 1,10.552 1,10 C1,9.448 0.551,9 0,9 L0,6 C0,3.8 1.8,2 4,2 L16,2 C18.2,2 20,3.8 20,6 M15,14.5 C15,14.776 15.224,15 15.5,15 C15.776,15 16,14.776 16,14.5 C16,14.224 15.776,14 15.5,14 C15.224,14 15,14.224 15,14.5 M15,11.5 C15,11.776 15.224,12 15.5,12 C15.776,12 16,11.776 16,11.5 C16,11.224 15.776,11 15.5,11 C15.224,11 15,11.224 15,11.5 M15,8.5 C15,8.776 15.224,9 15.5,9 C15.776,9 16,8.776 16,8.5 C16,8.224 15.776,8 15.5,8 C15.224,8 15,8.224 15,8.5 M15.5,5 C15.776,5 16,5.224 16,5.5 C16,5.776 15.776,6 15.5,6 C15.224,6 15,5.776 15,5.5 C15,5.224 15.224,5 15.5,5"/>
</svg>
