<?xml version="1.0" encoding="utf-8"?>
<!-- Generator: Adobe Illustrator 16.0.0, SVG Export Plug-In . SVG Version: 6.00 Build 0)  -->
<!DOCTYPE svg PUBLIC "-//W3C//DTD SVG 1.1//EN" "http://www.w3.org/Graphics/SVG/1.1/DTD/svg11.dtd">
<svg version="1.1" xmlns="http://www.w3.org/2000/svg" xmlns:xlink="http://www.w3.org/1999/xlink" x="0px" y="0px" width="24px"
	 height="24px" viewBox="0 0 24 24" enable-background="new 0 0 24 24" xml:space="preserve">
<g id="_x31_6px">
</g>
<g id="_x31_6px-grid" display="none">
</g>
<g id="_x32_4px">
	<path fill-rule="evenodd" clip-rule="evenodd" d="M3.5,10.5C2.671,10.5,2,11.172,2,12s0.671,1.5,1.5,1.5S5,12.828,5,12
		S4.329,10.5,3.5,10.5z M5.75,5C4.783,5,4,5.783,4,6.75S4.783,8.5,5.75,8.5S7.5,7.717,7.5,6.75S6.717,5,5.75,5z M11,6
		c1.104,0,2-0.896,2-2c0-1.105-0.896-2-2-2C9.895,2,9,2.895,9,4C9,5.104,9.895,6,11,6z M17.5,9C18.881,9,20,7.881,20,6.5
		S18.881,4,17.5,4C16.119,4,15,5.119,15,6.5S16.119,9,17.5,9z M19,11c-1.657,0-3,1.343-3,3s1.343,3,3,3s3-1.343,3-3S20.657,11,19,11
		z M12,15c-2.209,0-4,1.79-4,4s1.791,4,4,4s4-1.79,4-4S14.209,15,12,15z"/>
</g>
<g id="_x32_4px-grid" display="none">
	<path display="inline" fill="none" stroke="#FF33FF" stroke-width="0.075" stroke-miterlimit="10" d="M22,12
		c0,5.522-4.473,10-10,10S2,17.522,2,12S6.473,2,12,2S22,6.478,22,12z"/>
	<circle display="inline" fill="none" stroke="#FF33FF" stroke-width="0.075" stroke-miterlimit="10" cx="12" cy="12" r="5"/>
	<line display="inline" fill="none" stroke="#FF33FF" stroke-miterlimit="10" x1="4.312" y1="22.5" x2="4.312" y2="22.5"/>
	<line display="inline" fill="none" stroke="#FF33FF" stroke-width="0.075" stroke-miterlimit="10" x1="24" y1="0" x2="0" y2="24"/>
	<line display="inline" fill="none" stroke="#FF33FF" stroke-width="0.075" stroke-miterlimit="10" x1="0" y1="0" x2="24" y2="24"/>
</g>
<g id="_x34_8px">
</g>
<g id="_x34_8px-grid" display="none">
</g>
<g id="_x31_60px">
</g>
<g id="_x31_60px-grid" display="none">
</g>
</svg>
