<svg width="24" height="24" viewBox="0 0 24 24">
  <path fill-rule="evenodd" d="M16,7 C16,9.209 14.209,11 12,11 C9.791,11 8,9.209 8,7 C8,4.791 9.791,3 12,3 C14.209,3 16,4.791 16,7 Z M11,13 C11.553,13 12,13.447 12,14 C12,14.553 11.553,15 11,15 L10.079,15 L10,15 L7.6,15 C6.166,15 5,16.166 5,17.6 C5,18.372 5.628,19 6.4,19 L9,19 L10,19 C10.553,19 11,19.447 11,20 C11,20.553 10.553,21 10,21 L9.262,21 L9,21 L6.4,21 C4.525,21 3,19.475 3,17.6 C3,15.063 5.063,13 7.6,13 L10,13 L10.721,13 L11,13 Z M18,12.9997 C20.7608333,12.9997 23,15.2388667 23,17.9997 C23,20.7613667 20.7608333,22.9997 18,22.9997 C15.2383333,22.9997 13,20.7613667 13,17.9997 C13,15.2388667 15.2383333,12.9997 18,12.9997 Z M20.36,20.1288667 C20.6158333,19.7455333 20.5125,19.2288667 20.1291667,18.9730333 L18.8333333,18.1097 L18.8333333,16.3330333 C18.8333333,15.8730333 18.4608333,15.4997 18,15.4997 C17.5391667,15.4997 17.1666667,15.8730333 17.1666667,16.3330333 L17.1666667,18.5555333 C17.1666667,18.8338667 17.3058333,19.0947 17.5375,19.2488667 L19.2041667,20.3597 C19.3466667,20.4547 19.5075,20.4997 19.6658333,20.4997 C19.935,20.4997 20.2,20.3697 20.36,20.1288667 Z"/>
</svg>
