<svg width="20" height="20" viewBox="0 0 20 20">
  <path fill-rule="evenodd" d="M17,11 C17,10.449 16.551,10 16,10 C14.897,10 14,9.103 14,8 L14,6 C14,3.794 12.206,2 10,2 C7.794,2 6,3.794 6,6 L6,8 C6,9.103 5.103,10 4,10 C3.449,10 3,10.449 3,11 C3,11.551 3.449,12 4,12 L16,12 C16.551,12 17,11.551 17,11 M18,11 C18,12.104 17.104,13 16,13 L4,13 C2.896,13 2,12.104 2,11 C2,9.896 2.896,9 4,9 C4.552,9 5,8.552 5,8 L5,6 C5,3.239 7.239,1 10,1 C12.761,1 15,3.239 15,6 L15,8 C15,8.552 15.448,9 16,9 C17.104,9 18,9.896 18,11 M12,17 C12,18.104 11.104,19 10,19 C8.896,19 8,18.104 8,17 C8,15.896 8.896,15 10,15 C11.104,15 12,15.896 12,17"/>
</svg>
