<svg xmlns:xlink="http://www.w3.org/1999/xlink" width="20" height="20" viewBox="0 0 20 20">
  <defs>
    <polygon id="notifications-mute--small-a" points="0 18 16 18 16 0 0 0"/>
  </defs>
  <g fill="none" fill-rule="evenodd" transform="translate(2 1)">
    <mask id="notifications-mute--small-b" fill="#fff">
      <use xlink:href="#notifications-mute--small-a"/>
    </mask>
    <path fill="#000" d="M8.0859,11.5 C8.0859,11.224 7.8619,11 7.5859,11 L1.9999,11 C1.4489,11 0.9999,10.551 0.9999,10 C0.9999,9.449 1.4489,9 1.9999,9 C2.9739,9 3.7849,8.299 3.9619,7.376 L3.9999,6.5 C3.9999,6.224 3.7759,6 3.4999,6 C3.2239,6 2.9999,6.224 2.9999,6.5 L2.9999,7 C2.9999,7.552 2.5519,8 1.9999,8 C0.8959,8 -0.0001,8.896 -0.0001,10 C-0.0001,11.104 0.8959,12 1.9999,12 L7.5859,12 C7.8619,12 8.0859,11.776 8.0859,11.5 L8.0859,11.5 Z M7.9999,14 C6.8959,14 5.9999,14.896 5.9999,16 C5.9999,17.104 6.8959,18 7.9999,18 C9.1049,18 9.9999,17.104 9.9999,16 C9.9999,14.896 9.1049,14 7.9999,14 L7.9999,14 Z M7.9999,1 C10.2059,1 11.9999,2.794 11.9999,5 L11.9999,7 C11.9999,8.103 12.8979,9 13.9999,9 C14.5509,9 14.9999,9.449 14.9999,10 C14.9999,10.551 14.5509,11 13.9999,11 L11.7069,11 L4.2949,3.588 C4.8659,2.083 6.2959,1 7.9999,1 L7.9999,1 Z M12.7069,12 L13.9999,12 C15.1049,12 15.9999,11.104 15.9999,10 C15.9999,8.896 15.1049,8 13.9999,8 C13.4479,8 12.9999,7.552 12.9999,7 L12.9999,5 C12.9999,2.239 10.7609,0 7.9999,0 C6.0239,0 4.3379,1.157 3.5289,2.822 L0.8539,0.146 C0.6579,-0.049 0.3419,-0.049 0.1469,0.146 C-0.0491,0.342 -0.0491,0.658 0.1469,0.854 L15.1469,15.854 C15.2439,15.951 15.3719,16 15.4999,16 C15.6279,16 15.7559,15.951 15.8539,15.854 C16.0489,15.658 16.0489,15.342 15.8539,15.146 L12.7069,12 Z" mask="url(#notifications-mute--small-b)"/>
  </g>
</svg>
