<svg width="20" height="20" viewBox="0 0 20 20">
  <g fill-rule="evenodd" transform="translate(0 8)">
    <path d="M2 3C1.448 3 1 2.551 1 2 1 1.449 1.448 1 2 1 2.552 1 3 1.449 3 2 3 2.551 2.552 3 2 3M2 0C.896 0 0 .896 0 2 0 3.104.896 4 2 4 3.104 4 4 3.104 4 2 4 .896 3.104 0 2 0M10 3C9.448 3 9 2.551 9 2 9 1.449 9.448 1 10 1 10.552 1 11 1.449 11 2 11 2.551 10.552 3 10 3M10 0C8.896 0 8 .896 8 2 8 3.104 8.896 4 10 4 11.104 4 12 3.104 12 2 12 .896 11.104 0 10 0M18 3C17.448 3 17 2.551 17 2 17 1.449 17.448 1 18 1 18.552 1 19 1.449 19 2 19 2.551 18.552 3 18 3M18 0C16.896 0 16 .896 16 2 16 3.104 16.896 4 18 4 19.104 4 20 3.104 20 2 20 .896 19.104 0 18 0"/>
  </g>
</svg>
