<svg xmlns:xlink="http://www.w3.org/1999/xlink" width="20" height="20" viewBox="0 0 20 20">
  <defs>
    <polygon id="trash--small-a" points="7.5 20 0 20 0 0 7.5 0 15 0 15 20 7.5 20"/>
  </defs>
  <g fill="none" fill-rule="evenodd" transform="translate(2)">
    <mask id="trash--small-b" fill="#fff">
      <use xlink:href="#trash--small-a"/>
    </mask>
    <path fill="#000" d="M12.5596,3 L12.4996,3 L11.8816,3 L3.1186,3 L2.3806,3 L3.4976,18.93 L3.4996,18.965 L3.4996,18.998 C3.5176,18.999 3.5386,19 3.5626,19 L11.4376,19 C11.4606,19 11.4816,18.999 11.4996,18.998 L11.4996,18.965 L11.4726,18.93 L12.5596,3 Z M3.6176,2 L11.3826,2 L11.0536,1.342 C10.9766,1.188 10.6706,1 10.4996,1 L4.4996,1 C4.3296,1 4.0236,1.188 3.9466,1.342 L3.6176,2 Z M14.9996,2.5 C14.9996,2.776 14.7766,3 14.4996,3 L13.6216,3 L12.4996,19 C12.4996,19.684 12.1226,20 11.4376,20 L3.5626,20 C2.8786,20 2.4996,19.684 2.4996,19 L1.3776,3 L0.4996,3 C0.2236,3 -0.0004,2.776 -0.0004,2.5 C-0.0004,2.224 0.2236,2 0.4996,2 L1.3076,2 L2.4996,2 L3.0536,0.895 C3.2986,0.402 3.9506,0 4.4996,0 L10.4996,0 C11.0496,0 11.7016,0.402 11.9466,0.895 L12.4996,2 L13.6926,2 L14.4996,2 C14.7766,2 14.9996,2.224 14.9996,2.5 L14.9996,2.5 Z M10.4996,4.5 C10.4996,4.224 10.2766,4 9.9996,4 C9.7236,4 9.4996,4.224 9.4996,4.5 L9.4996,17 C9.4996,17.276 9.7236,17.5 9.9996,17.5 C10.2766,17.5 10.4996,17.276 10.4996,17 L10.4996,4.5 Z M5.4996,4.5 C5.4996,4.224 5.2766,4 4.9996,4 C4.7236,4 4.4996,4.224 4.4996,4.5 L4.4996,17 C4.4996,17.276 4.7236,17.5 4.9996,17.5 C5.2766,17.5 5.4996,17.276 5.4996,17 L5.4996,4.5 Z M7.9996,17 C7.9996,17.276 7.7766,17.5 7.4996,17.5 C7.2236,17.5 6.9996,17.276 6.9996,17 L6.9996,4.5 C6.9996,4.224 7.2236,4 7.4996,4 C7.7766,4 7.9996,4.224 7.9996,4.5 L7.9996,17 Z" mask="url(#trash--small-b)"/>
  </g>
</svg>
